<?xml version="1.0" encoding="UTF-8" standalone="no"?>
<svg xmlns="http://www.w3.org/2000/svg" xmlns:xlink="http://www.w3.org/1999/xlink" width="1200" height="1200" version="1.0" viewBox="0 0 1200 1200.0001">
  <defs>
    <linearGradient xlink:href="#a" id="q" x1="627.90002" x2="637.77002" y1="466.67001" y2="466.29999" gradientTransform="matrix(2.9748 0 0 2.7401 -1558 -613.49)" gradientUnits="userSpaceOnUse"/>
    <linearGradient xlink:href="#b" id="p" x1="613.09998" x2="623.53003" y1="468.98999" y2="468.98999" gradientTransform="matrix(2.9748 0 0 2.7401 -1558 -613.49)" gradientUnits="userSpaceOnUse"/>
    <linearGradient xlink:href="#b" id="o" x1="617.53998" x2="633.71002" y1="461.76999" y2="461.76999" gradientTransform="matrix(2.9748 0 0 2.7401 -1558 -613.49)" gradientUnits="userSpaceOnUse"/>
    <linearGradient xlink:href="#b" id="n" x1="613.84003" x2="620.02002" y1="450.12" y2="450.12" gradientTransform="matrix(2.9748 0 0 2.7401 -1558 -613.49)" gradientUnits="userSpaceOnUse"/>
    <linearGradient xlink:href="#b" id="m" x1="608.28998" x2="613.59998" y1="461.03" y2="459.73999" gradientTransform="matrix(2.9748 0 0 2.7401 -1558 -613.49)" gradientUnits="userSpaceOnUse"/>
    <linearGradient id="l" x1="609.15997" x2="614.59003" y1="451.42001" y2="448.45999" gradientTransform="matrix(2.9748 0 0 2.7401 -1558 -613.49)" gradientUnits="userSpaceOnUse">
      <stop offset="0"/>
      <stop offset="1" stop-opacity="0"/>
    </linearGradient>
    <linearGradient id="b">
      <stop offset="0" stop-color="#c3b08a"/>
      <stop offset="1" stop-color="#6a5c43"/>
    </linearGradient>
    <linearGradient xlink:href="#b" id="k" x1="609.15997" x2="614.59003" y1="451.42001" y2="448.45999" gradientTransform="matrix(2.9748 0 0 2.7401 -1558 -613.49)" gradientUnits="userSpaceOnUse"/>
    <linearGradient xlink:href="#a" id="j" x1="614.03003" x2="638.51001" y1="437.26999" y2="437.26999" gradientTransform="matrix(2.9748 0 0 2.7401 -1558 -613.49)" gradientUnits="userSpaceOnUse"/>
    <linearGradient xlink:href="#a" id="i" x1="608.84998" x2="630.01001" y1="437.09" y2="436.72" gradientTransform="matrix(2.9748 0 0 2.7401 -1558 -613.49)" gradientUnits="userSpaceOnUse"/>
    <linearGradient xlink:href="#a" id="h" x1="618.65002" x2="638.51001" y1="448.26999" y2="448.26999" gradientTransform="matrix(2.9748 0 0 2.7401 -1558 -613.49)" gradientUnits="userSpaceOnUse"/>
    <linearGradient xlink:href="#a" id="g" x1="609.03003" x2="633.34003" y1="459.09" y2="459.09" gradientTransform="matrix(2.9748 0 0 2.7401 -1558 -613.49)" gradientUnits="userSpaceOnUse"/>
    <linearGradient xlink:href="#a" id="f" x1="656.19" x2="664.21997" y1="449.85001" y2="445.78" gradientTransform="matrix(2.9748 0 0 2.7401 -1622.9 -630.72)" gradientUnits="userSpaceOnUse"/>
    <linearGradient xlink:href="#a" id="e" x1="666.91998" x2="676.60999" y1="449.20001" y2="455.12" gradientTransform="matrix(2.9748 0 0 2.7401 -1622.9 -630.72)" gradientUnits="userSpaceOnUse"/>
    <linearGradient id="a">
      <stop offset="0" stop-color="#c3b08a"/>
      <stop offset="1" stop-color="#e7dfd1"/>
    </linearGradient>
    <linearGradient xlink:href="#a" id="d" x1="660.63" x2="673.28003" y1="432.92001" y2="432.92001" gradientTransform="matrix(2.9748 0 0 2.7401 -1622.9 -630.72)" gradientUnits="userSpaceOnUse"/>
    <filter id="c" width="1.1934" height="1.3535" x="-.096695" y="-.17674001">
      <feGaussianBlur stdDeviation="2.698568"/>
    </filter>
  </defs>
  <g transform="translate(-1253.3867679 -3131.34728) scale(6.27485)">
    <path fill="#252c4a" fill-rule="evenodd" d="m290.75 485.51 64.98-14.73-15.84-41.84-100.22 27.86 51.08 28.71z" filter="url(#c)" opacity=".51064004" transform="matrix(1.0747 0 0 1.1778 -36.203 106.66)"/>
    <path fill="url(#d)" fill-rule="evenodd" stroke="#000" stroke-linecap="round" stroke-linejoin="round" stroke-width="1.42750001" d="M314.14 546.9 351 571.73l27.51-9.63-33.71-21.19-30.66 5.99Z"/>
    <path fill="url(#e)" fill-rule="evenodd" stroke="#000" stroke-linecap="round" stroke-linejoin="round" stroke-width="1.71300006" d="m351.55 571.23-.55 79.04 27.51-8.61.55-79.56-27.51 9.13z"/>
    <path fill="url(#f)" fill-rule="evenodd" stroke="#000" stroke-linecap="round" stroke-linejoin="round" stroke-width="1.42750001" d="m313.04 547.92.55 76.01 36.31 25.84.55-78.04-37.41-23.81z"/>
    <path fill="none" stroke="#faf7f7" stroke-linecap="round" stroke-linejoin="round" stroke-width="2.35500002" d="m313.86 547.63 37.14 24.1-.57 78.16"/>
    <path fill="none" stroke="#f6f0f0" stroke-linecap="round" stroke-linejoin="round" stroke-width="2.35500002" d="m351.85 571.38 26.96-8.83"/>
    <path fill="none" stroke="#575039" stroke-linecap="round" stroke-linejoin="round" stroke-width="2.85500002" d="m357.05 595.55 17.61-5.07"/>
    <path fill="#5a656f" fill-rule="evenodd" d="m358.15 586.93 15.41-4.56.55-11.14-17.06 5.06 1.1 10.64z"/>
    <path fill="url(#g)" fill-rule="evenodd" stroke="#000" stroke-linecap="round" stroke-linejoin="round" stroke-width="1.42750001" d="m265.73 635.07-10.45 3.04 28.05 15.71 41.26-11.65-7.15-3.55-51.71-3.55z"/>
    <path fill="url(#h)" fill-rule="evenodd" stroke="#000" stroke-linecap="round" stroke-linejoin="round" stroke-width="1.42750001" d="m283.88 648.75 1.1-53.71L340 580.85v50.68l-56.12 17.22z"/>
    <path fill="#1b41d1" fill-rule="evenodd" stroke="#142026" stroke-linecap="round" stroke-linejoin="round" stroke-width="2.85500002" d="m292.14 638.11.55-37.49 39.06-9.13-.56 34.46-39.05 12.16z"/>
    <path fill="url(#i)" fill-rule="evenodd" stroke="#000" stroke-linecap="round" stroke-linejoin="round" stroke-width="1.42750001" d="m316.89 578.83-17.6-5.58-46.21 11.15 18.15 10.64 45.66-16.21z"/>
    <g transform="matrix(.21314 0 0 .13891 167.99137 564.87003)">
      <path fill="#ff1546" fill-rule="evenodd" stroke="red" d="M613.07-150.19c13.524 59.513-1 119.56-1 119.56-25.88-20.537-41.452-44.412-45.094-59.281-18.704 25.095-8.6167 110.84 0 137.78-23.206-13.328-19.237-18.178-41.25-72.156-13.718 71.114 14.897 146.5 41.254 188.82 22.043 0 30.998-.00001 54.361-.00001 58.71-32.9 102.22-102.74 109.1-178.62-13.678 5.4452-18.035 26.778-57.5 29.875 10.301-20.966 25.5-83.556 21.938-113.34-12.995 32.042-14.686 53.692-38.344 56.656-5.3729-49.303-22.825-85.578-43.469-109.28z"/>
      <path fill="#ffe411" stroke="#ff2e20" stroke-width="5" d="M609.79-429.81c-61.656 30.741-21.947 101.41-42.809 160.51 0 0-22.645-65.892-66.472-60.856 6.6165 11.248 16.184 22.473 22.062 33.812 20.737 40.005 6.8438 110.97 6.8438 110.97s-49.32-41.902-88.531-41.875c20.654 42.149 47.526 77.286 29.062 128.69-5.3864-2.8936-43.92-16.72-72.531-18.906 66.992 108.31 1.4014 263.64 169.56 283.16-26.975-41.759-55.315-117.06-41.254-189.95 22.013 53.979 18.051 58.806 41.257 72.133-8.6167-26.938-18.704-112.67 0-137.77 3.6416 14.869 19.2 38.729 45.08 59.266 0 0 14.526-60.043 1.0018-119.56 20.644 23.703 38.11 59.976 43.483 109.28 23.658-2.964 25.357-24.601 38.352-56.643 3.5624 29.788-11.639 92.363-21.939 113.33 39.465-3.0968 43.799-24.429 57.477-29.874-6.8877 75.881-50.652 146.88-109.36 179.79 107.41-1.1477 137.59-21.569 166.86-90.385 7.2252-16.986 9.7061-36.286 17.158-56.338 16.098-43.317 31.1-59.986 38.871-104.83-16.691 18.061-52.423 24.308-52.423 24.308s22.188-109.75-25.812-140.03c.56839 18.514 5.3226 72.94-20.781 75.688.67694-58.843 3.3622-168.55-70.781-188.19 1.3959 9.4923 4.3126 16.048 6.4062 22.469 1.9436 7.4061 8.7084 32.46-1 33.781-16.568-57.555-51.221-50.876-69.781-171.97z"/>
    </g>
    <path fill="url(#j)" fill-rule="evenodd" stroke="#000" stroke-linecap="round" stroke-linejoin="round" stroke-width="1.42750001" d="m284.43 595.04-14.3-5.07 55.01-13.68 13.21 4.06-53.92 14.69z"/>
    <path fill="url(#k)" fill-rule="evenodd" stroke="url(#l)" stroke-linecap="round" stroke-linejoin="round" stroke-width="1.42750001" d="M250.4213 584.02217 251.98 618.86l17.6 14.69v-39.52z"/>
    <path fill="url(#m)" fill-rule="evenodd" stroke="#000" stroke-linecap="round" stroke-linejoin="round" stroke-width="1.42750001" d="m254.73 638.62-.55 9.63 28.6 14.69-1.1-9.63-26.95-14.69z"/>
    <path fill="url(#n)" fill-rule="evenodd" stroke="#000" stroke-linecap="round" stroke-linejoin="round" stroke-width="1.42750001" d="m284.98 595.55-1.65 53.2-13.2-11.14-.55-46.62 15.4 4.56z"/>
    <path fill="url(#o)" fill-rule="evenodd" stroke="#000" stroke-linecap="round" stroke-linejoin="round" stroke-width="1.42750001" d="M325.69 642.17v8.61l-43.46 13.68.55-10.64 42.91-11.65z"/>
    <path fill="url(#p)" fill-rule="evenodd" stroke="#000" stroke-linecap="round" stroke-linejoin="round" stroke-width="1.42750001" d="m267.38 663.45.55 7.6 25.61217 8.39913z"/>
    <path fill="url(#q)" fill-rule="evenodd" stroke="#000" stroke-linecap="round" stroke-linejoin="round" stroke-width="1.42750001" d="m267.38 663.96 27.84344 16.22196 77.13994-23.68101L349.9 640.65Z"/>
    <path fill="none" stroke="#faf1f1" stroke-linecap="round" stroke-linejoin="round" stroke-width="2.35500002" d="m283.86 648.18 1.67-53.64 53.37-13.91"/>
    <path fill="none" stroke="#fdfafa" stroke-linecap="round" stroke-linejoin="round" stroke-width="2.35500002" d="m284.43 595.04-15.21-4.56"/>
    <path fill="none" stroke="#fdf4f4" stroke-linecap="round" stroke-linejoin="round" stroke-width="2.35500002" d="m268.48 593.02-15.71-8.33"/>
    <path fill="none" stroke="#777e81" stroke-linecap="round" stroke-linejoin="round" stroke-width="2.85500002" d="m332.85 590.99-1.1 35.47-39.61 11.65"/>
    <path fill="none" stroke="#928c83" stroke-linecap="round" stroke-linejoin="round" stroke-width="1.91239583" d="m282.40315 665.55331 67.90254-20.88161m-63.44032 24.70637 67.90254-20.88161m-63.12159 24.70637 67.90254-20.88161m-63.53363 23.32359 8.43724-2.53593m13.63249-3.94768 24.25248-7.59681m12.28506-3.52479 9.06985-3.16854"/>
    <g fill="#fff" font-family="PC Senior" font-size="3.67947674" font-weight="400" letter-spacing="0" style="line-height:125%" transform="matrix(.53475 -.13348 .00395 1.86905 0 0)" word-spacing="0">
      <path d="M554.21727 365.27767c-.32094 1.80093 1.45286-.72939 0 0zm0-1.3798c-.32097 1.80092 1.45285-.72936 0 0zm-1.37981 2.29967c-1.45281-4.00535 6.173-1.41685 1.99061.58238-.68098.2932-1.63066.13028-1.99061-.58238z" style="-inkscape-font-specification:'PC Senior'"/>
      <path d="M556.51694 366.19754c.58775-4.40743 4.31 2.62897.0143.0103l-.0143-.0103zm3.67948-2.75961c.53138 1.35054 4.75126 1.80471 1.40665 3.0757-1.74348.27291-2.65565-1.90994-1.40665-3.0757zm3.67947 2.75961c-.99728-3.18717 4.13836-2.65155 1.98701.31608-.53841.58203-1.5847.29052-1.98701-.31608zm7.35896-.45993c.32769-2.99014 3.26515-2.12425 1.82563.43729-.5201.84173-1.71355.55114-1.82563-.43729zm3.67947-1.37981c2.36303-2.80524 2.35315 5.14415.002 1.03638l-.1635-.54291.16188-.49347zm5.05928-.45993c-.32097 1.80092 1.45285-.72936 0 0zm-1.3798 2.29967c-1.63247-3.77769 6.29318-1.86542 1.57334.24495-.47363.28919-1.31722.38214-1.57334-.24495z" style="-inkscape-font-specification:'PC Senior'"/>
      <path d="M582.27328 366.19754c-1.02251-3.12065 4.07836-2.63787 1.96005.31023-.50901.63398-1.58684.32148-1.96005-.31023zm3.67947 0c-1.02361-3.12034 4.07976-2.63823 1.95932.30969-.50823.6351-1.58831.32529-1.95932-.30969zm3.67948-2.75961c6.42299-.20115-.30594 6.22015 0 0zm8.73876 2.29968c.58705 1.77101.78925-1.40001 0 0zm-.45994-1.83974c-.83889 2.544 2.20836-.8372 0 0zm-.91987 0c4.97821-2.50654 1.10428 6.94722-.16363.45682l.16363-.45682zm5.05929 1.83974c.58705 1.77101.78924-1.39997 0 0zm-.45994-1.83974c-.83896 2.54399 2.20834-.8371 0 0zm-.91987 0c4.9782-2.50653 1.10429 6.9472-.16363.45682l.16363-.45682zm3.67948 2.29967c1.26925-4.34904 3.89646 2.68063 0 0z" style="-inkscape-font-specification:'PC Senior'"/>
    </g>
    <g style="line-height:125%" transform="matrix(.53475 -.13348 .00395 1.86905 -.12966022 8.2982541)" word-spacing="0">
      <path fill="#fff" d="M554.21727 365.27767c-.58294.9856.89872-.3735 0 0zm0-1.3798c-.58298.9856.89872-.3735 0 0zm-1.37981 2.29967c-.51026-2.52585 3.3431-1.48126 2.17386.6124-.67597.55409-1.60331-.25339-2.17386-.6124zm3.67948 0c.238-2.19516 2.29848 1.24182.35134.37453l-.18962-.17545-.16172-.19908zm3.67948-2.75961c2.71726-.30625 1.16638 4.27838-.55449 1.9993-.13198-.70928.22335-1.39822.55449-1.9993zm3.67947 2.75961c-.39853-2.97874 3.62279.79852.79955.54628l-.40762-.27397-.39193-.27231zm7.35896-.45993c.0834-2.65886 2.92786 1.11951.70367.86081-.30647-.21998-.45523-.58752-.70367-.86081zm3.67947-1.37981c2.17272-1.02418.0227 3.13901-.14202.64492l.0634-.32581.0786-.31911zm5.05928-.45993c-.58298.9856.89872-.3735 0 0zm-1.3798 2.29967c-.64274-2.61695 3.56817-.78606 1.58874.55069-.57851.0124-1.07773-.33021-1.58874-.55069zm3.67948 0c-.47637-2.82982 3.36339-.3778 1.3329.65228-.50361-.0526-.95306-.33465-1.3329-.65228zm3.67947 0c-.46625-2.83493 3.35733-.3725 1.3307.66506-.50283-.066-.94012-.36129-1.3307-.66506zm3.67948-2.75961c2.35226-1.38857 2.03083 3.79283.0824 1.82053-.21283-.58572-.0874-1.21552-.0824-1.82053zm8.73876 2.29968c-.24965 1.08184.55072.19576.2898-.2467l-.0626.0129-.22718.23382zm-.45994-1.83974c-1.5259 1.92042 1.6016.13178 0 0zm-.91987 0c2.69212-1.82696 1.18222 4.06978-.0203 1.30096-.0476-.43331.012-.86746.0203-1.30096zm5.05929 1.83974c-.24967 1.08181.55074.19584.28981-.24665l-.0626.0129-.22718.23379zm-.45994-1.83974c-1.52606 1.92028 1.60157.13198 0 0zm-.91987 0c2.6921-1.82696 1.18221 4.06977-.0203 1.30096-.0476-.43331.012-.86746.0203-1.30096zm3.67948 2.29967c.33364-2.32794 2.44372 1.37757.40143.43491l-.21197-.21072-.18946-.22419z" font-family="PC Senior" font-size="3.67947674" font-weight="400" letter-spacing="0" style="-inkscape-font-specification:'PC Senior'"/>
    </g>
  </g>
</svg>