<?xml version="1.0" encoding="UTF-8" standalone="no"?>
<!-- Created with Inkscape (http://www.inkscape.org/) -->

<svg
   xmlns:dc="http://purl.org/dc/elements/1.1/"
   xmlns:cc="http://creativecommons.org/ns#"
   xmlns:rdf="http://www.w3.org/1999/02/22-rdf-syntax-ns#"
   xmlns:svg="http://www.w3.org/2000/svg"
   xmlns="http://www.w3.org/2000/svg"
   xmlns:sodipodi="http://sodipodi.sourceforge.net/DTD/sodipodi-0.dtd"
   xmlns:inkscape="http://www.inkscape.org/namespaces/inkscape"
   width="851.74658"
   height="424.83054"
   viewBox="0 0 225.35793 112.40307"
   version="1.1"
   id="svg3678"
   inkscape:version="0.92.0 r15299"
   sodipodi:docname="tips.svg">
  <defs
     id="defs3672" />
  <sodipodi:namedview
     id="base"
     pagecolor="#ffffff"
     bordercolor="#666666"
     borderopacity="1.0"
     inkscape:pageopacity="0.0"
     inkscape:pageshadow="2"
     inkscape:zoom="0.94492283"
     inkscape:cx="424.37328"
     inkscape:cy="210.91526"
     inkscape:document-units="mm"
     inkscape:current-layer="layer1"
     showgrid="false"
     fit-margin-top="0"
     fit-margin-left="0"
     fit-margin-right="0"
     fit-margin-bottom="0"
     units="px"
     inkscape:window-width="1280"
     inkscape:window-height="744"
     inkscape:window-x="-4"
     inkscape:window-y="-4"
     inkscape:window-maximized="1" />
  <metadata
     id="metadata3675">
    <rdf:RDF>
      <cc:Work
         rdf:about="">
        <dc:format>image/svg+xml</dc:format>
        <dc:type
           rdf:resource="http://purl.org/dc/dcmitype/StillImage" />
        <dc:title></dc:title>
      </cc:Work>
    </rdf:RDF>
  </metadata>
  <g
     inkscape:label="Layer 1"
     inkscape:groupmode="layer"
     id="layer1"
     transform="translate(-35.1286,-263.83611)">
    <path
       inkscape:connector-curvature="0"
       id="path2987"
       d="M 85.097546,375.66695 C 68.873005,374.25805 54.130685,365.39676 44.946256,351.53283 31.349158,331.00798 32.574279,303.5735 47.949912,284.2715 c 2.450201,-3.07591 7.52102,-7.90978 10.573043,-10.079 6.740313,-4.79068 14.080939,-7.91465 21.944382,-9.33897 3.276045,-0.59339 11.302921,-0.82083 14.729513,-0.41736 11.3365,1.33485 21.2117,5.85786 29.96843,13.72605 5.58517,5.01846 11.44308,13.55065 14.1287,20.57888 0.77693,2.03318 0.83325,2.3166 0.43395,2.1835 -0.14886,-0.0496 -0.796,-1.37928 -1.43809,-2.9548 -4.16312,-10.21524 -12.10716,-19.56033 -21.667,-25.48837 -11.7755,-7.30194 -26.553059,-9.59258 -39.859669,-6.17857 -6.986191,1.79241 -14.210136,5.36443 -19.711459,9.74671 -11.267176,8.97531 -18.546843,22.02705 -20.540637,36.82741 -0.436298,3.2388 -0.437753,11.09638 -0.0026,14.15023 1.867403,13.10516 7.151185,23.91149 16.025363,32.77493 4.171712,4.16666 8.350992,7.18451 13.529867,9.76994 6.680914,3.33528 12.55522,4.95572 19.842506,5.4736 14.692369,1.04413 28.934919,-4.23706 39.894279,-14.79294 3.77589,-3.63688 7.89811,-9.04222 10.00882,-13.12432 0.48511,-0.93815 1.03733,-1.70618 1.22717,-1.70671 0.78353,-0.002 -3.47991,6.94612 -6.5744,10.71464 -1.88452,2.295 -5.90315,6.27068 -8.19058,8.10303 -10.3006,8.25139 -24.276159,12.54759 -37.173961,11.42757 z M 228.7663,371.7791 c -8.74109,-3.00156 -22.34602,-7.63202 -30.95625,-10.53602 -3.05593,-1.03069 -5.63525,-1.9465 -5.7318,-2.03514 -0.0966,-0.0887 -0.26043,-4.10498 -0.36412,-8.92519 l -0.18854,-8.76401 0.58491,-0.58492 c 0.86776,-0.86773 2.3749,-0.66258 11.35182,1.54519 4.27292,1.05088 7.95123,1.87478 8.17404,1.83089 0.22283,-0.0439 0.65587,-0.4158 0.96234,-0.82648 0.4726,-0.63331 0.55719,-1.11837 0.55719,-3.19474 0,-2.27973 -0.0515,-2.51565 -0.74901,-3.43092 -1.42261,-1.86677 -2.28918,-2.21873 -10.26047,-4.16737 -4.32212,-1.05658 -8.02023,-1.82042 -8.80467,-1.8186 -1.80229,0.004 -3.60278,0.51245 -5.86883,1.65672 -2.24972,1.13603 -4.56326,1.51514 -9.24642,1.51514 -3.05863,0 -3.32102,0.041 -3.99952,0.62459 -0.6854,0.58957 -0.73713,0.79362 -0.92233,3.63802 -0.1079,1.65738 -0.2045,3.4423 -0.21466,3.96649 -0.033,1.70336 -0.89599,2.54055 -4.64868,4.5096 -4.80248,2.5199 -4.83946,2.51858 -12.34075,-0.4413 -3.14938,-1.2427 -6.21424,-2.61299 -6.81074,-3.04509 -0.87183,-0.63157 -1.35742,-0.78655 -2.47589,-0.79024 -1.97829,-0.007 -4.52639,-0.58884 -8.90641,-2.03536 -5.071,-1.67471 -4.77448,-1.03344 -4.78226,-10.34246 -0.006,-7.69679 -0.0875,-8.13787 -1.64412,-8.94282 -1.2069,-0.62411 -4.9646,-0.41391 -5.97456,0.33422 -1.44979,1.07394 -1.80192,1.94231 -2.14416,5.28773 -0.38007,3.71531 -0.58708,4.33537 -1.65878,4.96844 -1.03137,0.60925 -3.26133,1.20636 -4.45921,1.19402 -0.50932,-0.005 -2.83104,-0.63522 -5.15937,-1.39993 l -4.23334,-1.3904 0.0868,-0.97817 c 0.0791,-0.8914 0.0279,-0.97818 -0.57808,-0.97818 -1.19407,0 -1.93599,0.4677 -2.63554,1.66142 -3.98042,6.79209 -11.973038,10.28161 -19.491068,8.50971 -8.850603,-2.08598 -14.99026,-11.19178 -13.770822,-20.42373 0.593858,-4.4959 2.380404,-8.19608 5.387261,-11.1578 2.728754,-2.68776 5.702194,-4.28083 9.384771,-5.02803 5.004752,-1.01548 10.897208,0.72232 14.846118,4.37841 2.14138,1.98259 3.09359,3.26235 4.41142,5.92887 0.94256,1.90716 1.09882,2.01167 2.38578,1.59574 0.4219,-0.13635 2.85067,-0.78781 5.39729,-1.44768 2.54661,-0.65987 11.2977,-2.93272 19.44687,-5.05076 8.14917,-2.11804 17.61464,-4.57662 21.03438,-5.46351 3.41974,-0.88689 7.70599,-2.00739 9.525,-2.49001 18.38007,-4.87657 19.57324,-5.14388 22.96059,-5.14388 h 3.08843 l 1.8583,-1.83825 c 1.73913,-1.72035 2.00255,-1.87992 4.10726,-2.48794 1.23693,-0.35733 4.27302,-1.26241 6.74688,-2.01129 2.47385,-0.74887 5.62901,-1.704 7.01145,-2.12251 1.38245,-0.41851 6.74026,-2.02859 11.90625,-3.57795 5.16599,-1.54936 10.64287,-3.23386 12.17084,-3.74332 3.62873,-1.20991 4.90506,-1.46312 6.35,-1.25975 1.452,0.20435 18.04516,8.27492 19.11146,9.29541 1.35768,1.29937 1.57014,2.39034 1.47751,7.58762 l -0.0838,4.70052 -0.86405,0.77144 c -0.47525,0.42429 -1.12549,0.77144 -1.445,0.77144 -0.63336,0 -27.63316,4.98398 -31.76376,5.86337 -1.60906,0.34256 -2.83657,1.34321 -2.83657,2.31234 0,0.96288 0.83698,1.80639 2.58768,2.60788 1.36281,0.62392 2.91703,0.92198 11.9644,2.29448 19.4618,2.95237 19.92739,3.06153 20.95818,4.9136 0.48067,0.8636 0.50522,1.30957 0.36438,6.61458 -0.0831,3.1287 -0.22828,12.29651 -0.32274,20.37292 -0.0944,8.0764 -0.18796,15.03221 -0.20788,15.45735 -0.0383,0.8189 0.74279,0.30179 -18.26429,12.0912 -1.44743,0.8978 -2.81665,1.67009 -3.04271,1.7162 -0.22603,0.0461 -3.98285,-1.14271 -8.34848,-2.6418 z m 7.80421,-0.95214 c 0.2881,-0.18215 0.40253,-0.77503 0.42042,-2.17876 0.12507,-9.80181 0.40973,-24.25068 0.50715,-25.74101 0.0666,-1.01865 0.1982,-6.21067 0.2925,-11.53783 0.20079,-11.34466 0.16452,-11.58975 -2.00456,-13.53994 -1.39309,-1.25249 -2.47267,-1.67435 -4.90305,-1.91592 -0.87313,-0.0868 -4.98078,-0.75262 -9.12813,-1.47964 -4.14734,-0.72701 -7.92405,-1.37946 -8.39271,-1.44989 -2.92891,-0.44013 -3.95502,-4.74385 -1.67622,-7.03036 0.67022,-0.67249 1.28773,-1.01777 2.01224,-1.12512 0.57489,-0.0852 5.21242,-0.92118 10.30565,-1.85777 5.09323,-0.93659 10.02612,-1.77017 10.96195,-1.85239 1.79872,-0.15804 2.68137,-0.57046 3.29661,-1.54035 0.51517,-0.81211 1.1794,-15.76367 0.74289,-16.72171 -0.18555,-0.40723 -0.6731,-0.75638 -1.3317,-0.95371 -1.10204,-0.33018 -2.44464,0.004 -25.17912,6.26363 -14.65033,4.0339 -15.88244,4.40743 -17.25078,5.22963 -2.4089,1.44744 -2.25542,0.34294 -2.47076,17.7804 l -0.18976,15.36486 1.30217,0.56019 c 1.90241,0.81839 7.32235,2.41036 14.17696,4.16414 3.31036,0.84697 6.37731,1.75794 6.81543,2.02438 0.43812,0.26644 1.03317,0.87248 1.32233,1.34675 0.48054,0.78811 0.52586,1.34104 0.52676,6.42584 0,7.40232 0.16516,7.17577 -4.49694,6.21852 -1.38244,-0.28385 -3.94229,-0.8237 -5.68854,-1.19966 -10.28012,-2.21328 -10.72787,-2.26361 -11.53091,-1.29599 -0.43421,0.52316 -0.5447,11.88311 -0.12062,12.39957 0.15094,0.18384 0.86976,0.51849 1.59737,0.74366 2.60638,0.80659 28.13547,8.99589 32.52787,10.43439 2.4651,0.80732 5.0129,1.75013 5.66179,2.09514 1.33252,0.70851 1.35091,0.71209 1.89371,0.36895 z m -73.18714,-26.53071 c 0.069,-0.47294 0.25977,-3.41051 0.42399,-6.52793 0.1642,-3.11742 0.41434,-5.88439 0.55587,-6.14882 0.14152,-0.26444 0.63756,-0.67743 1.1023,-0.91776 0.76878,-0.39754 1.41857,-0.40811 7.20207,-0.11715 3.49636,0.17589 6.81339,0.43807 7.37113,0.58261 1.16382,0.30161 2.15183,-0.15687 2.5404,-1.17883 0.16833,-0.44273 0.82137,-24.99088 0.81251,-30.54288 0,-0.68986 -0.1745,-0.96936 -0.86127,-1.38808 -0.47295,-0.28836 -1.12692,-0.52473 -1.45328,-0.52527 -0.32637,-5.3e-4 -5.32699,1.43283 -11.1125,3.18528 -5.78551,1.75245 -11.76928,3.55801 -13.29725,4.01236 -1.52796,0.45434 -2.93293,0.96552 -3.12216,1.13596 -0.25903,0.23332 -0.3769,2.0365 -0.47709,7.29858 -0.0732,3.84378 -0.24342,11.81073 -0.37833,17.70433 -0.27837,12.16286 -0.49805,10.90814 2.11664,12.09014 1.31971,0.5966 6.92309,2.11948 8.00052,2.17437 0.31361,0.016 0.48927,-0.23904 0.57645,-0.83691 z m 1.83369,-27.7725 0.16619,-3.77906 0.85532,-0.72573 c 0.96424,-0.81812 1.93595,-1.06903 3.66392,-0.94607 1.11718,0.0795 1.22669,0.15964 1.92281,1.40721 0.66873,1.19855 0.72945,1.52246 0.6459,3.44544 -0.061,1.40467 -0.26593,2.47848 -0.60584,3.175 l -0.51364,1.05248 -3.15039,0.0749 -3.15042,0.0749 z m -18.96176,22.4085 c 0.0851,-0.22169 0.0516,-7.27614 -0.0744,-15.67657 l -0.22913,-15.27349 -0.71766,-0.0828 c -0.79367,-0.0915 -3.869,0.71262 -6.62453,1.7322 l -1.78594,0.66083 v 13.01672 13.01672 l 0.72761,0.66276 c 1.73479,1.5802 3.82466,2.3008 6.75518,2.32924 1.37449,0.0133 1.83044,-0.0769 1.94892,-0.38565 z m -27.84364,-13.42142 c 0.27823,-6.55356 -0.0615,-6.29766 10.20985,-7.68952 l 2.51354,-0.3406 0.0748,-2.96333 c 0.07,-2.77233 0.042,-2.96332 -0.4335,-2.96332 -0.27956,0 -6.02821,1.35881 -12.7748,3.01957 -6.74658,1.66076 -13.63575,3.34453 -15.30924,3.7417 -4.764672,1.13082 -4.610499,1.22833 2.64583,1.67343 l 4.36563,0.26779 0.7089,0.79134 c 0.44405,0.49573 0.76266,1.21768 0.85288,1.93261 0.0792,0.6277 0.29641,2.3319 0.48268,3.7871 l 0.33869,2.64584 1.05738,0.16089 c 0.58158,0.0885 1.96356,0.17779 3.0711,0.19844 l 2.01369,0.0376 z m -33.181823,42.24246 c -9.94865,-1.18675 -17.976691,-4.62354 -25.453234,-10.89648 -7.231143,-6.06706 -12.952572,-15.47836 -15.396925,-25.32671 -1.748341,-7.04406 -1.691667,-16.7721 0.137927,-23.6802 1.888913,-7.13203 5.068755,-13.50817 9.372759,-18.79393 2.163815,-2.65738 6.59183,-6.80817 9.379057,-8.79183 2.950474,-2.09984 8.368321,-4.83576 11.867488,-5.99286 11.953452,-3.95275 25.069881,-2.70035 36.199051,3.45643 7.52038,4.16035 14.50075,11.40193 18.57904,19.27427 2.06794,3.99174 2.78337,5.81857 2.42071,6.18124 -0.19556,0.19556 -0.37719,0.005 -0.60751,-0.63603 -0.18071,-0.50325 -0.99632,-2.28422 -1.81251,-3.95771 -6.16842,-12.64786 -17.83054,-21.97297 -31.093254,-24.86234 -14.804364,-3.22524 -30.151546,1.30199 -40.964274,12.08395 -10.064169,10.03556 -15.127421,23.93188 -13.928964,38.22888 1.759717,20.99315 16.650707,38.10403 36.802723,42.28918 3.452045,0.71692 9.938041,0.98467 13.545767,0.55919 14.209502,-1.67582 26.710432,-9.99569 34.190992,-22.75547 0.87696,-1.49586 1.36782,-2.10091 1.55366,-1.91507 0.18585,0.18584 -0.22132,1.08653 -1.28878,2.85084 -5.94744,9.8301 -14.83897,17.03714 -25.37476,20.56745 -4.011272,1.3441 -8.077997,2.01803 -12.837296,2.12737 -2.401094,0.0552 -4.782344,0.0506 -5.291667,-0.0102 z m 0.264584,-7.28611 c -15.231348,-1.5514 -28.415086,-12.31385 -33.340465,-27.21728 -1.67087,-5.05582 -1.955138,-6.96827 -1.966436,-13.22917 -0.009,-5.01709 0.06268,-6.01567 0.607668,-8.45999 1.836764,-8.23806 5.490157,-15.16468 10.886733,-20.64067 8.246348,-8.36766 19.137365,-12.52099 30.474761,-11.62165 3.821165,0.30312 5.215705,0.57583 8.905478,1.74154 10.83085,3.42178 19.93636,11.94249 24.47333,22.90155 0.26823,0.64791 0.31511,1.04404 0.13665,1.15435 -0.36917,0.22814 -0.56795,-0.0452 -1.26809,-1.74388 -1.7821,-4.32354 -5.36644,-9.35923 -9.29225,-13.05483 -5.46052,-5.14032 -12.32903,-8.57273 -19.663992,-9.82677 -3.04337,-0.52031 -9.385697,-0.52374 -12.334637,-0.007 -7.848177,1.37612 -14.635745,4.96562 -20.506082,10.84431 -5.74101,5.74918 -9.28894,12.28763 -11.030718,20.32848 -0.498052,2.29932 -0.583909,3.51268 -0.583909,8.25194 0,4.73926 0.08586,5.95262 0.583909,8.25193 1.654598,7.63829 5.163185,14.33401 10.33415,19.72143 7.530756,7.84597 16.654939,11.82527 27.267032,11.89189 12.914947,0.0811 24.495097,-6.22596 31.930157,-17.39048 1.10903,-1.66534 2.12225,-3.0279 2.25158,-3.0279 1.19126,0 -3.15556,6.31205 -6.9238,10.05417 -6.47113,6.42622 -14.741,10.26553 -23.929611,11.10937 -3.245802,0.29807 -3.798596,0.29558 -7.011458,-0.0317 z m -1.190625,-7.49304 C 68.10267,350.43501 56.139878,335.23477 57.01557,318.30094 c 0.820367,-15.86428 11.905827,-28.86585 26.838963,-31.47804 2.955211,-0.51694 8.007668,-0.51516 10.974838,0.004 7.814179,1.36687 15.347109,6.08825 20.228829,12.67876 1.46923,1.98349 4.03831,6.68176 4.03831,7.38512 0,0.99445 -0.75322,0.30105 -1.60253,-1.47528 -4.23199,-8.85113 -11.87596,-15.03914 -21.563123,-17.45593 -3.406669,-0.84992 -9.793261,-0.84992 -13.19993,0 -6.235964,1.55577 -11.032834,4.24857 -15.360465,8.62285 -4.647062,4.69718 -7.780972,10.77568 -9.014909,17.48532 -0.611638,3.32577 -0.402723,10.42703 0.400632,13.6178 2.074598,8.23995 7.070196,15.37077 13.864166,19.78996 4.174702,2.71546 8.678069,4.27153 14.011222,4.84135 10.958328,1.17083 22.306837,-4.41234 28.672027,-14.10588 0.645,-0.98227 1.28601,-1.78594 1.42449,-1.78594 0.51911,0 0.21987,0.98565 -0.74044,2.4389 -6.04753,9.15187 -16.069416,14.5641 -26.789063,14.4672 -1.527968,-0.0138 -3.730625,-0.1744 -4.894791,-0.35685 z m 1.5875,-7.84687 c -12.57517,-1.81347 -21.798862,-13.64852 -20.899438,-26.81634 1.179883,-17.27402 18.170208,-28.14758 33.751997,-21.60081 4.868495,2.04552 10.028105,6.96122 12.293975,11.71276 0.78197,1.63985 -0.0368,2.54177 -0.88331,0.973 -3.6399,-6.74551 -8.82783,-11.0023 -15.497155,-12.71576 -3.027468,-0.7778 -7.661751,-0.76822 -10.742189,0.0222 -8.362236,2.14572 -14.614975,8.50627 -17.100365,17.39526 -0.668496,2.39083 -0.79801,7.99945 -0.247624,10.72295 1.606656,7.95036 7.074033,14.64807 14.394921,17.63419 3.115072,1.27061 5.860415,1.71904 9.427104,1.53985 4.517946,-0.22698 8.112178,-1.45628 11.986818,-4.09973 1.71315,-1.16879 4.631,-4.11388 5.73154,-5.78506 0.4073,-0.61847 0.90702,-1.12448 1.11053,-1.12448 1.20036,0 0.14058,2.02724 -2.53283,4.84507 -5.34805,5.63694 -13.199427,8.3921 -20.793974,7.29688 z"
       style="fill:#000000;stroke-width:0.26458332" />
  </g>
</svg>
