<svg height="8.5in" viewBox="0 0 990 765" width="11in" xmlns="http://www.w3.org/2000/svg"><g transform="translate(0 -287.3622)"><text x="785.88348" y="255.34021"><tspan x="785.88348" y="255.34021"/></text><text x="222.80702" y="564.64288"><tspan x="222.80702" y="564.64288"/></text><g transform="matrix(.96578179 0 0 .96578179 -999.35742 16.101212)"><rect fill="#fff" height="79.330811" ry="15.749499" stroke="#000" stroke-linecap="round" stroke-width="3.826409" width="510.01971" x="1280.8387" y="310.19989"/><text font-family="Edo SZ" font-size="35" letter-spacing="0" word-spacing="0" x="1410.5045" y="361.00378"><tspan font-family="Arial" x="1410.5045" y="361.00378">Java - Bytecode</tspan></text><g stroke="#000"><path d="m1538.7419 391.54234-358.9075 190.59222z" fill="none" stroke-width="3"/><path d="m1540.3975 391.96027 368.8083 191.82983z" fill="none" stroke-width="3"/><path d="m1435.1842 576.76617 103.9593-184.40416 116.3356 183.16655" fill="none" stroke-width="3"/><path d="m1163.3505 591.50469 15.0719-23.03451 1.7063 11.65944-.2844 2.55939 12.2282 7.3938z" fill-rule="evenodd"/><path d="m1427.3497 591.03025-.121-27.52705 7.8504 8.78782 1.1734 2.29224 14.2784-.57103z" fill-rule="evenodd"/><path d="m1926.0669 590.34141-27.478 1.64737 8.3389-8.32556 2.2236-1.2988-1.3619-14.22467z" fill-rule="evenodd"/><path d="m1664.529 591.44749-23.4193-14.46683 11.611-2.00936 2.5659.21758 7.0728-12.41663z" fill-rule="evenodd"/></g><g transform="translate(451.76001 -909.53698)"><rect fill="#0f6" height="119.08227" ry="13.335901" stroke="#000" stroke-linecap="round" stroke-width="3" width="239.57407" x="1354.4885" y="1504.7805"/><text font-family="Arial" font-size="32.5" letter-spacing="0" text-anchor="middle" word-spacing="0" x="1474.9353" y="1555.6412"><tspan x="1474.9353" y="1555.6412">JVM Sun</tspan><tspan x="1474.9353" y="1596.2662">Solaris</tspan></text></g><g transform="translate(520.61247 -907.2518)"><rect fill="#ff0" height="119.29306" ry="13.359508" stroke="#000" stroke-linecap="round" stroke-width="3" width="202.07994" x="801.43884" y="1502.2845"/><text font-family="Arial" font-size="35" letter-spacing="0" text-anchor="middle" word-spacing="0" x="902.93109" y="1553.2506"><tspan font-size="32.5" x="902.93109" y="1553.2506">JVM Sun</tspan><tspan font-size="32.5" x="902.93109" y="1593.8756">Windows PC</tspan></text></g><g transform="translate(479.62887 -912.82113)"><rect fill="#00aad4" height="119.29306" ry="13.359508" stroke="#000" stroke-linecap="round" stroke-width="3" width="202.07994" x="1085.4624" y="1507.8539"/><text font-family="Arial" font-size="32.5" letter-spacing="0" text-anchor="middle" word-spacing="0" x="1187.2811" y="1558.8199"><tspan x="1187.2811" y="1558.8199">JVM IBM</tspan><tspan x="1187.2811" y="1599.4449">Aix</tspan></text></g><g transform="translate(656.10945 -882.84962)"><rect fill="#faa" height="119.0735" ry="13.334919" stroke="#000" stroke-linecap="round" stroke-width="3" width="241.20465" x="385.29425" y="1478.1019"/><text font-family="Arial" font-size="32.5" letter-spacing="0" word-spacing="0" x="440.22333" y="1528.9583"><tspan x="440.22333" y="1528.9583">JVM Sun</tspan><tspan x="440.22333" y="1569.5833">Linux PC</tspan></text></g><g stroke="#000" transform="translate(1368.875 -565.11627)"><path d="m558.63149 1277.9436v144.1861" fill="none" stroke-width="3"/><path d="m557.08161 1441.3197-11.35297-25.0772 10.75484 4.8153 2.00734 1.6131 12.80002-6.3527z" fill-rule="evenodd"/></g><g transform="translate(603.75525 -212.72866)"><rect fill="#faa" height="158.92273" ry="14.045984" stroke="#000" stroke-linecap="round" stroke-width="3" width="241.39925" x="438.68427" y="1092.7396"/><text font-family="Arial" font-size="32.5" letter-spacing="0" word-spacing="0" x="492.26535" y="1183.833"><tspan x="492.26535" y="1183.833">PC/Linux</tspan></text></g><g transform="translate(535.1506 -231.21962)"><rect fill="#ff0" height="159.15012" ry="14.066082" stroke="#000" stroke-linecap="round" stroke-width="3" width="202.09177" x="789.73334" y="1111.2306"/><text font-family="Arial" font-size="32.5" letter-spacing="0" word-spacing="0" x="797.03229" y="1202.4377"><tspan x="797.03229" y="1202.4377">PC/Windows</tspan></text></g><g transform="translate(499.10408 -262.58101)"><rect fill="#00aad4" height="159.15012" ry="14.066082" stroke="#000" stroke-linecap="round" stroke-width="3.068" width="202.09177" x="1065.3147" y="1142.626"/><text font-family="Arial" font-size="32.5" letter-spacing="0" word-spacing="0" x="1105.6929" y="1233.8331"><tspan x="1105.6929" y="1233.8331">Unix/Aix</tspan></text></g><g transform="translate(490.96455 -242.96438)"><rect fill="#0f6" height="158.91632" ry="14.045419" stroke="#000" stroke-linecap="round" stroke-width="3" width="242.55565" x="1315.4318" y="1122.9753"/><text font-family="Arial" font-size="32.5" letter-spacing="0" word-spacing="0" x="1349.4135" y="1214.0656"><tspan x="1349.4135" y="1214.0656">Unix/Solaris</tspan></text></g><g stroke="#000" transform="translate(604.82273 -565.11627)"><path d="m558.63149 1277.9436v144.1861" fill="none" stroke-width="3"/><path d="m557.08161 1441.3197-11.35297-25.0772 10.75484 4.8153 2.00734 1.6131 12.80002-6.3527z" fill-rule="evenodd"/></g><g stroke="#000" transform="translate(866.31719 -565.11627)"><path d="m558.63149 1277.9436v144.1861" fill="none" stroke-width="3"/><path d="m557.08161 1441.3197-11.35297-25.0772 10.75484 4.8153 2.00734 1.6131 12.80002-6.3527z" fill-rule="evenodd"/></g><g stroke="#000" transform="translate(1106.2905 -565.11627)"><path d="m558.63149 1277.9436v144.1861" fill="none" stroke-width="3"/><path d="m557.08161 1441.3197-11.35297-25.0772 10.75484 4.8153 2.00734 1.6131 12.80002-6.3527z" fill-rule="evenodd"/></g></g></g></svg>