<?xml version="1.0" encoding="utf-8"?>
<!-- Generator: Adobe Illustrator 20.1.0, SVG Export Plug-In . SVG Version: 6.00 Build 0)  -->
<svg version="1.1" id="Layer_1" xmlns="http://www.w3.org/2000/svg" xmlns:xlink="http://www.w3.org/1999/xlink" x="0px" y="0px"
	 viewBox="0 15 110 80" style="enable-background:new 0 0 110 110;" xml:space="preserve">
<style type="text/css">
	.st0{fill:url(#SVGID_1_);}
	.st1{fill:url(#SVGID_2_);}
	.st2{fill:url(#SVGID_3_);}
	.st3{fill:url(#SVGID_4_);}
	.st4{fill:url(#SVGID_5_);}
	.st5{fill:url(#SVGID_6_);}
	.st6{fill:url(#SVGID_7_);}
	.st7{fill:url(#SVGID_8_);}
</style>
<g>
	<linearGradient id="SVGID_1_" gradientUnits="userSpaceOnUse" x1="54.9825" y1="84.5069" x2="54.9825" y2="23.7312">
		<stop  offset="1.833546e-03" style="stop-color:#7B2414"/>
		<stop  offset="0.997" style="stop-color:#C92414"/>
	</linearGradient>
	<path class="st0" d="M68,42.5h-0.5v-6.2c0-6.9-5.6-12.5-12.5-12.5c-6.9,0-12.5,5.6-12.5,12.5c0,0.9,0.7,1.6,1.6,1.6
		c0.9,0,1.6-0.7,1.6-1.6c0-5.2,4.2-9.4,9.4-9.4c5.2,0,9.4,4.2,9.4,9.4v6.2H42c-2.3,0-4.1,1.8-4.1,4.1v17.1c0,2.3,1.8,4.1,4.1,4.1h26
		c2.3,0,4.1-1.8,4.1-4.1V46.6C72.1,44.3,70.2,42.5,68,42.5L68,42.5z M68.9,63.7c0,0.5-0.4,0.9-0.9,0.9H42c-0.5,0-0.9-0.4-0.9-0.9
		V46.6c0-0.5,0.4-0.9,0.9-0.9h26c0.5,0,0.9,0.4,0.9,0.9L68.9,63.7L68.9,63.7z M68.9,63.7"/>
	<linearGradient id="SVGID_2_" gradientUnits="userSpaceOnUse" x1="55.0055" y1="84.5069" x2="55.0055" y2="23.7312">
		<stop  offset="1.833546e-03" style="stop-color:#7B2414"/>
		<stop  offset="0.997" style="stop-color:#C92414"/>
	</linearGradient>
	<path class="st1" d="M55.4,50.7c-1.1-0.2-2.3,0.4-2.8,1.5c-0.5,1.1-0.2,2.4,0.9,3.1c0.2,0.2,0.2,0.3,0.2,0.5v3.4c0,0.9,1,1.6,2,1.1
		c0.4-0.2,0.7-0.7,0.6-1.1v-3.4c0-0.2,0.1-0.4,0.3-0.6c0.7-0.5,1.1-1.2,1.1-2.1C57.6,51.9,56.7,50.9,55.4,50.7L55.4,50.7z
		 M55.4,50.7"/>
	<linearGradient id="SVGID_3_" gradientUnits="userSpaceOnUse" x1="23.2617" y1="84.5069" x2="23.2617" y2="23.7312">
		<stop  offset="1.833546e-03" style="stop-color:#7B2414"/>
		<stop  offset="0.997" style="stop-color:#C92414"/>
	</linearGradient>
	<path class="st2" d="M32.5,54.2h-8.8c-0.7-2.4-2.9-4.2-5.5-4.2c-3.2,0-5.8,2.6-5.8,5.8c0,3.2,2.6,5.8,5.8,5.8
		c2.6,0,4.9-1.8,5.5-4.2h8.8c0.9,0,1.6-0.7,1.6-1.6C34.1,54.9,33.4,54.2,32.5,54.2L32.5,54.2z M18.2,58.4c-1.4,0-2.6-1.2-2.6-2.6
		c0-1.4,1.2-2.6,2.6-2.6c1.4,0,2.6,1.2,2.6,2.6C20.8,57.3,19.6,58.4,18.2,58.4L18.2,58.4z M18.2,58.4"/>
	<linearGradient id="SVGID_4_" gradientUnits="userSpaceOnUse" x1="23.2532" y1="84.5069" x2="23.2532" y2="23.7312">
		<stop  offset="1.833546e-03" style="stop-color:#7B2414"/>
		<stop  offset="0.997" style="stop-color:#C92414"/>
	</linearGradient>
	<path class="st3" d="M32.5,45h-9.6c-1.7,0-3.1-1.4-3.1-3.1v-5.1c2.4-0.7,4.2-2.9,4.2-5.5c0-3.2-2.6-5.8-5.8-5.8
		c-3.2,0-5.8,2.6-5.8,5.8c0,2.6,1.8,4.9,4.2,5.5v5.1c0,3.5,2.8,6.3,6.3,6.3h9.6c0.9,0,1.6-0.7,1.6-1.6C34.1,45.6,33.4,45,32.5,45
		L32.5,45z M15.6,31.1c0-1.4,1.2-2.6,2.6-2.6c1.4,0,2.6,1.2,2.6,2.6s-1.2,2.6-2.6,2.6C16.7,33.7,15.6,32.6,15.6,31.1L15.6,31.1z
		 M15.6,31.1"/>
	<linearGradient id="SVGID_5_" gradientUnits="userSpaceOnUse" x1="23.279" y1="84.5069" x2="23.279" y2="23.7312">
		<stop  offset="1.833546e-03" style="stop-color:#7B2414"/>
		<stop  offset="0.997" style="stop-color:#C92414"/>
	</linearGradient>
	<path class="st4" d="M32.5,63.5h-9.6c-3.5,0-6.3,2.8-6.3,6.3v5.1c-2.4,0.7-4.2,2.9-4.2,5.5c0,3.2,2.6,5.8,5.8,5.8
		c3.2,0,5.8-2.6,5.8-5.8c0-2.6-1.8-4.9-4.2-5.5v-5.1c0-1.7,1.4-3.1,3.1-3.1h9.6c0.9,0,1.6-0.7,1.6-1.6
		C34.1,64.2,33.4,63.5,32.5,63.5L32.5,63.5z M20.8,80.5c0,1.4-1.2,2.6-2.6,2.6c-1.4,0-2.6-1.2-2.6-2.6s1.2-2.6,2.6-2.6
		C19.6,77.9,20.8,79,20.8,80.5L20.8,80.5z M20.8,80.5"/>
	<linearGradient id="SVGID_6_" gradientUnits="userSpaceOnUse" x1="86.7205" y1="84.5069" x2="86.7205" y2="23.7312">
		<stop  offset="1.833546e-03" style="stop-color:#7B2414"/>
		<stop  offset="0.997" style="stop-color:#C92414"/>
	</linearGradient>
	<path class="st5" d="M91.8,50c-2.6,0-4.9,1.8-5.5,4.2h-8.8c-0.9,0-1.6,0.7-1.6,1.6s0.7,1.6,1.6,1.6h8.8c0.7,2.4,2.9,4.2,5.5,4.2
		c3.2,0,5.8-2.6,5.8-5.8C97.6,52.6,95,50,91.8,50L91.8,50z M91.8,58.4c-1.4,0-2.6-1.2-2.6-2.6c0-1.4,1.2-2.6,2.6-2.6
		s2.6,1.2,2.6,2.6C94.4,57.3,93.2,58.4,91.8,58.4L91.8,58.4z M91.8,58.4"/>
	<linearGradient id="SVGID_7_" gradientUnits="userSpaceOnUse" x1="86.7383" y1="84.5069" x2="86.7383" y2="23.7312">
		<stop  offset="1.833546e-03" style="stop-color:#7B2414"/>
		<stop  offset="0.997" style="stop-color:#C92414"/>
	</linearGradient>
	<path class="st6" d="M93.4,74.9v-5.1c0-3.5-2.8-6.3-6.3-6.3h-9.6c-0.9,0-1.6,0.7-1.6,1.6c0,0.9,0.7,1.6,1.6,1.6h9.6
		c1.7,0,3.1,1.4,3.1,3.1v5.1c-2.4,0.7-4.2,2.9-4.2,5.5c0,3.2,2.6,5.8,5.8,5.8c3.2,0,5.8-2.6,5.8-5.8C97.6,77.8,95.8,75.6,93.4,74.9
		L93.4,74.9z M91.8,83.1c-1.4,0-2.6-1.2-2.6-2.6c0-1.4,1.2-2.6,2.6-2.6s2.6,1.2,2.6,2.6C94.4,81.9,93.2,83.1,91.8,83.1L91.8,83.1z
		 M91.8,83.1"/>
	<linearGradient id="SVGID_8_" gradientUnits="userSpaceOnUse" x1="86.7205" y1="84.5069" x2="86.7205" y2="23.7312">
		<stop  offset="1.833546e-03" style="stop-color:#7B2414"/>
		<stop  offset="0.997" style="stop-color:#C92414"/>
	</linearGradient>
	<path class="st7" d="M77.5,48.1h9.6c3.5,0,6.3-2.8,6.3-6.3v-5.1c2.4-0.7,4.2-2.9,4.2-5.5c0-3.2-2.6-5.8-5.8-5.8S86,27.9,86,31.1
		c0,2.6,1.8,4.9,4.2,5.5v5.1c0,1.7-1.4,3.1-3.1,3.1h-9.6c-0.9,0-1.6,0.7-1.6,1.6C75.9,47.4,76.6,48.1,77.5,48.1L77.5,48.1z
		 M89.2,31.1c0-1.4,1.2-2.6,2.6-2.6s2.6,1.2,2.6,2.6s-1.2,2.6-2.6,2.6S89.2,32.6,89.2,31.1L89.2,31.1z M89.2,31.1"/>
</g>
</svg>
