<svg enable-background="new 0 0 110 110" viewBox="0 15 110 80" xmlns="http://www.w3.org/2000/svg" xmlns:xlink="http://www.w3.org/1999/xlink"><linearGradient id="a"><stop offset=".001833546" stop-color="#7b2414"/><stop offset=".997" stop-color="#c92414"/></linearGradient><linearGradient id="b" gradientUnits="userSpaceOnUse" x1="54.9825" x2="54.9825" xlink:href="#a" y1="84.5069" y2="23.7312"/><linearGradient id="c" gradientUnits="userSpaceOnUse" x1="55.0055" x2="55.0055" xlink:href="#a" y1="84.5069" y2="23.7312"/><linearGradient id="d" gradientUnits="userSpaceOnUse" x1="23.2617" x2="23.2617" xlink:href="#a" y1="84.5069" y2="23.7312"/><linearGradient id="e" gradientUnits="userSpaceOnUse" x1="23.2532" x2="23.2532" xlink:href="#a" y1="84.5069" y2="23.7312"/><linearGradient id="f" gradientUnits="userSpaceOnUse" x1="23.279" x2="23.279" xlink:href="#a" y1="84.5069" y2="23.7312"/><linearGradient id="g" gradientUnits="userSpaceOnUse" x1="86.7205" x2="86.7205" xlink:href="#a" y1="84.5069" y2="23.7312"/><linearGradient id="h" gradientUnits="userSpaceOnUse" x1="86.7383" x2="86.7383" xlink:href="#a" y1="84.5069" y2="23.7312"/><path d="m68 42.5h-.5v-6.2c0-6.9-5.6-12.5-12.5-12.5s-12.5 5.6-12.5 12.5c0 .9.7 1.6 1.6 1.6s1.6-.7 1.6-1.6c0-5.2 4.2-9.4 9.4-9.4s9.4 4.2 9.4 9.4v6.2h-22.5c-2.3 0-4.1 1.8-4.1 4.1v17.1c0 2.3 1.8 4.1 4.1 4.1h26c2.3 0 4.1-1.8 4.1-4.1v-17.1c0-2.3-1.9-4.1-4.1-4.1zm.9 21.2c0 .5-.4.9-.9.9h-26c-.5 0-.9-.4-.9-.9v-17.1c0-.5.4-.9.9-.9h26c.5 0 .9.4.9.9zm0 0" fill="url(#b)"/><path d="m55.4 50.7c-1.1-.2-2.3.4-2.8 1.5s-.2 2.4.9 3.1c.2.2.2.3.2.5v3.4c0 .9 1 1.6 2 1.1.4-.2.7-.7.6-1.1v-3.4c0-.2.1-.4.3-.6.7-.5 1.1-1.2 1.1-2.1-.1-1.2-1-2.2-2.3-2.4zm0 0" fill="url(#c)"/><path d="m32.5 54.2h-8.8c-.7-2.4-2.9-4.2-5.5-4.2-3.2 0-5.8 2.6-5.8 5.8s2.6 5.8 5.8 5.8c2.6 0 4.9-1.8 5.5-4.2h8.8c.9 0 1.6-.7 1.6-1.6s-.7-1.6-1.6-1.6zm-14.3 4.2c-1.4 0-2.6-1.2-2.6-2.6s1.2-2.6 2.6-2.6 2.6 1.2 2.6 2.6c0 1.5-1.2 2.6-2.6 2.6zm0 0" fill="url(#d)"/><path d="m32.5 45h-9.6c-1.7 0-3.1-1.4-3.1-3.1v-5.1c2.4-.7 4.2-2.9 4.2-5.5 0-3.2-2.6-5.8-5.8-5.8s-5.8 2.6-5.8 5.8c0 2.6 1.8 4.9 4.2 5.5v5.1c0 3.5 2.8 6.3 6.3 6.3h9.6c.9 0 1.6-.7 1.6-1.6 0-1-.7-1.6-1.6-1.6zm-16.9-13.9c0-1.4 1.2-2.6 2.6-2.6s2.6 1.2 2.6 2.6-1.2 2.6-2.6 2.6c-1.5 0-2.6-1.1-2.6-2.6zm0 0" fill="url(#e)"/><path d="m32.5 63.5h-9.6c-3.5 0-6.3 2.8-6.3 6.3v5.1c-2.4.7-4.2 2.9-4.2 5.5 0 3.2 2.6 5.8 5.8 5.8s5.8-2.6 5.8-5.8c0-2.6-1.8-4.9-4.2-5.5v-5.1c0-1.7 1.4-3.1 3.1-3.1h9.6c.9 0 1.6-.7 1.6-1.6s-.7-1.6-1.6-1.6zm-11.7 17c0 1.4-1.2 2.6-2.6 2.6s-2.6-1.2-2.6-2.6 1.2-2.6 2.6-2.6 2.6 1.1 2.6 2.6zm0 0" fill="url(#f)"/><path d="m91.8 50c-2.6 0-4.9 1.8-5.5 4.2h-8.8c-.9 0-1.6.7-1.6 1.6s.7 1.6 1.6 1.6h8.8c.7 2.4 2.9 4.2 5.5 4.2 3.2 0 5.8-2.6 5.8-5.8s-2.6-5.8-5.8-5.8zm0 8.4c-1.4 0-2.6-1.2-2.6-2.6s1.2-2.6 2.6-2.6 2.6 1.2 2.6 2.6c0 1.5-1.2 2.6-2.6 2.6zm0 0" fill="url(#g)"/><path d="m93.4 74.9v-5.1c0-3.5-2.8-6.3-6.3-6.3h-9.6c-.9 0-1.6.7-1.6 1.6s.7 1.6 1.6 1.6h9.6c1.7 0 3.1 1.4 3.1 3.1v5.1c-2.4.7-4.2 2.9-4.2 5.5 0 3.2 2.6 5.8 5.8 5.8s5.8-2.6 5.8-5.8c0-2.6-1.8-4.8-4.2-5.5zm-1.6 8.2c-1.4 0-2.6-1.2-2.6-2.6s1.2-2.6 2.6-2.6 2.6 1.2 2.6 2.6-1.2 2.6-2.6 2.6zm0 0" fill="url(#h)"/><path d="m77.5 48.1h9.6c3.5 0 6.3-2.8 6.3-6.3v-5.1c2.4-.7 4.2-2.9 4.2-5.5 0-3.2-2.6-5.8-5.8-5.8s-5.8 2.5-5.8 5.7c0 2.6 1.8 4.9 4.2 5.5v5.1c0 1.7-1.4 3.1-3.1 3.1h-9.6c-.9 0-1.6.7-1.6 1.6 0 1 .7 1.7 1.6 1.7zm11.7-17c0-1.4 1.2-2.6 2.6-2.6s2.6 1.2 2.6 2.6-1.2 2.6-2.6 2.6-2.6-1.1-2.6-2.6zm0 0" fill="url(#g)"/></svg>