<svg xmlns="http://www.w3.org/2000/svg" xmlns:xlink="http://www.w3.org/1999/xlink" contentStyleType="text/css" height="999px" preserveAspectRatio="none" style="width:1018px;height:999px;background:#FFFFFF;" version="1.1" viewBox="0 0 1018 999" width="1018px" zoomAndPan="magnify"><defs/><g><text fill="#888888" font-family="sans-serif" font-size="20" lengthAdjust="spacing" textLength="67" x="655.5" y="22.1812">D&#29916;&#21733; &#183;</text><text fill="#888888" font-family="JetBrains Mono" font-size="20" lengthAdjust="spacing" textLength="276" x="728.5" y="20.4">https://www.diguage.com</text><text fill="#000000" font-family="Source Han Sans SC" font-size="36" font-weight="bold" lengthAdjust="spacing" textLength="614" x="195.25" y="79.16">Hessian AbstractHessianOutput &#31867;&#22270;</text><!--class AbstractHessianOutput--><g id="elem_AbstractHessianOutput"><rect codeLine="5" fill="#F1F1F1" height="707.1758" id="AbstractHessianOutput" rx="2.5" ry="2.5" style="stroke:#181818;stroke-width:0.5;" width="471" x="302" y="107.528"/><ellipse cx="433" cy="124.528" fill="#A9DCDF" rx="12" ry="12" style="stroke:#181818;stroke-width:1.0;"/><path d="M432.9141,119.779 L431.6924,125.1491 L434.1445,125.1491 Z M431.332,117.4059 L434.5049,117.4059 L438.0469,130.528 L435.4541,130.528 L434.6455,127.2848 L431.1738,127.2848 L430.3828,130.528 L427.79,130.528 Z " fill="#000000"/><text fill="#000000" font-family="sans-serif" font-size="18" font-style="italic" lengthAdjust="spacing" textLength="200" x="455" y="131.3307">AbstractHessianOutput</text><line style="stroke:#181818;stroke-width:0.5;" x1="303" x2="772" y1="141.528" y2="141.528"/><rect fill="none" height="6" style="stroke:#C82930;stroke-width:1.0;" width="6" x="310" y="154.6276"/><text fill="#000000" font-family="sans-serif" font-size="18" lengthAdjust="spacing" textLength="360" x="323" y="162.9303">SerializerFactory _defaultSerializerFactory</text><polygon fill="none" points="313,173.8268,317,177.8268,313,181.8268,309,177.8268" style="stroke:#B38D22;stroke-width:1.0;"/><text fill="#000000" font-family="sans-serif" font-size="18" lengthAdjust="spacing" textLength="298" x="323" y="184.1296">SerializerFactory _serializerFactory</text><line style="stroke:#181818;stroke-width:0.5;" x1="303" x2="772" y1="191.9264" y2="191.9264"/><ellipse cx="313" cy="208.026" fill="#84BE84" rx="3" ry="3" style="stroke:#038048;stroke-width:1.0;"/><text fill="#000000" font-family="sans-serif" font-size="18" lengthAdjust="spacing" textLength="430" x="323" y="213.3288">void setSerializerFactory(SerializerFactory factory)</text><ellipse cx="313" cy="229.2253" fill="#84BE84" rx="3" ry="3" style="stroke:#038048;stroke-width:1.0;"/><text fill="#000000" font-family="sans-serif" font-size="18" lengthAdjust="spacing" textLength="330" x="323" y="234.528">SerializerFactory getSerializerFactory()</text><polygon fill="#FFFF44" points="313,245.4245,317,249.4245,313,253.4245,309,249.4245" style="stroke:#B38D22;stroke-width:1.0;"/><text fill="#000000" font-family="sans-serif" font-size="18" lengthAdjust="spacing" textLength="336" x="323" y="255.7272">SerializerFactory findSerializerFactory()</text><ellipse cx="313" cy="271.6237" fill="#84BE84" rx="3" ry="3" style="stroke:#038048;stroke-width:1.0;"/><text fill="#000000" font-family="sans-serif" font-size="18" lengthAdjust="spacing" textLength="364" x="323" y="276.9264">boolean setUnshared(boolean isUnshared)</text><ellipse cx="313" cy="292.8229" fill="#84BE84" rx="3" ry="3" style="stroke:#038048;stroke-width:1.0;"/><text fill="#000000" font-family="sans-serif" font-size="18" font-style="italic" lengthAdjust="spacing" textLength="285" x="323" y="298.1257">void writeBoolean(boolean value)</text><ellipse cx="313" cy="314.0221" fill="#84BE84" rx="3" ry="3" style="stroke:#038048;stroke-width:1.0;"/><text fill="#000000" font-family="sans-serif" font-size="18" font-style="italic" lengthAdjust="spacing" textLength="194" x="323" y="319.3249">void writeInt(int value)</text><ellipse cx="313" cy="335.2214" fill="#84BE84" rx="3" ry="3" style="stroke:#038048;stroke-width:1.0;"/><text fill="#000000" font-family="sans-serif" font-size="18" font-style="italic" lengthAdjust="spacing" textLength="229" x="323" y="340.5241">void writeLong(long value)</text><ellipse cx="313" cy="356.4206" fill="#84BE84" rx="3" ry="3" style="stroke:#038048;stroke-width:1.0;"/><text fill="#000000" font-family="sans-serif" font-size="18" font-style="italic" lengthAdjust="spacing" textLength="268" x="323" y="361.7233">void writeDouble(double value)</text><ellipse cx="313" cy="377.6198" fill="#84BE84" rx="3" ry="3" style="stroke:#038048;stroke-width:1.0;"/><text fill="#000000" font-family="sans-serif" font-size="18" font-style="italic" lengthAdjust="spacing" textLength="255" x="323" y="382.9225">void writeUTCDate(long time)</text><ellipse cx="313" cy="398.819" fill="#84BE84" rx="3" ry="3" style="stroke:#038048;stroke-width:1.0;"/><text fill="#000000" font-family="sans-serif" font-size="18" font-style="italic" lengthAdjust="spacing" textLength="131" x="323" y="404.1217">void writeNull()</text><ellipse cx="313" cy="420.0182" fill="#84BE84" rx="3" ry="3" style="stroke:#038048;stroke-width:1.0;"/><text fill="#000000" font-family="sans-serif" font-size="18" font-style="italic" lengthAdjust="spacing" textLength="250" x="323" y="425.321">void writeString(String value)</text><ellipse cx="313" cy="441.2175" fill="#84BE84" rx="3" ry="3" style="stroke:#038048;stroke-width:1.0;"/><text fill="#000000" font-family="sans-serif" font-size="18" font-style="italic" lengthAdjust="spacing" textLength="444" x="323" y="446.5202">void writeString(char []buffer, int offset, int length)</text><ellipse cx="313" cy="462.4167" fill="#84BE84" rx="3" ry="3" style="stroke:#038048;stroke-width:1.0;"/><text fill="#000000" font-family="sans-serif" font-size="18" font-style="italic" lengthAdjust="spacing" textLength="250" x="323" y="467.7194">void writeBytes(byte []buffer)</text><ellipse cx="313" cy="483.6159" fill="#84BE84" rx="3" ry="3" style="stroke:#038048;stroke-width:1.0;"/><text fill="#000000" font-family="sans-serif" font-size="18" font-style="italic" lengthAdjust="spacing" textLength="438" x="323" y="488.9186">void writeBytes(byte []buffer, int offset, int length)</text><polygon fill="#FFFF44" points="313,499.8151,317,503.8151,313,507.8151,309,503.8151" style="stroke:#B38D22;stroke-width:1.0;"/><text fill="#000000" font-family="sans-serif" font-size="18" font-style="italic" lengthAdjust="spacing" textLength="199" x="323" y="510.1178">void writeRef(int value)</text><ellipse cx="313" cy="526.0143" fill="#84BE84" rx="3" ry="3" style="stroke:#038048;stroke-width:1.0;"/><text fill="#000000" font-family="sans-serif" font-size="18" lengthAdjust="spacing" textLength="268" x="323" y="531.3171">boolean removeRef(Object obj)</text><ellipse cx="313" cy="547.2135" fill="#84BE84" rx="3" ry="3" style="stroke:#038048;stroke-width:1.0;"/><text fill="#000000" font-family="sans-serif" font-size="18" font-style="italic" lengthAdjust="spacing" textLength="431" x="323" y="552.5163">boolean replaceRef(Object oldRef, Object newRef)</text><ellipse cx="313" cy="568.4128" fill="#84BE84" rx="3" ry="3" style="stroke:#038048;stroke-width:1.0;"/><text fill="#000000" font-family="sans-serif" font-size="18" font-style="italic" lengthAdjust="spacing" textLength="262" x="323" y="573.7155">boolean addRef(Object object)</text><ellipse cx="313" cy="589.612" fill="#84BE84" rx="3" ry="3" style="stroke:#038048;stroke-width:1.0;"/><text fill="#000000" font-family="sans-serif" font-size="18" font-style="italic" lengthAdjust="spacing" textLength="186" x="323" y="594.9147">int getRef(Object obj)</text><ellipse cx="313" cy="610.8112" fill="#84BE84" rx="3" ry="3" style="stroke:#038048;stroke-width:1.0;"/><text fill="#000000" font-family="sans-serif" font-size="18" font-style="italic" lengthAdjust="spacing" textLength="268" x="323" y="616.1139">void writeObject(Object object)</text><ellipse cx="313" cy="632.0104" fill="#84BE84" rx="3" ry="3" style="stroke:#038048;stroke-width:1.0;"/><text fill="#000000" font-family="sans-serif" font-size="18" font-style="italic" lengthAdjust="spacing" textLength="398" x="323" y="637.3132">boolean writeListBegin(int length, String type)</text><ellipse cx="313" cy="653.2096" fill="#84BE84" rx="3" ry="3" style="stroke:#038048;stroke-width:1.0;"/><text fill="#000000" font-family="sans-serif" font-size="18" font-style="italic" lengthAdjust="spacing" textLength="160" x="323" y="658.5124">void writeListEnd()</text><ellipse cx="313" cy="674.4089" fill="#84BE84" rx="3" ry="3" style="stroke:#038048;stroke-width:1.0;"/><text fill="#000000" font-family="sans-serif" font-size="18" font-style="italic" lengthAdjust="spacing" textLength="275" x="323" y="679.7116">void writeMapBegin(String type)</text><ellipse cx="313" cy="695.6081" fill="#84BE84" rx="3" ry="3" style="stroke:#038048;stroke-width:1.0;"/><text fill="#000000" font-family="sans-serif" font-size="18" font-style="italic" lengthAdjust="spacing" textLength="166" x="323" y="700.9108">void writeMapEnd()</text><ellipse cx="313" cy="716.8073" fill="#84BE84" rx="3" ry="3" style="stroke:#038048;stroke-width:1.0;"/><text fill="#000000" font-family="sans-serif" font-size="18" lengthAdjust="spacing" textLength="281" x="323" y="722.11">int writeObjectBegin(String type)</text><ellipse cx="313" cy="738.0065" fill="#84BE84" rx="3" ry="3" style="stroke:#038048;stroke-width:1.0;"/><text fill="#000000" font-family="sans-serif" font-size="18" lengthAdjust="spacing" textLength="185" x="323" y="743.3092">void writeObjectEnd()</text><ellipse cx="313" cy="759.2057" fill="#84BE84" rx="3" ry="3" style="stroke:#038048;stroke-width:1.0;"/><text fill="#000000" font-family="sans-serif" font-size="18" lengthAdjust="spacing" textLength="298" x="323" y="764.5085">void writeClassFieldLength(int len)</text><ellipse cx="313" cy="780.405" fill="#84BE84" rx="3" ry="3" style="stroke:#038048;stroke-width:1.0;"/><text fill="#000000" font-family="sans-serif" font-size="18" lengthAdjust="spacing" textLength="97" x="323" y="785.7077">void flush()</text><ellipse cx="313" cy="801.6042" fill="#84BE84" rx="3" ry="3" style="stroke:#038048;stroke-width:1.0;"/><text fill="#000000" font-family="sans-serif" font-size="18" lengthAdjust="spacing" textLength="98" x="323" y="806.9069">void close()</text></g><path d="M6,425.028 L6,486.76 A0,0 0 0 0 6,486.76 L267,486.76 A0,0 0 0 0 267,486.76 L267,459.894 L306,715.3073 L267,451.894 L267,435.028 L257,425.028 L6,425.028 A0,0 0 0 0 6,425.028 " fill="#FEFFDD" style="stroke:#181818;stroke-width:0.5;"/><path d="M257,425.028 L257,435.028 L267,435.028 L257,425.028 " fill="#FEFFDD" style="stroke:#181818;stroke-width:0.5;"/><text fill="#000000" font-family="Source Han Serif SC" font-size="18" lengthAdjust="spacing" textLength="90" x="12" y="450.746">&#30452;&#25509;&#35843;&#29992;&#30340;</text><text fill="#000000" font-family="Source Han Serif SC" font-size="18" lengthAdjust="spacing" textLength="240" x="12" y="476.612">writeMapBegin(String type)</text><!--class HessianOutput--><g id="elem_HessianOutput"><rect codeLine="44" fill="#F1F1F1" height="50" id="HessianOutput" rx="2.5" ry="2.5" style="stroke:#181818;stroke-width:0.5;" width="162" x="456.5" y="885.028"/><ellipse cx="472.5" cy="902.028" fill="#ADD1B2" rx="12" ry="12" style="stroke:#181818;stroke-width:1.0;"/><path d="M475.001,908.1501 Q474.3857,908.4665 473.709,908.6247 Q473.0322,908.7829 472.2852,908.7829 Q469.6309,908.7829 468.2334,907.0339 Q466.8359,905.2848 466.8359,901.9801 Q466.8359,898.6667 468.2334,896.9176 Q469.6309,895.1686 472.2852,895.1686 Q473.0322,895.1686 473.7178,895.3268 Q474.4033,895.485 475.001,895.8014 L475.001,898.6842 Q474.333,898.069 473.7046,897.7834 Q473.0762,897.4977 472.4082,897.4977 Q470.9844,897.4977 470.2593,898.6271 Q469.5342,899.7565 469.5342,901.9801 Q469.5342,904.195 470.2593,905.3244 Q470.9844,906.4538 472.4082,906.4538 Q473.0762,906.4538 473.7046,906.1681 Q474.333,905.8825 475.001,905.2673 Z " fill="#000000"/><text fill="#000000" font-family="sans-serif" font-size="18" lengthAdjust="spacing" textLength="128" x="487.5" y="908.8307">HessianOutput</text><line style="stroke:#181818;stroke-width:0.5;" x1="457.5" x2="617.5" y1="919.028" y2="919.028"/><line style="stroke:#181818;stroke-width:0.5;" x1="457.5" x2="617.5" y1="927.028" y2="927.028"/></g><!--class Hessian2Output--><g id="elem_Hessian2Output"><rect codeLine="46" fill="#F1F1F1" height="71.1992" id="Hessian2Output" rx="2.5" ry="2.5" style="stroke:#181818;stroke-width:0.5;" width="308" x="703.5" y="874.528"/><ellipse cx="783.5" cy="891.528" fill="#ADD1B2" rx="12" ry="12" style="stroke:#181818;stroke-width:1.0;"/><path d="M786.001,897.6501 Q785.3857,897.9665 784.709,898.1247 Q784.0322,898.2829 783.2852,898.2829 Q780.6309,898.2829 779.2334,896.5339 Q777.8359,894.7848 777.8359,891.4801 Q777.8359,888.1667 779.2334,886.4176 Q780.6309,884.6686 783.2852,884.6686 Q784.0322,884.6686 784.7178,884.8268 Q785.4033,884.985 786.001,885.3014 L786.001,888.1842 Q785.333,887.569 784.7046,887.2834 Q784.0762,886.9977 783.4082,886.9977 Q781.9844,886.9977 781.2593,888.1271 Q780.5342,889.2565 780.5342,891.4801 Q780.5342,893.695 781.2593,894.8244 Q781.9844,895.9538 783.4082,895.9538 Q784.0762,895.9538 784.7046,895.6681 Q785.333,895.3825 786.001,894.7673 Z " fill="#000000"/><text fill="#000000" font-family="sans-serif" font-size="18" lengthAdjust="spacing" textLength="139" x="805.5" y="898.3307">Hessian2Output</text><line style="stroke:#181818;stroke-width:0.5;" x1="704.5" x2="1010.5" y1="908.528" y2="908.528"/><line style="stroke:#181818;stroke-width:0.5;" x1="704.5" x2="1010.5" y1="916.528" y2="916.528"/><ellipse cx="714.5" cy="932.6276" fill="#84BE84" rx="3" ry="3" style="stroke:#038048;stroke-width:1.0;"/><text fill="#000000" font-family="sans-serif" font-size="18" lengthAdjust="spacing" textLength="281" x="724.5" y="937.9303">int writeObjectBegin(String type)</text></g><!--class Hessian2Constants--><g id="elem_Hessian2Constants"><rect fill="#F1F1F1" height="50" id="Hessian2Constants" rx="2.5" ry="2.5" style="stroke:#181818;stroke-width:0.5;" width="199" x="808" y="436.028"/><ellipse cx="824" cy="453.028" fill="#B4A7E5" rx="12" ry="12" style="stroke:#181818;stroke-width:1.0;"/><path d="M820.0117,448.9411 L820.0117,446.6559 L827.8252,446.6559 L827.8252,448.9411 L825.2148,448.9411 L825.2148,457.4928 L827.8252,457.4928 L827.8252,459.778 L820.0117,459.778 L820.0117,457.4928 L822.6221,457.4928 L822.6221,448.9411 Z " fill="#000000"/><text fill="#000000" font-family="sans-serif" font-size="18" font-style="italic" lengthAdjust="spacing" textLength="165" x="839" y="459.8307">Hessian2Constants</text><line style="stroke:#181818;stroke-width:0.5;" x1="809" x2="1006" y1="470.028" y2="470.028"/><line style="stroke:#181818;stroke-width:0.5;" x1="809" x2="1006" y1="478.028" y2="478.028"/></g><!--reverse link AbstractHessianOutput to HessianOutput--><g id="link_AbstractHessianOutput_HessianOutput"><path d="M537.5,832.778 C537.5,861.628 537.5,868.098 537.5,884.868 " fill="none" id="AbstractHessianOutput-backto-HessianOutput" style="stroke:#181818;stroke-width:1.0;"/><polygon fill="none" points="537.5,814.778,531.5,832.778,543.5,832.778,537.5,814.778" style="stroke:#181818;stroke-width:1.0;"/></g><!--reverse link AbstractHessianOutput to Hessian2Output--><g id="link_AbstractHessianOutput_Hessian2Output"><path d="M783.8999,806.2226 C807.5099,839.1926 817.77,853.528 832.74,874.438 " fill="none" id="AbstractHessianOutput-backto-Hessian2Output" style="stroke:#181818;stroke-width:1.0;"/><polygon fill="none" points="773.42,791.588,779.0217,809.7159,788.7781,802.7293,773.42,791.588" style="stroke:#181818;stroke-width:1.0;"/></g><!--reverse link Hessian2Constants to Hessian2Output--><g id="link_Hessian2Constants_Hessian2Output"><path d="M902.778,504.2663 C894.418,578.9663 871.13,787.168 861.39,874.278 " fill="none" id="Hessian2Constants-backto-Hessian2Output" style="stroke:#181818;stroke-width:1.0;stroke-dasharray:7.0,7.0;"/><polygon fill="none" points="904.78,486.378,896.8153,503.599,908.7408,504.9336,904.78,486.378" style="stroke:#181818;stroke-width:1.0;"/></g><text fill="#E22D30" font-family="Source Han Serif SC" font-size="28" lengthAdjust="spacing" textLength="94" x="216.75" y="983.9552">D&#29916;&#21733; &#183;</text><text fill="#E22D30" font-family="JetBrains Mono" font-size="28" lengthAdjust="spacing" textLength="391" x="317.75" y="983.5632">https://www.diguage.com</text><text fill="#E22D30" font-family="Source Han Serif SC" font-size="28" lengthAdjust="spacing" textLength="72" x="715.75" y="983.9552">&#183; &#20986;&#21697;</text><!--SRC=[bPNFRzCm5CVl-Ikixf9rOnkTXARTMCSqqCOaoau88IT-QRqvTcGxAsFQ0O74ZSiuCQwJE8A4X0GI1_wNKluCNfeswP8qBL8LrtwVx_Dxpx_CAPSHrJGKoZy5HXW4D1PsJqdRuQ-0tDroJ06nt0h8WCrx9Q07b87EYDP6YGYKijF4LWtHLa9fiWIj5jlSc1tCOne2wQXO-q3sgIGTAWtfj4i2YNuhUT0yg1BaaImi6HVnK4bb8ke3ozIFmEveoZ6qnEYabIAxmwjFWwiRylixQJHwraPcUtszt- -lCTwDQHVMV1Ks6eupIfOqc_jW3CS0xdl6QkhRSVyejb5ioV3hpy7rhsRJSUZOJdn1ZPc1NpY4t4bIeGBNGkyXeFGvUJ5EecH1VAa2DnKS_bRE56V4GDcFMtOIfEroeYjRkrLEbgl32RXarV2AfvG0B1x6T2nDZsfWxcICcydG2BsO5F2IZDBeQsvX9sKppHaLCSp67qhhScddOGTATbs1dtdWheez0IuRDVFWuwVjNMeXTMnvM8C-ZeLmPvixLdECC6tcJJk6VQmaUVRSYuC0z2f9gg220EkU_XSWkxPNK-Xp2yRry9iv-I-uRiQbIYTF82YirMIHDOJgR6G_yau0JvJoJeh1v6mayD1Fmu9XRvMCknBws9qbfupTdWUR8fi4YSUXFfuyhvIfTpcPFjsDtDWTw7BfvcLR9UF5j-THtKP6wGF9QhRI8OrItmlvGpfpbmGpbL2rbsBQcJetj9FhS8-3O0UZr2PPvbWWOjERalb26S3-fPEy7yW6oSwglb6tjuineflXzRS_xs_-Vdap_F1v-F4jZjJK0cJwJZbEUd7Vlh3XfKLWndLUaBGMqH0UHW92a3RNjPKqbYOZ5ujL_j9nqfTomTSiCG_U_HXSlVu7]--></g></svg>