<svg xmlns="http://www.w3.org/2000/svg" xmlns:xlink="http://www.w3.org/1999/xlink" contentStyleType="text/css" height="595px" preserveAspectRatio="none" style="width:3205px;height:595px;background:#FFFFFF;" version="1.1" viewBox="0 0 3205 595" width="3205px" zoomAndPan="magnify"><defs/><g><text fill="#888888" font-family="sans-serif" font-size="20" lengthAdjust="spacing" textLength="67" x="2842" y="22.1812">D&#29916;&#21733; &#183;</text><text fill="#888888" font-family="JetBrains Mono" font-size="20" lengthAdjust="spacing" textLength="276" x="2915" y="20.4">https://www.diguage.com</text><text fill="#000000" font-family="Source Han Sans SC" font-size="36" font-weight="bold" lengthAdjust="spacing" textLength="376" x="1407.5" y="79.16">Hessian Serializer &#31867;&#22270;</text><!--class Serializer--><g id="elem_Serializer"><rect codeLine="5" fill="#F1F1F1" height="71.1992" id="Serializer" rx="2.5" ry="2.5" style="stroke:#181818;stroke-width:0.5;" width="522" x="1372" y="107.528"/><ellipse cx="1589" cy="124.528" fill="#B4A7E5" rx="12" ry="12" style="stroke:#181818;stroke-width:1.0;"/><path d="M1585.0117,120.4411 L1585.0117,118.1559 L1592.8252,118.1559 L1592.8252,120.4411 L1590.2148,120.4411 L1590.2148,128.9928 L1592.8252,128.9928 L1592.8252,131.278 L1585.0117,131.278 L1585.0117,128.9928 L1587.6221,128.9928 L1587.6221,120.4411 Z " fill="#000000"/><text fill="#000000" font-family="sans-serif" font-size="18" font-style="italic" lengthAdjust="spacing" textLength="79" x="1611" y="131.3307">Serializer</text><line style="stroke:#181818;stroke-width:0.5;" x1="1373" x2="1893" y1="141.528" y2="141.528"/><line style="stroke:#181818;stroke-width:0.5;" x1="1373" x2="1893" y1="149.528" y2="149.528"/><ellipse cx="1383" cy="165.6276" fill="#84BE84" rx="3" ry="3" style="stroke:#038048;stroke-width:1.0;"/><text fill="#000000" font-family="sans-serif" font-size="18" lengthAdjust="spacing" textLength="495" x="1393" y="170.9303">void writeObject(Object obj, AbstractHessianOutput out);</text></g><!--class ObjectSerializer--><g id="elem_ObjectSerializer"><rect codeLine="9" fill="#F1F1F1" height="71.1992" id="ObjectSerializer" rx="2.5" ry="2.5" style="stroke:#181818;stroke-width:0.5;" width="336" x="41" y="238.528"/><ellipse cx="137" cy="255.528" fill="#B4A7E5" rx="12" ry="12" style="stroke:#181818;stroke-width:1.0;"/><path d="M133.0117,251.4411 L133.0117,249.1559 L140.8252,249.1559 L140.8252,251.4411 L138.2148,251.4411 L138.2148,259.9928 L140.8252,259.9928 L140.8252,262.278 L133.0117,262.278 L133.0117,259.9928 L135.6221,259.9928 L135.6221,251.4411 Z " fill="#000000"/><text fill="#000000" font-family="sans-serif" font-size="18" font-style="italic" lengthAdjust="spacing" textLength="135" x="159" y="262.3307">ObjectSerializer</text><line style="stroke:#181818;stroke-width:0.5;" x1="42" x2="376" y1="272.528" y2="272.528"/><line style="stroke:#181818;stroke-width:0.5;" x1="42" x2="376" y1="280.528" y2="280.528"/><text fill="#000000" font-family="sans-serif" font-size="18" lengthAdjust="spacing" textLength="324" x="47" y="301.9303">public Serializer getObjectSerializer();</text></g><!--class AbstractSerializer--><g id="elem_AbstractSerializer"><rect codeLine="13" fill="#F1F1F1" height="50" id="AbstractSerializer" rx="2.5" ry="2.5" style="stroke:#181818;stroke-width:0.5;" width="185" x="1540.5" y="249.028"/><ellipse cx="1556.5" cy="266.028" fill="#A9DCDF" rx="12" ry="12" style="stroke:#181818;stroke-width:1.0;"/><path d="M1556.4141,261.279 L1555.1924,266.6491 L1557.6445,266.6491 Z M1554.832,258.9059 L1558.0049,258.9059 L1561.5469,272.028 L1558.9541,272.028 L1558.1455,268.7848 L1554.6738,268.7848 L1553.8828,272.028 L1551.29,272.028 Z " fill="#000000"/><text fill="#000000" font-family="sans-serif" font-size="18" font-style="italic" lengthAdjust="spacing" textLength="151" x="1571.5" y="272.8307">AbstractSerializer</text><line style="stroke:#181818;stroke-width:0.5;" x1="1541.5" x2="1724.5" y1="283.028" y2="283.028"/><line style="stroke:#181818;stroke-width:0.5;" x1="1541.5" x2="1724.5" y1="291.028" y2="291.028"/></g><!--class AnnotationSerializer--><g id="elem_AnnotationSerializer"><rect codeLine="15" fill="#F1F1F1" height="50" id="AnnotationSerializer" rx="2.5" ry="2.5" style="stroke:#181818;stroke-width:0.5;" width="209" x="1981.5" y="369.528"/><ellipse cx="1997.5" cy="386.528" fill="#ADD1B2" rx="12" ry="12" style="stroke:#181818;stroke-width:1.0;"/><path d="M2000.001,392.6501 Q1999.3857,392.9665 1998.709,393.1247 Q1998.0322,393.2829 1997.2852,393.2829 Q1994.6309,393.2829 1993.2334,391.5339 Q1991.8359,389.7848 1991.8359,386.4801 Q1991.8359,383.1667 1993.2334,381.4176 Q1994.6309,379.6686 1997.2852,379.6686 Q1998.0322,379.6686 1998.7178,379.8268 Q1999.4033,379.985 2000.001,380.3014 L2000.001,383.1842 Q1999.333,382.569 1998.7046,382.2834 Q1998.0762,381.9977 1997.4082,381.9977 Q1995.9844,381.9977 1995.2593,383.1271 Q1994.5342,384.2565 1994.5342,386.4801 Q1994.5342,388.695 1995.2593,389.8244 Q1995.9844,390.9538 1997.4082,390.9538 Q1998.0762,390.9538 1998.7046,390.6681 Q1999.333,390.3825 2000.001,389.7673 Z " fill="#000000"/><text fill="#000000" font-family="sans-serif" font-size="18" lengthAdjust="spacing" textLength="175" x="2012.5" y="393.3307">AnnotationSerializer</text><line style="stroke:#181818;stroke-width:0.5;" x1="1982.5" x2="2189.5" y1="403.528" y2="403.528"/><line style="stroke:#181818;stroke-width:0.5;" x1="1982.5" x2="2189.5" y1="411.528" y2="411.528"/></g><!--class ArraySerializer--><g id="elem_ArraySerializer"><rect codeLine="17" fill="#F1F1F1" height="50" id="ArraySerializer" rx="2.5" ry="2.5" style="stroke:#181818;stroke-width:0.5;" width="158" x="2226" y="369.528"/><ellipse cx="2242" cy="386.528" fill="#ADD1B2" rx="12" ry="12" style="stroke:#181818;stroke-width:1.0;"/><path d="M2244.501,392.6501 Q2243.8857,392.9665 2243.209,393.1247 Q2242.5322,393.2829 2241.7852,393.2829 Q2239.1309,393.2829 2237.7334,391.5339 Q2236.3359,389.7848 2236.3359,386.4801 Q2236.3359,383.1667 2237.7334,381.4176 Q2239.1309,379.6686 2241.7852,379.6686 Q2242.5322,379.6686 2243.2178,379.8268 Q2243.9033,379.985 2244.501,380.3014 L2244.501,383.1842 Q2243.833,382.569 2243.2046,382.2834 Q2242.5762,381.9977 2241.9082,381.9977 Q2240.4844,381.9977 2239.7593,383.1271 Q2239.0342,384.2565 2239.0342,386.4801 Q2239.0342,388.695 2239.7593,389.8244 Q2240.4844,390.9538 2241.9082,390.9538 Q2242.5762,390.9538 2243.2046,390.6681 Q2243.833,390.3825 2244.501,389.7673 Z " fill="#000000"/><text fill="#000000" font-family="sans-serif" font-size="18" lengthAdjust="spacing" textLength="124" x="2257" y="393.3307">ArraySerializer</text><line style="stroke:#181818;stroke-width:0.5;" x1="2227" x2="2383" y1="403.528" y2="403.528"/><line style="stroke:#181818;stroke-width:0.5;" x1="2227" x2="2383" y1="411.528" y2="411.528"/></g><!--class BasicSerializer--><g id="elem_BasicSerializer"><rect codeLine="19" fill="#F1F1F1" height="50" id="BasicSerializer" rx="2.5" ry="2.5" style="stroke:#181818;stroke-width:0.5;" width="156" x="236" y="369.528"/><ellipse cx="252" cy="386.528" fill="#ADD1B2" rx="12" ry="12" style="stroke:#181818;stroke-width:1.0;"/><path d="M254.501,392.6501 Q253.8857,392.9665 253.209,393.1247 Q252.5322,393.2829 251.7852,393.2829 Q249.1309,393.2829 247.7334,391.5339 Q246.3359,389.7848 246.3359,386.4801 Q246.3359,383.1667 247.7334,381.4176 Q249.1309,379.6686 251.7852,379.6686 Q252.5322,379.6686 253.2178,379.8268 Q253.9033,379.985 254.501,380.3014 L254.501,383.1842 Q253.833,382.569 253.2046,382.2834 Q252.5762,381.9977 251.9082,381.9977 Q250.4844,381.9977 249.7593,383.1271 Q249.0342,384.2565 249.0342,386.4801 Q249.0342,388.695 249.7593,389.8244 Q250.4844,390.9538 251.9082,390.9538 Q252.5762,390.9538 253.2046,390.6681 Q253.833,390.3825 254.501,389.7673 Z " fill="#000000"/><text fill="#000000" font-family="sans-serif" font-size="18" lengthAdjust="spacing" textLength="122" x="267" y="393.3307">BasicSerializer</text><line style="stroke:#181818;stroke-width:0.5;" x1="237" x2="391" y1="403.528" y2="403.528"/><line style="stroke:#181818;stroke-width:0.5;" x1="237" x2="391" y1="411.528" y2="411.528"/></g><g id="elem_GMN13"><path d="M33.5,479.528 L33.5,541.26 A0,0 0 0 0 33.5,541.26 L594.5,541.26 A0,0 0 0 0 594.5,541.26 L594.5,489.528 L584.5,479.528 L318,479.528 L314,419.988 L310,479.528 L33.5,479.528 A0,0 0 0 0 33.5,479.528 " fill="#FEFFDD" style="stroke:#181818;stroke-width:0.5;"/><path d="M584.5,479.528 L584.5,489.528 L594.5,489.528 L584.5,479.528 " fill="#FEFFDD" style="stroke:#181818;stroke-width:0.5;"/><text fill="#000000" font-family="Source Han Serif SC" font-size="18" lengthAdjust="spacing" textLength="518" x="39.5" y="505.246">&#26681;&#25454;&#24453;&#24207;&#21015;&#21270;&#23545;&#35937;&#30340;&#31867;&#22411;&#65292;&#35843;&#29992; AbstractHessianOutput &#20013;&#30340;&#30456;</text><text fill="#000000" font-family="Source Han Serif SC" font-size="18" lengthAdjust="spacing" textLength="540" x="39.5" y="531.112">&#24212;&#24207;&#21015;&#21270;&#26041;&#27861;&#65292;&#23436;&#25104;&#23545;&#22522;&#26412;&#31867;&#22411;&#21450;&#20854;&#25968;&#32452;&#21644;&#23383;&#31526;&#20018;&#31561;&#30340;&#24207;&#21015;&#21270;&#25805;&#20316;&#12290;</text></g><!--class ByteArraySerializer--><g id="elem_ByteArraySerializer"><rect codeLine="22" fill="#F1F1F1" height="50" id="ByteArraySerializer" rx="2.5" ry="2.5" style="stroke:#181818;stroke-width:0.5;" width="194" x="7" y="369.528"/><ellipse cx="23" cy="386.528" fill="#ADD1B2" rx="12" ry="12" style="stroke:#181818;stroke-width:1.0;"/><path d="M25.501,392.6501 Q24.8857,392.9665 24.209,393.1247 Q23.5322,393.2829 22.7852,393.2829 Q20.1309,393.2829 18.7334,391.5339 Q17.3359,389.7848 17.3359,386.4801 Q17.3359,383.1667 18.7334,381.4176 Q20.1309,379.6686 22.7852,379.6686 Q23.5322,379.6686 24.2178,379.8268 Q24.9033,379.985 25.501,380.3014 L25.501,383.1842 Q24.833,382.569 24.2046,382.2834 Q23.5762,381.9977 22.9082,381.9977 Q21.4844,381.9977 20.7593,383.1271 Q20.0342,384.2565 20.0342,386.4801 Q20.0342,388.695 20.7593,389.8244 Q21.4844,390.9538 22.9082,390.9538 Q23.5762,390.9538 24.2046,390.6681 Q24.833,390.3825 25.501,389.7673 Z " fill="#000000"/><text fill="#000000" font-family="sans-serif" font-size="18" lengthAdjust="spacing" textLength="160" x="38" y="393.3307">ByteArraySerializer</text><line style="stroke:#181818;stroke-width:0.5;" x1="8" x2="200" y1="403.528" y2="403.528"/><line style="stroke:#181818;stroke-width:0.5;" x1="8" x2="200" y1="411.528" y2="411.528"/></g><!--class BeanSerializer--><g id="elem_BeanSerializer"><rect codeLine="24" fill="#F1F1F1" height="50" id="BeanSerializer" rx="2.5" ry="2.5" style="stroke:#181818;stroke-width:0.5;" width="154" x="2419" y="369.528"/><ellipse cx="2435" cy="386.528" fill="#ADD1B2" rx="12" ry="12" style="stroke:#181818;stroke-width:1.0;"/><path d="M2437.501,392.6501 Q2436.8857,392.9665 2436.209,393.1247 Q2435.5322,393.2829 2434.7852,393.2829 Q2432.1309,393.2829 2430.7334,391.5339 Q2429.3359,389.7848 2429.3359,386.4801 Q2429.3359,383.1667 2430.7334,381.4176 Q2432.1309,379.6686 2434.7852,379.6686 Q2435.5322,379.6686 2436.2178,379.8268 Q2436.9033,379.985 2437.501,380.3014 L2437.501,383.1842 Q2436.833,382.569 2436.2046,382.2834 Q2435.5762,381.9977 2434.9082,381.9977 Q2433.4844,381.9977 2432.7593,383.1271 Q2432.0342,384.2565 2432.0342,386.4801 Q2432.0342,388.695 2432.7593,389.8244 Q2433.4844,390.9538 2434.9082,390.9538 Q2435.5762,390.9538 2436.2046,390.6681 Q2436.833,390.3825 2437.501,389.7673 Z " fill="#000000"/><text fill="#000000" font-family="sans-serif" font-size="18" lengthAdjust="spacing" textLength="120" x="2450" y="393.3307">BeanSerializer</text><line style="stroke:#181818;stroke-width:0.5;" x1="2420" x2="2572" y1="403.528" y2="403.528"/><line style="stroke:#181818;stroke-width:0.5;" x1="2420" x2="2572" y1="411.528" y2="411.528"/></g><!--class ClassSerializer--><g id="elem_ClassSerializer"><rect codeLine="28" fill="#F1F1F1" height="50" id="ClassSerializer" rx="2.5" ry="2.5" style="stroke:#181818;stroke-width:0.5;" width="158" x="2608" y="369.528"/><ellipse cx="2624" cy="386.528" fill="#ADD1B2" rx="12" ry="12" style="stroke:#181818;stroke-width:1.0;"/><path d="M2626.501,392.6501 Q2625.8857,392.9665 2625.209,393.1247 Q2624.5322,393.2829 2623.7852,393.2829 Q2621.1309,393.2829 2619.7334,391.5339 Q2618.3359,389.7848 2618.3359,386.4801 Q2618.3359,383.1667 2619.7334,381.4176 Q2621.1309,379.6686 2623.7852,379.6686 Q2624.5322,379.6686 2625.2178,379.8268 Q2625.9033,379.985 2626.501,380.3014 L2626.501,383.1842 Q2625.833,382.569 2625.2046,382.2834 Q2624.5762,381.9977 2623.9082,381.9977 Q2622.4844,381.9977 2621.7593,383.1271 Q2621.0342,384.2565 2621.0342,386.4801 Q2621.0342,388.695 2621.7593,389.8244 Q2622.4844,390.9538 2623.9082,390.9538 Q2624.5762,390.9538 2625.2046,390.6681 Q2625.833,390.3825 2626.501,389.7673 Z " fill="#000000"/><text fill="#000000" font-family="sans-serif" font-size="18" lengthAdjust="spacing" textLength="124" x="2639" y="393.3307">ClassSerializer</text><line style="stroke:#181818;stroke-width:0.5;" x1="2609" x2="2765" y1="403.528" y2="403.528"/><line style="stroke:#181818;stroke-width:0.5;" x1="2609" x2="2765" y1="411.528" y2="411.528"/></g><!--class CollectionSerializer--><g id="elem_CollectionSerializer"><rect codeLine="30" fill="#F1F1F1" height="50" id="CollectionSerializer" rx="2.5" ry="2.5" style="stroke:#181818;stroke-width:0.5;" width="199" x="2801.5" y="369.528"/><ellipse cx="2817.5" cy="386.528" fill="#ADD1B2" rx="12" ry="12" style="stroke:#181818;stroke-width:1.0;"/><path d="M2820.001,392.6501 Q2819.3857,392.9665 2818.709,393.1247 Q2818.0322,393.2829 2817.2852,393.2829 Q2814.6309,393.2829 2813.2334,391.5339 Q2811.8359,389.7848 2811.8359,386.4801 Q2811.8359,383.1667 2813.2334,381.4176 Q2814.6309,379.6686 2817.2852,379.6686 Q2818.0322,379.6686 2818.7178,379.8268 Q2819.4033,379.985 2820.001,380.3014 L2820.001,383.1842 Q2819.333,382.569 2818.7046,382.2834 Q2818.0762,381.9977 2817.4082,381.9977 Q2815.9844,381.9977 2815.2593,383.1271 Q2814.5342,384.2565 2814.5342,386.4801 Q2814.5342,388.695 2815.2593,389.8244 Q2815.9844,390.9538 2817.4082,390.9538 Q2818.0762,390.9538 2818.7046,390.6681 Q2819.333,390.3825 2820.001,389.7673 Z " fill="#000000"/><text fill="#000000" font-family="sans-serif" font-size="18" lengthAdjust="spacing" textLength="165" x="2832.5" y="393.3307">CollectionSerializer</text><line style="stroke:#181818;stroke-width:0.5;" x1="2802.5" x2="2999.5" y1="403.528" y2="403.528"/><line style="stroke:#181818;stroke-width:0.5;" x1="2802.5" x2="2999.5" y1="411.528" y2="411.528"/></g><!--class EnumSerializer--><g id="elem_EnumSerializer"><rect codeLine="34" fill="#F1F1F1" height="50" id="EnumSerializer" rx="2.5" ry="2.5" style="stroke:#181818;stroke-width:0.5;" width="162" x="3036" y="369.528"/><ellipse cx="3052" cy="386.528" fill="#ADD1B2" rx="12" ry="12" style="stroke:#181818;stroke-width:1.0;"/><path d="M3054.501,392.6501 Q3053.8857,392.9665 3053.209,393.1247 Q3052.5322,393.2829 3051.7852,393.2829 Q3049.1309,393.2829 3047.7334,391.5339 Q3046.3359,389.7848 3046.3359,386.4801 Q3046.3359,383.1667 3047.7334,381.4176 Q3049.1309,379.6686 3051.7852,379.6686 Q3052.5322,379.6686 3053.2178,379.8268 Q3053.9033,379.985 3054.501,380.3014 L3054.501,383.1842 Q3053.833,382.569 3053.2046,382.2834 Q3052.5762,381.9977 3051.9082,381.9977 Q3050.4844,381.9977 3049.7593,383.1271 Q3049.0342,384.2565 3049.0342,386.4801 Q3049.0342,388.695 3049.7593,389.8244 Q3050.4844,390.9538 3051.9082,390.9538 Q3052.5762,390.9538 3053.2046,390.6681 Q3053.833,390.3825 3054.501,389.7673 Z " fill="#000000"/><text fill="#000000" font-family="sans-serif" font-size="18" lengthAdjust="spacing" textLength="128" x="3067" y="393.3307">EnumSerializer</text><line style="stroke:#181818;stroke-width:0.5;" x1="3037" x2="3197" y1="403.528" y2="403.528"/><line style="stroke:#181818;stroke-width:0.5;" x1="3037" x2="3197" y1="411.528" y2="411.528"/></g><!--class InputStreamSerializer--><g id="elem_InputStreamSerializer"><rect codeLine="38" fill="#F1F1F1" height="50" id="InputStreamSerializer" rx="2.5" ry="2.5" style="stroke:#181818;stroke-width:0.5;" width="219" x="427.5" y="369.528"/><ellipse cx="443.5" cy="386.528" fill="#ADD1B2" rx="12" ry="12" style="stroke:#181818;stroke-width:1.0;"/><path d="M446.001,392.6501 Q445.3857,392.9665 444.709,393.1247 Q444.0322,393.2829 443.2852,393.2829 Q440.6309,393.2829 439.2334,391.5339 Q437.8359,389.7848 437.8359,386.4801 Q437.8359,383.1667 439.2334,381.4176 Q440.6309,379.6686 443.2852,379.6686 Q444.0322,379.6686 444.7178,379.8268 Q445.4033,379.985 446.001,380.3014 L446.001,383.1842 Q445.333,382.569 444.7046,382.2834 Q444.0762,381.9977 443.4082,381.9977 Q441.9844,381.9977 441.2593,383.1271 Q440.5342,384.2565 440.5342,386.4801 Q440.5342,388.695 441.2593,389.8244 Q441.9844,390.9538 443.4082,390.9538 Q444.0762,390.9538 444.7046,390.6681 Q445.333,390.3825 446.001,389.7673 Z " fill="#000000"/><text fill="#000000" font-family="sans-serif" font-size="18" lengthAdjust="spacing" textLength="185" x="458.5" y="393.3307">InputStreamSerializer</text><line style="stroke:#181818;stroke-width:0.5;" x1="428.5" x2="645.5" y1="403.528" y2="403.528"/><line style="stroke:#181818;stroke-width:0.5;" x1="428.5" x2="645.5" y1="411.528" y2="411.528"/></g><!--class IteratorSerializer--><g id="elem_IteratorSerializer"><rect codeLine="40" fill="#F1F1F1" height="50" id="IteratorSerializer" rx="2.5" ry="2.5" style="stroke:#181818;stroke-width:0.5;" width="177" x="681.5" y="369.528"/><ellipse cx="697.5" cy="386.528" fill="#ADD1B2" rx="12" ry="12" style="stroke:#181818;stroke-width:1.0;"/><path d="M700.001,392.6501 Q699.3857,392.9665 698.709,393.1247 Q698.0322,393.2829 697.2852,393.2829 Q694.6309,393.2829 693.2334,391.5339 Q691.8359,389.7848 691.8359,386.4801 Q691.8359,383.1667 693.2334,381.4176 Q694.6309,379.6686 697.2852,379.6686 Q698.0322,379.6686 698.7178,379.8268 Q699.4033,379.985 700.001,380.3014 L700.001,383.1842 Q699.333,382.569 698.7046,382.2834 Q698.0762,381.9977 697.4082,381.9977 Q695.9844,381.9977 695.2593,383.1271 Q694.5342,384.2565 694.5342,386.4801 Q694.5342,388.695 695.2593,389.8244 Q695.9844,390.9538 697.4082,390.9538 Q698.0762,390.9538 698.7046,390.6681 Q699.333,390.3825 700.001,389.7673 Z " fill="#000000"/><text fill="#000000" font-family="sans-serif" font-size="18" lengthAdjust="spacing" textLength="143" x="712.5" y="393.3307">IteratorSerializer</text><line style="stroke:#181818;stroke-width:0.5;" x1="682.5" x2="857.5" y1="403.528" y2="403.528"/><line style="stroke:#181818;stroke-width:0.5;" x1="682.5" x2="857.5" y1="411.528" y2="411.528"/></g><!--class JavaSerializer--><g id="elem_JavaSerializer"><rect codeLine="42" fill="#F1F1F1" height="50" id="JavaSerializer" rx="2.5" ry="2.5" style="stroke:#181818;stroke-width:0.5;" width="148" x="894" y="369.528"/><ellipse cx="910" cy="386.528" fill="#ADD1B2" rx="12" ry="12" style="stroke:#181818;stroke-width:1.0;"/><path d="M912.501,392.6501 Q911.8857,392.9665 911.209,393.1247 Q910.5322,393.2829 909.7852,393.2829 Q907.1309,393.2829 905.7334,391.5339 Q904.3359,389.7848 904.3359,386.4801 Q904.3359,383.1667 905.7334,381.4176 Q907.1309,379.6686 909.7852,379.6686 Q910.5322,379.6686 911.2178,379.8268 Q911.9033,379.985 912.501,380.3014 L912.501,383.1842 Q911.833,382.569 911.2046,382.2834 Q910.5762,381.9977 909.9082,381.9977 Q908.4844,381.9977 907.7593,383.1271 Q907.0342,384.2565 907.0342,386.4801 Q907.0342,388.695 907.7593,389.8244 Q908.4844,390.9538 909.9082,390.9538 Q910.5762,390.9538 911.2046,390.6681 Q911.833,390.3825 912.501,389.7673 Z " fill="#000000"/><text fill="#000000" font-family="sans-serif" font-size="18" lengthAdjust="spacing" textLength="114" x="925" y="393.3307">JavaSerializer</text><line style="stroke:#181818;stroke-width:0.5;" x1="895" x2="1041" y1="403.528" y2="403.528"/><line style="stroke:#181818;stroke-width:0.5;" x1="895" x2="1041" y1="411.528" y2="411.528"/></g><!--class JavaUnsharedSerializer--><g id="elem_JavaUnsharedSerializer"><rect codeLine="44" fill="#F1F1F1" height="50" id="JavaUnsharedSerializer" rx="2.5" ry="2.5" style="stroke:#181818;stroke-width:0.5;" width="229" x="853.5" y="485.528"/><ellipse cx="869.5" cy="502.528" fill="#ADD1B2" rx="12" ry="12" style="stroke:#181818;stroke-width:1.0;"/><path d="M872.001,508.6501 Q871.3857,508.9665 870.709,509.1247 Q870.0322,509.2829 869.2852,509.2829 Q866.6309,509.2829 865.2334,507.5339 Q863.8359,505.7848 863.8359,502.4801 Q863.8359,499.1667 865.2334,497.4176 Q866.6309,495.6686 869.2852,495.6686 Q870.0322,495.6686 870.7178,495.8268 Q871.4033,495.985 872.001,496.3014 L872.001,499.1842 Q871.333,498.569 870.7046,498.2834 Q870.0762,497.9977 869.4082,497.9977 Q867.9844,497.9977 867.2593,499.1271 Q866.5342,500.2565 866.5342,502.4801 Q866.5342,504.695 867.2593,505.8244 Q867.9844,506.9538 869.4082,506.9538 Q870.0762,506.9538 870.7046,506.6681 Q871.333,506.3825 872.001,505.7673 Z " fill="#000000"/><text fill="#000000" font-family="sans-serif" font-size="18" lengthAdjust="spacing" textLength="195" x="884.5" y="509.3307">JavaUnsharedSerializer</text><line style="stroke:#181818;stroke-width:0.5;" x1="854.5" x2="1081.5" y1="519.528" y2="519.528"/><line style="stroke:#181818;stroke-width:0.5;" x1="854.5" x2="1081.5" y1="527.528" y2="527.528"/></g><!--class MapSerializer--><g id="elem_MapSerializer"><rect codeLine="48" fill="#F1F1F1" height="50" id="MapSerializer" rx="2.5" ry="2.5" style="stroke:#181818;stroke-width:0.5;" width="150" x="1077" y="369.528"/><ellipse cx="1093" cy="386.528" fill="#ADD1B2" rx="12" ry="12" style="stroke:#181818;stroke-width:1.0;"/><path d="M1095.501,392.6501 Q1094.8857,392.9665 1094.209,393.1247 Q1093.5322,393.2829 1092.7852,393.2829 Q1090.1309,393.2829 1088.7334,391.5339 Q1087.3359,389.7848 1087.3359,386.4801 Q1087.3359,383.1667 1088.7334,381.4176 Q1090.1309,379.6686 1092.7852,379.6686 Q1093.5322,379.6686 1094.2178,379.8268 Q1094.9033,379.985 1095.501,380.3014 L1095.501,383.1842 Q1094.833,382.569 1094.2046,382.2834 Q1093.5762,381.9977 1092.9082,381.9977 Q1091.4844,381.9977 1090.7593,383.1271 Q1090.0342,384.2565 1090.0342,386.4801 Q1090.0342,388.695 1090.7593,389.8244 Q1091.4844,390.9538 1092.9082,390.9538 Q1093.5762,390.9538 1094.2046,390.6681 Q1094.833,390.3825 1095.501,389.7673 Z " fill="#000000"/><text fill="#000000" font-family="sans-serif" font-size="18" lengthAdjust="spacing" textLength="116" x="1108" y="393.3307">MapSerializer</text><line style="stroke:#181818;stroke-width:0.5;" x1="1078" x2="1226" y1="403.528" y2="403.528"/><line style="stroke:#181818;stroke-width:0.5;" x1="1078" x2="1226" y1="411.528" y2="411.528"/></g><!--class ObjectHandleSerializer--><g id="elem_ObjectHandleSerializer"><rect codeLine="50" fill="#F1F1F1" height="50" id="ObjectHandleSerializer" rx="2.5" ry="2.5" style="stroke:#181818;stroke-width:0.5;" width="229" x="1262.5" y="369.528"/><ellipse cx="1278.5" cy="386.528" fill="#ADD1B2" rx="12" ry="12" style="stroke:#181818;stroke-width:1.0;"/><path d="M1281.001,392.6501 Q1280.3857,392.9665 1279.709,393.1247 Q1279.0322,393.2829 1278.2852,393.2829 Q1275.6309,393.2829 1274.2334,391.5339 Q1272.8359,389.7848 1272.8359,386.4801 Q1272.8359,383.1667 1274.2334,381.4176 Q1275.6309,379.6686 1278.2852,379.6686 Q1279.0322,379.6686 1279.7178,379.8268 Q1280.4033,379.985 1281.001,380.3014 L1281.001,383.1842 Q1280.333,382.569 1279.7046,382.2834 Q1279.0762,381.9977 1278.4082,381.9977 Q1276.9844,381.9977 1276.2593,383.1271 Q1275.5342,384.2565 1275.5342,386.4801 Q1275.5342,388.695 1276.2593,389.8244 Q1276.9844,390.9538 1278.4082,390.9538 Q1279.0762,390.9538 1279.7046,390.6681 Q1280.333,390.3825 1281.001,389.7673 Z " fill="#000000"/><text fill="#000000" font-family="sans-serif" font-size="18" lengthAdjust="spacing" textLength="195" x="1293.5" y="393.3307">ObjectHandleSerializer</text><line style="stroke:#181818;stroke-width:0.5;" x1="1263.5" x2="1490.5" y1="403.528" y2="403.528"/><line style="stroke:#181818;stroke-width:0.5;" x1="1263.5" x2="1490.5" y1="411.528" y2="411.528"/></g><!--class StringValueSerializer--><g id="elem_StringValueSerializer"><rect codeLine="56" fill="#F1F1F1" height="50" id="StringValueSerializer" rx="2.5" ry="2.5" style="stroke:#181818;stroke-width:0.5;" width="212" x="1527" y="369.528"/><ellipse cx="1543" cy="386.528" fill="#ADD1B2" rx="12" ry="12" style="stroke:#181818;stroke-width:1.0;"/><path d="M1545.501,392.6501 Q1544.8857,392.9665 1544.209,393.1247 Q1543.5322,393.2829 1542.7852,393.2829 Q1540.1309,393.2829 1538.7334,391.5339 Q1537.3359,389.7848 1537.3359,386.4801 Q1537.3359,383.1667 1538.7334,381.4176 Q1540.1309,379.6686 1542.7852,379.6686 Q1543.5322,379.6686 1544.2178,379.8268 Q1544.9033,379.985 1545.501,380.3014 L1545.501,383.1842 Q1544.833,382.569 1544.2046,382.2834 Q1543.5762,381.9977 1542.9082,381.9977 Q1541.4844,381.9977 1540.7593,383.1271 Q1540.0342,384.2565 1540.0342,386.4801 Q1540.0342,388.695 1540.7593,389.8244 Q1541.4844,390.9538 1542.9082,390.9538 Q1543.5762,390.9538 1544.2046,390.6681 Q1544.833,390.3825 1545.501,389.7673 Z " fill="#000000"/><text fill="#000000" font-family="sans-serif" font-size="18" lengthAdjust="spacing" textLength="178" x="1558" y="393.3307">StringValueSerializer</text><line style="stroke:#181818;stroke-width:0.5;" x1="1528" x2="1738" y1="403.528" y2="403.528"/><line style="stroke:#181818;stroke-width:0.5;" x1="1528" x2="1738" y1="411.528" y2="411.528"/></g><!--class UnsafeSerializer--><g id="elem_UnsafeSerializer"><rect codeLine="58" fill="#F1F1F1" height="50" id="UnsafeSerializer" rx="2.5" ry="2.5" style="stroke:#181818;stroke-width:0.5;" width="172" x="1774" y="369.528"/><ellipse cx="1790" cy="386.528" fill="#ADD1B2" rx="12" ry="12" style="stroke:#181818;stroke-width:1.0;"/><path d="M1792.501,392.6501 Q1791.8857,392.9665 1791.209,393.1247 Q1790.5322,393.2829 1789.7852,393.2829 Q1787.1309,393.2829 1785.7334,391.5339 Q1784.3359,389.7848 1784.3359,386.4801 Q1784.3359,383.1667 1785.7334,381.4176 Q1787.1309,379.6686 1789.7852,379.6686 Q1790.5322,379.6686 1791.2178,379.8268 Q1791.9033,379.985 1792.501,380.3014 L1792.501,383.1842 Q1791.833,382.569 1791.2046,382.2834 Q1790.5762,381.9977 1789.9082,381.9977 Q1788.4844,381.9977 1787.7593,383.1271 Q1787.0342,384.2565 1787.0342,386.4801 Q1787.0342,388.695 1787.7593,389.8244 Q1788.4844,390.9538 1789.9082,390.9538 Q1790.5762,390.9538 1791.2046,390.6681 Q1791.833,390.3825 1792.501,389.7673 Z " fill="#000000"/><text fill="#000000" font-family="sans-serif" font-size="18" lengthAdjust="spacing" textLength="138" x="1805" y="393.3307">UnsafeSerializer</text><line style="stroke:#181818;stroke-width:0.5;" x1="1775" x2="1945" y1="403.528" y2="403.528"/><line style="stroke:#181818;stroke-width:0.5;" x1="1775" x2="1945" y1="411.528" y2="411.528"/></g><!--class UnsafeUnsharedSerializer--><g id="elem_UnsafeUnsharedSerializer"><rect codeLine="60" fill="#F1F1F1" height="50" id="UnsafeUnsharedSerializer" rx="2.5" ry="2.5" style="stroke:#181818;stroke-width:0.5;" width="253" x="1733.5" y="485.528"/><ellipse cx="1749.5" cy="502.528" fill="#ADD1B2" rx="12" ry="12" style="stroke:#181818;stroke-width:1.0;"/><path d="M1752.001,508.6501 Q1751.3857,508.9665 1750.709,509.1247 Q1750.0322,509.2829 1749.2852,509.2829 Q1746.6309,509.2829 1745.2334,507.5339 Q1743.8359,505.7848 1743.8359,502.4801 Q1743.8359,499.1667 1745.2334,497.4176 Q1746.6309,495.6686 1749.2852,495.6686 Q1750.0322,495.6686 1750.7178,495.8268 Q1751.4033,495.985 1752.001,496.3014 L1752.001,499.1842 Q1751.333,498.569 1750.7046,498.2834 Q1750.0762,497.9977 1749.4082,497.9977 Q1747.9844,497.9977 1747.2593,499.1271 Q1746.5342,500.2565 1746.5342,502.4801 Q1746.5342,504.695 1747.2593,505.8244 Q1747.9844,506.9538 1749.4082,506.9538 Q1750.0762,506.9538 1750.7046,506.6681 Q1751.333,506.3825 1752.001,505.7673 Z " fill="#000000"/><text fill="#000000" font-family="sans-serif" font-size="18" lengthAdjust="spacing" textLength="219" x="1764.5" y="509.3307">UnsafeUnsharedSerializer</text><line style="stroke:#181818;stroke-width:0.5;" x1="1734.5" x2="1985.5" y1="519.528" y2="519.528"/><line style="stroke:#181818;stroke-width:0.5;" x1="1734.5" x2="1985.5" y1="527.528" y2="527.528"/></g><!--reverse link Serializer to AbstractSerializer--><g id="link_Serializer_AbstractSerializer"><path d="M1633,196.938 C1633,219.028 1633,229.018 1633,248.708 " fill="none" id="Serializer-backto-AbstractSerializer" style="stroke:#181818;stroke-width:1.0;stroke-dasharray:7.0,7.0;"/><polygon fill="none" points="1633,178.938,1627,196.938,1639,196.938,1633,178.938" style="stroke:#181818;stroke-width:1.0;"/></g><!--reverse link AbstractSerializer to AnnotationSerializer--><g id="link_AbstractSerializer_AnnotationSerializer"><path d="M1743.1742,303.8527 C1821.0942,324.2327 1914.49,348.658 1992.58,369.088 " fill="none" id="AbstractSerializer-backto-AnnotationSerializer" style="stroke:#181818;stroke-width:1.0;"/><polygon fill="none" points="1725.76,299.298,1741.656,309.6574,1744.6924,298.048,1725.76,299.298" style="stroke:#181818;stroke-width:1.0;"/></g><!--reverse link AbstractSerializer to ArraySerializer--><g id="link_AbstractSerializer_ArraySerializer"><path d="M1743.5962,290.5139 C1857.6062,306.9339 2038.92,334.778 2208,369.528 C2213.78,370.718 2219.73,372.008 2225.71,373.368 " fill="none" id="AbstractSerializer-backto-ArraySerializer" style="stroke:#181818;stroke-width:1.0;"/><polygon fill="none" points="1725.78,287.948,1742.7409,296.4527,1744.4515,284.5752,1725.78,287.948" style="stroke:#181818;stroke-width:1.0;"/></g><!--reverse link AbstractSerializer to BasicSerializer--><g id="link_AbstractSerializer_BasicSerializer"><path d="M1522.326,277.3514 C1317.296,282.6314 828.31,301.568 410,369.528 C404.23,370.468 398.31,371.578 392.36,372.798 " fill="none" id="AbstractSerializer-backto-BasicSerializer" style="stroke:#181818;stroke-width:1.0;"/><polygon fill="none" points="1540.32,276.888,1522.1715,271.3534,1522.4804,283.3494,1540.32,276.888" style="stroke:#181818;stroke-width:1.0;"/></g><!--reverse link ObjectSerializer to BasicSerializer--><g id="link_ObjectSerializer_BasicSerializer"><path d="M251.8727,323.4143 C268.8027,342.5343 277.44,352.268 292.59,369.368 " fill="none" id="ObjectSerializer-backto-BasicSerializer" style="stroke:#181818;stroke-width:1.0;stroke-dasharray:7.0,7.0;"/><polygon fill="none" points="239.94,309.938,247.3806,327.3919,256.3648,319.4367,239.94,309.938" style="stroke:#181818;stroke-width:1.0;"/></g><!--reverse link AbstractSerializer to ByteArraySerializer--><g id="link_AbstractSerializer_ByteArraySerializer"><path d="M1522.2545,277.112 C1295.5045,282.202 713.42,301.178 218,369.528 C212.59,370.278 207.05,371.128 201.48,372.068 " fill="none" id="AbstractSerializer-backto-ByteArraySerializer" style="stroke:#181818;stroke-width:1.0;"/><polygon fill="none" points="1540.25,276.708,1522.1199,271.1135,1522.3892,283.1104,1540.25,276.708" style="stroke:#181818;stroke-width:1.0;"/></g><!--reverse link ObjectSerializer to ByteArraySerializer--><g id="link_ObjectSerializer_ByteArraySerializer"><path d="M166.1273,323.4143 C149.1973,342.5343 140.56,352.268 125.41,369.368 " fill="none" id="ObjectSerializer-backto-ByteArraySerializer" style="stroke:#181818;stroke-width:1.0;stroke-dasharray:7.0,7.0;"/><polygon fill="none" points="178.06,309.938,161.6352,319.4367,170.6194,327.3919,178.06,309.938" style="stroke:#181818;stroke-width:1.0;"/></g><!--reverse link AbstractSerializer to BeanSerializer--><g id="link_AbstractSerializer_BeanSerializer"><path d="M1743.8518,284.1531 C1889.0118,296.8231 2160.1,323.978 2402,369.528 C2407.46,370.558 2413.08,371.718 2418.72,372.968 " fill="none" id="AbstractSerializer-backto-BeanSerializer" style="stroke:#181818;stroke-width:1.0;"/><polygon fill="none" points="1725.92,282.588,1743.3301,290.1304,1744.3735,278.1759,1725.92,282.588" style="stroke:#181818;stroke-width:1.0;"/></g><!--reverse link AbstractSerializer to ClassSerializer--><g id="link_AbstractSerializer_ClassSerializer"><path d="M1743.7222,280.6473 C1915.4822,290.1973 2276.27,314.968 2591,369.528 C2596.42,370.468 2601.98,371.548 2607.57,372.718 " fill="none" id="AbstractSerializer-backto-ClassSerializer" style="stroke:#181818;stroke-width:1.0;"/><polygon fill="none" points="1725.75,279.648,1743.3892,286.638,1744.0553,274.6565,1725.75,279.648" style="stroke:#181818;stroke-width:1.0;"/></g><!--reverse link AbstractSerializer to CollectionSerializer--><g id="link_AbstractSerializer_CollectionSerializer"><path d="M1743.9014,279.6753 C1940.1614,288.5953 2393,313.578 2784,369.528 C2789.64,370.338 2795.43,371.248 2801.25,372.228 " fill="none" id="AbstractSerializer-backto-CollectionSerializer" style="stroke:#181818;stroke-width:1.0;"/><polygon fill="none" points="1725.92,278.858,1743.629,285.6691,1744.1739,273.6814,1725.92,278.858" style="stroke:#181818;stroke-width:1.0;"/></g><!--reverse link AbstractSerializer to EnumSerializer--><g id="link_AbstractSerializer_EnumSerializer"><path d="M1743.9879,276.2098 C1967.7879,279.5898 2535.65,295.158 3018,369.528 C3023.77,370.418 3029.69,371.478 3035.64,372.648 " fill="none" id="AbstractSerializer-backto-EnumSerializer" style="stroke:#181818;stroke-width:1.0;"/><polygon fill="none" points="1725.99,275.938,1743.8973,282.2091,1744.0786,270.2105,1725.99,275.938" style="stroke:#181818;stroke-width:1.0;"/></g><!--reverse link AbstractSerializer to InputStreamSerializer--><g id="link_AbstractSerializer_InputStreamSerializer"><path d="M1522.1854,282.5759 C1349.2354,294.8859 984.22,323.748 664,369.528 C658.34,370.338 652.54,371.228 646.69,372.168 " fill="none" id="AbstractSerializer-backto-InputStreamSerializer" style="stroke:#181818;stroke-width:1.0;"/><polygon fill="none" points="1540.14,281.298,1521.7594,276.5911,1522.6114,288.5608,1540.14,281.298" style="stroke:#181818;stroke-width:1.0;"/></g><!--reverse link AbstractSerializer to IteratorSerializer--><g id="link_AbstractSerializer_IteratorSerializer"><path d="M1522.295,285.3848 C1379.125,299.3448 1113.92,327.848 876,369.528 C870.42,370.508 864.7,371.578 858.94,372.728 " fill="none" id="AbstractSerializer-backto-IteratorSerializer" style="stroke:#181818;stroke-width:1.0;"/><polygon fill="none" points="1540.21,283.638,1521.7127,279.4132,1522.8772,291.3565,1540.21,283.638" style="stroke:#181818;stroke-width:1.0;"/></g><!--reverse link AbstractSerializer to JavaSerializer--><g id="link_AbstractSerializer_JavaSerializer"><path d="M1522.2151,290.0724 C1408.2651,306.0824 1227.39,333.548 1059,369.528 C1053.57,370.688 1047.97,371.968 1042.35,373.308 " fill="none" id="AbstractSerializer-backto-JavaSerializer" style="stroke:#181818;stroke-width:1.0;"/><polygon fill="none" points="1540.04,287.568,1521.3803,284.1308,1523.0499,296.014,1540.04,287.568" style="stroke:#181818;stroke-width:1.0;"/></g><!--reverse link JavaSerializer to JavaUnsharedSerializer--><g id="link_JavaSerializer_JavaUnsharedSerializer"><path d="M968,437.988 C968,457.218 968,465.888 968,485.108 " fill="none" id="JavaSerializer-backto-JavaUnsharedSerializer" style="stroke:#181818;stroke-width:1.0;"/><polygon fill="none" points="968,419.988,962,437.988,974,437.988,968,419.988" style="stroke:#181818;stroke-width:1.0;"/></g><!--reverse link AbstractSerializer to MapSerializer--><g id="link_AbstractSerializer_MapSerializer"><path d="M1522.5098,301.5101 C1443.8598,320.4401 1345.7,344.268 1245,369.528 C1239.26,370.968 1233.32,372.468 1227.35,373.988 " fill="none" id="AbstractSerializer-backto-MapSerializer" style="stroke:#181818;stroke-width:1.0;"/><polygon fill="none" points="1540.01,297.298,1521.1057,295.6767,1523.9138,307.3435,1540.01,297.298" style="stroke:#181818;stroke-width:1.0;"/></g><!--reverse link AbstractSerializer to ObjectHandleSerializer--><g id="link_AbstractSerializer_ObjectHandleSerializer"><path d="M1563.9344,306.9977 C1519.8744,327.3877 1473.7,348.768 1429.66,369.148 " fill="none" id="AbstractSerializer-backto-ObjectHandleSerializer" style="stroke:#181818;stroke-width:1.0;"/><polygon fill="none" points="1580.27,299.438,1561.4145,301.5525,1566.4544,312.4429,1580.27,299.438" style="stroke:#181818;stroke-width:1.0;"/></g><!--reverse link AbstractSerializer to StringValueSerializer--><g id="link_AbstractSerializer_StringValueSerializer"><path d="M1633,317.298 C1633,337.748 1633,348.858 1633,369.298 " fill="none" id="AbstractSerializer-backto-StringValueSerializer" style="stroke:#181818;stroke-width:1.0;"/><polygon fill="none" points="1633,299.298,1627,317.298,1639,317.298,1633,299.298" style="stroke:#181818;stroke-width:1.0;"/></g><!--reverse link AbstractSerializer to UnsafeSerializer--><g id="link_AbstractSerializer_UnsafeSerializer"><path d="M1695.7176,307.766 C1734.7876,328.156 1774.25,348.768 1813.3,369.148 " fill="none" id="AbstractSerializer-backto-UnsafeSerializer" style="stroke:#181818;stroke-width:1.0;"/><polygon fill="none" points="1679.76,299.438,1692.9416,313.0852,1698.4936,302.4468,1679.76,299.438" style="stroke:#181818;stroke-width:1.0;"/></g><!--reverse link UnsafeSerializer to UnsafeUnsharedSerializer--><g id="link_UnsafeSerializer_UnsafeUnsharedSerializer"><path d="M1860,437.988 C1860,457.218 1860,465.888 1860,485.108 " fill="none" id="UnsafeSerializer-backto-UnsafeUnsharedSerializer" style="stroke:#181818;stroke-width:1.0;"/><polygon fill="none" points="1860,419.988,1854,437.988,1866,437.988,1860,419.988" style="stroke:#181818;stroke-width:1.0;"/></g><text fill="#E22D30" font-family="Source Han Serif SC" font-size="28" lengthAdjust="spacing" textLength="94" x="1310" y="579.488">D&#29916;&#21733; &#183;</text><text fill="#E22D30" font-family="JetBrains Mono" font-size="28" lengthAdjust="spacing" textLength="391" x="1411" y="579.096">https://www.diguage.com</text><text fill="#E22D30" font-family="Source Han Serif SC" font-size="28" lengthAdjust="spacing" textLength="72" x="1809" y="579.488">&#183; &#20986;&#21697;</text><!--SRC=[dPLDJzH06CVl_HIJzI2k1X0IG_04YmQ8IE96JrvcssUNWNQcJgUiQ4nyWOYw1EFoaWZnvQ3n00YQA2pAmQ_YJfURNy6fhQNkBgJrqXxc__i_hvbnfWYrCSUMoVGfC901HUoQuZAZ8a_k03hVfpbD4a642P6WzqABO0Am0JnIz7ItA8gCYRYYxmH5ZfcCerFGqsFqTX-Vp5Li0Sepb-k0XZ55UKmTbC-r05JvjjK39yLsm54cYP6mYMECCiV6EXWHFGfYa6EYKlCFjQ1JQAXHNPVLT-Z7LvJ9J0XXE_rTNULokTCW9HUNe5DdLYQZQN-AHTdiC3WE2HF0fkeWHusTVRbsaCrg6g4gtQAA6Z- -go5q5aqpOg0o9mB62vEWYuxWXrXXyXmQA3Y2Ors4vkEki5rrv8ep5xLxSTi0QZAttO99z7Z84eXcPKTWXSD8I3UnuqI1OoonR1CieCA9EMfQgATgXbWGHcC4t1P0ZNPc4SOvdab536A7w8c8UCBDHMl-ng424u9PY1LRNFkHzsRFMzYI1tEojYZdLsLbHNxSEznvstWvwu_rrRDVtog7suyQIn-E6L9zTzFNhktUfBAs5BbuAtlUvsK5owsAD_zScShNDMzz8p2LYq_bt1TlURknFojVLEJcQcFZVNttKsFpYJ8xCgakrB-l_xp_CEhAZ83alJonCtyT0ISTvUc0o65JIJ1FDSwS_qr7CDDK6IVVj32zIzIrWATVKPzB5sc4WXWm30ufAnkXQc_oWWEsqd72hukbQ_mediQfWUlKcS0SZ3RWltvHBwumNQr5ga1Zs4wb3pPOtVr6ua1XSjV0KjT0EYP_onp28br5QgQ4bcvWqqt7gNRZulyW9yofsLFJWhSquNld7yl7DLbzy1i0]--></g></svg>