<svg xmlns="http://www.w3.org/2000/svg" xmlns:xlink="http://www.w3.org/1999/xlink" contentStyleType="text/css" height="863px" preserveAspectRatio="none" style="width:3310px;height:863px;background:#FFFFFF;" version="1.1" viewBox="0 0 3310 863" width="3310px" zoomAndPan="magnify"><defs/><g><text fill="#888888" font-family="sans-serif" font-size="20" lengthAdjust="spacing" textLength="67" x="2947" y="22.1812">D&#29916;&#21733; &#183;</text><text fill="#888888" font-family="JetBrains Mono" font-size="20" lengthAdjust="spacing" textLength="276" x="3020" y="20.4">https://www.diguage.com</text><text fill="#000000" font-family="Source Han Sans SC" font-size="36" font-weight="bold" lengthAdjust="spacing" textLength="376" x="1460" y="79.16">Hessian Serializer &#31867;&#22270;</text><!--class Deserializer--><g id="elem_Deserializer"><rect codeLine="5" fill="#F1F1F1" height="261.9922" id="Deserializer" rx="2.5" ry="2.5" style="stroke:#181818;stroke-width:0.5;" width="579" x="1305.5" y="107.528"/><ellipse cx="1540" cy="124.528" fill="#B4A7E5" rx="12" ry="12" style="stroke:#181818;stroke-width:1.0;"/><path d="M1536.0117,120.4411 L1536.0117,118.1559 L1543.8252,118.1559 L1543.8252,120.4411 L1541.2148,120.4411 L1541.2148,128.9928 L1543.8252,128.9928 L1543.8252,131.278 L1536.0117,131.278 L1536.0117,128.9928 L1538.6221,128.9928 L1538.6221,120.4411 Z " fill="#000000"/><text fill="#000000" font-family="sans-serif" font-size="18" font-style="italic" lengthAdjust="spacing" textLength="101" x="1562" y="131.3307">Deserializer</text><line style="stroke:#181818;stroke-width:0.5;" x1="1306.5" x2="1883.5" y1="141.528" y2="141.528"/><line style="stroke:#181818;stroke-width:0.5;" x1="1306.5" x2="1883.5" y1="149.528" y2="149.528"/><ellipse cx="1316.5" cy="165.6276" fill="#84BE84" rx="3" ry="3" style="stroke:#038048;stroke-width:1.0;"/><text fill="#000000" font-family="sans-serif" font-size="18" lengthAdjust="spacing" textLength="168" x="1326.5" y="170.9303">Class&lt;?&gt; getType()</text><ellipse cx="1316.5" cy="186.8268" fill="#84BE84" rx="3" ry="3" style="stroke:#038048;stroke-width:1.0;"/><text fill="#000000" font-family="sans-serif" font-size="18" lengthAdjust="spacing" textLength="208" x="1326.5" y="192.1296">boolean isReadResolve()</text><ellipse cx="1316.5" cy="208.026" fill="#84BE84" rx="3" ry="3" style="stroke:#038048;stroke-width:1.0;"/><text fill="#000000" font-family="sans-serif" font-size="18" lengthAdjust="spacing" textLength="374" x="1326.5" y="213.3288">Object readObject(AbstractHessianInput in)</text><ellipse cx="1316.5" cy="229.2253" fill="#84BE84" rx="3" ry="3" style="stroke:#038048;stroke-width:1.0;"/><text fill="#000000" font-family="sans-serif" font-size="18" lengthAdjust="spacing" textLength="445" x="1326.5" y="234.528">Object readList(AbstractHessianInput in, int length)</text><ellipse cx="1316.5" cy="250.4245" fill="#84BE84" rx="3" ry="3" style="stroke:#038048;stroke-width:1.0;"/><text fill="#000000" font-family="sans-serif" font-size="18" lengthAdjust="spacing" textLength="505" x="1326.5" y="255.7272">Object readLengthList(AbstractHessianInput in, int length)</text><ellipse cx="1316.5" cy="271.6237" fill="#84BE84" rx="3" ry="3" style="stroke:#038048;stroke-width:1.0;"/><text fill="#000000" font-family="sans-serif" font-size="18" lengthAdjust="spacing" textLength="355" x="1326.5" y="276.9264">Object readMap(AbstractHessianInput in)</text><ellipse cx="1316.5" cy="292.8229" fill="#84BE84" rx="3" ry="3" style="stroke:#038048;stroke-width:1.0;"/><text fill="#000000" font-family="sans-serif" font-size="18" lengthAdjust="spacing" textLength="244" x="1326.5" y="298.1257">Object[] createFields(int len)</text><ellipse cx="1316.5" cy="314.0221" fill="#84BE84" rx="3" ry="3" style="stroke:#038048;stroke-width:1.0;"/><text fill="#000000" font-family="sans-serif" font-size="18" lengthAdjust="spacing" textLength="273" x="1326.5" y="319.3249">Object createField(String name)</text><ellipse cx="1316.5" cy="335.2214" fill="#84BE84" rx="3" ry="3" style="stroke:#038048;stroke-width:1.0;"/><text fill="#000000" font-family="sans-serif" font-size="18" lengthAdjust="spacing" textLength="507" x="1326.5" y="340.5241">Object readObject(AbstractHessianInput in, Object[] fields)</text><ellipse cx="1316.5" cy="356.4206" fill="#84BE84" rx="3" ry="3" style="stroke:#038048;stroke-width:1.0;"/><text fill="#000000" font-family="sans-serif" font-size="18" lengthAdjust="spacing" textLength="552" x="1326.5" y="361.7233">Object readObject(AbstractHessianInput in, String[] fieldNames)</text></g><!--class AbstractDeserializer--><g id="elem_AbstractDeserializer"><rect codeLine="18" fill="#F1F1F1" height="50" id="AbstractDeserializer" rx="2.5" ry="2.5" style="stroke:#181818;stroke-width:0.5;" width="207" x="1491.5" y="429.528"/><ellipse cx="1507.5" cy="446.528" fill="#ADD1B2" rx="12" ry="12" style="stroke:#181818;stroke-width:1.0;"/><path d="M1510.001,452.6501 Q1509.3857,452.9665 1508.709,453.1247 Q1508.0322,453.2829 1507.2852,453.2829 Q1504.6309,453.2829 1503.2334,451.5339 Q1501.8359,449.7848 1501.8359,446.4801 Q1501.8359,443.1667 1503.2334,441.4176 Q1504.6309,439.6686 1507.2852,439.6686 Q1508.0322,439.6686 1508.7178,439.8268 Q1509.4033,439.985 1510.001,440.3014 L1510.001,443.1842 Q1509.333,442.569 1508.7046,442.2834 Q1508.0762,441.9977 1507.4082,441.9977 Q1505.9844,441.9977 1505.2593,443.1271 Q1504.5342,444.2565 1504.5342,446.4801 Q1504.5342,448.695 1505.2593,449.8244 Q1505.9844,450.9538 1507.4082,450.9538 Q1508.0762,450.9538 1508.7046,450.6681 Q1509.333,450.3825 1510.001,449.7673 Z " fill="#000000"/><text fill="#000000" font-family="sans-serif" font-size="18" lengthAdjust="spacing" textLength="173" x="1522.5" y="453.3307">AbstractDeserializer</text><line style="stroke:#181818;stroke-width:0.5;" x1="1492.5" x2="1697.5" y1="463.528" y2="463.528"/><line style="stroke:#181818;stroke-width:0.5;" x1="1492.5" x2="1697.5" y1="471.528" y2="471.528"/></g><!--class AbstractListDeserializer--><g id="elem_AbstractListDeserializer"><rect codeLine="20" fill="#F1F1F1" height="50" id="AbstractListDeserializer" rx="2.5" ry="2.5" style="stroke:#181818;stroke-width:0.5;" width="238" x="482" y="539.528"/><ellipse cx="498" cy="556.528" fill="#ADD1B2" rx="12" ry="12" style="stroke:#181818;stroke-width:1.0;"/><path d="M500.501,562.6501 Q499.8857,562.9665 499.209,563.1247 Q498.5322,563.2829 497.7852,563.2829 Q495.1309,563.2829 493.7334,561.5339 Q492.3359,559.7848 492.3359,556.4801 Q492.3359,553.1667 493.7334,551.4176 Q495.1309,549.6686 497.7852,549.6686 Q498.5322,549.6686 499.2178,549.8268 Q499.9033,549.985 500.501,550.3014 L500.501,553.1842 Q499.833,552.569 499.2046,552.2834 Q498.5762,551.9977 497.9082,551.9977 Q496.4844,551.9977 495.7593,553.1271 Q495.0342,554.2565 495.0342,556.4801 Q495.0342,558.695 495.7593,559.8244 Q496.4844,560.9538 497.9082,560.9538 Q498.5762,560.9538 499.2046,560.6681 Q499.833,560.3825 500.501,559.7673 Z " fill="#000000"/><text fill="#000000" font-family="sans-serif" font-size="18" lengthAdjust="spacing" textLength="204" x="513" y="563.3307">AbstractListDeserializer</text><line style="stroke:#181818;stroke-width:0.5;" x1="483" x2="719" y1="573.528" y2="573.528"/><line style="stroke:#181818;stroke-width:0.5;" x1="483" x2="719" y1="581.528" y2="581.528"/></g><!--class ArrayDeserializer--><g id="elem_ArrayDeserializer"><rect codeLine="21" fill="#F1F1F1" height="50" id="ArrayDeserializer" rx="2.5" ry="2.5" style="stroke:#181818;stroke-width:0.5;" width="180" x="7" y="649.528"/><ellipse cx="23" cy="666.528" fill="#ADD1B2" rx="12" ry="12" style="stroke:#181818;stroke-width:1.0;"/><path d="M25.501,672.6501 Q24.8857,672.9665 24.209,673.1247 Q23.5322,673.2829 22.7852,673.2829 Q20.1309,673.2829 18.7334,671.5339 Q17.3359,669.7848 17.3359,666.4801 Q17.3359,663.1667 18.7334,661.4176 Q20.1309,659.6686 22.7852,659.6686 Q23.5322,659.6686 24.2178,659.8268 Q24.9033,659.985 25.501,660.3014 L25.501,663.1842 Q24.833,662.569 24.2046,662.2834 Q23.5762,661.9977 22.9082,661.9977 Q21.4844,661.9977 20.7593,663.1271 Q20.0342,664.2565 20.0342,666.4801 Q20.0342,668.695 20.7593,669.8244 Q21.4844,670.9538 22.9082,670.9538 Q23.5762,670.9538 24.2046,670.6681 Q24.833,670.3825 25.501,669.7673 Z " fill="#000000"/><text fill="#000000" font-family="sans-serif" font-size="18" lengthAdjust="spacing" textLength="146" x="38" y="673.3307">ArrayDeserializer</text><line style="stroke:#181818;stroke-width:0.5;" x1="8" x2="186" y1="683.528" y2="683.528"/><line style="stroke:#181818;stroke-width:0.5;" x1="8" x2="186" y1="691.528" y2="691.528"/></g><!--class CollectionDeserializer--><g id="elem_CollectionDeserializer"><rect codeLine="22" fill="#F1F1F1" height="50" id="CollectionDeserializer" rx="2.5" ry="2.5" style="stroke:#181818;stroke-width:0.5;" width="221" x="222.5" y="649.528"/><ellipse cx="238.5" cy="666.528" fill="#ADD1B2" rx="12" ry="12" style="stroke:#181818;stroke-width:1.0;"/><path d="M241.001,672.6501 Q240.3857,672.9665 239.709,673.1247 Q239.0322,673.2829 238.2852,673.2829 Q235.6309,673.2829 234.2334,671.5339 Q232.8359,669.7848 232.8359,666.4801 Q232.8359,663.1667 234.2334,661.4176 Q235.6309,659.6686 238.2852,659.6686 Q239.0322,659.6686 239.7178,659.8268 Q240.4033,659.985 241.001,660.3014 L241.001,663.1842 Q240.333,662.569 239.7046,662.2834 Q239.0762,661.9977 238.4082,661.9977 Q236.9844,661.9977 236.2593,663.1271 Q235.5342,664.2565 235.5342,666.4801 Q235.5342,668.695 236.2593,669.8244 Q236.9844,670.9538 238.4082,670.9538 Q239.0762,670.9538 239.7046,670.6681 Q240.333,670.3825 241.001,669.7673 Z " fill="#000000"/><text fill="#000000" font-family="sans-serif" font-size="18" lengthAdjust="spacing" textLength="187" x="253.5" y="673.3307">CollectionDeserializer</text><line style="stroke:#181818;stroke-width:0.5;" x1="223.5" x2="442.5" y1="683.528" y2="683.528"/><line style="stroke:#181818;stroke-width:0.5;" x1="223.5" x2="442.5" y1="691.528" y2="691.528"/></g><!--class EnumerationDeserializer--><g id="elem_EnumerationDeserializer"><rect codeLine="23" fill="#F1F1F1" height="50" id="EnumerationDeserializer" rx="2.5" ry="2.5" style="stroke:#181818;stroke-width:0.5;" width="245" x="478.5" y="649.528"/><ellipse cx="494.5" cy="666.528" fill="#ADD1B2" rx="12" ry="12" style="stroke:#181818;stroke-width:1.0;"/><path d="M497.001,672.6501 Q496.3857,672.9665 495.709,673.1247 Q495.0322,673.2829 494.2852,673.2829 Q491.6309,673.2829 490.2334,671.5339 Q488.8359,669.7848 488.8359,666.4801 Q488.8359,663.1667 490.2334,661.4176 Q491.6309,659.6686 494.2852,659.6686 Q495.0322,659.6686 495.7178,659.8268 Q496.4033,659.985 497.001,660.3014 L497.001,663.1842 Q496.333,662.569 495.7046,662.2834 Q495.0762,661.9977 494.4082,661.9977 Q492.9844,661.9977 492.2593,663.1271 Q491.5342,664.2565 491.5342,666.4801 Q491.5342,668.695 492.2593,669.8244 Q492.9844,670.9538 494.4082,670.9538 Q495.0762,670.9538 495.7046,670.6681 Q496.333,670.3825 497.001,669.7673 Z " fill="#000000"/><text fill="#000000" font-family="sans-serif" font-size="18" lengthAdjust="spacing" textLength="211" x="509.5" y="673.3307">EnumerationDeserializer</text><line style="stroke:#181818;stroke-width:0.5;" x1="479.5" x2="722.5" y1="683.528" y2="683.528"/><line style="stroke:#181818;stroke-width:0.5;" x1="479.5" x2="722.5" y1="691.528" y2="691.528"/></g><!--class IteratorDeserializer--><g id="elem_IteratorDeserializer"><rect codeLine="24" fill="#F1F1F1" height="50" id="IteratorDeserializer" rx="2.5" ry="2.5" style="stroke:#181818;stroke-width:0.5;" width="199" x="758.5" y="649.528"/><ellipse cx="774.5" cy="666.528" fill="#ADD1B2" rx="12" ry="12" style="stroke:#181818;stroke-width:1.0;"/><path d="M777.001,672.6501 Q776.3857,672.9665 775.709,673.1247 Q775.0322,673.2829 774.2852,673.2829 Q771.6309,673.2829 770.2334,671.5339 Q768.8359,669.7848 768.8359,666.4801 Q768.8359,663.1667 770.2334,661.4176 Q771.6309,659.6686 774.2852,659.6686 Q775.0322,659.6686 775.7178,659.8268 Q776.4033,659.985 777.001,660.3014 L777.001,663.1842 Q776.333,662.569 775.7046,662.2834 Q775.0762,661.9977 774.4082,661.9977 Q772.9844,661.9977 772.2593,663.1271 Q771.5342,664.2565 771.5342,666.4801 Q771.5342,668.695 772.2593,669.8244 Q772.9844,670.9538 774.4082,670.9538 Q775.0762,670.9538 775.7046,670.6681 Q776.333,670.3825 777.001,669.7673 Z " fill="#000000"/><text fill="#000000" font-family="sans-serif" font-size="18" lengthAdjust="spacing" textLength="165" x="789.5" y="673.3307">IteratorDeserializer</text><line style="stroke:#181818;stroke-width:0.5;" x1="759.5" x2="956.5" y1="683.528" y2="683.528"/><line style="stroke:#181818;stroke-width:0.5;" x1="759.5" x2="956.5" y1="691.528" y2="691.528"/></g><!--class BasicDeserializer--><g id="elem_BasicDeserializer"><rect codeLine="26" fill="#F1F1F1" height="50" id="BasicDeserializer" rx="2.5" ry="2.5" style="stroke:#181818;stroke-width:0.5;" width="178" x="856" y="539.528"/><ellipse cx="872" cy="556.528" fill="#ADD1B2" rx="12" ry="12" style="stroke:#181818;stroke-width:1.0;"/><path d="M874.501,562.6501 Q873.8857,562.9665 873.209,563.1247 Q872.5322,563.2829 871.7852,563.2829 Q869.1309,563.2829 867.7334,561.5339 Q866.3359,559.7848 866.3359,556.4801 Q866.3359,553.1667 867.7334,551.4176 Q869.1309,549.6686 871.7852,549.6686 Q872.5322,549.6686 873.2178,549.8268 Q873.9033,549.985 874.501,550.3014 L874.501,553.1842 Q873.833,552.569 873.2046,552.2834 Q872.5762,551.9977 871.9082,551.9977 Q870.4844,551.9977 869.7593,553.1271 Q869.0342,554.2565 869.0342,556.4801 Q869.0342,558.695 869.7593,559.8244 Q870.4844,560.9538 871.9082,560.9538 Q872.5762,560.9538 873.2046,560.6681 Q873.833,560.3825 874.501,559.7673 Z " fill="#000000"/><text fill="#000000" font-family="sans-serif" font-size="18" lengthAdjust="spacing" textLength="144" x="887" y="563.3307">BasicDeserializer</text><line style="stroke:#181818;stroke-width:0.5;" x1="857" x2="1033" y1="573.528" y2="573.528"/><line style="stroke:#181818;stroke-width:0.5;" x1="857" x2="1033" y1="581.528" y2="581.528"/></g><!--class EnumDeserializer--><g id="elem_EnumDeserializer"><rect codeLine="27" fill="#F1F1F1" height="50" id="EnumDeserializer" rx="2.5" ry="2.5" style="stroke:#181818;stroke-width:0.5;" width="184" x="1069" y="539.528"/><ellipse cx="1085" cy="556.528" fill="#ADD1B2" rx="12" ry="12" style="stroke:#181818;stroke-width:1.0;"/><path d="M1087.501,562.6501 Q1086.8857,562.9665 1086.209,563.1247 Q1085.5322,563.2829 1084.7852,563.2829 Q1082.1309,563.2829 1080.7334,561.5339 Q1079.3359,559.7848 1079.3359,556.4801 Q1079.3359,553.1667 1080.7334,551.4176 Q1082.1309,549.6686 1084.7852,549.6686 Q1085.5322,549.6686 1086.2178,549.8268 Q1086.9033,549.985 1087.501,550.3014 L1087.501,553.1842 Q1086.833,552.569 1086.2046,552.2834 Q1085.5762,551.9977 1084.9082,551.9977 Q1083.4844,551.9977 1082.7593,553.1271 Q1082.0342,554.2565 1082.0342,556.4801 Q1082.0342,558.695 1082.7593,559.8244 Q1083.4844,560.9538 1084.9082,560.9538 Q1085.5762,560.9538 1086.2046,560.6681 Q1086.833,560.3825 1087.501,559.7673 Z " fill="#000000"/><text fill="#000000" font-family="sans-serif" font-size="18" lengthAdjust="spacing" textLength="150" x="1100" y="563.3307">EnumDeserializer</text><line style="stroke:#181818;stroke-width:0.5;" x1="1070" x2="1252" y1="573.528" y2="573.528"/><line style="stroke:#181818;stroke-width:0.5;" x1="1070" x2="1252" y1="581.528" y2="581.528"/></g><!--class AbstractStringValueDeserializer--><g id="elem_AbstractStringValueDeserializer"><rect codeLine="29" fill="#F1F1F1" height="50" id="AbstractStringValueDeserializer" rx="2.5" ry="2.5" style="stroke:#181818;stroke-width:0.5;" width="306" x="1288" y="539.528"/><ellipse cx="1304" cy="556.528" fill="#A9DCDF" rx="12" ry="12" style="stroke:#181818;stroke-width:1.0;"/><path d="M1303.9141,551.779 L1302.6924,557.1491 L1305.1445,557.1491 Z M1302.332,549.4059 L1305.5049,549.4059 L1309.0469,562.528 L1306.4541,562.528 L1305.6455,559.2848 L1302.1738,559.2848 L1301.3828,562.528 L1298.79,562.528 Z " fill="#000000"/><text fill="#000000" font-family="sans-serif" font-size="18" font-style="italic" lengthAdjust="spacing" textLength="272" x="1319" y="563.3307">AbstractStringValueDeserializer</text><line style="stroke:#181818;stroke-width:0.5;" x1="1289" x2="1593" y1="573.528" y2="573.528"/><line style="stroke:#181818;stroke-width:0.5;" x1="1289" x2="1593" y1="581.528" y2="581.528"/></g><!--class BigDecimalDeserializer--><g id="elem_BigDecimalDeserializer"><rect codeLine="30" fill="#F1F1F1" height="50" id="BigDecimalDeserializer" rx="2.5" ry="2.5" style="stroke:#181818;stroke-width:0.5;" width="230" x="993" y="649.528"/><ellipse cx="1009" cy="666.528" fill="#ADD1B2" rx="12" ry="12" style="stroke:#181818;stroke-width:1.0;"/><path d="M1011.501,672.6501 Q1010.8857,672.9665 1010.209,673.1247 Q1009.5322,673.2829 1008.7852,673.2829 Q1006.1309,673.2829 1004.7334,671.5339 Q1003.3359,669.7848 1003.3359,666.4801 Q1003.3359,663.1667 1004.7334,661.4176 Q1006.1309,659.6686 1008.7852,659.6686 Q1009.5322,659.6686 1010.2178,659.8268 Q1010.9033,659.985 1011.501,660.3014 L1011.501,663.1842 Q1010.833,662.569 1010.2046,662.2834 Q1009.5762,661.9977 1008.9082,661.9977 Q1007.4844,661.9977 1006.7593,663.1271 Q1006.0342,664.2565 1006.0342,666.4801 Q1006.0342,668.695 1006.7593,669.8244 Q1007.4844,670.9538 1008.9082,670.9538 Q1009.5762,670.9538 1010.2046,670.6681 Q1010.833,670.3825 1011.501,669.7673 Z " fill="#000000"/><text fill="#000000" font-family="sans-serif" font-size="18" lengthAdjust="spacing" textLength="196" x="1024" y="673.3307">BigDecimalDeserializer</text><line style="stroke:#181818;stroke-width:0.5;" x1="994" x2="1222" y1="683.528" y2="683.528"/><line style="stroke:#181818;stroke-width:0.5;" x1="994" x2="1222" y1="691.528" y2="691.528"/></g><!--class FileDeserializer--><g id="elem_FileDeserializer"><rect codeLine="31" fill="#F1F1F1" height="50" id="FileDeserializer" rx="2.5" ry="2.5" style="stroke:#181818;stroke-width:0.5;" width="165" x="1258.5" y="649.528"/><ellipse cx="1274.5" cy="666.528" fill="#ADD1B2" rx="12" ry="12" style="stroke:#181818;stroke-width:1.0;"/><path d="M1277.001,672.6501 Q1276.3857,672.9665 1275.709,673.1247 Q1275.0322,673.2829 1274.2852,673.2829 Q1271.6309,673.2829 1270.2334,671.5339 Q1268.8359,669.7848 1268.8359,666.4801 Q1268.8359,663.1667 1270.2334,661.4176 Q1271.6309,659.6686 1274.2852,659.6686 Q1275.0322,659.6686 1275.7178,659.8268 Q1276.4033,659.985 1277.001,660.3014 L1277.001,663.1842 Q1276.333,662.569 1275.7046,662.2834 Q1275.0762,661.9977 1274.4082,661.9977 Q1272.9844,661.9977 1272.2593,663.1271 Q1271.5342,664.2565 1271.5342,666.4801 Q1271.5342,668.695 1272.2593,669.8244 Q1272.9844,670.9538 1274.4082,670.9538 Q1275.0762,670.9538 1275.7046,670.6681 Q1276.333,670.3825 1277.001,669.7673 Z " fill="#000000"/><text fill="#000000" font-family="sans-serif" font-size="18" lengthAdjust="spacing" textLength="131" x="1289.5" y="673.3307">FileDeserializer</text><line style="stroke:#181818;stroke-width:0.5;" x1="1259.5" x2="1422.5" y1="683.528" y2="683.528"/><line style="stroke:#181818;stroke-width:0.5;" x1="1259.5" x2="1422.5" y1="691.528" y2="691.528"/></g><!--class ObjectNameDeserializer--><g id="elem_ObjectNameDeserializer"><rect codeLine="32" fill="#F1F1F1" height="50" id="ObjectNameDeserializer" rx="2.5" ry="2.5" style="stroke:#181818;stroke-width:0.5;" width="241" x="1458.5" y="649.528"/><ellipse cx="1474.5" cy="666.528" fill="#ADD1B2" rx="12" ry="12" style="stroke:#181818;stroke-width:1.0;"/><path d="M1477.001,672.6501 Q1476.3857,672.9665 1475.709,673.1247 Q1475.0322,673.2829 1474.2852,673.2829 Q1471.6309,673.2829 1470.2334,671.5339 Q1468.8359,669.7848 1468.8359,666.4801 Q1468.8359,663.1667 1470.2334,661.4176 Q1471.6309,659.6686 1474.2852,659.6686 Q1475.0322,659.6686 1475.7178,659.8268 Q1476.4033,659.985 1477.001,660.3014 L1477.001,663.1842 Q1476.333,662.569 1475.7046,662.2834 Q1475.0762,661.9977 1474.4082,661.9977 Q1472.9844,661.9977 1472.2593,663.1271 Q1471.5342,664.2565 1471.5342,666.4801 Q1471.5342,668.695 1472.2593,669.8244 Q1472.9844,670.9538 1474.4082,670.9538 Q1475.0762,670.9538 1475.7046,670.6681 Q1476.333,670.3825 1477.001,669.7673 Z " fill="#000000"/><text fill="#000000" font-family="sans-serif" font-size="18" lengthAdjust="spacing" textLength="207" x="1489.5" y="673.3307">ObjectNameDeserializer</text><line style="stroke:#181818;stroke-width:0.5;" x1="1459.5" x2="1698.5" y1="683.528" y2="683.528"/><line style="stroke:#181818;stroke-width:0.5;" x1="1459.5" x2="1698.5" y1="691.528" y2="691.528"/></g><!--class StringValueDeserializer--><g id="elem_StringValueDeserializer"><rect codeLine="33" fill="#F1F1F1" height="50" id="StringValueDeserializer" rx="2.5" ry="2.5" style="stroke:#181818;stroke-width:0.5;" width="234" x="1735" y="649.528"/><ellipse cx="1751" cy="666.528" fill="#ADD1B2" rx="12" ry="12" style="stroke:#181818;stroke-width:1.0;"/><path d="M1753.501,672.6501 Q1752.8857,672.9665 1752.209,673.1247 Q1751.5322,673.2829 1750.7852,673.2829 Q1748.1309,673.2829 1746.7334,671.5339 Q1745.3359,669.7848 1745.3359,666.4801 Q1745.3359,663.1667 1746.7334,661.4176 Q1748.1309,659.6686 1750.7852,659.6686 Q1751.5322,659.6686 1752.2178,659.8268 Q1752.9033,659.985 1753.501,660.3014 L1753.501,663.1842 Q1752.833,662.569 1752.2046,662.2834 Q1751.5762,661.9977 1750.9082,661.9977 Q1749.4844,661.9977 1748.7593,663.1271 Q1748.0342,664.2565 1748.0342,666.4801 Q1748.0342,668.695 1748.7593,669.8244 Q1749.4844,670.9538 1750.9082,670.9538 Q1751.5762,670.9538 1752.2046,670.6681 Q1752.833,670.3825 1753.501,669.7673 Z " fill="#000000"/><text fill="#000000" font-family="sans-serif" font-size="18" lengthAdjust="spacing" textLength="200" x="1766" y="673.3307">StringValueDeserializer</text><line style="stroke:#181818;stroke-width:0.5;" x1="1736" x2="1968" y1="683.528" y2="683.528"/><line style="stroke:#181818;stroke-width:0.5;" x1="1736" x2="1968" y1="691.528" y2="691.528"/></g><!--class InputStreamDeserializer--><g id="elem_InputStreamDeserializer"><rect codeLine="35" fill="#F1F1F1" height="50" id="InputStreamDeserializer" rx="2.5" ry="2.5" style="stroke:#181818;stroke-width:0.5;" width="241" x="1629.5" y="539.528"/><ellipse cx="1645.5" cy="556.528" fill="#ADD1B2" rx="12" ry="12" style="stroke:#181818;stroke-width:1.0;"/><path d="M1648.001,562.6501 Q1647.3857,562.9665 1646.709,563.1247 Q1646.0322,563.2829 1645.2852,563.2829 Q1642.6309,563.2829 1641.2334,561.5339 Q1639.8359,559.7848 1639.8359,556.4801 Q1639.8359,553.1667 1641.2334,551.4176 Q1642.6309,549.6686 1645.2852,549.6686 Q1646.0322,549.6686 1646.7178,549.8268 Q1647.4033,549.985 1648.001,550.3014 L1648.001,553.1842 Q1647.333,552.569 1646.7046,552.2834 Q1646.0762,551.9977 1645.4082,551.9977 Q1643.9844,551.9977 1643.2593,553.1271 Q1642.5342,554.2565 1642.5342,556.4801 Q1642.5342,558.695 1643.2593,559.8244 Q1643.9844,560.9538 1645.4082,560.9538 Q1646.0762,560.9538 1646.7046,560.6681 Q1647.333,560.3825 1648.001,559.7673 Z " fill="#000000"/><text fill="#000000" font-family="sans-serif" font-size="18" lengthAdjust="spacing" textLength="207" x="1660.5" y="563.3307">InputStreamDeserializer</text><line style="stroke:#181818;stroke-width:0.5;" x1="1630.5" x2="1869.5" y1="573.528" y2="573.528"/><line style="stroke:#181818;stroke-width:0.5;" x1="1630.5" x2="1869.5" y1="581.528" y2="581.528"/></g><!--class ObjectDeserializer--><g id="elem_ObjectDeserializer"><rect codeLine="42" fill="#F1F1F1" height="50" id="ObjectDeserializer" rx="2.5" ry="2.5" style="stroke:#181818;stroke-width:0.5;" width="191" x="1905.5" y="539.528"/><ellipse cx="1921.5" cy="556.528" fill="#ADD1B2" rx="12" ry="12" style="stroke:#181818;stroke-width:1.0;"/><path d="M1924.001,562.6501 Q1923.3857,562.9665 1922.709,563.1247 Q1922.0322,563.2829 1921.2852,563.2829 Q1918.6309,563.2829 1917.2334,561.5339 Q1915.8359,559.7848 1915.8359,556.4801 Q1915.8359,553.1667 1917.2334,551.4176 Q1918.6309,549.6686 1921.2852,549.6686 Q1922.0322,549.6686 1922.7178,549.8268 Q1923.4033,549.985 1924.001,550.3014 L1924.001,553.1842 Q1923.333,552.569 1922.7046,552.2834 Q1922.0762,551.9977 1921.4082,551.9977 Q1919.9844,551.9977 1919.2593,553.1271 Q1918.5342,554.2565 1918.5342,556.4801 Q1918.5342,558.695 1919.2593,559.8244 Q1919.9844,560.9538 1921.4082,560.9538 Q1922.0762,560.9538 1922.7046,560.6681 Q1923.333,560.3825 1924.001,559.7673 Z " fill="#000000"/><text fill="#000000" font-family="sans-serif" font-size="18" lengthAdjust="spacing" textLength="157" x="1936.5" y="563.3307">ObjectDeserializer</text><line style="stroke:#181818;stroke-width:0.5;" x1="1906.5" x2="2095.5" y1="573.528" y2="573.528"/><line style="stroke:#181818;stroke-width:0.5;" x1="1906.5" x2="2095.5" y1="581.528" y2="581.528"/></g><!--class ValueDeserializer--><g id="elem_ValueDeserializer"><rect codeLine="45" fill="#F1F1F1" height="50" id="ValueDeserializer" rx="2.5" ry="2.5" style="stroke:#181818;stroke-width:0.5;" width="183" x="2131.5" y="539.528"/><ellipse cx="2147.5" cy="556.528" fill="#A9DCDF" rx="12" ry="12" style="stroke:#181818;stroke-width:1.0;"/><path d="M2147.4141,551.779 L2146.1924,557.1491 L2148.6445,557.1491 Z M2145.832,549.4059 L2149.0049,549.4059 L2152.5469,562.528 L2149.9541,562.528 L2149.1455,559.2848 L2145.6738,559.2848 L2144.8828,562.528 L2142.29,562.528 Z " fill="#000000"/><text fill="#000000" font-family="sans-serif" font-size="18" font-style="italic" lengthAdjust="spacing" textLength="149" x="2162.5" y="563.3307">ValueDeserializer</text><line style="stroke:#181818;stroke-width:0.5;" x1="2132.5" x2="2313.5" y1="573.528" y2="573.528"/><line style="stroke:#181818;stroke-width:0.5;" x1="2132.5" x2="2313.5" y1="581.528" y2="581.528"/></g><!--class AbstractMapDeserializer--><g id="elem_AbstractMapDeserializer"><rect codeLine="47" fill="#F1F1F1" height="50" id="AbstractMapDeserializer" rx="2.5" ry="2.5" style="stroke:#181818;stroke-width:0.5;" width="244" x="2450" y="539.528"/><ellipse cx="2466" cy="556.528" fill="#ADD1B2" rx="12" ry="12" style="stroke:#181818;stroke-width:1.0;"/><path d="M2468.501,562.6501 Q2467.8857,562.9665 2467.209,563.1247 Q2466.5322,563.2829 2465.7852,563.2829 Q2463.1309,563.2829 2461.7334,561.5339 Q2460.3359,559.7848 2460.3359,556.4801 Q2460.3359,553.1667 2461.7334,551.4176 Q2463.1309,549.6686 2465.7852,549.6686 Q2466.5322,549.6686 2467.2178,549.8268 Q2467.9033,549.985 2468.501,550.3014 L2468.501,553.1842 Q2467.833,552.569 2467.2046,552.2834 Q2466.5762,551.9977 2465.9082,551.9977 Q2464.4844,551.9977 2463.7593,553.1271 Q2463.0342,554.2565 2463.0342,556.4801 Q2463.0342,558.695 2463.7593,559.8244 Q2464.4844,560.9538 2465.9082,560.9538 Q2466.5762,560.9538 2467.2046,560.6681 Q2467.833,560.3825 2468.501,559.7673 Z " fill="#000000"/><text fill="#000000" font-family="sans-serif" font-size="18" lengthAdjust="spacing" textLength="210" x="2481" y="563.3307">AbstractMapDeserializer</text><line style="stroke:#181818;stroke-width:0.5;" x1="2451" x2="2693" y1="573.528" y2="573.528"/><line style="stroke:#181818;stroke-width:0.5;" x1="2451" x2="2693" y1="581.528" y2="581.528"/></g><!--class AnnotationDeserializer--><g id="elem_AnnotationDeserializer"><rect codeLine="48" fill="#F1F1F1" height="50" id="AnnotationDeserializer" rx="2.5" ry="2.5" style="stroke:#181818;stroke-width:0.5;" width="231" x="2004.5" y="649.528"/><ellipse cx="2020.5" cy="666.528" fill="#ADD1B2" rx="12" ry="12" style="stroke:#181818;stroke-width:1.0;"/><path d="M2023.001,672.6501 Q2022.3857,672.9665 2021.709,673.1247 Q2021.0322,673.2829 2020.2852,673.2829 Q2017.6309,673.2829 2016.2334,671.5339 Q2014.8359,669.7848 2014.8359,666.4801 Q2014.8359,663.1667 2016.2334,661.4176 Q2017.6309,659.6686 2020.2852,659.6686 Q2021.0322,659.6686 2021.7178,659.8268 Q2022.4033,659.985 2023.001,660.3014 L2023.001,663.1842 Q2022.333,662.569 2021.7046,662.2834 Q2021.0762,661.9977 2020.4082,661.9977 Q2018.9844,661.9977 2018.2593,663.1271 Q2017.5342,664.2565 2017.5342,666.4801 Q2017.5342,668.695 2018.2593,669.8244 Q2018.9844,670.9538 2020.4082,670.9538 Q2021.0762,670.9538 2021.7046,670.6681 Q2022.333,670.3825 2023.001,669.7673 Z " fill="#000000"/><text fill="#000000" font-family="sans-serif" font-size="18" lengthAdjust="spacing" textLength="197" x="2035.5" y="673.3307">AnnotationDeserializer</text><line style="stroke:#181818;stroke-width:0.5;" x1="2005.5" x2="2234.5" y1="683.528" y2="683.528"/><line style="stroke:#181818;stroke-width:0.5;" x1="2005.5" x2="2234.5" y1="691.528" y2="691.528"/></g><!--class BeanDeserializer--><g id="elem_BeanDeserializer"><rect codeLine="49" fill="#F1F1F1" height="50" id="BeanDeserializer" rx="2.5" ry="2.5" style="stroke:#181818;stroke-width:0.5;" width="176" x="2271" y="649.528"/><ellipse cx="2287" cy="666.528" fill="#ADD1B2" rx="12" ry="12" style="stroke:#181818;stroke-width:1.0;"/><path d="M2289.501,672.6501 Q2288.8857,672.9665 2288.209,673.1247 Q2287.5322,673.2829 2286.7852,673.2829 Q2284.1309,673.2829 2282.7334,671.5339 Q2281.3359,669.7848 2281.3359,666.4801 Q2281.3359,663.1667 2282.7334,661.4176 Q2284.1309,659.6686 2286.7852,659.6686 Q2287.5322,659.6686 2288.2178,659.8268 Q2288.9033,659.985 2289.501,660.3014 L2289.501,663.1842 Q2288.833,662.569 2288.2046,662.2834 Q2287.5762,661.9977 2286.9082,661.9977 Q2285.4844,661.9977 2284.7593,663.1271 Q2284.0342,664.2565 2284.0342,666.4801 Q2284.0342,668.695 2284.7593,669.8244 Q2285.4844,670.9538 2286.9082,670.9538 Q2287.5762,670.9538 2288.2046,670.6681 Q2288.833,670.3825 2289.501,669.7673 Z " fill="#000000"/><text fill="#000000" font-family="sans-serif" font-size="18" lengthAdjust="spacing" textLength="142" x="2302" y="673.3307">BeanDeserializer</text><line style="stroke:#181818;stroke-width:0.5;" x1="2272" x2="2446" y1="683.528" y2="683.528"/><line style="stroke:#181818;stroke-width:0.5;" x1="2272" x2="2446" y1="691.528" y2="691.528"/></g><!--class ClassDeserializer--><g id="elem_ClassDeserializer"><rect codeLine="50" fill="#F1F1F1" height="50" id="ClassDeserializer" rx="2.5" ry="2.5" style="stroke:#181818;stroke-width:0.5;" width="180" x="2482" y="649.528"/><ellipse cx="2498" cy="666.528" fill="#ADD1B2" rx="12" ry="12" style="stroke:#181818;stroke-width:1.0;"/><path d="M2500.501,672.6501 Q2499.8857,672.9665 2499.209,673.1247 Q2498.5322,673.2829 2497.7852,673.2829 Q2495.1309,673.2829 2493.7334,671.5339 Q2492.3359,669.7848 2492.3359,666.4801 Q2492.3359,663.1667 2493.7334,661.4176 Q2495.1309,659.6686 2497.7852,659.6686 Q2498.5322,659.6686 2499.2178,659.8268 Q2499.9033,659.985 2500.501,660.3014 L2500.501,663.1842 Q2499.833,662.569 2499.2046,662.2834 Q2498.5762,661.9977 2497.9082,661.9977 Q2496.4844,661.9977 2495.7593,663.1271 Q2495.0342,664.2565 2495.0342,666.4801 Q2495.0342,668.695 2495.7593,669.8244 Q2496.4844,670.9538 2497.9082,670.9538 Q2498.5762,670.9538 2499.2046,670.6681 Q2499.833,670.3825 2500.501,669.7673 Z " fill="#000000"/><text fill="#000000" font-family="sans-serif" font-size="18" lengthAdjust="spacing" textLength="146" x="2513" y="673.3307">ClassDeserializer</text><line style="stroke:#181818;stroke-width:0.5;" x1="2483" x2="2661" y1="683.528" y2="683.528"/><line style="stroke:#181818;stroke-width:0.5;" x1="2483" x2="2661" y1="691.528" y2="691.528"/></g><!--class JavaDeserializer--><g id="elem_JavaDeserializer"><rect codeLine="51" fill="#F1F1F1" height="50" id="JavaDeserializer" rx="2.5" ry="2.5" style="stroke:#181818;stroke-width:0.5;" width="170" x="2697" y="649.528"/><ellipse cx="2713" cy="666.528" fill="#ADD1B2" rx="12" ry="12" style="stroke:#181818;stroke-width:1.0;"/><path d="M2715.501,672.6501 Q2714.8857,672.9665 2714.209,673.1247 Q2713.5322,673.2829 2712.7852,673.2829 Q2710.1309,673.2829 2708.7334,671.5339 Q2707.3359,669.7848 2707.3359,666.4801 Q2707.3359,663.1667 2708.7334,661.4176 Q2710.1309,659.6686 2712.7852,659.6686 Q2713.5322,659.6686 2714.2178,659.8268 Q2714.9033,659.985 2715.501,660.3014 L2715.501,663.1842 Q2714.833,662.569 2714.2046,662.2834 Q2713.5762,661.9977 2712.9082,661.9977 Q2711.4844,661.9977 2710.7593,663.1271 Q2710.0342,664.2565 2710.0342,666.4801 Q2710.0342,668.695 2710.7593,669.8244 Q2711.4844,670.9538 2712.9082,670.9538 Q2713.5762,670.9538 2714.2046,670.6681 Q2714.833,670.3825 2715.501,669.7673 Z " fill="#000000"/><text fill="#000000" font-family="sans-serif" font-size="18" lengthAdjust="spacing" textLength="136" x="2728" y="673.3307">JavaDeserializer</text><line style="stroke:#181818;stroke-width:0.5;" x1="2698" x2="2866" y1="683.528" y2="683.528"/><line style="stroke:#181818;stroke-width:0.5;" x1="2698" x2="2866" y1="691.528" y2="691.528"/></g><!--class StackTraceElementDeserializer--><g id="elem_StackTraceElementDeserializer"><rect codeLine="52" fill="#F1F1F1" height="50" id="StackTraceElementDeserializer" rx="2.5" ry="2.5" style="stroke:#181818;stroke-width:0.5;" width="299" x="2632.5" y="759.528"/><ellipse cx="2648.5" cy="776.528" fill="#ADD1B2" rx="12" ry="12" style="stroke:#181818;stroke-width:1.0;"/><path d="M2651.001,782.6501 Q2650.3857,782.9665 2649.709,783.1247 Q2649.0322,783.2829 2648.2852,783.2829 Q2645.6309,783.2829 2644.2334,781.5339 Q2642.8359,779.7848 2642.8359,776.4801 Q2642.8359,773.1667 2644.2334,771.4176 Q2645.6309,769.6686 2648.2852,769.6686 Q2649.0322,769.6686 2649.7178,769.8268 Q2650.4033,769.985 2651.001,770.3014 L2651.001,773.1842 Q2650.333,772.569 2649.7046,772.2834 Q2649.0762,771.9977 2648.4082,771.9977 Q2646.9844,771.9977 2646.2593,773.1271 Q2645.5342,774.2565 2645.5342,776.4801 Q2645.5342,778.695 2646.2593,779.8244 Q2646.9844,780.9538 2648.4082,780.9538 Q2649.0762,780.9538 2649.7046,780.6681 Q2650.333,780.3825 2651.001,779.7673 Z " fill="#000000"/><text fill="#000000" font-family="sans-serif" font-size="18" lengthAdjust="spacing" textLength="265" x="2663.5" y="783.3307">StackTraceElementDeserializer</text><line style="stroke:#181818;stroke-width:0.5;" x1="2633.5" x2="2930.5" y1="793.528" y2="793.528"/><line style="stroke:#181818;stroke-width:0.5;" x1="2633.5" x2="2930.5" y1="801.528" y2="801.528"/></g><!--class MapDeserializer--><g id="elem_MapDeserializer"><rect codeLine="53" fill="#F1F1F1" height="50" id="MapDeserializer" rx="2.5" ry="2.5" style="stroke:#181818;stroke-width:0.5;" width="172" x="2902" y="649.528"/><ellipse cx="2918" cy="666.528" fill="#ADD1B2" rx="12" ry="12" style="stroke:#181818;stroke-width:1.0;"/><path d="M2920.501,672.6501 Q2919.8857,672.9665 2919.209,673.1247 Q2918.5322,673.2829 2917.7852,673.2829 Q2915.1309,673.2829 2913.7334,671.5339 Q2912.3359,669.7848 2912.3359,666.4801 Q2912.3359,663.1667 2913.7334,661.4176 Q2915.1309,659.6686 2917.7852,659.6686 Q2918.5322,659.6686 2919.2178,659.8268 Q2919.9033,659.985 2920.501,660.3014 L2920.501,663.1842 Q2919.833,662.569 2919.2046,662.2834 Q2918.5762,661.9977 2917.9082,661.9977 Q2916.4844,661.9977 2915.7593,663.1271 Q2915.0342,664.2565 2915.0342,666.4801 Q2915.0342,668.695 2915.7593,669.8244 Q2916.4844,670.9538 2917.9082,670.9538 Q2918.5762,670.9538 2919.2046,670.6681 Q2919.833,670.3825 2920.501,669.7673 Z " fill="#000000"/><text fill="#000000" font-family="sans-serif" font-size="18" lengthAdjust="spacing" textLength="138" x="2933" y="673.3307">MapDeserializer</text><line style="stroke:#181818;stroke-width:0.5;" x1="2903" x2="3073" y1="683.528" y2="683.528"/><line style="stroke:#181818;stroke-width:0.5;" x1="2903" x2="3073" y1="691.528" y2="691.528"/></g><!--class UnsafeDeserializer--><g id="elem_UnsafeDeserializer"><rect codeLine="54" fill="#F1F1F1" height="50" id="UnsafeDeserializer" rx="2.5" ry="2.5" style="stroke:#181818;stroke-width:0.5;" width="194" x="3109" y="649.528"/><ellipse cx="3125" cy="666.528" fill="#ADD1B2" rx="12" ry="12" style="stroke:#181818;stroke-width:1.0;"/><path d="M3127.501,672.6501 Q3126.8857,672.9665 3126.209,673.1247 Q3125.5322,673.2829 3124.7852,673.2829 Q3122.1309,673.2829 3120.7334,671.5339 Q3119.3359,669.7848 3119.3359,666.4801 Q3119.3359,663.1667 3120.7334,661.4176 Q3122.1309,659.6686 3124.7852,659.6686 Q3125.5322,659.6686 3126.2178,659.8268 Q3126.9033,659.985 3127.501,660.3014 L3127.501,663.1842 Q3126.833,662.569 3126.2046,662.2834 Q3125.5762,661.9977 3124.9082,661.9977 Q3123.4844,661.9977 3122.7593,663.1271 Q3122.0342,664.2565 3122.0342,666.4801 Q3122.0342,668.695 3122.7593,669.8244 Q3123.4844,670.9538 3124.9082,670.9538 Q3125.5762,670.9538 3126.2046,670.6681 Q3126.833,670.3825 3127.501,669.7673 Z " fill="#000000"/><text fill="#000000" font-family="sans-serif" font-size="18" lengthAdjust="spacing" textLength="160" x="3140" y="673.3307">UnsafeDeserializer</text><line style="stroke:#181818;stroke-width:0.5;" x1="3110" x2="3302" y1="683.528" y2="683.528"/><line style="stroke:#181818;stroke-width:0.5;" x1="3110" x2="3302" y1="691.528" y2="691.528"/></g><!--reverse link Deserializer to AbstractDeserializer--><g id="link_Deserializer_AbstractDeserializer"><path d="M1595,387.868 C1595,410.558 1595,413.778 1595,429.168 " fill="none" id="Deserializer-backto-AbstractDeserializer" style="stroke:#181818;stroke-width:1.0;stroke-dasharray:7.0,7.0;"/><polygon fill="none" points="1595,369.868,1589,387.868,1601,387.868,1595,369.868" style="stroke:#181818;stroke-width:1.0;"/></g><!--reverse link AbstractDeserializer to AbstractListDeserializer--><g id="link_AbstractDeserializer_AbstractListDeserializer"><path d="M1473.5453,468.7224 C1287.8253,488.9024 917.11,529.178 720.45,550.548 " fill="none" id="AbstractDeserializer-backto-AbstractListDeserializer" style="stroke:#181818;stroke-width:1.0;"/><polygon fill="none" points="1491.44,466.778,1472.8972,462.7575,1474.1935,474.6873,1491.44,466.778" style="stroke:#181818;stroke-width:1.0;"/></g><!--reverse link AbstractListDeserializer to ArrayDeserializer--><g id="link_AbstractListDeserializer_ArrayDeserializer"><path d="M466.796,593.6556 C387.886,610.2656 298.92,629.128 205,649.528 C199.28,650.768 193.38,652.058 187.44,653.358 " fill="none" id="AbstractListDeserializer-backto-ArrayDeserializer" style="stroke:#181818;stroke-width:1.0;"/><polygon fill="none" points="484.41,589.948,465.5601,587.7843,468.0319,599.527,484.41,589.948" style="stroke:#181818;stroke-width:1.0;"/></g><!--reverse link AbstractListDeserializer to CollectionDeserializer--><g id="link_AbstractListDeserializer_CollectionDeserializer"><path d="M523.8251,596.627 C479.9851,614.297 437.62,631.368 393.72,649.058 " fill="none" id="AbstractListDeserializer-backto-CollectionDeserializer" style="stroke:#181818;stroke-width:1.0;"/><polygon fill="none" points="540.52,589.898,521.5821,591.062,526.0681,602.192,540.52,589.898" style="stroke:#181818;stroke-width:1.0;"/></g><!--reverse link AbstractListDeserializer to EnumerationDeserializer--><g id="link_AbstractListDeserializer_EnumerationDeserializer"><path d="M601,607.768 C601,625.548 601,631.608 601,649.368 " fill="none" id="AbstractListDeserializer-backto-EnumerationDeserializer" style="stroke:#181818;stroke-width:1.0;"/><polygon fill="none" points="601,589.768,595,607.768,607,607.768,601,589.768" style="stroke:#181818;stroke-width:1.0;"/></g><!--reverse link AbstractListDeserializer to IteratorDeserializer--><g id="link_AbstractListDeserializer_IteratorDeserializer"><path d="M675.5938,596.8726 C717.6338,614.5426 757.67,631.368 799.77,649.058 " fill="none" id="AbstractListDeserializer-backto-IteratorDeserializer" style="stroke:#181818;stroke-width:1.0;"/><polygon fill="none" points="659,589.898,673.2689,602.4039,677.9187,591.3413,659,589.898" style="stroke:#181818;stroke-width:1.0;"/></g><!--reverse link AbstractDeserializer to BasicDeserializer--><g id="link_AbstractDeserializer_BasicDeserializer"><path d="M1473.2689,471.848 C1363.5289,486.988 1203.44,510.538 1051,539.528 C1045.53,540.568 1039.92,541.688 1034.26,542.848 " fill="none" id="AbstractDeserializer-backto-BasicDeserializer" style="stroke:#181818;stroke-width:1.0;"/><polygon fill="none" points="1491.1,469.388,1472.4489,465.9043,1474.0889,477.7917,1491.1,469.388" style="stroke:#181818;stroke-width:1.0;"/></g><!--reverse link AbstractDeserializer to EnumDeserializer--><g id="link_AbstractDeserializer_EnumDeserializer"><path d="M1479.3227,484.3145 C1406.3027,502.4845 1324.82,522.758 1253.27,540.568 " fill="none" id="AbstractDeserializer-backto-EnumDeserializer" style="stroke:#181818;stroke-width:1.0;"/><polygon fill="none" points="1496.79,479.968,1477.8738,478.4921,1480.7715,490.1369,1496.79,479.968" style="stroke:#181818;stroke-width:1.0;"/></g><!--reverse link AbstractDeserializer to AbstractStringValueDeserializer--><g id="link_AbstractDeserializer_AbstractStringValueDeserializer"><path d="M1545.7023,490.1025 C1520.4323,507.8225 1501.02,521.438 1475.71,539.188 " fill="none" id="AbstractDeserializer-backto-AbstractStringValueDeserializer" style="stroke:#181818;stroke-width:1.0;"/><polygon fill="none" points="1560.44,479.768,1542.2575,485.1899,1549.1471,495.015,1560.44,479.768" style="stroke:#181818;stroke-width:1.0;"/></g><!--reverse link AbstractStringValueDeserializer to BigDecimalDeserializer--><g id="link_AbstractStringValueDeserializer_BigDecimalDeserializer"><path d="M1348.7281,595.4513 C1294.2481,613.1213 1238,631.368 1183.45,649.058 " fill="none" id="AbstractStringValueDeserializer-backto-BigDecimalDeserializer" style="stroke:#181818;stroke-width:1.0;"/><polygon fill="none" points="1365.85,589.898,1346.877,589.744,1350.5792,601.1586,1365.85,589.898" style="stroke:#181818;stroke-width:1.0;"/></g><!--reverse link AbstractStringValueDeserializer to FileDeserializer--><g id="link_AbstractStringValueDeserializer_FileDeserializer"><path d="M1406.3278,602.9731 C1389.8578,620.7531 1379.82,631.608 1363.37,649.368 " fill="none" id="AbstractStringValueDeserializer-backto-FileDeserializer" style="stroke:#181818;stroke-width:1.0;"/><polygon fill="none" points="1418.56,589.768,1401.9261,598.8957,1410.7295,607.0505,1418.56,589.768" style="stroke:#181818;stroke-width:1.0;"/></g><!--reverse link AbstractStringValueDeserializer to ObjectNameDeserializer--><g id="link_AbstractStringValueDeserializer_ObjectNameDeserializer"><path d="M1486.1477,600.8582 C1508.8777,618.6382 1525.43,631.608 1548.13,649.368 " fill="none" id="AbstractStringValueDeserializer-backto-ObjectNameDeserializer" style="stroke:#181818;stroke-width:1.0;"/><polygon fill="none" points="1471.97,589.768,1482.451,605.5841,1489.8445,596.1323,1471.97,589.768" style="stroke:#181818;stroke-width:1.0;"/></g><!--reverse link AbstractStringValueDeserializer to StringValueDeserializer--><g id="link_AbstractStringValueDeserializer_StringValueDeserializer"><path d="M1551.4191,594.5423 C1618.6691,612.2123 1691.74,631.418 1758.99,649.088 " fill="none" id="AbstractStringValueDeserializer-backto-StringValueDeserializer" style="stroke:#181818;stroke-width:1.0;"/><polygon fill="none" points="1534.01,589.968,1549.8943,600.3453,1552.9438,588.7392,1534.01,589.968" style="stroke:#181818;stroke-width:1.0;"/></g><!--reverse link AbstractDeserializer to InputStreamDeserializer--><g id="link_AbstractDeserializer_InputStreamDeserializer"><path d="M1644.5582,490.0587 C1669.9882,507.7787 1689.59,521.438 1715.06,539.188 " fill="none" id="AbstractDeserializer-backto-InputStreamDeserializer" style="stroke:#181818;stroke-width:1.0;"/><polygon fill="none" points="1629.79,479.768,1641.128,494.9815,1647.9885,485.136,1629.79,479.768" style="stroke:#181818;stroke-width:1.0;"/></g><!--reverse link AbstractDeserializer to ObjectDeserializer--><g id="link_AbstractDeserializer_ObjectDeserializer"><path d="M1704.2653,484.5944 C1770.7053,502.2644 1842.69,521.418 1909.12,539.088 " fill="none" id="AbstractDeserializer-backto-ObjectDeserializer" style="stroke:#181818;stroke-width:1.0;"/><polygon fill="none" points="1686.87,479.968,1702.7232,490.3928,1705.8074,478.7959,1686.87,479.968" style="stroke:#181818;stroke-width:1.0;"/></g><!--reverse link AbstractDeserializer to ValueDeserializer--><g id="link_AbstractDeserializer_ValueDeserializer"><path d="M1716.504,473.2071 C1821.484,488.8271 1970.55,512.148 2114,539.528 C2119.61,540.598 2125.38,541.748 2131.19,542.928 " fill="none" id="AbstractDeserializer-backto-ValueDeserializer" style="stroke:#181818;stroke-width:1.0;"/><polygon fill="none" points="1698.7,470.558,1715.621,479.1417,1717.387,467.2724,1698.7,470.558" style="stroke:#181818;stroke-width:1.0;"/></g><!--reverse link AbstractDeserializer to AbstractMapDeserializer--><g id="link_AbstractDeserializer_AbstractMapDeserializer"><path d="M1716.5211,468.9651 C1898.2311,489.0451 2255.52,528.548 2449.66,550.008 " fill="none" id="AbstractDeserializer-backto-AbstractMapDeserializer" style="stroke:#181818;stroke-width:1.0;"/><polygon fill="none" points="1698.63,466.988,1715.8621,474.9288,1717.1801,463.0014,1698.63,466.988" style="stroke:#181818;stroke-width:1.0;"/></g><!--reverse link AbstractMapDeserializer to AnnotationDeserializer--><g id="link_AbstractMapDeserializer_AnnotationDeserializer"><path d="M2452.2127,594.1507 C2378.2527,611.8207 2296.25,631.418 2222.29,649.088 " fill="none" id="AbstractMapDeserializer-backto-AnnotationDeserializer" style="stroke:#181818;stroke-width:1.0;"/><polygon fill="none" points="2469.72,589.968,2450.8185,588.315,2453.607,599.9865,2469.72,589.968" style="stroke:#181818;stroke-width:1.0;"/></g><!--reverse link AbstractMapDeserializer to BeanDeserializer--><g id="link_AbstractMapDeserializer_BeanDeserializer"><path d="M2507.8767,598.0399 C2473.0367,615.7099 2442.15,631.368 2407.26,649.058 " fill="none" id="AbstractMapDeserializer-backto-BeanDeserializer" style="stroke:#181818;stroke-width:1.0;"/><polygon fill="none" points="2523.93,589.898,2505.1627,592.6887,2510.5906,603.391,2523.93,589.898" style="stroke:#181818;stroke-width:1.0;"/></g><!--reverse link AbstractMapDeserializer to ClassDeserializer--><g id="link_AbstractMapDeserializer_ClassDeserializer"><path d="M2572,607.768 C2572,625.548 2572,631.608 2572,649.368 " fill="none" id="AbstractMapDeserializer-backto-ClassDeserializer" style="stroke:#181818;stroke-width:1.0;"/><polygon fill="none" points="2572,589.768,2566,607.768,2578,607.768,2572,589.768" style="stroke:#181818;stroke-width:1.0;"/></g><!--reverse link AbstractMapDeserializer to JavaDeserializer--><g id="link_AbstractMapDeserializer_JavaDeserializer"><path d="M2635.3973,598.1299 C2669.7573,615.7999 2700.02,631.368 2734.42,649.058 " fill="none" id="AbstractMapDeserializer-backto-JavaDeserializer" style="stroke:#181818;stroke-width:1.0;"/><polygon fill="none" points="2619.39,589.898,2632.6534,603.4657,2638.1413,592.7942,2619.39,589.898" style="stroke:#181818;stroke-width:1.0;"/></g><!--reverse link JavaDeserializer to StackTraceElementDeserializer--><g id="link_JavaDeserializer_StackTraceElementDeserializer"><path d="M2782,717.768 C2782,735.548 2782,741.608 2782,759.368 " fill="none" id="JavaDeserializer-backto-StackTraceElementDeserializer" style="stroke:#181818;stroke-width:1.0;"/><polygon fill="none" points="2782,699.768,2776,717.768,2788,717.768,2782,699.768" style="stroke:#181818;stroke-width:1.0;"/></g><!--reverse link AbstractMapDeserializer to MapDeserializer--><g id="link_AbstractMapDeserializer_MapDeserializer"><path d="M2683.5621,594.4923 C2754.2621,612.8523 2832.92,633.268 2901.66,651.118 " fill="none" id="AbstractMapDeserializer-backto-MapDeserializer" style="stroke:#181818;stroke-width:1.0;"/><polygon fill="none" points="2666.14,589.968,2682.054,600.2997,2685.0702,588.685,2666.14,589.968" style="stroke:#181818;stroke-width:1.0;"/></g><!--reverse link AbstractMapDeserializer to UnsafeDeserializer--><g id="link_AbstractMapDeserializer_UnsafeDeserializer"><path d="M2712.2165,586.3271 C2817.7765,602.3371 2956.35,624.308 3092,649.528 C3097.47,650.548 3103.08,651.618 3108.73,652.728 " fill="none" id="AbstractMapDeserializer-backto-UnsafeDeserializer" style="stroke:#181818;stroke-width:1.0;"/><polygon fill="none" points="2694.42,583.628,2711.3168,592.2593,2713.1162,580.395,2694.42,583.628" style="stroke:#181818;stroke-width:1.0;"/></g><text fill="#E22D30" font-family="Source Han Serif SC" font-size="28" lengthAdjust="spacing" textLength="94" x="1362.5" y="847.756">D&#29916;&#21733; &#183;</text><text fill="#E22D30" font-family="JetBrains Mono" font-size="28" lengthAdjust="spacing" textLength="391" x="1463.5" y="847.364">https://www.diguage.com</text><text fill="#E22D30" font-family="Source Han Serif SC" font-size="28" lengthAdjust="spacing" textLength="72" x="1861.5" y="847.756">&#183; &#20986;&#21697;</text><!--SRC=[fPR1RjD048RlVefLE112rPPMGXL2e2PfrLIqHNNXWZXCrkDqwNhNxAuR2kB0YGVe4Quy02Saa3ZmBb5VWt7i98sJjB5xY1Hv_- -VySpihksPK34OYAJcPnYm04D8fDlLoldY8x97MvujI9nm4iU2pSSpWbE40CrOiR4-emYrTjSLMpSeMbfgm-xXnaQmkRuucKE8aFawCHpP7YZcWxBCRyq0Ydpdwj68S1umoMHf92_YWLRQni0n6DFxw9e61AMMBdfPfLZxwlBxuF87-_UBrMgdpiNsoTfQlzzV3KGlWHwkSXtLQfutV5dMQEoXjI9F02HLqB2hdty6t_us6fud5AKRKbJMHZiHVF8OUyXQ4gnz-lmPww4xkOYn_c3ukAkrH38KzfWoEaQhvVbexQZx3hbZXXQol_NjhdK6kClJwAWuSKoe6VaBOHUAL-Zdc4JLSwUpuF1nPVm0ucLoVFEMSPBJE0YKWQtdZbDsrmHrtncXUanH7qjMPcKICHp6AirdiKTyEahayTdpUDfFDiAc6YwYM6A4ojcfGIWoQPMdEFpWK0NpJKUiCN1n8rHqpK7QovBUKsXLXTvHIOG6gk8TbyBQb6Dpk0bMyB9rIXDUdl4WVygcEvJr_ZN81Cicq1IzDd8HWRoHN10XDzaL4k-0PwETZkmTJ9QjmIANqGYa6ueq22NwSZzZ3vfqGcux2j1D77PKgAjPjBGYHS9f4gkRL2SFjHEXuCDTLDtbACutOdMBb-c5YRGdorbS7whIWJEiGmq0nR4qxh-NRReEbkSAExha7YwSr7IjbJwe5Ntkt7vW5fn7XmSrgG8s_CIemEt3ELJ0V0Vyx8JMSIUxxkPw5Crp-BQIpW_vIba8iHJePL-HItxffSk3hxy7br_-0m00]--></g></svg>