<svg xmlns="http://www.w3.org/2000/svg" xmlns:xlink="http://www.w3.org/1999/xlink" contentStyleType="text/css" height="809px" preserveAspectRatio="none" style="width:671px;height:809px;background:#FFFFFF;" version="1.1" viewBox="0 0 671 809" width="671px" zoomAndPan="magnify"><defs/><g><text fill="#888888" font-family="sans-serif" font-size="20" lengthAdjust="spacing" textLength="67" x="308" y="22.1812">D&#29916;&#21733; &#183;</text><text fill="#888888" font-family="JetBrains Mono" font-size="20" lengthAdjust="spacing" textLength="276" x="381" y="20.4">https://www.diguage.com</text><text fill="#000000" font-family="Source Han Sans SC" font-size="36" font-weight="bold" lengthAdjust="spacing" textLength="584" x="36.5" y="79.16">Hessian AbstractHessianInput &#31867;&#22270;</text><!--class AbstractHessianInput--><g id="elem_AbstractHessianInput"><rect codeLine="6" fill="#F1F1F1" height="537.582" id="AbstractHessianInput" rx="2.5" ry="2.5" style="stroke:#181818;stroke-width:0.5;" width="423" x="7" y="107.528"/><ellipse cx="122" cy="124.528" fill="#A9DCDF" rx="12" ry="12" style="stroke:#181818;stroke-width:1.0;"/><path d="M121.9141,119.779 L120.6924,125.1491 L123.1445,125.1491 Z M120.332,117.4059 L123.5049,117.4059 L127.0469,130.528 L124.4541,130.528 L123.6455,127.2848 L120.1738,127.2848 L119.3828,130.528 L116.79,130.528 Z " fill="#000000"/><text fill="#000000" font-family="sans-serif" font-size="18" font-style="italic" lengthAdjust="spacing" textLength="184" x="144" y="131.3307">AbstractHessianInput</text><line style="stroke:#181818;stroke-width:0.5;" x1="8" x2="429" y1="141.528" y2="141.528"/><line style="stroke:#181818;stroke-width:0.5;" x1="8" x2="429" y1="149.528" y2="149.528"/><ellipse cx="18" cy="165.6276" fill="#84BE84" rx="3" ry="3" style="stroke:#038048;stroke-width:1.0;"/><text fill="#000000" font-family="sans-serif" font-size="18" lengthAdjust="spacing" textLength="396" x="28" y="170.9303">void setSerializerFactory(SerializerFactory ser)</text><ellipse cx="18" cy="186.8268" fill="#84BE84" rx="3" ry="3" style="stroke:#038048;stroke-width:1.0;"/><text fill="#000000" font-family="sans-serif" font-size="18" font-style="italic" lengthAdjust="spacing" textLength="193" x="28" y="192.1296">boolean readBoolean()</text><ellipse cx="18" cy="208.026" fill="#84BE84" rx="3" ry="3" style="stroke:#038048;stroke-width:1.0;"/><text fill="#000000" font-family="sans-serif" font-size="18" font-style="italic" lengthAdjust="spacing" textLength="126" x="28" y="213.3288">void readNull()</text><ellipse cx="18" cy="229.2253" fill="#84BE84" rx="3" ry="3" style="stroke:#038048;stroke-width:1.0;"/><text fill="#000000" font-family="sans-serif" font-size="18" font-style="italic" lengthAdjust="spacing" textLength="102" x="28" y="234.528">int readInt()</text><ellipse cx="18" cy="250.4245" fill="#84BE84" rx="3" ry="3" style="stroke:#038048;stroke-width:1.0;"/><text fill="#000000" font-family="sans-serif" font-size="18" font-style="italic" lengthAdjust="spacing" textLength="137" x="28" y="255.7272">long readLong()</text><ellipse cx="18" cy="271.6237" fill="#84BE84" rx="3" ry="3" style="stroke:#038048;stroke-width:1.0;"/><text fill="#000000" font-family="sans-serif" font-size="18" font-style="italic" lengthAdjust="spacing" textLength="176" x="28" y="276.9264">double readDouble()</text><ellipse cx="18" cy="292.8229" fill="#84BE84" rx="3" ry="3" style="stroke:#038048;stroke-width:1.0;"/><text fill="#000000" font-family="sans-serif" font-size="18" font-style="italic" lengthAdjust="spacing" textLength="169" x="28" y="298.1257">long readUTCDate()</text><ellipse cx="18" cy="314.0221" fill="#84BE84" rx="3" ry="3" style="stroke:#038048;stroke-width:1.0;"/><text fill="#000000" font-family="sans-serif" font-size="18" font-style="italic" lengthAdjust="spacing" textLength="158" x="28" y="319.3249">String readString()</text><ellipse cx="18" cy="335.2214" fill="#84BE84" rx="3" ry="3" style="stroke:#038048;stroke-width:1.0;"/><text fill="#000000" font-family="sans-serif" font-size="18" font-style="italic" lengthAdjust="spacing" textLength="150" x="28" y="340.5241">byte []readBytes()</text><ellipse cx="18" cy="356.4206" fill="#84BE84" rx="3" ry="3" style="stroke:#038048;stroke-width:1.0;"/><text fill="#000000" font-family="sans-serif" font-size="18" font-style="italic" lengthAdjust="spacing" textLength="343" x="28" y="361.7233">Object readObject(Class expectedClass)</text><ellipse cx="18" cy="377.6198" fill="#84BE84" rx="3" ry="3" style="stroke:#038048;stroke-width:1.0;"/><text fill="#000000" font-family="sans-serif" font-size="18" font-style="italic" lengthAdjust="spacing" textLength="168" x="28" y="382.9225">Object readObject()</text><ellipse cx="18" cy="398.819" fill="#84BE84" rx="3" ry="3" style="stroke:#038048;stroke-width:1.0;"/><text fill="#000000" font-family="sans-serif" font-size="18" font-style="italic" lengthAdjust="spacing" textLength="140" x="28" y="404.1217">Object readRef()</text><ellipse cx="18" cy="420.0182" fill="#84BE84" rx="3" ry="3" style="stroke:#038048;stroke-width:1.0;"/><text fill="#000000" font-family="sans-serif" font-size="18" font-style="italic" lengthAdjust="spacing" textLength="190" x="28" y="425.321">int addRef(Object obj)</text><ellipse cx="18" cy="441.2175" fill="#84BE84" rx="3" ry="3" style="stroke:#038048;stroke-width:1.0;"/><text fill="#000000" font-family="sans-serif" font-size="18" font-style="italic" lengthAdjust="spacing" textLength="243" x="28" y="446.5202">void setRef(int i, Object obj)</text><ellipse cx="18" cy="462.4167" fill="#84BE84" rx="3" ry="3" style="stroke:#038048;stroke-width:1.0;"/><text fill="#000000" font-family="sans-serif" font-size="18" font-style="italic" lengthAdjust="spacing" textLength="151" x="28" y="467.7194">int readListStart()</text><ellipse cx="18" cy="483.6159" fill="#84BE84" rx="3" ry="3" style="stroke:#038048;stroke-width:1.0;"/><text fill="#000000" font-family="sans-serif" font-size="18" font-style="italic" lengthAdjust="spacing" textLength="139" x="28" y="488.9186">int readLength()</text><ellipse cx="18" cy="504.8151" fill="#84BE84" rx="3" ry="3" style="stroke:#038048;stroke-width:1.0;"/><text fill="#000000" font-family="sans-serif" font-size="18" font-style="italic" lengthAdjust="spacing" textLength="157" x="28" y="510.1178">int readMapStart()</text><ellipse cx="18" cy="526.0143" fill="#84BE84" rx="3" ry="3" style="stroke:#038048;stroke-width:1.0;"/><text fill="#000000" font-family="sans-serif" font-size="18" font-style="italic" lengthAdjust="spacing" textLength="148" x="28" y="531.3171">String readType()</text><ellipse cx="18" cy="547.2135" fill="#84BE84" rx="3" ry="3" style="stroke:#038048;stroke-width:1.0;"/><text fill="#000000" font-family="sans-serif" font-size="18" font-style="italic" lengthAdjust="spacing" textLength="133" x="28" y="552.5163">boolean isEnd()</text><ellipse cx="18" cy="568.4128" fill="#84BE84" rx="3" ry="3" style="stroke:#038048;stroke-width:1.0;"/><text fill="#000000" font-family="sans-serif" font-size="18" font-style="italic" lengthAdjust="spacing" textLength="124" x="28" y="573.7155">void readEnd()</text><ellipse cx="18" cy="589.612" fill="#84BE84" rx="3" ry="3" style="stroke:#038048;stroke-width:1.0;"/><text fill="#000000" font-family="sans-serif" font-size="18" font-style="italic" lengthAdjust="spacing" textLength="161" x="28" y="594.9147">void readMapEnd()</text><ellipse cx="18" cy="610.8112" fill="#84BE84" rx="3" ry="3" style="stroke:#038048;stroke-width:1.0;"/><text fill="#000000" font-family="sans-serif" font-size="18" font-style="italic" lengthAdjust="spacing" textLength="155" x="28" y="616.1139">void readListEnd()</text><ellipse cx="18" cy="632.0104" fill="#84BE84" rx="3" ry="3" style="stroke:#038048;stroke-width:1.0;"/><text fill="#000000" font-family="sans-serif" font-size="18" lengthAdjust="spacing" textLength="98" x="28" y="637.3132">void close()</text></g><!--class HessianInput--><g id="elem_HessianInput"><rect codeLine="32" fill="#F1F1F1" height="50" id="HessianInput" rx="2.5" ry="2.5" style="stroke:#181818;stroke-width:0.5;" width="146" x="145.5" y="705.528"/><ellipse cx="161.5" cy="722.528" fill="#ADD1B2" rx="12" ry="12" style="stroke:#181818;stroke-width:1.0;"/><path d="M164.001,728.6501 Q163.3857,728.9665 162.709,729.1247 Q162.0322,729.2829 161.2852,729.2829 Q158.6309,729.2829 157.2334,727.5339 Q155.8359,725.7848 155.8359,722.4801 Q155.8359,719.1667 157.2334,717.4176 Q158.6309,715.6686 161.2852,715.6686 Q162.0322,715.6686 162.7178,715.8268 Q163.4033,715.985 164.001,716.3014 L164.001,719.1842 Q163.333,718.569 162.7046,718.2834 Q162.0762,717.9977 161.4082,717.9977 Q159.9844,717.9977 159.2593,719.1271 Q158.5342,720.2565 158.5342,722.4801 Q158.5342,724.695 159.2593,725.8244 Q159.9844,726.9538 161.4082,726.9538 Q162.0762,726.9538 162.7046,726.6681 Q163.333,726.3825 164.001,725.7673 Z " fill="#000000"/><text fill="#000000" font-family="sans-serif" font-size="18" lengthAdjust="spacing" textLength="112" x="176.5" y="729.3307">HessianInput</text><line style="stroke:#181818;stroke-width:0.5;" x1="146.5" x2="290.5" y1="739.528" y2="739.528"/><line style="stroke:#181818;stroke-width:0.5;" x1="146.5" x2="290.5" y1="747.528" y2="747.528"/></g><!--class Hessian2Input--><g id="elem_Hessian2Input"><rect codeLine="34" fill="#F1F1F1" height="50" id="Hessian2Input" rx="2.5" ry="2.5" style="stroke:#181818;stroke-width:0.5;" width="157" x="406" y="705.528"/><ellipse cx="422" cy="722.528" fill="#ADD1B2" rx="12" ry="12" style="stroke:#181818;stroke-width:1.0;"/><path d="M424.501,728.6501 Q423.8857,728.9665 423.209,729.1247 Q422.5322,729.2829 421.7852,729.2829 Q419.1309,729.2829 417.7334,727.5339 Q416.3359,725.7848 416.3359,722.4801 Q416.3359,719.1667 417.7334,717.4176 Q419.1309,715.6686 421.7852,715.6686 Q422.5322,715.6686 423.2178,715.8268 Q423.9033,715.985 424.501,716.3014 L424.501,719.1842 Q423.833,718.569 423.2046,718.2834 Q422.5762,717.9977 421.9082,717.9977 Q420.4844,717.9977 419.7593,719.1271 Q419.0342,720.2565 419.0342,722.4801 Q419.0342,724.695 419.7593,725.8244 Q420.4844,726.9538 421.9082,726.9538 Q422.5762,726.9538 423.2046,726.6681 Q423.833,726.3825 424.501,725.7673 Z " fill="#000000"/><text fill="#000000" font-family="sans-serif" font-size="18" lengthAdjust="spacing" textLength="123" x="437" y="729.3307">Hessian2Input</text><line style="stroke:#181818;stroke-width:0.5;" x1="407" x2="562" y1="739.528" y2="739.528"/><line style="stroke:#181818;stroke-width:0.5;" x1="407" x2="562" y1="747.528" y2="747.528"/></g><!--class Hessian2Constants--><g id="elem_Hessian2Constants"><rect fill="#F1F1F1" height="50" id="Hessian2Constants" rx="2.5" ry="2.5" style="stroke:#181818;stroke-width:0.5;" width="199" x="465" y="351.528"/><ellipse cx="481" cy="368.528" fill="#B4A7E5" rx="12" ry="12" style="stroke:#181818;stroke-width:1.0;"/><path d="M477.0117,364.4411 L477.0117,362.1559 L484.8252,362.1559 L484.8252,364.4411 L482.2148,364.4411 L482.2148,372.9928 L484.8252,372.9928 L484.8252,375.278 L477.0117,375.278 L477.0117,372.9928 L479.6221,372.9928 L479.6221,364.4411 Z " fill="#000000"/><text fill="#000000" font-family="sans-serif" font-size="18" font-style="italic" lengthAdjust="spacing" textLength="165" x="496" y="375.3307">Hessian2Constants</text><line style="stroke:#181818;stroke-width:0.5;" x1="466" x2="663" y1="385.528" y2="385.528"/><line style="stroke:#181818;stroke-width:0.5;" x1="466" x2="663" y1="393.528" y2="393.528"/></g><!--reverse link AbstractHessianInput to HessianInput--><g id="link_AbstractHessianInput_HessianInput"><path d="M218.5,663.658 C218.5,687.488 218.5,690.178 218.5,705.048 " fill="none" id="AbstractHessianInput-backto-HessianInput" style="stroke:#181818;stroke-width:1.0;"/><polygon fill="none" points="218.5,645.658,212.5,663.658,224.5,663.658,218.5,645.658" style="stroke:#181818;stroke-width:1.0;"/></g><!--reverse link AbstractHessianInput to Hessian2Input--><g id="link_AbstractHessianInput_Hessian2Input"><path d="M431.973,660.0181 C449.983,683.8481 454.76,690.178 466,705.048 " fill="none" id="AbstractHessianInput-backto-Hessian2Input" style="stroke:#181818;stroke-width:1.0;"/><polygon fill="none" points="421.12,645.658,427.1862,663.6358,436.7597,656.4005,421.12,645.658" style="stroke:#181818;stroke-width:1.0;"/></g><!--reverse link Hessian2Constants to Hessian2Input--><g id="link_Hessian2Constants_Hessian2Input"><path d="M554.9509,419.5504 C540.2809,484.1004 504.65,640.858 490.03,705.218 " fill="none" id="Hessian2Constants-backto-Hessian2Input" style="stroke:#181818;stroke-width:1.0;stroke-dasharray:7.0,7.0;"/><polygon fill="none" points="558.94,401.998,549.1001,418.2207,560.8017,420.8801,558.94,401.998" style="stroke:#181818;stroke-width:1.0;"/></g><text fill="#E22D30" font-family="Source Han Serif SC" font-size="28" lengthAdjust="spacing" textLength="94" x="43" y="793.756">D&#29916;&#21733; &#183;</text><text fill="#E22D30" font-family="JetBrains Mono" font-size="28" lengthAdjust="spacing" textLength="391" x="144" y="793.364">https://www.diguage.com</text><text fill="#E22D30" font-family="Source Han Serif SC" font-size="28" lengthAdjust="spacing" textLength="72" x="542" y="793.756">&#183; &#20986;&#21697;</text><!--SRC=[ZPJFRjCm7CVlVWghN4f1s-WaD75ZATE6kY6HSK8SdFZNrfjZH_OlT6NQWHCFq2DSzm0x8O74WNUfzXhOITgDEkbs-zdVpzVv_ObjpuNAcM6PrEavSCfXn0g91rfXBBu0VR57x1g20YMiWDsN0J01ni6iYFvEG8oqnll4tWOYqb8R-WJwVRwxqvxC2Sk0nhemAT13fcZCbALn51YKExUH1oD6JOQxJ1vjgPjuh9MsEKk1hznl0VSD4ourBvAgKtHmE_-nc5_JlpzffpD1pEshxUtfTBh5nRXWOzXATTRf458MItkzGx1Mk0HU9nODIx5U7wcyG7fxytln_K-lHmXXjKvJoQnjnYy9fSy-Qy6f1VGLCUb6OWuSfysi6-mup3prdilbwLSqqLg2oyUuSlQhkBlEb9_mm4aXPQ0AXQLuf33Gf5RZKXow852vBXBN5AyFoh3T_-4q6Z0CWHYDg94g38XaXa0_VYhhSw4DW7V96QHL2LNOZSgMmqNk5i3BrSEc3SHx63LsZV5IgacTd3KstitMKzuWdjDsU3c7eR0O8pFOEgaXg35EMkLZbZVxxpNxT9Q7mrZ-IyA-KRpzBzeekezlr7rrAw3SJQMsFfShGggxyjyTWGi4nPilq9gX_x23YYoNa872ErUabKNcTWYftfj7lWbUNdpxjPX__GS0]--></g></svg>