<svg xmlns="http://www.w3.org/2000/svg" xmlns:xlink="http://www.w3.org/1999/xlink" contentStyleType="text/css" height="702px" preserveAspectRatio="none" style="width:756px;height:702px;background:#FFFFFF;" version="1.1" viewBox="0 0 756 702" width="756px" zoomAndPan="magnify"><defs/><g><text fill="#888888" font-family="sans-serif" font-size="20" lengthAdjust="spacing" textLength="67" x="393.5" y="22.1812">D&#29916;&#21733; &#183;</text><text fill="#888888" font-family="JetBrains Mono" font-size="20" lengthAdjust="spacing" textLength="276" x="466.5" y="20.4">https://www.diguage.com</text><text fill="#000000" font-family="Source Han Sans SC" font-size="36" font-weight="bold" lengthAdjust="spacing" textLength="288" x="227.25" y="79.16">&#21387;&#27979;&#25509;&#21475;&#20381;&#36182;&#20851;&#31995;</text><!--cluster ????--><g id="cluster_&#21387;&#27979;&#24212;&#29992;"><rect fill="none" height="107" rx="2.5" ry="2.5" style="stroke:#181818;stroke-width:1.0;" width="144" x="304.5" y="318.028"/><path d="M386.5,318.028 L386.5,332.2272 L376.5,342.2272 L304.5,342.2272 " fill="none" style="stroke:#181818;stroke-width:1.0;"/><text fill="#000000" font-family="sans-serif" font-size="18" font-weight="bold" lengthAdjust="spacing" textLength="72" x="307.5" y="336.4303">&#21387;&#27979;&#24212;&#29992;</text></g><!--cluster ??-A--><g id="cluster_&#24212;&#29992;-A"><rect fill="none" height="107" rx="2.5" ry="2.5" style="stroke:#181818;stroke-width:1.0;" width="130" x="158.5" y="542.028"/><path d="M228.5,542.028 L228.5,556.2272 L218.5,566.2272 L158.5,566.2272 " fill="none" style="stroke:#181818;stroke-width:1.0;"/><text fill="#000000" font-family="sans-serif" font-size="18" font-weight="bold" lengthAdjust="spacing" textLength="60" x="161.5" y="560.4303">&#24212;&#29992;-A</text></g><!--cluster ??-B--><g id="cluster_&#24212;&#29992;-B"><rect fill="none" height="107" rx="2.5" ry="2.5" style="stroke:#181818;stroke-width:1.0;" width="128" x="312.5" y="542.028"/><path d="M380.5,542.028 L380.5,556.2272 L370.5,566.2272 L312.5,566.2272 " fill="none" style="stroke:#181818;stroke-width:1.0;"/><text fill="#000000" font-family="sans-serif" font-size="18" font-weight="bold" lengthAdjust="spacing" textLength="58" x="315.5" y="560.4303">&#24212;&#29992;-B</text></g><!--cluster ??-C--><g id="cluster_&#24212;&#29992;-C"><rect fill="none" height="107" rx="2.5" ry="2.5" style="stroke:#181818;stroke-width:1.0;" width="130" x="464.5" y="542.028"/><path d="M534.5,542.028 L534.5,556.2272 L524.5,566.2272 L464.5,566.2272 " fill="none" style="stroke:#181818;stroke-width:1.0;"/><text fill="#000000" font-family="sans-serif" font-size="18" font-weight="bold" lengthAdjust="spacing" textLength="60" x="467.5" y="560.4303">&#24212;&#29992;-C</text></g><!--cluster ??-D--><g id="cluster_&#24212;&#29992;-D"><rect fill="none" height="107" rx="2.5" ry="2.5" style="stroke:#181818;stroke-width:1.0;" width="132" x="618.5" y="542.028"/><path d="M689.5,542.028 L689.5,556.2272 L679.5,566.2272 L618.5,566.2272 " fill="none" style="stroke:#181818;stroke-width:1.0;"/><text fill="#000000" font-family="sans-serif" font-size="18" font-weight="bold" lengthAdjust="spacing" textLength="61" x="621.5" y="560.4303">&#24212;&#29992;-D</text></g><!--entity ????--><g id="elem_&#21387;&#27979;&#25509;&#21475;"><rect fill="#D5E8D4" height="51.1992" rx="2.5" ry="2.5" style="stroke:#181818;stroke-width:0.5;" width="112" x="320.5" y="358.028"/><rect fill="#D5E8D4" height="10" style="stroke:#181818;stroke-width:0.5;" width="15" x="412.5" y="363.028"/><rect fill="#D5E8D4" height="2" style="stroke:#181818;stroke-width:0.5;" width="4" x="410.5" y="365.028"/><rect fill="#D5E8D4" height="2" style="stroke:#181818;stroke-width:0.5;" width="4" x="410.5" y="369.028"/><text fill="#000000" font-family="sans-serif" font-size="18" lengthAdjust="spacing" textLength="72" x="335.5" y="395.4303">&#21387;&#27979;&#25509;&#21475;</text></g><!--entity ??-A--><g id="elem_&#25509;&#21475;-A"><rect fill="#DAE8FC" height="51.1992" rx="2.5" ry="2.5" style="stroke:#181818;stroke-width:0.5;" width="98" x="174.5" y="582.028"/><rect fill="#DAE8FC" height="10" style="stroke:#181818;stroke-width:0.5;" width="15" x="252.5" y="587.028"/><rect fill="#DAE8FC" height="2" style="stroke:#181818;stroke-width:0.5;" width="4" x="250.5" y="589.028"/><rect fill="#DAE8FC" height="2" style="stroke:#181818;stroke-width:0.5;" width="4" x="250.5" y="593.028"/><text fill="#000000" font-family="sans-serif" font-size="18" lengthAdjust="spacing" textLength="58" x="189.5" y="619.4303">&#25509;&#21475;-A</text></g><!--entity ??-B--><g id="elem_&#25509;&#21475;-B"><rect fill="#E1D5E7" height="51.1992" rx="2.5" ry="2.5" style="stroke:#181818;stroke-width:0.5;" width="96" x="328.5" y="582.028"/><rect fill="#E1D5E7" height="10" style="stroke:#181818;stroke-width:0.5;" width="15" x="404.5" y="587.028"/><rect fill="#E1D5E7" height="2" style="stroke:#181818;stroke-width:0.5;" width="4" x="402.5" y="589.028"/><rect fill="#E1D5E7" height="2" style="stroke:#181818;stroke-width:0.5;" width="4" x="402.5" y="593.028"/><text fill="#000000" font-family="sans-serif" font-size="18" lengthAdjust="spacing" textLength="56" x="343.5" y="619.4303">&#25509;&#21475;-B</text></g><!--entity ??-C--><g id="elem_&#25509;&#21475;-C"><rect fill="#F8CECC" height="51.1992" rx="2.5" ry="2.5" style="stroke:#181818;stroke-width:0.5;" width="98" x="480.5" y="582.028"/><rect fill="#F8CECC" height="10" style="stroke:#181818;stroke-width:0.5;" width="15" x="558.5" y="587.028"/><rect fill="#F8CECC" height="2" style="stroke:#181818;stroke-width:0.5;" width="4" x="556.5" y="589.028"/><rect fill="#F8CECC" height="2" style="stroke:#181818;stroke-width:0.5;" width="4" x="556.5" y="593.028"/><text fill="#000000" font-family="sans-serif" font-size="18" lengthAdjust="spacing" textLength="58" x="495.5" y="619.4303">&#25509;&#21475;-C</text></g><!--entity ??-D--><g id="elem_&#25509;&#21475;-D"><rect fill="#FFE6CC" height="51.1992" rx="2.5" ry="2.5" style="stroke:#181818;stroke-width:0.5;" width="99" x="635" y="582.028"/><rect fill="#FFE6CC" height="10" style="stroke:#181818;stroke-width:0.5;" width="15" x="714" y="587.028"/><rect fill="#FFE6CC" height="2" style="stroke:#181818;stroke-width:0.5;" width="4" x="712" y="589.028"/><rect fill="#FFE6CC" height="2" style="stroke:#181818;stroke-width:0.5;" width="4" x="712" y="593.028"/><text fill="#000000" font-family="sans-serif" font-size="18" lengthAdjust="spacing" textLength="59" x="650" y="619.4303">&#25509;&#21475;-D</text></g><!--entity ??--><g id="elem_&#29992;&#25143;"><ellipse cx="376.5" cy="114.528" fill="#FF6666" rx="8" ry="8" style="stroke:#181818;stroke-width:0.5;"/><path d="M376.5,122.528 L376.5,149.528 M363.5,130.528 L389.5,130.528 M376.5,149.528 L363.5,164.528 M376.5,149.528 L389.5,164.528 " fill="none" style="stroke:#181818;stroke-width:0.5;"/><text fill="#000000" font-family="sans-serif" font-size="18" lengthAdjust="spacing" textLength="36" x="358.5" y="183.4303">&#29992;&#25143;</text></g><!--entity MySQL???--><g id="elem_MySQL&#25968;&#25454;&#24211;"><path d="M6,592.528 C6,582.528 72.5,582.528 72.5,582.528 C72.5,582.528 139,582.528 139,592.528 L139,622.7272 C139,632.7272 72.5,632.7272 72.5,632.7272 C72.5,632.7272 6,632.7272 6,622.7272 L6,592.528 " fill="#006A84" style="stroke:#181818;stroke-width:0.5;"/><path d="M6,592.528 C6,602.528 72.5,602.528 72.5,602.528 C72.5,602.528 139,602.528 139,592.528 " fill="none" style="stroke:#181818;stroke-width:0.5;"/><text fill="#000000" font-family="sans-serif" font-size="18" lengthAdjust="spacing" textLength="113" x="16" y="623.9303">MySQL&#25968;&#25454;&#24211;</text></g><!--link ?? to ????--><g id="link_&#29992;&#25143;_&#21387;&#27979;&#25509;&#21475;"><path d="M376.5,187.388 C376.5,236.108 376.5,311.048 376.5,351.668 " fill="none" id="&#29992;&#25143;-to-&#21387;&#27979;&#25509;&#21475;" style="stroke:#181818;stroke-width:1.0;"/><polygon fill="#181818" points="376.5,357.668,380.5,348.668,376.5,352.668,372.5,348.668,376.5,357.668" style="stroke:#181818;stroke-width:1.0;"/><text fill="#000000" font-family="sans-serif" font-size="18" lengthAdjust="spacing" textLength="72" x="377.5" y="266.4303">&#29992;&#25143;&#35775;&#38382;</text></g><!--link ???? to ??-A--><g id="link_&#21387;&#27979;&#25509;&#21475;_&#25509;&#21475;-A"><path d="M349.79,409.358 C332.73,426.058 310.82,449.138 294.5,472.028 C269.06,507.718 249.2197,548.2054 236.6797,576.1054 " fill="none" id="&#21387;&#27979;&#25509;&#21475;-to-&#25509;&#21475;-A" style="stroke:#181818;stroke-width:1.0;"/><polygon fill="#181818" points="234.22,581.578,241.558,575.0089,236.2698,577.0175,234.2612,571.7292,234.22,581.578" style="stroke:#181818;stroke-width:1.0;"/><text fill="#000000" font-family="sans-serif" font-size="18" lengthAdjust="spacing" textLength="72" x="295.5" y="490.4303">&#21516;&#27493;&#35843;&#29992;</text></g><!--link ???? to ??-B--><g id="link_&#21387;&#27979;&#25509;&#21475;_&#25509;&#21475;-B"><path d="M376.5,409.138 C376.5,451.808 376.5,533.058 376.5,575.808 " fill="none" id="&#21387;&#27979;&#25509;&#21475;-to-&#25509;&#21475;-B" style="stroke:#181818;stroke-width:1.0;"/><polygon fill="#181818" points="376.5,581.808,380.5,572.808,376.5,576.808,372.5,572.808,376.5,581.808" style="stroke:#181818;stroke-width:1.0;"/><text fill="#000000" font-family="sans-serif" font-size="18" lengthAdjust="spacing" textLength="72" x="377.5" y="490.4303">&#21516;&#27493;&#35843;&#29992;</text></g><!--link ???? to ??-C--><g id="link_&#21387;&#27979;&#25509;&#21475;_&#25509;&#21475;-C"><path d="M403.21,409.358 C420.27,426.058 442.18,449.138 458.5,472.028 C483.94,507.718 503.7803,548.2054 516.3203,576.1054 " fill="none" id="&#21387;&#27979;&#25509;&#21475;-to-&#25509;&#21475;-C" style="stroke:#181818;stroke-width:1.0;"/><polygon fill="#181818" points="518.78,581.578,518.7388,571.7292,516.7302,577.0175,511.442,575.0089,518.78,581.578" style="stroke:#181818;stroke-width:1.0;"/><text fill="#000000" font-family="sans-serif" font-size="18" lengthAdjust="spacing" textLength="72" x="473.5" y="490.4303">&#21516;&#27493;&#35843;&#29992;</text></g><!--link ???? to ??-D--><g id="link_&#21387;&#27979;&#25509;&#21475;_&#25509;&#21475;-D"><path d="M432.62,406.178 C469.13,421.648 516.79,444.548 554.5,472.028 C598.86,504.348 637.5058,547.96 661.2358,577.03 " fill="none" id="&#21387;&#27979;&#25509;&#21475;-to-&#25509;&#21475;-D" style="stroke:#181818;stroke-width:1.0;"/><polygon fill="#181818" points="665.03,581.678,662.4374,572.1765,661.8682,577.8047,656.24,577.2354,665.03,581.678" style="stroke:#181818;stroke-width:1.0;"/><text fill="#000000" font-family="sans-serif" font-size="18" lengthAdjust="spacing" textLength="72" x="582.5" y="490.4303">&#21516;&#27493;&#35843;&#29992;</text></g><!--link ???? to MySQL???--><g id="link_&#21387;&#27979;&#25509;&#21475;_MySQL&#25968;&#25454;&#24211;"><path d="M320.28,405.708 C283.44,421.058 235.28,443.998 197.5,472.028 C153.98,504.318 116.8147,548.295 94.2847,577.375 " fill="none" id="&#21387;&#27979;&#25509;&#21475;-to-MySQL&#25968;&#25454;&#24211;" style="stroke:#181818;stroke-width:1.0;"/><polygon fill="#181818" points="90.61,582.118,99.2841,577.4532,93.6723,578.1655,92.96,572.5536,90.61,582.118" style="stroke:#181818;stroke-width:1.0;"/><text fill="#000000" font-family="sans-serif" font-size="18" lengthAdjust="spacing" textLength="72" x="198.5" y="490.4303">&#21516;&#27493;&#26597;&#35810;</text></g><text fill="#888888" font-family="Source Han Serif SC" font-size="28" lengthAdjust="spacing" textLength="94" x="85.75" y="686.256">D&#29916;&#21733; &#183;</text><text fill="#888888" font-family="JetBrains Mono" font-size="28" lengthAdjust="spacing" textLength="391" x="186.75" y="685.864">https://www.diguage.com</text><text fill="#888888" font-family="Source Han Serif SC" font-size="28" lengthAdjust="spacing" textLength="72" x="584.75" y="686.256">&#183; &#20986;&#21697;</text><!--SRC=[bTFDIkDG50Vm_NsAGzmLedNK6heOQFE1Y0gI9xWcjssmpIt9BKN5XOWe-0drOwC8Ii7DT0GHeGCpuBDuqyvRUDFKLXihDTlp_-KS_YJ-gkEMiOTBHMgj4XjiaiEL8ZEeoqnddS2aWlo127DOaVG2KwbOe42mJRnUuaSobiXHojudlbYoX4i4J5hnB09ps0KJkpwOQWouuesVveddv3u3_Hj69jro5gbB_JAsYDtJyuHbFUo8qy8XwbmFYGG_sWyUzuEZEZ- -VVbxrNuyvpiFhOS_YGIAIWAjLRlajJeyFu4a5HWh- -c9YMgrEcux-GhEat6BbYG98Mmnwa7hz2xOUu8nmqY91o6KyyBjqHhUF1Lps40W7i7Ar2Kk0-dz4HACQJEweasZpRxkE3aJbv6HCw7Aw8gXXke3oWv5MO7qIR5iDeRKeKWLo51KNOrlqeOYBKI6degGZHbUmJu1QN7DN5u8pkw3mmPlraGecKnbb6c4kYtAilnpi9rqj-9suz__YmOQc4QYtqeQ-Cb1yAlUljyMxCjqzbjfzLjfRRJqO1zl9hYkjt_VYBexFyI8NsGuvhjDNjjw1G00]--></g></svg>