<svg xmlns="http://www.w3.org/2000/svg" xmlns:xlink="http://www.w3.org/1999/xlink" contentStyleType="text/css" height="2050px" preserveAspectRatio="none" style="width:982px;height:2050px;background:#FFFFFF;" version="1.1" viewBox="0 0 982 2050" width="982px" zoomAndPan="magnify"><defs/><g><text fill="#000000" font-family="JetBrains Mono" font-size="36" font-weight="bold" lengthAdjust="spacing" textLength="748" x="21" y="83.728">AbstractApplicationContext.refresh</text><text fill="#000000" font-family="Source Han Sans SC" font-size="36" font-weight="bold" lengthAdjust="spacing" textLength="176" x="777" y="84.16">-- &#37325;&#22609;&#23481;&#22120;</text><rect fill="#FFFFFF" height="1666.7438" style="stroke:#181818;stroke-width:1.0;" width="10" x="329" y="247.6864"/><rect fill="#53E516" height="303.3824" style="stroke:#181818;stroke-width:1.0;" width="10" x="334" y="733.9249"/><rect fill="#FFFFFF" height="104.3316" style="stroke:#181818;stroke-width:1.0;" width="10" x="740" y="880.9757"/><rect fill="none" height="264.3824" style="stroke:#000000;stroke-width:1.5;" width="879" x="10" y="753.9249"/><line style="stroke:#181818;stroke-width:0.5;stroke-dasharray:5.0,5.0;" x1="157" x2="157" y1="186.7272" y2="1932.4302"/><line style="stroke:#181818;stroke-width:0.5;stroke-dasharray:5.0,5.0;" x1="334" x2="334" y1="186.7272" y2="1932.4302"/><line style="stroke:#181818;stroke-width:0.5;stroke-dasharray:5.0,5.0;" x1="745" x2="745" y1="186.7272" y2="1932.4302"/><text fill="#000000" font-family="sans-serif" font-size="18" lengthAdjust="spacing" textLength="46" x="131" y="182.9303">Actor</text><ellipse cx="157" cy="114.028" fill="#E2E2F0" rx="8" ry="8" style="stroke:#181818;stroke-width:0.5;"/><path d="M157,122.028 L157,149.028 M144,130.028 L170,130.028 M157,149.028 L144,164.028 M157,149.028 L170,164.028 " fill="none" style="stroke:#181818;stroke-width:0.5;"/><text fill="#000000" font-family="sans-serif" font-size="18" lengthAdjust="spacing" textLength="46" x="131" y="1948.8326">Actor</text><ellipse cx="157" cy="1961.1294" fill="#E2E2F0" rx="8" ry="8" style="stroke:#181818;stroke-width:0.5;"/><path d="M157,1969.1294 L157,1996.1294 M144,1977.1294 L170,1977.1294 M157,1996.1294 L144,2011.1294 M157,1996.1294 L170,2011.1294 " fill="none" style="stroke:#181818;stroke-width:0.5;"/><rect fill="#E2E2F0" height="38" rx="2.5" ry="2.5" style="stroke:#181818;stroke-width:0.5;" width="282" x="193" y="147.7272"/><ellipse cx="212" cy="166.7272" fill="#ADD1B2" rx="12" ry="12" style="stroke:#181818;stroke-width:1.0;"/><path d="M214.501,172.8493 Q213.8857,173.1657 213.209,173.3239 Q212.5322,173.4821 211.7852,173.4821 Q209.1309,173.4821 207.7334,171.7331 Q206.3359,169.9841 206.3359,166.6794 Q206.3359,163.3659 207.7334,161.6169 Q209.1309,159.8678 211.7852,159.8678 Q212.5322,159.8678 213.2178,160.026 Q213.9033,160.1842 214.501,160.5007 L214.501,163.3835 Q213.833,162.7682 213.2046,162.4826 Q212.5762,162.1969 211.9082,162.1969 Q210.4844,162.1969 209.7593,163.3263 Q209.0342,164.4557 209.0342,166.6794 Q209.0342,168.8942 209.7593,170.0236 Q210.4844,171.153 211.9082,171.153 Q212.5762,171.153 213.2046,170.8674 Q213.833,170.5817 214.501,169.9665 Z " fill="#000000"/><text fill="#000000" font-family="sans-serif" font-size="18" lengthAdjust="spacing" textLength="238" x="230" y="172.1296">AbstractApplicationContext</text><rect fill="#E2E2F0" height="38" rx="2.5" ry="2.5" style="stroke:#181818;stroke-width:0.5;" width="282" x="193" y="1931.4302"/><ellipse cx="212" cy="1950.4302" fill="#ADD1B2" rx="12" ry="12" style="stroke:#181818;stroke-width:1.0;"/><path d="M214.501,1956.5523 Q213.8857,1956.8687 213.209,1957.0269 Q212.5322,1957.1851 211.7852,1957.1851 Q209.1309,1957.1851 207.7334,1955.4361 Q206.3359,1953.687 206.3359,1950.3824 Q206.3359,1947.0689 207.7334,1945.3199 Q209.1309,1943.5708 211.7852,1943.5708 Q212.5322,1943.5708 213.2178,1943.729 Q213.9033,1943.8872 214.501,1944.2036 L214.501,1947.0865 Q213.833,1946.4712 213.2046,1946.1856 Q212.5762,1945.8999 211.9082,1945.8999 Q210.4844,1945.8999 209.7593,1947.0293 Q209.0342,1948.1587 209.0342,1950.3824 Q209.0342,1952.5972 209.7593,1953.7266 Q210.4844,1954.856 211.9082,1954.856 Q212.5762,1954.856 213.2046,1954.5703 Q213.833,1954.2847 214.501,1953.6695 Z " fill="#000000"/><text fill="#000000" font-family="sans-serif" font-size="18" lengthAdjust="spacing" textLength="238" x="230" y="1955.8326">AbstractApplicationContext</text><rect fill="#E2E2F0" height="38" rx="2.5" ry="2.5" style="stroke:#181818;stroke-width:0.5;" width="268" x="611" y="147.7272"/><ellipse cx="630" cy="166.7272" fill="#AB9DE1" rx="12" ry="12" style="stroke:#181818;stroke-width:1.0;"/><path d="M626.0117,162.6403 L626.0117,160.3551 L633.8252,160.3551 L633.8252,162.6403 L631.2148,162.6403 L631.2148,171.1921 L633.8252,171.1921 L633.8252,173.4772 L626.0117,173.4772 L626.0117,171.1921 L628.6221,171.1921 L628.6221,162.6403 Z " fill="#000000"/><text fill="#000000" font-family="sans-serif" font-size="18" lengthAdjust="spacing" textLength="224" x="648" y="172.1296">BeanFactoryPostProcessor</text><rect fill="#E2E2F0" height="38" rx="2.5" ry="2.5" style="stroke:#181818;stroke-width:0.5;" width="268" x="611" y="1931.4302"/><ellipse cx="630" cy="1950.4302" fill="#AB9DE1" rx="12" ry="12" style="stroke:#181818;stroke-width:1.0;"/><path d="M626.0117,1946.3433 L626.0117,1944.0581 L633.8252,1944.0581 L633.8252,1946.3433 L631.2148,1946.3433 L631.2148,1954.8951 L633.8252,1954.8951 L633.8252,1957.1802 L626.0117,1957.1802 L626.0117,1954.8951 L628.6221,1954.8951 L628.6221,1946.3433 Z " fill="#000000"/><text fill="#000000" font-family="sans-serif" font-size="18" lengthAdjust="spacing" textLength="224" x="648" y="1955.8326">BeanFactoryPostProcessor</text><rect fill="#FFFFFF" height="1666.7438" style="stroke:#181818;stroke-width:1.0;" width="10" x="329" y="247.6864"/><rect fill="#53E516" height="303.3824" style="stroke:#181818;stroke-width:1.0;" width="10" x="334" y="733.9249"/><rect fill="#FFFFFF" height="104.3316" style="stroke:#181818;stroke-width:1.0;" width="10" x="740" y="880.9757"/><polygon fill="#181818" points="317,243.6864,327,247.6864,317,251.6864,321,247.6864" style="stroke:#181818;stroke-width:1.0;"/><line style="stroke:#181818;stroke-width:1.0;" x1="157" x2="323" y1="247.6864" y2="247.6864"/><text fill="#000000" font-family="JetBrains Mono" font-size="18" lengthAdjust="spacing" textLength="77" x="164" y="219.0872">refresh</text><text fill="#000000" font-family="sans-serif" font-size="18" lengthAdjust="spacing" textLength="72" x="164" y="241.8896">&#37325;&#22609;&#23481;&#22120;</text><line style="stroke:#181818;stroke-width:1.0;" x1="339" x2="381" y1="306.6457" y2="306.6457"/><line style="stroke:#181818;stroke-width:1.0;" x1="381" x2="381" y1="306.6457" y2="319.6457"/><line style="stroke:#181818;stroke-width:1.0;" x1="340" x2="381" y1="319.6457" y2="319.6457"/><polygon fill="#181818" points="350,315.6457,340,319.6457,350,323.6457,346,319.6457" style="stroke:#181818;stroke-width:1.0;"/><text fill="#000000" font-family="JetBrains Mono" font-size="18" lengthAdjust="spacing" textLength="154" x="346" y="278.0464">prepareRefresh</text><text fill="#000000" font-family="sans-serif" font-size="18" lengthAdjust="spacing" textLength="72" x="346" y="300.8488">&#20934;&#22791;&#29615;&#22659;</text><line style="stroke:#181818;stroke-width:1.0;" x1="339" x2="381" y1="403.6049" y2="403.6049"/><line style="stroke:#181818;stroke-width:1.0;" x1="381" x2="381" y1="403.6049" y2="416.6049"/><line style="stroke:#181818;stroke-width:1.0;" x1="340" x2="381" y1="416.6049" y2="416.6049"/><polygon fill="#181818" points="350,412.6049,340,416.6049,350,420.6049,346,416.6049" style="stroke:#181818;stroke-width:1.0;"/><text fill="#000000" font-family="JetBrains Mono" font-size="18" lengthAdjust="spacing" textLength="242" x="346" y="375.0057">obtainFreshBeanFactory</text><text fill="#000000" font-family="sans-serif" font-size="18" lengthAdjust="spacing" textLength="140" x="346" y="397.808">&#33719;&#21462;BeanFactory</text><path d="M610,370.6923 L610,405.6923 L793,405.6923 L793,380.6923 L783,370.6923 L610,370.6923 " fill="#FEFFDD" style="stroke:#181818;stroke-width:0.5;"/><path d="M783,370.6923 L783,380.6923 L793,380.6923 L783,370.6923 " fill="#FEFFDD" style="stroke:#181818;stroke-width:0.5;"/><text fill="#000000" font-family="Source Han Serif SC" font-size="18" lengthAdjust="spacing" textLength="162" x="616" y="396.4103">&#21152;&#36733;&#24182;&#35299;&#26512;&#37197;&#32622;&#25991;&#20214;</text><line style="stroke:#181818;stroke-width:1.0;" x1="339" x2="381" y1="503.1249" y2="503.1249"/><line style="stroke:#181818;stroke-width:1.0;" x1="381" x2="381" y1="503.1249" y2="516.1249"/><line style="stroke:#181818;stroke-width:1.0;" x1="340" x2="381" y1="516.1249" y2="516.1249"/><polygon fill="#181818" points="350,512.1249,340,516.1249,350,520.1249,346,516.1249" style="stroke:#181818;stroke-width:1.0;"/><text fill="#000000" font-family="JetBrains Mono" font-size="18" lengthAdjust="spacing" textLength="198" x="346" y="471.9649">prepareBeanFactory</text><text fill="#000000" font-family="sans-serif" font-size="18" lengthAdjust="spacing" textLength="36" x="346" y="497.328">&#20934;&#22791;</text><text fill="#000000" font-family="JetBrains Mono" font-size="18" lengthAdjust="spacing" textLength="121" x="388" y="495.7249">BeanFactory</text><path d="M566,455.9989 L566,516.9989 L960,516.9989 L960,465.9989 L950,455.9989 L566,455.9989 " fill="#FEFFDD" style="stroke:#181818;stroke-width:0.5;"/><path d="M950,455.9989 L950,465.9989 L960,465.9989 L950,455.9989 " fill="#FEFFDD" style="stroke:#181818;stroke-width:0.5;"/><text fill="#000000" font-family="Source Han Serif SC" font-size="18" lengthAdjust="spacing" textLength="300" x="572" y="481.7169">&#24573;&#30053;&#21508;&#31181; Aware &#25509;&#21475;&#30340;&#27880;&#20837;&#65307;&#21516;&#26102;&#65292;</text><text fill="#000000" font-family="Source Han Serif SC" font-size="18" lengthAdjust="spacing" textLength="229" x="572" y="507.5829">&#27880;&#20876;&#19968;&#20123;&#24517;&#35201;&#30340; Bean&#65292;&#27604;&#22914;</text><text fill="#000000" font-family="JetBrains Mono" font-size="18" lengthAdjust="spacing" textLength="121" x="806" y="507.3309">BeanFactory</text><text fill="#000000" font-family="Source Han Serif SC" font-size="18" lengthAdjust="spacing" textLength="18" x="927" y="507.5829">&#12290;</text><line style="stroke:#181818;stroke-width:1.0;" x1="339" x2="381" y1="602.6449" y2="602.6449"/><line style="stroke:#181818;stroke-width:1.0;" x1="381" x2="381" y1="602.6449" y2="615.6449"/><line style="stroke:#181818;stroke-width:1.0;" x1="340" x2="381" y1="615.6449" y2="615.6449"/><polygon fill="#181818" points="350,611.6449,340,615.6449,350,619.6449,346,615.6449" style="stroke:#181818;stroke-width:1.0;"/><text fill="#000000" font-family="JetBrains Mono" font-size="18" lengthAdjust="spacing" textLength="242" x="346" y="571.4849">postProcessBeanFactory</text><text fill="#000000" font-family="sans-serif" font-size="18" lengthAdjust="spacing" textLength="18" x="346" y="596.848">&#23545;</text><text fill="#000000" font-family="JetBrains Mono" font-size="18" lengthAdjust="spacing" textLength="121" x="370" y="595.2449">BeanFactory</text><text fill="#000000" font-family="sans-serif" font-size="18" lengthAdjust="spacing" textLength="90" x="497" y="596.848">&#20570;&#21518;&#26399;&#22788;&#29702;</text><path d="M610,555.5189 L610,616.5189 L739,616.5189 L739,565.5189 L729,555.5189 L610,555.5189 " fill="#FEFFDD" style="stroke:#181818;stroke-width:0.5;"/><path d="M729,555.5189 L729,565.5189 L739,565.5189 L729,555.5189 " fill="#FEFFDD" style="stroke:#181818;stroke-width:0.5;"/><text fill="#000000" font-family="Source Han Serif SC" font-size="18" lengthAdjust="spacing" textLength="108" x="616" y="581.2369">&#39044;&#30041;&#25193;&#23637;&#28857;&#65292;</text><text fill="#000000" font-family="Source Han Serif SC" font-size="18" lengthAdjust="spacing" textLength="108" x="616" y="607.1029">&#30446;&#21069;&#26159;&#31354;&#23454;&#29616;</text><line style="stroke:#181818;stroke-width:1.0;" x1="339" x2="386" y1="720.9249" y2="720.9249"/><line style="stroke:#181818;stroke-width:1.0;" x1="386" x2="386" y1="720.9249" y2="733.9249"/><line style="stroke:#181818;stroke-width:1.0;" x1="345" x2="386" y1="733.9249" y2="733.9249"/><polygon fill="#181818" points="355,729.9249,345,733.9249,355,737.9249,351,733.9249" style="stroke:#181818;stroke-width:1.0;"/><text fill="#000000" font-family="JetBrains Mono" font-size="18" lengthAdjust="spacing" textLength="341" x="351" y="666.0049">invokeBeanFactoryPostProcessors</text><text fill="#000000" font-family="sans-serif" font-size="18" lengthAdjust="spacing" textLength="36" x="351" y="691.368">&#35843;&#29992;</text><text fill="#000000" font-family="JetBrains Mono" font-size="18" lengthAdjust="spacing" textLength="264" x="393" y="689.7649">BeanFactoryPostProcessor</text><text fill="#000000" font-family="sans-serif" font-size="18" lengthAdjust="spacing" textLength="18" x="663" y="691.368">&#30340;</text><text fill="#000000" font-family="JetBrains Mono" font-size="18" lengthAdjust="spacing" textLength="242" x="351" y="713.5249">postProcessBeanFactory</text><text fill="#000000" font-family="sans-serif" font-size="18" lengthAdjust="spacing" textLength="36" x="599" y="715.128">&#26041;&#27861;</text><path d="M10,753.9249 L95,753.9249 L95,767.1241 L85,777.1241 L10,777.1241 L10,753.9249 " fill="#EEEEEE" style="stroke:#000000;stroke-width:1.5;"/><rect fill="none" height="264.3824" style="stroke:#000000;stroke-width:1.5;" width="879" x="10" y="753.9249"/><text fill="#000000" font-family="sans-serif" font-size="18" font-weight="bold" lengthAdjust="spacing" textLength="40" x="25" y="772.3272">loop</text><text fill="#000000" font-family="sans-serif" font-size="18" font-weight="bold" lengthAdjust="spacing" textLength="7" x="110" y="775.888">[</text><text fill="#000000" font-family="sans-serif" font-size="18" font-weight="bold" lengthAdjust="spacing" textLength="72" x="117" y="775.888">&#36941;&#21382;&#25152;&#26377;</text><text fill="#000000" font-family="JetBrains Mono" font-size="18" font-weight="bold" lengthAdjust="spacing" textLength="264" x="195" y="774.2849">BeanFactoryPostProcessor</text><text fill="#000000" font-family="sans-serif" font-size="18" font-weight="bold" lengthAdjust="spacing" textLength="36" x="465" y="775.888">&#23454;&#20363;</text><text fill="#000000" font-family="sans-serif" font-size="18" font-weight="bold" lengthAdjust="spacing" textLength="7" x="501" y="775.888">]</text><polygon fill="#181818" points="728,876.9757,738,880.9757,728,884.9757,732,880.9757" style="stroke:#181818;stroke-width:1.0;"/><line style="stroke:#181818;stroke-width:1.0;" x1="344" x2="734" y1="880.9757" y2="880.9757"/><text fill="#000000" font-family="JetBrains Mono" font-size="18" lengthAdjust="spacing" textLength="242" x="351" y="852.3765">postProcessBeanFactory</text><text fill="#000000" font-family="sans-serif" font-size="18" lengthAdjust="spacing" textLength="377" x="351" y="875.1788">&#26356;&#26032;&#23481;&#22120;&#20869; Bean &#30340;&#23450;&#20041;&#65288;&#22686;&#21152;&#12289;&#21024;&#38500;&#12289;&#20462;&#25913;&#65289;</text><path d="M20,790.8841 L20,927.8841 L324,927.8841 L324,800.8841 L314,790.8841 L20,790.8841 " fill="#FFAAAA" style="stroke:#181818;stroke-width:0.5;"/><path d="M314,790.8841 L314,800.8841 L324,800.8841 L314,790.8841 " fill="#FFAAAA" style="stroke:#181818;stroke-width:0.5;"/><text fill="#000000" font-family="JetBrains Mono" font-size="18" lengthAdjust="spacing" textLength="264" x="26" y="814.2441">BeanFactoryPostProcessor</text><text fill="#000000" font-family="Source Han Serif SC" font-size="18" lengthAdjust="spacing" textLength="283" x="26" y="840.3621">&#26159; Spring &#23481;&#22120;&#38750;&#24120;&#37325;&#35201;&#30340;&#25193;&#23637;&#28857;&#65281;</text><text fill="#000000" font-family="Source Han Serif SC" font-size="18" lengthAdjust="spacing" textLength="5" x="26" y="866.2281">&#160;</text><text fill="#000000" font-family="Source Han Serif SC" font-size="18" lengthAdjust="spacing" textLength="265" x="26" y="892.0941">&#24456;&#22810;&#31532;&#19977;&#26041;&#26694;&#26550;&#38598;&#25104; Spring &#23601;&#26159;</text><text fill="#000000" font-family="Source Han Serif SC" font-size="18" lengthAdjust="spacing" textLength="267" x="26" y="917.9601">&#29992;&#30340;&#35813;&#25193;&#23637;&#28857;&#65292;&#27604;&#22914; MyBATIS&#12290;</text><polygon fill="#181818" points="355,981.3073,345,985.3073,355,989.3073,351,985.3073" style="stroke:#181818;stroke-width:1.0;"/><line style="stroke:#181818;stroke-width:1.0;" x1="349" x2="744" y1="985.3073" y2="985.3073"/><text fill="#000000" font-family="sans-serif" font-size="18" lengthAdjust="spacing" textLength="179" x="361" y="979.5104">&#23436;&#25104; Bean &#23450;&#20041;&#30340;&#26356;&#26032;</text><line style="stroke:#181818;stroke-width:1.0;" x1="344" x2="386" y1="1036.3073" y2="1036.3073"/><line style="stroke:#181818;stroke-width:1.0;" x1="386" x2="386" y1="1036.3073" y2="1049.3073"/><line style="stroke:#181818;stroke-width:1.0;" x1="339" x2="386" y1="1049.3073" y2="1049.3073"/><polygon fill="#181818" points="349,1045.3073,339,1049.3073,349,1053.3073,345,1049.3073" style="stroke:#181818;stroke-width:1.0;"/><line style="stroke:#181818;stroke-width:1.0;" x1="339" x2="381" y1="1181.1653" y2="1181.1653"/><line style="stroke:#181818;stroke-width:1.0;" x1="381" x2="381" y1="1181.1653" y2="1194.1653"/><line style="stroke:#181818;stroke-width:1.0;" x1="340" x2="381" y1="1194.1653" y2="1194.1653"/><polygon fill="#181818" points="350,1190.1653,340,1194.1653,350,1198.1653,346,1194.1653" style="stroke:#181818;stroke-width:1.0;"/><text fill="#000000" font-family="JetBrains Mono" font-size="18" lengthAdjust="spacing" textLength="286" x="346" y="1150.0053">registerBeanPostProcessors</text><text fill="#000000" font-family="sans-serif" font-size="18" lengthAdjust="spacing" textLength="36" x="346" y="1175.3684">&#27880;&#20876;</text><text fill="#000000" font-family="JetBrains Mono" font-size="18" lengthAdjust="spacing" textLength="187" x="388" y="1173.7653">BeanPostProcessor</text><path d="M654,1082.3073 L654,1247.3073 L939,1247.3073 L939,1092.3073 L929,1082.3073 L654,1082.3073 " fill="#FFAAAA" style="stroke:#181818;stroke-width:0.5;"/><path d="M929,1082.3073 L929,1092.3073 L939,1092.3073 L929,1082.3073 " fill="#FFAAAA" style="stroke:#181818;stroke-width:0.5;"/><text fill="#000000" font-family="JetBrains Mono" font-size="18" lengthAdjust="spacing" textLength="187" x="660" y="1107.7733">BeanPostProcessor</text><text fill="#000000" font-family="Source Han Serif SC" font-size="18" lengthAdjust="spacing" textLength="5" x="847" y="1108.0253">&#160;</text><text fill="#000000" font-family="Source Han Serif SC" font-size="18" lengthAdjust="spacing" textLength="247" x="660" y="1133.8913">&#26159; Spring &#38750;&#24120;&#37325;&#35201;&#30340;&#25193;&#23637;&#28857;&#65281;</text><text fill="#000000" font-family="Source Han Serif SC" font-size="18" lengthAdjust="spacing" textLength="5" x="660" y="1159.7573">&#160;</text><text fill="#000000" font-family="Source Han Serif SC" font-size="18" lengthAdjust="spacing" textLength="254" x="660" y="1185.6233">&#20381;&#36182;&#27880;&#20837;&#65292;AOP&#20999;&#38754;&#29983;&#25104;&#31561;&#23601;&#26159;</text><text fill="#000000" font-family="Source Han Serif SC" font-size="18" lengthAdjust="spacing" textLength="72" x="660" y="1211.4893">&#36890;&#36807;&#19981;&#21516;</text><text fill="#000000" font-family="JetBrains Mono" font-size="18" lengthAdjust="spacing" textLength="187" x="737" y="1211.2373">BeanPostProcessor</text><text fill="#000000" font-family="Source Han Serif SC" font-size="18" lengthAdjust="spacing" textLength="126" x="660" y="1237.3553">&#23454;&#20363;&#26469;&#23436;&#25104;&#30340;&#12290;</text><line style="stroke:#181818;stroke-width:1.0;" x1="339" x2="381" y1="1331.0233" y2="1331.0233"/><line style="stroke:#181818;stroke-width:1.0;" x1="381" x2="381" y1="1331.0233" y2="1344.0233"/><line style="stroke:#181818;stroke-width:1.0;" x1="340" x2="381" y1="1344.0233" y2="1344.0233"/><polygon fill="#181818" points="350,1340.0233,340,1344.0233,350,1348.0233,346,1344.0233" style="stroke:#181818;stroke-width:1.0;"/><text fill="#000000" font-family="JetBrains Mono" font-size="18" lengthAdjust="spacing" textLength="187" x="346" y="1299.8633">initMessageSource</text><text fill="#000000" font-family="sans-serif" font-size="18" lengthAdjust="spacing" textLength="54" x="346" y="1325.2264">&#21021;&#22987;&#21270;</text><text fill="#000000" font-family="JetBrains Mono" font-size="18" lengthAdjust="spacing" textLength="143" x="406" y="1323.6233">MessageSource</text><path d="M571,1296.8303 L571,1331.8303 L682,1331.8303 L682,1306.8303 L672,1296.8303 L571,1296.8303 " fill="#FEFFDD" style="stroke:#181818;stroke-width:0.5;"/><path d="M672,1296.8303 L672,1306.8303 L682,1306.8303 L672,1296.8303 " fill="#FEFFDD" style="stroke:#181818;stroke-width:0.5;"/><text fill="#000000" font-family="Source Han Serif SC" font-size="18" lengthAdjust="spacing" textLength="90" x="577" y="1322.5483">&#22269;&#38469;&#21270;&#30456;&#20851;</text><line style="stroke:#181818;stroke-width:1.0;" x1="339" x2="381" y1="1427.9825" y2="1427.9825"/><line style="stroke:#181818;stroke-width:1.0;" x1="381" x2="381" y1="1427.9825" y2="1440.9825"/><line style="stroke:#181818;stroke-width:1.0;" x1="340" x2="381" y1="1440.9825" y2="1440.9825"/><polygon fill="#181818" points="350,1436.9825,340,1440.9825,350,1444.9825,346,1440.9825" style="stroke:#181818;stroke-width:1.0;"/><text fill="#000000" font-family="JetBrains Mono" font-size="18" lengthAdjust="spacing" textLength="341" x="346" y="1399.3833">initApplicationEventMulticaster</text><text fill="#000000" font-family="sans-serif" font-size="18" lengthAdjust="spacing" textLength="180" x="346" y="1422.1857">&#21021;&#22987;&#21270;&#24212;&#29992;&#20107;&#20214;&#24191;&#25773;&#22120;</text><line style="stroke:#181818;stroke-width:1.0;" x1="339" x2="381" y1="1514.2285" y2="1514.2285"/><line style="stroke:#181818;stroke-width:1.0;" x1="381" x2="381" y1="1514.2285" y2="1527.2285"/><line style="stroke:#181818;stroke-width:1.0;" x1="340" x2="381" y1="1527.2285" y2="1527.2285"/><polygon fill="#181818" points="350,1523.2285,340,1527.2285,350,1531.2285,346,1527.2285" style="stroke:#181818;stroke-width:1.0;"/><text fill="#000000" font-family="JetBrains Mono" font-size="18" lengthAdjust="spacing" textLength="99" x="346" y="1506.8285">onRefresh</text><path d="M467,1478.9825 L467,1539.9825 L748,1539.9825 L748,1488.9825 L738,1478.9825 L467,1478.9825 " fill="#FEFFDD" style="stroke:#181818;stroke-width:0.5;"/><path d="M738,1478.9825 L738,1488.9825 L748,1488.9825 L738,1478.9825 " fill="#FEFFDD" style="stroke:#181818;stroke-width:0.5;"/><text fill="#000000" font-family="Source Han Serif SC" font-size="18" lengthAdjust="spacing" textLength="176" x="473" y="1504.7005">&#22312; Web &#23481;&#22120;&#20013;&#65292;&#27880;&#20876;</text><text fill="#000000" font-family="JetBrains Mono" font-size="18" lengthAdjust="spacing" textLength="165" x="473" y="1530.3145">DispatchServlet</text><text fill="#000000" font-family="Source Han Serif SC" font-size="18" lengthAdjust="spacing" textLength="90" x="643" y="1530.5665">&#31561;&#20061;&#22823;&#32452;&#20214;</text><line style="stroke:#181818;stroke-width:1.0;" x1="339" x2="381" y1="1634.4932" y2="1634.4932"/><line style="stroke:#181818;stroke-width:1.0;" x1="381" x2="381" y1="1634.4932" y2="1647.4932"/><line style="stroke:#181818;stroke-width:1.0;" x1="340" x2="381" y1="1647.4932" y2="1647.4932"/><polygon fill="#181818" points="350,1643.4932,340,1647.4932,350,1651.4932,346,1647.4932" style="stroke:#181818;stroke-width:1.0;"/><text fill="#000000" font-family="JetBrains Mono" font-size="18" lengthAdjust="spacing" textLength="187" x="346" y="1605.8939">registerListeners</text><text fill="#000000" font-family="sans-serif" font-size="18" lengthAdjust="spacing" textLength="126" x="346" y="1628.6963">&#27880;&#20876;&#20107;&#20214;&#30417;&#21548;&#22120;</text><path d="M555,1575.7145 L555,1662.7145 L957,1662.7145 L957,1585.7145 L947,1575.7145 L555,1575.7145 " fill="#FEFFDD" style="stroke:#181818;stroke-width:0.5;"/><path d="M947,1575.7145 L947,1585.7145 L957,1585.7145 L947,1575.7145 " fill="#FEFFDD" style="stroke:#181818;stroke-width:0.5;"/><text fill="#000000" font-family="Source Han Serif SC" font-size="18" lengthAdjust="spacing" textLength="18" x="561" y="1601.4325">&#23558;</text><text fill="#000000" font-family="JetBrains Mono" font-size="18" lengthAdjust="spacing" textLength="209" x="584" y="1601.1805">ApplicationListener</text><text fill="#000000" font-family="Source Han Serif SC" font-size="18" lengthAdjust="spacing" textLength="144" x="798" y="1601.4325">&#31867;&#22411;&#30340; Bean &#27880;&#20876;</text><text fill="#000000" font-family="Source Han Serif SC" font-size="18" lengthAdjust="spacing" textLength="18" x="561" y="1627.2985">&#21040;</text><text fill="#000000" font-family="JetBrains Mono" font-size="18" lengthAdjust="spacing" textLength="297" x="584" y="1627.0465">ApplicationEventMulticaster</text><text fill="#000000" font-family="Source Han Serif SC" font-size="18" lengthAdjust="spacing" textLength="36" x="886" y="1627.2985">&#20013;&#65292;</text><text fill="#000000" font-family="Source Han Serif SC" font-size="18" lengthAdjust="spacing" textLength="342" x="561" y="1653.1645">&#21518;&#32493;&#23481;&#22120;&#21551;&#21160;&#23436;&#25104;&#20107;&#20214;&#21363;&#30001;&#27492;&#24191;&#25773;&#24182;&#22788;&#29702;&#12290;</text><line style="stroke:#181818;stroke-width:1.0;" x1="339" x2="381" y1="1744.2718" y2="1744.2718"/><line style="stroke:#181818;stroke-width:1.0;" x1="381" x2="381" y1="1744.2718" y2="1757.2718"/><line style="stroke:#181818;stroke-width:1.0;" x1="340" x2="381" y1="1757.2718" y2="1757.2718"/><polygon fill="#181818" points="350,1753.2718,340,1757.2718,350,1761.2718,346,1757.2718" style="stroke:#181818;stroke-width:1.0;"/><text fill="#000000" font-family="JetBrains Mono" font-size="18" lengthAdjust="spacing" textLength="341" x="346" y="1715.6725">finishBeanFactoryInitialization</text><text fill="#000000" font-family="sans-serif" font-size="18" lengthAdjust="spacing" textLength="108" x="346" y="1738.4749">&#23436;&#25104;&#39044;&#21021;&#22987;&#21270;</text><path d="M709,1698.4262 L709,1759.4262 L874,1759.4262 L874,1708.4262 L864,1698.4262 L709,1698.4262 " fill="#FEFFDD" style="stroke:#181818;stroke-width:0.5;"/><path d="M864,1698.4262 L864,1708.4262 L874,1708.4262 L864,1698.4262 " fill="#FEFFDD" style="stroke:#181818;stroke-width:0.5;"/><text fill="#000000" font-family="Source Han Serif SC" font-size="18" lengthAdjust="spacing" textLength="126" x="715" y="1724.1442">&#23436;&#25104;&#38750;&#25042;&#21152;&#36733;&#30340;</text><text fill="#000000" font-family="Source Han Serif SC" font-size="18" lengthAdjust="spacing" textLength="144" x="715" y="1750.0102">&#21333;&#20363; Bean &#23454;&#20363;&#21270;</text><line style="stroke:#181818;stroke-width:1.0;" x1="339" x2="381" y1="1841.231" y2="1841.231"/><line style="stroke:#181818;stroke-width:1.0;" x1="381" x2="381" y1="1841.231" y2="1854.231"/><line style="stroke:#181818;stroke-width:1.0;" x1="340" x2="381" y1="1854.231" y2="1854.231"/><polygon fill="#181818" points="350,1850.231,340,1854.231,350,1858.231,346,1854.231" style="stroke:#181818;stroke-width:1.0;"/><text fill="#000000" font-family="JetBrains Mono" font-size="18" lengthAdjust="spacing" textLength="143" x="346" y="1812.6318">finishRefresh</text><text fill="#000000" font-family="sans-serif" font-size="18" lengthAdjust="spacing" textLength="72" x="346" y="1835.4341">&#23436;&#25104;&#37325;&#22609;</text><path d="M511,1795.3854 L511,1856.3854 L802,1856.3854 L802,1805.3854 L792,1795.3854 L511,1795.3854 " fill="#FEFFDD" style="stroke:#181818;stroke-width:0.5;"/><path d="M792,1795.3854 L792,1805.3854 L802,1805.3854 L792,1795.3854 " fill="#FEFFDD" style="stroke:#181818;stroke-width:0.5;"/><text fill="#000000" font-family="Source Han Serif SC" font-size="18" lengthAdjust="spacing" textLength="234" x="517" y="1821.1034">&#21024;&#38500;&#19968;&#20123;&#19981;&#24517;&#35201;&#30340;&#37197;&#32622;&#20449;&#24687;&#12290;</text><text fill="#000000" font-family="Source Han Serif SC" font-size="18" lengthAdjust="spacing" textLength="270" x="517" y="1846.9694">&#26368;&#21518;&#65292;&#24191;&#25773;&#23481;&#22120;&#21551;&#21160;&#23436;&#25104;&#30340;&#28040;&#24687;&#12290;</text><polygon fill="#181818" points="168,1910.4302,158,1914.4302,168,1918.4302,164,1914.4302" style="stroke:#181818;stroke-width:1.0;"/><line style="stroke:#181818;stroke-width:1.0;" x1="162" x2="333" y1="1914.4302" y2="1914.4302"/><text fill="#000000" font-family="sans-serif" font-size="18" lengthAdjust="spacing" textLength="126" x="174" y="1908.6333">&#23436;&#25104;&#23481;&#22120;&#21021;&#22987;&#21270;</text><text fill="#888888" font-family="sans-serif" font-size="20" lengthAdjust="spacing" textLength="67" x="625" y="27.1812">D&#29916;&#21733; &#183;</text><text fill="#888888" font-family="JetBrains Mono" font-size="20" lengthAdjust="spacing" textLength="276" x="698" y="25.4">https://www.diguage.com</text><text fill="#E22D30" font-family="Source Han Serif SC" font-size="20" lengthAdjust="spacing" textLength="67" x="284.5" y="2036.6494">D&#29916;&#21733; &#183;</text><text fill="#E22D30" font-family="JetBrains Mono" font-size="20" lengthAdjust="spacing" textLength="276" x="356.5" y="2036.3694">https://www.diguage.com</text><text fill="#E22D30" font-family="Source Han Serif SC" font-size="20" lengthAdjust="spacing" textLength="52" x="637.5" y="2036.6494">&#183; &#20986;&#21697;</text><!--SRC=[hLVTJnfP57_dhxZ1brspsgffiskC2NvbtQoxPjraNtmPuQ8JSOOCesuR7y3ALmLAAx9LX5QBrIRoOToru6VIVwLpP-39Vs7FdHaG1a6JmWFYtFFnE-VyphbdNFCivsG4Pi71M-Un3TcmdLbqY6Cy9qwnpp7g-T7aCeY8hEZ0LO6-fmq2SvYnOQ4gqVkuGSBEy-939OPv1o-W3jpRQ-jxt1pCRym2HbFyec35w6U6GrCCvq9JmmqA7DYzKnuBhFqkXLia3rRHapZ1SxpBoLYnhQhz2nQ718O5QFJGf6KAZIWREsHZ7ttvZCpcEL5qkleVFLfUNkwsiREBp2pkjl8BPhF9f0QBEZlDPikCInGOgsXnEXsibH5PdXi67_XliLl0TW6xvincrDM5olumsNrDiaMoTTZPQJAPG0UoQQ7V9e0iibRMoN0YQcuG3GoWxuP_wB2CZFGCzNwF1WVh58SmmusfLfzDyYvnKk2jsEK27rHj7DI6VXePxL7LJAfRr3NOmbi_PA0QmJHNYvzYPvSO4RTGDvbGgr3kTUqKC0I7_xX5GFm-alOhaHpPUq6jhwoiVAiJVaO42enH3pNPeyvAaS_aLRpc8NYYX4K2Epi7kkJb-zBb9IcUbWu-oAbesHjMBhDot2-TdxO9cvu00ouj2N1Szzm8xlfIsTmdqJNb88mios05oP5zykg3ihqcdnmIx_xDHO94G_8_fpSNeMcEFlE5f89REakGQs_femS4LJx1iPoBaO-hHezVtQljYlEMgyPOSqMZMqGysoGQaNVUaVIQ4lKP0aVblJLbSqiEVYB7cyfgKOrEIMH9C2o_pIcVpaWsfKJoRKBESalyF6xMTYwLHlaNIkomFeewAGY9vdgQQvu89CUByiacW7r0sw6E9tsZJtgUqjWGSl2y4wPKsHCc4PySTCixmTPO83_IrJhC9wH-McUdcPtMLPKJ_yhnl3P8YC-hMg4v8DbjgHYykGYGlHHqrrUtXmJUbxVIy4EwpienA6PGXrNDGpC4kfnA3GUsGrR6nYpmwMyPFM1xcqDJJe7bPf46i9nCaK81Pf_M4pN4yanpmD2h04blAqT7KY58gxJharEdvOHF3aIhTlB7O1LO63i40wNSVYqvzTwQU3Pa-NDyIkyf-j7PUKyD1hfQr81aGnI6cbujjpG0DVcwPHj-Q28f7FeNSxPlQHfJdS_MTqSR-bF0iwmBDWOQN6DhQaDF9uI12NLZnKWUOy_KqUOUmaXNoT9_ySeC3bb-doG1VpcvfyJUGR6KJB12bx9xktJjbmfX6DDt-mNsgSqg9_UrKeExzarbbcF52V04Eu-sPwaE0qboi4v2SH0m71fleCHbUSiBaagYGBmdRGHLSpAwX3bn0jOx-9_MkGuYEOj1oqbdwt0Za-Ar_2P35vSshGrSTIqnnhrpYFx2C_hqa0ePskGgqUY47s5X2HMjSx2kBZcmI6T_9YWLaoHze9oljMzrg13_L_hDuLg-QmbH4gz9z8Wcn00_xmFr6gCL2nJgyJb9hLSM0rI9YWJozIgDLK5Q7a0s6b7EC_heZ-R8oqEDkNgLmYTAx5ZEfFLo5K-rExvzfBO3WUeslN4W5CiusEUgfDPJ512i4LKY6LEa2IHJil-DjWH2Ia0ll0czM9csj2-fQZjXrsx26WPr8pV2K-zCRPMZqwEopMaBgdIzAtjoa52WmuuRoW5bqRFTK1GwlKu3cdWr4Esz0UwTLeWrVTrYDOqFdFpQIzu3NyJeCV6VaGtF_m00]--></g></svg>