<svg height="961" preserveAspectRatio="none" width="1697" xmlns="http://www.w3.org/2000/svg" xmlns:xlink="http://www.w3.org/1999/xlink"><filter id="a" height="300%" width="300%" x="-1" y="-1"><feGaussianBlur result="blurOut" stdDeviation="2"/><feColorMatrix in="blurOut" result="blurOut2" values="0 0 0 0 0 0 0 0 0 0 0 0 0 0 0 0 0 0 .4 0"/><feOffset dx="4" dy="4" in="blurOut2" result="blurOut3"/><feBlend in="SourceGraphic" in2="blurOut3"/></filter><text font-family="sans-serif" font-size="18" font-weight="bold" lengthAdjust="spacingAndGlyphs" textLength="534" x="572.75" y="16.708">AnnotationAwareAspectJAutoProxyCreator 继承体系</text><path d="m127.5 27.953h563v73.609h-563z" fill="#fefece" filter="url(#a)" stroke="#a80036" stroke-width="1.5"/><ellipse cx="348.75" cy="43.953" fill="#b4a7e5" rx="11" ry="11" stroke="#a80036"/><path d="m349.703 40.734h1.719c.39 0 .578-.03.703-.109a.838.838 0 0 0 .406-.734.858.858 0 0 0 -.344-.703c-.171-.11-.312-.141-.765-.141h-5.14c-.438 0-.563.016-.72.11a.893.893 0 0 0 -.406.734c0 .28.14.53.36.703.156.11.343.14.765.14h1.719v6.516h-1.719c-.437 0-.562.016-.719.125a.872.872 0 0 0 -.406.734c0 .25.14.516.36.672.156.125.359.172.765.172h5.14c.75 0 1.11-.281 1.11-.844a.838.838 0 0 0 -.344-.703c-.171-.125-.312-.156-.765-.156h-1.719z"/><text font-family="sans-serif" font-size="12" font-style="italic" lengthAdjust="spacingAndGlyphs" textLength="112" x="369.25" y="48.107">BeanPostProcessor</text><path d="m128.5 59.953h561m-561 8h561" stroke="#a80036" stroke-width="1.5"/><ellipse cx="138.5" cy="78.953" fill="#84be84" rx="3" ry="3" stroke="#038048"/><text font-family="sans-serif" font-size="11" lengthAdjust="spacingAndGlyphs" textLength="537" x="147.5" y="82.164">Object postProcessBeforeInitialization(Object bean, String beanName) throws BeansException</text><ellipse cx="138.5" cy="91.758" fill="#84be84" rx="3" ry="3" stroke="#038048"/><text font-family="sans-serif" font-size="11" lengthAdjust="spacingAndGlyphs" textLength="526" x="147.5" y="94.968">Object postProcessAfterInitialization(Object bean, String beanName) throws BeansException</text><path d="m7 200.453h804v99.219h-804z" fill="#fefece" filter="url(#a)" stroke="#a80036" stroke-width="1.5"/><ellipse cx="292.25" cy="216.453" fill="#b4a7e5" rx="11" ry="11" stroke="#a80036"/><path d="m293.203 213.234h1.719c.39 0 .578-.03.703-.109a.838.838 0 0 0 .406-.734.858.858 0 0 0 -.344-.703c-.171-.11-.312-.141-.765-.141h-5.14c-.438 0-.563.016-.72.11a.893.893 0 0 0 -.406.734c0 .28.14.53.36.703.156.11.343.14.765.14h1.719v6.516h-1.719c-.437 0-.562.016-.719.125a.872.872 0 0 0 -.406.734c0 .25.14.516.36.672.156.125.359.172.765.172h5.14c.75 0 1.11-.281 1.11-.844a.838.838 0 0 0 -.344-.703c-.171-.125-.312-.156-.765-.156h-1.719z"/><text font-family="sans-serif" font-size="12" font-style="italic" lengthAdjust="spacingAndGlyphs" textLength="225" x="312.75" y="220.607">InstantiationAwareBeanPostProcessor</text><path d="m8 232.453h802m-802 8h802" stroke="#a80036" stroke-width="1.5"/><ellipse cx="18" cy="251.453" fill="#84be84" rx="3" ry="3" stroke="#038048"/><text font-family="sans-serif" font-size="11" lengthAdjust="spacingAndGlyphs" textLength="522" x="27" y="254.664">Object postProcessBeforeInstantiation(Class&lt;?&gt;, String beanName) throws BeansException</text><ellipse cx="18" cy="264.258" fill="#84be84" rx="3" ry="3" stroke="#038048"/><text font-family="sans-serif" font-size="11" lengthAdjust="spacingAndGlyphs" textLength="536" x="27" y="267.468">boolean postProcessAfterInstantiation(Object bean, String beanName) throws BeansException</text><ellipse cx="18" cy="277.063" fill="#84be84" rx="3" ry="3" stroke="#038048"/><text font-family="sans-serif" font-size="11" lengthAdjust="spacingAndGlyphs" textLength="629" x="27" y="280.273">PropertyValues postProcessProperties(PropertyValues, Object bean, String beanName) throws BeansException</text><ellipse cx="18" cy="289.867" fill="#84be84" rx="3" ry="3" stroke="#038048"/><text font-family="sans-serif" font-size="11" lengthAdjust="spacingAndGlyphs" textLength="778" x="27" y="293.078">PropertyValues postProcessPropertyValues(PropertyValues, PropertyDescriptor[], Object bean, String beanName) throws BeansException</text><path d="m785.5 410.453h359v60.805h-359z" fill="#fefece" filter="url(#a)" stroke="#a80036" stroke-width="1.5"/><ellipse cx="904.75" cy="426.453" fill="#b4a7e5" rx="11" ry="11" stroke="#a80036"/><path d="m905.703 423.234h1.719c.39 0 .578-.03.703-.109a.838.838 0 0 0 .406-.734.858.858 0 0 0 -.343-.704c-.172-.109-.313-.14-.766-.14h-5.14c-.438 0-.563.015-.72.11a.893.893 0 0 0 -.406.734c0 .28.14.53.36.703.156.11.343.14.765.14h1.719v6.516h-1.719c-.437 0-.562.016-.718.125a.872.872 0 0 0 -.407.734c0 .25.14.516.36.672.156.125.359.172.765.172h5.14c.75 0 1.11-.281 1.11-.844a.838.838 0 0 0 -.343-.703c-.172-.125-.313-.156-.766-.156h-1.719z"/><text font-family="sans-serif" font-size="12" font-style="italic" lengthAdjust="spacingAndGlyphs" textLength="112" x="925.25" y="430.607">BeanFactoryAware</text><path d="m786.5 442.453h357m-357 8h357" stroke="#a80036" stroke-width="1.5"/><ellipse cx="796.5" cy="461.453" fill="#84be84" rx="3" ry="3" stroke="#038048"/><text font-family="sans-serif" font-size="11" lengthAdjust="spacingAndGlyphs" textLength="333" x="805.5" y="464.664">void setBeanFactory(BeanFactory) throws BeansException</text><path d="m967.5 40.953h69v48h-69z" fill="#fefece" filter="url(#a)" stroke="#a80036" stroke-width="1.5"/><ellipse cx="982.5" cy="56.953" fill="#b4a7e5" rx="11" ry="11" stroke="#a80036"/><path d="m983.453 53.734h1.719c.39 0 .578-.03.703-.109a.838.838 0 0 0 .406-.734.858.858 0 0 0 -.343-.703c-.172-.11-.313-.141-.766-.141h-5.14c-.438 0-.563.016-.72.11a.893.893 0 0 0 -.406.734c0 .28.14.53.36.703.156.11.343.14.765.14h1.719v6.516h-1.719c-.437 0-.562.016-.718.125a.872.872 0 0 0 -.407.734c0 .25.14.516.36.672.156.125.359.172.765.172h5.14c.75 0 1.11-.281 1.11-.844a.838.838 0 0 0 -.343-.703c-.172-.125-.313-.156-.766-.156h-1.719z"/><text font-family="sans-serif" font-size="12" font-style="italic" lengthAdjust="spacingAndGlyphs" textLength="37" x="996.5" y="61.107">Aware</text><g stroke="#a80036"><path d="m968.5 72.953h67m-67 8h67" stroke-width="1.5"/><path d="m967 219.453h248v60.805h-248z" fill="#fefece" filter="url(#a)" stroke-width="1.5"/><ellipse cx="1017.75" cy="235.453" fill="#b4a7e5" rx="11" ry="11"/></g><path d="m1018.703 232.234h1.719c.39 0 .578-.03.703-.109a.838.838 0 0 0 .406-.734.858.858 0 0 0 -.343-.703c-.172-.11-.313-.141-.766-.141h-5.14c-.438 0-.563.016-.72.11a.893.893 0 0 0 -.406.734c0 .28.14.53.36.703.156.11.343.14.765.14h1.719v6.516h-1.719c-.437 0-.562.016-.718.125a.872.872 0 0 0 -.407.734c0 .25.14.516.36.672.156.125.359.172.765.172h5.14c.75 0 1.11-.281 1.11-.844a.838.838 0 0 0 -.343-.703c-.172-.125-.313-.156-.766-.156h-1.719z"/><text font-family="sans-serif" font-size="12" font-style="italic" lengthAdjust="spacingAndGlyphs" textLength="138" x="1038.25" y="239.607">BeanClassLoaderAware</text><path d="m968 251.453h246m-246 8h246" stroke="#a80036" stroke-width="1.5"/><ellipse cx="978" cy="270.453" fill="#84be84" rx="3" ry="3" stroke="#038048"/><text font-family="sans-serif" font-size="11" lengthAdjust="spacingAndGlyphs" textLength="222" x="987" y="273.664">void setBeanClassLoader(ClassLoader)</text><path d="m67.5 397.953h683v86.414h-683z" fill="#fefece" filter="url(#a)" stroke="#a80036" stroke-width="1.5"/><ellipse cx="273.75" cy="413.953" fill="#b4a7e5" rx="11" ry="11" stroke="#a80036"/><path d="m274.703 410.734h1.719c.39 0 .578-.03.703-.109a.838.838 0 0 0 .406-.734.858.858 0 0 0 -.344-.704c-.171-.109-.312-.14-.765-.14h-5.14c-.438 0-.563.015-.72.11a.893.893 0 0 0 -.406.734c0 .28.14.53.36.703.156.11.343.14.765.14h1.719v6.516h-1.719c-.437 0-.562.016-.719.125a.872.872 0 0 0 -.406.734c0 .25.14.516.36.672.156.125.359.172.765.172h5.14c.75 0 1.11-.281 1.11-.844a.838.838 0 0 0 -.344-.703c-.171-.125-.312-.156-.765-.156h-1.719z"/><text font-family="sans-serif" font-size="12" font-style="italic" lengthAdjust="spacingAndGlyphs" textLength="262" x="294.25" y="418.107">SmartInstantiationAwareBeanPostProcessor</text><path d="m68.5 429.953h681m-681 8h681" stroke="#a80036" stroke-width="1.5"/><ellipse cx="78.5" cy="448.953" fill="#84be84" rx="3" ry="3" stroke="#038048"/><text font-family="sans-serif" font-size="11" lengthAdjust="spacingAndGlyphs" textLength="525" x="87.5" y="452.164">Class&lt;?&gt; predictBeanType(Class&lt;?&gt; beanClass, String beanName) throws BeansException</text><ellipse cx="78.5" cy="461.758" fill="#84be84" rx="3" ry="3" stroke="#038048"/><text font-family="sans-serif" font-size="11" lengthAdjust="spacingAndGlyphs" textLength="657" x="87.5" y="464.968">Constructor&lt;?&gt;[] determineCandidateConstructors(Class&lt;?&gt; beanClass, String beanName) throws BeansException</text><ellipse cx="78.5" cy="474.563" fill="#84be84" rx="3" ry="3" stroke="#038048"/><text font-family="sans-serif" font-size="11" lengthAdjust="spacingAndGlyphs" textLength="500" x="87.5" y="477.773">Object getEarlyBeanReference(Object bean, String beanName) throws BeansException</text><path d="m1250 161.953h224v176.047h-224z" fill="#fefece" filter="url(#a)" stroke="#a80036" stroke-width="1.5"/><ellipse cx="1322.25" cy="177.953" fill="#add1b2" rx="11" ry="11" stroke="#a80036"/><path d="m1324.594 173.625c-.938-.438-1.532-.578-2.407-.578-2.624 0-4.624 2.078-4.624 4.797v1.125c0 2.578 2.109 4.469 5 4.469 1.218 0 2.374-.297 3.124-.844.579-.406.907-.86.907-1.25a.864.864 0 0 0 -.86-.844.831.831 0 0 0 -.609.266c-.453.484-.453.484-.64.578-.422.265-1.11.39-1.876.39-2.046 0-3.343-1.093-3.343-2.797v-1.093c0-1.781 1.25-3.094 2.984-3.094.578 0 1.188.156 1.656.406.485.281.657.5.75.906.063.407.094.532.235.657.14.14.375.25.593.25a.92.92 0 0 0 .704-.36c.109-.156.14-.343.14-.765v-1.422c0-.438-.015-.563-.11-.719a.838.838 0 0 0 -.734-.406c-.296 0-.5.094-.718.406z"/><text font-family="sans-serif" font-size="12" lengthAdjust="spacingAndGlyphs" textLength="71" x="1342.75" y="182.107">ProxyConfig</text><path d="m1251 193.953h222m-222 8h222" stroke="#a80036" stroke-width="1.5"/><ellipse cx="1261" cy="212.953" fill="#84be84" rx="3" ry="3" stroke="#038048"/><text font-family="sans-serif" font-size="11" lengthAdjust="spacingAndGlyphs" textLength="198" x="1270" y="216.164">void setProxyTargetClass(boolean)</text><ellipse cx="1261" cy="225.758" fill="#84be84" rx="3" ry="3" stroke="#038048"/><text font-family="sans-serif" font-size="11" lengthAdjust="spacingAndGlyphs" textLength="165" x="1270" y="228.968">boolean isProxyTargetClass()</text><ellipse cx="1261" cy="238.563" fill="#84be84" rx="3" ry="3" stroke="#038048"/><text font-family="sans-serif" font-size="11" lengthAdjust="spacingAndGlyphs" textLength="152" x="1270" y="241.773">void setOptimize(boolean)</text><ellipse cx="1261" cy="251.367" fill="#84be84" rx="3" ry="3" stroke="#038048"/><text font-family="sans-serif" font-size="11" lengthAdjust="spacingAndGlyphs" textLength="119" x="1270" y="254.578">boolean isOptimize()</text><ellipse cx="1261" cy="264.172" fill="#84be84" rx="3" ry="3" stroke="#038048"/><text font-family="sans-serif" font-size="11" lengthAdjust="spacingAndGlyphs" textLength="145" x="1270" y="267.382">void setOpaque(boolean)</text><ellipse cx="1261" cy="276.977" fill="#84be84" rx="3" ry="3" stroke="#038048"/><text font-family="sans-serif" font-size="11" lengthAdjust="spacingAndGlyphs" textLength="112" x="1270" y="280.187">boolean isOpaque()</text><ellipse cx="1261" cy="289.781" fill="#84be84" rx="3" ry="3" stroke="#038048"/><text font-family="sans-serif" font-size="11" lengthAdjust="spacingAndGlyphs" textLength="173" x="1270" y="292.992">void setExposeProxy(boolean)</text><ellipse cx="1261" cy="302.586" fill="#84be84" rx="3" ry="3" stroke="#038048"/><text font-family="sans-serif" font-size="11" lengthAdjust="spacingAndGlyphs" textLength="140" x="1270" y="305.796">boolean isExposeProxy()</text><ellipse cx="1261" cy="315.391" fill="#84be84" rx="3" ry="3" stroke="#038048"/><text font-family="sans-serif" font-size="11" lengthAdjust="spacingAndGlyphs" textLength="139" x="1270" y="318.601">void setFrozen(boolean)</text><ellipse cx="1261" cy="328.195" fill="#84be84" rx="3" ry="3" stroke="#038048"/><text font-family="sans-serif" font-size="11" lengthAdjust="spacingAndGlyphs" textLength="106" x="1270" y="331.406">boolean isFrozen()</text><path d="m1202 416.953h174v48h-174z" fill="#fefece" filter="url(#a)" stroke="#a80036" stroke-width="1.5"/><ellipse cx="1217" cy="432.953" fill="#add1b2" rx="11" ry="11" stroke="#a80036"/><path d="m1219.344 428.625c-.938-.438-1.532-.578-2.407-.578-2.624 0-4.624 2.078-4.624 4.797v1.125c0 2.578 2.109 4.469 5 4.469 1.218 0 2.374-.297 3.124-.844.579-.406.907-.86.907-1.25a.864.864 0 0 0 -.86-.844.831.831 0 0 0 -.609.266c-.453.484-.453.484-.64.578-.422.265-1.11.39-1.876.39-2.046 0-3.343-1.093-3.343-2.796v-1.094c0-1.781 1.25-3.094 2.984-3.094.578 0 1.188.156 1.656.406.485.281.657.5.75.906.063.407.094.532.235.657.14.14.375.25.593.25a.92.92 0 0 0 .704-.36c.109-.156.14-.343.14-.765v-1.422c0-.438-.015-.563-.11-.719a.838.838 0 0 0 -.734-.406c-.296 0-.5.094-.718.406z"/><text font-family="sans-serif" font-size="12" lengthAdjust="spacingAndGlyphs" textLength="142" x="1231" y="437.107">ProxyProcessorSupport</text><path d="m1203 448.953h172m-172 8h172" stroke="#a80036" stroke-width="1.5"/><path d="m1509.5 225.953h169v48h-169z" fill="#fefece" filter="url(#a)" stroke="#a80036" stroke-width="1.5"/><ellipse cx="1524.5" cy="241.953" fill="#b4a7e5" rx="11" ry="11" stroke="#a80036"/><path d="m1525.453 238.734h1.719c.39 0 .578-.03.703-.109a.838.838 0 0 0 .406-.734.858.858 0 0 0 -.343-.703c-.172-.11-.313-.141-.766-.141h-5.14c-.438 0-.563.016-.72.11a.893.893 0 0 0 -.406.734c0 .28.14.53.36.703.156.11.343.14.765.14h1.719v6.516h-1.719c-.437 0-.562.016-.718.125a.872.872 0 0 0 -.407.734c0 .25.14.516.36.672.156.125.359.172.765.172h5.14c.75 0 1.11-.281 1.11-.844a.838.838 0 0 0 -.343-.703c-.172-.125-.313-.156-.766-.156h-1.719z"/><text font-family="sans-serif" font-size="12" font-style="italic" lengthAdjust="spacingAndGlyphs" textLength="137" x="1538.5" y="246.107">AopInfrastructureBean</text><path d="m1510.5 257.953h167m-167 8h167" stroke="#a80036" stroke-width="1.5"/><path d="m871 543.953h188v48h-188z" fill="#fefece" filter="url(#a)" stroke="#a80036" stroke-width="1.5"/><ellipse cx="886" cy="559.953" fill="#a9dcdf" rx="11" ry="11" stroke="#a80036"/><path d="m888.078 561.766.39.984h-.39c-.453 0-.562.016-.719.125a.872.872 0 0 0 -.406.734c0 .266.14.516.36.672.14.125.343.172.765.172h2.36c.359 0 .578-.031.718-.125a.846.846 0 0 0 .407-.719.844.844 0 0 0 -.36-.687c-.172-.14-.328-.172-.797-.172l-3.39-8.203h-3.672c-.453 0-.578.015-.735.11a.915.915 0 0 0 -.406.734c0 .28.14.53.36.703.171.11.343.14.78.14h1.079l-2.64 6.516c-.423 0-.579.016-.735.125a.872.872 0 0 0 -.406.734c0 .563.375.844 1.125.844h2.265c.36 0 .578-.031.703-.125.266-.14.407-.437.407-.719a.88.88 0 0 0 -.344-.703c-.172-.125-.313-.156-.766-.156h-.39l.39-.984zm-.703-1.703h-2.672l1.344-3.266 1.328 3.265z"/><text font-family="sans-serif" font-size="12" font-style="italic" lengthAdjust="spacingAndGlyphs" textLength="156" x="900" y="564.107">AbstractAutoProxyCreator</text><path d="m872 575.953h186m-186 8h186" stroke="#a80036" stroke-width="1.5"/><path d="m849 651.953h232v48h-232z" fill="#fefece" filter="url(#a)" stroke="#a80036" stroke-width="1.5"/><ellipse cx="864" cy="667.953" fill="#a9dcdf" rx="11" ry="11" stroke="#a80036"/><path d="m866.078 669.766.39.984h-.39c-.453 0-.562.016-.719.125a.872.872 0 0 0 -.406.734c0 .266.14.516.36.672.14.125.343.172.765.172h2.36c.359 0 .578-.031.718-.125a.846.846 0 0 0 .407-.719.844.844 0 0 0 -.36-.687c-.172-.14-.328-.172-.797-.172l-3.39-8.203h-3.672c-.453 0-.578.015-.735.11a.915.915 0 0 0 -.406.734c0 .28.14.53.36.703.171.11.343.14.78.14h1.079l-2.64 6.516c-.423 0-.579.016-.735.125a.872.872 0 0 0 -.406.734c0 .563.375.844 1.125.844h2.265c.36 0 .578-.031.703-.125.266-.14.407-.437.407-.719a.88.88 0 0 0 -.344-.703c-.172-.125-.313-.156-.766-.156h-.39l.39-.984zm-.703-1.703h-2.672l1.344-3.266 1.328 3.265z"/><text font-family="sans-serif" font-size="12" font-style="italic" lengthAdjust="spacingAndGlyphs" textLength="200" x="878" y="672.107">AbstractAdvisorAutoProxyCreator</text><path d="m850 683.953h230m-230 8h230" stroke="#a80036" stroke-width="1.5"/><path d="m831.5 759.953h267v48h-267z" fill="#fefece" filter="url(#a)" stroke="#a80036" stroke-width="1.5"/><ellipse cx="846.5" cy="775.953" fill="#add1b2" rx="11" ry="11" stroke="#a80036"/><path d="m848.844 771.625c-.938-.438-1.532-.578-2.407-.578-2.625 0-4.625 2.078-4.625 4.797v1.125c0 2.578 2.11 4.468 5 4.468 1.22 0 2.375-.296 3.125-.843.579-.407.907-.86.907-1.25a.864.864 0 0 0 -.86-.844.831.831 0 0 0 -.609.266c-.453.484-.453.484-.64.578-.423.265-1.11.39-1.876.39-2.047 0-3.343-1.093-3.343-2.797v-1.093c0-1.782 1.25-3.094 2.984-3.094.578 0 1.188.156 1.656.406.485.282.657.5.75.907.063.406.094.53.235.656.14.14.375.25.593.25a.92.92 0 0 0 .703-.36c.11-.156.141-.343.141-.765v-1.422c0-.438-.015-.563-.11-.719a.838.838 0 0 0 -.734-.406c-.297 0-.5.094-.718.406z"/><text font-family="sans-serif" font-size="12" lengthAdjust="spacingAndGlyphs" textLength="235" x="860.5" y="780.107">AspectJAwareAdvisorAutoProxyCreator</text><path d="m832.5 791.953h265m-265 8h265" stroke="#a80036" stroke-width="1.5"/><path d="m823 867.953h284v48h-284z" fill="#fefece" filter="url(#a)" stroke="#a80036" stroke-width="1.5"/><ellipse cx="838" cy="883.953" fill="#add1b2" rx="11" ry="11" stroke="#a80036"/><path d="m840.344 879.625c-.938-.438-1.532-.578-2.407-.578-2.625 0-4.625 2.078-4.625 4.797v1.125c0 2.578 2.11 4.468 5 4.468 1.22 0 2.375-.296 3.125-.843.579-.407.907-.86.907-1.25a.864.864 0 0 0 -.86-.844.831.831 0 0 0 -.609.266c-.453.484-.453.484-.64.578-.423.265-1.11.39-1.876.39-2.047 0-3.343-1.093-3.343-2.797v-1.093c0-1.782 1.25-3.094 2.984-3.094.578 0 1.188.156 1.656.406.485.282.657.5.75.907.063.406.094.53.235.656.14.14.375.25.593.25a.92.92 0 0 0 .703-.36c.11-.156.141-.343.141-.765v-1.422c0-.438-.015-.563-.11-.719a.838.838 0 0 0 -.734-.406c-.297 0-.5.094-.718.406z"/><text font-family="sans-serif" font-size="12" lengthAdjust="spacingAndGlyphs" textLength="252" x="852" y="888.107">AnnotationAwareAspectJAutoProxyCreator</text><g stroke="#a80036"><path d="m824 899.953h282m-282 8h282" stroke-width="1.5"/><g fill="none"><path d="m409 122.34v78.057m-7-78.289 7-20 7 20zm571.944-16.066c-9.941 16.522-19.904 36.355-24.944 55.911-22.681 88.011-3.42 196.683 8.412 248.205m10.787-308.124 16.696-13.048-4.915 20.612zm53.971 5.386c16.57 34.078 39.65 81.528 54.41 111.89m-60.86-109.133-2.45-21.047 15.04 14.924zm-606.72 209.635v78.053m-7-78.24 7-20 7 20zm919.14 37.115a248187.6 248187.6 0 0 1 -23.25 60.193m16.76-62.814 13.73-16.134-.67 21.18z"/><path d="m1136.61 294.49c39.94 38.125 96.42 92.04 128.21 122.382" stroke-dasharray="7 7"/><path d="m1131.57 299.357-9.63-18.873 19.3 8.746z"/><path d="m1555.3 287.816c-18.36 16.453-41.1 35.405-63.3 50.137-47.65 31.624-106.45 60.147-148.48 78.937" stroke-dasharray="7 7"/><path d="m1550.71 282.528 19.47-8.358-10.01 18.676zm-340.49 189.819c-57.16 22.054-133.31 51.43-185.49 71.562m183.29-78.215 21.18-.668-16.14 13.73z"/><path d="m615.772 488.44 255.195 57.372" stroke-dasharray="7 7"/><path d="m614.051 495.227-17.977-11.216 21.048-2.443-3.071 13.66z"/><path d="m965 491.655v52.132" stroke-dasharray="7 7"/><path d="m958 491.576 7-20 7 20zm7 120.401v39.654m-7-39.678 7-20 7 20zm7 108.024v39.654m-7-39.678 7-20 7 20zm7 108.024v39.654m-7-39.677 7-20 7 20z"/></g></g><text fill="#888" font-family="sans-serif" font-size="20" lengthAdjust="spacingAndGlyphs" textLength="479" x="600.25" y="947.518">''地瓜哥''博客网 · https://www.diguage.com · 出品</text></svg>