<svg xmlns="http://www.w3.org/2000/svg" xmlns:xlink="http://www.w3.org/1999/xlink" contentStyleType="text/css" height="775px" preserveAspectRatio="none" style="width:2724px;height:775px;background:#FFFFFF;" version="1.1" viewBox="0 0 2724 775" width="2724px" zoomAndPan="magnify"><defs/><g><text fill="#888888" font-family="sans-serif" font-size="20" lengthAdjust="spacing" textLength="67" x="2361" y="22.1812">D&#29916;&#21733; &#183;</text><text fill="#888888" font-family="JetBrains Mono" font-size="20" lengthAdjust="spacing" textLength="276" x="2434" y="20.4">https://www.diguage.com</text><text fill="#000000" font-family="Source Han Sans SC" font-size="36" font-weight="bold" lengthAdjust="spacing" textLength="608" x="1051" y="79.16">BeanFactoryPostProcessor &#32487;&#25215;&#20851;&#31995;</text><!--class BeanFactoryPostProcessor--><g id="elem_BeanFactoryPostProcessor"><rect codeLine="4" fill="#F1F1F1" height="71.1992" id="BeanFactoryPostProcessor" rx="2.5" ry="2.5" style="stroke:#181818;stroke-width:0.5;" width="681" x="939" y="107.528"/><ellipse cx="1163" cy="124.528" fill="#B4A7E5" rx="12" ry="12" style="stroke:#181818;stroke-width:1.0;"/><path d="M1159.0117,120.4411 L1159.0117,118.1559 L1166.8252,118.1559 L1166.8252,120.4411 L1164.2148,120.4411 L1164.2148,128.9928 L1166.8252,128.9928 L1166.8252,131.278 L1159.0117,131.278 L1159.0117,128.9928 L1161.6221,128.9928 L1161.6221,120.4411 Z " fill="#000000"/><text fill="#000000" font-family="sans-serif" font-size="18" font-style="italic" lengthAdjust="spacing" textLength="224" x="1185" y="131.3307">BeanFactoryPostProcessor</text><line style="stroke:#181818;stroke-width:0.5;" x1="940" x2="1619" y1="141.528" y2="141.528"/><line style="stroke:#181818;stroke-width:0.5;" x1="940" x2="1619" y1="149.528" y2="149.528"/><ellipse cx="950" cy="165.6276" fill="#84BE84" rx="3" ry="3" style="stroke:#038048;stroke-width:1.0;"/><text fill="#000000" font-family="sans-serif" font-size="18" lengthAdjust="spacing" textLength="654" x="960" y="170.9303">void postProcessBeanFactory(ConfigurableListableBeanFactory beanFactory)</text></g><!--class BeanDefinitionRegistryPostProcessor--><g id="elem_BeanDefinitionRegistryPostProcessor"><rect codeLine="8" fill="#F1F1F1" height="71.1992" id="BeanDefinitionRegistryPostProcessor" rx="2.5" ry="2.5" style="stroke:#181818;stroke-width:0.5;" width="645" x="7" y="249.028"/><ellipse cx="167.5" cy="266.028" fill="#B4A7E5" rx="12" ry="12" style="stroke:#181818;stroke-width:1.0;"/><path d="M163.5117,261.9411 L163.5117,259.6559 L171.3252,259.6559 L171.3252,261.9411 L168.7148,261.9411 L168.7148,270.4928 L171.3252,270.4928 L171.3252,272.778 L163.5117,272.778 L163.5117,270.4928 L166.1221,270.4928 L166.1221,261.9411 Z " fill="#000000"/><text fill="#000000" font-family="sans-serif" font-size="18" font-style="italic" lengthAdjust="spacing" textLength="315" x="189.5" y="272.8307">BeanDefinitionRegistryPostProcessor</text><line style="stroke:#181818;stroke-width:0.5;" x1="8" x2="651" y1="283.028" y2="283.028"/><line style="stroke:#181818;stroke-width:0.5;" x1="8" x2="651" y1="291.028" y2="291.028"/><ellipse cx="18" cy="307.1276" fill="#84BE84" rx="3" ry="3" style="stroke:#038048;stroke-width:1.0;"/><text fill="#000000" font-family="sans-serif" font-size="18" lengthAdjust="spacing" textLength="618" x="28" y="312.4303">void postProcessBeanDefinitionRegistry(BeanDefinitionRegistry registry)</text></g><!--class ConfigurationClassPostProcessor--><g id="elem_ConfigurationClassPostProcessor"><rect codeLine="12" fill="#F1F1F1" height="50" id="ConfigurationClassPostProcessor" rx="2.5" ry="2.5" style="stroke:#181818;stroke-width:0.5;" width="318" x="1243.5" y="390.528"/><ellipse cx="1259.5" cy="407.528" fill="#ADD1B2" rx="12" ry="12" style="stroke:#181818;stroke-width:1.0;"/><path d="M1262.001,413.6501 Q1261.3857,413.9665 1260.709,414.1247 Q1260.0322,414.2829 1259.2852,414.2829 Q1256.6309,414.2829 1255.2334,412.5339 Q1253.8359,410.7848 1253.8359,407.4801 Q1253.8359,404.1667 1255.2334,402.4176 Q1256.6309,400.6686 1259.2852,400.6686 Q1260.0322,400.6686 1260.7178,400.8268 Q1261.4033,400.985 1262.001,401.3014 L1262.001,404.1842 Q1261.333,403.569 1260.7046,403.2834 Q1260.0762,402.9977 1259.4082,402.9977 Q1257.9844,402.9977 1257.2593,404.1271 Q1256.5342,405.2565 1256.5342,407.4801 Q1256.5342,409.695 1257.2593,410.8244 Q1257.9844,411.9538 1259.4082,411.9538 Q1260.0762,411.9538 1260.7046,411.6681 Q1261.333,411.3825 1262.001,410.7673 Z " fill="#000000"/><text fill="#000000" font-family="sans-serif" font-size="18" lengthAdjust="spacing" textLength="284" x="1274.5" y="414.3307">ConfigurationClassPostProcessor</text><line style="stroke:#181818;stroke-width:0.5;" x1="1244.5" x2="1560.5" y1="424.528" y2="424.528"/><line style="stroke:#181818;stroke-width:0.5;" x1="1244.5" x2="1560.5" y1="432.528" y2="432.528"/></g><!--class PriorityOrdered--><g id="elem_PriorityOrdered"><rect fill="#F1F1F1" height="50" id="PriorityOrdered" rx="2.5" ry="2.5" style="stroke:#181818;stroke-width:0.5;" width="165" x="1743" y="118.028"/><ellipse cx="1759" cy="135.028" fill="#B4A7E5" rx="12" ry="12" style="stroke:#181818;stroke-width:1.0;"/><path d="M1755.0117,130.9411 L1755.0117,128.6559 L1762.8252,128.6559 L1762.8252,130.9411 L1760.2148,130.9411 L1760.2148,139.4928 L1762.8252,139.4928 L1762.8252,141.778 L1755.0117,141.778 L1755.0117,139.4928 L1757.6221,139.4928 L1757.6221,130.9411 Z " fill="#000000"/><text fill="#000000" font-family="sans-serif" font-size="18" font-style="italic" lengthAdjust="spacing" textLength="131" x="1774" y="141.8307">PriorityOrdered</text><line style="stroke:#181818;stroke-width:0.5;" x1="1744" x2="1907" y1="152.028" y2="152.028"/><line style="stroke:#181818;stroke-width:0.5;" x1="1744" x2="1907" y1="160.028" y2="160.028"/></g><!--class PropertyResourceConfigurer--><g id="elem_PropertyResourceConfigurer"><rect codeLine="14" fill="#F1F1F1" height="71.1992" id="PropertyResourceConfigurer" rx="2.5" ry="2.5" style="stroke:#181818;stroke-width:0.5;" width="365" x="1972" y="249.028"/><ellipse cx="2029" cy="266.028" fill="#A9DCDF" rx="12" ry="12" style="stroke:#181818;stroke-width:1.0;"/><path d="M2028.9141,261.279 L2027.6924,266.6491 L2030.1445,266.6491 Z M2027.332,258.9059 L2030.5049,258.9059 L2034.0469,272.028 L2031.4541,272.028 L2030.6455,268.7848 L2027.1738,268.7848 L2026.3828,272.028 L2023.79,272.028 Z " fill="#000000"/><text fill="#000000" font-family="sans-serif" font-size="18" font-style="italic" lengthAdjust="spacing" textLength="242" x="2051" y="272.8307">PropertyResourceConfigurer</text><line style="stroke:#181818;stroke-width:0.5;" x1="1973" x2="2336" y1="283.028" y2="283.028"/><rect fill="none" height="6" style="stroke:#C82930;stroke-width:1.0;" width="6" x="1980" y="296.1276"/><text fill="#000000" font-family="sans-serif" font-size="18" lengthAdjust="spacing" textLength="338" x="1993" y="304.4303">order = Ordered.LOWEST_PRECEDENCE</text><line style="stroke:#181818;stroke-width:0.5;" x1="1973" x2="2336" y1="312.2272" y2="312.2272"/></g><!--class PropertiesLoaderSupport--><g id="elem_PropertiesLoaderSupport"><rect fill="#F1F1F1" height="50" id="PropertiesLoaderSupport" rx="2.5" ry="2.5" style="stroke:#181818;stroke-width:0.5;" width="248" x="2030.5" y="118.028"/><ellipse cx="2046.5" cy="135.028" fill="#ADD1B2" rx="12" ry="12" style="stroke:#181818;stroke-width:1.0;"/><path d="M2049.001,141.1501 Q2048.3857,141.4665 2047.709,141.6247 Q2047.0322,141.7829 2046.2852,141.7829 Q2043.6309,141.7829 2042.2334,140.0339 Q2040.8359,138.2848 2040.8359,134.9801 Q2040.8359,131.6667 2042.2334,129.9176 Q2043.6309,128.1686 2046.2852,128.1686 Q2047.0322,128.1686 2047.7178,128.3268 Q2048.4033,128.485 2049.001,128.8014 L2049.001,131.6842 Q2048.333,131.069 2047.7046,130.7834 Q2047.0762,130.4977 2046.4082,130.4977 Q2044.9844,130.4977 2044.2593,131.6271 Q2043.5342,132.7565 2043.5342,134.9801 Q2043.5342,137.195 2044.2593,138.3244 Q2044.9844,139.4538 2046.4082,139.4538 Q2047.0762,139.4538 2047.7046,139.1681 Q2048.333,138.8825 2049.001,138.2673 Z " fill="#000000"/><text fill="#000000" font-family="sans-serif" font-size="18" lengthAdjust="spacing" textLength="214" x="2061.5" y="141.8307">PropertiesLoaderSupport</text><line style="stroke:#181818;stroke-width:0.5;" x1="2031.5" x2="2277.5" y1="152.028" y2="152.028"/><line style="stroke:#181818;stroke-width:0.5;" x1="2031.5" x2="2277.5" y1="160.028" y2="160.028"/></g><!--class PlaceholderConfigurerSupport--><g id="elem_PlaceholderConfigurerSupport"><rect codeLine="18" fill="#F1F1F1" height="50" id="PlaceholderConfigurerSupport" rx="2.5" ry="2.5" style="stroke:#181818;stroke-width:0.5;" width="293" x="2266" y="390.528"/><ellipse cx="2282" cy="407.528" fill="#A9DCDF" rx="12" ry="12" style="stroke:#181818;stroke-width:1.0;"/><path d="M2281.9141,402.779 L2280.6924,408.1491 L2283.1445,408.1491 Z M2280.332,400.4059 L2283.5049,400.4059 L2287.0469,413.528 L2284.4541,413.528 L2283.6455,410.2848 L2280.1738,410.2848 L2279.3828,413.528 L2276.79,413.528 Z " fill="#000000"/><text fill="#000000" font-family="sans-serif" font-size="18" font-style="italic" lengthAdjust="spacing" textLength="259" x="2297" y="414.3307">PlaceholderConfigurerSupport</text><line style="stroke:#181818;stroke-width:0.5;" x1="2267" x2="2558" y1="424.528" y2="424.528"/><line style="stroke:#181818;stroke-width:0.5;" x1="2267" x2="2558" y1="432.528" y2="432.528"/></g><!--class PreferencesPlaceholderConfigurer--><g id="elem_PreferencesPlaceholderConfigurer"><rect codeLine="22" fill="#F1F1F1" height="68.3984" id="PreferencesPlaceholderConfigurer" rx="2.5" ry="2.5" style="stroke:#181818;stroke-width:0.5;" width="325" x="2204" y="652.528"/><ellipse cx="2220" cy="678.7272" fill="#ADD1B2" rx="12" ry="12" style="stroke:#181818;stroke-width:1.0;"/><path d="M2222.501,684.8493 Q2221.8857,685.1657 2221.209,685.3239 Q2220.5322,685.4821 2219.7852,685.4821 Q2217.1309,685.4821 2215.7334,683.7331 Q2214.3359,681.9841 2214.3359,678.6794 Q2214.3359,675.3659 2215.7334,673.6169 Q2217.1309,671.8678 2219.7852,671.8678 Q2220.5322,671.8678 2221.2178,672.026 Q2221.9033,672.1842 2222.501,672.5007 L2222.501,675.3835 Q2221.833,674.7682 2221.2046,674.4826 Q2220.5762,674.1969 2219.9082,674.1969 Q2218.4844,674.1969 2217.7593,675.3263 Q2217.0342,676.4557 2217.0342,678.6794 Q2217.0342,680.8942 2217.7593,682.0236 Q2218.4844,683.153 2219.9082,683.153 Q2220.5762,683.153 2221.2046,682.8674 Q2221.833,682.5817 2222.501,681.9665 Z " fill="#000000"/><text fill="#000000" font-family="sans-serif" font-size="18" font-style="italic" lengthAdjust="spacing" textLength="116" x="2322.5" y="674.9303">&#171;Deprecated&#187;</text><text fill="#000000" font-family="sans-serif" font-size="18" lengthAdjust="spacing" textLength="291" x="2235" y="696.1296">PreferencesPlaceholderConfigurer</text><line style="stroke:#181818;stroke-width:0.5;" x1="2205" x2="2528" y1="704.9264" y2="704.9264"/><line style="stroke:#181818;stroke-width:0.5;" x1="2205" x2="2528" y1="712.9264" y2="712.9264"/></g><!--class PropertyPlaceholderConfigurer--><g id="elem_PropertyPlaceholderConfigurer"><rect codeLine="28" fill="#F1F1F1" height="68.3984" id="PropertyPlaceholderConfigurer" rx="2.5" ry="2.5" style="stroke:#181818;stroke-width:0.5;" width="297" x="2420" y="501.528"/><ellipse cx="2436" cy="527.7272" fill="#ADD1B2" rx="12" ry="12" style="stroke:#181818;stroke-width:1.0;"/><path d="M2438.501,533.8493 Q2437.8857,534.1657 2437.209,534.3239 Q2436.5322,534.4821 2435.7852,534.4821 Q2433.1309,534.4821 2431.7334,532.7331 Q2430.3359,530.9841 2430.3359,527.6794 Q2430.3359,524.3659 2431.7334,522.6169 Q2433.1309,520.8678 2435.7852,520.8678 Q2436.5322,520.8678 2437.2178,521.026 Q2437.9033,521.1842 2438.501,521.5007 L2438.501,524.3835 Q2437.833,523.7682 2437.2046,523.4826 Q2436.5762,523.1969 2435.9082,523.1969 Q2434.4844,523.1969 2433.7593,524.3263 Q2433.0342,525.4557 2433.0342,527.6794 Q2433.0342,529.8942 2433.7593,531.0236 Q2434.4844,532.153 2435.9082,532.153 Q2436.5762,532.153 2437.2046,531.8674 Q2437.833,531.5817 2438.501,530.9665 Z " fill="#000000"/><text fill="#000000" font-family="sans-serif" font-size="18" font-style="italic" lengthAdjust="spacing" textLength="116" x="2524.5" y="523.9303">&#171;Deprecated&#187;</text><text fill="#000000" font-family="sans-serif" font-size="18" lengthAdjust="spacing" textLength="263" x="2451" y="545.1296">PropertyPlaceholderConfigurer</text><line style="stroke:#181818;stroke-width:0.5;" x1="2421" x2="2716" y1="553.9264" y2="553.9264"/><line style="stroke:#181818;stroke-width:0.5;" x1="2421" x2="2716" y1="561.9264" y2="561.9264"/></g><!--class PropertyOverrideConfigurer--><g id="elem_PropertyOverrideConfigurer"><rect codeLine="24" fill="#F1F1F1" height="50" id="PropertyOverrideConfigurer" rx="2.5" ry="2.5" style="stroke:#181818;stroke-width:0.5;" width="271" x="1960" y="390.528"/><ellipse cx="1976" cy="407.528" fill="#ADD1B2" rx="12" ry="12" style="stroke:#181818;stroke-width:1.0;"/><path d="M1978.501,413.6501 Q1977.8857,413.9665 1977.209,414.1247 Q1976.5322,414.2829 1975.7852,414.2829 Q1973.1309,414.2829 1971.7334,412.5339 Q1970.3359,410.7848 1970.3359,407.4801 Q1970.3359,404.1667 1971.7334,402.4176 Q1973.1309,400.6686 1975.7852,400.6686 Q1976.5322,400.6686 1977.2178,400.8268 Q1977.9033,400.985 1978.501,401.3014 L1978.501,404.1842 Q1977.833,403.569 1977.2046,403.2834 Q1976.5762,402.9977 1975.9082,402.9977 Q1974.4844,402.9977 1973.7593,404.1271 Q1973.0342,405.2565 1973.0342,407.4801 Q1973.0342,409.695 1973.7593,410.8244 Q1974.4844,411.9538 1975.9082,411.9538 Q1976.5762,411.9538 1977.2046,411.6681 Q1977.833,411.3825 1978.501,410.7673 Z " fill="#000000"/><text fill="#000000" font-family="sans-serif" font-size="18" lengthAdjust="spacing" textLength="237" x="1991" y="414.3307">PropertyOverrideConfigurer</text><line style="stroke:#181818;stroke-width:0.5;" x1="1961" x2="2230" y1="424.528" y2="424.528"/><line style="stroke:#181818;stroke-width:0.5;" x1="1961" x2="2230" y1="432.528" y2="432.528"/></g><!--class PropertySourcesPlaceholderConfigurer--><g id="elem_PropertySourcesPlaceholderConfigurer"><rect codeLine="30" fill="#F1F1F1" height="50" id="PropertySourcesPlaceholderConfigurer" rx="2.5" ry="2.5" style="stroke:#181818;stroke-width:0.5;" width="364" x="1983.5" y="510.528"/><ellipse cx="1999.5" cy="527.528" fill="#ADD1B2" rx="12" ry="12" style="stroke:#181818;stroke-width:1.0;"/><path d="M2002.001,533.6501 Q2001.3857,533.9665 2000.709,534.1247 Q2000.0322,534.2829 1999.2852,534.2829 Q1996.6309,534.2829 1995.2334,532.5339 Q1993.8359,530.7848 1993.8359,527.4801 Q1993.8359,524.1667 1995.2334,522.4176 Q1996.6309,520.6686 1999.2852,520.6686 Q2000.0322,520.6686 2000.7178,520.8268 Q2001.4033,520.985 2002.001,521.3014 L2002.001,524.1842 Q2001.333,523.569 2000.7046,523.2834 Q2000.0762,522.9977 1999.4082,522.9977 Q1997.9844,522.9977 1997.2593,524.1271 Q1996.5342,525.2565 1996.5342,527.4801 Q1996.5342,529.695 1997.2593,530.8244 Q1997.9844,531.9538 1999.4082,531.9538 Q2000.0762,531.9538 2000.7046,531.6681 Q2001.333,531.3825 2002.001,530.7673 Z " fill="#000000"/><text fill="#000000" font-family="sans-serif" font-size="18" lengthAdjust="spacing" textLength="330" x="2014.5" y="534.3307">PropertySourcesPlaceholderConfigurer</text><line style="stroke:#181818;stroke-width:0.5;" x1="1984.5" x2="2346.5" y1="544.528" y2="544.528"/><line style="stroke:#181818;stroke-width:0.5;" x1="1984.5" x2="2346.5" y1="552.528" y2="552.528"/></g><!--class PropertySourcesFactoryPostProcessor--><g id="elem_PropertySourcesFactoryPostProcessor"><rect codeLine="35" fill="#F1F1F1" height="71.1992" id="PropertySourcesFactoryPostProcessor" rx="2.5" ry="2.5" style="stroke:#181818;stroke-width:0.5;" width="365" x="1500" y="249.028"/><ellipse cx="1520.05" cy="266.028" fill="#ADD1B2" rx="12" ry="12" style="stroke:#181818;stroke-width:1.0;"/><path d="M1522.551,272.1501 Q1521.9357,272.4665 1521.259,272.6247 Q1520.5822,272.7829 1519.8352,272.7829 Q1517.1809,272.7829 1515.7834,271.0339 Q1514.3859,269.2848 1514.3859,265.9801 Q1514.3859,262.6667 1515.7834,260.9176 Q1517.1809,259.1686 1519.8352,259.1686 Q1520.5822,259.1686 1521.2678,259.3268 Q1521.9533,259.485 1522.551,259.8014 L1522.551,262.6842 Q1521.883,262.069 1521.2546,261.7834 Q1520.6262,261.4977 1519.9582,261.4977 Q1518.5344,261.4977 1517.8093,262.6271 Q1517.0842,263.7565 1517.0842,265.9801 Q1517.0842,268.195 1517.8093,269.3244 Q1518.5344,270.4538 1519.9582,270.4538 Q1520.6262,270.4538 1521.2546,270.1681 Q1521.883,269.8825 1522.551,269.2673 Z " fill="#000000"/><text fill="#000000" font-family="sans-serif" font-size="18" lengthAdjust="spacing" textLength="322" x="1535.95" y="272.8307">PropertySourcesFactoryPostProcessor</text><line style="stroke:#181818;stroke-width:0.5;" x1="1501" x2="1864" y1="283.028" y2="283.028"/><rect fill="none" height="6" style="stroke:#C82930;stroke-width:1.0;" width="6" x="1508" y="296.1276"/><text fill="#000000" font-family="sans-serif" font-size="18" lengthAdjust="spacing" textLength="338" x="1521" y="304.4303">order = Ordered.LOWEST_PRECEDENCE</text><line style="stroke:#181818;stroke-width:0.5;" x1="1501" x2="1864" y1="312.2272" y2="312.2272"/></g><!--class RecorderBeanFactoryPostProcessor1--><g id="elem_RecorderBeanFactoryPostProcessor1"><rect codeLine="42" fill="#F1F1F1" height="68.3984" id="RecorderBeanFactoryPostProcessor1" rx="2.5" ry="2.5" style="stroke:#181818;stroke-width:0.5;" width="334" x="687.5" y="250.528"/><ellipse cx="703.5" cy="276.7272" fill="#ADD1B2" rx="12" ry="12" style="stroke:#181818;stroke-width:1.0;"/><path d="M706.001,282.8493 Q705.3857,283.1657 704.709,283.3239 Q704.0322,283.4821 703.2852,283.4821 Q700.6309,283.4821 699.2334,281.7331 Q697.8359,279.9841 697.8359,276.6794 Q697.8359,273.3659 699.2334,271.6169 Q700.6309,269.8678 703.2852,269.8678 Q704.0322,269.8678 704.7178,270.026 Q705.4033,270.1842 706.001,270.5007 L706.001,273.3835 Q705.333,272.7682 704.7046,272.4826 Q704.0762,272.1969 703.4082,272.1969 Q701.9844,272.1969 701.2593,273.3263 Q700.5342,274.4557 700.5342,276.6794 Q700.5342,278.8942 701.2593,280.0236 Q701.9844,281.153 703.4082,281.153 Q704.0762,281.153 704.7046,280.8674 Q705.333,280.5817 706.001,279.9665 Z " fill="#000000"/><text fill="#000000" font-family="sans-serif" font-size="18" font-style="italic" lengthAdjust="spacing" textLength="90" x="823.5" y="272.9303">&#171;&#24453;&#20248;&#21270;&#29256;&#187;</text><text fill="#000000" font-family="sans-serif" font-size="18" lengthAdjust="spacing" textLength="300" x="718.5" y="294.1296">RecorderBeanFactoryPostProcessor</text><line style="stroke:#181818;stroke-width:0.5;" x1="688.5" x2="1020.5" y1="302.9264" y2="302.9264"/><line style="stroke:#181818;stroke-width:0.5;" x1="688.5" x2="1020.5" y1="310.9264" y2="310.9264"/></g><!--class RecorderBeanFactoryPostProcessor2--><g id="elem_RecorderBeanFactoryPostProcessor2"><rect codeLine="43" fill="#F1F1F1" height="89.5977" id="RecorderBeanFactoryPostProcessor2" rx="2.5" ry="2.5" style="stroke:#181818;stroke-width:0.5;" width="370" x="1094.5" y="239.528"/><ellipse cx="1126.7" cy="265.7272" fill="#ADD1B2" rx="12" ry="12" style="stroke:#181818;stroke-width:1.0;"/><path d="M1129.201,271.8493 Q1128.5857,272.1657 1127.909,272.3239 Q1127.2322,272.4821 1126.4852,272.4821 Q1123.8309,272.4821 1122.4334,270.7331 Q1121.0359,268.9841 1121.0359,265.6794 Q1121.0359,262.3659 1122.4334,260.6169 Q1123.8309,258.8678 1126.4852,258.8678 Q1127.2322,258.8678 1127.9178,259.026 Q1128.6033,259.1842 1129.201,259.5007 L1129.201,262.3835 Q1128.533,261.7682 1127.9046,261.4826 Q1127.2762,261.1969 1126.6082,261.1969 Q1125.1844,261.1969 1124.4593,262.3263 Q1123.7342,263.4557 1123.7342,265.6794 Q1123.7342,267.8942 1124.4593,269.0236 Q1125.1844,270.153 1126.6082,270.153 Q1127.2762,270.153 1127.9046,269.8674 Q1128.533,269.5817 1129.201,268.9665 Z " fill="#000000"/><text fill="#000000" font-family="sans-serif" font-size="18" font-style="italic" lengthAdjust="spacing" textLength="72" x="1259.3" y="261.9303">&#171;&#20248;&#21270;&#29256;&#187;</text><text fill="#000000" font-family="sans-serif" font-size="18" lengthAdjust="spacing" textLength="300" x="1145.3" y="283.1296">RecorderBeanFactoryPostProcessor</text><line style="stroke:#181818;stroke-width:0.5;" x1="1095.5" x2="1463.5" y1="291.9264" y2="291.9264"/><rect fill="none" height="6" style="stroke:#C82930;stroke-width:1.0;" width="6" x="1102.5" y="305.026"/><text fill="#000000" font-family="sans-serif" font-size="18" lengthAdjust="spacing" textLength="343" x="1115.5" y="313.3288">order = Ordered.HIGHEST_PRECEDENCE</text><line style="stroke:#181818;stroke-width:0.5;" x1="1095.5" x2="1463.5" y1="321.1257" y2="321.1257"/></g><!--reverse link BeanFactoryPostProcessor to BeanDefinitionRegistryPostProcessor--><g id="link_BeanFactoryPostProcessor_BeanDefinitionRegistryPostProcessor"><path d="M1023.5009,181.6223 C878.8109,202.8623 712.55,227.278 567.83,248.528 " fill="none" id="BeanFactoryPostProcessor-backto-BeanDefinitionRegistryPostProcessor" style="stroke:#181818;stroke-width:1.0;"/><polygon fill="none" points="1041.31,179.008,1022.6294,175.6859,1024.3723,187.5587,1041.31,179.008" style="stroke:#181818;stroke-width:1.0;"/></g><!--reverse link BeanDefinitionRegistryPostProcessor to ConfigurationClassPostProcessor--><g id="link_BeanDefinitionRegistryPostProcessor_ConfigurationClassPostProcessor"><path d="M615.038,322.7649 C639.488,325.8549 646.02,326.648 669.5,329.528 C867.07,353.768 1094.83,379.898 1243.35,396.688 " fill="none" id="BeanDefinitionRegistryPostProcessor-backto-ConfigurationClassPostProcessor" style="stroke:#181818;stroke-width:1.0;stroke-dasharray:7.0,7.0;"/><polygon fill="none" points="597.18,320.508,614.2857,328.7175,615.7902,316.8122,597.18,320.508" style="stroke:#181818;stroke-width:1.0;"/></g><!--reverse link PriorityOrdered to ConfigurationClassPostProcessor--><g id="link_PriorityOrdered_ConfigurationClassPostProcessor"><path d="M1856.8997,182.7968 C1886.4197,221.2568 1922.33,282.028 1882.5,329.528 C1841.89,377.958 1685.25,398.818 1561.81,407.778 " fill="none" id="PriorityOrdered-backto-ConfigurationClassPostProcessor" style="stroke:#181818;stroke-width:1.0;stroke-dasharray:7.0,7.0;"/><polygon fill="none" points="1845.94,168.518,1852.1401,186.4501,1861.6593,179.1436,1845.94,168.518" style="stroke:#181818;stroke-width:1.0;"/></g><!--reverse link PropertiesLoaderSupport to PropertyResourceConfigurer--><g id="link_PropertiesLoaderSupport_PropertyResourceConfigurer"><path d="M2154.5,186.328 C2154.5,208.498 2154.5,223.518 2154.5,248.528 " fill="none" id="PropertiesLoaderSupport-backto-PropertyResourceConfigurer" style="stroke:#181818;stroke-width:1.0;"/><polygon fill="none" points="2154.5,168.328,2148.5,186.328,2160.5,186.328,2154.5,168.328" style="stroke:#181818;stroke-width:1.0;"/></g><!--reverse link BeanFactoryPostProcessor to PropertyResourceConfigurer--><g id="link_BeanFactoryPostProcessor_PropertyResourceConfigurer"><path d="M1519.2497,181.8157 C1633.1697,199.8057 1756.38,219.338 1882.5,239.528 C1911.31,244.138 1941.84,249.048 1971.62,253.858 " fill="none" id="BeanFactoryPostProcessor-backto-PropertyResourceConfigurer" style="stroke:#181818;stroke-width:1.0;stroke-dasharray:7.0,7.0;"/><polygon fill="none" points="1501.47,179.008,1518.3138,187.7423,1520.1856,175.8892,1501.47,179.008" style="stroke:#181818;stroke-width:1.0;"/></g><!--reverse link PriorityOrdered to PropertyResourceConfigurer--><g id="link_PriorityOrdered_PropertyResourceConfigurer"><path d="M1899.7522,175.5139 C1952.0922,197.7039 2013.28,223.648 2072.15,248.608 " fill="none" id="PriorityOrdered-backto-PropertyResourceConfigurer" style="stroke:#181818;stroke-width:1.0;stroke-dasharray:7.0,7.0;"/><polygon fill="none" points="1883.18,168.488,1897.4102,181.038,1902.0941,169.9899,1883.18,168.488" style="stroke:#181818;stroke-width:1.0;"/></g><!--reverse link PropertyResourceConfigurer to PlaceholderConfigurerSupport--><g id="link_PropertyResourceConfigurer_PlaceholderConfigurerSupport"><path d="M2240.419,328.4893 C2284.589,350.5793 2324.49,370.518 2363.87,390.208 " fill="none" id="PropertyResourceConfigurer-backto-PlaceholderConfigurerSupport" style="stroke:#181818;stroke-width:1.0;"/><polygon fill="none" points="2224.32,320.438,2237.7352,333.8556,2243.1027,323.123,2224.32,320.438" style="stroke:#181818;stroke-width:1.0;"/></g><!--reverse link PropertyPlaceholderConfigurer to PreferencesPlaceholderConfigurer--><g id="link_PropertyPlaceholderConfigurer_PreferencesPlaceholderConfigurer"><path d="M2508.6842,580.6527 C2475.4142,605.1927 2444.91,627.688 2411.68,652.198 " fill="none" id="PropertyPlaceholderConfigurer-backto-PreferencesPlaceholderConfigurer" style="stroke:#181818;stroke-width:1.0;"/><polygon fill="none" points="2523.17,569.968,2505.1227,575.8241,2512.2458,585.4813,2523.17,569.968" style="stroke:#181818;stroke-width:1.0;"/></g><!--reverse link PropertyResourceConfigurer to PropertyOverrideConfigurer--><g id="link_PropertyResourceConfigurer_PropertyOverrideConfigurer"><path d="M2131.0453,336.8081 C2120.9453,358.8981 2115.63,370.518 2106.62,390.208 " fill="none" id="PropertyResourceConfigurer-backto-PropertyOverrideConfigurer" style="stroke:#181818;stroke-width:1.0;"/><polygon fill="none" points="2138.53,320.438,2125.5886,334.3131,2136.502,339.303,2138.53,320.438" style="stroke:#181818;stroke-width:1.0;"/></g><!--reverse link PlaceholderConfigurerSupport to PropertyPlaceholderConfigurer--><g id="link_PlaceholderConfigurerSupport_PropertyPlaceholderConfigurer"><path d="M2459.1757,451.8368 C2482.2057,469.2568 2499.07,482.008 2524.39,501.158 " fill="none" id="PlaceholderConfigurerSupport-backto-PropertyPlaceholderConfigurer" style="stroke:#181818;stroke-width:1.0;"/><polygon fill="none" points="2444.82,440.978,2455.5562,456.622,2462.7953,447.0515,2444.82,440.978" style="stroke:#181818;stroke-width:1.0;"/></g><!--reverse link PlaceholderConfigurerSupport to PropertySourcesPlaceholderConfigurer--><g id="link_PlaceholderConfigurerSupport_PropertySourcesPlaceholderConfigurer"><path d="M2345.0781,448.7369 C2302.6881,468.9869 2258.99,489.868 2216.61,510.108 " fill="none" id="PlaceholderConfigurerSupport-backto-PropertySourcesPlaceholderConfigurer" style="stroke:#181818;stroke-width:1.0;"/><polygon fill="none" points="2361.32,440.978,2342.4918,443.3229,2347.6644,454.1508,2361.32,440.978" style="stroke:#181818;stroke-width:1.0;"/></g><!--reverse link PropertySourcesPlaceholderConfigurer to PreferencesPlaceholderConfigurer--><g id="link_PropertySourcesPlaceholderConfigurer_PreferencesPlaceholderConfigurer"><path codeLine="32" d="M2203.0605,564.3705 C2236.5505,589.1905 2283.99,624.368 2321.38,652.088 " fill="none" id="PropertySourcesPlaceholderConfigurer-backto-PreferencesPlaceholderConfigurer" style="stroke:#FF0000;stroke-width:1.0;stroke-dasharray:7.0,7.0;"/><polygon fill="#FF0000" points="2198.24,560.798,2203.089,569.3705,2202.2571,563.7751,2207.8524,562.9432,2198.24,560.798" style="stroke:#FF0000;stroke-width:1.0;"/><text fill="#000000" font-family="sans-serif" font-size="18" lengthAdjust="spacing" textLength="36" x="2278.5" y="617.9303">&#25512;&#33616;</text></g><!--reverse link PropertySourcesPlaceholderConfigurer to PropertyPlaceholderConfigurer--><g id="link_PropertySourcesPlaceholderConfigurer_PropertyPlaceholderConfigurer"><path codeLine="33" d="M2353.84,535.528 C2377.91,535.528 2396.35,535.528 2419.77,535.528 " fill="none" id="PropertySourcesPlaceholderConfigurer-backto-PropertyPlaceholderConfigurer" style="stroke:#FF0000;stroke-width:1.0;stroke-dasharray:7.0,7.0;"/><polygon fill="#FF0000" points="2347.84,535.528,2356.84,539.528,2352.84,535.528,2356.84,531.528,2347.84,535.528" style="stroke:#FF0000;stroke-width:1.0;"/><text fill="#000000" font-family="sans-serif" font-size="18" lengthAdjust="spacing" textLength="36" x="2365.75" y="527.9303">&#25512;&#33616;</text></g><!--reverse link BeanFactoryPostProcessor to PropertySourcesFactoryPostProcessor--><g id="link_BeanFactoryPostProcessor_PropertySourcesFactoryPostProcessor"><path d="M1397.4196,184.8466 C1458.8596,206.1166 1520.06,227.298 1581.51,248.568 " fill="none" id="BeanFactoryPostProcessor-backto-PropertySourcesFactoryPostProcessor" style="stroke:#181818;stroke-width:1.0;stroke-dasharray:7.0,7.0;"/><polygon fill="none" points="1380.41,178.958,1395.4567,190.5164,1399.3824,179.1767,1380.41,178.958" style="stroke:#181818;stroke-width:1.0;"/></g><!--reverse link PriorityOrdered to PropertySourcesFactoryPostProcessor--><g id="link_PriorityOrdered_PropertySourcesFactoryPostProcessor"><path d="M1787.7071,180.899 C1764.9871,203.069 1744.02,223.518 1718.38,248.528 " fill="none" id="PriorityOrdered-backto-PropertySourcesFactoryPostProcessor" style="stroke:#181818;stroke-width:1.0;stroke-dasharray:7.0,7.0;"/><polygon fill="none" points="1800.59,168.328,1783.5168,176.6047,1791.8974,185.1933,1800.59,168.328" style="stroke:#181818;stroke-width:1.0;"/></g><!--reverse link BeanFactoryPostProcessor to RecorderBeanFactoryPostProcessor1--><g id="link_BeanFactoryPostProcessor_RecorderBeanFactoryPostProcessor1"><path d="M1155.9776,184.5712 C1089.5876,206.3612 1021.73,228.638 956.24,250.128 " fill="none" id="BeanFactoryPostProcessor-backto-RecorderBeanFactoryPostProcessor1" style="stroke:#181818;stroke-width:1.0;stroke-dasharray:7.0,7.0;"/><polygon fill="none" points="1173.08,178.958,1154.1065,178.8704,1157.8487,190.272,1173.08,178.958" style="stroke:#181818;stroke-width:1.0;"/></g><!--reverse link BeanFactoryPostProcessor to RecorderBeanFactoryPostProcessor2--><g id="link_BeanFactoryPostProcessor_RecorderBeanFactoryPostProcessor2"><path d="M1279.5,196.868 C1279.5,215.108 1279.5,219.638 1279.5,239.118 " fill="none" id="BeanFactoryPostProcessor-backto-RecorderBeanFactoryPostProcessor2" style="stroke:#181818;stroke-width:1.0;stroke-dasharray:7.0,7.0;"/><polygon fill="none" points="1279.5,178.868,1273.5,196.868,1285.5,196.868,1279.5,178.868" style="stroke:#181818;stroke-width:1.0;"/></g><!--reverse link PriorityOrdered to RecorderBeanFactoryPostProcessor2--><g id="link_PriorityOrdered_RecorderBeanFactoryPostProcessor2"><path d="M1725.1302,169.6738 C1648.6902,189.2038 1550.21,214.368 1453.48,239.078 " fill="none" id="PriorityOrdered-backto-RecorderBeanFactoryPostProcessor2" style="stroke:#181818;stroke-width:1.0;stroke-dasharray:7.0,7.0;"/><polygon fill="none" points="1742.57,165.218,1723.645,163.8605,1726.6155,175.487,1742.57,165.218" style="stroke:#181818;stroke-width:1.0;"/></g><!--link RecorderBeanFactoryPostProcessor1 to RecorderBeanFactoryPostProcessor2--><g id="link_RecorderBeanFactoryPostProcessor1_RecorderBeanFactoryPostProcessor2"><path codeLine="47" d="M1021.86,284.528 C1045.55,284.528 1064.03,284.528 1088.04,284.528 " fill="none" id="RecorderBeanFactoryPostProcessor1-to-RecorderBeanFactoryPostProcessor2" style="stroke:#FF0000;stroke-width:1.0;stroke-dasharray:7.0,7.0;"/><polygon fill="#FF0000" points="1094.04,284.528,1085.04,280.528,1089.04,284.528,1085.04,288.528,1094.04,284.528" style="stroke:#FF0000;stroke-width:1.0;"/><text fill="#000000" font-family="sans-serif" font-size="18" lengthAdjust="spacing" textLength="36" x="1040" y="276.9303">&#20248;&#21270;</text></g><!--link BeanDefinitionRegistryPostProcessor to RecorderBeanFactoryPostProcessor1--><g id="link_BeanDefinitionRegistryPostProcessor_RecorderBeanFactoryPostProcessor1"><path codeLine="49" d="M652.5,284.528 C664.07,284.528 669.64,284.528 681.22,284.528 " fill="none" id="BeanDefinitionRegistryPostProcessor-to-RecorderBeanFactoryPostProcessor1" style="stroke:#FFFFFF;stroke-width:1.0;stroke-dasharray:7.0,7.0;"/><polygon fill="#FFFFFF" points="687.22,284.528,678.22,280.528,682.22,284.528,678.22,288.528,687.22,284.528" style="stroke:#FFFFFF;stroke-width:1.0;"/></g><text fill="#E22D30" font-family="Source Han Serif SC" font-size="28" lengthAdjust="spacing" textLength="94" x="1069.5" y="759.1544">D&#29916;&#21733; &#183;</text><text fill="#E22D30" font-family="JetBrains Mono" font-size="28" lengthAdjust="spacing" textLength="391" x="1170.5" y="758.7624">https://www.diguage.com</text><text fill="#E22D30" font-family="Source Han Serif SC" font-size="28" lengthAdjust="spacing" textLength="72" x="1568.5" y="759.1544">&#183; &#20986;&#21697;</text><!--SRC=[jLRFQnD15BxFN_58BpLgsgOWfTGUcgHMgMr810yYCjrvcmpTp2mpawPLF7WeMb0H2kB1g-Yz1y6AWd-BQVmpdCslZRkRpMBrbCtEzxxlUzzxsOtUvyAdYhOywUmZ0uOkRNjcKmfJvuyHbbQ8Za0CDnwE0SitOe0cKePgZ2WknX2kb6OIiPA2A4bFAfZ3Of4jBqutiqDR27NPLWx25XLGfq93lHGh49Ot4O-Akqa5ePFC9SCGxqeXjKyTPEFgEsWs5ENMMd18-kuXdzz0AZQfOwGwgafjgaewgBLjktV-yUBaU_Vuh7Tsdi-JGR9Gxfs-xvv-W1-V8PTh6kFhrOM5JgTJOBpHfWqiEBALon72XNNkMWCmLU090RWA1v8pyCE32VXyIGhNqYgwv-4sroRud3Y7lV3w2daQ5IsZomKtN8eQDcnrL1yF3Ggc_yPWd7e- -JQeuKNVd-DHhM7SLG0i1RV-bEKjtyCM2gEpj74DgefBnStHhh83GaO8tRCesn0Cz2pKHsMEQgZx2pJInp228OIZtfR1cEjjtvVAHAqafHJJxyS6S1ray1rkml1-ONltVgL-xr6rLYbLofMTKYM89EhLizDhIizMX3P7RY9k4neQHLnLw5fDOIqcCiBQMXbzXGuroDRNCvT57IIYGhO1QFS0bU8i9VUKJdAfKZcWCynCxJIjPcmlPHfHfi73IL-6S6Ry1GzTys3EBjF3mdesvLMuUFtfrwit9BtZop0d1v7uHFd_lwVXrjJGwSEdgVGNPnPeoIvFzzlnpw_lkY_VzavUsFNvb_H5Ip_9FIIVxIf3YXcvYfUOI7mWMxTlRSKdChkVWkADPhXzCqslmY0sGhAyvaRiJSuOYYm2IuGC_dbaVDi7nztdNxgdptu3]--></g></svg>