<?xml version="1.0" encoding="us-ascii" standalone="no"?><svg xmlns="http://www.w3.org/2000/svg" xmlns:xlink="http://www.w3.org/1999/xlink" contentStyleType="text/css" height="663px" preserveAspectRatio="none" style="width:755px;height:663px;background:#FFFFFF;" version="1.1" viewBox="0 0 755 663" width="755px" zoomAndPan="magnify"><defs/><g><text fill="#000000" font-family="Source Han Sans SC" font-size="36" font-weight="bold" lengthAdjust="spacing" textLength="288" x="226.75" y="51.76">&#21387;&#27979;&#25509;&#21475;&#20381;&#36182;&#20851;&#31995;</text><!--cluster ????--><g id="cluster_&#21387;&#27979;&#24212;&#29992;"><rect fill="none" height="107.2" rx="2.5" ry="2.5" style="stroke:#181818;stroke-width:1.0;" width="144" x="303.5" y="290.828"/><path d="M385.5,290.828 L385.5,305.0272 L375.5,315.0272 L303.5,315.0272 " fill="none" style="stroke:#181818;stroke-width:1.0;"/><text fill="#000000" font-family="sans-serif" font-size="18" font-weight="bold" lengthAdjust="spacing" textLength="72" x="306.5" y="309.2303">&#21387;&#27979;&#24212;&#29992;</text></g><!--cluster ??-A--><g id="cluster_&#24212;&#29992;-A"><rect fill="none" height="107.2" rx="2.5" ry="2.5" style="stroke:#181818;stroke-width:1.0;" width="130" x="157.5" y="515.028"/><path d="M227.5,515.028 L227.5,529.2272 L217.5,539.2272 L157.5,539.2272 " fill="none" style="stroke:#181818;stroke-width:1.0;"/><text fill="#000000" font-family="sans-serif" font-size="18" font-weight="bold" lengthAdjust="spacing" textLength="60" x="160.5" y="533.4303">&#24212;&#29992;-A</text></g><!--cluster ??-B--><g id="cluster_&#24212;&#29992;-B"><rect fill="none" height="107.2" rx="2.5" ry="2.5" style="stroke:#181818;stroke-width:1.0;" width="128" x="311.5" y="515.028"/><path d="M379.5,515.028 L379.5,529.2272 L369.5,539.2272 L311.5,539.2272 " fill="none" style="stroke:#181818;stroke-width:1.0;"/><text fill="#000000" font-family="sans-serif" font-size="18" font-weight="bold" lengthAdjust="spacing" textLength="58" x="314.5" y="533.4303">&#24212;&#29992;-B</text></g><!--cluster ??-C--><g id="cluster_&#24212;&#29992;-C"><rect fill="none" height="107.2" rx="2.5" ry="2.5" style="stroke:#181818;stroke-width:1.0;" width="130" x="463.5" y="515.028"/><path d="M533.5,515.028 L533.5,529.2272 L523.5,539.2272 L463.5,539.2272 " fill="none" style="stroke:#181818;stroke-width:1.0;"/><text fill="#000000" font-family="sans-serif" font-size="18" font-weight="bold" lengthAdjust="spacing" textLength="60" x="466.5" y="533.4303">&#24212;&#29992;-C</text></g><!--cluster ??-D--><g id="cluster_&#24212;&#29992;-D"><rect fill="none" height="107.2" rx="2.5" ry="2.5" style="stroke:#181818;stroke-width:1.0;" width="132" x="617.5" y="515.028"/><path d="M688.5,515.028 L688.5,529.2272 L678.5,539.2272 L617.5,539.2272 " fill="none" style="stroke:#181818;stroke-width:1.0;"/><text fill="#000000" font-family="sans-serif" font-size="18" font-weight="bold" lengthAdjust="spacing" textLength="61" x="620.5" y="533.4303">&#24212;&#29992;-D</text></g><!--entity ????--><g id="elem_&#21387;&#27979;&#25509;&#21475;"><rect fill="#D5E8D4" height="51.1992" rx="2.5" ry="2.5" style="stroke:#181818;stroke-width:0.5;" width="112" x="319.5" y="330.828"/><rect fill="#D5E8D4" height="10" style="stroke:#181818;stroke-width:0.5;" width="15" x="411.5" y="335.828"/><rect fill="#D5E8D4" height="2" style="stroke:#181818;stroke-width:0.5;" width="4" x="409.5" y="337.828"/><rect fill="#D5E8D4" height="2" style="stroke:#181818;stroke-width:0.5;" width="4" x="409.5" y="341.828"/><text fill="#000000" font-family="sans-serif" font-size="18" lengthAdjust="spacing" textLength="72" x="334.5" y="368.2303">&#21387;&#27979;&#25509;&#21475;</text></g><!--entity ??-A--><g id="elem_&#25509;&#21475;-A"><rect fill="#DAE8FC" height="51.1992" rx="2.5" ry="2.5" style="stroke:#181818;stroke-width:0.5;" width="98" x="173.5" y="555.028"/><rect fill="#DAE8FC" height="10" style="stroke:#181818;stroke-width:0.5;" width="15" x="251.5" y="560.028"/><rect fill="#DAE8FC" height="2" style="stroke:#181818;stroke-width:0.5;" width="4" x="249.5" y="562.028"/><rect fill="#DAE8FC" height="2" style="stroke:#181818;stroke-width:0.5;" width="4" x="249.5" y="566.028"/><text fill="#000000" font-family="sans-serif" font-size="18" lengthAdjust="spacing" textLength="58" x="188.5" y="592.4303">&#25509;&#21475;-A</text></g><!--entity ??-B--><g id="elem_&#25509;&#21475;-B"><rect fill="#E1D5E7" height="51.1992" rx="2.5" ry="2.5" style="stroke:#181818;stroke-width:0.5;" width="96" x="327.5" y="555.028"/><rect fill="#E1D5E7" height="10" style="stroke:#181818;stroke-width:0.5;" width="15" x="403.5" y="560.028"/><rect fill="#E1D5E7" height="2" style="stroke:#181818;stroke-width:0.5;" width="4" x="401.5" y="562.028"/><rect fill="#E1D5E7" height="2" style="stroke:#181818;stroke-width:0.5;" width="4" x="401.5" y="566.028"/><text fill="#000000" font-family="sans-serif" font-size="18" lengthAdjust="spacing" textLength="56" x="342.5" y="592.4303">&#25509;&#21475;-B</text></g><!--entity ??-C--><g id="elem_&#25509;&#21475;-C"><rect fill="#F8CECC" height="51.1992" rx="2.5" ry="2.5" style="stroke:#181818;stroke-width:0.5;" width="98" x="479.5" y="555.028"/><rect fill="#F8CECC" height="10" style="stroke:#181818;stroke-width:0.5;" width="15" x="557.5" y="560.028"/><rect fill="#F8CECC" height="2" style="stroke:#181818;stroke-width:0.5;" width="4" x="555.5" y="562.028"/><rect fill="#F8CECC" height="2" style="stroke:#181818;stroke-width:0.5;" width="4" x="555.5" y="566.028"/><text fill="#000000" font-family="sans-serif" font-size="18" lengthAdjust="spacing" textLength="58" x="494.5" y="592.4303">&#25509;&#21475;-C</text></g><!--entity ??-D--><g id="elem_&#25509;&#21475;-D"><rect fill="#FFE6CC" height="51.1992" rx="2.5" ry="2.5" style="stroke:#181818;stroke-width:0.5;" width="99" x="634" y="555.028"/><rect fill="#FFE6CC" height="10" style="stroke:#181818;stroke-width:0.5;" width="15" x="713" y="560.028"/><rect fill="#FFE6CC" height="2" style="stroke:#181818;stroke-width:0.5;" width="4" x="711" y="562.028"/><rect fill="#FFE6CC" height="2" style="stroke:#181818;stroke-width:0.5;" width="4" x="711" y="566.028"/><text fill="#000000" font-family="sans-serif" font-size="18" lengthAdjust="spacing" textLength="59" x="649" y="592.4303">&#25509;&#21475;-D</text></g><!--entity ??--><g id="elem_&#29992;&#25143;"><ellipse cx="375.5" cy="87.128" fill="#FF6666" rx="8" ry="8" style="stroke:#181818;stroke-width:0.5;"/><path d="M375.5,95.128 L375.5,122.128 M362.5,103.128 L388.5,103.128 M375.5,122.128 L362.5,137.128 M375.5,122.128 L388.5,137.128 " fill="none" style="stroke:#181818;stroke-width:0.5;"/><text fill="#000000" font-family="sans-serif" font-size="18" lengthAdjust="spacing" textLength="36" x="357.5" y="156.0303">&#29992;&#25143;</text></g><!--entity MySQL???--><g id="elem_MySQL&#25968;&#25454;&#24211;"><path d="M6,565.528 C6,555.528 72.5,555.528 72.5,555.528 C72.5,555.528 139,555.528 139,565.528 L139,595.7272 C139,605.7272 72.5,605.7272 72.5,605.7272 C72.5,605.7272 6,605.7272 6,595.7272 L6,565.528 " fill="#006A84" style="stroke:#181818;stroke-width:0.5;"/><path d="M6,565.528 C6,575.528 72.5,575.528 72.5,575.528 C72.5,575.528 139,575.528 139,565.528 " fill="none" style="stroke:#181818;stroke-width:0.5;"/><text fill="#000000" font-family="sans-serif" font-size="18" lengthAdjust="spacing" textLength="113" x="16" y="596.9303">MySQL&#25968;&#25454;&#24211;</text></g><!--link ?? to ????--><g id="link_&#29992;&#25143;_&#21387;&#27979;&#25509;&#21475;"><path d="M375.5,160.128 C375.5,208.888 375.5,283.888 375.5,324.548 " fill="none" id="&#29992;&#25143;-to-&#21387;&#27979;&#25509;&#21475;" style="stroke:#181818;stroke-width:1.0;"/><polygon fill="#181818" points="375.5,330.548,379.5,321.548,375.5,325.548,371.5,321.548,375.5,330.548" style="stroke:#181818;stroke-width:1.0;"/><text fill="#000000" font-family="sans-serif" font-size="18" lengthAdjust="spacing" textLength="72" x="376.5" y="239.2303">&#29992;&#25143;&#35775;&#38382;</text></g><!--link ???? to ??-A--><g id="link_&#21387;&#27979;&#25509;&#21475;_&#25509;&#21475;-A"><path d="M348.79,382.288 C331.73,399.018 309.82,422.118 293.5,445.028 C268.06,480.748 248.2183,521.2647 235.6783,549.1847 " fill="none" id="&#21387;&#27979;&#25509;&#21475;-to-&#25509;&#21475;-A" style="stroke:#181818;stroke-width:1.0;"/><polygon fill="#181818" points="233.22,554.658,240.5563,548.0869,235.2686,550.0969,233.2586,544.8092,233.22,554.658" style="stroke:#181818;stroke-width:1.0;"/><text fill="#000000" font-family="sans-serif" font-size="18" lengthAdjust="spacing" textLength="72" x="294.5" y="463.4303">&#21516;&#27493;&#35843;&#29992;</text></g><!--link ???? to ??-B--><g id="link_&#21387;&#27979;&#25509;&#21475;_&#25509;&#21475;-B"><path d="M375.5,382.488 C375.5,425.278 375.5,505.938 375.5,548.658 " fill="none" id="&#21387;&#27979;&#25509;&#21475;-to-&#25509;&#21475;-B" style="stroke:#181818;stroke-width:1.0;"/><polygon fill="#181818" points="375.5,554.658,379.5,545.658,375.5,549.658,371.5,545.658,375.5,554.658" style="stroke:#181818;stroke-width:1.0;"/><text fill="#000000" font-family="sans-serif" font-size="18" lengthAdjust="spacing" textLength="72" x="376.5" y="463.4303">&#21516;&#27493;&#35843;&#29992;</text></g><!--link ???? to ??-C--><g id="link_&#21387;&#27979;&#25509;&#21475;_&#25509;&#21475;-C"><path d="M402.21,382.288 C419.27,399.018 441.18,422.118 457.5,445.028 C482.94,480.748 502.7817,521.2647 515.3217,549.1847 " fill="none" id="&#21387;&#27979;&#25509;&#21475;-to-&#25509;&#21475;-C" style="stroke:#181818;stroke-width:1.0;"/><polygon fill="#181818" points="517.78,554.658,517.7414,544.8092,515.7314,550.0969,510.4437,548.0869,517.78,554.658" style="stroke:#181818;stroke-width:1.0;"/><text fill="#000000" font-family="sans-serif" font-size="18" lengthAdjust="spacing" textLength="72" x="472.5" y="463.4303">&#21516;&#27493;&#35843;&#29992;</text></g><!--link ???? to ??-D--><g id="link_&#21387;&#27979;&#25509;&#21475;_&#25509;&#21475;-D"><path d="M431.62,379.108 C468.13,394.598 515.79,417.528 553.5,445.028 C597.86,477.378 636.5183,521.0279 660.2383,550.1179 " fill="none" id="&#21387;&#27979;&#25509;&#21475;-to-&#25509;&#21475;-D" style="stroke:#181818;stroke-width:1.0;"/><polygon fill="#181818" points="664.03,554.768,661.4425,545.2651,660.8703,550.8929,655.2424,550.3207,664.03,554.768" style="stroke:#181818;stroke-width:1.0;"/><text fill="#000000" font-family="sans-serif" font-size="18" lengthAdjust="spacing" textLength="72" x="581.5" y="463.4303">&#21516;&#27493;&#35843;&#29992;</text></g><!--link ???? to MySQL???--><g id="link_&#21387;&#27979;&#25509;&#21475;_MySQL&#25968;&#25454;&#24211;"><path d="M319.24,378.588 C282.38,393.938 234.22,416.898 196.5,445.028 C153.2,477.318 116.379,521.3151 94.069,550.4351 " fill="none" id="&#21387;&#27979;&#25509;&#21475;-to-MySQL&#25968;&#25454;&#24211;" style="stroke:#181818;stroke-width:1.0;"/><polygon fill="#181818" points="90.42,555.198,99.0687,550.4864,93.4608,551.229,92.7183,545.6211,90.42,555.198" style="stroke:#181818;stroke-width:1.0;"/><text fill="#000000" font-family="sans-serif" font-size="18" lengthAdjust="spacing" textLength="72" x="197.5" y="463.4303">&#21516;&#27493;&#26597;&#35810;</text></g><text fill="#888888" font-family="Source Han Serif SC" font-size="20" lengthAdjust="spacing" textLength="383" x="179.25" y="650.248">D&#29916;&#21733; &#183; https://www.diguage.com &#183; &#20986;&#21697;</text><!--SRC=[bT9DIm9160Vm-toA1xi9g_PcYuT0zuKE5SH-Wab7MzHTsHsHYWuHKM1PeDMb20gXInQ820O5VPPcjM_Hh5QMwqREzVd_dXd-Z9tLZGAsS3vd9hCa1IcIniKSLKs3QleMWMaHsICHgjCS-GxCHZs1j6bIOdqdPYB-ArPnde1c5gqaWILiW8OD6pJ90mo-SMoUM7fw71Y-mPVq7m718AkKdLRPgTJPoUtRyrMlTSxscztcKp2844vIqu9kxSuvRCEKgaRvGGYbBNVf0B9EZSzX6m4_IJDVC0rYK0ZyN1k0ANbU4UKvj3FKVIV4lN9WXBYhuegeIgxwXHA-AC6HCiqlM_0WoHT97AcYf4ZUcsHV9Bj8LQ83bC8KhsERG61bKrjRTiuUdUC6wrHvA1A9niKvX3vR50HXSRITs6V5lSRB-qK3ZKm7OjXA3DZfaNDVxptkSVPdEZ5HMfeeBVylFTh7bt6kwxs76rvt_wU2tArUiceTNjkmGMd1ZeN3fL8fbD8pHPmX8Tw_Es877LRT_G00]--></g></svg>