<svg height="492.368" width="492.368" xmlns="http://www.w3.org/2000/svg"><g transform="translate(-85.267 -180.607)"><path d="m313.95 319.303s21.748-7.727 37.85-1.175c18.442 7.504 22.69 23.17 22.69 23.17s15.18-8.827 28.242-10.57c29.016-4.614 46.977.022 55.522 24.254 47.781-18.022 67.97 7.875 79.28 34.364 4.832 11.318-2.514 17.656-12.822 34.623l-120.432 91.797c-35.483 19.4 52.748-30.728-30.124-81.4-11.278-.9-25.809-.177-37.185 8.628s-19.598 25.691-19.967 23.807c-7.055-36.08-48.957-43.893-55.5-45.735-29.12 10.657-36.051 22.59-42.405 37.03-6.23-36.296-27.46-40.998-57.836-46.114z" fill="#a48261"/><path d="m314.59 471.882c0 25.652-17.922 45.593-44.244 45.593s-52.572-23.144-52.572-48.796 20.484-47.728 46.806-47.728c26.323 0 50.01 25.28 50.01 50.931zm-97.805-13.026c0 25.652-12.37 45.806-38.692 45.806s-51.29-18.873-51.29-44.525 15.786-45.165 42.108-45.165 47.874 18.232 47.874 43.884zm194.542 25.412c0 25.652-20.27 46.874-46.593 46.874-26.322 0-49.37-20.582-49.37-46.233 0-25.652 22.834-50.504 49.156-50.504 26.323 0 46.807 24.211 46.807 49.863z" fill="#f8dfa4"/><path d="m368.834 478.04c2.965-.945 6.477 2.013 8.078 4.681 2.929 4.88.529 16.006.529 16.006l-17.365-1.51s2.062-17.042 8.758-19.177zm-209.136-32.616c2.965-.945 6.477 2.012 8.079 4.681 2.928 4.88.604 17.063.604 17.063l-17.441-2.567s2.063-17.042 8.758-19.177z" fill="#fff"/><path d="m363.476 533.953c-1.36-.167-3.178-.437-9.578-1.423-2.585-.398-8.254-1.816-11.199-2.8-3.456-1.156-8.797-3.873-11.334-5.765-3.549-2.646-7.875-7.178-10.096-10.575-2.911-4.453-7.235-14.288-8.163-18.568-.083-.383-.231-.746-.329-.807-.098-.06-.616.787-1.151 1.882-1.826 3.733-3.375 5.802-7.017 9.367-2.556 2.503-4.098 3.8-6.477 5.449-5.075 3.517-11.015 6.272-17.595 8.16-3.504 1.005-4.681 1.172-8.133 1.147-3.593-.026-8.762-.76-11.842-1.682-.947-.283-3.224-.86-5.06-1.28-4.423-1.014-6.122-1.597-10.223-3.511-4.609-2.15-6.328-3.152-9.902-5.77-3.004-2.2-7.632-6.569-9.22-8.705-3.679-4.947-7.027-10.499-8.85-14.676-.603-1.381-1.19-2.529-1.305-2.55-.115-.02-.532.722-.927 1.65-2.898 6.816-4.124 8.754-8.16 12.908-2.519 2.591-4.505 3.965-8.444 5.84-4.261 2.029-5.613 2.534-9.304 3.482-4.914 1.26-7.77 1.607-11.818 1.434-7.396-.316-11.406-.981-16.568-2.748-8.196-2.805-16.695-7.3-22.186-11.737-2.94-2.374-6.649-6.486-8.99-9.966-2.512-3.73-5.036-9.742-5.767-13.73-.475-2.595-.645-8.975-.333-12.536.481-5.507 1.285-8.33 4.138-14.533 2.111-4.59 2.856-5.973 4.455-8.28 3.362-4.846 6.54-8.308 10.05-10.949a54.456 54.456 0 0 0 4.09-3.477c1.066-1.022 2.519-2.252 3.23-2.734 2.534-1.717 11.944-7.293 18.14-10.749 3.465-1.932 7-3.994 7.859-4.58 3.048-2.087 8.697-5.722 10.924-7.03 3.476-2.042 9.478-5.87 10.44-6.659.475-.389 1.59-1.07 2.478-1.514 2.642-1.321 4.882-2.715 12.81-7.969 7.17-4.75 10.3-6.815 19.916-13.137 2.309-1.519 5.312-3.407 6.674-4.198a242.67 242.67 0 0 0 4.737-2.834c1.243-.769 3.956-2.301 6.028-3.406 3.837-2.046 11.289-6.332 15.179-8.731 2.183-1.347 3.451-2.083 10.75-6.238 2.242-1.276 4.49-2.637 4.995-3.023 1.37-1.045 6.227-4.019 9.768-5.98l5.167-2.862c1.125-.624 2.724-1.684 3.553-2.355 3.049-2.471 5.593-3.869 10.442-5.736a211.65 211.65 0 0 0 5.053-2.048c3.245-1.369 6.566-2.489 8.78-2.96 2.4-.513 8.348-.815 13.94-.709 4.456.085 5.522.178 8.935.779 6.764 1.19 7.824 1.548 13.349 4.5 6.069 3.244 9.256 5.851 12.512 10.236 2.754 3.71 3.944 6.556 3.955 9.46.003.801.08 1.023.355 1.023.383 0 3.022-1.46 6.496-3.596 5-3.073 10.052-5.22 13.821-5.876.77-.134 2.303-.53 3.407-.88 3.202-1.016 10.26-1.705 17.455-1.704 5.106 0 10.152.504 14.017 1.398 1.361.315 3.687.814 5.167 1.108 2.825.562 5.547 1.662 7.681 3.105.571.386 2.608 2.275 4.527 4.198 2.775 2.779 3.817 3.996 5.087 5.94 2.102 3.213 4.134 6.982 4.565 8.465.19.655.438 1.19.55 1.19s1.146-.444 2.299-.988c2.78-1.312 4.077-1.651 9.308-2.434 2.428-.363 5.237-.853 6.244-1.089 5.988-1.403 14.888-1.895 19.726-1.092l4.065.674c1.96.323 5.816 1.473 7.858 2.344 1.708.728 6.682 3.587 9.6 5.518 1.916 1.267 8.31 6.774 10.854 9.348 2.005 2.028 7.21 9.173 8.379 11.501 2.821 5.62 3.247 7.343 3.247 13.147 0 4.27-.176 5.332-2.058 12.483-2.236 8.495-3.74 12.19-6.43 15.802-1.461 1.96-2.978 3.48-7.654 7.666a537.417 537.417 0 0 0 -4.522 4.09c-4.664 4.3-6.568 5.902-8.854 7.452-1.381.936-3.09 2.21-3.8 2.83-.708.621-2.584 2.163-4.17 3.425-1.584 1.263-3.801 3.126-4.926 4.14a149.335 149.335 0 0 1 -4.627 3.948 102.74 102.74 0 0 0 -5.06 4.476c-1.363 1.305-3.253 3.05-4.2 3.876a190.19 190.19 0 0 0 -3.24 2.902c-2.601 2.4-8.456 7.148-11.939 9.68-1.835 1.335-4.16 3.075-5.167 3.866a72.42 72.42 0 0 1 -3.497 2.564c-.917.619-2.516 1.83-3.553 2.691a500.123 500.123 0 0 1 -4.469 3.65 423.05 423.05 0 0 0 -5.167 4.252c-1.42 1.192-4.376 3.362-6.566 4.823a205.803 205.803 0 0 0 -7.543 5.318c-1.958 1.465-4.944 3.536-6.636 4.601-1.692 1.066-4.276 2.83-5.742 3.92-4.058 3.017-7.756 5.468-9.847 6.527-1.038.526-3.896 2.391-6.352 4.146-2.455 1.754-5.433 3.78-6.617 4.503-1.185.722-3.22 1.969-4.522 2.77-2.505 1.543-8.779 4.582-11.026 5.342-1.345.455-4.388 1.223-7.382 1.862-1.89.405-9.183.607-11.518.32zm9.688-6.135c5.054-.831 8.918-2.11 11.392-3.772.907-.61 2.744-1.623 4.082-2.251 4.139-1.945 8.698-5.919 11.867-10.343 4.272-5.966 5.997-10.94 6.59-19.007.468-6.378-.199-19.125-1.212-23.145-1.21-4.803-3.186-8.98-5.793-12.246-.978-1.224-3.27-3.68-5.094-5.455-2.96-2.884-4.374-4.043-9.99-8.196-2.188-1.617-6.372-4.4-6.616-4.4-.115 0-1.19-.554-2.387-1.233l-2.178-1.233-4.242-.083a57.968 57.968 0 0 0 -19.323 2.88c-7.42 2.421-11.583 4.913-17.077 10.22-5.328 5.146-11.993 18.935-13.96 28.882-.597 3.017-.986 10.68-.66 13.007.511 3.655 2.085 7.875 5.453 14.626 1.997 4.003 3.295 5.785 6.8 9.34 3.568 3.618 5.227 4.832 9.18 6.715 5.782 2.754 12.11 4.328 23.264 5.786 2.285.298 7.84.247 9.904-.093zm-.323-27.594c-.296-.042-2.282-.215-4.414-.385-2.131-.17-5.11-.474-6.62-.678l-2.745-.37v-1.126c0-.925.073-1.145.408-1.233.354-.092.428-.394.552-2.232.234-3.467.532-5.428 1.219-8.01 1.299-4.884 3.453-8.111 6.375-9.55 1.24-.61 1.61-.69 3.153-.683 1.11.005 2.042.134 2.552.353 1.23.529 2.823 2.156 3.577 3.653 1.54 3.06 2.64 9.715 2.148 12.99-.105.701-.193 2.234-.195 3.407-.004 2.298-.298 3.382-1.026 3.771-.397.213-3.695.274-4.984.093zm-6.364-3.284c.066-.107-.121-.712-.416-1.346-.862-1.851-.607-5.08.636-8.055.403-.964 1.865-3.08 2.623-3.795.92-.869 2.498-1.493 3.624-1.435.531.027 1.031-.016 1.112-.096.258-.26-.321-1.74-1.005-2.566-1.285-1.555-3.206-1.563-5.526-.023-2.887 1.917-4.829 5.849-5.564 11.267-.35 2.573-.402 5.128-.114 5.583.124.195.77.36 1.773.452 2.416.222 2.727.224 2.857.014zm7.993-7.872c1.361-.568 1.849-2.781.866-3.924-.431-.502-.69-.605-1.524-.605-.883 0-1.092.097-1.734.797-1.303 1.422-1.204 2.534.316 3.558.853.575 1.073.594 2.076.174zm-46.762-15.104c.352-5.717 2.311-11.255 5.33-15.069 3.853-4.868 8.05-8.038 10.72-8.099 1.14-.026 2.459.685 2.255 1.216-.061.16-.711.459-1.444.664-2.583.722-4.734 2.14-7.945 5.235-3.5 3.373-4.58 5.211-6.292 10.696-1.367 4.381-2.301 7.062-2.551 7.32-.134.139-.16-.561-.074-1.963zm71.935-2.295c-2.922-5.446-6.86-9.572-13.276-13.908-2.922-1.975-3.933-3.046-3.749-3.97.243-1.214.687-1.654 1.67-1.654 1.368 0 3.666.778 5.074 1.718 1.636 1.093 4.625 4.202 5.925 6.163 1.398 2.11 3.715 6.602 4.451 8.628.677 1.864 1.023 3.828.71 4.022-.112.069-.474-.38-.805-1zm-122.154 41.958c3.412-.87 8.767-2.89 11.72-4.416 4.668-2.415 8.34-5.092 11.734-8.558 3.413-3.484 4.347-4.881 6.489-9.708 3.136-7.067 3.822-10.142 3.99-17.87.176-8.087-.25-12.28-1.888-18.57-1.16-4.454-3.92-9.442-7.075-12.781-1.242-1.314-6.555-5.564-8.418-6.731-2.568-1.61-5.894-3.266-8.53-4.246-1.435-.533-3.597-1.465-4.804-2.07-3.467-1.74-5.94-2.536-10.44-3.356-3.461-.63-4.558-.743-7.276-.743-4.439 0-7.892.785-13.926 3.164-4.978 1.963-8.547 3.906-12.148 6.614-1.842 1.386-3.912 3.123-4.6 3.861-2.237 2.4-4.888 6.81-6.757 11.24-2.01 4.762-2.39 5.792-3.121 8.46-1.218 4.439-1.471 6.706-1.48 13.274-.01 5.759-.004 5.83.589 7.75 1.113 3.608 3.665 8.43 7.235 13.672 4.394 6.451 9.908 11.163 17.354 14.83 4.782 2.354 6.141 2.85 10.765 3.93 2.013.47 4.322 1.055 5.131 1.3 2.804.85 6.92 1.431 10.29 1.451 2.656.016 3.462-.061 5.166-.497zm-12.513-8.85c-2.17-.438-5.556-1.58-7.154-2.414-.797-.416-2.069-1.324-2.826-2.018-1.549-1.419-3.488-4.097-3.307-4.568.065-.17.375-.374.69-.453.503-.126.819.094 2.692 1.875 2.407 2.289 3.946 3.197 7.144 4.213 6.952 2.21 14.239.904 21.007-3.765 1.096-.756 2.08-1.374 2.189-1.374.269 0 1.525 1.736 1.525 2.107 0 .406-.647.93-2.69 2.177-5.36 3.27-9.646 4.557-15.072 4.521-1.54-.01-3.428-.145-4.198-.3zm146.917 3.084c1.198-.85 3.34-2.383 4.762-3.407a533.347 533.347 0 0 1 4.52-3.222c2.692-1.888 6.724-5.084 7.734-6.13.987-1.023 1.847-2.812 2.601-5.416.588-2.027.944-4.824.614-4.824-.111 0-.779.49-1.484 1.088-1.313 1.113-2.421 1.884-6.292 4.374-2.433 1.566-3.758 2.29-4.194 2.29-.209 0-.283-.383-.278-1.43.007-1.372.038-1.454.745-1.992a35.946 35.946 0 0 0 1.83-1.552c.601-.544 1.82-1.48 2.708-2.078s2.05-1.543 2.584-2.1c.532-.556 1.647-1.521 2.476-2.144.828-.623 1.737-1.384 2.02-1.691l.512-.558-.258-3.724c-.142-2.048-.47-4.983-.728-6.522l-.47-2.8h-2.184c-2.346 0-2.896-.222-3.325-1.343-.294-.768.53-2.975 1.823-4.888 1.308-1.934 1.305-1.594.042-4.856-1.021-2.639-5.74-11.836-6.804-13.262-1.924-2.578-6.647-7.295-10.113-10.1-1.56-1.263-10.553-6.735-12.435-7.567-4.196-1.856-10.337-3.248-15.231-3.452-3.615-.15-4.854.087-7.582 1.453-1.21.606-2.603 1.156-3.097 1.223-.55.074-1.82.656-3.29 1.51-1.317.764-4.743 2.598-7.615 4.076-2.872 1.479-5.221 2.776-5.221 2.885 0 .274.612.255 5.267-.161 3.4-.305 4.624-.327 7.32-.132 3.603.26 8.32 1.118 10.322 1.876.722.274 2 .754 2.84 1.068 3.46 1.294 12.265 7.815 17.602 13.036 10.406 10.18 13.601 19.227 13.578 38.442-.004 3.553-.119 7.525-.255 8.828-.501 4.813-1.709 9.632-3.304 13.188-.342.761-.621 1.424-.621 1.472 0 .376 1.033-.147 2.88-1.458zm-228.053-6.624c1.344-.23 3.644-.765 5.11-1.188 3.06-.882 8.389-3.305 10.7-4.865 1.898-1.28 5.776-5.461 6.984-7.53 2.606-4.463 4.745-11.2 5.926-18.666 2.063-13.046 2.204-16.713.87-22.625-.294-1.303-.77-2.935-1.056-3.626a52.477 52.477 0 0 1 -1.118-3.088c-1.285-3.942-3.77-7.97-6.505-10.55-2.954-2.785-4.904-4.516-5.67-5.034-.918-.62-5.582-2.931-5.916-2.931-.134 0-1.011-.383-1.948-.85-1.92-.958-6.936-2.3-11.427-3.056-2.22-.374-3.677-.468-7.393-.475l-4.63-.01-3.336.885c-3.654.969-6.603 1.986-9.093 3.136-2.057.95-8.518 5.22-11.026 7.287-3.606 2.971-7.857 8.361-9.913 12.568-4.849 9.92-5.36 11.885-5.375 20.669-.011 6.281.13 7.313 1.518 11.026 2.43 6.509 6.662 12.195 12.574 16.898 4.956 3.943 16.214 9.34 23.037 11.044 5.305 1.325 13.146 1.76 17.687.981zm-17.902-33.072c-1.007-.16-3.699-.539-5.982-.84-3.942-.522-6.719-1.048-8.874-1.68-.904-.265-.973-.338-1.036-1.091-.05-.606.043-.9.375-1.176.358-.298.523-.925.863-3.275.452-3.131 1.358-6.565 2.242-8.494.787-1.72 2.619-4.29 3.839-5.387 1.623-1.46 2.71-1.9 4.438-1.798 1.86.11 3.155.758 4.657 2.332 2.417 2.534 3.614 6.1 3.997 11.908.275 4.177.04 6.843-.766 8.664-.597 1.35-.571 1.344-3.753.837zm-7.458-3.493c.057-.092-.08-.698-.303-1.346-.799-2.315-.41-6.388.834-8.713.799-1.494 2.377-3.034 3.4-3.318.46-.128 1.49-.233 2.289-.234 1.281 0 1.453-.049 1.453-.408 0-.224-.317-.868-.705-1.43-.901-1.308-2.524-2.26-3.898-2.288-.881-.018-1.166.111-2.557 1.158-1.95 1.468-3.287 3.394-4.603 6.63-.91 2.236-2.223 7.208-2.229 8.433-.003.668.036.685 2.845 1.247 2.193.44 3.316.526 3.474.269zm6.776-6c.6-.387 1.156-1.623 1.156-2.566 0-2.325-2.634-3.78-4.131-2.283-.712.712-1.196 2.128-.997 2.92.167.665 1.335 2.041 1.95 2.297.533.221 1.338.075 2.022-.368zm41.516 4.014c-.172-.447-.72-2.748-.87-3.66-.07-.414-.226-2.303-.348-4.198-.123-1.895-.377-4.36-.565-5.477-.372-2.211-2.357-9.55-3.078-11.379-.524-1.33-.57-1.983-.141-1.983 1.28 0 4.604 7.239 5.587 12.165 1.087 5.446 1.028 11.347-.14 14.102-.223.524-.358.655-.445.43zm-66.385-16.326c.187-1.786 1.195-4.313 2.55-6.393 3.154-4.84 12.37-12.32 18.138-14.721 2.718-1.131 4.863-.816 4.863.714 0 .97-.26 1.207-2.662 2.434-2.84 1.45-4.77 2.734-8.92 5.932-2.49 1.919-3.915 3.263-7.474 7.053-3.927 4.181-5.336 5.544-6.33 6.127-.253.148-.28-.042-.165-1.146zm299.211 40.592c1.946-1.456 4.701-3.525 6.122-4.599 4.895-3.698 10.776-7.967 14.951-10.853 8.358-5.776 17.778-13.317 23.372-18.708a130.683 130.683 0 0 1 4.522-4.133 415.362 415.362 0 0 0 3.768-3.28c2.471-2.188 8.575-7.443 9.903-8.526 1.956-1.594 10.632-9.173 11-9.609.784-.928 1.52-3.388 2.016-6.74.501-3.38.437-4.541-.216-3.909-.291.282-3.002 1.617-4.403 2.167-.72.283-1.903.512-3.02.585-1.779.115-1.856.1-2.558-.49-.796-.67-1.312-1.694-1.312-2.604 0-.736.697-3.693 1.665-7.069 1.053-3.674 1.053-3.677.456-4.017-.685-.39-4.46-.32-7.09.132-3.738.643-9.3 2.21-15.269 4.301-8.296 2.908-9.331 3.324-13.97 5.612-2.262 1.116-4.615 2.178-5.23 2.36-1.341.399-2.4.436-2.282.08.047-.139 1.472-1.193 3.167-2.344 3.288-2.23 8.746-5.084 11.964-6.254a632.148 632.148 0 0 0 6.05-2.266c5.344-2.028 6.241-2.324 10.097-3.337 9.038-2.375 14.826-2.23 16.608.413.84 1.246.834 2.083-.036 5.467-1.147 4.457-1.138 4.414-.956 4.708.353.572 4.312-2.117 5.879-3.992l.825-.988-.34-2.15c-.632-3.987-3.019-8.661-6.7-13.118-4.027-4.877-7.504-8.186-11.306-10.763-4.551-3.085-9.203-4.951-18.506-7.425-3.272-.87-5.6-1.294-13.564-2.472a140.636 140.636 0 0 1 -4.63-.76c-3.576-.687-15.1-.612-18.36.118-1.722.386-9.082 5.22-13.702 9-4.666 3.817-14.998 11.678-17.349 13.198-1.006.65-2.508 1.618-3.337 2.15-.829.531-3.337 2.347-5.575 4.035-2.237 1.689-4.756 3.553-5.598 4.144-.84.59-2.401 1.786-3.467 2.657-3.264 2.667-6.51 5.22-7.532 5.923-1.448.996-1.404 1.04 1.396 1.394 4.378.554 10.294 2.202 13.931 3.883 2.743 1.267 11.617 6.794 13.81 8.6 2.973 2.449 8.342 7.874 9.957 10.06 1.437 1.947 5.044 8.628 6.663 12.343.516 1.184 1.018 2.247 1.114 2.361.103.123 1.06-.69 2.328-1.98 1.184-1.205 3.386-3.309 4.894-4.677 1.509-1.368 3.76-3.42 5.003-4.56 1.244-1.141 3.183-2.764 4.31-3.606 5.404-4.04 20.427-13.275 25.94-15.945 3.365-1.63 8.727-3.813 10.657-4.34.941-.257 2.211-.387 3.876-.396 2.305-.012 2.562.03 3.736.606 1.021.501 1.337.787 1.664 1.507.586 1.291.515 2.734-.25 5.03-1.951 5.856-10.764 16.617-20.334 24.83l-7.398 6.35c-9.2 7.9-14.629 12.333-20.172 16.473-2.97 2.218-5.561 4.194-5.76 4.392-.197.198-.36.607-.36.908 0 .556-.654 1.283-2.586 2.874-.889.732-.933.825-1.115 2.369-.194 1.646-1.133 6.54-1.376 7.174-.296.772.608.255 4.015-2.294zm.256-14.214c1.213-.985 3.03-2.408 4.036-3.163 2.768-2.076 7.217-5.726 9.15-7.507.947-.874 2.595-2.326 3.66-3.228a321.103 321.103 0 0 0 4.845-4.23 960.673 960.673 0 0 1 7.643-6.694c10.349-8.972 20.7-21.446 21.531-25.948.14-.755.121-.784-.596-.918-2.768-.52-10.836 2.638-18.746 7.337a840.784 840.784 0 0 1 -6.252 3.681c-2.601 1.505-12.472 8.017-14.207 9.372-.693.542-2.866 2.468-4.827 4.28-1.962 1.812-4.495 4.15-5.629 5.195-3.103 2.858-6.045 6.145-6.045 6.753 0 .28.144.566.32.634.753.288 9.22-4.313 16.711-9.08 3.624-2.306 6.66-4.5 6.645-4.802-.004-.078-.15-.33-.323-.56-.509-.672-.397-2.018.237-2.85.672-.88 3.145-2.654 5.045-3.616 1.667-.845 4.086-1.622 5.028-1.615 1.594.01 3.365 1.44 3.368 2.716.002.704-1.273 2.438-2.503 3.407-1.033.813-4.98 3.8-9.446 7.148-4.298 3.222-13.193 8.597-19.377 11.71l-4.09 2.058.018.742c.01.408.22 2.194.467 3.97.247 1.777.517 4.078.6 5.114.082 1.036.235 1.884.34 1.884.104 0 1.183-.806 2.396-1.79zm-121.967-9.638c.148-.287 1.074-2.177 2.058-4.2 3.054-6.282 5.792-10.29 9.46-13.845 3.832-3.714 6.003-5.356 10.106-7.64.989-.551 1.917-1.33 2.957-2.484 1.754-1.946 3.864-3.469 6.522-4.707a44.226 44.226 0 0 0 3.768-2.043c1.04-.643 3.489-2.022 5.443-3.065 3.94-2.104 7.79-4.348 8.613-5.02l.537-.44-.861-.9c-.474-.495-1.658-1.418-2.63-2.05-2.121-1.38-7.596-4.185-8.163-4.183-.221 0-1.178.446-2.125.99a92.561 92.561 0 0 1 -3.609 1.94c-5.07 2.556-16.144 9.809-20.182 13.216-2.102 1.774-4.603 3.585-5.759 4.17-1.997 1.013-5.006 1.482-5.006.78 0-.236 1.014-.899 2.927-1.911.735-.39 2.535-1.796 4.09-3.196 5.132-4.62 8.742-7.406 14.19-10.95a142.989 142.989 0 0 0 3.774-2.558c1.01-.714 2.924-1.92 4.252-2.68 1.329-.76 2.416-1.501 2.416-1.646 0-.402-2.146-1.179-8.289-3.003-8.507-2.526-8.797-2.594-17.051-3.992-4.552-.771-5.59-.87-11.417-1.09-12.785-.48-22.652.299-27.356 2.158-1.262.5-2.126.558-3.319.227-.774-.215-.87-.173-3.444 1.521-3.037 1.999-4.504 2.915-11.799 7.367-5.639 3.442-6.784 4.216-6.563 4.437.077.076 2.482.105 5.343.064l5.203-.076 3.66.89c3.57.866 5.673 1.655 7.065 2.647.377.27 1.146.703 1.708.964.562.26 1.385.866 1.83 1.346.616.665 1.217 1.018 2.53 1.483 2.349.833 6.783 3.175 9.581 5.061 2 1.349 6.417 5.016 8.184 6.798 2.956 2.977 6.495 8.73 7.889 12.818 1.094 3.21 2.653 10.713 2.657 12.783.002.828.386.837.81.019zm-97.473-16.898c.705-1.853 3.644-7.308 5.27-9.782 1.389-2.11 2.505-3.499 4.078-5.069 2.464-2.46 6.572-5.465 8.575-6.273a86.333 86.333 0 0 0 3.386-1.498c1.125-.526 2.71-1.142 3.521-1.37 1.007-.282 2.204-.886 3.768-1.902 1.26-.819 2.728-1.708 3.261-1.976 1.637-.823 4.314-2.609 6.46-4.31 5.158-4.09 8.496-6.39 12.52-8.624a61.76 61.76 0 0 0 3.947-2.435c1.067-.727 2.304-1.535 2.748-1.795s.807-.575.807-.7c0-.607-8-5.228-11.2-6.471a186.553 186.553 0 0 1 -4.062-1.637c-2.206-.93-14.23-3.939-18.325-4.585-5.962-.94-7.775-1.11-13.137-1.237l-5.494-.13-3.656 2.215c-5.892 3.568-8.214 4.917-11.3 6.562a448.834 448.834 0 0 0 -5.06 2.742c-1.183.655-3.12 1.72-4.305 2.367-1.184.647-3.191 1.771-4.46 2.5-2.468 1.416-10.347 4.666-10.848 4.474-.378-.145-.368-.274.086-1.197.411-.837 2.11-2.283 4.672-3.978 5.584-3.693 8.204-5.341 10.12-6.364a86.287 86.287 0 0 0 3.476-1.959c.728-.445 2.375-1.366 3.66-2.046 3.44-1.821 7.396-4.178 7.396-4.408 0-.275-.446-.252-2.691.138-3.11.54-5.625 1.332-8.505 2.677-3.842 1.794-4.836 2.152-5.982 2.155-.932.002-1.394.243-5.644 2.937a595.653 595.653 0 0 1 -5.705 3.586c-3.497 2.115-5.399 3.319-9.258 5.86-2.368 1.559-4.887 3.152-5.598 3.541-2.394 1.311-4.844 2.904-4.844 3.15 0 .171 1.4.277 4.683.356 3.587.085 5.236.22 7.05.58 5.463 1.08 9.388 2.28 13.764 4.205 1.767.777 3.981 1.61 4.92 1.849 3.662.935 5.52 1.838 8.096 3.933 4.822 3.923 8.553 9.27 10.318 14.789.36 1.128.892 2.68 1.182 3.45.439 1.165.99 3.197 1.559 5.748.144.645.492.614.751-.068zm302.224-28.956c1.803-2.596 2.902-4.646 4.233-7.901.52-1.272 1.251-2.989 1.624-3.814 1.049-2.32 2.986-8.766 3.494-11.623.422-2.375.438-2.807.206-5.598-.522-6.277-1.117-7.773-6.17-15.511-4.652-7.127-4.345-6.788-9.782-10.778-2.988-2.192-4.2-2.941-5.921-3.663-1.19-.499-3.182-1.338-4.426-1.864-3.291-1.392-5.162-1.996-8.125-2.621-6.558-1.385-16.75-1.196-22.017.407-1.006.306-3.174.897-4.818 1.312-5.042 1.275-6.8 1.917-8.44 3.084-.82.582-1.755 1.348-2.08 1.702-.324.354-1.05.911-1.614 1.24-.564.327-2.042 1.287-3.286 2.133-1.243.846-2.819 1.869-3.5 2.272-.683.403-1.213.816-1.18.917.034.1 1.527.225 3.318.276 3.893.111 7.01.442 15.034 1.594 7.866 1.129 7.658 1.084 15.813 3.374 2.762.775 8.731 3.024 10.793 4.066 2.276 1.15 7.224 4.594 9.241 6.432 3.544 3.228 8.024 8.326 10.227 11.638 1.312 1.97 3.13 5.531 4.102 8.029.334.858.726 1.56.87 1.56.145 0 .932-1.008 1.748-2.242 1.777-2.684 2.977-3.786 4.125-3.786 1.653 0 2.459 1.223 2.208 3.352-.228 1.928-2.109 4.741-5.555 8.307l-2.008 2.078-.003 3.52c-.002 1.936-.065 3.75-.14 4.033-.275 1.027.464.326 2.028-1.925zm-147.757-2.733c1.096-.8 3.33-2.422 4.962-3.606 3.451-2.503 5.238-3.903 8.07-6.323 1.124-.962 4.176-3.364 6.781-5.34 2.605-1.974 5.221-3.997 5.813-4.495s2.97-2.157 5.285-3.687c2.314-1.53 5.982-4.182 8.15-5.894a2072.02 2072.02 0 0 1 6.234-4.901c1.26-.985 3.164-2.504 4.23-3.376a219.431 219.431 0 0 1 3.084-2.48c1.277-.996 1.273-.94.188-2.783-.932-1.584-3.214-3.972-6.071-6.355-3.01-2.509-3.846-3.132-4.205-3.132-.159 0-1.216.523-2.348 1.161-1.133.638-3.658 2.056-5.612 3.15a855.383 855.383 0 0 0 -5.275 2.974c-.947.542-2.643 1.479-3.768 2.082-8.279 4.438-20.932 12.498-28.496 18.15-1.675 1.252-3.965 2.823-5.09 3.492-1.713 1.018-6.355 3.963-6.657 4.223-.473.409.975.149 5.418-.972 6.296-1.588 10.04-2.126 12.193-1.751 2.048.356 2.68.721 3.335 1.926 1.18 2.169.677 2.966-3.03 4.8-1.515.75-4.305 2.23-6.2 3.29a220.515 220.515 0 0 1 -5.8 3.128c-1.295.662-2.391 1.313-2.436 1.447-.044.134.311.443.79.688 2.013 1.027 4.755 2.966 6.291 4.45.904.873 1.762 1.587 1.907 1.587.144 0 1.16-.654 2.257-1.453zm-13.41-9.025c1.34-.67 3.259-1.721 4.265-2.334a167.308 167.308 0 0 1 3.822-2.24c1.737-.983 2.386-1.526 1.827-1.526-.09 0-2.198.542-4.683 1.203-2.485.662-4.712 1.252-4.949 1.312-1.26.319-5.33 1.697-6.405 2.168-.68.299-1.238.66-1.238.802 0 .307 3.516 1.77 4.347 1.809.32.015 1.672-.521 3.014-1.194zm-13.707-4.608c2.029-2.057 4.917-4.192 8.81-6.512 1.782-1.063 3.92-2.387 4.749-2.942a51.776 51.776 0 0 1 3.013-1.847c.83-.46 2.864-1.852 4.522-3.091 1.658-1.24 5.388-3.85 8.29-5.799a5239.66 5239.66 0 0 0 6.566-4.417c1.448-.978 8.075-4.91 11.78-6.99 3.773-2.117 7.673-4.298 11.903-6.658 4.696-2.619 5.167-2.909 5.167-3.178 0-.315-1.597-1.013-4.844-2.116-3.78-1.284-14.513-3.378-17.763-3.465-2.356-.064-6.738.153-10.759.532-2.691.254-13.058 2.39-18.737 3.862-1.776.46-3.81.952-4.521 1.093-1.439.286-2.822.934-5.637 2.64a147.842 147.842 0 0 1 -4.374 2.513c-2.638 1.451-12.163 7.729-19.27 12.698-4.225 2.956-10.04 6.815-13.475 8.944-.955.592-4.078 2.622-6.94 4.512-2.863 1.889-5.97 3.876-6.904 4.416-1.687.975-2.023 1.438-.993 1.372.296-.019 3.881-.042 7.966-.051 11.469-.026 14.43.206 23.468 1.835 4.874.878 7.809 1.595 12.595 3.074 1.895.585 3.544 1.072 3.666 1.08.122.01.897-.668 1.722-1.505zm-61.718-4.164c.453-.286 2.025-1.122 3.494-1.857 1.47-.735 3.348-1.774 4.175-2.308a73.923 73.923 0 0 1 3.442-2.046c3.18-1.766 13.343-8.546 30.579-20.402a255.716 255.716 0 0 1 6.997-4.622c1.835-1.157 3.492-2.261 3.68-2.453.298-.301.32-.695.166-2.917-.219-3.153-.34-3.53-1.89-5.891-1.82-2.77-5.277-6.025-9.06-8.53-2.64-1.747-4.196-2.362-10.443-4.13-4.4-1.246-7.06-1.784-10.649-2.154-3.46-.356-5.088-.287-13.68.576-1.184.12-3.655.273-5.49.343l-3.337.126-2.153 1.337c-2.76 1.715-5.825 3.478-10.012 5.76-3.586 1.955-4.682 2.622-19.86 12.076-5.478 3.41-11.315 6.983-12.973 7.939-5.219 3.007-8.173 4.847-10.943 6.816a135.982 135.982 0 0 1 -5.721 3.797c-1.67 1.038-3.036 1.973-3.036 2.077 0 .226 1.291.237 5.266.047l2.965-.143 4.335-3.187c4.812-3.537 6.725-4.713 8.898-5.47 1.786-.621 7.36-3.439 9.057-4.577.68-.456 2.197-1.338 3.37-1.96 1.175-.622 2.434-1.357 2.8-1.633.365-.276 2.262-1.462 4.216-2.636a314.118 314.118 0 0 0 5.598-3.438c1.91-1.219 8.094-4.747 12.272-7.003 1.761-.95 8.058-3.867 10.173-4.712l2.1-.836c.591-.235 1.076-.341 1.076-.236 0 .52-9.837 7.846-18.085 13.467a211.968 211.968 0 0 0 -5.98 4.257c-1.572 1.17-3.8 2.687-4.952 3.37a129.875 129.875 0 0 0 -3.601 2.22 58.473 58.473 0 0 1 -3.445 2.017 64.794 64.794 0 0 0 -3.42 1.982c-2.641 1.681-7.172 3.716-9.006 4.044-.913.164-1.998.439-2.41.61-1.336.559-5.295 3.377-5.295 3.77 0 .09 1.187.28 2.638.42 5.712.555 11.986 1.698 19 3.463 4.008 1.01 7.61 2.044 8.612 2.475.947.408 2.973 1.233 4.502 1.834 4.211 1.655 12.37 6.537 13.993 8.373.53.6 1.02.586 2.037-.056zm148.116-26.945a60.245 60.245 0 0 0 3.143-1.906c.961-.627 2.085-1.313 2.498-1.525.8-.412 9.238-6.132 11.695-7.928 1.307-.955 1.457-1.138 1.343-1.633-.07-.307-.272-1.45-.448-2.542-.402-2.494-1.28-4.723-2.976-7.555-1.962-3.277-2.644-4.09-4.776-5.694-5.236-3.942-11.434-5.819-21.84-6.614-1.592-.122-6.637-.222-11.21-.222-7.678 0-8.437.034-9.914.436-.88.24-2.279.575-3.108.745-4.228.865-9.65 3.149-12.056 5.078-.592.475-1.804 1.31-2.692 1.855-.888.546-2.486 1.547-3.552 2.224a73.242 73.242 0 0 1 -3.382 2.019c-.794.433-1.498.876-1.565.984s-.41.34-.763.516c-1.028.513-5.231 2.93-5.685 3.268-.228.17-.365.36-.303.422s1.792-.226 3.844-.64c2.432-.491 4.9-.83 7.085-.975 1.844-.122 3.692-.27 4.106-.33.415-.06 2.546-.12 4.737-.132 3.978-.023 3.99-.021 10.419 1.19 3.54.668 7.021 1.366 7.737 1.552 2.576.667 6.327 2.052 8.816 3.254l2.535 1.225 1.448-.778c2.349-1.262 5.188-2.348 7.26-2.776 2.057-.424 3.553-.52 3.553-.229 0 .793-2.758 3.214-5.723 5.026-1.989 1.215-2.294 1.483-2.07 1.815.083.122 1.119 1.005 2.303 1.962 2.66 2.151 5.12 4.678 6.345 6.522.99 1.49 1.511 2.153 1.69 2.153.06 0 .739-.345 1.506-.767zm-89.799-11.823c.447-.175 2.016-.663 3.488-1.083 2.198-.628 3.275-1.097 6.028-2.629 5.858-3.257 12.332-7.224 14.308-8.767l1.911-1.492-.146-1.928c-.223-2.956-.954-5.71-2.132-8.037-.788-1.555-2.915-4.16-4.413-5.408-2.71-2.255-7.462-4.634-11.238-5.626-1.364-.358-2.913-.804-3.442-.99-4.305-1.52-13.029-2.455-20.5-2.199-5.796.198-9.038 1.016-14.62 3.685-1.614.771-3.941 1.78-5.172 2.243-3.082 1.158-3.265 1.26-9.565 5.386-7.405 4.847-7.398 4.842-6.904 4.945.22.045 2.06-.096 4.09-.314 7.525-.81 14.346-.42 19.645 1.125 1.054.308 3.077.847 4.496 1.2 5.923 1.472 9.631 3.477 15.026 8.123 3.776 3.253 6.893 7.772 7.369 10.685.26 1.596.338 1.643 1.771 1.08z" fill="#5a4836"/></g></svg>