<svg height="125.5" viewBox="-7.929 -7.929 72.72 49.53" width="184.3" xmlns="http://www.w3.org/2000/svg"><g stroke-width=".1874"><path d="m21.72 24.79c-1.143 6.217-2.65 10.74-4.521 13.55-1.458 2.172-3.055 3.258-4.794 3.258-.4636 0-1.035-.14-1.714-.4182v-1.499c.3314.04865.7203.07461 1.167.07461.8113 0 1.465-.2248 1.963-.6735.5957-.5468.8938-1.161.8938-1.842 0-.4652-.2325-1.42-.6955-2.864l-3.08-9.589h2.757l2.21 7.172c.4966 1.628.7037 2.765.6208 3.413 1.209-3.238 2.054-6.766 2.534-10.58h2.658m-12.17 12.4h-2.806c-.09869-4.749-.3723-9.215-.8194-13.4h-.02472l-4.273 13.4h-2.137l-4.247-13.4h-.02502c-.3151 4.018-.5134 8.483-.596 13.4h-2.559c.1653-5.978.5792-11.58 1.241-16.81h3.478l4.049 12.35h.02484l4.074-12.35h3.328c.7287 6.126 1.159 11.73 1.291 16.81" fill="#00758f"/><path d="m59.08 37.19h-7.973v-16.81h2.683v14.74h5.29v2.068m-20.05-3.363c-.6791-1.096-1.019-2.854-1.019-5.279 0-4.233 1.284-6.351 3.85-6.351 1.342 0 2.327.5066 2.956 1.519.6783 1.096 1.018 2.84 1.018 5.231 0 4.267-1.284 6.402-3.85 6.402-1.341 0-2.327-.506-2.955-1.52m9.985 3.768-3.082-1.524c.2744-.2256.535-.4691.7709-.7509 1.309-1.542 1.963-3.825 1.963-6.848 0-5.562-2.178-8.344-6.533-8.344-2.136 0-3.801.7053-4.993 2.118-1.309 1.544-1.963 3.819-1.963 6.824 0 2.955.5792 5.123 1.738 6.5 1.056 1.245 2.653 1.868 4.792 1.868.7977 0 1.53-.09848 2.195-.2955l4.013 2.342 1.094-1.89m-15-5.065c0 1.426-.5224 2.596-1.564 3.512-1.042.9118-2.443 1.369-4.196 1.369-1.64 0-3.229-.5261-4.769-1.57l.7203-1.444c1.325.6641 2.524.9957 3.6.9957 1.01 0 1.8-.2253 2.372-.6705.5705-.4484.9124-1.074.9124-1.867 0-.9982-.6943-1.851-1.968-2.567-1.176-.6471-3.526-1.998-3.526-1.998-1.273-.9314-1.912-1.931-1.912-3.577 0-1.362.4761-2.463 1.427-3.3.9531-.8392 2.183-1.259 3.689-1.259 1.557 0 2.972.4165 4.247 1.247l-.6475 1.443c-1.091-.4637-2.166-.6964-3.227-.6964-.8605 0-1.524.2072-1.986.6239-.4649.4131-.7523.9448-.7523 1.593 0 .9956.7094 1.859 2.019 2.589 1.191.6474 3.599 2.025 3.599 2.025 1.31.9297 1.963 1.921 1.963 3.554" fill="#f29111"/><path d="m60.99 37.19h.4445v-1.71h.5818v-.3494h-1.631v.3494h.6043zm3.383 0h.419v-2.06h-.6302l-.5129 1.404-.5584-1.404h-.6073v2.06h.3965v-1.568h.02253l.5848 1.568h.3021l.5839-1.568v1.568" fill="#f29111"/><path d="m36.78-7.929c-.7089-.01057-1.327.2572-1.646 1.042-.5471 1.321.8104 2.62 1.277 3.291.3441.4666.7901.9956 1.032 1.523.142.3455.183.7118.3254 1.077.3238.8936.627 1.889 1.053 2.723.2221.4266.4649.8738.7485 1.258.1636.2248.4462.325.5073.6917-.2827.4058-.3048 1.015-.4666 1.524-.7289 2.295-.4459 5.139.5878 6.825.3233.5077 1.094 1.625 2.128 1.198.9116-.365.7089-1.523.9721-2.538.06059-.2455.02007-.4065.1413-.5688v.04099c.2835.5679.568 1.115.8312 1.686.6289.9943 1.722 2.03 2.634 2.72.4848.367.8702.9957 1.478 1.22v-.06149h-.0399c-.1221-.1823-.304-.264-.4663-.4055-.3645-.3659-.7685-.8131-1.053-1.219-.8505-1.137-1.601-2.397-2.268-3.697-.3251-.6312-.6082-1.321-.8718-1.95-.1212-.2426-.1213-.6093-.3243-.7309-.3047.4464-.7492.8327-.9717 1.379-.3852.8745-.4255 1.951-.5684 3.068-.08051.02122-.03983.000188-.08052.04062-.6475-.1624-.8704-.8327-1.114-1.4-.6077-1.444-.7099-3.76-.1823-5.425.1411-.4258.7507-1.766.5065-2.173-.1225-.3876-.5274-.609-.7499-.915-.2627-.3858-.5478-.8725-.7283-1.3-.4865-1.137-.731-2.397-1.256-3.534-.2433-.529-.6698-1.077-1.013-1.564-.3857-.5486-.8105-.9344-1.115-1.584-.1004-.2239-.2423-.59-.08089-.833.03982-.1628.1221-.2238.2844-.2646.2619-.2235 1.012.06031 1.275.1823.7501.3038 1.378.5895 2.005 1.015.2839.2035.5879.5897.952.6921h.4264c.648.1411 1.378.03931 1.986.2229 1.073.345 2.045.8528 2.917 1.401 2.653 1.686 4.841 4.084 6.319 6.947.2437.4666.3459.8933.5684 1.38.4255.9973.953 2.013 1.378 2.987.4251.9548.8309 1.929 1.439 2.722.303.4258 1.519.6493 2.066.8729.4043.1822 1.033.3449 1.398.568.6887.4258 1.376.9141 2.025 1.382.3233.2438 1.336.7511 1.397 1.158l.000372.000375c-1.621-.04066-2.877.1215-3.93.5688-.3039.1217-.7896.1216-.8312.5076.1632.1622.1829.4263.3257.6507.2424.4062.6669.9538 1.053 1.239.4255.3252.8508.649 1.297.9333.7895.4896 1.681.7728 2.45 1.26.4471.284.8913.6494 1.338.9549.2221.1624.3626.4269.6474.5274v-.06185c-.1428-.1823-.1824-.4461-.3235-.6504-.2021-.2016-.4053-.3855-.6083-.5878-.5878-.7921-1.318-1.482-2.106-2.051-.6488-.4481-2.068-1.058-2.33-1.807 0 0-.02144-.02135-.04135-.04135.4458-.04123.9738-.204 1.399-.3272.6878-.1823 1.316-.1413 2.025-.3235.3246-.08185.6488-.1838.9743-.2836v-.1841c-.3666-.3648-.6286-.8533-1.013-1.198-1.032-.8934-2.168-1.766-3.343-2.499-.6289-.4064-1.439-.6691-2.108-1.015-.242-.1221-.6467-.1822-.7891-.3865-.3649-.4467-.5684-1.035-.8312-1.564-.5869-1.116-1.155-2.355-1.661-3.535-.3645-.7916-.5874-1.583-1.033-2.315-2.088-3.454-4.356-5.545-7.84-7.597-.7497-.4271-1.641-.6095-2.592-.833-.5073-.02127-1.013-.06092-1.52-.08088-.3246-.1428-.6495-.5292-.9326-.7119-.722-.4568-2.156-1.247-3.337-1.265zm4.998 5.021c-.3437 0-.5862.04178-.8308.1021v.04063h.03953c.1636.3242.4477.5495.6485.8334.1632.3251.3051.6488.467.9743.0199-.01996.03917-.04099.03917-.04099.2857-.2022.4275-.527.4275-1.015-.1225-.1432-.1416-.2843-.2438-.4271-.1212-.2027-.3848-.3043-.5472-.467z" fill="#00758f"/></g></svg>