<svg contentScriptType="application/ecmascript" contentStyleType="text/css" height="507" preserveAspectRatio="none" viewBox="0 0 501 507" width="501" xmlns="http://www.w3.org/2000/svg" xmlns:xlink="http://www.w3.org/1999/xlink" zoomAndPan="magnify"><filter id="a" height="300%" width="300%" x="-1" y="-1"><feGaussianBlur result="blurOut" stdDeviation="2"/><feColorMatrix in="blurOut" result="blurOut2" type="matrix" values="0 0 0 0 0 0 0 0 0 0 0 0 0 0 0 0 0 0 .4 0"/><feOffset dx="4" dy="4" in="blurOut2" result="blurOut3"/><feBlend in="SourceGraphic" in2="blurOut3" mode="normal"/></filter><text font-family="sans-serif" font-size="18" font-weight="bold" lengthAdjust="spacingAndGlyphs" textLength="72" x="217.5" y="17.4023">组合模式</text><path d="m243 145.1992h204v86.8652h-204z" fill="#fefece" filter="url(#a)" stroke="#a80036" stroke-width="1.5"/><ellipse cx="307.75" cy="161.1992" fill="#a9dcdf" rx="11" ry="11" stroke="#a80036"/><path d="m307.8633 156.5474-1.1538 5.0717h2.3159zm-1.4942-2.2412h2.9966l3.3452 12.393h-2.4487l-.7637-3.063h-3.2788l-.747 3.063h-2.4488z"/><text font-family="sans-serif" font-size="12" font-style="italic" lengthAdjust="spacingAndGlyphs" textLength="66" x="328.25" y="165.7344">Component</text><path d="m244 177.1992h202" stroke="#a80036" stroke-width="1.5"/><path d="m244 185.1992h202" stroke="#a80036" stroke-width="1.5"/><ellipse cx="254" cy="197.1768" fill="#84be84" rx="3" ry="3" stroke="#038048"/><text font-family="sans-serif" font-size="11" font-style="italic" lengthAdjust="spacingAndGlyphs" textLength="158" x="263" y="199.834">add(component :Component)</text><ellipse cx="254" cy="210.1318" fill="#84be84" rx="3" ry="3" stroke="#038048"/><text font-family="sans-serif" font-size="11" font-style="italic" lengthAdjust="spacingAndGlyphs" textLength="178" x="263" y="212.7891">remove(component :Component)</text><ellipse cx="254" cy="223.0869" fill="#84be84" rx="3" ry="3" stroke="#038048"/><text font-family="sans-serif" font-size="11" font-style="italic" lengthAdjust="spacingAndGlyphs" textLength="97" x="263" y="225.7441">display(depth :int)</text><path d="m203 29.1992v55.9317a0 0 0 0 0 0 0h138l4 59.8792 4-59.8792h138a0 0 0 0 0 0 0v-45.9317l-10-10h-274a0 0 0 0 0 0 0" fill="#fbfb77" filter="url(#a)" stroke="#a80036"/><path d="m477 29.1992v10h10z" fill="#fbfb77" stroke="#a80036"/><text font-family="sans-serif" font-size="13" lengthAdjust="spacingAndGlyphs" textLength="234" x="209" y="46.7676">组合中的对象声明接口，在适当情况下，</text><text font-family="sans-serif" font-size="13" lengthAdjust="spacingAndGlyphs" textLength="247" x="209" y="62.0781">实现所有类共有接口的默认行为。声明一个</text><text font-family="sans-serif" font-size="13" lengthAdjust="spacingAndGlyphs" textLength="263" x="209" y="77.3887">接口用于访问和管理 Component 的子部件。</text><path d="m69.5 305.1992h123v60.9551h-123z" fill="#fefece" filter="url(#a)" stroke="#a80036" stroke-width="1.5"/><ellipse cx="114.75" cy="321.1992" fill="#add1b2" rx="11" ry="11" stroke="#a80036"/><path d="m117.7231 326.8423q-.581.2988-1.2202.4482-.6391.1494-1.3447.1494-2.5068 0-3.8267-1.6518-1.3198-1.6519-1.3198-4.773 0-3.1294 1.3198-4.7812 1.3199-1.6519 3.8267-1.6519.7056 0 1.353.1494.6475.1495 1.2119.4483v2.7226q-.6308-.581-1.2243-.8508-.5935-.2698-1.2244-.2698-1.3447 0-2.0295 1.0667-.6848 1.0666-.6848 3.1667 0 2.0918.6848 3.1585.6848 1.0666 2.0295 1.0666.6309 0 1.2244-.2697.5935-.2698 1.2243-.8509z"/><text font-family="sans-serif" font-size="12" lengthAdjust="spacingAndGlyphs" textLength="24" x="135.25" y="325.7344">Leaf</text><path d="m70.5 337.1992h121" stroke="#a80036" stroke-width="1.5"/><path d="m70.5 345.1992h121" stroke="#a80036" stroke-width="1.5"/><ellipse cx="80.5" cy="357.1768" fill="#84be84" rx="3" ry="3" stroke="#038048"/><text font-family="sans-serif" font-size="11" lengthAdjust="spacingAndGlyphs" textLength="97" x="89.5" y="359.834">display(depth :int)</text><path d="m6 446.6992v40.6211a0 0 0 0 0 0 0h190a0 0 0 0 0 0 0v-30.6211l-10-10h-76.2542l14.2205-80.1691-22.2205 80.1691h-95.7458a0 0 0 0 0 0 0" fill="#fbfb77" filter="url(#a)" stroke="#a80036"/><path d="m186 446.6992v10h10z" fill="#fbfb77" stroke="#a80036"/><text font-family="sans-serif" font-size="13" lengthAdjust="spacingAndGlyphs" textLength="169" x="12" y="464.2676">在组合中表示叶子节点对象，</text><text font-family="sans-serif" font-size="13" lengthAdjust="spacingAndGlyphs" textLength="117" x="12" y="479.5781">页节点没有子节点。</text><path d="m243 292.1992h204v86.8652h-204z" fill="#fefece" filter="url(#a)" stroke="#a80036" stroke-width="1.5"/><ellipse cx="310.25" cy="308.1992" fill="#add1b2" rx="11" ry="11" stroke="#a80036"/><path d="m313.2231 313.8423q-.581.2988-1.2202.4482-.6391.1494-1.3447.1494-2.5068 0-3.8267-1.6518-1.3198-1.6519-1.3198-4.773 0-3.1294 1.3198-4.7812 1.3199-1.6519 3.8267-1.6519.7056 0 1.353.1494.6475.1495 1.2119.4483v2.7226q-.6308-.581-1.2243-.8508-.5935-.2698-1.2244-.2698-1.3447 0-2.0295 1.0667-.6848 1.0666-.6848 3.1667 0 2.0918.6848 3.1585.6848 1.0666 2.0295 1.0666.6309 0 1.2244-.2697.5935-.2698 1.2243-.8509z"/><text font-family="sans-serif" font-size="12" lengthAdjust="spacingAndGlyphs" textLength="61" x="330.75" y="312.7344">Composite</text><path d="m244 324.1992h202" stroke="#a80036" stroke-width="1.5"/><path d="m244 332.1992h202" stroke="#a80036" stroke-width="1.5"/><ellipse cx="254" cy="344.1768" fill="#84be84" rx="3" ry="3" stroke="#038048"/><text font-family="sans-serif" font-size="11" lengthAdjust="spacingAndGlyphs" textLength="158" x="263" y="346.834">add(component :Component)</text><ellipse cx="254" cy="357.1318" fill="#84be84" rx="3" ry="3" stroke="#038048"/><text font-family="sans-serif" font-size="11" lengthAdjust="spacingAndGlyphs" textLength="178" x="263" y="359.7891">remove(component :Component)</text><ellipse cx="254" cy="370.0869" fill="#84be84" rx="3" ry="3" stroke="#038048"/><text font-family="sans-serif" font-size="11" lengthAdjust="spacingAndGlyphs" textLength="97" x="263" y="372.7441">display(depth :int)</text><path d="m231 439.1992v55.9317a0 0 0 0 0 0 0h258a0 0 0 0 0 0 0v-45.9317l-10-10h-118.2297l-10.7755-59.7124 2.7755 59.7124h-121.7703a0 0 0 0 0 0 0" fill="#fbfb77" filter="url(#a)" stroke="#a80036"/><path d="m479 439.1992v10h10z" fill="#fbfb77" stroke="#a80036"/><text font-family="sans-serif" font-size="13" lengthAdjust="spacingAndGlyphs" textLength="221" x="237" y="456.7676">定义有枝节点行为，用来存储子部件，</text><text font-family="sans-serif" font-size="13" lengthAdjust="spacingAndGlyphs" textLength="237" x="237" y="472.0781">在 Component 接口中实现与子部件有关</text><text font-family="sans-serif" font-size="13" lengthAdjust="spacingAndGlyphs" textLength="237" x="237" y="487.3887">的操作，比如增加 add 和删除 remove。</text><path d="m144 164.6992h64v48h-64z" fill="#fefece" filter="url(#a)" stroke="#a80036" stroke-width="1.5"/><ellipse cx="159" cy="180.6992" fill="#add1b2" rx="11" ry="11" stroke="#a80036"/><path d="m161.9731 186.3423q-.581.2988-1.2202.4482-.6391.1494-1.3447.1494-2.5068 0-3.8267-1.6518-1.3198-1.6519-1.3198-4.773 0-3.1294 1.3198-4.7812 1.3199-1.6519 3.8267-1.6519.7056 0 1.353.1494.6475.1495 1.2119.4483v2.7226q-.6308-.581-1.2243-.8508-.5935-.2698-1.2244-.2698-1.3447 0-2.0295 1.0667-.6848 1.0666-.6848 3.1667 0 2.0918.6848 3.1585.6848 1.0666 2.0295 1.0666.6309 0 1.2244-.2697.5935-.2698 1.2243-.8509z"/><text font-family="sans-serif" font-size="12" lengthAdjust="spacingAndGlyphs" textLength="32" x="173" y="185.2344">Client</text><g stroke="#a80036"><path d="m145 196.6992h62" stroke-width="1.5"/><path d="m145 204.6992h62" stroke-width="1.5"/><path d="m208.0176 188.6992h29.6179" fill="none"/><path d="m242.7983 188.6992-9-4 4 4-4 4z" fill="#a80036"/><path d="m358.1773 279.1099c.4257-10.9736.4302-22.479.0137-33.4639" fill="none"/><path d="m357.4616 232.406-3.4988 9.2064 3.7739-4.214 4.2139 3.7739z" fill="#a80036"/><path d="m357.7367 237.3984.4401 7.988"/><path d="m357.4492 292.1608 4.328-5.7679-3.6596-6.2134-4.328 5.7678z" fill="#fff"/><path d="m332.3445 252.73c-.2672 13.318.0321 27.0577.898 39.4308" fill="none"/><path d="m325.366 252.0821 7.8647-19.6761 6.122 20.286z" fill="none"/><path d="m264.7804 243.8033c-30.2156 20.7556-63.4762 43.6029-89.2745 61.3241" fill="none"/><path d="m261.2128 237.7616 20.4487-5.5542-12.5219 17.0939z" fill="none"/></g></svg>