<svg contentScriptType="application/ecmascript" contentStyleType="text/css" height="452" preserveAspectRatio="none" viewBox="0 0 674 452" width="674" xmlns="http://www.w3.org/2000/svg" xmlns:xlink="http://www.w3.org/1999/xlink" zoomAndPan="magnify"><filter id="a" height="300%" width="300%" x="-1" y="-1"><feGaussianBlur result="blurOut" stdDeviation="2"/><feColorMatrix in="blurOut" result="blurOut2" type="matrix" values="0 0 0 0 0 0 0 0 0 0 0 0 0 0 0 0 0 0 .4 0"/><feOffset dx="4" dy="4" in="blurOut2" result="blurOut3"/><feBlend in="SourceGraphic" in2="blurOut3" mode="normal"/></filter><text font-family="sans-serif" font-size="18" font-weight="bold" lengthAdjust="spacingAndGlyphs" textLength="72" x="304.5" y="17.4023">策略模式</text><path d="m105.5 145.1992h122v73.9102h-122z" fill="#fefece" filter="url(#a)" stroke="#a80036" stroke-width="1.5"/><ellipse cx="141.2" cy="161.1992" fill="#add1b2" rx="11" ry="11" stroke="#a80036"/><path d="m144.1731 166.8423q-.581.2988-1.2202.4482-.6391.1494-1.3447.1494-2.5068 0-3.8267-1.6518-1.3198-1.6519-1.3198-4.773 0-3.1294 1.3198-4.7812 1.3199-1.6519 3.8267-1.6519.7056 0 1.353.1494.6475.1495 1.2119.4483v2.7226q-.6308-.581-1.2243-.8508-.5935-.2698-1.2244-.2698-1.3447 0-2.0295 1.0667-.6848 1.0666-.6848 3.1667 0 2.0918.6848 3.1585.6848 1.0666 2.0295 1.0666.6309 0 1.2244-.2697.5935-.2698 1.2243-.8509z"/><text font-family="sans-serif" font-size="12" lengthAdjust="spacingAndGlyphs" textLength="44" x="159.8" y="165.7344">Context</text><path d="m106.5 177.1992h120" stroke="#a80036" stroke-width="1.5"/><path d="m113.5 186.1768h6v6h-6z" fill="none" stroke="#c82930"/><text font-family="sans-serif" font-size="11" lengthAdjust="spacingAndGlyphs" textLength="94" x="125.5" y="191.834">strategy :Strategy</text><path d="m106.5 198.1543h120" stroke="#a80036" stroke-width="1.5"/><ellipse cx="116.5" cy="210.1318" fill="#84be84" rx="3" ry="3" stroke="#038048"/><text font-family="sans-serif" font-size="11" lengthAdjust="spacingAndGlyphs" textLength="96" x="125.5" y="212.7891">contextInterface()</text><path d="m6 29.1992v55.9317a0 0 0 0 0 0 0h120.0477l26.3736 59.625-18.3736-59.625h98.9523a0 0 0 0 0 0 0v-45.9317l-10-10h-217a0 0 0 0 0 0 0" fill="#fbfb77" filter="url(#a)" stroke="#a80036"/><path d="m223 29.1992v10h10z" fill="#fbfb77" stroke="#a80036"/><text font-family="sans-serif" font-size="13" lengthAdjust="spacingAndGlyphs" textLength="106" x="12" y="46.7676">Context 上下文，</text><text font-family="sans-serif" font-size="13" lengthAdjust="spacingAndGlyphs" textLength="206" x="12" y="62.0781">用一个 ConcreteStrategy 来配置，</text><text font-family="sans-serif" font-size="13" lengthAdjust="spacingAndGlyphs" textLength="202" x="12" y="77.3887">维护一个对 Strategy 对象的引用。</text><path d="m321 151.6992h133v60.9551h-133z" fill="#fefece" filter="url(#a)" stroke="#a80036" stroke-width="1.5"/><ellipse cx="360.75" cy="167.6992" fill="#a9dcdf" rx="11" ry="11" stroke="#a80036"/><path d="m360.8633 163.0474-1.1538 5.0717h2.3159zm-1.4942-2.2412h2.9966l3.3452 12.393h-2.4487l-.7637-3.063h-3.2788l-.747 3.063h-2.4488z"/><text font-family="sans-serif" font-size="12" font-style="italic" lengthAdjust="spacingAndGlyphs" textLength="46" x="380.25" y="172.2344">Strategy</text><path d="m322 183.6992h131" stroke="#a80036" stroke-width="1.5"/><path d="m322 191.6992h131" stroke="#a80036" stroke-width="1.5"/><ellipse cx="332" cy="203.6768" fill="#84be84" rx="3" ry="3" stroke="#038048"/><text font-family="sans-serif" font-size="11" font-style="italic" lengthAdjust="spacingAndGlyphs" textLength="107" x="341" y="206.334">algorithmInterface()</text><path d="m303.5 36.6992v40.6211a0 0 0 0 0 0 0h100.0369l-10.1802 74.3754 18.1802-74.3754h107.9631a0 0 0 0 0 0 0v-30.6211l-10-10h-206a0 0 0 0 0 0 0" fill="#fbfb77" filter="url(#a)" stroke="#a80036"/><path d="m509.5 36.6992v10h10z" fill="#fbfb77" stroke="#a80036"/><text font-family="sans-serif" font-size="13" lengthAdjust="spacingAndGlyphs" textLength="52" x="309.5" y="54.2676">策略类，</text><text font-family="sans-serif" font-size="13" lengthAdjust="spacingAndGlyphs" textLength="195" x="309.5" y="69.5781">定义所有支持的算法的公共接口。</text><path d="m112 279.1992h137v60.9551h-137z" fill="#fefece" filter="url(#a)" stroke="#a80036" stroke-width="1.5"/><ellipse cx="127" cy="295.1992" fill="#add1b2" rx="11" ry="11" stroke="#a80036"/><path d="m129.9731 300.8423q-.581.2988-1.2202.4482-.6391.1494-1.3447.1494-2.5068 0-3.8267-1.6518-1.3198-1.6519-1.3198-4.773 0-3.1294 1.3198-4.7812 1.3199-1.6519 3.8267-1.6519.7056 0 1.353.1494.6475.1495 1.2119.4483v2.7226q-.6308-.581-1.2243-.8508-.5935-.2698-1.2244-.2698-1.3447 0-2.0295 1.0667-.6848 1.0666-.6848 3.1667 0 2.0918.6848 3.1585.6848 1.0666 2.0295 1.0666.6309 0 1.2244-.2697.5935-.2698 1.2243-.8509z"/><text font-family="sans-serif" font-size="12" lengthAdjust="spacingAndGlyphs" textLength="105" x="141" y="299.7344">ConcreteStrategyA</text><path d="m113 311.1992h135" stroke="#a80036" stroke-width="1.5"/><path d="m113 319.1992h135" stroke="#a80036" stroke-width="1.5"/><ellipse cx="123" cy="331.1768" fill="#84be84" rx="3" ry="3" stroke="#038048"/><text font-family="sans-serif" font-size="11" lengthAdjust="spacingAndGlyphs" textLength="107" x="132" y="333.834">algorithmInterface()</text><path d="m319.5 279.1992h136v60.9551h-136z" fill="#fefece" filter="url(#a)" stroke="#a80036" stroke-width="1.5"/><ellipse cx="334.5" cy="295.1992" fill="#add1b2" rx="11" ry="11" stroke="#a80036"/><path d="m337.4731 300.8423q-.581.2988-1.2202.4482-.6391.1494-1.3447.1494-2.5068 0-3.8267-1.6518-1.3198-1.6519-1.3198-4.773 0-3.1294 1.3198-4.7812 1.3199-1.6519 3.8267-1.6519.7056 0 1.353.1494.6475.1495 1.2119.4483v2.7226q-.6308-.581-1.2243-.8508-.5935-.2698-1.2244-.2698-1.3447 0-2.0295 1.0667-.6848 1.0666-.6848 3.1667 0 2.0918.6848 3.1585.6848 1.0666 2.0295 1.0666.6309 0 1.2244-.2697.5935-.2698 1.2243-.8509z"/><text font-family="sans-serif" font-size="12" lengthAdjust="spacingAndGlyphs" textLength="104" x="348.5" y="299.7344">ConcreteStrategyB</text><path d="m320.5 311.1992h134" stroke="#a80036" stroke-width="1.5"/><path d="m320.5 319.1992h134" stroke="#a80036" stroke-width="1.5"/><ellipse cx="330.5" cy="331.1768" fill="#84be84" rx="3" ry="3" stroke="#038048"/><text font-family="sans-serif" font-size="11" lengthAdjust="spacingAndGlyphs" textLength="107" x="339.5" y="333.834">algorithmInterface()</text><path d="m526 279.1992h137v60.9551h-137z" fill="#fefece" filter="url(#a)" stroke="#a80036" stroke-width="1.5"/><ellipse cx="541" cy="295.1992" fill="#add1b2" rx="11" ry="11" stroke="#a80036"/><path d="m543.9731 300.8423q-.581.2988-1.2202.4482-.6391.1494-1.3447.1494-2.5068 0-3.8267-1.6518-1.3198-1.6519-1.3198-4.773 0-3.1294 1.3198-4.7812 1.3199-1.6519 3.8267-1.6519.7056 0 1.353.1494.6475.1495 1.2119.4483v2.7226q-.6308-.581-1.2243-.8508-.5935-.2698-1.2244-.2698-1.3447 0-2.0295 1.0667-.6848 1.0666-.6848 3.1667 0 2.0918.6848 3.1585.6848 1.0666 2.0295 1.0666.6309 0 1.2244-.2697.5935-.2698 1.2243-.8509z"/><text font-family="sans-serif" font-size="12" lengthAdjust="spacingAndGlyphs" textLength="105" x="555" y="299.7344">ConcreteStrategyC</text><path d="m527 311.1992h135" stroke="#a80036" stroke-width="1.5"/><path d="m527 319.1992h135" stroke="#a80036" stroke-width="1.5"/><ellipse cx="537" cy="331.1768" fill="#84be84" rx="3" ry="3" stroke="#038048"/><text font-family="sans-serif" font-size="11" lengthAdjust="spacingAndGlyphs" textLength="107" x="546" y="333.834">algorithmInterface()</text><path d="m245.5 400.1992v40.6211h284v-30.6211l-10-10z" fill="#fbfb77" filter="url(#a)" stroke="#a80036"/><path d="m519.5 400.1992v10h10z" fill="#fbfb77" stroke="#a80036"/><text font-family="sans-serif" font-size="13" lengthAdjust="spacingAndGlyphs" textLength="78" x="251.5" y="417.7676">具体策略类，</text><text font-family="sans-serif" font-size="13" lengthAdjust="spacingAndGlyphs" textLength="263" x="251.5" y="433.0781">封装了具体的算法或行为，继承于 Strategy。</text><path d="m240.8647 182.1992h79.8828" fill="none" stroke="#a80036"/><path d="m227.793 182.1992 6 4 6-4-6-4z" fill="#a80036" stroke="#a80036"/><text font-family="sans-serif" font-size="13" lengthAdjust="spacingAndGlyphs" textLength="59" x="235.5955" y="179.1403">-strategy</text><g fill="none" stroke="#a80036"><path d="m320.7178 223.3332c-29.4782 18.1568-63.522 39.1258-90.6824 55.8551" stroke-dasharray="7 7"/><path d="m317.2183 217.2674 20.7-4.5288-13.3578 16.449z"/><path d="m387.5 232.9347v46.0324" stroke-dasharray="7 7"/><path d="m380.5001 232.7387 6.9999-20.0001 7.0001 20z"/><path d="m454.2822 223.3332c29.4782 18.1568 63.522 39.1258 90.6824 55.8551" stroke-dasharray="7 7"/><path d="m450.4395 229.1876-13.3578-16.449 20.7 4.5288z"/><path d="m237.6116 340.3243c35.5419 19.0586 80.2856 43.0517 111.5962 59.8414" stroke-dasharray="7 7"/><path d="m387.5 340.3243v59.6716" stroke-dasharray="7 7"/><path d="m537.3884 340.3243c-35.5419 19.0586-80.2856 43.0517-111.5962 59.8414" stroke-dasharray="7 7"/></g></svg>