<svg xmlns="http://www.w3.org/2000/svg" xmlns:xlink="http://www.w3.org/1999/xlink" contentStyleType="text/css" height="2034px" preserveAspectRatio="none" style="width:982px;height:2034px;background:#FFFFFF;" version="1.1" viewBox="0 0 982 2034" width="982px" zoomAndPan="magnify"><defs/><g><text fill="#000000" font-family="Source Han Sans SC" font-size="36" font-weight="bold" lengthAdjust="spacing" textLength="779" x="97.5" y="70.96">AbstractApplicationContext.refresh -- &#37325;&#22609;&#23481;&#22120;</text><rect fill="#FFFFFF" height="1664.183" style="stroke:#181818;stroke-width:1.0;" width="10" x="329" y="234.4864"/><rect fill="#53E516" height="300.8217" style="stroke:#181818;stroke-width:1.0;" width="10" x="334" y="720.7249"/><rect fill="#FFFFFF" height="104.3316" style="stroke:#181818;stroke-width:1.0;" width="10" x="740" y="865.2149"/><rect fill="none" height="261.8217" style="stroke:#000000;stroke-width:1.5;" width="879" x="10" y="740.7249"/><line style="stroke:#181818;stroke-width:0.5;stroke-dasharray:5.0,5.0;" x1="157" x2="157" y1="173.5272" y2="1916.6694"/><line style="stroke:#181818;stroke-width:0.5;stroke-dasharray:5.0,5.0;" x1="334" x2="334" y1="173.5272" y2="1916.6694"/><line style="stroke:#181818;stroke-width:0.5;stroke-dasharray:5.0,5.0;" x1="745" x2="745" y1="173.5272" y2="1916.6694"/><text fill="#000000" font-family="sans-serif" font-size="18" lengthAdjust="spacing" textLength="46" x="131" y="169.7303">Actor</text><ellipse cx="157" cy="100.828" fill="#E2E2F0" rx="8" ry="8" style="stroke:#181818;stroke-width:0.5;"/><path d="M157,108.828 L157,135.828 M144,116.828 L170,116.828 M157,135.828 L144,150.828 M157,135.828 L170,150.828 " fill="none" style="stroke:#181818;stroke-width:0.5;"/><text fill="#000000" font-family="sans-serif" font-size="18" lengthAdjust="spacing" textLength="46" x="131" y="1933.0718">Actor</text><ellipse cx="157" cy="1945.3686" fill="#E2E2F0" rx="8" ry="8" style="stroke:#181818;stroke-width:0.5;"/><path d="M157,1953.3686 L157,1980.3686 M144,1961.3686 L170,1961.3686 M157,1980.3686 L144,1995.3686 M157,1980.3686 L170,1995.3686 " fill="none" style="stroke:#181818;stroke-width:0.5;"/><rect fill="#E2E2F0" height="38" rx="2.5" ry="2.5" style="stroke:#181818;stroke-width:0.5;" width="282" x="193" y="134.5272"/><ellipse cx="212" cy="153.5272" fill="#ADD1B2" rx="12" ry="12" style="stroke:#181818;stroke-width:1.0;"/><path d="M214.501,159.6493 Q213.8857,159.9657 213.209,160.1239 Q212.5322,160.2821 211.7852,160.2821 Q209.1309,160.2821 207.7334,158.5331 Q206.3359,156.7841 206.3359,153.4794 Q206.3359,150.1659 207.7334,148.4169 Q209.1309,146.6678 211.7852,146.6678 Q212.5322,146.6678 213.2178,146.826 Q213.9033,146.9842 214.501,147.3007 L214.501,150.1835 Q213.833,149.5682 213.2046,149.2826 Q212.5762,148.9969 211.9082,148.9969 Q210.4844,148.9969 209.7593,150.1263 Q209.0342,151.2557 209.0342,153.4794 Q209.0342,155.6942 209.7593,156.8236 Q210.4844,157.953 211.9082,157.953 Q212.5762,157.953 213.2046,157.6674 Q213.833,157.3817 214.501,156.7665 Z " fill="#000000"/><text fill="#000000" font-family="sans-serif" font-size="18" lengthAdjust="spacing" textLength="238" x="230" y="158.9296">AbstractApplicationContext</text><rect fill="#E2E2F0" height="38" rx="2.5" ry="2.5" style="stroke:#181818;stroke-width:0.5;" width="282" x="193" y="1915.6694"/><ellipse cx="212" cy="1934.6694" fill="#ADD1B2" rx="12" ry="12" style="stroke:#181818;stroke-width:1.0;"/><path d="M214.501,1940.7915 Q213.8857,1941.1079 213.209,1941.2661 Q212.5322,1941.4243 211.7852,1941.4243 Q209.1309,1941.4243 207.7334,1939.6753 Q206.3359,1937.9263 206.3359,1934.6216 Q206.3359,1931.3081 207.7334,1929.5591 Q209.1309,1927.8101 211.7852,1927.8101 Q212.5322,1927.8101 213.2178,1927.9683 Q213.9033,1928.1265 214.501,1928.4429 L214.501,1931.3257 Q213.833,1930.7104 213.2046,1930.4248 Q212.5762,1930.1392 211.9082,1930.1392 Q210.4844,1930.1392 209.7593,1931.2685 Q209.0342,1932.3979 209.0342,1934.6216 Q209.0342,1936.8364 209.7593,1937.9658 Q210.4844,1939.0952 211.9082,1939.0952 Q212.5762,1939.0952 213.2046,1938.8096 Q213.833,1938.5239 214.501,1937.9087 Z " fill="#000000"/><text fill="#000000" font-family="sans-serif" font-size="18" lengthAdjust="spacing" textLength="238" x="230" y="1940.0718">AbstractApplicationContext</text><rect fill="#E2E2F0" height="38" rx="2.5" ry="2.5" style="stroke:#181818;stroke-width:0.5;" width="268" x="611" y="134.5272"/><ellipse cx="630" cy="153.5272" fill="#AB9DE1" rx="12" ry="12" style="stroke:#181818;stroke-width:1.0;"/><path d="M626.0117,149.4403 L626.0117,147.1551 L633.8252,147.1551 L633.8252,149.4403 L631.2148,149.4403 L631.2148,157.9921 L633.8252,157.9921 L633.8252,160.2772 L626.0117,160.2772 L626.0117,157.9921 L628.6221,157.9921 L628.6221,149.4403 Z " fill="#000000"/><text fill="#000000" font-family="sans-serif" font-size="18" lengthAdjust="spacing" textLength="224" x="648" y="158.9296">BeanFactoryPostProcessor</text><rect fill="#E2E2F0" height="38" rx="2.5" ry="2.5" style="stroke:#181818;stroke-width:0.5;" width="268" x="611" y="1915.6694"/><ellipse cx="630" cy="1934.6694" fill="#AB9DE1" rx="12" ry="12" style="stroke:#181818;stroke-width:1.0;"/><path d="M626.0117,1930.5825 L626.0117,1928.2974 L633.8252,1928.2974 L633.8252,1930.5825 L631.2148,1930.5825 L631.2148,1939.1343 L633.8252,1939.1343 L633.8252,1941.4194 L626.0117,1941.4194 L626.0117,1939.1343 L628.6221,1939.1343 L628.6221,1930.5825 Z " fill="#000000"/><text fill="#000000" font-family="sans-serif" font-size="18" lengthAdjust="spacing" textLength="224" x="648" y="1940.0718">BeanFactoryPostProcessor</text><rect fill="#FFFFFF" height="1664.183" style="stroke:#181818;stroke-width:1.0;" width="10" x="329" y="234.4864"/><rect fill="#53E516" height="300.8217" style="stroke:#181818;stroke-width:1.0;" width="10" x="334" y="720.7249"/><rect fill="#FFFFFF" height="104.3316" style="stroke:#181818;stroke-width:1.0;" width="10" x="740" y="865.2149"/><polygon fill="#181818" points="317,230.4864,327,234.4864,317,238.4864,321,234.4864" style="stroke:#181818;stroke-width:1.0;"/><line style="stroke:#181818;stroke-width:1.0;" x1="157" x2="323" y1="234.4864" y2="234.4864"/><text fill="#000000" font-family="JetBrains Mono" font-size="18" lengthAdjust="spacing" textLength="77" x="164" y="205.8872">refresh</text><text fill="#000000" font-family="sans-serif" font-size="18" lengthAdjust="spacing" textLength="72" x="164" y="228.6896">&#37325;&#22609;&#23481;&#22120;</text><line style="stroke:#181818;stroke-width:1.0;" x1="339" x2="381" y1="293.4457" y2="293.4457"/><line style="stroke:#181818;stroke-width:1.0;" x1="381" x2="381" y1="293.4457" y2="306.4457"/><line style="stroke:#181818;stroke-width:1.0;" x1="340" x2="381" y1="306.4457" y2="306.4457"/><polygon fill="#181818" points="350,302.4457,340,306.4457,350,310.4457,346,306.4457" style="stroke:#181818;stroke-width:1.0;"/><text fill="#000000" font-family="JetBrains Mono" font-size="18" lengthAdjust="spacing" textLength="154" x="346" y="264.8464">prepareRefresh</text><text fill="#000000" font-family="sans-serif" font-size="18" lengthAdjust="spacing" textLength="72" x="346" y="287.6488">&#20934;&#22791;&#29615;&#22659;</text><line style="stroke:#181818;stroke-width:1.0;" x1="339" x2="381" y1="390.4049" y2="390.4049"/><line style="stroke:#181818;stroke-width:1.0;" x1="381" x2="381" y1="390.4049" y2="403.4049"/><line style="stroke:#181818;stroke-width:1.0;" x1="340" x2="381" y1="403.4049" y2="403.4049"/><polygon fill="#181818" points="350,399.4049,340,403.4049,350,407.4049,346,403.4049" style="stroke:#181818;stroke-width:1.0;"/><text fill="#000000" font-family="JetBrains Mono" font-size="18" lengthAdjust="spacing" textLength="242" x="346" y="361.8057">obtainFreshBeanFactory</text><text fill="#000000" font-family="sans-serif" font-size="18" lengthAdjust="spacing" textLength="140" x="346" y="384.608">&#33719;&#21462;BeanFactory</text><path d="M610,357.4923 L610,392.4923 L793,392.4923 L793,367.4923 L783,357.4923 L610,357.4923 " fill="#FEFFDD" style="stroke:#181818;stroke-width:0.5;"/><path d="M783,357.4923 L783,367.4923 L793,367.4923 L783,357.4923 " fill="#FEFFDD" style="stroke:#181818;stroke-width:0.5;"/><text fill="#000000" font-family="Source Han Serif SC" font-size="18" lengthAdjust="spacing" textLength="162" x="616" y="383.2103">&#21152;&#36733;&#24182;&#35299;&#26512;&#37197;&#32622;&#25991;&#20214;</text><line style="stroke:#181818;stroke-width:1.0;" x1="339" x2="381" y1="489.9249" y2="489.9249"/><line style="stroke:#181818;stroke-width:1.0;" x1="381" x2="381" y1="489.9249" y2="502.9249"/><line style="stroke:#181818;stroke-width:1.0;" x1="340" x2="381" y1="502.9249" y2="502.9249"/><polygon fill="#181818" points="350,498.9249,340,502.9249,350,506.9249,346,502.9249" style="stroke:#181818;stroke-width:1.0;"/><text fill="#000000" font-family="JetBrains Mono" font-size="18" lengthAdjust="spacing" textLength="198" x="346" y="458.7649">prepareBeanFactory</text><text fill="#000000" font-family="sans-serif" font-size="18" lengthAdjust="spacing" textLength="36" x="346" y="484.128">&#20934;&#22791;</text><text fill="#000000" font-family="JetBrains Mono" font-size="18" lengthAdjust="spacing" textLength="121" x="388" y="482.5249">BeanFactory</text><path d="M566,442.7989 L566,503.7989 L960,503.7989 L960,452.7989 L950,442.7989 L566,442.7989 " fill="#FEFFDD" style="stroke:#181818;stroke-width:0.5;"/><path d="M950,442.7989 L950,452.7989 L960,452.7989 L950,442.7989 " fill="#FEFFDD" style="stroke:#181818;stroke-width:0.5;"/><text fill="#000000" font-family="Source Han Serif SC" font-size="18" lengthAdjust="spacing" textLength="300" x="572" y="468.5169">&#24573;&#30053;&#21508;&#31181; Aware &#25509;&#21475;&#30340;&#27880;&#20837;&#65307;&#21516;&#26102;&#65292;</text><text fill="#000000" font-family="Source Han Serif SC" font-size="18" lengthAdjust="spacing" textLength="229" x="572" y="494.3829">&#27880;&#20876;&#19968;&#20123;&#24517;&#35201;&#30340; Bean&#65292;&#27604;&#22914;</text><text fill="#000000" font-family="JetBrains Mono" font-size="18" lengthAdjust="spacing" textLength="121" x="806" y="494.1309">BeanFactory</text><text fill="#000000" font-family="Source Han Serif SC" font-size="18" lengthAdjust="spacing" textLength="18" x="927" y="494.3829">&#12290;</text><line style="stroke:#181818;stroke-width:1.0;" x1="339" x2="381" y1="589.4449" y2="589.4449"/><line style="stroke:#181818;stroke-width:1.0;" x1="381" x2="381" y1="589.4449" y2="602.4449"/><line style="stroke:#181818;stroke-width:1.0;" x1="340" x2="381" y1="602.4449" y2="602.4449"/><polygon fill="#181818" points="350,598.4449,340,602.4449,350,606.4449,346,602.4449" style="stroke:#181818;stroke-width:1.0;"/><text fill="#000000" font-family="JetBrains Mono" font-size="18" lengthAdjust="spacing" textLength="242" x="346" y="558.2849">postProcessBeanFactory</text><text fill="#000000" font-family="sans-serif" font-size="18" lengthAdjust="spacing" textLength="18" x="346" y="583.648">&#23545;</text><text fill="#000000" font-family="JetBrains Mono" font-size="18" lengthAdjust="spacing" textLength="121" x="370" y="582.0449">BeanFactory</text><text fill="#000000" font-family="sans-serif" font-size="18" lengthAdjust="spacing" textLength="90" x="497" y="583.648">&#20570;&#21518;&#26399;&#22788;&#29702;</text><path d="M610,542.3189 L610,603.3189 L739,603.3189 L739,552.3189 L729,542.3189 L610,542.3189 " fill="#FEFFDD" style="stroke:#181818;stroke-width:0.5;"/><path d="M729,542.3189 L729,552.3189 L739,552.3189 L729,542.3189 " fill="#FEFFDD" style="stroke:#181818;stroke-width:0.5;"/><text fill="#000000" font-family="Source Han Serif SC" font-size="18" lengthAdjust="spacing" textLength="108" x="616" y="568.0369">&#39044;&#30041;&#25193;&#23637;&#28857;&#65292;</text><text fill="#000000" font-family="Source Han Serif SC" font-size="18" lengthAdjust="spacing" textLength="108" x="616" y="593.9029">&#30446;&#21069;&#26159;&#31354;&#23454;&#29616;</text><line style="stroke:#181818;stroke-width:1.0;" x1="339" x2="386" y1="707.7249" y2="707.7249"/><line style="stroke:#181818;stroke-width:1.0;" x1="386" x2="386" y1="707.7249" y2="720.7249"/><line style="stroke:#181818;stroke-width:1.0;" x1="345" x2="386" y1="720.7249" y2="720.7249"/><polygon fill="#181818" points="355,716.7249,345,720.7249,355,724.7249,351,720.7249" style="stroke:#181818;stroke-width:1.0;"/><text fill="#000000" font-family="JetBrains Mono" font-size="18" lengthAdjust="spacing" textLength="341" x="351" y="652.8049">invokeBeanFactoryPostProcessors</text><text fill="#000000" font-family="sans-serif" font-size="18" lengthAdjust="spacing" textLength="36" x="351" y="678.168">&#35843;&#29992;</text><text fill="#000000" font-family="JetBrains Mono" font-size="18" lengthAdjust="spacing" textLength="264" x="393" y="676.5649">BeanFactoryPostProcessor</text><text fill="#000000" font-family="sans-serif" font-size="18" lengthAdjust="spacing" textLength="18" x="663" y="678.168">&#30340;</text><text fill="#000000" font-family="JetBrains Mono" font-size="18" lengthAdjust="spacing" textLength="242" x="351" y="700.3249">postProcessBeanFactory</text><text fill="#000000" font-family="sans-serif" font-size="18" lengthAdjust="spacing" textLength="36" x="599" y="701.928">&#26041;&#27861;</text><path d="M10,740.7249 L95,740.7249 L95,753.9241 L85,763.9241 L10,763.9241 L10,740.7249 " fill="#EEEEEE" style="stroke:#000000;stroke-width:1.5;"/><rect fill="none" height="261.8217" style="stroke:#000000;stroke-width:1.5;" width="879" x="10" y="740.7249"/><text fill="#000000" font-family="sans-serif" font-size="18" font-weight="bold" lengthAdjust="spacing" textLength="40" x="25" y="759.1272">loop</text><text fill="#000000" font-family="sans-serif" font-size="18" font-weight="bold" lengthAdjust="spacing" textLength="7" x="110" y="760.1272">[</text><text fill="#000000" font-family="sans-serif" font-size="18" font-weight="bold" lengthAdjust="spacing" textLength="72" x="117" y="760.1272">&#36941;&#21382;&#25152;&#26377;</text><text fill="#000000" font-family="JetBrains Mono" font-size="18" font-weight="bold" lengthAdjust="spacing" textLength="264" x="195" y="759.5141">BeanFactoryPostProcessor</text><text fill="#000000" font-family="sans-serif" font-size="18" font-weight="bold" lengthAdjust="spacing" textLength="36" x="465" y="760.1272">&#23454;&#20363;</text><text fill="#000000" font-family="sans-serif" font-size="18" font-weight="bold" lengthAdjust="spacing" textLength="7" x="501" y="760.1272">]</text><polygon fill="#181818" points="728,861.2149,738,865.2149,728,869.2149,732,865.2149" style="stroke:#181818;stroke-width:1.0;"/><line style="stroke:#181818;stroke-width:1.0;" x1="344" x2="734" y1="865.2149" y2="865.2149"/><text fill="#000000" font-family="JetBrains Mono" font-size="18" lengthAdjust="spacing" textLength="242" x="351" y="836.6157">postProcessBeanFactory</text><text fill="#000000" font-family="sans-serif" font-size="18" lengthAdjust="spacing" textLength="377" x="351" y="859.418">&#26356;&#26032;&#23481;&#22120;&#20869; Bean &#30340;&#23450;&#20041;&#65288;&#22686;&#21152;&#12289;&#21024;&#38500;&#12289;&#20462;&#25913;&#65289;</text><path d="M20,775.1233 L20,912.1233 L324,912.1233 L324,785.1233 L314,775.1233 L20,775.1233 " fill="#FFAAAA" style="stroke:#181818;stroke-width:0.5;"/><path d="M314,775.1233 L314,785.1233 L324,785.1233 L314,775.1233 " fill="#FFAAAA" style="stroke:#181818;stroke-width:0.5;"/><text fill="#000000" font-family="JetBrains Mono" font-size="18" lengthAdjust="spacing" textLength="264" x="26" y="798.4833">BeanFactoryPostProcessor</text><text fill="#000000" font-family="Source Han Serif SC" font-size="18" lengthAdjust="spacing" textLength="283" x="26" y="824.6013">&#26159; Spring &#23481;&#22120;&#38750;&#24120;&#37325;&#35201;&#30340;&#25193;&#23637;&#28857;&#65281;</text><text fill="#000000" font-family="Source Han Serif SC" font-size="18" lengthAdjust="spacing" textLength="5" x="26" y="850.4673">&#160;</text><text fill="#000000" font-family="Source Han Serif SC" font-size="18" lengthAdjust="spacing" textLength="265" x="26" y="876.3333">&#24456;&#22810;&#31532;&#19977;&#26041;&#26694;&#26550;&#38598;&#25104; Spring &#23601;&#26159;</text><text fill="#000000" font-family="Source Han Serif SC" font-size="18" lengthAdjust="spacing" textLength="267" x="26" y="902.1993">&#29992;&#30340;&#35813;&#25193;&#23637;&#28857;&#65292;&#27604;&#22914; MyBATIS&#12290;</text><polygon fill="#181818" points="355,965.5465,345,969.5465,355,973.5465,351,969.5465" style="stroke:#181818;stroke-width:1.0;"/><line style="stroke:#181818;stroke-width:1.0;" x1="349" x2="744" y1="969.5465" y2="969.5465"/><text fill="#000000" font-family="sans-serif" font-size="18" lengthAdjust="spacing" textLength="179" x="361" y="963.7497">&#23436;&#25104; Bean &#23450;&#20041;&#30340;&#26356;&#26032;</text><line style="stroke:#181818;stroke-width:1.0;" x1="344" x2="386" y1="1020.5465" y2="1020.5465"/><line style="stroke:#181818;stroke-width:1.0;" x1="386" x2="386" y1="1020.5465" y2="1033.5465"/><line style="stroke:#181818;stroke-width:1.0;" x1="339" x2="386" y1="1033.5465" y2="1033.5465"/><polygon fill="#181818" points="349,1029.5465,339,1033.5465,349,1037.5465,345,1033.5465" style="stroke:#181818;stroke-width:1.0;"/><line style="stroke:#181818;stroke-width:1.0;" x1="339" x2="381" y1="1165.4045" y2="1165.4045"/><line style="stroke:#181818;stroke-width:1.0;" x1="381" x2="381" y1="1165.4045" y2="1178.4045"/><line style="stroke:#181818;stroke-width:1.0;" x1="340" x2="381" y1="1178.4045" y2="1178.4045"/><polygon fill="#181818" points="350,1174.4045,340,1178.4045,350,1182.4045,346,1178.4045" style="stroke:#181818;stroke-width:1.0;"/><text fill="#000000" font-family="JetBrains Mono" font-size="18" lengthAdjust="spacing" textLength="286" x="346" y="1134.2445">registerBeanPostProcessors</text><text fill="#000000" font-family="sans-serif" font-size="18" lengthAdjust="spacing" textLength="36" x="346" y="1159.6077">&#27880;&#20876;</text><text fill="#000000" font-family="JetBrains Mono" font-size="18" lengthAdjust="spacing" textLength="187" x="388" y="1158.0045">BeanPostProcessor</text><path d="M654,1066.5465 L654,1231.5465 L939,1231.5465 L939,1076.5465 L929,1066.5465 L654,1066.5465 " fill="#FFAAAA" style="stroke:#181818;stroke-width:0.5;"/><path d="M929,1066.5465 L929,1076.5465 L939,1076.5465 L929,1066.5465 " fill="#FFAAAA" style="stroke:#181818;stroke-width:0.5;"/><text fill="#000000" font-family="JetBrains Mono" font-size="18" lengthAdjust="spacing" textLength="187" x="660" y="1092.0125">BeanPostProcessor</text><text fill="#000000" font-family="Source Han Serif SC" font-size="18" lengthAdjust="spacing" textLength="5" x="847" y="1092.2645">&#160;</text><text fill="#000000" font-family="Source Han Serif SC" font-size="18" lengthAdjust="spacing" textLength="247" x="660" y="1118.1305">&#26159; Spring &#38750;&#24120;&#37325;&#35201;&#30340;&#25193;&#23637;&#28857;&#65281;</text><text fill="#000000" font-family="Source Han Serif SC" font-size="18" lengthAdjust="spacing" textLength="5" x="660" y="1143.9965">&#160;</text><text fill="#000000" font-family="Source Han Serif SC" font-size="18" lengthAdjust="spacing" textLength="254" x="660" y="1169.8625">&#20381;&#36182;&#27880;&#20837;&#65292;AOP&#20999;&#38754;&#29983;&#25104;&#31561;&#23601;&#26159;</text><text fill="#000000" font-family="Source Han Serif SC" font-size="18" lengthAdjust="spacing" textLength="72" x="660" y="1195.7285">&#36890;&#36807;&#19981;&#21516;</text><text fill="#000000" font-family="JetBrains Mono" font-size="18" lengthAdjust="spacing" textLength="187" x="737" y="1195.4765">BeanPostProcessor</text><text fill="#000000" font-family="Source Han Serif SC" font-size="18" lengthAdjust="spacing" textLength="126" x="660" y="1221.5945">&#23454;&#20363;&#26469;&#23436;&#25104;&#30340;&#12290;</text><line style="stroke:#181818;stroke-width:1.0;" x1="339" x2="381" y1="1315.2625" y2="1315.2625"/><line style="stroke:#181818;stroke-width:1.0;" x1="381" x2="381" y1="1315.2625" y2="1328.2625"/><line style="stroke:#181818;stroke-width:1.0;" x1="340" x2="381" y1="1328.2625" y2="1328.2625"/><polygon fill="#181818" points="350,1324.2625,340,1328.2625,350,1332.2625,346,1328.2625" style="stroke:#181818;stroke-width:1.0;"/><text fill="#000000" font-family="JetBrains Mono" font-size="18" lengthAdjust="spacing" textLength="187" x="346" y="1284.1025">initMessageSource</text><text fill="#000000" font-family="sans-serif" font-size="18" lengthAdjust="spacing" textLength="54" x="346" y="1309.4657">&#21021;&#22987;&#21270;</text><text fill="#000000" font-family="JetBrains Mono" font-size="18" lengthAdjust="spacing" textLength="143" x="406" y="1307.8625">MessageSource</text><path d="M571,1281.0695 L571,1316.0695 L682,1316.0695 L682,1291.0695 L672,1281.0695 L571,1281.0695 " fill="#FEFFDD" style="stroke:#181818;stroke-width:0.5;"/><path d="M672,1281.0695 L672,1291.0695 L682,1291.0695 L672,1281.0695 " fill="#FEFFDD" style="stroke:#181818;stroke-width:0.5;"/><text fill="#000000" font-family="Source Han Serif SC" font-size="18" lengthAdjust="spacing" textLength="90" x="577" y="1306.7875">&#22269;&#38469;&#21270;&#30456;&#20851;</text><line style="stroke:#181818;stroke-width:1.0;" x1="339" x2="381" y1="1412.2218" y2="1412.2218"/><line style="stroke:#181818;stroke-width:1.0;" x1="381" x2="381" y1="1412.2218" y2="1425.2218"/><line style="stroke:#181818;stroke-width:1.0;" x1="340" x2="381" y1="1425.2218" y2="1425.2218"/><polygon fill="#181818" points="350,1421.2218,340,1425.2218,350,1429.2218,346,1425.2218" style="stroke:#181818;stroke-width:1.0;"/><text fill="#000000" font-family="JetBrains Mono" font-size="18" lengthAdjust="spacing" textLength="341" x="346" y="1383.6225">initApplicationEventMulticaster</text><text fill="#000000" font-family="sans-serif" font-size="18" lengthAdjust="spacing" textLength="180" x="346" y="1406.4249">&#21021;&#22987;&#21270;&#24212;&#29992;&#20107;&#20214;&#24191;&#25773;&#22120;</text><line style="stroke:#181818;stroke-width:1.0;" x1="339" x2="381" y1="1498.4678" y2="1498.4678"/><line style="stroke:#181818;stroke-width:1.0;" x1="381" x2="381" y1="1498.4678" y2="1511.4678"/><line style="stroke:#181818;stroke-width:1.0;" x1="340" x2="381" y1="1511.4678" y2="1511.4678"/><polygon fill="#181818" points="350,1507.4678,340,1511.4678,350,1515.4678,346,1511.4678" style="stroke:#181818;stroke-width:1.0;"/><text fill="#000000" font-family="JetBrains Mono" font-size="18" lengthAdjust="spacing" textLength="99" x="346" y="1491.0678">onRefresh</text><path d="M467,1463.2218 L467,1524.2218 L748,1524.2218 L748,1473.2218 L738,1463.2218 L467,1463.2218 " fill="#FEFFDD" style="stroke:#181818;stroke-width:0.5;"/><path d="M738,1463.2218 L738,1473.2218 L748,1473.2218 L738,1463.2218 " fill="#FEFFDD" style="stroke:#181818;stroke-width:0.5;"/><text fill="#000000" font-family="Source Han Serif SC" font-size="18" lengthAdjust="spacing" textLength="176" x="473" y="1488.9398">&#22312; Web &#23481;&#22120;&#20013;&#65292;&#27880;&#20876;</text><text fill="#000000" font-family="JetBrains Mono" font-size="18" lengthAdjust="spacing" textLength="165" x="473" y="1514.5538">DispatchServlet</text><text fill="#000000" font-family="Source Han Serif SC" font-size="18" lengthAdjust="spacing" textLength="90" x="643" y="1514.8058">&#31561;&#20061;&#22823;&#32452;&#20214;</text><line style="stroke:#181818;stroke-width:1.0;" x1="339" x2="381" y1="1618.7324" y2="1618.7324"/><line style="stroke:#181818;stroke-width:1.0;" x1="381" x2="381" y1="1618.7324" y2="1631.7324"/><line style="stroke:#181818;stroke-width:1.0;" x1="340" x2="381" y1="1631.7324" y2="1631.7324"/><polygon fill="#181818" points="350,1627.7324,340,1631.7324,350,1635.7324,346,1631.7324" style="stroke:#181818;stroke-width:1.0;"/><text fill="#000000" font-family="JetBrains Mono" font-size="18" lengthAdjust="spacing" textLength="187" x="346" y="1590.1332">registerListeners</text><text fill="#000000" font-family="sans-serif" font-size="18" lengthAdjust="spacing" textLength="126" x="346" y="1612.9355">&#27880;&#20876;&#20107;&#20214;&#30417;&#21548;&#22120;</text><path d="M555,1559.9538 L555,1646.9538 L957,1646.9538 L957,1569.9538 L947,1559.9538 L555,1559.9538 " fill="#FEFFDD" style="stroke:#181818;stroke-width:0.5;"/><path d="M947,1559.9538 L947,1569.9538 L957,1569.9538 L947,1559.9538 " fill="#FEFFDD" style="stroke:#181818;stroke-width:0.5;"/><text fill="#000000" font-family="Source Han Serif SC" font-size="18" lengthAdjust="spacing" textLength="18" x="561" y="1585.6718">&#23558;</text><text fill="#000000" font-family="JetBrains Mono" font-size="18" lengthAdjust="spacing" textLength="209" x="584" y="1585.4198">ApplicationListener</text><text fill="#000000" font-family="Source Han Serif SC" font-size="18" lengthAdjust="spacing" textLength="144" x="798" y="1585.6718">&#31867;&#22411;&#30340; Bean &#27880;&#20876;</text><text fill="#000000" font-family="Source Han Serif SC" font-size="18" lengthAdjust="spacing" textLength="18" x="561" y="1611.5378">&#21040;</text><text fill="#000000" font-family="JetBrains Mono" font-size="18" lengthAdjust="spacing" textLength="297" x="584" y="1611.2858">ApplicationEventMulticaster</text><text fill="#000000" font-family="Source Han Serif SC" font-size="18" lengthAdjust="spacing" textLength="36" x="886" y="1611.5378">&#20013;&#65292;</text><text fill="#000000" font-family="Source Han Serif SC" font-size="18" lengthAdjust="spacing" textLength="342" x="561" y="1637.4038">&#21518;&#32493;&#23481;&#22120;&#21551;&#21160;&#23436;&#25104;&#20107;&#20214;&#21363;&#30001;&#27492;&#24191;&#25773;&#24182;&#22788;&#29702;&#12290;</text><line style="stroke:#181818;stroke-width:1.0;" x1="339" x2="381" y1="1728.511" y2="1728.511"/><line style="stroke:#181818;stroke-width:1.0;" x1="381" x2="381" y1="1728.511" y2="1741.511"/><line style="stroke:#181818;stroke-width:1.0;" x1="340" x2="381" y1="1741.511" y2="1741.511"/><polygon fill="#181818" points="350,1737.511,340,1741.511,350,1745.511,346,1741.511" style="stroke:#181818;stroke-width:1.0;"/><text fill="#000000" font-family="JetBrains Mono" font-size="18" lengthAdjust="spacing" textLength="341" x="346" y="1699.9118">finishBeanFactoryInitialization</text><text fill="#000000" font-family="sans-serif" font-size="18" lengthAdjust="spacing" textLength="108" x="346" y="1722.7141">&#23436;&#25104;&#39044;&#21021;&#22987;&#21270;</text><path d="M709,1682.6654 L709,1743.6654 L874,1743.6654 L874,1692.6654 L864,1682.6654 L709,1682.6654 " fill="#FEFFDD" style="stroke:#181818;stroke-width:0.5;"/><path d="M864,1682.6654 L864,1692.6654 L874,1692.6654 L864,1682.6654 " fill="#FEFFDD" style="stroke:#181818;stroke-width:0.5;"/><text fill="#000000" font-family="Source Han Serif SC" font-size="18" lengthAdjust="spacing" textLength="126" x="715" y="1708.3834">&#23436;&#25104;&#38750;&#25042;&#21152;&#36733;&#30340;</text><text fill="#000000" font-family="Source Han Serif SC" font-size="18" lengthAdjust="spacing" textLength="144" x="715" y="1734.2494">&#21333;&#20363; Bean &#23454;&#20363;&#21270;</text><line style="stroke:#181818;stroke-width:1.0;" x1="339" x2="381" y1="1825.4702" y2="1825.4702"/><line style="stroke:#181818;stroke-width:1.0;" x1="381" x2="381" y1="1825.4702" y2="1838.4702"/><line style="stroke:#181818;stroke-width:1.0;" x1="340" x2="381" y1="1838.4702" y2="1838.4702"/><polygon fill="#181818" points="350,1834.4702,340,1838.4702,350,1842.4702,346,1838.4702" style="stroke:#181818;stroke-width:1.0;"/><text fill="#000000" font-family="JetBrains Mono" font-size="18" lengthAdjust="spacing" textLength="143" x="346" y="1796.871">finishRefresh</text><text fill="#000000" font-family="sans-serif" font-size="18" lengthAdjust="spacing" textLength="72" x="346" y="1819.6733">&#23436;&#25104;&#37325;&#22609;</text><path d="M511,1779.6246 L511,1840.6246 L802,1840.6246 L802,1789.6246 L792,1779.6246 L511,1779.6246 " fill="#FEFFDD" style="stroke:#181818;stroke-width:0.5;"/><path d="M792,1779.6246 L792,1789.6246 L802,1789.6246 L792,1779.6246 " fill="#FEFFDD" style="stroke:#181818;stroke-width:0.5;"/><text fill="#000000" font-family="Source Han Serif SC" font-size="18" lengthAdjust="spacing" textLength="234" x="517" y="1805.3426">&#21024;&#38500;&#19968;&#20123;&#19981;&#24517;&#35201;&#30340;&#37197;&#32622;&#20449;&#24687;&#12290;</text><text fill="#000000" font-family="Source Han Serif SC" font-size="18" lengthAdjust="spacing" textLength="270" x="517" y="1831.2086">&#26368;&#21518;&#65292;&#24191;&#25773;&#23481;&#22120;&#21551;&#21160;&#23436;&#25104;&#30340;&#28040;&#24687;&#12290;</text><polygon fill="#181818" points="168,1894.6694,158,1898.6694,168,1902.6694,164,1898.6694" style="stroke:#181818;stroke-width:1.0;"/><line style="stroke:#181818;stroke-width:1.0;" x1="162" x2="333" y1="1898.6694" y2="1898.6694"/><text fill="#000000" font-family="sans-serif" font-size="18" lengthAdjust="spacing" textLength="126" x="174" y="1892.8726">&#23436;&#25104;&#23481;&#22120;&#21021;&#22987;&#21270;</text><text fill="#888888" font-family="sans-serif" font-size="10" lengthAdjust="spacing" textLength="33" x="800" y="16.0906">D&#29916;&#21733; &#183;</text><text fill="#888888" font-family="JetBrains Mono" font-size="10" lengthAdjust="spacing" textLength="138" x="836" y="15.2">https://www.diguage.com</text><text fill="#888888" font-family="Source Han Serif SC" font-size="20" lengthAdjust="spacing" textLength="67" x="284.5" y="2020.8886">D&#29916;&#21733; &#183;</text><text fill="#888888" font-family="JetBrains Mono" font-size="20" lengthAdjust="spacing" textLength="276" x="356.5" y="2020.6086">https://www.diguage.com</text><text fill="#888888" font-family="Source Han Serif SC" font-size="20" lengthAdjust="spacing" textLength="52" x="637.5" y="2020.8886">&#183; &#20986;&#21697;</text><!--SRC=[hLVTJnfP57-Vl-A6lkoQrQvjskmQOu9VMJVhhbassHTVHhZeH9mXmwZRnWUmybM1qefi5Q7LGhM9WiPT2twHxB_IkJFmvB-mvyuC2AEWIU41SUxv-9rpVkVSCvvPZdUp8Zld4kops84SsCdEkwHHWPTit7ECUdzWF2OHYPDSk2xm-EaD0QSWI5YiIppwlhM9NzavZ6p2l6Z7w2UMHpQMzo3Rq0q57YpUAez5pdcRmZM6UwiOeOyBlE1nitRig6l_ZAL1aUK06Zra60q-wkgoJdaaaRLBLhVRnTbPYHFu8T31Vqaz8dQAs3E3khjHDHWbswz9laGszhgwc1dCEh28XjMrBRAMG_zzHXRBZ2IvFNqF7oukBlOukEbvTXhts8KvYuLX6B0lYCXAlnc0At5spito4chj7FNtes-6ldjW7Hxk7NpqBHeOQ58Sn2m_gbbzDY5uf0bHi6EF1tnGjJ5G6_nnUAHNKsCqjwXxe8stFi1lH6knJFADqLBit08huJRg38FQXNAdQxU88JZy-pK24WoGR52D5SZE2sfzQMdfQvq8KnAKVvHwQCWUTLQ9VIQlaWqFmHCbAnAvwHdG9I_VLoukIEcailj1oSIh_gXwaLUIGVdif4FOZ0IOSEb9WEEcvsPmvGjrFKVYA-fk55aNmGfIOZdoweEwkQ8Sxn5_xkeyHU8HvU-Jg_F894-V1I9oqIkVfaZPN_de0q6DJt2i51BauxBPunVlSgVYlEQgETP2oUmM4TycYSUKhNSakwB60wR0KNLdHLtVKCAVoD6wkbpIebDJUHAEAcyBwgTJai-eiSCE8UVu1M4MjsexZqQZmnTgOgyvYYOf28dcUf9ldGYa94lAyJg0lKVReGTF7eyywNrAOqF89GXkc6TLNvJ40ahOgso5ssE1_CYNgp3DaFPfdvrMTjfNLKdzeoGFzK520dxD2iq1oM_AfV3LUOZiPA2xldXz9FI-kf657t8vhoIWc643LZqFhH0OSXerNDW9MHaTjSAdhstqWErj0TdS8iTF8nrWDPqXnIBCFhqd6eZbc-I1ePSXajrKz_VbOfXMQJkWP4wggO0IYjVj71w1LM1XOWyCL0gvHd8QlJN-RD3wnvZDw2dwCTXvHmtwkzlKWEGZ58QMNZstD00j-OPb1xvl8YaS-XVpZgzf6gR9P_kxemFzAU9fpWFR0WtkPclgGyyWX8a9JMF5J1vpppJHvWx2o9Vfoh_9sWoEM7-R8A5WDRsZ9jv1iTI3S8qkLUzcfHoKYr4OqxVx1VPfpQgaStgfmLtdfZB7Sz8uU8ADHT-nD8UXDDbT9P4a29WEpJTGwgAwuGT9DLKa_kCEWceu6Ld0l3GEgntyJ-lS196S9g3bvDDLk959gQoyEQ2BIuVM1hw-bfZZtjf3V-8fOth8nGFQv1hHw8GVvc01bUmpiAekkB14P_z1M2wbINPNFLlftEfG8_ulz9l7ZNpN4wAcNfFuFas82VvX0DGRZDOiKAX7PoIpMbiCK2qg4ZfiLhbP5QJd0MJZCVNim1ZzyG9vkQSprwXIz5XD72a7MQDSfHFzZkySgPr0eAPDRmm8nR4kxhacgVSK1GHhH9r8vXJf0kcC4doZBu6G4j2BhaClrgOjxKkgsadOZPkmZa7RoCtmj3jJN-NezAXjS_g2AfUt5Ly14WfqsF92EQ0iHhPl58LEhvEGBbuFH7zlW7kd7M9Ttx1OJ-Cz9x_-WdVFroXwJ8AdPCttFm00]--></g></svg>