<svg xmlns="http://www.w3.org/2000/svg" height="961" preserveAspectRatio="none" style="width:1697px;height:961px" width="1697"><defs><filter height="300%" id="a" width="300%" x="-1" y="-1"><feGaussianBlur result="blurOut" stdDeviation="2"/><feColorMatrix in="blurOut" result="blurOut2" values="0 0 0 0 0 0 0 0 0 0 0 0 0 0 0 0 0 0 .4 0"/><feOffset dx="4" dy="4" in="blurOut2" result="blurOut3"/><feBlend in="SourceGraphic" in2="blurOut3"/></filter></defs><text font-family="sans-serif" font-size="18" font-weight="bold" lengthAdjust="spacingAndGlyphs" textLength="534" x="572.75" y="16.708">AnnotationAwareAspectJAutoProxyCreator 继承体系</text><path fill="#FEFECE" filter="url(#a)" stroke="#A80036" stroke-width="1.5" d="M127.5 27.953H690.5V101.562H127.5z"/><ellipse cx="348.75" cy="43.953" fill="#B4A7E5" rx="11" ry="11" stroke="#A80036" stroke-width="1.0"/><path d="M349.703 40.734h1.719c.39 0 .578-.03.703-.109a.838.838 0 0 0 .406-.734.858.858 0 0 0-.344-.703c-.171-.11-.312-.141-.765-.141h-5.14c-.438 0-.563.016-.72.11a.893.893 0 0 0-.406.734c0 .28.14.53.36.703.156.11.343.14.765.14H348v6.516h-1.719c-.437 0-.562.016-.719.125a.872.872 0 0 0-.406.734c0 .25.14.516.36.672.156.125.359.172.765.172h5.14c.75 0 1.11-.281 1.11-.844a.838.838 0 0 0-.344-.703c-.171-.125-.312-.156-.765-.156h-1.719v-6.516z"/><text font-family="sans-serif" font-size="12" font-style="italic" lengthAdjust="spacingAndGlyphs" textLength="112" x="369.25" y="48.107">BeanPostProcessor</text><path stroke="#A80036" stroke-width="1.5" d="M128.5 59.953L689.5 59.953"/><path stroke="#A80036" stroke-width="1.5" d="M128.5 67.953L689.5 67.953"/><ellipse cx="138.5" cy="78.953" fill="#84BE84" rx="3" ry="3" stroke="#038048" stroke-width="1.0"/><text font-family="sans-serif" font-size="11" lengthAdjust="spacingAndGlyphs" textLength="537" x="147.5" y="82.164">Object postProcessBeforeInitialization(Object bean, String beanName) throws BeansException</text><ellipse cx="138.5" cy="91.758" fill="#84BE84" rx="3" ry="3" stroke="#038048" stroke-width="1.0"/><text font-family="sans-serif" font-size="11" lengthAdjust="spacingAndGlyphs" textLength="526" x="147.5" y="94.968">Object postProcessAfterInitialization(Object bean, String beanName) throws BeansException</text><path fill="#FEFECE" filter="url(#a)" stroke="#A80036" stroke-width="1.5" d="M7 200.453H811V299.672H7z"/><ellipse cx="292.25" cy="216.453" fill="#B4A7E5" rx="11" ry="11" stroke="#A80036" stroke-width="1.0"/><path d="M293.203 213.234h1.719c.39 0 .578-.03.703-.109a.838.838 0 0 0 .406-.734.858.858 0 0 0-.344-.703c-.171-.11-.312-.141-.765-.141h-5.14c-.438 0-.563.016-.72.11a.893.893 0 0 0-.406.734c0 .28.14.53.36.703.156.11.343.14.765.14h1.719v6.516h-1.719c-.437 0-.562.016-.719.125a.872.872 0 0 0-.406.734c0 .25.14.516.36.672.156.125.359.172.765.172h5.14c.75 0 1.11-.281 1.11-.844a.838.838 0 0 0-.344-.703c-.171-.125-.312-.156-.765-.156h-1.719v-6.516z"/><text font-family="sans-serif" font-size="12" font-style="italic" lengthAdjust="spacingAndGlyphs" textLength="225" x="312.75" y="220.607">InstantiationAwareBeanPostProcessor</text><path stroke="#A80036" stroke-width="1.5" d="M8 232.453L810 232.453"/><path stroke="#A80036" stroke-width="1.5" d="M8 240.453L810 240.453"/><ellipse cx="18" cy="251.453" fill="#84BE84" rx="3" ry="3" stroke="#038048" stroke-width="1.0"/><text font-family="sans-serif" font-size="11" lengthAdjust="spacingAndGlyphs" textLength="522" x="27" y="254.664">Object postProcessBeforeInstantiation(Class&lt;?&gt;, String beanName) throws BeansException</text><ellipse cx="18" cy="264.258" fill="#84BE84" rx="3" ry="3" stroke="#038048" stroke-width="1.0"/><text font-family="sans-serif" font-size="11" lengthAdjust="spacingAndGlyphs" textLength="536" x="27" y="267.468">boolean postProcessAfterInstantiation(Object bean, String beanName) throws BeansException</text><ellipse cx="18" cy="277.063" fill="#84BE84" rx="3" ry="3" stroke="#038048" stroke-width="1.0"/><text font-family="sans-serif" font-size="11" lengthAdjust="spacingAndGlyphs" textLength="629" x="27" y="280.273">PropertyValues postProcessProperties(PropertyValues, Object bean, String beanName) throws BeansException</text><ellipse cx="18" cy="289.867" fill="#84BE84" rx="3" ry="3" stroke="#038048" stroke-width="1.0"/><text font-family="sans-serif" font-size="11" lengthAdjust="spacingAndGlyphs" textLength="778" x="27" y="293.078">PropertyValues postProcessPropertyValues(PropertyValues, PropertyDescriptor[], Object bean, String beanName) throws BeansException</text><path fill="#FEFECE" filter="url(#a)" stroke="#A80036" stroke-width="1.5" d="M785.5 410.453H1144.5V471.258H785.5z"/><ellipse cx="904.75" cy="426.453" fill="#B4A7E5" rx="11" ry="11" stroke="#A80036" stroke-width="1.0"/><path d="M905.703 423.234h1.719c.39 0 .578-.03.703-.109a.838.838 0 0 0 .406-.734.858.858 0 0 0-.343-.704c-.172-.109-.313-.14-.766-.14h-5.14c-.438 0-.563.015-.72.11a.893.893 0 0 0-.406.734c0 .28.14.53.36.703.156.11.343.14.765.14H904v6.516h-1.719c-.437 0-.562.016-.718.125a.872.872 0 0 0-.407.734c0 .25.14.516.36.672.156.125.359.172.765.172h5.14c.75 0 1.11-.281 1.11-.844a.838.838 0 0 0-.343-.703c-.172-.125-.313-.156-.766-.156h-1.719v-6.516z"/><text font-family="sans-serif" font-size="12" font-style="italic" lengthAdjust="spacingAndGlyphs" textLength="112" x="925.25" y="430.607">BeanFactoryAware</text><path stroke="#A80036" stroke-width="1.5" d="M786.5 442.453L1143.5 442.453"/><path stroke="#A80036" stroke-width="1.5" d="M786.5 450.453L1143.5 450.453"/><ellipse cx="796.5" cy="461.453" fill="#84BE84" rx="3" ry="3" stroke="#038048" stroke-width="1.0"/><text font-family="sans-serif" font-size="11" lengthAdjust="spacingAndGlyphs" textLength="333" x="805.5" y="464.664">void setBeanFactory(BeanFactory) throws BeansException</text><path fill="#FEFECE" filter="url(#a)" stroke="#A80036" stroke-width="1.5" d="M967.5 40.953H1036.5V88.953H967.5z"/><ellipse cx="982.5" cy="56.953" fill="#B4A7E5" rx="11" ry="11" stroke="#A80036" stroke-width="1.0"/><path d="M983.453 53.734h1.719c.39 0 .578-.03.703-.109a.838.838 0 0 0 .406-.734.858.858 0 0 0-.343-.703c-.172-.11-.313-.141-.766-.141h-5.14c-.438 0-.563.016-.72.11a.893.893 0 0 0-.406.734c0 .28.14.53.36.703.156.11.343.14.765.14h1.719v6.516h-1.719c-.437 0-.562.016-.718.125a.872.872 0 0 0-.407.734c0 .25.14.516.36.672.156.125.359.172.765.172h5.14c.75 0 1.11-.281 1.11-.844a.838.838 0 0 0-.343-.703c-.172-.125-.313-.156-.766-.156h-1.719v-6.516z"/><text font-family="sans-serif" font-size="12" font-style="italic" lengthAdjust="spacingAndGlyphs" textLength="37" x="996.5" y="61.107">Aware</text><path stroke="#A80036" stroke-width="1.5" d="M968.5 72.953L1035.5 72.953"/><path stroke="#A80036" stroke-width="1.5" d="M968.5 80.953L1035.5 80.953"/><path fill="#FEFECE" filter="url(#a)" stroke="#A80036" stroke-width="1.5" d="M967 219.453H1215V280.258H967z"/><ellipse cx="1017.75" cy="235.453" fill="#B4A7E5" rx="11" ry="11" stroke="#A80036" stroke-width="1.0"/><path d="M1018.703 232.234h1.719c.39 0 .578-.03.703-.109a.838.838 0 0 0 .406-.734.858.858 0 0 0-.343-.703c-.172-.11-.313-.141-.766-.141h-5.14c-.438 0-.563.016-.72.11a.893.893 0 0 0-.406.734c0 .28.14.53.36.703.156.11.343.14.765.14H1017v6.516h-1.719c-.437 0-.562.016-.718.125a.872.872 0 0 0-.407.734c0 .25.14.516.36.672.156.125.359.172.765.172h5.14c.75 0 1.11-.281 1.11-.844a.838.838 0 0 0-.343-.703c-.172-.125-.313-.156-.766-.156h-1.719v-6.516z"/><text font-family="sans-serif" font-size="12" font-style="italic" lengthAdjust="spacingAndGlyphs" textLength="138" x="1038.25" y="239.607">BeanClassLoaderAware</text><path stroke="#A80036" stroke-width="1.5" d="M968 251.453L1214 251.453"/><path stroke="#A80036" stroke-width="1.5" d="M968 259.453L1214 259.453"/><ellipse cx="978" cy="270.453" fill="#84BE84" rx="3" ry="3" stroke="#038048" stroke-width="1.0"/><text font-family="sans-serif" font-size="11" lengthAdjust="spacingAndGlyphs" textLength="222" x="987" y="273.664">void setBeanClassLoader(ClassLoader)</text><path fill="#FEFECE" filter="url(#a)" stroke="#A80036" stroke-width="1.5" d="M67.5 397.953H750.5V484.36699999999996H67.5z"/><ellipse cx="273.75" cy="413.953" fill="#B4A7E5" rx="11" ry="11" stroke="#A80036" stroke-width="1.0"/><path d="M274.703 410.734h1.719c.39 0 .578-.03.703-.109a.838.838 0 0 0 .406-.734.858.858 0 0 0-.344-.704c-.171-.109-.312-.14-.765-.14h-5.14c-.438 0-.563.015-.72.11a.893.893 0 0 0-.406.734c0 .28.14.53.36.703.156.11.343.14.765.14H273v6.516h-1.719c-.437 0-.562.016-.719.125a.872.872 0 0 0-.406.734c0 .25.14.516.36.672.156.125.359.172.765.172h5.14c.75 0 1.11-.281 1.11-.844a.838.838 0 0 0-.344-.703c-.171-.125-.312-.156-.765-.156h-1.719v-6.516z"/><text font-family="sans-serif" font-size="12" font-style="italic" lengthAdjust="spacingAndGlyphs" textLength="262" x="294.25" y="418.107">SmartInstantiationAwareBeanPostProcessor</text><path stroke="#A80036" stroke-width="1.5" d="M68.5 429.953L749.5 429.953"/><path stroke="#A80036" stroke-width="1.5" d="M68.5 437.953L749.5 437.953"/><ellipse cx="78.5" cy="448.953" fill="#84BE84" rx="3" ry="3" stroke="#038048" stroke-width="1.0"/><text font-family="sans-serif" font-size="11" lengthAdjust="spacingAndGlyphs" textLength="525" x="87.5" y="452.164">Class&lt;?&gt; predictBeanType(Class&lt;?&gt; beanClass, String beanName) throws BeansException</text><ellipse cx="78.5" cy="461.758" fill="#84BE84" rx="3" ry="3" stroke="#038048" stroke-width="1.0"/><text font-family="sans-serif" font-size="11" lengthAdjust="spacingAndGlyphs" textLength="657" x="87.5" y="464.968">Constructor&lt;?&gt;[] determineCandidateConstructors(Class&lt;?&gt; beanClass, String beanName) throws BeansException</text><ellipse cx="78.5" cy="474.563" fill="#84BE84" rx="3" ry="3" stroke="#038048" stroke-width="1.0"/><text font-family="sans-serif" font-size="11" lengthAdjust="spacingAndGlyphs" textLength="500" x="87.5" y="477.773">Object getEarlyBeanReference(Object bean, String beanName) throws BeansException</text><path fill="#FEFECE" filter="url(#a)" stroke="#A80036" stroke-width="1.5" d="M1250 161.953H1474V338H1250z"/><ellipse cx="1322.25" cy="177.953" fill="#ADD1B2" rx="11" ry="11" stroke="#A80036" stroke-width="1.0"/><path d="M1324.594 173.625c-.938-.438-1.532-.578-2.407-.578-2.624 0-4.624 2.078-4.624 4.797v1.125c0 2.578 2.109 4.469 5 4.469 1.218 0 2.374-.297 3.124-.844.579-.406.907-.86.907-1.25a.864.864 0 0 0-.86-.844.831.831 0 0 0-.609.266c-.453.484-.453.484-.64.578-.422.265-1.11.39-1.876.39-2.046 0-3.343-1.093-3.343-2.797v-1.093c0-1.781 1.25-3.094 2.984-3.094.578 0 1.188.156 1.656.406.485.281.657.5.75.906.063.407.094.532.235.657.14.14.375.25.593.25a.92.92 0 0 0 .704-.36c.109-.156.14-.343.14-.765v-1.422c0-.438-.015-.563-.11-.719a.838.838 0 0 0-.734-.406c-.296 0-.5.094-.718.406l-.172-.078z"/><text font-family="sans-serif" font-size="12" lengthAdjust="spacingAndGlyphs" textLength="71" x="1342.75" y="182.107">ProxyConfig</text><path stroke="#A80036" stroke-width="1.5" d="M1251 193.953L1473 193.953"/><path stroke="#A80036" stroke-width="1.5" d="M1251 201.953L1473 201.953"/><ellipse cx="1261" cy="212.953" fill="#84BE84" rx="3" ry="3" stroke="#038048" stroke-width="1.0"/><text font-family="sans-serif" font-size="11" lengthAdjust="spacingAndGlyphs" textLength="198" x="1270" y="216.164">void setProxyTargetClass(boolean)</text><ellipse cx="1261" cy="225.758" fill="#84BE84" rx="3" ry="3" stroke="#038048" stroke-width="1.0"/><text font-family="sans-serif" font-size="11" lengthAdjust="spacingAndGlyphs" textLength="165" x="1270" y="228.968">boolean isProxyTargetClass()</text><ellipse cx="1261" cy="238.563" fill="#84BE84" rx="3" ry="3" stroke="#038048" stroke-width="1.0"/><text font-family="sans-serif" font-size="11" lengthAdjust="spacingAndGlyphs" textLength="152" x="1270" y="241.773">void setOptimize(boolean)</text><ellipse cx="1261" cy="251.367" fill="#84BE84" rx="3" ry="3" stroke="#038048" stroke-width="1.0"/><text font-family="sans-serif" font-size="11" lengthAdjust="spacingAndGlyphs" textLength="119" x="1270" y="254.578">boolean isOptimize()</text><ellipse cx="1261" cy="264.172" fill="#84BE84" rx="3" ry="3" stroke="#038048" stroke-width="1.0"/><text font-family="sans-serif" font-size="11" lengthAdjust="spacingAndGlyphs" textLength="145" x="1270" y="267.382">void setOpaque(boolean)</text><ellipse cx="1261" cy="276.977" fill="#84BE84" rx="3" ry="3" stroke="#038048" stroke-width="1.0"/><text font-family="sans-serif" font-size="11" lengthAdjust="spacingAndGlyphs" textLength="112" x="1270" y="280.187">boolean isOpaque()</text><ellipse cx="1261" cy="289.781" fill="#84BE84" rx="3" ry="3" stroke="#038048" stroke-width="1.0"/><text font-family="sans-serif" font-size="11" lengthAdjust="spacingAndGlyphs" textLength="173" x="1270" y="292.992">void setExposeProxy(boolean)</text><ellipse cx="1261" cy="302.586" fill="#84BE84" rx="3" ry="3" stroke="#038048" stroke-width="1.0"/><text font-family="sans-serif" font-size="11" lengthAdjust="spacingAndGlyphs" textLength="140" x="1270" y="305.796">boolean isExposeProxy()</text><ellipse cx="1261" cy="315.391" fill="#84BE84" rx="3" ry="3" stroke="#038048" stroke-width="1.0"/><text font-family="sans-serif" font-size="11" lengthAdjust="spacingAndGlyphs" textLength="139" x="1270" y="318.601">void setFrozen(boolean)</text><ellipse cx="1261" cy="328.195" fill="#84BE84" rx="3" ry="3" stroke="#038048" stroke-width="1.0"/><text font-family="sans-serif" font-size="11" lengthAdjust="spacingAndGlyphs" textLength="106" x="1270" y="331.406">boolean isFrozen()</text><path fill="#FEFECE" filter="url(#a)" stroke="#A80036" stroke-width="1.5" d="M1202 416.953H1376V464.953H1202z"/><ellipse cx="1217" cy="432.953" fill="#ADD1B2" rx="11" ry="11" stroke="#A80036" stroke-width="1.0"/><path d="M1219.344 428.625c-.938-.438-1.532-.578-2.407-.578-2.624 0-4.624 2.078-4.624 4.797v1.125c0 2.578 2.109 4.469 5 4.469 1.218 0 2.374-.297 3.124-.844.579-.406.907-.86.907-1.25a.864.864 0 0 0-.86-.844.831.831 0 0 0-.609.266c-.453.484-.453.484-.64.578-.422.265-1.11.39-1.876.39-2.046 0-3.343-1.093-3.343-2.796v-1.094c0-1.781 1.25-3.094 2.984-3.094.578 0 1.188.156 1.656.406.485.281.657.5.75.906.063.407.094.532.235.657.14.14.375.25.593.25a.92.92 0 0 0 .704-.36c.109-.156.14-.343.14-.765v-1.422c0-.438-.015-.563-.11-.719a.838.838 0 0 0-.734-.406c-.296 0-.5.094-.718.406l-.172-.078z"/><text font-family="sans-serif" font-size="12" lengthAdjust="spacingAndGlyphs" textLength="142" x="1231" y="437.107">ProxyProcessorSupport</text><path stroke="#A80036" stroke-width="1.5" d="M1203 448.953L1375 448.953"/><path stroke="#A80036" stroke-width="1.5" d="M1203 456.953L1375 456.953"/><path fill="#FEFECE" filter="url(#a)" stroke="#A80036" stroke-width="1.5" d="M1509.5 225.953H1678.5V273.953H1509.5z"/><ellipse cx="1524.5" cy="241.953" fill="#B4A7E5" rx="11" ry="11" stroke="#A80036" stroke-width="1.0"/><path d="M1525.453 238.734h1.719c.39 0 .578-.03.703-.109a.838.838 0 0 0 .406-.734.858.858 0 0 0-.343-.703c-.172-.11-.313-.141-.766-.141h-5.14c-.438 0-.563.016-.72.11a.893.893 0 0 0-.406.734c0 .28.14.53.36.703.156.11.343.14.765.14h1.719v6.516h-1.719c-.437 0-.562.016-.718.125a.872.872 0 0 0-.407.734c0 .25.14.516.36.672.156.125.359.172.765.172h5.14c.75 0 1.11-.281 1.11-.844a.838.838 0 0 0-.343-.703c-.172-.125-.313-.156-.766-.156h-1.719v-6.516z"/><text font-family="sans-serif" font-size="12" font-style="italic" lengthAdjust="spacingAndGlyphs" textLength="137" x="1538.5" y="246.107">AopInfrastructureBean</text><path stroke="#A80036" stroke-width="1.5" d="M1510.5 257.953L1677.5 257.953"/><path stroke="#A80036" stroke-width="1.5" d="M1510.5 265.953L1677.5 265.953"/><path fill="#FEFECE" filter="url(#a)" stroke="#A80036" stroke-width="1.5" d="M871 543.953H1059V591.953H871z"/><ellipse cx="886" cy="559.953" fill="#A9DCDF" rx="11" ry="11" stroke="#A80036" stroke-width="1.0"/><path d="M888.078 561.766l.39.984h-.39c-.453 0-.562.016-.719.125a.872.872 0 0 0-.406.734c0 .266.14.516.36.672.14.125.343.172.765.172h2.36c.359 0 .578-.031.718-.125a.846.846 0 0 0 .407-.719.844.844 0 0 0-.36-.687c-.172-.14-.328-.172-.797-.172l-3.39-8.203h-3.672c-.453 0-.578.015-.735.11a.915.915 0 0 0-.406.734c0 .28.14.53.36.703.171.11.343.14.78.14h1.079l-2.64 6.516c-.423 0-.579.016-.735.125a.872.872 0 0 0-.406.734c0 .563.375.844 1.125.844h2.265c.36 0 .578-.031.703-.125.266-.14.407-.437.407-.719a.88.88 0 0 0-.344-.703c-.172-.125-.313-.156-.766-.156h-.39l.39-.984h4.047zm-.703-1.703h-2.672l1.344-3.266 1.328 3.265z"/><text font-family="sans-serif" font-size="12" font-style="italic" lengthAdjust="spacingAndGlyphs" textLength="156" x="900" y="564.107">AbstractAutoProxyCreator</text><path stroke="#A80036" stroke-width="1.5" d="M872 575.953L1058 575.953"/><path stroke="#A80036" stroke-width="1.5" d="M872 583.953L1058 583.953"/><path fill="#FEFECE" filter="url(#a)" stroke="#A80036" stroke-width="1.5" d="M849 651.953H1081V699.953H849z"/><ellipse cx="864" cy="667.953" fill="#A9DCDF" rx="11" ry="11" stroke="#A80036" stroke-width="1.0"/><path d="M866.078 669.766l.39.984h-.39c-.453 0-.562.016-.719.125a.872.872 0 0 0-.406.734c0 .266.14.516.36.672.14.125.343.172.765.172h2.36c.359 0 .578-.031.718-.125a.846.846 0 0 0 .407-.719.844.844 0 0 0-.36-.687c-.172-.14-.328-.172-.797-.172l-3.39-8.203h-3.672c-.453 0-.578.015-.735.11a.915.915 0 0 0-.406.734c0 .28.14.53.36.703.171.11.343.14.78.14h1.079l-2.64 6.516c-.423 0-.579.016-.735.125a.872.872 0 0 0-.406.734c0 .563.375.844 1.125.844h2.265c.36 0 .578-.031.703-.125.266-.14.407-.437.407-.719a.88.88 0 0 0-.344-.703c-.172-.125-.313-.156-.766-.156h-.39l.39-.984h4.047zm-.703-1.703h-2.672l1.344-3.266 1.328 3.265z"/><text font-family="sans-serif" font-size="12" font-style="italic" lengthAdjust="spacingAndGlyphs" textLength="200" x="878" y="672.107">AbstractAdvisorAutoProxyCreator</text><path stroke="#A80036" stroke-width="1.5" d="M850 683.953L1080 683.953"/><path stroke="#A80036" stroke-width="1.5" d="M850 691.953L1080 691.953"/><path fill="#FEFECE" filter="url(#a)" stroke="#A80036" stroke-width="1.5" d="M831.5 759.953H1098.5V807.953H831.5z"/><ellipse cx="846.5" cy="775.953" fill="#ADD1B2" rx="11" ry="11" stroke="#A80036" stroke-width="1.0"/><path d="M848.844 771.625c-.938-.438-1.532-.578-2.407-.578-2.625 0-4.625 2.078-4.625 4.797v1.125c0 2.578 2.11 4.468 5 4.468 1.22 0 2.375-.296 3.125-.843.579-.407.907-.86.907-1.25a.864.864 0 0 0-.86-.844.831.831 0 0 0-.609.266c-.453.484-.453.484-.64.578-.423.265-1.11.39-1.876.39-2.047 0-3.343-1.093-3.343-2.797v-1.093c0-1.782 1.25-3.094 2.984-3.094.578 0 1.188.156 1.656.406.485.282.657.5.75.907.063.406.094.53.235.656.14.14.375.25.593.25a.92.92 0 0 0 .703-.36c.11-.156.141-.343.141-.765v-1.422c0-.438-.015-.563-.11-.719a.838.838 0 0 0-.734-.406c-.297 0-.5.094-.718.406l-.172-.078z"/><text font-family="sans-serif" font-size="12" lengthAdjust="spacingAndGlyphs" textLength="235" x="860.5" y="780.107">AspectJAwareAdvisorAutoProxyCreator</text><path stroke="#A80036" stroke-width="1.5" d="M832.5 791.953L1097.5 791.953"/><path stroke="#A80036" stroke-width="1.5" d="M832.5 799.953L1097.5 799.953"/><path fill="#FEFECE" filter="url(#a)" stroke="#A80036" stroke-width="1.5" d="M823 867.953H1107V915.953H823z"/><ellipse cx="838" cy="883.953" fill="#ADD1B2" rx="11" ry="11" stroke="#A80036" stroke-width="1.0"/><path d="M840.344 879.625c-.938-.438-1.532-.578-2.407-.578-2.625 0-4.625 2.078-4.625 4.797v1.125c0 2.578 2.11 4.468 5 4.468 1.22 0 2.375-.296 3.125-.843.579-.407.907-.86.907-1.25a.864.864 0 0 0-.86-.844.831.831 0 0 0-.609.266c-.453.484-.453.484-.64.578-.423.265-1.11.39-1.876.39-2.047 0-3.343-1.093-3.343-2.797v-1.093c0-1.782 1.25-3.094 2.984-3.094.578 0 1.188.156 1.656.406.485.282.657.5.75.907.063.406.094.53.235.656.14.14.375.25.593.25a.92.92 0 0 0 .703-.36c.11-.156.141-.343.141-.765v-1.422c0-.438-.015-.563-.11-.719a.838.838 0 0 0-.734-.406c-.297 0-.5.094-.718.406l-.172-.078z"/><text font-family="sans-serif" font-size="12" lengthAdjust="spacingAndGlyphs" textLength="252" x="852" y="888.107">AnnotationAwareAspectJAutoProxyCreator</text><path stroke="#A80036" stroke-width="1.5" d="M824 899.953L1106 899.953"/><path stroke="#A80036" stroke-width="1.5" d="M824 907.953L1106 907.953"/><path d="M409 122.34v78.057" fill="none" stroke="#A80036" stroke-width="1.0"/><path fill="none" stroke="#A80036" stroke-width="1.0" d="M402 122.1081L409 102.1081 416 122.1081 402 122.1081z"/><path d="M973.944 106.042c-9.941 16.522-19.904 36.355-24.944 55.911-22.681 88.011-3.42 196.683 8.412 248.205" fill="none" stroke="#A80036" stroke-width="1.0"/><path fill="none" stroke="#A80036" stroke-width="1.0" d="M968.199 102.0341L984.895 88.9861 979.98 109.5981 968.199 102.0341z"/><path d="M1022.17 107.42c16.57 34.078 39.65 81.528 54.41 111.89" fill="none" stroke="#A80036" stroke-width="1.0"/><path fill="none" stroke="#A80036" stroke-width="1.0" d="M1015.72 110.1771L1013.27 89.1301 1028.31 104.0541 1015.72 110.1771z"/><path d="M409 319.812v78.053" fill="none" stroke="#A80036" stroke-width="1.0"/><path fill="none" stroke="#A80036" stroke-width="1.0" d="M402 319.6251L409 299.6251 416 319.6251 402 319.6251z"/><path d="M1321.14 356.74c-8.78 22.737-17.22 44.591-23.25 60.193" fill="none" stroke="#A80036" stroke-width="1.0"/><path fill="none" stroke="#A80036" stroke-width="1.0" d="M1314.65 354.1191L1328.38 337.9851 1327.71 359.1641 1314.65 354.1191z"/><path d="M1136.61 294.49c39.94 38.125 96.42 92.04 128.21 122.382" fill="none" stroke="#A80036" stroke-width="1.0" stroke-dasharray="7.0,7.0"/><path fill="none" stroke="#A80036" stroke-width="1.0" d="M1131.57 299.3571L1121.94 280.4841 1141.24 289.2301 1131.57 299.3571z"/><path d="M1555.3 287.816c-18.36 16.453-41.1 35.405-63.3 50.137-47.65 31.624-106.45 60.147-148.48 78.937" fill="none" stroke="#A80036" stroke-width="1.0" stroke-dasharray="7.0,7.0"/><path fill="none" stroke="#A80036" stroke-width="1.0" d="M1550.71 282.5281L1570.18 274.1701 1560.17 292.8461 1550.71 282.5281z"/><path d="M1210.22 472.347c-57.16 22.054-133.31 51.43-185.49 71.562" fill="none" stroke="#A80036" stroke-width="1.0"/><path fill="none" stroke="#A80036" stroke-width="1.0" d="M1208.02 465.6941L1229.2 465.0261 1213.06 478.7551 1208.02 465.6941z"/><path d="M615.772 488.44l255.195 57.372" fill="none" stroke="#A80036" stroke-width="1.0" stroke-dasharray="7.0,7.0"/><path fill="none" stroke="#A80036" stroke-width="1.0" d="M614.051 495.2271L596.074 484.0111 617.122 481.5681 614.051 495.2271z"/><path d="M965 491.655v52.132" fill="none" stroke="#A80036" stroke-width="1.0" stroke-dasharray="7.0,7.0"/><path fill="none" stroke="#A80036" stroke-width="1.0" d="M958 491.5761L965 471.5761 972 491.5761 958 491.5761z"/><path d="M965 611.977v39.654" fill="none" stroke="#A80036" stroke-width="1.0"/><path fill="none" stroke="#A80036" stroke-width="1.0" d="M958 611.9531L965 591.9531 972 611.9531 958 611.9531z"/><path d="M965 719.977v39.654" fill="none" stroke="#A80036" stroke-width="1.0"/><path fill="none" stroke="#A80036" stroke-width="1.0" d="M958 719.9531L965 699.9531 972 719.9531 958 719.9531z"/><path d="M965 827.977v39.654" fill="none" stroke="#A80036" stroke-width="1.0"/><path fill="none" stroke="#A80036" stroke-width="1.0" d="M958 827.9536L965 807.9531 972 827.9535 958 827.9536z"/><text fill="#888" font-family="sans-serif" font-size="20" lengthAdjust="spacingAndGlyphs" textLength="479" x="600.25" y="947.518">&apos;&apos;地瓜哥&apos;&apos;博客网 · https://www.diguage.com · 出品</text></svg>