<?xml version="1.0" encoding="UTF-8" standalone="no"?><svg xmlns="http://www.w3.org/2000/svg" xmlns:xlink="http://www.w3.org/1999/xlink" contentScriptType="application/ecmascript" contentStyleType="text/css" height="961px" preserveAspectRatio="none" style="width:1697px;height:961px;" version="1.1" viewBox="0 0 1697 961" width="1697px" zoomAndPan="magnify"><defs><filter height="300%" id="fa6616kjpkl2q" width="300%" x="-1" y="-1"><feGaussianBlur result="blurOut" stdDeviation="2.0"/><feColorMatrix in="blurOut" result="blurOut2" type="matrix" values="0 0 0 0 0 0 0 0 0 0 0 0 0 0 0 0 0 0 .4 0"/><feOffset dx="4.0" dy="4.0" in="blurOut2" result="blurOut3"/><feBlend in="SourceGraphic" in2="blurOut3" mode="normal"/></filter></defs><g><text fill="#000000" font-family="sans-serif" font-size="18" font-weight="bold" lengthAdjust="spacingAndGlyphs" textLength="534" x="572.75" y="16.708">AnnotationAwareAspectJAutoProxyCreator 继承体系</text><!--MD5=[cac81e38b4704b9d826543c956ead899]
class BeanPostProcessor--><rect fill="#FEFECE" filter="url(#fa6616kjpkl2q)" height="73.6094" id="BeanPostProcessor" style="stroke: #A80036; stroke-width: 1.5;" width="563" x="127.5" y="27.9531"/><ellipse cx="348.75" cy="43.9531" fill="#B4A7E5" rx="11" ry="11" style="stroke: #A80036; stroke-width: 1.0;"/><path d="M349.7031,40.7344 L351.4219,40.7344 C351.8125,40.7344 352,40.7031 352.125,40.625 C352.3906,40.4688 352.5313,40.1875 352.5313,39.8906 C352.5313,39.625 352.4219,39.3594 352.1875,39.1875 C352.0156,39.0781 351.875,39.0469 351.4219,39.0469 L346.2813,39.0469 C345.8438,39.0469 345.7188,39.0625 345.5625,39.1563 C345.3125,39.3125 345.1563,39.6094 345.1563,39.8906 C345.1563,40.1719 345.2969,40.4219 345.5156,40.5938 C345.6719,40.7031 345.8594,40.7344 346.2813,40.7344 L348,40.7344 L348,47.25 L346.2813,47.25 C345.8438,47.25 345.7188,47.2656 345.5625,47.375 C345.3125,47.5313 345.1563,47.8125 345.1563,48.1094 C345.1563,48.3594 345.2969,48.625 345.5156,48.7813 C345.6719,48.9063 345.875,48.9531 346.2813,48.9531 L351.4219,48.9531 C352.1719,48.9531 352.5313,48.6719 352.5313,48.1094 C352.5313,47.8281 352.4219,47.5781 352.1875,47.4063 C352.0156,47.2813 351.875,47.25 351.4219,47.25 L349.7031,47.25 L349.7031,40.7344 Z "/><text fill="#000000" font-family="sans-serif" font-size="12" font-style="italic" lengthAdjust="spacingAndGlyphs" textLength="112" x="369.25" y="48.1074">BeanPostProcessor</text><line style="stroke: #A80036; stroke-width: 1.5;" x1="128.5" x2="689.5" y1="59.9531" y2="59.9531"/><line style="stroke: #A80036; stroke-width: 1.5;" x1="128.5" x2="689.5" y1="67.9531" y2="67.9531"/><ellipse cx="138.5" cy="78.9531" fill="#84BE84" rx="3" ry="3" style="stroke: #038048; stroke-width: 1.0;"/><text fill="#000000" font-family="sans-serif" font-size="11" lengthAdjust="spacingAndGlyphs" textLength="537" x="147.5" y="82.1636">Object postProcessBeforeInitialization(Object bean, String beanName) throws BeansException</text><ellipse cx="138.5" cy="91.7578" fill="#84BE84" rx="3" ry="3" style="stroke: #038048; stroke-width: 1.0;"/><text fill="#000000" font-family="sans-serif" font-size="11" lengthAdjust="spacingAndGlyphs" textLength="526" x="147.5" y="94.9683">Object postProcessAfterInitialization(Object bean, String beanName) throws BeansException</text><!--MD5=[775da2d4690eeb33adce6c1fd47396c2]
class InstantiationAwareBeanPostProcessor--><rect fill="#FEFECE" filter="url(#fa6616kjpkl2q)" height="99.2188" id="InstantiationAwareBeanPostProcessor" style="stroke: #A80036; stroke-width: 1.5;" width="804" x="7" y="200.4531"/><ellipse cx="292.25" cy="216.4531" fill="#B4A7E5" rx="11" ry="11" style="stroke: #A80036; stroke-width: 1.0;"/><path d="M293.2031,213.2344 L294.9219,213.2344 C295.3125,213.2344 295.5,213.2031 295.625,213.125 C295.8906,212.9688 296.0313,212.6875 296.0313,212.3906 C296.0313,212.125 295.9219,211.8594 295.6875,211.6875 C295.5156,211.5781 295.375,211.5469 294.9219,211.5469 L289.7813,211.5469 C289.3438,211.5469 289.2188,211.5625 289.0625,211.6563 C288.8125,211.8125 288.6563,212.1094 288.6563,212.3906 C288.6563,212.6719 288.7969,212.9219 289.0156,213.0938 C289.1719,213.2031 289.3594,213.2344 289.7813,213.2344 L291.5,213.2344 L291.5,219.75 L289.7813,219.75 C289.3438,219.75 289.2188,219.7656 289.0625,219.875 C288.8125,220.0313 288.6563,220.3125 288.6563,220.6094 C288.6563,220.8594 288.7969,221.125 289.0156,221.2813 C289.1719,221.4063 289.375,221.4531 289.7813,221.4531 L294.9219,221.4531 C295.6719,221.4531 296.0313,221.1719 296.0313,220.6094 C296.0313,220.3281 295.9219,220.0781 295.6875,219.9063 C295.5156,219.7813 295.375,219.75 294.9219,219.75 L293.2031,219.75 L293.2031,213.2344 Z "/><text fill="#000000" font-family="sans-serif" font-size="12" font-style="italic" lengthAdjust="spacingAndGlyphs" textLength="225" x="312.75" y="220.6074">InstantiationAwareBeanPostProcessor</text><line style="stroke: #A80036; stroke-width: 1.5;" x1="8" x2="810" y1="232.4531" y2="232.4531"/><line style="stroke: #A80036; stroke-width: 1.5;" x1="8" x2="810" y1="240.4531" y2="240.4531"/><ellipse cx="18" cy="251.4531" fill="#84BE84" rx="3" ry="3" style="stroke: #038048; stroke-width: 1.0;"/><text fill="#000000" font-family="sans-serif" font-size="11" lengthAdjust="spacingAndGlyphs" textLength="522" x="27" y="254.6636">Object postProcessBeforeInstantiation(Class&lt;?&gt;, String beanName) throws BeansException</text><ellipse cx="18" cy="264.2578" fill="#84BE84" rx="3" ry="3" style="stroke: #038048; stroke-width: 1.0;"/><text fill="#000000" font-family="sans-serif" font-size="11" lengthAdjust="spacingAndGlyphs" textLength="536" x="27" y="267.4683">boolean postProcessAfterInstantiation(Object bean, String beanName) throws BeansException</text><ellipse cx="18" cy="277.0625" fill="#84BE84" rx="3" ry="3" style="stroke: #038048; stroke-width: 1.0;"/><text fill="#000000" font-family="sans-serif" font-size="11" lengthAdjust="spacingAndGlyphs" textLength="629" x="27" y="280.2729">PropertyValues postProcessProperties(PropertyValues, Object bean, String beanName) throws BeansException</text><ellipse cx="18" cy="289.8672" fill="#84BE84" rx="3" ry="3" style="stroke: #038048; stroke-width: 1.0;"/><text fill="#000000" font-family="sans-serif" font-size="11" lengthAdjust="spacingAndGlyphs" textLength="778" x="27" y="293.0776">PropertyValues postProcessPropertyValues(PropertyValues, PropertyDescriptor[], Object bean, String beanName) throws BeansException</text><!--MD5=[7ce28ced31fa58dba994ad433c0629e5]
class BeanFactoryAware--><rect fill="#FEFECE" filter="url(#fa6616kjpkl2q)" height="60.8047" id="BeanFactoryAware" style="stroke: #A80036; stroke-width: 1.5;" width="359" x="785.5" y="410.4531"/><ellipse cx="904.75" cy="426.4531" fill="#B4A7E5" rx="11" ry="11" style="stroke: #A80036; stroke-width: 1.0;"/><path d="M905.7031,423.2344 L907.4219,423.2344 C907.8125,423.2344 908,423.2031 908.125,423.125 C908.3906,422.9688 908.5313,422.6875 908.5313,422.3906 C908.5313,422.125 908.4219,421.8594 908.1875,421.6875 C908.0156,421.5781 907.875,421.5469 907.4219,421.5469 L902.2813,421.5469 C901.8438,421.5469 901.7188,421.5625 901.5625,421.6563 C901.3125,421.8125 901.1563,422.1094 901.1563,422.3906 C901.1563,422.6719 901.2969,422.9219 901.5156,423.0938 C901.6719,423.2031 901.8594,423.2344 902.2813,423.2344 L904,423.2344 L904,429.75 L902.2813,429.75 C901.8438,429.75 901.7188,429.7656 901.5625,429.875 C901.3125,430.0313 901.1563,430.3125 901.1563,430.6094 C901.1563,430.8594 901.2969,431.125 901.5156,431.2813 C901.6719,431.4063 901.875,431.4531 902.2813,431.4531 L907.4219,431.4531 C908.1719,431.4531 908.5313,431.1719 908.5313,430.6094 C908.5313,430.3281 908.4219,430.0781 908.1875,429.9063 C908.0156,429.7813 907.875,429.75 907.4219,429.75 L905.7031,429.75 L905.7031,423.2344 Z "/><text fill="#000000" font-family="sans-serif" font-size="12" font-style="italic" lengthAdjust="spacingAndGlyphs" textLength="112" x="925.25" y="430.6074">BeanFactoryAware</text><line style="stroke: #A80036; stroke-width: 1.5;" x1="786.5" x2="1143.5" y1="442.4531" y2="442.4531"/><line style="stroke: #A80036; stroke-width: 1.5;" x1="786.5" x2="1143.5" y1="450.4531" y2="450.4531"/><ellipse cx="796.5" cy="461.4531" fill="#84BE84" rx="3" ry="3" style="stroke: #038048; stroke-width: 1.0;"/><text fill="#000000" font-family="sans-serif" font-size="11" lengthAdjust="spacingAndGlyphs" textLength="333" x="805.5" y="464.6636">void setBeanFactory(BeanFactory) throws BeansException</text><!--MD5=[230f7e07ec22d6601d2d53b05086897b]
class Aware--><rect fill="#FEFECE" filter="url(#fa6616kjpkl2q)" height="48" id="Aware" style="stroke: #A80036; stroke-width: 1.5;" width="69" x="967.5" y="40.9531"/><ellipse cx="982.5" cy="56.9531" fill="#B4A7E5" rx="11" ry="11" style="stroke: #A80036; stroke-width: 1.0;"/><path d="M983.4531,53.7344 L985.1719,53.7344 C985.5625,53.7344 985.75,53.7031 985.875,53.625 C986.1406,53.4688 986.2813,53.1875 986.2813,52.8906 C986.2813,52.625 986.1719,52.3594 985.9375,52.1875 C985.7656,52.0781 985.625,52.0469 985.1719,52.0469 L980.0313,52.0469 C979.5938,52.0469 979.4688,52.0625 979.3125,52.1563 C979.0625,52.3125 978.9063,52.6094 978.9063,52.8906 C978.9063,53.1719 979.0469,53.4219 979.2656,53.5938 C979.4219,53.7031 979.6094,53.7344 980.0313,53.7344 L981.75,53.7344 L981.75,60.25 L980.0313,60.25 C979.5938,60.25 979.4688,60.2656 979.3125,60.375 C979.0625,60.5313 978.9063,60.8125 978.9063,61.1094 C978.9063,61.3594 979.0469,61.625 979.2656,61.7813 C979.4219,61.9063 979.625,61.9531 980.0313,61.9531 L985.1719,61.9531 C985.9219,61.9531 986.2813,61.6719 986.2813,61.1094 C986.2813,60.8281 986.1719,60.5781 985.9375,60.4063 C985.7656,60.2813 985.625,60.25 985.1719,60.25 L983.4531,60.25 L983.4531,53.7344 Z "/><text fill="#000000" font-family="sans-serif" font-size="12" font-style="italic" lengthAdjust="spacingAndGlyphs" textLength="37" x="996.5" y="61.1074">Aware</text><line style="stroke: #A80036; stroke-width: 1.5;" x1="968.5" x2="1035.5" y1="72.9531" y2="72.9531"/><line style="stroke: #A80036; stroke-width: 1.5;" x1="968.5" x2="1035.5" y1="80.9531" y2="80.9531"/><!--MD5=[62989c5b4572b371f903377559d722ac]
class BeanClassLoaderAware--><rect fill="#FEFECE" filter="url(#fa6616kjpkl2q)" height="60.8047" id="BeanClassLoaderAware" style="stroke: #A80036; stroke-width: 1.5;" width="248" x="967" y="219.4531"/><ellipse cx="1017.75" cy="235.4531" fill="#B4A7E5" rx="11" ry="11" style="stroke: #A80036; stroke-width: 1.0;"/><path d="M1018.7031,232.2344 L1020.4219,232.2344 C1020.8125,232.2344 1021,232.2031 1021.125,232.125 C1021.3906,231.9688 1021.5313,231.6875 1021.5313,231.3906 C1021.5313,231.125 1021.4219,230.8594 1021.1875,230.6875 C1021.0156,230.5781 1020.875,230.5469 1020.4219,230.5469 L1015.2813,230.5469 C1014.8438,230.5469 1014.7188,230.5625 1014.5625,230.6563 C1014.3125,230.8125 1014.1563,231.1094 1014.1563,231.3906 C1014.1563,231.6719 1014.2969,231.9219 1014.5156,232.0938 C1014.6719,232.2031 1014.8594,232.2344 1015.2813,232.2344 L1017,232.2344 L1017,238.75 L1015.2813,238.75 C1014.8438,238.75 1014.7188,238.7656 1014.5625,238.875 C1014.3125,239.0313 1014.1563,239.3125 1014.1563,239.6094 C1014.1563,239.8594 1014.2969,240.125 1014.5156,240.2813 C1014.6719,240.4063 1014.875,240.4531 1015.2813,240.4531 L1020.4219,240.4531 C1021.1719,240.4531 1021.5313,240.1719 1021.5313,239.6094 C1021.5313,239.3281 1021.4219,239.0781 1021.1875,238.9063 C1021.0156,238.7813 1020.875,238.75 1020.4219,238.75 L1018.7031,238.75 L1018.7031,232.2344 Z "/><text fill="#000000" font-family="sans-serif" font-size="12" font-style="italic" lengthAdjust="spacingAndGlyphs" textLength="138" x="1038.25" y="239.6074">BeanClassLoaderAware</text><line style="stroke: #A80036; stroke-width: 1.5;" x1="968" x2="1214" y1="251.4531" y2="251.4531"/><line style="stroke: #A80036; stroke-width: 1.5;" x1="968" x2="1214" y1="259.4531" y2="259.4531"/><ellipse cx="978" cy="270.4531" fill="#84BE84" rx="3" ry="3" style="stroke: #038048; stroke-width: 1.0;"/><text fill="#000000" font-family="sans-serif" font-size="11" lengthAdjust="spacingAndGlyphs" textLength="222" x="987" y="273.6636">void setBeanClassLoader(ClassLoader)</text><!--MD5=[f4a64beb6f30a0c31c8c012d6baf867a]
class SmartInstantiationAwareBeanPostProcessor--><rect fill="#FEFECE" filter="url(#fa6616kjpkl2q)" height="86.4141" id="SmartInstantiationAwareBeanPostProcessor" style="stroke: #A80036; stroke-width: 1.5;" width="683" x="67.5" y="397.9531"/><ellipse cx="273.75" cy="413.9531" fill="#B4A7E5" rx="11" ry="11" style="stroke: #A80036; stroke-width: 1.0;"/><path d="M274.7031,410.7344 L276.4219,410.7344 C276.8125,410.7344 277,410.7031 277.125,410.625 C277.3906,410.4688 277.5313,410.1875 277.5313,409.8906 C277.5313,409.625 277.4219,409.3594 277.1875,409.1875 C277.0156,409.0781 276.875,409.0469 276.4219,409.0469 L271.2813,409.0469 C270.8438,409.0469 270.7188,409.0625 270.5625,409.1563 C270.3125,409.3125 270.1563,409.6094 270.1563,409.8906 C270.1563,410.1719 270.2969,410.4219 270.5156,410.5938 C270.6719,410.7031 270.8594,410.7344 271.2813,410.7344 L273,410.7344 L273,417.25 L271.2813,417.25 C270.8438,417.25 270.7188,417.2656 270.5625,417.375 C270.3125,417.5313 270.1563,417.8125 270.1563,418.1094 C270.1563,418.3594 270.2969,418.625 270.5156,418.7813 C270.6719,418.9063 270.875,418.9531 271.2813,418.9531 L276.4219,418.9531 C277.1719,418.9531 277.5313,418.6719 277.5313,418.1094 C277.5313,417.8281 277.4219,417.5781 277.1875,417.4063 C277.0156,417.2813 276.875,417.25 276.4219,417.25 L274.7031,417.25 L274.7031,410.7344 Z "/><text fill="#000000" font-family="sans-serif" font-size="12" font-style="italic" lengthAdjust="spacingAndGlyphs" textLength="262" x="294.25" y="418.1074">SmartInstantiationAwareBeanPostProcessor</text><line style="stroke: #A80036; stroke-width: 1.5;" x1="68.5" x2="749.5" y1="429.9531" y2="429.9531"/><line style="stroke: #A80036; stroke-width: 1.5;" x1="68.5" x2="749.5" y1="437.9531" y2="437.9531"/><ellipse cx="78.5" cy="448.9531" fill="#84BE84" rx="3" ry="3" style="stroke: #038048; stroke-width: 1.0;"/><text fill="#000000" font-family="sans-serif" font-size="11" lengthAdjust="spacingAndGlyphs" textLength="525" x="87.5" y="452.1636">Class&lt;?&gt; predictBeanType(Class&lt;?&gt; beanClass, String beanName) throws BeansException</text><ellipse cx="78.5" cy="461.7578" fill="#84BE84" rx="3" ry="3" style="stroke: #038048; stroke-width: 1.0;"/><text fill="#000000" font-family="sans-serif" font-size="11" lengthAdjust="spacingAndGlyphs" textLength="657" x="87.5" y="464.9683">Constructor&lt;?&gt;[] determineCandidateConstructors(Class&lt;?&gt; beanClass, String beanName) throws BeansException</text><ellipse cx="78.5" cy="474.5625" fill="#84BE84" rx="3" ry="3" style="stroke: #038048; stroke-width: 1.0;"/><text fill="#000000" font-family="sans-serif" font-size="11" lengthAdjust="spacingAndGlyphs" textLength="500" x="87.5" y="477.7729">Object getEarlyBeanReference(Object bean, String beanName) throws BeansException</text><!--MD5=[1bf6f450c20ce1c97b5d4ba6148d16c7]
class ProxyConfig--><rect fill="#FEFECE" filter="url(#fa6616kjpkl2q)" height="176.0469" id="ProxyConfig" style="stroke: #A80036; stroke-width: 1.5;" width="224" x="1250" y="161.9531"/><ellipse cx="1322.25" cy="177.9531" fill="#ADD1B2" rx="11" ry="11" style="stroke: #A80036; stroke-width: 1.0;"/><path d="M1324.5938,173.625 C1323.6563,173.1875 1323.0625,173.0469 1322.1875,173.0469 C1319.5625,173.0469 1317.5625,175.125 1317.5625,177.8438 L1317.5625,178.9688 C1317.5625,181.5469 1319.6719,183.4375 1322.5625,183.4375 C1323.7813,183.4375 1324.9375,183.1406 1325.6875,182.5938 C1326.2656,182.1875 1326.5938,181.7344 1326.5938,181.3438 C1326.5938,180.8906 1326.2031,180.5 1325.7344,180.5 C1325.5156,180.5 1325.3125,180.5781 1325.125,180.7656 C1324.6719,181.25 1324.6719,181.25 1324.4844,181.3438 C1324.0625,181.6094 1323.375,181.7344 1322.6094,181.7344 C1320.5625,181.7344 1319.2656,180.6406 1319.2656,178.9375 L1319.2656,177.8438 C1319.2656,176.0625 1320.5156,174.75 1322.25,174.75 C1322.8281,174.75 1323.4375,174.9063 1323.9063,175.1563 C1324.3906,175.4375 1324.5625,175.6563 1324.6563,176.0625 C1324.7188,176.4688 1324.75,176.5938 1324.8906,176.7188 C1325.0313,176.8594 1325.2656,176.9688 1325.4844,176.9688 C1325.75,176.9688 1326.0156,176.8281 1326.1875,176.6094 C1326.2969,176.4531 1326.3281,176.2656 1326.3281,175.8438 L1326.3281,174.4219 C1326.3281,173.9844 1326.3125,173.8594 1326.2188,173.7031 C1326.0625,173.4375 1325.7813,173.2969 1325.4844,173.2969 C1325.1875,173.2969 1324.9844,173.3906 1324.7656,173.7031 L1324.5938,173.625 Z "/><text fill="#000000" font-family="sans-serif" font-size="12" lengthAdjust="spacingAndGlyphs" textLength="71" x="1342.75" y="182.1074">ProxyConfig</text><line style="stroke: #A80036; stroke-width: 1.5;" x1="1251" x2="1473" y1="193.9531" y2="193.9531"/><line style="stroke: #A80036; stroke-width: 1.5;" x1="1251" x2="1473" y1="201.9531" y2="201.9531"/><ellipse cx="1261" cy="212.9531" fill="#84BE84" rx="3" ry="3" style="stroke: #038048; stroke-width: 1.0;"/><text fill="#000000" font-family="sans-serif" font-size="11" lengthAdjust="spacingAndGlyphs" textLength="198" x="1270" y="216.1636">void setProxyTargetClass(boolean)</text><ellipse cx="1261" cy="225.7578" fill="#84BE84" rx="3" ry="3" style="stroke: #038048; stroke-width: 1.0;"/><text fill="#000000" font-family="sans-serif" font-size="11" lengthAdjust="spacingAndGlyphs" textLength="165" x="1270" y="228.9683">boolean isProxyTargetClass()</text><ellipse cx="1261" cy="238.5625" fill="#84BE84" rx="3" ry="3" style="stroke: #038048; stroke-width: 1.0;"/><text fill="#000000" font-family="sans-serif" font-size="11" lengthAdjust="spacingAndGlyphs" textLength="152" x="1270" y="241.7729">void setOptimize(boolean)</text><ellipse cx="1261" cy="251.3672" fill="#84BE84" rx="3" ry="3" style="stroke: #038048; stroke-width: 1.0;"/><text fill="#000000" font-family="sans-serif" font-size="11" lengthAdjust="spacingAndGlyphs" textLength="119" x="1270" y="254.5776">boolean isOptimize()</text><ellipse cx="1261" cy="264.1719" fill="#84BE84" rx="3" ry="3" style="stroke: #038048; stroke-width: 1.0;"/><text fill="#000000" font-family="sans-serif" font-size="11" lengthAdjust="spacingAndGlyphs" textLength="145" x="1270" y="267.3823">void setOpaque(boolean)</text><ellipse cx="1261" cy="276.9766" fill="#84BE84" rx="3" ry="3" style="stroke: #038048; stroke-width: 1.0;"/><text fill="#000000" font-family="sans-serif" font-size="11" lengthAdjust="spacingAndGlyphs" textLength="112" x="1270" y="280.187">boolean isOpaque()</text><ellipse cx="1261" cy="289.7813" fill="#84BE84" rx="3" ry="3" style="stroke: #038048; stroke-width: 1.0;"/><text fill="#000000" font-family="sans-serif" font-size="11" lengthAdjust="spacingAndGlyphs" textLength="173" x="1270" y="292.9917">void setExposeProxy(boolean)</text><ellipse cx="1261" cy="302.5859" fill="#84BE84" rx="3" ry="3" style="stroke: #038048; stroke-width: 1.0;"/><text fill="#000000" font-family="sans-serif" font-size="11" lengthAdjust="spacingAndGlyphs" textLength="140" x="1270" y="305.7964">boolean isExposeProxy()</text><ellipse cx="1261" cy="315.3906" fill="#84BE84" rx="3" ry="3" style="stroke: #038048; stroke-width: 1.0;"/><text fill="#000000" font-family="sans-serif" font-size="11" lengthAdjust="spacingAndGlyphs" textLength="139" x="1270" y="318.6011">void setFrozen(boolean)</text><ellipse cx="1261" cy="328.1953" fill="#84BE84" rx="3" ry="3" style="stroke: #038048; stroke-width: 1.0;"/><text fill="#000000" font-family="sans-serif" font-size="11" lengthAdjust="spacingAndGlyphs" textLength="106" x="1270" y="331.4058">boolean isFrozen()</text><!--MD5=[971aed7231d7798385de540594d0612c]
class ProxyProcessorSupport--><rect fill="#FEFECE" filter="url(#fa6616kjpkl2q)" height="48" id="ProxyProcessorSupport" style="stroke: #A80036; stroke-width: 1.5;" width="174" x="1202" y="416.9531"/><ellipse cx="1217" cy="432.9531" fill="#ADD1B2" rx="11" ry="11" style="stroke: #A80036; stroke-width: 1.0;"/><path d="M1219.3438,428.625 C1218.4063,428.1875 1217.8125,428.0469 1216.9375,428.0469 C1214.3125,428.0469 1212.3125,430.125 1212.3125,432.8438 L1212.3125,433.9688 C1212.3125,436.5469 1214.4219,438.4375 1217.3125,438.4375 C1218.5313,438.4375 1219.6875,438.1406 1220.4375,437.5938 C1221.0156,437.1875 1221.3438,436.7344 1221.3438,436.3438 C1221.3438,435.8906 1220.9531,435.5 1220.4844,435.5 C1220.2656,435.5 1220.0625,435.5781 1219.875,435.7656 C1219.4219,436.25 1219.4219,436.25 1219.2344,436.3438 C1218.8125,436.6094 1218.125,436.7344 1217.3594,436.7344 C1215.3125,436.7344 1214.0156,435.6406 1214.0156,433.9375 L1214.0156,432.8438 C1214.0156,431.0625 1215.2656,429.75 1217,429.75 C1217.5781,429.75 1218.1875,429.9063 1218.6563,430.1563 C1219.1406,430.4375 1219.3125,430.6563 1219.4063,431.0625 C1219.4688,431.4688 1219.5,431.5938 1219.6406,431.7188 C1219.7813,431.8594 1220.0156,431.9688 1220.2344,431.9688 C1220.5,431.9688 1220.7656,431.8281 1220.9375,431.6094 C1221.0469,431.4531 1221.0781,431.2656 1221.0781,430.8438 L1221.0781,429.4219 C1221.0781,428.9844 1221.0625,428.8594 1220.9688,428.7031 C1220.8125,428.4375 1220.5313,428.2969 1220.2344,428.2969 C1219.9375,428.2969 1219.7344,428.3906 1219.5156,428.7031 L1219.3438,428.625 Z "/><text fill="#000000" font-family="sans-serif" font-size="12" lengthAdjust="spacingAndGlyphs" textLength="142" x="1231" y="437.1074">ProxyProcessorSupport</text><line style="stroke: #A80036; stroke-width: 1.5;" x1="1203" x2="1375" y1="448.9531" y2="448.9531"/><line style="stroke: #A80036; stroke-width: 1.5;" x1="1203" x2="1375" y1="456.9531" y2="456.9531"/><!--MD5=[fa64cc67e994d47d3384c8057c632f8f]
class AopInfrastructureBean--><rect fill="#FEFECE" filter="url(#fa6616kjpkl2q)" height="48" id="AopInfrastructureBean" style="stroke: #A80036; stroke-width: 1.5;" width="169" x="1509.5" y="225.9531"/><ellipse cx="1524.5" cy="241.9531" fill="#B4A7E5" rx="11" ry="11" style="stroke: #A80036; stroke-width: 1.0;"/><path d="M1525.4531,238.7344 L1527.1719,238.7344 C1527.5625,238.7344 1527.75,238.7031 1527.875,238.625 C1528.1406,238.4688 1528.2813,238.1875 1528.2813,237.8906 C1528.2813,237.625 1528.1719,237.3594 1527.9375,237.1875 C1527.7656,237.0781 1527.625,237.0469 1527.1719,237.0469 L1522.0313,237.0469 C1521.5938,237.0469 1521.4688,237.0625 1521.3125,237.1563 C1521.0625,237.3125 1520.9063,237.6094 1520.9063,237.8906 C1520.9063,238.1719 1521.0469,238.4219 1521.2656,238.5938 C1521.4219,238.7031 1521.6094,238.7344 1522.0313,238.7344 L1523.75,238.7344 L1523.75,245.25 L1522.0313,245.25 C1521.5938,245.25 1521.4688,245.2656 1521.3125,245.375 C1521.0625,245.5313 1520.9063,245.8125 1520.9063,246.1094 C1520.9063,246.3594 1521.0469,246.625 1521.2656,246.7813 C1521.4219,246.9063 1521.625,246.9531 1522.0313,246.9531 L1527.1719,246.9531 C1527.9219,246.9531 1528.2813,246.6719 1528.2813,246.1094 C1528.2813,245.8281 1528.1719,245.5781 1527.9375,245.4063 C1527.7656,245.2813 1527.625,245.25 1527.1719,245.25 L1525.4531,245.25 L1525.4531,238.7344 Z "/><text fill="#000000" font-family="sans-serif" font-size="12" font-style="italic" lengthAdjust="spacingAndGlyphs" textLength="137" x="1538.5" y="246.1074">AopInfrastructureBean</text><line style="stroke: #A80036; stroke-width: 1.5;" x1="1510.5" x2="1677.5" y1="257.9531" y2="257.9531"/><line style="stroke: #A80036; stroke-width: 1.5;" x1="1510.5" x2="1677.5" y1="265.9531" y2="265.9531"/><!--MD5=[0efddbf24333d9d1b7251f53ed311a58]
class AbstractAutoProxyCreator--><rect fill="#FEFECE" filter="url(#fa6616kjpkl2q)" height="48" id="AbstractAutoProxyCreator" style="stroke: #A80036; stroke-width: 1.5;" width="188" x="871" y="543.9531"/><ellipse cx="886" cy="559.9531" fill="#A9DCDF" rx="11" ry="11" style="stroke: #A80036; stroke-width: 1.0;"/><path d="M888.0781,561.7656 L888.4688,562.75 L888.0781,562.75 C887.625,562.75 887.5156,562.7656 887.3594,562.875 C887.1094,563.0313 886.9531,563.3125 886.9531,563.6094 C886.9531,563.875 887.0938,564.125 887.3125,564.2813 C887.4531,564.4063 887.6563,564.4531 888.0781,564.4531 L890.4375,564.4531 C890.7969,564.4531 891.0156,564.4219 891.1563,564.3281 C891.4063,564.1875 891.5625,563.8906 891.5625,563.6094 C891.5625,563.3281 891.4219,563.0781 891.2031,562.9219 C891.0313,562.7813 890.875,562.75 890.4063,562.75 L887.0156,554.5469 L883.3438,554.5469 C882.8906,554.5469 882.7656,554.5625 882.6094,554.6563 C882.3594,554.8281 882.2031,555.1094 882.2031,555.3906 C882.2031,555.6719 882.3438,555.9219 882.5625,556.0938 C882.7344,556.2031 882.9063,556.2344 883.3438,556.2344 L884.4219,556.2344 L881.7813,562.75 C881.3594,562.75 881.2031,562.7656 881.0469,562.875 C880.7969,563.0313 880.6406,563.3125 880.6406,563.6094 C880.6406,564.1719 881.0156,564.4531 881.7656,564.4531 L884.0313,564.4531 C884.3906,564.4531 884.6094,564.4219 884.7344,564.3281 C885,564.1875 885.1406,563.8906 885.1406,563.6094 C885.1406,563.3281 885.0156,563.0781 884.7969,562.9063 C884.625,562.7813 884.4844,562.75 884.0313,562.75 L883.6406,562.75 L884.0313,561.7656 L888.0781,561.7656 Z M887.375,560.0625 L884.7031,560.0625 L886.0469,556.7969 L887.375,560.0625 Z "/><text fill="#000000" font-family="sans-serif" font-size="12" font-style="italic" lengthAdjust="spacingAndGlyphs" textLength="156" x="900" y="564.1074">AbstractAutoProxyCreator</text><line style="stroke: #A80036; stroke-width: 1.5;" x1="872" x2="1058" y1="575.9531" y2="575.9531"/><line style="stroke: #A80036; stroke-width: 1.5;" x1="872" x2="1058" y1="583.9531" y2="583.9531"/><!--MD5=[48e5c3ff6f4f03dbf6c187f0b908eb26]
class AbstractAdvisorAutoProxyCreator--><rect fill="#FEFECE" filter="url(#fa6616kjpkl2q)" height="48" id="AbstractAdvisorAutoProxyCreator" style="stroke: #A80036; stroke-width: 1.5;" width="232" x="849" y="651.9531"/><ellipse cx="864" cy="667.9531" fill="#A9DCDF" rx="11" ry="11" style="stroke: #A80036; stroke-width: 1.0;"/><path d="M866.0781,669.7656 L866.4688,670.75 L866.0781,670.75 C865.625,670.75 865.5156,670.7656 865.3594,670.875 C865.1094,671.0313 864.9531,671.3125 864.9531,671.6094 C864.9531,671.875 865.0938,672.125 865.3125,672.2813 C865.4531,672.4063 865.6563,672.4531 866.0781,672.4531 L868.4375,672.4531 C868.7969,672.4531 869.0156,672.4219 869.1563,672.3281 C869.4063,672.1875 869.5625,671.8906 869.5625,671.6094 C869.5625,671.3281 869.4219,671.0781 869.2031,670.9219 C869.0313,670.7813 868.875,670.75 868.4063,670.75 L865.0156,662.5469 L861.3438,662.5469 C860.8906,662.5469 860.7656,662.5625 860.6094,662.6563 C860.3594,662.8281 860.2031,663.1094 860.2031,663.3906 C860.2031,663.6719 860.3438,663.9219 860.5625,664.0938 C860.7344,664.2031 860.9063,664.2344 861.3438,664.2344 L862.4219,664.2344 L859.7813,670.75 C859.3594,670.75 859.2031,670.7656 859.0469,670.875 C858.7969,671.0313 858.6406,671.3125 858.6406,671.6094 C858.6406,672.1719 859.0156,672.4531 859.7656,672.4531 L862.0313,672.4531 C862.3906,672.4531 862.6094,672.4219 862.7344,672.3281 C863,672.1875 863.1406,671.8906 863.1406,671.6094 C863.1406,671.3281 863.0156,671.0781 862.7969,670.9063 C862.625,670.7813 862.4844,670.75 862.0313,670.75 L861.6406,670.75 L862.0313,669.7656 L866.0781,669.7656 Z M865.375,668.0625 L862.7031,668.0625 L864.0469,664.7969 L865.375,668.0625 Z "/><text fill="#000000" font-family="sans-serif" font-size="12" font-style="italic" lengthAdjust="spacingAndGlyphs" textLength="200" x="878" y="672.1074">AbstractAdvisorAutoProxyCreator</text><line style="stroke: #A80036; stroke-width: 1.5;" x1="850" x2="1080" y1="683.9531" y2="683.9531"/><line style="stroke: #A80036; stroke-width: 1.5;" x1="850" x2="1080" y1="691.9531" y2="691.9531"/><!--MD5=[5947131df5208f5eeeb6b173b5376272]
class AspectJAwareAdvisorAutoProxyCreator--><rect fill="#FEFECE" filter="url(#fa6616kjpkl2q)" height="48" id="AspectJAwareAdvisorAutoProxyCreator" style="stroke: #A80036; stroke-width: 1.5;" width="267" x="831.5" y="759.9531"/><ellipse cx="846.5" cy="775.9531" fill="#ADD1B2" rx="11" ry="11" style="stroke: #A80036; stroke-width: 1.0;"/><path d="M848.8438,771.625 C847.9063,771.1875 847.3125,771.0469 846.4375,771.0469 C843.8125,771.0469 841.8125,773.125 841.8125,775.8438 L841.8125,776.9688 C841.8125,779.5469 843.9219,781.4375 846.8125,781.4375 C848.0313,781.4375 849.1875,781.1406 849.9375,780.5938 C850.5156,780.1875 850.8438,779.7344 850.8438,779.3438 C850.8438,778.8906 850.4531,778.5 849.9844,778.5 C849.7656,778.5 849.5625,778.5781 849.375,778.7656 C848.9219,779.25 848.9219,779.25 848.7344,779.3438 C848.3125,779.6094 847.625,779.7344 846.8594,779.7344 C844.8125,779.7344 843.5156,778.6406 843.5156,776.9375 L843.5156,775.8438 C843.5156,774.0625 844.7656,772.75 846.5,772.75 C847.0781,772.75 847.6875,772.9063 848.1563,773.1563 C848.6406,773.4375 848.8125,773.6563 848.9063,774.0625 C848.9688,774.4688 849,774.5938 849.1406,774.7188 C849.2813,774.8594 849.5156,774.9688 849.7344,774.9688 C850,774.9688 850.2656,774.8281 850.4375,774.6094 C850.5469,774.4531 850.5781,774.2656 850.5781,773.8438 L850.5781,772.4219 C850.5781,771.9844 850.5625,771.8594 850.4688,771.7031 C850.3125,771.4375 850.0313,771.2969 849.7344,771.2969 C849.4375,771.2969 849.2344,771.3906 849.0156,771.7031 L848.8438,771.625 Z "/><text fill="#000000" font-family="sans-serif" font-size="12" lengthAdjust="spacingAndGlyphs" textLength="235" x="860.5" y="780.1074">AspectJAwareAdvisorAutoProxyCreator</text><line style="stroke: #A80036; stroke-width: 1.5;" x1="832.5" x2="1097.5" y1="791.9531" y2="791.9531"/><line style="stroke: #A80036; stroke-width: 1.5;" x1="832.5" x2="1097.5" y1="799.9531" y2="799.9531"/><!--MD5=[e1dfa329123566f174160dbf3498a4c9]
class AnnotationAwareAspectJAutoProxyCreator--><rect fill="#FEFECE" filter="url(#fa6616kjpkl2q)" height="48" id="AnnotationAwareAspectJAutoProxyCreator" style="stroke: #A80036; stroke-width: 1.5;" width="284" x="823" y="867.9531"/><ellipse cx="838" cy="883.9531" fill="#ADD1B2" rx="11" ry="11" style="stroke: #A80036; stroke-width: 1.0;"/><path d="M840.3438,879.625 C839.4063,879.1875 838.8125,879.0469 837.9375,879.0469 C835.3125,879.0469 833.3125,881.125 833.3125,883.8438 L833.3125,884.9688 C833.3125,887.5469 835.4219,889.4375 838.3125,889.4375 C839.5313,889.4375 840.6875,889.1406 841.4375,888.5938 C842.0156,888.1875 842.3438,887.7344 842.3438,887.3438 C842.3438,886.8906 841.9531,886.5 841.4844,886.5 C841.2656,886.5 841.0625,886.5781 840.875,886.7656 C840.4219,887.25 840.4219,887.25 840.2344,887.3438 C839.8125,887.6094 839.125,887.7344 838.3594,887.7344 C836.3125,887.7344 835.0156,886.6406 835.0156,884.9375 L835.0156,883.8438 C835.0156,882.0625 836.2656,880.75 838,880.75 C838.5781,880.75 839.1875,880.9063 839.6563,881.1563 C840.1406,881.4375 840.3125,881.6563 840.4063,882.0625 C840.4688,882.4688 840.5,882.5938 840.6406,882.7188 C840.7813,882.8594 841.0156,882.9688 841.2344,882.9688 C841.5,882.9688 841.7656,882.8281 841.9375,882.6094 C842.0469,882.4531 842.0781,882.2656 842.0781,881.8438 L842.0781,880.4219 C842.0781,879.9844 842.0625,879.8594 841.9688,879.7031 C841.8125,879.4375 841.5313,879.2969 841.2344,879.2969 C840.9375,879.2969 840.7344,879.3906 840.5156,879.7031 L840.3438,879.625 Z "/><text fill="#000000" font-family="sans-serif" font-size="12" lengthAdjust="spacingAndGlyphs" textLength="252" x="852" y="888.1074">AnnotationAwareAspectJAutoProxyCreator</text><line style="stroke: #A80036; stroke-width: 1.5;" x1="824" x2="1106" y1="899.9531" y2="899.9531"/><line style="stroke: #A80036; stroke-width: 1.5;" x1="824" x2="1106" y1="907.9531" y2="907.9531"/><!--MD5=[2b82ca89892dc36e1f66e5e1875c9d68]
reverse link BeanPostProcessor to InstantiationAwareBeanPostProcessor--><path d="M409,122.3391 C409,147.3141 409,176.4031 409,200.3971 " fill="none" id="BeanPostProcessor&lt;-InstantiationAwareBeanPostProcessor" style="stroke: #A80036; stroke-width: 1.0;"/><polygon fill="none" points="402,122.1081,409,102.1081,416,122.1081,402,122.1081" style="stroke: #A80036; stroke-width: 1.0;"/><!--MD5=[b2cd1e6ca9ae89e160cbb647650824fb]
reverse link Aware to BeanFactoryAware--><path d="M973.944,106.0421 C964.003,122.5641 954.04,142.3971 949,161.9531 C926.319,249.9641 945.58,358.6361 957.412,410.1581 " fill="none" id="Aware&lt;-BeanFactoryAware" style="stroke: #A80036; stroke-width: 1.0;"/><polygon fill="none" points="968.199,102.0341,984.895,88.9861,979.98,109.5981,968.199,102.0341" style="stroke: #A80036; stroke-width: 1.0;"/><!--MD5=[64300c446a582c73953a11148e40f4f3]
reverse link Aware to BeanClassLoaderAware--><path d="M1022.17,107.4201 C1038.74,141.4981 1061.82,188.9481 1076.58,219.3091 " fill="none" id="Aware&lt;-BeanClassLoaderAware" style="stroke: #A80036; stroke-width: 1.0;"/><polygon fill="none" points="1015.72,110.1771,1013.27,89.1301,1028.31,104.0541,1015.72,110.1771" style="stroke: #A80036; stroke-width: 1.0;"/><!--MD5=[420e45900255cd5132f75e8812ee4f01]
reverse link InstantiationAwareBeanPostProcessor to SmartInstantiationAwareBeanPostProcessor--><path d="M409,319.8121 C409,345.9511 409,374.9221 409,397.8651 " fill="none" id="InstantiationAwareBeanPostProcessor&lt;-SmartInstantiationAwareBeanPostProcessor" style="stroke: #A80036; stroke-width: 1.0;"/><polygon fill="none" points="402,319.6251,409,299.6251,416,319.6251,402,319.6251" style="stroke: #A80036; stroke-width: 1.0;"/><!--MD5=[438f9ebb991fb48a7087c261a3d9a603]
reverse link ProxyConfig to ProxyProcessorSupport--><path d="M1321.14,356.7391 C1312.36,379.4771 1303.92,401.3311 1297.89,416.9331 " fill="none" id="ProxyConfig&lt;-ProxyProcessorSupport" style="stroke: #A80036; stroke-width: 1.0;"/><polygon fill="none" points="1314.65,354.1191,1328.38,337.9851,1327.71,359.1641,1314.65,354.1191" style="stroke: #A80036; stroke-width: 1.0;"/><!--MD5=[0a2849c63565b6039261b0a6b7ee13d8]
reverse link BeanClassLoaderAware to ProxyProcessorSupport--><path d="M1136.61,294.4901 C1176.55,332.6151 1233.03,386.5301 1264.82,416.8721 " fill="none" id="BeanClassLoaderAware&lt;-ProxyProcessorSupport" style="stroke: #A80036; stroke-width: 1.0; stroke-dasharray: 7.0,7.0;"/><polygon fill="none" points="1131.57,299.3571,1121.94,280.4841,1141.24,289.2301,1131.57,299.3571" style="stroke: #A80036; stroke-width: 1.0;"/><!--MD5=[f1ef4cf5c75a4b9978a0665dc1673812]
reverse link AopInfrastructureBean to ProxyProcessorSupport--><path d="M1555.3,287.8161 C1536.94,304.2691 1514.2,323.2211 1492,337.9531 C1444.35,369.5771 1385.55,398.1001 1343.52,416.8901 " fill="none" id="AopInfrastructureBean&lt;-ProxyProcessorSupport" style="stroke: #A80036; stroke-width: 1.0; stroke-dasharray: 7.0,7.0;"/><polygon fill="none" points="1550.71,282.5281,1570.18,274.1701,1560.17,292.8461,1550.71,282.5281" style="stroke: #A80036; stroke-width: 1.0;"/><!--MD5=[dc76d12b5fd85afe8fadef3a90579048]
reverse link ProxyProcessorSupport to AbstractAutoProxyCreator--><path d="M1210.22,472.3471 C1153.06,494.4011 1076.91,523.7761 1024.73,543.9091 " fill="none" id="ProxyProcessorSupport&lt;-AbstractAutoProxyCreator" style="stroke: #A80036; stroke-width: 1.0;"/><polygon fill="none" points="1208.02,465.6941,1229.2,465.0261,1213.06,478.7551,1208.02,465.6941" style="stroke: #A80036; stroke-width: 1.0;"/><!--MD5=[fbe2d16c0aa772d62a46dfb263ed682a]
reverse link SmartInstantiationAwareBeanPostProcessor to AbstractAutoProxyCreator--><path d="M615.772,488.4391 C703.428,508.1461 801.216,530.1311 870.967,545.8121 " fill="none" id="SmartInstantiationAwareBeanPostProcessor&lt;-AbstractAutoProxyCreator" style="stroke: #A80036; stroke-width: 1.0; stroke-dasharray: 7.0,7.0;"/><polygon fill="none" points="614.051,495.2271,596.074,484.0111,617.122,481.5681,614.051,495.2271" style="stroke: #A80036; stroke-width: 1.0;"/><!--MD5=[400c1cf1fc02d0b17f042c1b9956eba3]
reverse link BeanFactoryAware to AbstractAutoProxyCreator--><path d="M965,491.6551 C965,509.6621 965,529.1491 965,543.7871 " fill="none" id="BeanFactoryAware&lt;-AbstractAutoProxyCreator" style="stroke: #A80036; stroke-width: 1.0; stroke-dasharray: 7.0,7.0;"/><polygon fill="none" points="958,491.5761,965,471.5761,972,491.5761,958,491.5761" style="stroke: #A80036; stroke-width: 1.0;"/><!--MD5=[a4efc3a773f20d8c34be712720533993]
reverse link AbstractAutoProxyCreator to AbstractAdvisorAutoProxyCreator--><path d="M965,611.9771 C965,625.5321 965,639.9911 965,651.6311 " fill="none" id="AbstractAutoProxyCreator&lt;-AbstractAdvisorAutoProxyCreator" style="stroke: #A80036; stroke-width: 1.0;"/><polygon fill="none" points="958,611.9531,965,591.9531,972,611.9531,958,611.9531" style="stroke: #A80036; stroke-width: 1.0;"/><!--MD5=[1fe89b4154dc10e3a1b6457a241f23c2]
reverse link AbstractAdvisorAutoProxyCreator to AspectJAwareAdvisorAutoProxyCreator--><path d="M965,719.9771 C965,733.5321 965,747.9911 965,759.6311 " fill="none" id="AbstractAdvisorAutoProxyCreator&lt;-AspectJAwareAdvisorAutoProxyCreator" style="stroke: #A80036; stroke-width: 1.0;"/><polygon fill="none" points="958,719.9531,965,699.9531,972,719.9531,958,719.9531" style="stroke: #A80036; stroke-width: 1.0;"/><!--MD5=[9f97c29907eae8e3b022d5b0b72010a2]
reverse link AspectJAwareAdvisorAutoProxyCreator to AnnotationAwareAspectJAutoProxyCreator--><path d="M965,827.9767 C965,841.5323 965,855.9912 965,867.6315 " fill="none" id="AspectJAwareAdvisorAutoProxyCreator&lt;-AnnotationAwareAspectJAutoProxyCreator" style="stroke: #A80036; stroke-width: 1.0;"/><polygon fill="none" points="958,827.9536,965,807.9531,972,827.9535,958,827.9536" style="stroke: #A80036; stroke-width: 1.0;"/><text fill="#888888" font-family="sans-serif" font-size="20" lengthAdjust="spacingAndGlyphs" textLength="479" x="600.25" y="947.5176">''地瓜哥''博客网 · https://www.diguage.com · 出品</text><!--MD5=[93a61ffe976b0da690f2ed5155fd491b]
@startuml
title **AnnotationAwareAspectJAutoProxyCreator 继承体系**

interface BeanPostProcessor {
  + Object postProcessBeforeInitialization(Object bean, String beanName) throws BeansException
  + Object postProcessAfterInitialization(Object bean, String beanName) throws BeansException
}

interface InstantiationAwareBeanPostProcessor extends BeanPostProcessor {
  + Object postProcessBeforeInstantiation(Class<?>, String beanName) throws BeansException
  + boolean postProcessAfterInstantiation(Object bean, String beanName) throws BeansException
  + PropertyValues postProcessProperties(PropertyValues, Object bean, String beanName) throws BeansException
  + PropertyValues postProcessPropertyValues(PropertyValues, PropertyDescriptor[], Object bean, String beanName) throws BeansException
}

interface BeanFactoryAware extends Aware {
  + void setBeanFactory(BeanFactory) throws BeansException
}
interface BeanClassLoaderAware extends Aware {
  + void setBeanClassLoader(ClassLoader)
}

interface SmartInstantiationAwareBeanPostProcessor extends InstantiationAwareBeanPostProcessor {
  + Class<?> predictBeanType(Class<?> beanClass, String beanName) throws BeansException
  + Constructor<?>[] determineCandidateConstructors(Class<?> beanClass, String beanName) throws BeansException
  + Object getEarlyBeanReference(Object bean, String beanName) throws BeansException
}

class ProxyConfig {
  + void setProxyTargetClass(boolean)
  + boolean isProxyTargetClass()
  + void setOptimize(boolean)
  + boolean isOptimize()
  + void setOpaque(boolean)
  + boolean isOpaque()
  + void setExposeProxy(boolean)
  + boolean isExposeProxy()
  + void setFrozen(boolean)
  + boolean isFrozen()
}

class ProxyProcessorSupport extends ProxyConfig implements BeanClassLoaderAware, AopInfrastructureBean

abstract class AbstractAutoProxyCreator extends ProxyProcessorSupport implements SmartInstantiationAwareBeanPostProcessor, BeanFactoryAware

abstract class AbstractAdvisorAutoProxyCreator extends AbstractAutoProxyCreator

class AspectJAwareAdvisorAutoProxyCreator extends AbstractAdvisorAutoProxyCreator

class AnnotationAwareAspectJAutoProxyCreator extends AspectJAwareAdvisorAutoProxyCreator

skinparam footerFontSize 20
footer ''地瓜哥''博客网 · https://www.diguage.com · 出品
@enduml

PlantUML version 1.2020.15beta1(Unknown compile time)
(GPL source distribution)
Java Runtime: Java(TM) SE Runtime Environment
JVM: Java HotSpot(TM) 64-Bit Server VM
Default Encoding: UTF-8
Language: en
Country: US
--></g></svg>