<svg height="1045" preserveAspectRatio="none" width="841" xmlns="http://www.w3.org/2000/svg" xmlns:xlink="http://www.w3.org/1999/xlink"><filter id="a" height="300%" width="300%" x="-1" y="-1"><feGaussianBlur result="blurOut" stdDeviation="2"/><feColorMatrix in="blurOut" result="blurOut2" values="0 0 0 0 0 0 0 0 0 0 0 0 0 0 0 0 0 0 .4 0"/><feOffset dx="4" dy="4" in="blurOut2" result="blurOut3"/><feBlend in="SourceGraphic" in2="blurOut3"/></filter><text font-family="sans-serif" font-size="18" font-weight="bold" lengthAdjust="spacingAndGlyphs" textLength="238" x="292.5" y="16.708">BeanDefinition 继承体系</text><path d="m178.5 135.953h202v60.805h-202z" fill="#fefece" filter="url(#a)" stroke="#a80036" stroke-width="1.5"/><ellipse cx="199.8" cy="151.953" fill="#a9dcdf" rx="11" ry="11" stroke="#a80036"/><path d="m201.878 153.766.39.984h-.39c-.453 0-.562.016-.719.125a.872.872 0 0 0 -.406.734c0 .266.14.516.36.672.14.125.343.172.765.172h2.36c.359 0 .578-.031.718-.125a.846.846 0 0 0 .407-.719.844.844 0 0 0 -.36-.687c-.172-.14-.328-.172-.797-.172l-3.39-8.203h-3.672c-.453 0-.578.016-.735.11a.915.915 0 0 0 -.406.734c0 .28.14.53.36.703.171.11.343.14.78.14h1.079l-2.64 6.516c-.423 0-.579.016-.735.125a.872.872 0 0 0 -.406.734c0 .563.375.844 1.125.844h2.265c.36 0 .578-.031.703-.125.266-.14.407-.437.407-.719a.88.88 0 0 0 -.344-.703c-.172-.125-.313-.156-.766-.156h-.39l.39-.984zm-.703-1.703h-2.672l1.344-3.266z"/><text font-family="sans-serif" font-size="12" font-style="italic" lengthAdjust="spacingAndGlyphs" textLength="156" x="215.2" y="156.107">AttributeAccessorSupport</text><path d="m179.5 167.953h200" stroke="#a80036" stroke-width="1.5"/><path d="m186.5 175.953h6v6h-6z" fill="none" stroke="#c82930"/><text font-family="sans-serif" font-size="11" lengthAdjust="spacingAndGlyphs" textLength="176" x="198.5" y="182.164">Map&lt;String, Object&gt; attributes</text><g stroke="#a80036"><path d="m179.5 188.758h200" stroke-width="1.5"/><path d="m465 27.953h139v48h-139z" fill="#fefece" filter="url(#a)" stroke-width="1.5"/><ellipse cx="480" cy="43.953" fill="#b4a7e5" rx="11" ry="11"/></g><path d="m480.953 40.734h1.719c.39 0 .578-.03.703-.109a.838.838 0 0 0 .406-.734.858.858 0 0 0 -.344-.703c-.171-.11-.312-.141-.765-.141h-5.14c-.438 0-.563.016-.72.11a.893.893 0 0 0 -.406.734c0 .28.14.53.36.703.156.11.343.14.765.14h1.719v6.516h-1.719c-.437 0-.562.016-.719.125a.872.872 0 0 0 -.406.734c0 .25.14.516.36.672.156.125.359.172.765.172h5.14c.75 0 1.11-.281 1.11-.844a.838.838 0 0 0 -.344-.703c-.171-.125-.312-.156-.765-.156h-1.719z"/><text font-family="sans-serif" font-size="12" font-style="italic" lengthAdjust="spacingAndGlyphs" textLength="107" x="494" y="48.107">AttributeAccessor</text><path d="m466 59.953h137m-137 8h137" stroke="#a80036" stroke-width="1.5"/><path d="m230 27.953h99v48h-99z" fill="#fefece" filter="url(#a)" stroke="#a80036" stroke-width="1.5"/><ellipse cx="245" cy="43.953" fill="#b4a7e5" rx="11" ry="11" stroke="#a80036"/><path d="m245.953 40.734h1.719c.39 0 .578-.03.703-.109a.838.838 0 0 0 .406-.734.858.858 0 0 0 -.344-.703c-.171-.11-.312-.141-.765-.141h-5.14c-.438 0-.563.016-.72.11a.893.893 0 0 0 -.406.734c0 .28.14.53.36.703.156.11.343.14.765.14h1.719v6.516h-1.719c-.437 0-.562.016-.719.125a.872.872 0 0 0 -.406.734c0 .25.14.516.36.672.156.125.359.172.765.172h5.14c.75 0 1.11-.281 1.11-.844a.838.838 0 0 0 -.344-.703c-.171-.125-.312-.156-.765-.156h-1.719z"/><text font-family="sans-serif" font-size="12" font-style="italic" lengthAdjust="spacingAndGlyphs" textLength="67" x="259" y="48.107">Serializable</text><path d="m231 59.953h97m-97 8h97" stroke="#a80036" stroke-width="1.5"/><path d="m240 256.953h225v60.805h-225z" fill="#fefece" filter="url(#a)" stroke="#a80036" stroke-width="1.5"/><ellipse cx="255" cy="272.953" fill="#add1b2" rx="11" ry="11" stroke="#a80036"/><path d="m257.344 268.625c-.938-.438-1.531-.578-2.406-.578-2.625 0-4.625 2.078-4.625 4.797v1.125c0 2.578 2.109 4.469 5 4.469 1.218 0 2.375-.297 3.125-.844.578-.406.906-.86.906-1.25a.864.864 0 0 0 -.86-.844.831.831 0 0 0 -.609.266c-.453.484-.453.484-.64.578-.423.265-1.11.39-1.876.39-2.047 0-3.343-1.093-3.343-2.796v-1.094c0-1.781 1.25-3.094 2.984-3.094.578 0 1.188.156 1.656.406.485.281.656.5.75.906.063.407.094.532.235.657.14.14.375.25.593.25a.92.92 0 0 0 .704-.36c.109-.156.14-.343.14-.765v-1.422c0-.438-.015-.563-.11-.719a.838.838 0 0 0 -.734-.406c-.296 0-.5.094-.718.406z"/><text font-family="sans-serif" font-size="12" lengthAdjust="spacingAndGlyphs" textLength="193" x="269" y="277.107">BeanMetadataAttributeAccessor</text><path d="m241 288.953h223" stroke="#a80036" stroke-width="1.5"/><path d="m248 296.953h6v6h-6z" fill="none" stroke="#c82930"/><text font-family="sans-serif" font-size="11" lengthAdjust="spacingAndGlyphs" textLength="79" x="260" y="303.164">Object source</text><path d="m241 309.758h223" stroke="#a80036" stroke-width="1.5"/><path d="m415.5 142.453h168v48h-168z" fill="#fefece" filter="url(#a)" stroke="#a80036" stroke-width="1.5"/><ellipse cx="430.5" cy="158.453" fill="#b4a7e5" rx="11" ry="11" stroke="#a80036"/><path d="m431.453 155.234h1.719c.39 0 .578-.03.703-.109a.838.838 0 0 0 .406-.734.858.858 0 0 0 -.344-.703c-.171-.11-.312-.141-.765-.141h-5.14c-.438 0-.563.016-.72.11a.893.893 0 0 0 -.406.734c0 .28.14.53.36.703.156.11.343.14.765.14h1.719v6.516h-1.719c-.437 0-.562.016-.719.125a.872.872 0 0 0 -.406.734c0 .25.14.516.36.672.156.125.359.172.765.172h5.14c.75 0 1.11-.281 1.11-.844a.838.838 0 0 0 -.344-.703c-.171-.125-.312-.156-.765-.156h-1.719z"/><text font-family="sans-serif" font-size="12" font-style="italic" lengthAdjust="spacingAndGlyphs" textLength="136" x="444.5" y="162.607">BeanMetadataElement</text><path d="m416.5 174.453h166m-166 8h166" stroke="#a80036" stroke-width="1.5"/><path d="m509 263.453h119v48h-119z" fill="#fefece" filter="url(#a)" stroke="#a80036" stroke-width="1.5"/><ellipse cx="524" cy="279.453" fill="#b4a7e5" rx="11" ry="11" stroke="#a80036"/><path d="m524.953 276.234h1.719c.39 0 .578-.03.703-.109a.838.838 0 0 0 .406-.734.858.858 0 0 0 -.343-.704c-.172-.109-.313-.14-.766-.14h-5.14c-.438 0-.563.015-.72.11a.893.893 0 0 0 -.406.734c0 .28.14.53.36.703.156.11.343.14.765.14h1.719v6.516h-1.719c-.437 0-.562.016-.718.125a.872.872 0 0 0 -.407.734c0 .25.14.516.36.672.156.125.359.172.765.172h5.14c.75 0 1.11-.281 1.11-.844a.838.838 0 0 0 -.343-.703c-.172-.125-.313-.156-.766-.156h-1.719z"/><text font-family="sans-serif" font-size="12" font-style="italic" lengthAdjust="spacingAndGlyphs" textLength="87" x="538" y="283.607">BeanDefinition</text><path d="m510 295.453h117m-117 8h117" stroke="#a80036" stroke-width="1.5"/><path d="m130.5 377.953h346v368.117h-346z" fill="#fefece" filter="url(#a)" stroke="#a80036" stroke-width="1.5"/><ellipse cx="230.25" cy="393.953" fill="#a9dcdf" rx="11" ry="11" stroke="#a80036"/><path d="m232.328 395.766.39.984h-.39c-.453 0-.562.016-.719.125a.872.872 0 0 0 -.406.734c0 .266.14.516.36.672.14.125.343.172.765.172h2.36c.359 0 .578-.031.718-.125a.846.846 0 0 0 .406-.719.844.844 0 0 0 -.359-.687c-.172-.14-.328-.172-.797-.172l-3.39-8.203h-3.672c-.453 0-.578.015-.735.11a.915.915 0 0 0 -.406.734c0 .28.14.53.36.703.171.11.343.14.78.14h1.079l-2.64 6.516c-.423 0-.579.016-.735.125a.872.872 0 0 0 -.406.734c0 .563.375.844 1.125.844h2.265c.36 0 .578-.031.703-.125.266-.14.407-.437.407-.719a.88.88 0 0 0 -.344-.703c-.172-.125-.313-.156-.766-.156h-.39l.39-.984zm-.703-1.704h-2.672l1.344-3.265z"/><text font-family="sans-serif" font-size="12" font-style="italic" lengthAdjust="spacingAndGlyphs" textLength="138" x="250.75" y="398.107">AbstractBeanDefinition</text><path d="m131.5 409.953h344" stroke="#a80036" stroke-width="1.5"/><path d="m138.5 417.953h6v6h-6z" fill="none" stroke="#c82930"/><text font-family="sans-serif" font-size="11" lengthAdjust="spacingAndGlyphs" textLength="100" x="150.5" y="424.164">Object beanClass</text><path d="m138.5 430.758h6v6h-6z" fill="none" stroke="#c82930"/><text font-family="sans-serif" font-size="11" lengthAdjust="spacingAndGlyphs" textLength="118" x="150.5" y="436.968">boolean abstractFlag</text><path d="m138.5 443.563h6v6h-6z" fill="none" stroke="#c82930"/><text font-family="sans-serif" font-size="11" lengthAdjust="spacingAndGlyphs" textLength="92" x="150.5" y="449.773">Boolean lazyInit</text><path d="m138.5 456.367h6v6h-6z" fill="none" stroke="#c82930"/><text font-family="sans-serif" font-size="11" lengthAdjust="spacingAndGlyphs" textLength="198" x="150.5" y="462.578">int autowireMode = AUTOWIRE_NO</text><path d="m138.5 469.172h6v6h-6z" fill="none" stroke="#c82930"/><text font-family="sans-serif" font-size="11" lengthAdjust="spacingAndGlyphs" textLength="300" x="150.5" y="475.382">int dependencyCheck = DEPENDENCY_CHECK_NONE</text><path d="m138.5 481.977h6v6h-6z" fill="none" stroke="#c82930"/><text font-family="sans-serif" font-size="11" lengthAdjust="spacingAndGlyphs" textLength="111" x="150.5" y="488.187">String[] dependsOn</text><path d="m138.5 494.781h6v6h-6z" fill="none" stroke="#c82930"/><text font-family="sans-serif" font-size="11" lengthAdjust="spacingAndGlyphs" textLength="197" x="150.5" y="500.992">boolean autowireCandidate = true</text><path d="m138.5 507.586h6v6h-6z" fill="none" stroke="#c82930"/><text font-family="sans-serif" font-size="11" lengthAdjust="spacingAndGlyphs" textLength="138" x="150.5" y="513.796">boolean primary = false</text><path d="m138.5 520.391h6v6h-6z" fill="none" stroke="#c82930"/><text font-family="sans-serif" font-size="11" lengthAdjust="spacingAndGlyphs" textLength="293" x="150.5" y="526.601">Map&lt;String, AutowireCandidateQualifier&gt; qualifiers</text><path d="m138.5 533.195h6v6h-6z" fill="none" stroke="#c82930"/><text font-family="sans-serif" font-size="11" lengthAdjust="spacingAndGlyphs" textLength="170" x="150.5" y="539.406">Supplier&lt;?&gt; instanceSupplier</text><path d="m138.5 546h6v6h-6z" fill="none" stroke="#c82930"/><text font-family="sans-serif" font-size="11" lengthAdjust="spacingAndGlyphs" textLength="228" x="150.5" y="552.21">boolean nonPublicAccessAllowed = true</text><path d="m138.5 558.805h6v6h-6z" fill="none" stroke="#c82930"/><text font-family="sans-serif" font-size="11" lengthAdjust="spacingAndGlyphs" textLength="253" x="150.5" y="565.015">boolean lenientConstructorResolution = true</text><path d="m138.5 571.609h6v6h-6z" fill="none" stroke="#c82930"/><text font-family="sans-serif" font-size="11" lengthAdjust="spacingAndGlyphs" textLength="140" x="150.5" y="577.82">String factoryBeanName</text><path d="m138.5 584.414h6v6h-6z" fill="none" stroke="#c82930"/><text font-family="sans-serif" font-size="11" lengthAdjust="spacingAndGlyphs" textLength="152" x="150.5" y="590.625">String factoryMethodName</text><path d="m138.5 597.219h6v6h-6z" fill="none" stroke="#c82930"/><text font-family="sans-serif" font-size="11" lengthAdjust="spacingAndGlyphs" textLength="320" x="150.5" y="603.429">ConstructorArgumentValues constructorArgumentValues</text><path d="m138.5 610.023h6v6h-6z" fill="none" stroke="#c82930"/><text font-family="sans-serif" font-size="11" lengthAdjust="spacingAndGlyphs" textLength="222" x="150.5" y="616.234">MutablePropertyValues propertyValues</text><path d="m138.5 622.828h6v6h-6z" fill="none" stroke="#c82930"/><text font-family="sans-serif" font-size="11" lengthAdjust="spacingAndGlyphs" textLength="202" x="150.5" y="629.039">MethodOverrides methodOverrides</text><path d="m138.5 635.633h6v6h-6z" fill="none" stroke="#c82930"/><text font-family="sans-serif" font-size="11" lengthAdjust="spacingAndGlyphs" textLength="130" x="150.5" y="641.843">String initMethodName</text><path d="m138.5 648.438h6v6h-6z" fill="none" stroke="#c82930"/><text font-family="sans-serif" font-size="11" lengthAdjust="spacingAndGlyphs" textLength="156" x="150.5" y="654.648">String destroyMethodName</text><path d="m138.5 661.242h6v6h-6z" fill="none" stroke="#c82930"/><text font-family="sans-serif" font-size="11" lengthAdjust="spacingAndGlyphs" textLength="193" x="150.5" y="667.453">boolean enforceInitMethod = true</text><path d="m138.5 674.047h6v6h-6z" fill="none" stroke="#c82930"/><text font-family="sans-serif" font-size="11" lengthAdjust="spacingAndGlyphs" textLength="221" x="150.5" y="680.257">boolean enforceDestroyMethod = true</text><path d="m138.5 686.852h6v6h-6z" fill="none" stroke="#c82930"/><text font-family="sans-serif" font-size="11" lengthAdjust="spacingAndGlyphs" textLength="147" x="150.5" y="693.062">boolean synthetic = false</text><path d="m138.5 699.656h6v6h-6z" fill="none" stroke="#c82930"/><text font-family="sans-serif" font-size="11" lengthAdjust="spacingAndGlyphs" textLength="252" x="150.5" y="705.867">int role = BeanDefinition.ROLE_APPLICATION</text><path d="m138.5 712.461h6v6h-6z" fill="none" stroke="#c82930"/><text font-family="sans-serif" font-size="11" lengthAdjust="spacingAndGlyphs" textLength="99" x="150.5" y="718.671">String description</text><path d="m138.5 725.266h6v6h-6z" fill="none" stroke="#c82930"/><text font-family="sans-serif" font-size="11" lengthAdjust="spacingAndGlyphs" textLength="107" x="150.5" y="731.476">Resource resource</text><path d="m131.5 738.07h344" stroke="#a80036" stroke-width="1.5"/><path d="m114.5 263.453h90v48h-90z" fill="#fefece" filter="url(#a)" stroke="#a80036" stroke-width="1.5"/><ellipse cx="129.5" cy="279.453" fill="#b4a7e5" rx="11" ry="11" stroke="#a80036"/><path d="m130.453 276.234h1.719c.39 0 .578-.03.703-.109a.838.838 0 0 0 .406-.734.858.858 0 0 0 -.344-.704c-.171-.109-.312-.14-.765-.14h-5.14c-.438 0-.563.015-.72.11a.893.893 0 0 0 -.406.734c0 .28.14.53.36.703.156.11.343.14.765.14h1.719v6.516h-1.719c-.437 0-.562.016-.719.125a.872.872 0 0 0 -.406.734c0 .25.14.516.36.672.156.125.359.172.765.172h5.14c.75 0 1.11-.281 1.11-.844a.838.838 0 0 0 -.344-.703c-.171-.125-.312-.156-.765-.156h-1.719z"/><text font-family="sans-serif" font-size="12" font-style="italic" lengthAdjust="spacingAndGlyphs" textLength="58" x="143.5" y="283.607">Cloneable</text><path d="m115.5 295.453h88m-88 8h88" stroke="#a80036" stroke-width="1.5"/><path d="m7 812.453h145v48h-145z" fill="#fefece" filter="url(#a)" stroke="#a80036" stroke-width="1.5"/><ellipse cx="22" cy="828.453" fill="#add1b2" rx="11" ry="11" stroke="#a80036"/><path d="m24.344 824.125c-.938-.438-1.532-.578-2.407-.578-2.625 0-4.625 2.078-4.625 4.797v1.125c0 2.578 2.11 4.468 5 4.468 1.22 0 2.375-.296 3.125-.843.579-.407.907-.86.907-1.25a.864.864 0 0 0 -.86-.844.831.831 0 0 0 -.609.266c-.453.484-.453.484-.64.578-.422.265-1.11.39-1.876.39-2.047 0-3.343-1.093-3.343-2.797v-1.093c0-1.782 1.25-3.094 2.984-3.094.578 0 1.188.156 1.656.406.485.282.657.5.75.907.063.406.094.53.235.656.14.14.375.25.593.25a.92.92 0 0 0 .703-.36c.11-.156.141-.343.141-.765v-1.422c0-.438-.015-.563-.11-.719a.838.838 0 0 0 -.734-.406c-.297 0-.5.094-.718.406z"/><text font-family="sans-serif" font-size="12" lengthAdjust="spacingAndGlyphs" textLength="113" x="36" y="832.607">RootBeanDefinition</text><path d="m8 844.453h143m-143 8h143" stroke="#a80036" stroke-width="1.5"/><path d="m569.5 812.453h182v48h-182z" fill="#fefece" filter="url(#a)" stroke="#a80036" stroke-width="1.5"/><ellipse cx="584.5" cy="828.453" fill="#b4a7e5" rx="11" ry="11" stroke="#a80036"/><path d="m585.453 825.234h1.719c.39 0 .578-.03.703-.109a.838.838 0 0 0 .406-.734.858.858 0 0 0 -.343-.703c-.172-.11-.313-.141-.766-.141h-5.14c-.438 0-.563.015-.72.11a.893.893 0 0 0 -.406.734c0 .28.14.53.36.703.156.11.343.14.765.14h1.719v6.516h-1.719c-.437 0-.562.016-.718.125a.872.872 0 0 0 -.407.734c0 .25.14.516.36.672.156.125.359.172.765.172h5.14c.75 0 1.11-.281 1.11-.844a.838.838 0 0 0 -.343-.703c-.172-.125-.313-.156-.766-.156h-1.719z"/><text font-family="sans-serif" font-size="12" font-style="italic" lengthAdjust="spacingAndGlyphs" textLength="150" x="598.5" y="832.607">AnnotatedBeanDefinition</text><path d="m570.5 844.453h180m-180 8h180" stroke="#a80036" stroke-width="1.5"/><path d="m187 805.953h147v60.805h-147z" fill="#fefece" filter="url(#a)" stroke="#a80036" stroke-width="1.5"/><ellipse cx="202" cy="821.953" fill="#add1b2" rx="11" ry="11" stroke="#a80036"/><path d="m204.344 817.625c-.938-.438-1.531-.578-2.406-.578-2.625 0-4.625 2.078-4.625 4.797v1.125c0 2.578 2.109 4.468 5 4.468 1.218 0 2.375-.296 3.125-.843.578-.407.906-.86.906-1.25a.864.864 0 0 0 -.86-.844.831.831 0 0 0 -.609.266c-.453.484-.453.484-.64.578-.423.265-1.11.39-1.876.39-2.047 0-3.343-1.093-3.343-2.797v-1.093c0-1.782 1.25-3.094 2.984-3.094.578 0 1.188.156 1.656.406.485.282.656.5.75.907.063.406.094.53.235.656.14.14.375.25.593.25a.92.92 0 0 0 .703-.36c.11-.156.141-.343.141-.765v-1.422c0-.438-.016-.563-.11-.719a.838.838 0 0 0 -.734-.406c-.297 0-.5.094-.718.406z"/><text font-family="sans-serif" font-size="12" lengthAdjust="spacingAndGlyphs" textLength="115" x="216" y="826.107">ChildBeanDefinition</text><path d="m188 837.953h145" stroke="#a80036" stroke-width="1.5"/><text font-family="sans-serif" font-size="11" lengthAdjust="spacingAndGlyphs" textLength="111" x="193" y="852.164">String parentName;</text><path d="m188 858.758h145" stroke="#a80036" stroke-width="1.5"/><path d="m369 805.953h165v60.805h-165z" fill="#fefece" filter="url(#a)" stroke="#a80036" stroke-width="1.5"/><ellipse cx="384" cy="821.953" fill="#add1b2" rx="11" ry="11" stroke="#a80036"/><path d="m386.344 817.625c-.938-.438-1.531-.578-2.406-.578-2.625 0-4.625 2.078-4.625 4.797v1.125c0 2.578 2.109 4.468 5 4.468 1.218 0 2.375-.296 3.125-.843.578-.407.906-.86.906-1.25a.864.864 0 0 0 -.86-.844.831.831 0 0 0 -.609.266c-.453.484-.453.484-.64.578-.423.265-1.11.39-1.876.39-2.046 0-3.343-1.093-3.343-2.797v-1.093c0-1.782 1.25-3.094 2.984-3.094.578 0 1.188.156 1.656.406.485.282.656.5.75.907.063.406.094.53.235.656.14.14.375.25.593.25a.92.92 0 0 0 .704-.36c.109-.156.14-.343.14-.765v-1.422c0-.438-.015-.563-.11-.719a.838.838 0 0 0 -.734-.406c-.296 0-.5.094-.718.406z"/><text font-family="sans-serif" font-size="12" lengthAdjust="spacingAndGlyphs" textLength="133" x="398" y="826.107">GenericBeanDefinition</text><path d="m370 837.953h163" stroke="#a80036" stroke-width="1.5"/><path d="m377 845.953h6v6h-6z" fill="none" stroke="#c82930"/><text font-family="sans-serif" font-size="11" lengthAdjust="spacingAndGlyphs" textLength="108" x="389" y="852.164">String parentName</text><path d="m370 858.758h163" stroke="#a80036" stroke-width="1.5"/><path d="m311 933.453h217v60.805h-217z" fill="#fefece" filter="url(#a)" stroke="#a80036" stroke-width="1.5"/><ellipse cx="326" cy="949.453" fill="#add1b2" rx="11" ry="11" stroke="#a80036"/><path d="m328.344 945.125c-.938-.438-1.531-.578-2.406-.578-2.625 0-4.625 2.078-4.625 4.797v1.125c0 2.578 2.109 4.468 5 4.468 1.218 0 2.375-.296 3.125-.843.578-.407.906-.86.906-1.25a.864.864 0 0 0 -.86-.844.831.831 0 0 0 -.609.266c-.453.484-.453.484-.64.578-.423.265-1.11.39-1.876.39-2.046 0-3.343-1.093-3.343-2.797v-1.093c0-1.782 1.25-3.094 2.984-3.094.578 0 1.188.156 1.656.406.485.282.656.5.75.907.063.406.094.53.235.656.14.14.375.25.593.25a.92.92 0 0 0 .704-.36c.109-.156.14-.343.14-.765v-1.422c0-.438-.015-.563-.11-.719a.838.838 0 0 0 -.734-.406c-.296 0-.5.094-.718.406z"/><text font-family="sans-serif" font-size="12" lengthAdjust="spacingAndGlyphs" textLength="185" x="340" y="953.607">ScannedGenericBeanDefinition</text><path d="m312 965.453h215" stroke="#a80036" stroke-width="1.5"/><path d="m319 973.453h6v6h-6z" fill="none" stroke="#c82930"/><text font-family="sans-serif" font-size="11" lengthAdjust="spacingAndGlyphs" textLength="173" x="331" y="979.664">AnnotationMetadata metadata</text><path d="m312 986.258h215" stroke="#a80036" stroke-width="1.5"/><path d="m563 926.953h259v73.609h-259z" fill="#fefece" filter="url(#a)" stroke="#a80036" stroke-width="1.5"/><ellipse cx="592.85" cy="942.953" fill="#add1b2" rx="11" ry="11" stroke="#a80036"/><path d="m595.194 938.625c-.938-.438-1.531-.578-2.406-.578-2.625 0-4.625 2.078-4.625 4.797v1.125c0 2.578 2.109 4.468 5 4.468 1.218 0 2.375-.296 3.125-.843.578-.407.906-.86.906-1.25a.864.864 0 0 0 -.86-.844.831.831 0 0 0 -.609.266c-.453.484-.453.484-.64.578-.423.265-1.11.39-1.876.39-2.046 0-3.343-1.093-3.343-2.797v-1.093c0-1.782 1.25-3.094 2.984-3.094.578 0 1.188.156 1.656.406.485.282.657.5.75.907.063.406.094.53.235.656.14.14.375.25.593.25a.92.92 0 0 0 .704-.36c.109-.156.14-.343.14-.765v-1.422c0-.438-.015-.563-.11-.719a.838.838 0 0 0 -.734-.406c-.296 0-.5.094-.718.406z"/><text font-family="sans-serif" font-size="12" lengthAdjust="spacingAndGlyphs" textLength="194" x="610.15" y="947.107">AnnotatedGenericBeanDefinition</text><path d="m564 958.953h257" stroke="#a80036" stroke-width="1.5"/><path d="m571 966.953h6v6h-6z" fill="none" stroke="#c82930"/><text font-family="sans-serif" font-size="11" lengthAdjust="spacingAndGlyphs" textLength="173" x="583" y="973.164">AnnotationMetadata metadata</text><path d="m571 979.758h6v6h-6z" fill="none" stroke="#c82930"/><text font-family="sans-serif" font-size="11" lengthAdjust="spacingAndGlyphs" textLength="233" x="583" y="985.968">MethodMetadata factoryMethodMetadata</text><g stroke="#a80036"><path d="m564 992.563h257" stroke-width="1.5"/><g fill="none"><path d="m463.936 84.084-117.249 51.728" stroke-dasharray="7 7"/><path d="m461.158 77.66 21.124-1.669-15.473 14.477-5.651-12.809z"/><path d="m279.5 96.062v39.541" stroke-dasharray="7 7"/><path d="m272.5 95.991 7-20 7 20zm35.812 118.429 25.935 42.278m-32.023-38.815-4.491-20.708 16.424 13.387z"/><path d="m455.175 203.335-66.226 53.612" stroke-dasharray="7 7"/><path d="m450.859 197.823 19.949-7.143-11.141 18.025zm122.796-106.649c10.834 13.07 21.17 28.525 26.845 44.78 15.277 43.755-4.852 97.33-19.412 127.315m-12.911-167.717-8.199-19.539 18.594 10.161zm-45.043 112.661 31.932 55.072m-38.122-51.792-3.976-20.813 16.088 13.791zm-173.333 126.391-7.158 39.81m.281-41.115 10.429-18.445 3.35 20.923z"/><path d="m531.828 326.163-55.077 56.637" stroke-dasharray="7 7"/><path d="m526.944 321.144 18.962-9.458-8.925 19.22z"/><path d="m181.174 329.467 25.549 48.348" stroke-dasharray="7 7"/><path d="m174.933 332.64-3.156-20.954 15.534 14.413zm-34.904 429.18c-16.327 19.86-30.789 37.454-41.48 50.46m36.189-55.049 18.108-11.005-7.293 19.895zm441.029-425.569 80.838 480.631m-87.796-479.8 3.585-20.885 10.221 18.561-13.806 2.323zm-297.352 433.527-6.282 39.81m-.627-40.939 10.032-18.665 3.797 20.847zm148.144-.891a862596.84 862596.84 0 0 1 22.719 41.83m-28.978-38.688-3.394-20.916 15.697 14.235zm32.535 119.461-11.939 46.822m5.163-48.58 11.724-17.65 1.842 21.11z"/><path d="m598.41 869.786-122.225 63.649" stroke-dasharray="7 7"/><path d="m595.325 863.501 20.972-3.029-14.506 15.446zm-68.957 12.939 96.806 50.412m-100.36-44.37-14.506-15.446 20.973 3.03z"/><path d="m671.354 880.022 11.921 46.752" stroke-dasharray="7 7"/><path d="m664.528 881.581 1.841-21.109 11.725 17.65-13.566 3.46z"/></g></g><text fill="#888" font-family="sans-serif" font-size="20" lengthAdjust="spacingAndGlyphs" textLength="479" x="172" y="1032.127">''地瓜哥''博客网 · https://www.diguage.com · 出品</text></svg>