<svg xmlns="http://www.w3.org/2000/svg" height="1448" preserveAspectRatio="none" style="width:1020px;height:1448px" width="1020"><defs><filter height="300%" id="a" width="300%" x="-1" y="-1"><feGaussianBlur result="blurOut" stdDeviation="2"/><feColorMatrix in="blurOut" result="blurOut2" values="0 0 0 0 0 0 0 0 0 0 0 0 0 0 0 0 0 0 .4 0"/><feOffset dx="4" dy="4" in="blurOut2" result="blurOut3"/><feBlend in="SourceGraphic" in2="blurOut3"/></filter></defs><text font-family="sans-serif" font-size="18" font-weight="bold" lengthAdjust="spacingAndGlyphs" textLength="214" x="394.25" y="16.708">BeanFactory 继承体系</text><path fill="#FEFECE" filter="url(#a)" stroke="#A80036" stroke-width="1.5" d="M7 1003.953h168v48H7z"/><ellipse cx="22" cy="1019.953" fill="#B4A7E5" rx="11" ry="11" stroke="#A80036"/><path d="M22.953 1016.734h1.719c.39 0 .578-.03.703-.109a.838.838 0 0 0 .406-.734.858.858 0 0 0-.343-.703c-.172-.11-.313-.141-.766-.141h-5.14c-.438 0-.563.015-.72.11a.893.893 0 0 0-.406.734c0 .28.14.53.36.703.156.11.343.14.765.14h1.719v6.516h-1.719c-.437 0-.562.016-.718.125a.872.872 0 0 0-.407.734c0 .25.14.516.36.672.156.125.359.172.765.172h5.14c.75 0 1.11-.281 1.11-.844a.838.838 0 0 0-.343-.703c-.172-.125-.313-.156-.766-.156h-1.719v-6.516z"/><text font-family="sans-serif" font-size="12" font-style="italic" lengthAdjust="spacingAndGlyphs" textLength="136" x="36" y="1024.107">BeanDefinitionRegistry</text><path stroke="#A80036" stroke-width="1.5" d="M8 1035.953h166m-166 8h166"/><path fill="#FEFECE" filter="url(#a)" stroke="#A80036" stroke-width="1.5" d="M107 27.953h108v48H107z"/><ellipse cx="122" cy="43.953" fill="#B4A7E5" rx="11" ry="11" stroke="#A80036"/><path d="M122.953 40.734h1.719c.39 0 .578-.03.703-.109a.838.838 0 0 0 .406-.734.858.858 0 0 0-.344-.703c-.171-.11-.312-.141-.765-.141h-5.14c-.438 0-.563.016-.72.11a.893.893 0 0 0-.406.734c0 .28.14.53.36.703.156.11.343.14.765.14h1.719v6.516h-1.719c-.437 0-.562.016-.719.125a.872.872 0 0 0-.406.734c0 .25.14.516.36.672.156.125.359.172.765.172h5.14c.75 0 1.11-.281 1.11-.844a.838.838 0 0 0-.344-.703c-.171-.125-.312-.156-.765-.156h-1.719v-6.516z"/><text font-family="sans-serif" font-size="12" font-style="italic" lengthAdjust="spacingAndGlyphs" textLength="76" x="136" y="48.107">AliasRegistry</text><path stroke="#A80036" stroke-width="1.5" d="M108 59.953h106m-106 8h106"/><path fill="#FEFECE" filter="url(#a)" stroke="#A80036" stroke-width="1.5" d="M157.5 135.953h193v60.805h-193z"/><ellipse cx="191.85" cy="151.953" fill="#ADD1B2" rx="11" ry="11" stroke="#A80036"/><path d="M194.194 147.625c-.938-.438-1.531-.578-2.406-.578-2.626 0-4.626 2.078-4.626 4.797v1.125c0 2.578 2.11 4.469 5 4.469 1.22 0 2.375-.297 3.125-.844.579-.406.907-.86.907-1.25a.864.864 0 0 0-.86-.844.831.831 0 0 0-.609.266c-.453.484-.453.484-.64.578-.423.265-1.11.39-1.876.39-2.047 0-3.343-1.093-3.343-2.797v-1.093c0-1.781 1.25-3.094 2.984-3.094.578 0 1.188.156 1.656.406.485.281.656.5.75.906.063.407.094.532.235.657.14.14.375.25.593.25a.92.92 0 0 0 .703-.36c.11-.156.141-.343.141-.765v-1.422c0-.438-.016-.563-.11-.719a.838.838 0 0 0-.734-.406c-.297 0-.5.094-.718.406l-.172-.078z"/><text font-family="sans-serif" font-size="12" lengthAdjust="spacingAndGlyphs" textLength="118" x="210.15" y="156.107">SimpleAliasRegistry</text><path stroke="#A80036" stroke-width="1.5" d="M158.5 167.953h191"/><path fill="none" stroke="#C82930" d="M165.5 175.953h6v6h-6z"/><text font-family="sans-serif" font-size="11" lengthAdjust="spacingAndGlyphs" textLength="167" x="177.5" y="182.164">Map&lt;String, String&gt; aliasMap</text><path stroke="#A80036" stroke-width="1.5" d="M158.5 188.758h191"/><path fill="#FEFECE" filter="url(#a)" stroke="#A80036" stroke-width="1.5" d="M122 256.953h334v201.656H122z"/><ellipse cx="196.25" cy="272.953" fill="#ADD1B2" rx="11" ry="11" stroke="#A80036"/><path d="M198.594 268.625c-.938-.438-1.531-.578-2.406-.578-2.625 0-4.625 2.078-4.625 4.797v1.125c0 2.578 2.109 4.469 5 4.469 1.218 0 2.375-.297 3.125-.844.578-.406.906-.86.906-1.25a.864.864 0 0 0-.86-.844.831.831 0 0 0-.609.266c-.453.484-.453.484-.64.578-.423.265-1.11.39-1.876.39-2.047 0-3.343-1.093-3.343-2.796v-1.094c0-1.781 1.25-3.094 2.984-3.094.578 0 1.188.156 1.656.406.485.281.656.5.75.906.063.407.094.532.235.657.14.14.375.25.593.25a.92.92 0 0 0 .703-.36c.11-.156.141-.343.141-.765v-1.422c0-.438-.016-.563-.11-.719a.838.838 0 0 0-.734-.406c-.297 0-.5.094-.718.406l-.172-.078z"/><text font-family="sans-serif" font-size="12" lengthAdjust="spacingAndGlyphs" textLength="177" x="216.75" y="277.107">DefaultSingletonBeanRegistry</text><path stroke="#A80036" stroke-width="1.5" d="M123 288.953h332"/><path fill="none" stroke="#C82930" d="M130 296.953h6v6h-6z"/><text font-family="sans-serif" font-size="11" lengthAdjust="spacingAndGlyphs" textLength="217" x="142" y="303.164">Map&lt;String, Object&gt; singletonObjects</text><path fill="none" stroke="#C82930" d="M130 309.758h6v6h-6z"/><text font-family="sans-serif" font-size="11" lengthAdjust="spacingAndGlyphs" textLength="290" x="142" y="315.968">Map&lt;String, ObjectFactory&lt;?&gt;&gt; singletonFactories</text><path fill="none" stroke="#C82930" d="M130 322.563h6v6h-6z"/><text font-family="sans-serif" font-size="11" lengthAdjust="spacingAndGlyphs" textLength="248" x="142" y="328.773">Map&lt;String, Object&gt; earlySingletonObjects</text><path fill="none" stroke="#C82930" d="M130 335.367h6v6h-6z"/><text font-family="sans-serif" font-size="11" lengthAdjust="spacingAndGlyphs" textLength="194" x="142" y="341.578">Set&lt;String&gt; registeredSingletons</text><path fill="none" stroke="#C82930" d="M130 348.172h6v6h-6z"/><text font-family="sans-serif" font-size="11" lengthAdjust="spacingAndGlyphs" textLength="243" x="142" y="354.382">Set&lt;String&gt; singletonsCurrentlyInCreation</text><path fill="none" stroke="#C82930" d="M130 360.977h6v6h-6z"/><text font-family="sans-serif" font-size="11" lengthAdjust="spacingAndGlyphs" textLength="227" x="142" y="367.187">Set&lt;String&gt; inCreationCheckExclusions</text><path fill="none" stroke="#C82930" d="M130 373.781h6v6h-6z"/><text font-family="sans-serif" font-size="11" lengthAdjust="spacingAndGlyphs" textLength="226" x="142" y="379.992">Set&lt;Exception&gt; suppressedExceptions</text><path fill="none" stroke="#C82930" d="M130 386.586h6v6h-6z"/><text font-family="sans-serif" font-size="11" lengthAdjust="spacingAndGlyphs" textLength="280" x="142" y="392.796">boolean singletonsCurrentlyInDestruction = false</text><path fill="none" stroke="#C82930" d="M130 399.391h6v6h-6z"/><text font-family="sans-serif" font-size="11" lengthAdjust="spacingAndGlyphs" textLength="219" x="142" y="405.601">Map&lt;String, Object&gt; disposableBeans</text><path fill="none" stroke="#C82930" d="M130 412.195h6v6h-6z"/><text font-family="sans-serif" font-size="11" lengthAdjust="spacingAndGlyphs" textLength="265" x="142" y="418.406">Map&lt;String, Set&lt;String&gt;&gt; containedBeanMap</text><path fill="none" stroke="#C82930" d="M130 425h6v6h-6z"/><text font-family="sans-serif" font-size="11" lengthAdjust="spacingAndGlyphs" textLength="272" x="142" y="431.21">Map&lt;String, Set&lt;String&gt;&gt; dependentBeanMap</text><path fill="none" stroke="#C82930" d="M130 437.805h6v6h-6z"/><text font-family="sans-serif" font-size="11" lengthAdjust="spacingAndGlyphs" textLength="308" x="142" y="444.015">Map&lt;String, Set&lt;String&gt;&gt; dependenciesForBeanMap</text><path stroke="#A80036" stroke-width="1.5" d="M123 450.609h332"/><path fill="#FEFECE" filter="url(#a)" stroke="#A80036" stroke-width="1.5" d="M423 142.453h168v48H423z"/><ellipse cx="438" cy="158.453" fill="#B4A7E5" rx="11" ry="11" stroke="#A80036"/><path d="M438.953 155.234h1.719c.39 0 .578-.03.703-.109a.838.838 0 0 0 .406-.734.858.858 0 0 0-.344-.703c-.171-.11-.312-.141-.765-.141h-5.14c-.438 0-.563.016-.72.11a.893.893 0 0 0-.406.734c0 .28.14.53.36.703.156.11.343.14.765.14h1.719v6.516h-1.719c-.437 0-.562.016-.719.125a.872.872 0 0 0-.406.734c0 .25.14.516.36.672.156.125.359.172.765.172h5.14c.75 0 1.11-.281 1.11-.844a.838.838 0 0 0-.344-.703c-.171-.125-.312-.156-.765-.156h-1.719v-6.516z"/><text font-family="sans-serif" font-size="12" font-style="italic" lengthAdjust="spacingAndGlyphs" textLength="136" x="452" y="162.607">SingletonBeanRegistry</text><path stroke="#A80036" stroke-width="1.5" d="M424 174.453h166m-166 8h166"/><path fill="#FEFECE" filter="url(#a)" stroke="#A80036" stroke-width="1.5" d="M133 518.953h290v60.805H133z"/><ellipse cx="187.25" cy="534.953" fill="#A9DCDF" rx="11" ry="11" stroke="#A80036"/><path d="M189.328 536.766l.39.984h-.39c-.453 0-.562.016-.719.125a.872.872 0 0 0-.406.734c0 .266.14.516.36.672.14.125.343.172.765.172h2.36c.359 0 .578-.031.718-.125a.846.846 0 0 0 .406-.719.844.844 0 0 0-.359-.687c-.172-.14-.328-.172-.797-.172l-3.39-8.203h-3.672c-.453 0-.578.015-.735.11a.915.915 0 0 0-.406.734c0 .28.14.53.36.703.171.11.343.14.78.14h1.079l-2.64 6.516c-.423 0-.579.016-.735.125a.872.872 0 0 0-.406.734c0 .563.375.844 1.125.844h2.265c.36 0 .578-.031.703-.125.266-.14.407-.437.407-.719a.88.88 0 0 0-.344-.703c-.172-.125-.313-.156-.766-.156h-.39l.39-.984h4.047zm-.703-1.703h-2.672l1.344-3.266 1.328 3.265z"/><text font-family="sans-serif" font-size="12" font-style="italic" lengthAdjust="spacingAndGlyphs" textLength="173" x="207.75" y="539.107">FactoryBeanRegistrySupport</text><path stroke="#A80036" stroke-width="1.5" d="M134 550.953h288"/><path fill="none" stroke="#C82930" d="M141 558.953h6v6h-6z"/><text font-family="sans-serif" font-size="11" lengthAdjust="spacingAndGlyphs" textLength="264" x="153" y="565.164">Map&lt;String, Object&gt; factoryBeanObjectCache</text><path stroke="#A80036" stroke-width="1.5" d="M134 571.758h288"/><path fill="#FEFECE" filter="url(#a)" stroke="#A80036" stroke-width="1.5" d="M848.5 333.953h153v48h-153z"/><ellipse cx="863.5" cy="349.953" fill="#B4A7E5" rx="11" ry="11" stroke="#A80036"/><path d="M864.453 346.734h1.719c.39 0 .578-.03.703-.109a.838.838 0 0 0 .406-.734.858.858 0 0 0-.343-.704c-.172-.109-.313-.14-.766-.14h-5.14c-.438 0-.563.015-.72.11a.893.893 0 0 0-.406.734c0 .28.14.53.36.703.156.11.343.14.765.14h1.719v6.516h-1.719c-.437 0-.562.016-.718.125a.872.872 0 0 0-.407.734c0 .25.14.516.36.672.156.125.359.172.765.172h5.14c.75 0 1.11-.281 1.11-.844a.838.838 0 0 0-.343-.703c-.172-.125-.313-.156-.766-.156h-1.719v-6.516z"/><text font-family="sans-serif" font-size="12" font-style="italic" lengthAdjust="spacingAndGlyphs" textLength="121" x="877.5" y="354.107">ListableBeanFactory</text><path stroke="#A80036" stroke-width="1.5" d="M849.5 365.953h151m-151 8h151"/><path fill="#FEFECE" filter="url(#a)" stroke="#A80036" stroke-width="1.5" d="M739.5 142.453h107v48h-107z"/><ellipse cx="754.5" cy="158.453" fill="#B4A7E5" rx="11" ry="11" stroke="#A80036"/><path d="M755.453 155.234h1.719c.39 0 .578-.03.703-.109a.838.838 0 0 0 .406-.734.858.858 0 0 0-.343-.703c-.172-.11-.313-.141-.766-.141h-5.14c-.438 0-.563.016-.72.11a.893.893 0 0 0-.406.734c0 .28.14.53.36.703.156.11.343.14.765.14h1.719v6.516h-1.719c-.437 0-.562.016-.718.125a.872.872 0 0 0-.407.734c0 .25.14.516.36.672.156.125.359.172.765.172h5.14c.75 0 1.11-.281 1.11-.844a.838.838 0 0 0-.343-.703c-.172-.125-.313-.156-.766-.156h-1.719v-6.516z"/><text font-family="sans-serif" font-size="12" font-style="italic" lengthAdjust="spacingAndGlyphs" textLength="75" x="768.5" y="162.607">BeanFactory</text><path stroke="#A80036" stroke-width="1.5" d="M740.5 174.453h105m-105 8h105"/><path fill="#FEFECE" filter="url(#a)" stroke="#A80036" stroke-width="1.5" d="M562 333.953h178v48H562z"/><ellipse cx="577" cy="349.953" fill="#B4A7E5" rx="11" ry="11" stroke="#A80036"/><path d="M577.953 346.734h1.719c.39 0 .578-.03.703-.109a.838.838 0 0 0 .406-.734.858.858 0 0 0-.343-.704c-.172-.109-.313-.14-.766-.14h-5.14c-.438 0-.563.015-.72.11a.893.893 0 0 0-.406.734c0 .28.14.53.36.703.156.11.343.14.765.14h1.719v6.516h-1.719c-.437 0-.562.016-.718.125a.872.872 0 0 0-.407.734c0 .25.14.516.36.672.156.125.359.172.765.172h5.14c.75 0 1.11-.281 1.11-.844a.838.838 0 0 0-.343-.703c-.172-.125-.313-.156-.766-.156h-1.719v-6.516z"/><text font-family="sans-serif" font-size="12" font-style="italic" lengthAdjust="spacingAndGlyphs" textLength="146" x="591" y="354.107">HierarchicalBeanFactory</text><path stroke="#A80036" stroke-width="1.5" d="M563 365.953h176m-176 8h176"/><path fill="#FEFECE" filter="url(#a)" stroke="#A80036" stroke-width="1.5" d="M458.5 525.453h183v48h-183z"/><ellipse cx="473.5" cy="541.453" fill="#B4A7E5" rx="11" ry="11" stroke="#A80036"/><path d="M474.453 538.234h1.719c.39 0 .578-.03.703-.109a.838.838 0 0 0 .406-.734.858.858 0 0 0-.344-.703c-.171-.11-.312-.141-.765-.141h-5.14c-.438 0-.563.015-.72.11a.893.893 0 0 0-.406.734c0 .28.14.53.36.703.156.11.343.14.765.14h1.719v6.516h-1.719c-.437 0-.562.016-.719.125a.872.872 0 0 0-.406.734c0 .25.14.516.36.672.156.125.359.172.765.172h5.14c.75 0 1.11-.281 1.11-.844a.838.838 0 0 0-.344-.703c-.171-.125-.312-.156-.765-.156h-1.719v-6.516z"/><text font-family="sans-serif" font-size="12" font-style="italic" lengthAdjust="spacingAndGlyphs" textLength="151" x="487.5" y="545.607">ConfigurableBeanFactory</text><path stroke="#A80036" stroke-width="1.5" d="M459.5 557.453h181m-181 8h181"/><path fill="#FEFECE" filter="url(#a)" stroke="#A80036" stroke-width="1.5" d="M677 525.453h208v48H677z"/><ellipse cx="692" cy="541.453" fill="#B4A7E5" rx="11" ry="11" stroke="#A80036"/><path d="M692.953 538.234h1.719c.39 0 .578-.03.703-.109a.838.838 0 0 0 .406-.734.858.858 0 0 0-.343-.703c-.172-.11-.313-.141-.766-.141h-5.14c-.438 0-.563.015-.72.11a.893.893 0 0 0-.406.734c0 .28.14.53.36.703.156.11.343.14.765.14h1.719v6.516h-1.719c-.437 0-.562.016-.718.125a.872.872 0 0 0-.407.734c0 .25.14.516.36.672.156.125.359.172.765.172h5.14c.75 0 1.11-.281 1.11-.844a.838.838 0 0 0-.343-.703c-.172-.125-.313-.156-.766-.156h-1.719v-6.516z"/><text font-family="sans-serif" font-size="12" font-style="italic" lengthAdjust="spacingAndGlyphs" textLength="176" x="706" y="545.607">AutowireCapableBeanFactory</text><path stroke="#A80036" stroke-width="1.5" d="M678 557.453h206m-206 8h206"/><path fill="#FEFECE" filter="url(#a)" stroke="#A80036" stroke-width="1.5" d="M666.5 735.953h229v48h-229z"/><ellipse cx="681.5" cy="751.953" fill="#B4A7E5" rx="11" ry="11" stroke="#A80036"/><path d="M682.453 748.734h1.719c.39 0 .578-.03.703-.109a.838.838 0 0 0 .406-.734.858.858 0 0 0-.343-.703c-.172-.11-.313-.141-.766-.141h-5.14c-.438 0-.563.015-.72.11a.893.893 0 0 0-.406.734c0 .28.14.53.36.703.156.11.343.14.765.14h1.719v6.516h-1.719c-.437 0-.562.016-.718.125a.872.872 0 0 0-.407.734c0 .25.14.516.36.672.156.125.359.172.765.172h5.14c.75 0 1.11-.281 1.11-.844a.838.838 0 0 0-.343-.703c-.172-.125-.313-.156-.766-.156h-1.719v-6.516z"/><text font-family="sans-serif" font-size="12" font-style="italic" lengthAdjust="spacingAndGlyphs" textLength="197" x="695.5" y="756.107">ConfigurableListableBeanFactory</text><path stroke="#A80036" stroke-width="1.5" d="M667.5 767.953h227m-227 8h227"/><path fill="#FEFECE" filter="url(#a)" stroke="#A80036" stroke-width="1.5" d="M160.5 639.953h399v240.07h-399z"/><ellipse cx="292.75" cy="655.953" fill="#A9DCDF" rx="11" ry="11" stroke="#A80036"/><path d="M294.828 657.766l.39.984h-.39c-.453 0-.562.016-.719.125a.872.872 0 0 0-.406.734c0 .266.14.516.36.672.14.125.343.172.765.172h2.36c.359 0 .578-.031.718-.125a.846.846 0 0 0 .406-.719.844.844 0 0 0-.359-.687c-.172-.14-.328-.172-.797-.172l-3.39-8.203h-3.672c-.453 0-.578.015-.735.11a.915.915 0 0 0-.406.734c0 .28.14.53.36.703.171.11.343.14.78.14h1.079l-2.64 6.516c-.423 0-.579.016-.735.125a.872.872 0 0 0-.406.734c0 .563.375.844 1.125.844h2.265c.36 0 .578-.031.703-.125.266-.14.407-.437.407-.719a.88.88 0 0 0-.344-.703c-.172-.125-.313-.156-.766-.156h-.39l.39-.984h4.047zm-.703-1.703h-2.672l1.344-3.266 1.328 3.265z"/><text font-family="sans-serif" font-size="12" font-style="italic" lengthAdjust="spacingAndGlyphs" textLength="126" x="313.25" y="660.107">AbstractBeanFactory</text><path stroke="#A80036" stroke-width="1.5" d="M161.5 671.953h397"/><path fill="none" stroke="#C82930" d="M168.5 679.953h6v6h-6z"/><text font-family="sans-serif" font-size="11" lengthAdjust="spacingAndGlyphs" textLength="183" x="180.5" y="686.164">BeanFactory parentBeanFactory</text><path fill="none" stroke="#C82930" d="M168.5 692.758h6v6h-6z"/><text font-family="sans-serif" font-size="11" lengthAdjust="spacingAndGlyphs" textLength="171" x="180.5" y="698.968">ClassLoader beanClassLoader</text><path fill="none" stroke="#C82930" d="M168.5 705.563h6v6h-6z"/><text font-family="sans-serif" font-size="11" lengthAdjust="spacingAndGlyphs" textLength="172" x="180.5" y="711.773">ClassLoader tempClassLoader</text><path fill="none" stroke="#C82930" d="M168.5 718.367h6v6h-6z"/><text font-family="sans-serif" font-size="11" lengthAdjust="spacingAndGlyphs" textLength="287" x="180.5" y="724.578">BeanExpressionResolver beanExpressionResolver</text><path fill="none" stroke="#C82930" d="M168.5 731.172h6v6h-6z"/><text font-family="sans-serif" font-size="11" lengthAdjust="spacingAndGlyphs" textLength="218" x="180.5" y="737.382">ConversionService conversionService</text><path fill="none" stroke="#C82930" d="M168.5 743.977h6v6h-6z"/><text font-family="sans-serif" font-size="11" lengthAdjust="spacingAndGlyphs" textLength="307" x="180.5" y="750.187">Set&lt;PropertyEditorRegistrar&gt; propertyEditorRegistrars</text><path fill="none" stroke="#C82930" d="M168.5 756.781h6v6h-6z"/><text font-family="sans-serif" font-size="11" lengthAdjust="spacingAndGlyphs" textLength="373" x="180.5" y="762.992">Map&lt;Class&lt;?&gt;, Class&lt;? extends PropertyEditor&gt;&gt; customEditors</text><path fill="none" stroke="#C82930" d="M168.5 769.586h6v6h-6z"/><text font-family="sans-serif" font-size="11" lengthAdjust="spacingAndGlyphs" textLength="173" x="180.5" y="775.796">TypeConverter typeConverter</text><path fill="none" stroke="#C82930" d="M168.5 782.391h6v6h-6z"/><text font-family="sans-serif" font-size="11" lengthAdjust="spacingAndGlyphs" textLength="309" x="180.5" y="788.601">List&lt;StringValueResolver&gt; embeddedValueResolvers</text><path fill="none" stroke="#C82930" d="M168.5 795.195h6v6h-6z"/><text font-family="sans-serif" font-size="11" lengthAdjust="spacingAndGlyphs" textLength="260" x="180.5" y="801.406">List&lt;BeanPostProcessor&gt; beanPostProcessors</text><path fill="none" stroke="#C82930" d="M168.5 808h6v6h-6z"/><text font-family="sans-serif" font-size="11" lengthAdjust="spacingAndGlyphs" textLength="289" x="180.5" y="814.21">BeanPostProcessorCache beanPostProcessorCache</text><path fill="none" stroke="#C82930" d="M168.5 820.805h6v6h-6z"/><text font-family="sans-serif" font-size="11" lengthAdjust="spacingAndGlyphs" textLength="161" x="180.5" y="827.015">Map&lt;String, Scope&gt; scopes</text><path fill="none" stroke="#C82930" d="M168.5 833.609h6v6h-6z"/><text font-family="sans-serif" font-size="11" lengthAdjust="spacingAndGlyphs" textLength="331" x="180.5" y="839.82">Map&lt;String, RootBeanDefinition&gt; mergedBeanDefinitions</text><path fill="none" stroke="#C82930" d="M168.5 846.414h6v6h-6z"/><text font-family="sans-serif" font-size="11" lengthAdjust="spacingAndGlyphs" textLength="164" x="180.5" y="852.625">Set&lt;String&gt; alreadyCreated</text><path fill="none" stroke="#C82930" d="M168.5 859.219h6v6h-6z"/><text font-family="sans-serif" font-size="11" lengthAdjust="spacingAndGlyphs" textLength="299" x="180.5" y="865.429">ThreadLocal&lt;Object&gt; prototypesCurrentlyInCreation</text><path stroke="#A80036" stroke-width="1.5" d="M161.5 872.023h397"/><path fill="#FEFECE" filter="url(#a)" stroke="#A80036" stroke-width="1.5" d="M221.5 939.953h495V1116h-495z"/><ellipse cx="351.25" cy="955.953" fill="#A9DCDF" rx="11" ry="11" stroke="#A80036"/><path d="M353.328 957.766l.39.984h-.39c-.453 0-.562.016-.719.125a.872.872 0 0 0-.406.734c0 .266.14.516.36.672.14.125.343.172.765.172h2.36c.359 0 .578-.031.718-.125a.846.846 0 0 0 .406-.719.844.844 0 0 0-.359-.687c-.172-.14-.328-.172-.797-.172l-3.39-8.203h-3.672c-.453 0-.578.015-.735.11a.915.915 0 0 0-.406.734c0 .28.14.53.36.703.171.11.343.14.78.14h1.079l-2.64 6.516c-.423 0-.579.016-.735.125a.872.872 0 0 0-.406.734c0 .563.375.844 1.125.844h2.265c.36 0 .578-.031.703-.125.266-.14.407-.437.407-.719a.88.88 0 0 0-.344-.703c-.172-.125-.313-.156-.766-.156h-.39l.39-.984h4.047zm-.703-1.703h-2.672l1.344-3.266 1.328 3.265z"/><text font-family="sans-serif" font-size="12" font-style="italic" lengthAdjust="spacingAndGlyphs" textLength="227" x="371.75" y="960.107">AbstractAutowireCapableBeanFactory</text><path stroke="#A80036" stroke-width="1.5" d="M222.5 971.953h493"/><path fill="none" stroke="#C82930" d="M229.5 979.953h6v6h-6z"/><text font-family="sans-serif" font-size="11" lengthAdjust="spacingAndGlyphs" textLength="240" x="241.5" y="986.164">InstantiationStrategy instantiationStrategy</text><path fill="none" stroke="#C82930" d="M229.5 992.758h6v6h-6z"/><text font-family="sans-serif" font-size="11" lengthAdjust="spacingAndGlyphs" textLength="315" x="241.5" y="998.968">ParameterNameDiscoverer parameterNameDiscoverer</text><path fill="none" stroke="#C82930" d="M229.5 1005.563h6v6h-6z"/><text font-family="sans-serif" font-size="11" lengthAdjust="spacingAndGlyphs" textLength="227" x="241.5" y="1011.773">boolean allowCircularReferences = true</text><path fill="none" stroke="#C82930" d="M229.5 1018.367h6v6h-6z"/><text font-family="sans-serif" font-size="11" lengthAdjust="spacingAndGlyphs" textLength="293" x="241.5" y="1024.578">boolean allowRawInjectionDespiteWrapping = false</text><path fill="none" stroke="#C82930" d="M229.5 1031.172h6v6h-6z"/><text font-family="sans-serif" font-size="11" lengthAdjust="spacingAndGlyphs" textLength="248" x="241.5" y="1037.382">Set&lt;Class&lt;?&gt;&gt; ignoredDependencyTypes</text><path fill="none" stroke="#C82930" d="M229.5 1043.977h6v6h-6z"/><text font-family="sans-serif" font-size="11" lengthAdjust="spacingAndGlyphs" textLength="270" x="241.5" y="1050.187">Set&lt;Class&lt;?&gt;&gt; ignoredDependencyInterfaces</text><path fill="none" stroke="#C82930" d="M229.5 1056.781h6v6h-6z"/><text font-family="sans-serif" font-size="11" lengthAdjust="spacingAndGlyphs" textLength="291" x="241.5" y="1062.992">NamedThreadLocal&lt;String&gt; currentlyCreatedBean</text><path fill="none" stroke="#C82930" d="M229.5 1069.586h6v6h-6z"/><text font-family="sans-serif" font-size="11" lengthAdjust="spacingAndGlyphs" textLength="378" x="241.5" y="1075.796">ConcurrentMap&lt;String, BeanWrapper&gt; factoryBeanInstanceCache</text><path fill="none" stroke="#C82930" d="M229.5 1082.391h6v6h-6z"/><text font-family="sans-serif" font-size="11" lengthAdjust="spacingAndGlyphs" textLength="393" x="241.5" y="1088.601">ConcurrentMap&lt;Class&lt;?&gt;, Method[]&gt; factoryMethodCandidateCache</text><path fill="none" stroke="#C82930" d="M229.5 1095.195h6v6h-6z"/><text font-family="sans-serif" font-size="11" lengthAdjust="spacingAndGlyphs" textLength="469" x="241.5" y="1101.406">ConcurrentMap&lt;Class&lt;?&gt;, PropertyDescriptor[]&gt; filteredPropertyDescriptorsCache</text><path stroke="#A80036" stroke-width="1.5" d="M222.5 1108h493"/><path fill="#FEFECE" filter="url(#a)" stroke="#A80036" stroke-width="1.5" d="M237.5 1175.953h463v227.266h-463z"/><ellipse cx="383.25" cy="1191.953" fill="#ADD1B2" rx="11" ry="11" stroke="#A80036"/><path d="M385.594 1187.625c-.938-.438-1.531-.578-2.406-.578-2.625 0-4.625 2.078-4.625 4.797v1.125c0 2.578 2.109 4.468 5 4.468 1.218 0 2.375-.296 3.125-.843.578-.407.906-.86.906-1.25a.864.864 0 0 0-.86-.844.831.831 0 0 0-.609.266c-.453.484-.453.484-.64.578-.423.265-1.11.39-1.876.39-2.046 0-3.343-1.093-3.343-2.796v-1.094c0-1.782 1.25-3.094 2.984-3.094.578 0 1.188.156 1.656.406.485.282.656.5.75.907.063.406.094.53.235.656.14.14.375.25.593.25a.92.92 0 0 0 .704-.36c.109-.156.14-.343.14-.765v-1.422c0-.438-.015-.563-.11-.719a.838.838 0 0 0-.734-.406c-.296 0-.5.094-.718.406l-.172-.078z"/><text font-family="sans-serif" font-size="12" lengthAdjust="spacingAndGlyphs" textLength="163" x="403.75" y="1196.107">DefaultListableBeanFactory</text><path stroke="#A80036" stroke-width="1.5" d="M238.5 1207.953h461"/><path fill="none" stroke="#C82930" d="M245.5 1215.953h6v6h-6z"/><text font-family="sans-serif" font-size="11" lengthAdjust="spacingAndGlyphs" text-decoration="underline" textLength="437" x="257.5" y="1222.164">Map&lt;String, Reference&lt;DefaultListableBeanFactory&gt;&gt; serializableFactories</text><path fill="none" stroke="#C82930" d="M245.5 1228.758h6v6h-6z"/><text font-family="sans-serif" font-size="11" lengthAdjust="spacingAndGlyphs" textLength="263" x="257.5" y="1234.968">boolean allowBeanDefinitionOverriding = true</text><path fill="none" stroke="#C82930" d="M245.5 1241.563h6v6h-6z"/><text font-family="sans-serif" font-size="11" lengthAdjust="spacingAndGlyphs" textLength="226" x="257.5" y="1247.773">boolean allowEagerClassLoading = true</text><path fill="none" stroke="#C82930" d="M245.5 1254.367h6v6h-6z"/><text font-family="sans-serif" font-size="11" lengthAdjust="spacingAndGlyphs" textLength="263" x="257.5" y="1260.578">Comparator&lt;Object&gt; dependencyComparator</text><path fill="none" stroke="#C82930" d="M245.5 1267.172h6v6h-6z"/><text font-family="sans-serif" font-size="11" lengthAdjust="spacingAndGlyphs" textLength="319" x="257.5" y="1273.382">AutowireCandidateResolver autowireCandidateResolver</text><path fill="none" stroke="#C82930" d="M245.5 1279.977h6v6h-6z"/><text font-family="sans-serif" font-size="11" lengthAdjust="spacingAndGlyphs" textLength="287" x="257.5" y="1286.187">Map&lt;Class&lt;?&gt;, Object&gt; resolvableDependencies</text><path fill="none" stroke="#C82930" d="M245.5 1292.781h6v6h-6z"/><text font-family="sans-serif" font-size="11" lengthAdjust="spacingAndGlyphs" textLength="277" x="257.5" y="1298.992">Map&lt;String, BeanDefinition&gt; beanDefinitionMap</text><path fill="none" stroke="#C82930" d="M245.5 1305.586h6v6h-6z"/><text font-family="sans-serif" font-size="11" lengthAdjust="spacingAndGlyphs" textLength="380" x="257.5" y="1311.796">Map&lt;String, BeanDefinitionHolder&gt; mergedBeanDefinitionHolders</text><path fill="none" stroke="#C82930" d="M245.5 1318.391h6v6h-6z"/><text font-family="sans-serif" font-size="11" lengthAdjust="spacingAndGlyphs" textLength="274" x="257.5" y="1324.601">Map&lt;Class&lt;?&gt;, String[]&gt; allBeanNamesByType</text><path fill="none" stroke="#C82930" d="M245.5 1331.195h6v6h-6z"/><text font-family="sans-serif" font-size="11" lengthAdjust="spacingAndGlyphs" textLength="313" x="257.5" y="1337.406">Map&lt;Class&lt;?&gt;, String[]&gt; singletonBeanNamesByType</text><path fill="none" stroke="#C82930" d="M245.5 1344h6v6h-6z"/><text font-family="sans-serif" font-size="11" lengthAdjust="spacingAndGlyphs" textLength="198" x="257.5" y="1350.21">List&lt;String&gt; beanDefinitionNames</text><path fill="none" stroke="#C82930" d="M245.5 1356.805h6v6h-6z"/><text font-family="sans-serif" font-size="11" lengthAdjust="spacingAndGlyphs" textLength="211" x="257.5" y="1363.015">Set&lt;String&gt; manualSingletonNames</text><path fill="none" stroke="#C82930" d="M245.5 1369.609h6v6h-6z"/><text font-family="sans-serif" font-size="11" lengthAdjust="spacingAndGlyphs" textLength="207" x="257.5" y="1375.82">String[] frozenBeanDefinitionNames</text><path fill="none" stroke="#C82930" d="M245.5 1382.414h6v6h-6z"/><text font-family="sans-serif" font-size="11" lengthAdjust="spacingAndGlyphs" textLength="162" x="257.5" y="1388.624">boolean configurationFrozen</text><path stroke="#A80036" stroke-width="1.5" d="M238.5 1395.219h461"/><path d="M139.972 94.373C112.816 151.793 69 259.533 69 356.953v193.5c0 174.323 14.875 384.138 20.162 453.214m44.577-912.484l15.044-14.92-2.455 21.04-12.589-6.12z" fill="none" stroke="#A80036"/><path d="M193.12 91.803c11.86 14.35 25.105 30.37 36.204 43.8" fill="none" stroke="#A80036" stroke-dasharray="7.0,7.0"/><path fill="none" stroke="#A80036" d="M187.392 95.863l-7.348-19.87 18.139 10.95-10.791 8.92zm75.759 121.14c2.284 12.36 4.816 26.07 7.375 39.93m-14.308-38.93l3.251-20.94 10.516 18.4-13.767 2.54z"/><path d="M464.958 204.003c-17.622 15.31-39.054 33.94-60.814 52.86" fill="none" stroke="#A80036" stroke-dasharray="7.0,7.0"/><path fill="none" stroke="#A80036" d="M460.582 198.523l19.687-7.83-10.502 18.4-9.185-10.57zM282.018 479.241l-2.298 39.576m-4.673-40.282l8.147-19.56 5.829 20.372-13.976-.812zm545.576-271.422c26.729 38.37 66.326 95.21 88.265 126.71m-94.015-122.72l-5.687-20.41 17.175 12.41-11.488 8zm-51.395-4.25c-28.755 38.37-71.491 95.4-95.146 126.97m89.661-131.33l17.595-11.8-6.391 20.2-11.204-8.4zm-128.825 197.42c-20.438 38.348-50.242 94.27-66.84 125.41m60.703-128.78l15.584-14.35-3.229 20.94-12.355-6.59zm-111.149-185.84l35.473 314.311m-42.443-313.64l4.713-20.66 9.199 19.09-13.912 1.57zm286.726-.671l-9.9 314.311m2.903-314.53l7.626-19.77 6.367 20.21-13.993-.44zm141.976 191.819c.31 45.592-3.18 118.752-24.617 177.65-22.643 62.213-71.58 123.727-99.791 155.933m117.404-333.713l6.598-20.14 7.399 19.86-13.997.28zM781 593.608V735.74m-7-142.177l7-20 7 20h-14zm-183.529-6.581L755.282 735.74M585.76 592.16l-10.156-18.597 19.537 8.204-9.381 10.393zm-288.625 6.946l16.042 40.791M290.554 601.5l-.805-21.174 13.834 16.05-13.029 5.124z"/><path d="M515.469 588.346l-46.757 51.31" fill="none" stroke="#A80036" stroke-dasharray="7.0,7.0"/><path fill="none" stroke="#A80036" d="M510.296 583.631l18.645-10.068-8.297 19.497-10.348-9.429zm-93.655 315.546l16.655 40.645m-23.269-38.325l-1.107-21.16 14.061 15.852-12.954 5.308z"/><path d="M713.582 583.766c-23.33 14.441-47.805 33.332-64.582 56.187-65.898 89.773-22.307 140.34-72 240-10.174 20.405-23.169 40.96-36.592 59.967" fill="none" stroke="#A80036" stroke-dasharray="7.0,7.0"/><path fill="none" stroke="#A80036" d="M710.247 577.608l20.807-4.01-13.765 16.11-7.042-12.1zM469 1136.24v39.504m-7-39.659l7-20 7 20h-14z"/><path d="M786.233 804.318c6.319 71.002 9.399 213.916-52.233 311.635-13.984 22.171-31.97 42.073-51.98 59.78" fill="none" stroke="#A80036" stroke-dasharray="7.0,7.0"/><path fill="none" stroke="#A80036" d="M779.26 804.94l4.931-20.609 8.997 19.185-13.928 1.423z"/><path d="M135.56 1064.561c20.552 16.084 45.443 35.093 68.44 51.392 27.992 19.84 58.111 40.274 87.65 59.83" fill="none" stroke="#A80036" stroke-dasharray="7.0,7.0"/><path fill="none" stroke="#A80036" d="M131.163 1070.01l-11.372-17.88 20.04 6.884-8.668 10.995z"/><text fill="#888" font-family="sans-serif" font-size="20" lengthAdjust="spacingAndGlyphs" textLength="479" x="261.75" y="1434.783">&apos;&apos;地瓜哥&apos;&apos;博客网 · https://www.diguage.com · 出品</text></svg>