<svg xmlns="http://www.w3.org/2000/svg" height="1448" preserveAspectRatio="none" style="width:1020px;height:1448px" width="1020"><defs><filter height="300%" id="a" width="300%" x="-1" y="-1"><feGaussianBlur result="blurOut" stdDeviation="2"/><feColorMatrix in="blurOut" result="blurOut2" values="0 0 0 0 0 0 0 0 0 0 0 0 0 0 0 0 0 0 .4 0"/><feOffset dx="4" dy="4" in="blurOut2" result="blurOut3"/><feBlend in="SourceGraphic" in2="blurOut3"/></filter></defs><text font-family="sans-serif" font-size="18" font-weight="bold" lengthAdjust="spacingAndGlyphs" textLength="214" x="394.25" y="16.708">BeanFactory 继承体系</text><path fill="#FEFECE" filter="url(#a)" stroke="#A80036" stroke-width="1.5" d="M7 1003.953H175V1051.953H7z"/><ellipse cx="22" cy="1019.953" fill="#B4A7E5" rx="11" ry="11" stroke="#A80036" stroke-width="1.0"/><path d="M22.953 1016.734h1.719c.39 0 .578-.03.703-.109a.838.838 0 0 0 .406-.734.858.858 0 0 0-.343-.703c-.172-.11-.313-.141-.766-.141h-5.14c-.438 0-.563.015-.72.11a.893.893 0 0 0-.406.734c0 .28.14.53.36.703.156.11.343.14.765.14h1.719v6.516h-1.719c-.437 0-.562.016-.718.125a.872.872 0 0 0-.407.734c0 .25.14.516.36.672.156.125.359.172.765.172h5.14c.75 0 1.11-.281 1.11-.844a.838.838 0 0 0-.343-.703c-.172-.125-.313-.156-.766-.156h-1.719v-6.516z"/><text font-family="sans-serif" font-size="12" font-style="italic" lengthAdjust="spacingAndGlyphs" textLength="136" x="36" y="1024.107">BeanDefinitionRegistry</text><path stroke="#A80036" stroke-width="1.5" d="M8 1035.953L174 1035.953"/><path stroke="#A80036" stroke-width="1.5" d="M8 1043.953L174 1043.953"/><path fill="#FEFECE" filter="url(#a)" stroke="#A80036" stroke-width="1.5" d="M107 27.953H215V75.953H107z"/><ellipse cx="122" cy="43.953" fill="#B4A7E5" rx="11" ry="11" stroke="#A80036" stroke-width="1.0"/><path d="M122.953 40.734h1.719c.39 0 .578-.03.703-.109a.838.838 0 0 0 .406-.734.858.858 0 0 0-.344-.703c-.171-.11-.312-.141-.765-.141h-5.14c-.438 0-.563.016-.72.11a.893.893 0 0 0-.406.734c0 .28.14.53.36.703.156.11.343.14.765.14h1.719v6.516h-1.719c-.437 0-.562.016-.719.125a.872.872 0 0 0-.406.734c0 .25.14.516.36.672.156.125.359.172.765.172h5.14c.75 0 1.11-.281 1.11-.844a.838.838 0 0 0-.344-.703c-.171-.125-.312-.156-.765-.156h-1.719v-6.516z"/><text font-family="sans-serif" font-size="12" font-style="italic" lengthAdjust="spacingAndGlyphs" textLength="76" x="136" y="48.107">AliasRegistry</text><path stroke="#A80036" stroke-width="1.5" d="M108 59.953L214 59.953"/><path stroke="#A80036" stroke-width="1.5" d="M108 67.953L214 67.953"/><path fill="#FEFECE" filter="url(#a)" stroke="#A80036" stroke-width="1.5" d="M157.5 135.953H350.5V196.758H157.5z"/><ellipse cx="191.85" cy="151.953" fill="#ADD1B2" rx="11" ry="11" stroke="#A80036" stroke-width="1.0"/><path d="M194.194 147.625c-.938-.438-1.531-.578-2.406-.578-2.626 0-4.626 2.078-4.626 4.797v1.125c0 2.578 2.11 4.469 5 4.469 1.22 0 2.375-.297 3.125-.844.579-.406.907-.86.907-1.25a.864.864 0 0 0-.86-.844.831.831 0 0 0-.609.266c-.453.484-.453.484-.64.578-.423.265-1.11.39-1.876.39-2.047 0-3.343-1.093-3.343-2.797v-1.093c0-1.781 1.25-3.094 2.984-3.094.578 0 1.188.156 1.656.406.485.281.656.5.75.906.063.407.094.532.235.657.14.14.375.25.593.25a.92.92 0 0 0 .703-.36c.11-.156.141-.343.141-.765v-1.422c0-.438-.016-.563-.11-.719a.838.838 0 0 0-.734-.406c-.297 0-.5.094-.718.406l-.172-.078z"/><text font-family="sans-serif" font-size="12" lengthAdjust="spacingAndGlyphs" textLength="118" x="210.15" y="156.107">SimpleAliasRegistry</text><path stroke="#A80036" stroke-width="1.5" d="M158.5 167.953L349.5 167.953"/><path fill="none" stroke="#C82930" stroke-width="1.0" d="M165.5 175.953H171.5V181.953H165.5z"/><text font-family="sans-serif" font-size="11" lengthAdjust="spacingAndGlyphs" textLength="167" x="177.5" y="182.164">Map&lt;String, String&gt; aliasMap</text><path stroke="#A80036" stroke-width="1.5" d="M158.5 188.758L349.5 188.758"/><path fill="#FEFECE" filter="url(#a)" stroke="#A80036" stroke-width="1.5" d="M122 256.953H456V458.609H122z"/><ellipse cx="196.25" cy="272.953" fill="#ADD1B2" rx="11" ry="11" stroke="#A80036" stroke-width="1.0"/><path d="M198.594 268.625c-.938-.438-1.531-.578-2.406-.578-2.625 0-4.625 2.078-4.625 4.797v1.125c0 2.578 2.109 4.469 5 4.469 1.218 0 2.375-.297 3.125-.844.578-.406.906-.86.906-1.25a.864.864 0 0 0-.86-.844.831.831 0 0 0-.609.266c-.453.484-.453.484-.64.578-.423.265-1.11.39-1.876.39-2.047 0-3.343-1.093-3.343-2.796v-1.094c0-1.781 1.25-3.094 2.984-3.094.578 0 1.188.156 1.656.406.485.281.656.5.75.906.063.407.094.532.235.657.14.14.375.25.593.25a.92.92 0 0 0 .703-.36c.11-.156.141-.343.141-.765v-1.422c0-.438-.016-.563-.11-.719a.838.838 0 0 0-.734-.406c-.297 0-.5.094-.718.406l-.172-.078z"/><text font-family="sans-serif" font-size="12" lengthAdjust="spacingAndGlyphs" textLength="177" x="216.75" y="277.107">DefaultSingletonBeanRegistry</text><path stroke="#A80036" stroke-width="1.5" d="M123 288.953L455 288.953"/><path fill="none" stroke="#C82930" stroke-width="1.0" d="M130 296.953H136V302.953H130z"/><text font-family="sans-serif" font-size="11" lengthAdjust="spacingAndGlyphs" textLength="217" x="142" y="303.164">Map&lt;String, Object&gt; singletonObjects</text><path fill="none" stroke="#C82930" stroke-width="1.0" d="M130 309.758H136V315.758H130z"/><text font-family="sans-serif" font-size="11" lengthAdjust="spacingAndGlyphs" textLength="290" x="142" y="315.968">Map&lt;String, ObjectFactory&lt;?&gt;&gt; singletonFactories</text><path fill="none" stroke="#C82930" stroke-width="1.0" d="M130 322.563H136V328.563H130z"/><text font-family="sans-serif" font-size="11" lengthAdjust="spacingAndGlyphs" textLength="248" x="142" y="328.773">Map&lt;String, Object&gt; earlySingletonObjects</text><path fill="none" stroke="#C82930" stroke-width="1.0" d="M130 335.367H136V341.367H130z"/><text font-family="sans-serif" font-size="11" lengthAdjust="spacingAndGlyphs" textLength="194" x="142" y="341.578">Set&lt;String&gt; registeredSingletons</text><path fill="none" stroke="#C82930" stroke-width="1.0" d="M130 348.172H136V354.172H130z"/><text font-family="sans-serif" font-size="11" lengthAdjust="spacingAndGlyphs" textLength="243" x="142" y="354.382">Set&lt;String&gt; singletonsCurrentlyInCreation</text><path fill="none" stroke="#C82930" stroke-width="1.0" d="M130 360.977H136V366.977H130z"/><text font-family="sans-serif" font-size="11" lengthAdjust="spacingAndGlyphs" textLength="227" x="142" y="367.187">Set&lt;String&gt; inCreationCheckExclusions</text><path fill="none" stroke="#C82930" stroke-width="1.0" d="M130 373.781H136V379.781H130z"/><text font-family="sans-serif" font-size="11" lengthAdjust="spacingAndGlyphs" textLength="226" x="142" y="379.992">Set&lt;Exception&gt; suppressedExceptions</text><path fill="none" stroke="#C82930" stroke-width="1.0" d="M130 386.586H136V392.586H130z"/><text font-family="sans-serif" font-size="11" lengthAdjust="spacingAndGlyphs" textLength="280" x="142" y="392.796">boolean singletonsCurrentlyInDestruction = false</text><path fill="none" stroke="#C82930" stroke-width="1.0" d="M130 399.391H136V405.391H130z"/><text font-family="sans-serif" font-size="11" lengthAdjust="spacingAndGlyphs" textLength="219" x="142" y="405.601">Map&lt;String, Object&gt; disposableBeans</text><path fill="none" stroke="#C82930" stroke-width="1.0" d="M130 412.195H136V418.195H130z"/><text font-family="sans-serif" font-size="11" lengthAdjust="spacingAndGlyphs" textLength="265" x="142" y="418.406">Map&lt;String, Set&lt;String&gt;&gt; containedBeanMap</text><path fill="none" stroke="#C82930" stroke-width="1.0" d="M130 425H136V431H130z"/><text font-family="sans-serif" font-size="11" lengthAdjust="spacingAndGlyphs" textLength="272" x="142" y="431.21">Map&lt;String, Set&lt;String&gt;&gt; dependentBeanMap</text><path fill="none" stroke="#C82930" stroke-width="1.0" d="M130 437.805H136V443.805H130z"/><text font-family="sans-serif" font-size="11" lengthAdjust="spacingAndGlyphs" textLength="308" x="142" y="444.015">Map&lt;String, Set&lt;String&gt;&gt; dependenciesForBeanMap</text><path stroke="#A80036" stroke-width="1.5" d="M123 450.609L455 450.609"/><path fill="#FEFECE" filter="url(#a)" stroke="#A80036" stroke-width="1.5" d="M423 142.453H591V190.453H423z"/><ellipse cx="438" cy="158.453" fill="#B4A7E5" rx="11" ry="11" stroke="#A80036" stroke-width="1.0"/><path d="M438.953 155.234h1.719c.39 0 .578-.03.703-.109a.838.838 0 0 0 .406-.734.858.858 0 0 0-.344-.703c-.171-.11-.312-.141-.765-.141h-5.14c-.438 0-.563.016-.72.11a.893.893 0 0 0-.406.734c0 .28.14.53.36.703.156.11.343.14.765.14h1.719v6.516h-1.719c-.437 0-.562.016-.719.125a.872.872 0 0 0-.406.734c0 .25.14.516.36.672.156.125.359.172.765.172h5.14c.75 0 1.11-.281 1.11-.844a.838.838 0 0 0-.344-.703c-.171-.125-.312-.156-.765-.156h-1.719v-6.516z"/><text font-family="sans-serif" font-size="12" font-style="italic" lengthAdjust="spacingAndGlyphs" textLength="136" x="452" y="162.607">SingletonBeanRegistry</text><path stroke="#A80036" stroke-width="1.5" d="M424 174.453L590 174.453"/><path stroke="#A80036" stroke-width="1.5" d="M424 182.453L590 182.453"/><path fill="#FEFECE" filter="url(#a)" stroke="#A80036" stroke-width="1.5" d="M133 518.953H423V579.7579999999999H133z"/><ellipse cx="187.25" cy="534.953" fill="#A9DCDF" rx="11" ry="11" stroke="#A80036" stroke-width="1.0"/><path d="M189.328 536.766l.39.984h-.39c-.453 0-.562.016-.719.125a.872.872 0 0 0-.406.734c0 .266.14.516.36.672.14.125.343.172.765.172h2.36c.359 0 .578-.031.718-.125a.846.846 0 0 0 .406-.719.844.844 0 0 0-.359-.687c-.172-.14-.328-.172-.797-.172l-3.39-8.203h-3.672c-.453 0-.578.015-.735.11a.915.915 0 0 0-.406.734c0 .28.14.53.36.703.171.11.343.14.78.14h1.079l-2.64 6.516c-.423 0-.579.016-.735.125a.872.872 0 0 0-.406.734c0 .563.375.844 1.125.844h2.265c.36 0 .578-.031.703-.125.266-.14.407-.437.407-.719a.88.88 0 0 0-.344-.703c-.172-.125-.313-.156-.766-.156h-.39l.39-.984h4.047zm-.703-1.703h-2.672l1.344-3.266 1.328 3.265z"/><text font-family="sans-serif" font-size="12" font-style="italic" lengthAdjust="spacingAndGlyphs" textLength="173" x="207.75" y="539.107">FactoryBeanRegistrySupport</text><path stroke="#A80036" stroke-width="1.5" d="M134 550.953L422 550.953"/><path fill="none" stroke="#C82930" stroke-width="1.0" d="M141 558.953H147V564.953H141z"/><text font-family="sans-serif" font-size="11" lengthAdjust="spacingAndGlyphs" textLength="264" x="153" y="565.164">Map&lt;String, Object&gt; factoryBeanObjectCache</text><path stroke="#A80036" stroke-width="1.5" d="M134 571.758L422 571.758"/><path fill="#FEFECE" filter="url(#a)" stroke="#A80036" stroke-width="1.5" d="M848.5 333.953H1001.5V381.953H848.5z"/><ellipse cx="863.5" cy="349.953" fill="#B4A7E5" rx="11" ry="11" stroke="#A80036" stroke-width="1.0"/><path d="M864.453 346.734h1.719c.39 0 .578-.03.703-.109a.838.838 0 0 0 .406-.734.858.858 0 0 0-.343-.704c-.172-.109-.313-.14-.766-.14h-5.14c-.438 0-.563.015-.72.11a.893.893 0 0 0-.406.734c0 .28.14.53.36.703.156.11.343.14.765.14h1.719v6.516h-1.719c-.437 0-.562.016-.718.125a.872.872 0 0 0-.407.734c0 .25.14.516.36.672.156.125.359.172.765.172h5.14c.75 0 1.11-.281 1.11-.844a.838.838 0 0 0-.343-.703c-.172-.125-.313-.156-.766-.156h-1.719v-6.516z"/><text font-family="sans-serif" font-size="12" font-style="italic" lengthAdjust="spacingAndGlyphs" textLength="121" x="877.5" y="354.107">ListableBeanFactory</text><path stroke="#A80036" stroke-width="1.5" d="M849.5 365.953L1000.5 365.953"/><path stroke="#A80036" stroke-width="1.5" d="M849.5 373.953L1000.5 373.953"/><path fill="#FEFECE" filter="url(#a)" stroke="#A80036" stroke-width="1.5" d="M739.5 142.453H846.5V190.453H739.5z"/><ellipse cx="754.5" cy="158.453" fill="#B4A7E5" rx="11" ry="11" stroke="#A80036" stroke-width="1.0"/><path d="M755.453 155.234h1.719c.39 0 .578-.03.703-.109a.838.838 0 0 0 .406-.734.858.858 0 0 0-.343-.703c-.172-.11-.313-.141-.766-.141h-5.14c-.438 0-.563.016-.72.11a.893.893 0 0 0-.406.734c0 .28.14.53.36.703.156.11.343.14.765.14h1.719v6.516h-1.719c-.437 0-.562.016-.718.125a.872.872 0 0 0-.407.734c0 .25.14.516.36.672.156.125.359.172.765.172h5.14c.75 0 1.11-.281 1.11-.844a.838.838 0 0 0-.343-.703c-.172-.125-.313-.156-.766-.156h-1.719v-6.516z"/><text font-family="sans-serif" font-size="12" font-style="italic" lengthAdjust="spacingAndGlyphs" textLength="75" x="768.5" y="162.607">BeanFactory</text><path stroke="#A80036" stroke-width="1.5" d="M740.5 174.453L845.5 174.453"/><path stroke="#A80036" stroke-width="1.5" d="M740.5 182.453L845.5 182.453"/><path fill="#FEFECE" filter="url(#a)" stroke="#A80036" stroke-width="1.5" d="M562 333.953H740V381.953H562z"/><ellipse cx="577" cy="349.953" fill="#B4A7E5" rx="11" ry="11" stroke="#A80036" stroke-width="1.0"/><path d="M577.953 346.734h1.719c.39 0 .578-.03.703-.109a.838.838 0 0 0 .406-.734.858.858 0 0 0-.343-.704c-.172-.109-.313-.14-.766-.14h-5.14c-.438 0-.563.015-.72.11a.893.893 0 0 0-.406.734c0 .28.14.53.36.703.156.11.343.14.765.14h1.719v6.516h-1.719c-.437 0-.562.016-.718.125a.872.872 0 0 0-.407.734c0 .25.14.516.36.672.156.125.359.172.765.172h5.14c.75 0 1.11-.281 1.11-.844a.838.838 0 0 0-.343-.703c-.172-.125-.313-.156-.766-.156h-1.719v-6.516z"/><text font-family="sans-serif" font-size="12" font-style="italic" lengthAdjust="spacingAndGlyphs" textLength="146" x="591" y="354.107">HierarchicalBeanFactory</text><path stroke="#A80036" stroke-width="1.5" d="M563 365.953L739 365.953"/><path stroke="#A80036" stroke-width="1.5" d="M563 373.953L739 373.953"/><path fill="#FEFECE" filter="url(#a)" stroke="#A80036" stroke-width="1.5" d="M458.5 525.453H641.5V573.453H458.5z"/><ellipse cx="473.5" cy="541.453" fill="#B4A7E5" rx="11" ry="11" stroke="#A80036" stroke-width="1.0"/><path d="M474.453 538.234h1.719c.39 0 .578-.03.703-.109a.838.838 0 0 0 .406-.734.858.858 0 0 0-.344-.703c-.171-.11-.312-.141-.765-.141h-5.14c-.438 0-.563.015-.72.11a.893.893 0 0 0-.406.734c0 .28.14.53.36.703.156.11.343.14.765.14h1.719v6.516h-1.719c-.437 0-.562.016-.719.125a.872.872 0 0 0-.406.734c0 .25.14.516.36.672.156.125.359.172.765.172h5.14c.75 0 1.11-.281 1.11-.844a.838.838 0 0 0-.344-.703c-.171-.125-.312-.156-.765-.156h-1.719v-6.516z"/><text font-family="sans-serif" font-size="12" font-style="italic" lengthAdjust="spacingAndGlyphs" textLength="151" x="487.5" y="545.607">ConfigurableBeanFactory</text><path stroke="#A80036" stroke-width="1.5" d="M459.5 557.453L640.5 557.453"/><path stroke="#A80036" stroke-width="1.5" d="M459.5 565.453L640.5 565.453"/><path fill="#FEFECE" filter="url(#a)" stroke="#A80036" stroke-width="1.5" d="M677 525.453H885V573.453H677z"/><ellipse cx="692" cy="541.453" fill="#B4A7E5" rx="11" ry="11" stroke="#A80036" stroke-width="1.0"/><path d="M692.953 538.234h1.719c.39 0 .578-.03.703-.109a.838.838 0 0 0 .406-.734.858.858 0 0 0-.343-.703c-.172-.11-.313-.141-.766-.141h-5.14c-.438 0-.563.015-.72.11a.893.893 0 0 0-.406.734c0 .28.14.53.36.703.156.11.343.14.765.14h1.719v6.516h-1.719c-.437 0-.562.016-.718.125a.872.872 0 0 0-.407.734c0 .25.14.516.36.672.156.125.359.172.765.172h5.14c.75 0 1.11-.281 1.11-.844a.838.838 0 0 0-.343-.703c-.172-.125-.313-.156-.766-.156h-1.719v-6.516z"/><text font-family="sans-serif" font-size="12" font-style="italic" lengthAdjust="spacingAndGlyphs" textLength="176" x="706" y="545.607">AutowireCapableBeanFactory</text><path stroke="#A80036" stroke-width="1.5" d="M678 557.453L884 557.453"/><path stroke="#A80036" stroke-width="1.5" d="M678 565.453L884 565.453"/><path fill="#FEFECE" filter="url(#a)" stroke="#A80036" stroke-width="1.5" d="M666.5 735.953H895.5V783.953H666.5z"/><ellipse cx="681.5" cy="751.953" fill="#B4A7E5" rx="11" ry="11" stroke="#A80036" stroke-width="1.0"/><path d="M682.453 748.734h1.719c.39 0 .578-.03.703-.109a.838.838 0 0 0 .406-.734.858.858 0 0 0-.343-.703c-.172-.11-.313-.141-.766-.141h-5.14c-.438 0-.563.015-.72.11a.893.893 0 0 0-.406.734c0 .28.14.53.36.703.156.11.343.14.765.14h1.719v6.516h-1.719c-.437 0-.562.016-.718.125a.872.872 0 0 0-.407.734c0 .25.14.516.36.672.156.125.359.172.765.172h5.14c.75 0 1.11-.281 1.11-.844a.838.838 0 0 0-.343-.703c-.172-.125-.313-.156-.766-.156h-1.719v-6.516z"/><text font-family="sans-serif" font-size="12" font-style="italic" lengthAdjust="spacingAndGlyphs" textLength="197" x="695.5" y="756.107">ConfigurableListableBeanFactory</text><path stroke="#A80036" stroke-width="1.5" d="M667.5 767.953L894.5 767.953"/><path stroke="#A80036" stroke-width="1.5" d="M667.5 775.953L894.5 775.953"/><path fill="#FEFECE" filter="url(#a)" stroke="#A80036" stroke-width="1.5" d="M160.5 639.953H559.5V880.0229999999999H160.5z"/><ellipse cx="292.75" cy="655.953" fill="#A9DCDF" rx="11" ry="11" stroke="#A80036" stroke-width="1.0"/><path d="M294.828 657.766l.39.984h-.39c-.453 0-.562.016-.719.125a.872.872 0 0 0-.406.734c0 .266.14.516.36.672.14.125.343.172.765.172h2.36c.359 0 .578-.031.718-.125a.846.846 0 0 0 .406-.719.844.844 0 0 0-.359-.687c-.172-.14-.328-.172-.797-.172l-3.39-8.203h-3.672c-.453 0-.578.015-.735.11a.915.915 0 0 0-.406.734c0 .28.14.53.36.703.171.11.343.14.78.14h1.079l-2.64 6.516c-.423 0-.579.016-.735.125a.872.872 0 0 0-.406.734c0 .563.375.844 1.125.844h2.265c.36 0 .578-.031.703-.125.266-.14.407-.437.407-.719a.88.88 0 0 0-.344-.703c-.172-.125-.313-.156-.766-.156h-.39l.39-.984h4.047zm-.703-1.703h-2.672l1.344-3.266 1.328 3.265z"/><text font-family="sans-serif" font-size="12" font-style="italic" lengthAdjust="spacingAndGlyphs" textLength="126" x="313.25" y="660.107">AbstractBeanFactory</text><path stroke="#A80036" stroke-width="1.5" d="M161.5 671.953L558.5 671.953"/><path fill="none" stroke="#C82930" stroke-width="1.0" d="M168.5 679.953H174.5V685.953H168.5z"/><text font-family="sans-serif" font-size="11" lengthAdjust="spacingAndGlyphs" textLength="183" x="180.5" y="686.164">BeanFactory parentBeanFactory</text><path fill="none" stroke="#C82930" stroke-width="1.0" d="M168.5 692.758H174.5V698.758H168.5z"/><text font-family="sans-serif" font-size="11" lengthAdjust="spacingAndGlyphs" textLength="171" x="180.5" y="698.968">ClassLoader beanClassLoader</text><path fill="none" stroke="#C82930" stroke-width="1.0" d="M168.5 705.563H174.5V711.563H168.5z"/><text font-family="sans-serif" font-size="11" lengthAdjust="spacingAndGlyphs" textLength="172" x="180.5" y="711.773">ClassLoader tempClassLoader</text><path fill="none" stroke="#C82930" stroke-width="1.0" d="M168.5 718.367H174.5V724.367H168.5z"/><text font-family="sans-serif" font-size="11" lengthAdjust="spacingAndGlyphs" textLength="287" x="180.5" y="724.578">BeanExpressionResolver beanExpressionResolver</text><path fill="none" stroke="#C82930" stroke-width="1.0" d="M168.5 731.172H174.5V737.172H168.5z"/><text font-family="sans-serif" font-size="11" lengthAdjust="spacingAndGlyphs" textLength="218" x="180.5" y="737.382">ConversionService conversionService</text><path fill="none" stroke="#C82930" stroke-width="1.0" d="M168.5 743.977H174.5V749.977H168.5z"/><text font-family="sans-serif" font-size="11" lengthAdjust="spacingAndGlyphs" textLength="307" x="180.5" y="750.187">Set&lt;PropertyEditorRegistrar&gt; propertyEditorRegistrars</text><path fill="none" stroke="#C82930" stroke-width="1.0" d="M168.5 756.781H174.5V762.781H168.5z"/><text font-family="sans-serif" font-size="11" lengthAdjust="spacingAndGlyphs" textLength="373" x="180.5" y="762.992">Map&lt;Class&lt;?&gt;, Class&lt;? extends PropertyEditor&gt;&gt; customEditors</text><path fill="none" stroke="#C82930" stroke-width="1.0" d="M168.5 769.586H174.5V775.586H168.5z"/><text font-family="sans-serif" font-size="11" lengthAdjust="spacingAndGlyphs" textLength="173" x="180.5" y="775.796">TypeConverter typeConverter</text><path fill="none" stroke="#C82930" stroke-width="1.0" d="M168.5 782.391H174.5V788.391H168.5z"/><text font-family="sans-serif" font-size="11" lengthAdjust="spacingAndGlyphs" textLength="309" x="180.5" y="788.601">List&lt;StringValueResolver&gt; embeddedValueResolvers</text><path fill="none" stroke="#C82930" stroke-width="1.0" d="M168.5 795.195H174.5V801.195H168.5z"/><text font-family="sans-serif" font-size="11" lengthAdjust="spacingAndGlyphs" textLength="260" x="180.5" y="801.406">List&lt;BeanPostProcessor&gt; beanPostProcessors</text><path fill="none" stroke="#C82930" stroke-width="1.0" d="M168.5 808H174.5V814H168.5z"/><text font-family="sans-serif" font-size="11" lengthAdjust="spacingAndGlyphs" textLength="289" x="180.5" y="814.21">BeanPostProcessorCache beanPostProcessorCache</text><path fill="none" stroke="#C82930" stroke-width="1.0" d="M168.5 820.805H174.5V826.805H168.5z"/><text font-family="sans-serif" font-size="11" lengthAdjust="spacingAndGlyphs" textLength="161" x="180.5" y="827.015">Map&lt;String, Scope&gt; scopes</text><path fill="none" stroke="#C82930" stroke-width="1.0" d="M168.5 833.609H174.5V839.609H168.5z"/><text font-family="sans-serif" font-size="11" lengthAdjust="spacingAndGlyphs" textLength="331" x="180.5" y="839.82">Map&lt;String, RootBeanDefinition&gt; mergedBeanDefinitions</text><path fill="none" stroke="#C82930" stroke-width="1.0" d="M168.5 846.414H174.5V852.414H168.5z"/><text font-family="sans-serif" font-size="11" lengthAdjust="spacingAndGlyphs" textLength="164" x="180.5" y="852.625">Set&lt;String&gt; alreadyCreated</text><path fill="none" stroke="#C82930" stroke-width="1.0" d="M168.5 859.219H174.5V865.219H168.5z"/><text font-family="sans-serif" font-size="11" lengthAdjust="spacingAndGlyphs" textLength="299" x="180.5" y="865.429">ThreadLocal&lt;Object&gt; prototypesCurrentlyInCreation</text><path stroke="#A80036" stroke-width="1.5" d="M161.5 872.023L558.5 872.023"/><path fill="#FEFECE" filter="url(#a)" stroke="#A80036" stroke-width="1.5" d="M221.5 939.953H716.5V1116H221.5z"/><ellipse cx="351.25" cy="955.953" fill="#A9DCDF" rx="11" ry="11" stroke="#A80036" stroke-width="1.0"/><path d="M353.328 957.766l.39.984h-.39c-.453 0-.562.016-.719.125a.872.872 0 0 0-.406.734c0 .266.14.516.36.672.14.125.343.172.765.172h2.36c.359 0 .578-.031.718-.125a.846.846 0 0 0 .406-.719.844.844 0 0 0-.359-.687c-.172-.14-.328-.172-.797-.172l-3.39-8.203h-3.672c-.453 0-.578.015-.735.11a.915.915 0 0 0-.406.734c0 .28.14.53.36.703.171.11.343.14.78.14h1.079l-2.64 6.516c-.423 0-.579.016-.735.125a.872.872 0 0 0-.406.734c0 .563.375.844 1.125.844h2.265c.36 0 .578-.031.703-.125.266-.14.407-.437.407-.719a.88.88 0 0 0-.344-.703c-.172-.125-.313-.156-.766-.156h-.39l.39-.984h4.047zm-.703-1.703h-2.672l1.344-3.266 1.328 3.265z"/><text font-family="sans-serif" font-size="12" font-style="italic" lengthAdjust="spacingAndGlyphs" textLength="227" x="371.75" y="960.107">AbstractAutowireCapableBeanFactory</text><path stroke="#A80036" stroke-width="1.5" d="M222.5 971.953L715.5 971.953"/><path fill="none" stroke="#C82930" stroke-width="1.0" d="M229.5 979.953H235.5V985.953H229.5z"/><text font-family="sans-serif" font-size="11" lengthAdjust="spacingAndGlyphs" textLength="240" x="241.5" y="986.164">InstantiationStrategy instantiationStrategy</text><path fill="none" stroke="#C82930" stroke-width="1.0" d="M229.5 992.758H235.5V998.758H229.5z"/><text font-family="sans-serif" font-size="11" lengthAdjust="spacingAndGlyphs" textLength="315" x="241.5" y="998.968">ParameterNameDiscoverer parameterNameDiscoverer</text><path fill="none" stroke="#C82930" stroke-width="1.0" d="M229.5 1005.563H235.5V1011.563H229.5z"/><text font-family="sans-serif" font-size="11" lengthAdjust="spacingAndGlyphs" textLength="227" x="241.5" y="1011.773">boolean allowCircularReferences = true</text><path fill="none" stroke="#C82930" stroke-width="1.0" d="M229.5 1018.367H235.5V1024.367H229.5z"/><text font-family="sans-serif" font-size="11" lengthAdjust="spacingAndGlyphs" textLength="293" x="241.5" y="1024.578">boolean allowRawInjectionDespiteWrapping = false</text><path fill="none" stroke="#C82930" stroke-width="1.0" d="M229.5 1031.172H235.5V1037.172H229.5z"/><text font-family="sans-serif" font-size="11" lengthAdjust="spacingAndGlyphs" textLength="248" x="241.5" y="1037.382">Set&lt;Class&lt;?&gt;&gt; ignoredDependencyTypes</text><path fill="none" stroke="#C82930" stroke-width="1.0" d="M229.5 1043.977H235.5V1049.977H229.5z"/><text font-family="sans-serif" font-size="11" lengthAdjust="spacingAndGlyphs" textLength="270" x="241.5" y="1050.187">Set&lt;Class&lt;?&gt;&gt; ignoredDependencyInterfaces</text><path fill="none" stroke="#C82930" stroke-width="1.0" d="M229.5 1056.781H235.5V1062.781H229.5z"/><text font-family="sans-serif" font-size="11" lengthAdjust="spacingAndGlyphs" textLength="291" x="241.5" y="1062.992">NamedThreadLocal&lt;String&gt; currentlyCreatedBean</text><path fill="none" stroke="#C82930" stroke-width="1.0" d="M229.5 1069.586H235.5V1075.586H229.5z"/><text font-family="sans-serif" font-size="11" lengthAdjust="spacingAndGlyphs" textLength="378" x="241.5" y="1075.796">ConcurrentMap&lt;String, BeanWrapper&gt; factoryBeanInstanceCache</text><path fill="none" stroke="#C82930" stroke-width="1.0" d="M229.5 1082.391H235.5V1088.391H229.5z"/><text font-family="sans-serif" font-size="11" lengthAdjust="spacingAndGlyphs" textLength="393" x="241.5" y="1088.601">ConcurrentMap&lt;Class&lt;?&gt;, Method[]&gt; factoryMethodCandidateCache</text><path fill="none" stroke="#C82930" stroke-width="1.0" d="M229.5 1095.195H235.5V1101.195H229.5z"/><text font-family="sans-serif" font-size="11" lengthAdjust="spacingAndGlyphs" textLength="469" x="241.5" y="1101.406">ConcurrentMap&lt;Class&lt;?&gt;, PropertyDescriptor[]&gt; filteredPropertyDescriptorsCache</text><path stroke="#A80036" stroke-width="1.5" d="M222.5 1108L715.5 1108"/><path fill="#FEFECE" filter="url(#a)" stroke="#A80036" stroke-width="1.5" d="M237.5 1175.953H700.5V1403.219H237.5z"/><ellipse cx="383.25" cy="1191.953" fill="#ADD1B2" rx="11" ry="11" stroke="#A80036" stroke-width="1.0"/><path d="M385.594 1187.625c-.938-.438-1.531-.578-2.406-.578-2.625 0-4.625 2.078-4.625 4.797v1.125c0 2.578 2.109 4.468 5 4.468 1.218 0 2.375-.296 3.125-.843.578-.407.906-.86.906-1.25a.864.864 0 0 0-.86-.844.831.831 0 0 0-.609.266c-.453.484-.453.484-.64.578-.423.265-1.11.39-1.876.39-2.046 0-3.343-1.093-3.343-2.796v-1.094c0-1.782 1.25-3.094 2.984-3.094.578 0 1.188.156 1.656.406.485.282.656.5.75.907.063.406.094.53.235.656.14.14.375.25.593.25a.92.92 0 0 0 .704-.36c.109-.156.14-.343.14-.765v-1.422c0-.438-.015-.563-.11-.719a.838.838 0 0 0-.734-.406c-.296 0-.5.094-.718.406l-.172-.078z"/><text font-family="sans-serif" font-size="12" lengthAdjust="spacingAndGlyphs" textLength="163" x="403.75" y="1196.107">DefaultListableBeanFactory</text><path stroke="#A80036" stroke-width="1.5" d="M238.5 1207.953L699.5 1207.953"/><path fill="none" stroke="#C82930" stroke-width="1.0" d="M245.5 1215.953H251.5V1221.953H245.5z"/><text font-family="sans-serif" font-size="11" lengthAdjust="spacingAndGlyphs" text-decoration="underline" textLength="437" x="257.5" y="1222.164">Map&lt;String, Reference&lt;DefaultListableBeanFactory&gt;&gt; serializableFactories</text><path fill="none" stroke="#C82930" stroke-width="1.0" d="M245.5 1228.758H251.5V1234.758H245.5z"/><text font-family="sans-serif" font-size="11" lengthAdjust="spacingAndGlyphs" textLength="263" x="257.5" y="1234.968">boolean allowBeanDefinitionOverriding = true</text><path fill="none" stroke="#C82930" stroke-width="1.0" d="M245.5 1241.563H251.5V1247.563H245.5z"/><text font-family="sans-serif" font-size="11" lengthAdjust="spacingAndGlyphs" textLength="226" x="257.5" y="1247.773">boolean allowEagerClassLoading = true</text><path fill="none" stroke="#C82930" stroke-width="1.0" d="M245.5 1254.367H251.5V1260.367H245.5z"/><text font-family="sans-serif" font-size="11" lengthAdjust="spacingAndGlyphs" textLength="263" x="257.5" y="1260.578">Comparator&lt;Object&gt; dependencyComparator</text><path fill="none" stroke="#C82930" stroke-width="1.0" d="M245.5 1267.172H251.5V1273.172H245.5z"/><text font-family="sans-serif" font-size="11" lengthAdjust="spacingAndGlyphs" textLength="319" x="257.5" y="1273.382">AutowireCandidateResolver autowireCandidateResolver</text><path fill="none" stroke="#C82930" stroke-width="1.0" d="M245.5 1279.977H251.5V1285.977H245.5z"/><text font-family="sans-serif" font-size="11" lengthAdjust="spacingAndGlyphs" textLength="287" x="257.5" y="1286.187">Map&lt;Class&lt;?&gt;, Object&gt; resolvableDependencies</text><path fill="none" stroke="#C82930" stroke-width="1.0" d="M245.5 1292.781H251.5V1298.781H245.5z"/><text font-family="sans-serif" font-size="11" lengthAdjust="spacingAndGlyphs" textLength="277" x="257.5" y="1298.992">Map&lt;String, BeanDefinition&gt; beanDefinitionMap</text><path fill="none" stroke="#C82930" stroke-width="1.0" d="M245.5 1305.586H251.5V1311.586H245.5z"/><text font-family="sans-serif" font-size="11" lengthAdjust="spacingAndGlyphs" textLength="380" x="257.5" y="1311.796">Map&lt;String, BeanDefinitionHolder&gt; mergedBeanDefinitionHolders</text><path fill="none" stroke="#C82930" stroke-width="1.0" d="M245.5 1318.391H251.5V1324.391H245.5z"/><text font-family="sans-serif" font-size="11" lengthAdjust="spacingAndGlyphs" textLength="274" x="257.5" y="1324.601">Map&lt;Class&lt;?&gt;, String[]&gt; allBeanNamesByType</text><path fill="none" stroke="#C82930" stroke-width="1.0" d="M245.5 1331.195H251.5V1337.195H245.5z"/><text font-family="sans-serif" font-size="11" lengthAdjust="spacingAndGlyphs" textLength="313" x="257.5" y="1337.406">Map&lt;Class&lt;?&gt;, String[]&gt; singletonBeanNamesByType</text><path fill="none" stroke="#C82930" stroke-width="1.0" d="M245.5 1344H251.5V1350H245.5z"/><text font-family="sans-serif" font-size="11" lengthAdjust="spacingAndGlyphs" textLength="198" x="257.5" y="1350.21">List&lt;String&gt; beanDefinitionNames</text><path fill="none" stroke="#C82930" stroke-width="1.0" d="M245.5 1356.805H251.5V1362.805H245.5z"/><text font-family="sans-serif" font-size="11" lengthAdjust="spacingAndGlyphs" textLength="211" x="257.5" y="1363.015">Set&lt;String&gt; manualSingletonNames</text><path fill="none" stroke="#C82930" stroke-width="1.0" d="M245.5 1369.609H251.5V1375.609H245.5z"/><text font-family="sans-serif" font-size="11" lengthAdjust="spacingAndGlyphs" textLength="207" x="257.5" y="1375.82">String[] frozenBeanDefinitionNames</text><path fill="none" stroke="#C82930" stroke-width="1.0" d="M245.5 1382.414H251.5V1388.414H245.5z"/><text font-family="sans-serif" font-size="11" lengthAdjust="spacingAndGlyphs" textLength="162" x="257.5" y="1388.624">boolean configurationFrozen</text><path stroke="#A80036" stroke-width="1.5" d="M238.5 1395.219L699.5 1395.219"/><path d="M139.972 94.373C112.816 151.793 69 259.533 69 356.953v193.5c0 174.323 14.875 384.138 20.162 453.214" fill="none" stroke="#A80036" stroke-width="1.0"/><path fill="none" stroke="#A80036" stroke-width="1.0" d="M133.739 91.1831L148.783 76.2631 146.328 97.3031 133.739 91.1831z"/><path d="M193.12 91.803c11.86 14.35 25.105 30.37 36.204 43.8" fill="none" stroke="#A80036" stroke-width="1.0" stroke-dasharray="7.0,7.0"/><path fill="none" stroke="#A80036" stroke-width="1.0" d="M187.392 95.8631L180.044 75.9931 198.183 86.9431 187.392 95.8631z"/><path d="M263.151 217.003c2.284 12.36 4.816 26.07 7.375 39.93" fill="none" stroke="#A80036" stroke-width="1.0"/><path fill="none" stroke="#A80036" stroke-width="1.0" d="M256.218 218.0031L259.469 197.0631 269.985 215.4631 256.218 218.0031z"/><path d="M464.958 204.003c-17.622 15.31-39.054 33.94-60.814 52.86" fill="none" stroke="#A80036" stroke-width="1.0" stroke-dasharray="7.0,7.0"/><path fill="none" stroke="#A80036" stroke-width="1.0" d="M460.582 198.5231L480.269 190.6931 469.767 209.0931 460.582 198.5231z"/><path d="M282.018 479.241l-2.298 39.576" fill="none" stroke="#A80036" stroke-width="1.0"/><path fill="none" stroke="#A80036" stroke-width="1.0" d="M275.047 478.5351L283.194 458.9751 289.023 479.3471 275.047 478.5351z"/><path d="M820.623 207.113c26.729 38.37 66.326 95.21 88.265 126.71" fill="none" stroke="#A80036" stroke-width="1.0"/><path fill="none" stroke="#A80036" stroke-width="1.0" d="M814.873 211.1031L809.186 190.6931 826.361 203.1031 814.873 211.1031z"/><path d="M763.478 206.853c-28.755 38.37-71.491 95.4-95.146 126.97" fill="none" stroke="#A80036" stroke-width="1.0"/><path fill="none" stroke="#A80036" stroke-width="1.0" d="M757.993 202.4931L775.588 190.6931 769.197 210.8931 757.993 202.4931z"/><path d="M629.168 399.913c-20.438 38.348-50.242 94.27-66.84 125.41" fill="none" stroke="#A80036" stroke-width="1.0"/><path fill="none" stroke="#A80036" stroke-width="1.0" d="M623.031 396.5431L638.615 382.1931 635.386 403.1321 623.031 396.5431z"/><path d="M511.882 210.703l35.473 314.311" fill="none" stroke="#A80036" stroke-width="1.0"/><path fill="none" stroke="#A80036" stroke-width="1.0" d="M504.912 211.3731L509.625 190.7131 518.824 209.8031 504.912 211.3731z"/><path d="M791.638 210.703l-9.9 314.311" fill="none" stroke="#A80036" stroke-width="1.0"/><path fill="none" stroke="#A80036" stroke-width="1.0" d="M784.641 210.4831L792.267 190.7131 798.634 210.9231 784.641 210.4831z"/><path d="M926.617 402.303c.31 45.592-3.18 118.752-24.617 177.65-22.643 62.213-71.58 123.727-99.791 155.933" fill="none" stroke="#A80036" stroke-width="1.0"/><path fill="none" stroke="#A80036" stroke-width="1.0" d="M919.613 402.1731L926.211 382.0331 933.61 401.8931 919.613 402.1731z"/><path d="M781 593.608V735.74" fill="none" stroke="#A80036" stroke-width="1.0"/><path fill="none" stroke="#A80036" stroke-width="1.0" d="M774 593.5631L781 573.5631 788 593.5631 774 593.5631z"/><path d="M590.471 586.982L755.282 735.74" fill="none" stroke="#A80036" stroke-width="1.0"/><path fill="none" stroke="#A80036" stroke-width="1.0" d="M585.76 592.1601L575.604 573.5631 595.141 581.7671 585.76 592.1601z"/><path d="M297.135 599.106l16.042 40.791" fill="none" stroke="#A80036" stroke-width="1.0"/><path fill="none" stroke="#A80036" stroke-width="1.0" d="M290.554 601.5001L289.749 580.3261 303.583 596.3761 290.554 601.5001z"/><path d="M515.469 588.346l-46.757 51.31" fill="none" stroke="#A80036" stroke-width="1.0" stroke-dasharray="7.0,7.0"/><path fill="none" stroke="#A80036" stroke-width="1.0" d="M510.296 583.6311L528.941 573.5631 520.644 593.0601 510.296 583.6311z"/><path d="M416.641 899.177l16.655 40.645" fill="none" stroke="#A80036" stroke-width="1.0"/><path fill="none" stroke="#A80036" stroke-width="1.0" d="M410.027 901.4971L408.92 880.3371 422.981 896.1891 410.027 901.4971z"/><path d="M713.582 583.766c-23.33 14.441-47.805 33.332-64.582 56.187-65.898 89.773-22.307 140.34-72 240-10.174 20.405-23.169 40.96-36.592 59.967" fill="none" stroke="#A80036" stroke-width="1.0" stroke-dasharray="7.0,7.0"/><path fill="none" stroke="#A80036" stroke-width="1.0" d="M710.247 577.6081L731.054 573.5981 717.289 589.7081 710.247 577.6081z"/><path d="M469 1136.24v39.504" fill="none" stroke="#A80036" stroke-width="1.0"/><path fill="none" stroke="#A80036" stroke-width="1.0" d="M462 1136.0851L469 1116.0851 476 1136.0851 462 1136.0851z"/><path d="M786.233 804.318c6.319 71.002 9.399 213.916-52.233 311.635-13.984 22.171-31.97 42.073-51.98 59.78" fill="none" stroke="#A80036" stroke-width="1.0" stroke-dasharray="7.0,7.0"/><path fill="none" stroke="#A80036" stroke-width="1.0" d="M779.26 804.9391L784.191 784.3311 793.188 803.5161 779.26 804.9391z"/><path d="M135.56 1064.561c20.552 16.084 45.443 35.093 68.44 51.392 27.992 19.84 58.111 40.274 87.65 59.83" fill="none" stroke="#A80036" stroke-width="1.0" stroke-dasharray="7.0,7.0"/><path fill="none" stroke="#A80036" stroke-width="1.0" d="M131.163 1070.0091L119.791 1052.1291 139.831 1059.0141 131.163 1070.0091z"/><text fill="#888" font-family="sans-serif" font-size="20" lengthAdjust="spacingAndGlyphs" textLength="479" x="261.75" y="1434.783">&apos;&apos;地瓜哥&apos;&apos;博客网 · https://www.diguage.com · 出品</text></svg>