<?xml version="1.0" encoding="UTF-8" standalone="no"?><svg xmlns="http://www.w3.org/2000/svg" xmlns:xlink="http://www.w3.org/1999/xlink" contentScriptType="application/ecmascript" contentStyleType="text/css" height="1098px" preserveAspectRatio="none" style="width:841px;height:1098px;" version="1.1" viewBox="0 0 841 1098" width="841px" zoomAndPan="magnify"><defs><filter height="300%" id="fu072pi1w621s" width="300%" x="-1" y="-1"><feGaussianBlur result="blurOut" stdDeviation="2.0"/><feColorMatrix in="blurOut" result="blurOut2" type="matrix" values="0 0 0 0 0 0 0 0 0 0 0 0 0 0 0 0 0 0 .4 0"/><feOffset dx="4.0" dy="4.0" in="blurOut2" result="blurOut3"/><feBlend in="SourceGraphic" in2="blurOut3" mode="normal"/></filter></defs><g><text fill="#000000" font-family="sans-serif" font-size="18" font-weight="bold" lengthAdjust="spacingAndGlyphs" textLength="238" x="292.5" y="16.708">BeanDefinition 继承体系</text><!--MD5=[37c1ed42077e47f26a8c7c9c4986b655]
class AttributeAccessorSupport--><rect fill="#FEFECE" filter="url(#fu072pi1w621s)" height="60.8047" id="AttributeAccessorSupport" style="stroke: #A80036; stroke-width: 1.5;" width="202" x="178.5" y="135.9531"/><ellipse cx="199.8" cy="151.9531" fill="#A9DCDF" rx="11" ry="11" style="stroke: #A80036; stroke-width: 1.0;"/><path d="M201.8781,153.7656 L202.2688,154.75 L201.8781,154.75 C201.425,154.75 201.3156,154.7656 201.1594,154.875 C200.9094,155.0313 200.7531,155.3125 200.7531,155.6094 C200.7531,155.875 200.8938,156.125 201.1125,156.2813 C201.2531,156.4063 201.4563,156.4531 201.8781,156.4531 L204.2375,156.4531 C204.5969,156.4531 204.8156,156.4219 204.9563,156.3281 C205.2063,156.1875 205.3625,155.8906 205.3625,155.6094 C205.3625,155.3281 205.2219,155.0781 205.0031,154.9219 C204.8313,154.7813 204.675,154.75 204.2063,154.75 L200.8156,146.5469 L197.1438,146.5469 C196.6906,146.5469 196.5656,146.5625 196.4094,146.6563 C196.1594,146.8281 196.0031,147.1094 196.0031,147.3906 C196.0031,147.6719 196.1438,147.9219 196.3625,148.0938 C196.5344,148.2031 196.7063,148.2344 197.1438,148.2344 L198.2219,148.2344 L195.5813,154.75 C195.1594,154.75 195.0031,154.7656 194.8469,154.875 C194.5969,155.0313 194.4406,155.3125 194.4406,155.6094 C194.4406,156.1719 194.8156,156.4531 195.5656,156.4531 L197.8313,156.4531 C198.1906,156.4531 198.4094,156.4219 198.5344,156.3281 C198.8,156.1875 198.9406,155.8906 198.9406,155.6094 C198.9406,155.3281 198.8156,155.0781 198.5969,154.9063 C198.425,154.7813 198.2844,154.75 197.8313,154.75 L197.4406,154.75 L197.8313,153.7656 L201.8781,153.7656 Z M201.175,152.0625 L198.5031,152.0625 L199.8469,148.7969 L201.175,152.0625 Z "/><text fill="#000000" font-family="sans-serif" font-size="12" font-style="italic" lengthAdjust="spacingAndGlyphs" textLength="156" x="215.2" y="156.1074">AttributeAccessorSupport</text><line style="stroke: #A80036; stroke-width: 1.5;" x1="179.5" x2="379.5" y1="167.9531" y2="167.9531"/><rect fill="none" height="6" style="stroke: #C82930; stroke-width: 1.0;" width="6" x="186.5" y="175.9531"/><text fill="#000000" font-family="sans-serif" font-size="11" lengthAdjust="spacingAndGlyphs" textLength="176" x="198.5" y="182.1636">Map&lt;String, Object&gt; attributes</text><line style="stroke: #A80036; stroke-width: 1.5;" x1="179.5" x2="379.5" y1="188.7578" y2="188.7578"/><!--MD5=[2d36a0997a4d99e5643e4034feeadd84]
class AttributeAccessor--><rect fill="#FEFECE" filter="url(#fu072pi1w621s)" height="48" id="AttributeAccessor" style="stroke: #A80036; stroke-width: 1.5;" width="139" x="465" y="27.9531"/><ellipse cx="480" cy="43.9531" fill="#B4A7E5" rx="11" ry="11" style="stroke: #A80036; stroke-width: 1.0;"/><path d="M480.9531,40.7344 L482.6719,40.7344 C483.0625,40.7344 483.25,40.7031 483.375,40.625 C483.6406,40.4688 483.7813,40.1875 483.7813,39.8906 C483.7813,39.625 483.6719,39.3594 483.4375,39.1875 C483.2656,39.0781 483.125,39.0469 482.6719,39.0469 L477.5313,39.0469 C477.0938,39.0469 476.9688,39.0625 476.8125,39.1563 C476.5625,39.3125 476.4063,39.6094 476.4063,39.8906 C476.4063,40.1719 476.5469,40.4219 476.7656,40.5938 C476.9219,40.7031 477.1094,40.7344 477.5313,40.7344 L479.25,40.7344 L479.25,47.25 L477.5313,47.25 C477.0938,47.25 476.9688,47.2656 476.8125,47.375 C476.5625,47.5313 476.4063,47.8125 476.4063,48.1094 C476.4063,48.3594 476.5469,48.625 476.7656,48.7813 C476.9219,48.9063 477.125,48.9531 477.5313,48.9531 L482.6719,48.9531 C483.4219,48.9531 483.7813,48.6719 483.7813,48.1094 C483.7813,47.8281 483.6719,47.5781 483.4375,47.4063 C483.2656,47.2813 483.125,47.25 482.6719,47.25 L480.9531,47.25 L480.9531,40.7344 Z "/><text fill="#000000" font-family="sans-serif" font-size="12" font-style="italic" lengthAdjust="spacingAndGlyphs" textLength="107" x="494" y="48.1074">AttributeAccessor</text><line style="stroke: #A80036; stroke-width: 1.5;" x1="466" x2="603" y1="59.9531" y2="59.9531"/><line style="stroke: #A80036; stroke-width: 1.5;" x1="466" x2="603" y1="67.9531" y2="67.9531"/><!--MD5=[cc3de0a176daa3c4ec875deafdf5ddd1]
class Serializable--><rect fill="#FEFECE" filter="url(#fu072pi1w621s)" height="48" id="Serializable" style="stroke: #A80036; stroke-width: 1.5;" width="99" x="230" y="27.9531"/><ellipse cx="245" cy="43.9531" fill="#B4A7E5" rx="11" ry="11" style="stroke: #A80036; stroke-width: 1.0;"/><path d="M245.9531,40.7344 L247.6719,40.7344 C248.0625,40.7344 248.25,40.7031 248.375,40.625 C248.6406,40.4688 248.7813,40.1875 248.7813,39.8906 C248.7813,39.625 248.6719,39.3594 248.4375,39.1875 C248.2656,39.0781 248.125,39.0469 247.6719,39.0469 L242.5313,39.0469 C242.0938,39.0469 241.9688,39.0625 241.8125,39.1563 C241.5625,39.3125 241.4063,39.6094 241.4063,39.8906 C241.4063,40.1719 241.5469,40.4219 241.7656,40.5938 C241.9219,40.7031 242.1094,40.7344 242.5313,40.7344 L244.25,40.7344 L244.25,47.25 L242.5313,47.25 C242.0938,47.25 241.9688,47.2656 241.8125,47.375 C241.5625,47.5313 241.4063,47.8125 241.4063,48.1094 C241.4063,48.3594 241.5469,48.625 241.7656,48.7813 C241.9219,48.9063 242.125,48.9531 242.5313,48.9531 L247.6719,48.9531 C248.4219,48.9531 248.7813,48.6719 248.7813,48.1094 C248.7813,47.8281 248.6719,47.5781 248.4375,47.4063 C248.2656,47.2813 248.125,47.25 247.6719,47.25 L245.9531,47.25 L245.9531,40.7344 Z "/><text fill="#000000" font-family="sans-serif" font-size="12" font-style="italic" lengthAdjust="spacingAndGlyphs" textLength="67" x="259" y="48.1074">Serializable</text><line style="stroke: #A80036; stroke-width: 1.5;" x1="231" x2="328" y1="59.9531" y2="59.9531"/><line style="stroke: #A80036; stroke-width: 1.5;" x1="231" x2="328" y1="67.9531" y2="67.9531"/><!--MD5=[eeec45dc8b9bf5577cbf919307f1dba2]
class BeanMetadataAttributeAccessor--><rect fill="#FEFECE" filter="url(#fu072pi1w621s)" height="60.8047" id="BeanMetadataAttributeAccessor" style="stroke: #A80036; stroke-width: 1.5;" width="225" x="240" y="256.9531"/><ellipse cx="255" cy="272.9531" fill="#ADD1B2" rx="11" ry="11" style="stroke: #A80036; stroke-width: 1.0;"/><path d="M257.3438,268.625 C256.4063,268.1875 255.8125,268.0469 254.9375,268.0469 C252.3125,268.0469 250.3125,270.125 250.3125,272.8438 L250.3125,273.9688 C250.3125,276.5469 252.4219,278.4375 255.3125,278.4375 C256.5313,278.4375 257.6875,278.1406 258.4375,277.5938 C259.0156,277.1875 259.3438,276.7344 259.3438,276.3438 C259.3438,275.8906 258.9531,275.5 258.4844,275.5 C258.2656,275.5 258.0625,275.5781 257.875,275.7656 C257.4219,276.25 257.4219,276.25 257.2344,276.3438 C256.8125,276.6094 256.125,276.7344 255.3594,276.7344 C253.3125,276.7344 252.0156,275.6406 252.0156,273.9375 L252.0156,272.8438 C252.0156,271.0625 253.2656,269.75 255,269.75 C255.5781,269.75 256.1875,269.9063 256.6563,270.1563 C257.1406,270.4375 257.3125,270.6563 257.4063,271.0625 C257.4688,271.4688 257.5,271.5938 257.6406,271.7188 C257.7813,271.8594 258.0156,271.9688 258.2344,271.9688 C258.5,271.9688 258.7656,271.8281 258.9375,271.6094 C259.0469,271.4531 259.0781,271.2656 259.0781,270.8438 L259.0781,269.4219 C259.0781,268.9844 259.0625,268.8594 258.9688,268.7031 C258.8125,268.4375 258.5313,268.2969 258.2344,268.2969 C257.9375,268.2969 257.7344,268.3906 257.5156,268.7031 L257.3438,268.625 Z "/><text fill="#000000" font-family="sans-serif" font-size="12" lengthAdjust="spacingAndGlyphs" textLength="193" x="269" y="277.1074">BeanMetadataAttributeAccessor</text><line style="stroke: #A80036; stroke-width: 1.5;" x1="241" x2="464" y1="288.9531" y2="288.9531"/><rect fill="none" height="6" style="stroke: #C82930; stroke-width: 1.0;" width="6" x="248" y="296.9531"/><text fill="#000000" font-family="sans-serif" font-size="11" lengthAdjust="spacingAndGlyphs" textLength="79" x="260" y="303.1636">Object source</text><line style="stroke: #A80036; stroke-width: 1.5;" x1="241" x2="464" y1="309.7578" y2="309.7578"/><!--MD5=[9e4c92ac8cf94caf66cbe8584962a7f3]
class BeanMetadataElement--><rect fill="#FEFECE" filter="url(#fu072pi1w621s)" height="48" id="BeanMetadataElement" style="stroke: #A80036; stroke-width: 1.5;" width="168" x="415.5" y="142.4531"/><ellipse cx="430.5" cy="158.4531" fill="#B4A7E5" rx="11" ry="11" style="stroke: #A80036; stroke-width: 1.0;"/><path d="M431.4531,155.2344 L433.1719,155.2344 C433.5625,155.2344 433.75,155.2031 433.875,155.125 C434.1406,154.9688 434.2813,154.6875 434.2813,154.3906 C434.2813,154.125 434.1719,153.8594 433.9375,153.6875 C433.7656,153.5781 433.625,153.5469 433.1719,153.5469 L428.0313,153.5469 C427.5938,153.5469 427.4688,153.5625 427.3125,153.6563 C427.0625,153.8125 426.9063,154.1094 426.9063,154.3906 C426.9063,154.6719 427.0469,154.9219 427.2656,155.0938 C427.4219,155.2031 427.6094,155.2344 428.0313,155.2344 L429.75,155.2344 L429.75,161.75 L428.0313,161.75 C427.5938,161.75 427.4688,161.7656 427.3125,161.875 C427.0625,162.0313 426.9063,162.3125 426.9063,162.6094 C426.9063,162.8594 427.0469,163.125 427.2656,163.2813 C427.4219,163.4063 427.625,163.4531 428.0313,163.4531 L433.1719,163.4531 C433.9219,163.4531 434.2813,163.1719 434.2813,162.6094 C434.2813,162.3281 434.1719,162.0781 433.9375,161.9063 C433.7656,161.7813 433.625,161.75 433.1719,161.75 L431.4531,161.75 L431.4531,155.2344 Z "/><text fill="#000000" font-family="sans-serif" font-size="12" font-style="italic" lengthAdjust="spacingAndGlyphs" textLength="136" x="444.5" y="162.6074">BeanMetadataElement</text><line style="stroke: #A80036; stroke-width: 1.5;" x1="416.5" x2="582.5" y1="174.4531" y2="174.4531"/><line style="stroke: #A80036; stroke-width: 1.5;" x1="416.5" x2="582.5" y1="182.4531" y2="182.4531"/><!--MD5=[2804aa30e0ec44b1d29372bbe88aa636]
class BeanDefinition--><rect fill="#FEFECE" filter="url(#fu072pi1w621s)" height="48" id="BeanDefinition" style="stroke: #A80036; stroke-width: 1.5;" width="119" x="509" y="263.4531"/><ellipse cx="524" cy="279.4531" fill="#B4A7E5" rx="11" ry="11" style="stroke: #A80036; stroke-width: 1.0;"/><path d="M524.9531,276.2344 L526.6719,276.2344 C527.0625,276.2344 527.25,276.2031 527.375,276.125 C527.6406,275.9688 527.7813,275.6875 527.7813,275.3906 C527.7813,275.125 527.6719,274.8594 527.4375,274.6875 C527.2656,274.5781 527.125,274.5469 526.6719,274.5469 L521.5313,274.5469 C521.0938,274.5469 520.9688,274.5625 520.8125,274.6563 C520.5625,274.8125 520.4063,275.1094 520.4063,275.3906 C520.4063,275.6719 520.5469,275.9219 520.7656,276.0938 C520.9219,276.2031 521.1094,276.2344 521.5313,276.2344 L523.25,276.2344 L523.25,282.75 L521.5313,282.75 C521.0938,282.75 520.9688,282.7656 520.8125,282.875 C520.5625,283.0313 520.4063,283.3125 520.4063,283.6094 C520.4063,283.8594 520.5469,284.125 520.7656,284.2813 C520.9219,284.4063 521.125,284.4531 521.5313,284.4531 L526.6719,284.4531 C527.4219,284.4531 527.7813,284.1719 527.7813,283.6094 C527.7813,283.3281 527.6719,283.0781 527.4375,282.9063 C527.2656,282.7813 527.125,282.75 526.6719,282.75 L524.9531,282.75 L524.9531,276.2344 Z "/><text fill="#000000" font-family="sans-serif" font-size="12" font-style="italic" lengthAdjust="spacingAndGlyphs" textLength="87" x="538" y="283.6074">BeanDefinition</text><line style="stroke: #A80036; stroke-width: 1.5;" x1="510" x2="627" y1="295.4531" y2="295.4531"/><line style="stroke: #A80036; stroke-width: 1.5;" x1="510" x2="627" y1="303.4531" y2="303.4531"/><!--MD5=[6e920cb8bda14f4780f09d63cdb4406d]
class AbstractBeanDefinition--><rect fill="#FEFECE" filter="url(#fu072pi1w621s)" height="368.1172" id="AbstractBeanDefinition" style="stroke: #A80036; stroke-width: 1.5;" width="346" x="130.5" y="377.9531"/><ellipse cx="230.25" cy="393.9531" fill="#A9DCDF" rx="11" ry="11" style="stroke: #A80036; stroke-width: 1.0;"/><path d="M232.3281,395.7656 L232.7188,396.75 L232.3281,396.75 C231.875,396.75 231.7656,396.7656 231.6094,396.875 C231.3594,397.0313 231.2031,397.3125 231.2031,397.6094 C231.2031,397.875 231.3438,398.125 231.5625,398.2813 C231.7031,398.4063 231.9063,398.4531 232.3281,398.4531 L234.6875,398.4531 C235.0469,398.4531 235.2656,398.4219 235.4063,398.3281 C235.6563,398.1875 235.8125,397.8906 235.8125,397.6094 C235.8125,397.3281 235.6719,397.0781 235.4531,396.9219 C235.2813,396.7813 235.125,396.75 234.6563,396.75 L231.2656,388.5469 L227.5938,388.5469 C227.1406,388.5469 227.0156,388.5625 226.8594,388.6563 C226.6094,388.8281 226.4531,389.1094 226.4531,389.3906 C226.4531,389.6719 226.5938,389.9219 226.8125,390.0938 C226.9844,390.2031 227.1563,390.2344 227.5938,390.2344 L228.6719,390.2344 L226.0313,396.75 C225.6094,396.75 225.4531,396.7656 225.2969,396.875 C225.0469,397.0313 224.8906,397.3125 224.8906,397.6094 C224.8906,398.1719 225.2656,398.4531 226.0156,398.4531 L228.2813,398.4531 C228.6406,398.4531 228.8594,398.4219 228.9844,398.3281 C229.25,398.1875 229.3906,397.8906 229.3906,397.6094 C229.3906,397.3281 229.2656,397.0781 229.0469,396.9063 C228.875,396.7813 228.7344,396.75 228.2813,396.75 L227.8906,396.75 L228.2813,395.7656 L232.3281,395.7656 Z M231.625,394.0625 L228.9531,394.0625 L230.2969,390.7969 L231.625,394.0625 Z "/><text fill="#000000" font-family="sans-serif" font-size="12" font-style="italic" lengthAdjust="spacingAndGlyphs" textLength="138" x="250.75" y="398.1074">AbstractBeanDefinition</text><line style="stroke: #A80036; stroke-width: 1.5;" x1="131.5" x2="475.5" y1="409.9531" y2="409.9531"/><rect fill="none" height="6" style="stroke: #C82930; stroke-width: 1.0;" width="6" x="138.5" y="417.9531"/><text fill="#000000" font-family="sans-serif" font-size="11" lengthAdjust="spacingAndGlyphs" textLength="100" x="150.5" y="424.1636">Object beanClass</text><rect fill="none" height="6" style="stroke: #C82930; stroke-width: 1.0;" width="6" x="138.5" y="430.7578"/><text fill="#000000" font-family="sans-serif" font-size="11" lengthAdjust="spacingAndGlyphs" textLength="118" x="150.5" y="436.9683">boolean abstractFlag</text><rect fill="none" height="6" style="stroke: #C82930; stroke-width: 1.0;" width="6" x="138.5" y="443.5625"/><text fill="#000000" font-family="sans-serif" font-size="11" lengthAdjust="spacingAndGlyphs" textLength="92" x="150.5" y="449.7729">Boolean lazyInit</text><rect fill="none" height="6" style="stroke: #C82930; stroke-width: 1.0;" width="6" x="138.5" y="456.3672"/><text fill="#000000" font-family="sans-serif" font-size="11" lengthAdjust="spacingAndGlyphs" textLength="198" x="150.5" y="462.5776">int autowireMode = AUTOWIRE_NO</text><rect fill="none" height="6" style="stroke: #C82930; stroke-width: 1.0;" width="6" x="138.5" y="469.1719"/><text fill="#000000" font-family="sans-serif" font-size="11" lengthAdjust="spacingAndGlyphs" textLength="300" x="150.5" y="475.3823">int dependencyCheck = DEPENDENCY_CHECK_NONE</text><rect fill="none" height="6" style="stroke: #C82930; stroke-width: 1.0;" width="6" x="138.5" y="481.9766"/><text fill="#000000" font-family="sans-serif" font-size="11" lengthAdjust="spacingAndGlyphs" textLength="111" x="150.5" y="488.187">String[] dependsOn</text><rect fill="none" height="6" style="stroke: #C82930; stroke-width: 1.0;" width="6" x="138.5" y="494.7813"/><text fill="#000000" font-family="sans-serif" font-size="11" lengthAdjust="spacingAndGlyphs" textLength="197" x="150.5" y="500.9917">boolean autowireCandidate = true</text><rect fill="none" height="6" style="stroke: #C82930; stroke-width: 1.0;" width="6" x="138.5" y="507.5859"/><text fill="#000000" font-family="sans-serif" font-size="11" lengthAdjust="spacingAndGlyphs" textLength="138" x="150.5" y="513.7964">boolean primary = false</text><rect fill="none" height="6" style="stroke: #C82930; stroke-width: 1.0;" width="6" x="138.5" y="520.3906"/><text fill="#000000" font-family="sans-serif" font-size="11" lengthAdjust="spacingAndGlyphs" textLength="293" x="150.5" y="526.6011">Map&lt;String, AutowireCandidateQualifier&gt; qualifiers</text><rect fill="none" height="6" style="stroke: #C82930; stroke-width: 1.0;" width="6" x="138.5" y="533.1953"/><text fill="#000000" font-family="sans-serif" font-size="11" lengthAdjust="spacingAndGlyphs" textLength="170" x="150.5" y="539.4058">Supplier&lt;?&gt; instanceSupplier</text><rect fill="none" height="6" style="stroke: #C82930; stroke-width: 1.0;" width="6" x="138.5" y="546"/><text fill="#000000" font-family="sans-serif" font-size="11" lengthAdjust="spacingAndGlyphs" textLength="228" x="150.5" y="552.2104">boolean nonPublicAccessAllowed = true</text><rect fill="none" height="6" style="stroke: #C82930; stroke-width: 1.0;" width="6" x="138.5" y="558.8047"/><text fill="#000000" font-family="sans-serif" font-size="11" lengthAdjust="spacingAndGlyphs" textLength="253" x="150.5" y="565.0151">boolean lenientConstructorResolution = true</text><rect fill="none" height="6" style="stroke: #C82930; stroke-width: 1.0;" width="6" x="138.5" y="571.6094"/><text fill="#000000" font-family="sans-serif" font-size="11" lengthAdjust="spacingAndGlyphs" textLength="140" x="150.5" y="577.8198">String factoryBeanName</text><rect fill="none" height="6" style="stroke: #C82930; stroke-width: 1.0;" width="6" x="138.5" y="584.4141"/><text fill="#000000" font-family="sans-serif" font-size="11" lengthAdjust="spacingAndGlyphs" textLength="152" x="150.5" y="590.6245">String factoryMethodName</text><rect fill="none" height="6" style="stroke: #C82930; stroke-width: 1.0;" width="6" x="138.5" y="597.2188"/><text fill="#000000" font-family="sans-serif" font-size="11" lengthAdjust="spacingAndGlyphs" textLength="320" x="150.5" y="603.4292">ConstructorArgumentValues constructorArgumentValues</text><rect fill="none" height="6" style="stroke: #C82930; stroke-width: 1.0;" width="6" x="138.5" y="610.0234"/><text fill="#000000" font-family="sans-serif" font-size="11" lengthAdjust="spacingAndGlyphs" textLength="222" x="150.5" y="616.2339">MutablePropertyValues propertyValues</text><rect fill="none" height="6" style="stroke: #C82930; stroke-width: 1.0;" width="6" x="138.5" y="622.8281"/><text fill="#000000" font-family="sans-serif" font-size="11" lengthAdjust="spacingAndGlyphs" textLength="202" x="150.5" y="629.0386">MethodOverrides methodOverrides</text><rect fill="none" height="6" style="stroke: #C82930; stroke-width: 1.0;" width="6" x="138.5" y="635.6328"/><text fill="#000000" font-family="sans-serif" font-size="11" lengthAdjust="spacingAndGlyphs" textLength="130" x="150.5" y="641.8433">String initMethodName</text><rect fill="none" height="6" style="stroke: #C82930; stroke-width: 1.0;" width="6" x="138.5" y="648.4375"/><text fill="#000000" font-family="sans-serif" font-size="11" lengthAdjust="spacingAndGlyphs" textLength="156" x="150.5" y="654.6479">String destroyMethodName</text><rect fill="none" height="6" style="stroke: #C82930; stroke-width: 1.0;" width="6" x="138.5" y="661.2422"/><text fill="#000000" font-family="sans-serif" font-size="11" lengthAdjust="spacingAndGlyphs" textLength="193" x="150.5" y="667.4526">boolean enforceInitMethod = true</text><rect fill="none" height="6" style="stroke: #C82930; stroke-width: 1.0;" width="6" x="138.5" y="674.0469"/><text fill="#000000" font-family="sans-serif" font-size="11" lengthAdjust="spacingAndGlyphs" textLength="221" x="150.5" y="680.2573">boolean enforceDestroyMethod = true</text><rect fill="none" height="6" style="stroke: #C82930; stroke-width: 1.0;" width="6" x="138.5" y="686.8516"/><text fill="#000000" font-family="sans-serif" font-size="11" lengthAdjust="spacingAndGlyphs" textLength="147" x="150.5" y="693.062">boolean synthetic = false</text><rect fill="none" height="6" style="stroke: #C82930; stroke-width: 1.0;" width="6" x="138.5" y="699.6563"/><text fill="#000000" font-family="sans-serif" font-size="11" lengthAdjust="spacingAndGlyphs" textLength="252" x="150.5" y="705.8667">int role = BeanDefinition.ROLE_APPLICATION</text><rect fill="none" height="6" style="stroke: #C82930; stroke-width: 1.0;" width="6" x="138.5" y="712.4609"/><text fill="#000000" font-family="sans-serif" font-size="11" lengthAdjust="spacingAndGlyphs" textLength="99" x="150.5" y="718.6714">String description</text><rect fill="none" height="6" style="stroke: #C82930; stroke-width: 1.0;" width="6" x="138.5" y="725.2656"/><text fill="#000000" font-family="sans-serif" font-size="11" lengthAdjust="spacingAndGlyphs" textLength="107" x="150.5" y="731.4761">Resource resource</text><line style="stroke: #A80036; stroke-width: 1.5;" x1="131.5" x2="475.5" y1="738.0703" y2="738.0703"/><!--MD5=[f62eaa6c4d43571d0e4c76098fe1b59f]
class Cloneable--><rect fill="#FEFECE" filter="url(#fu072pi1w621s)" height="48" id="Cloneable" style="stroke: #A80036; stroke-width: 1.5;" width="90" x="114.5" y="263.4531"/><ellipse cx="129.5" cy="279.4531" fill="#B4A7E5" rx="11" ry="11" style="stroke: #A80036; stroke-width: 1.0;"/><path d="M130.4531,276.2344 L132.1719,276.2344 C132.5625,276.2344 132.75,276.2031 132.875,276.125 C133.1406,275.9688 133.2813,275.6875 133.2813,275.3906 C133.2813,275.125 133.1719,274.8594 132.9375,274.6875 C132.7656,274.5781 132.625,274.5469 132.1719,274.5469 L127.0313,274.5469 C126.5938,274.5469 126.4688,274.5625 126.3125,274.6563 C126.0625,274.8125 125.9063,275.1094 125.9063,275.3906 C125.9063,275.6719 126.0469,275.9219 126.2656,276.0938 C126.4219,276.2031 126.6094,276.2344 127.0313,276.2344 L128.75,276.2344 L128.75,282.75 L127.0313,282.75 C126.5938,282.75 126.4688,282.7656 126.3125,282.875 C126.0625,283.0313 125.9063,283.3125 125.9063,283.6094 C125.9063,283.8594 126.0469,284.125 126.2656,284.2813 C126.4219,284.4063 126.625,284.4531 127.0313,284.4531 L132.1719,284.4531 C132.9219,284.4531 133.2813,284.1719 133.2813,283.6094 C133.2813,283.3281 133.1719,283.0781 132.9375,282.9063 C132.7656,282.7813 132.625,282.75 132.1719,282.75 L130.4531,282.75 L130.4531,276.2344 Z "/><text fill="#000000" font-family="sans-serif" font-size="12" font-style="italic" lengthAdjust="spacingAndGlyphs" textLength="58" x="143.5" y="283.6074">Cloneable</text><line style="stroke: #A80036; stroke-width: 1.5;" x1="115.5" x2="203.5" y1="295.4531" y2="295.4531"/><line style="stroke: #A80036; stroke-width: 1.5;" x1="115.5" x2="203.5" y1="303.4531" y2="303.4531"/><!--MD5=[81279d131ce2f34d00a7eac95fb2abb6]
class RootBeanDefinition--><rect fill="#FEFECE" filter="url(#fu072pi1w621s)" height="48" id="RootBeanDefinition" style="stroke: #A80036; stroke-width: 1.5;" width="145" x="7" y="812.4531"/><ellipse cx="22" cy="828.4531" fill="#ADD1B2" rx="11" ry="11" style="stroke: #A80036; stroke-width: 1.0;"/><path d="M24.3438,824.125 C23.4063,823.6875 22.8125,823.5469 21.9375,823.5469 C19.3125,823.5469 17.3125,825.625 17.3125,828.3438 L17.3125,829.4688 C17.3125,832.0469 19.4219,833.9375 22.3125,833.9375 C23.5313,833.9375 24.6875,833.6406 25.4375,833.0938 C26.0156,832.6875 26.3438,832.2344 26.3438,831.8438 C26.3438,831.3906 25.9531,831 25.4844,831 C25.2656,831 25.0625,831.0781 24.875,831.2656 C24.4219,831.75 24.4219,831.75 24.2344,831.8438 C23.8125,832.1094 23.125,832.2344 22.3594,832.2344 C20.3125,832.2344 19.0156,831.1406 19.0156,829.4375 L19.0156,828.3438 C19.0156,826.5625 20.2656,825.25 22,825.25 C22.5781,825.25 23.1875,825.4063 23.6563,825.6563 C24.1406,825.9375 24.3125,826.1563 24.4063,826.5625 C24.4688,826.9688 24.5,827.0938 24.6406,827.2188 C24.7813,827.3594 25.0156,827.4688 25.2344,827.4688 C25.5,827.4688 25.7656,827.3281 25.9375,827.1094 C26.0469,826.9531 26.0781,826.7656 26.0781,826.3438 L26.0781,824.9219 C26.0781,824.4844 26.0625,824.3594 25.9688,824.2031 C25.8125,823.9375 25.5313,823.7969 25.2344,823.7969 C24.9375,823.7969 24.7344,823.8906 24.5156,824.2031 L24.3438,824.125 Z "/><text fill="#000000" font-family="sans-serif" font-size="12" lengthAdjust="spacingAndGlyphs" textLength="113" x="36" y="832.6074">RootBeanDefinition</text><line style="stroke: #A80036; stroke-width: 1.5;" x1="8" x2="151" y1="844.4531" y2="844.4531"/><line style="stroke: #A80036; stroke-width: 1.5;" x1="8" x2="151" y1="852.4531" y2="852.4531"/><!--MD5=[8b07882df718dfa549ca7e1e91f9f1ca]
class AnnotatedBeanDefinition--><rect fill="#FEFECE" filter="url(#fu072pi1w621s)" height="48" id="AnnotatedBeanDefinition" style="stroke: #A80036; stroke-width: 1.5;" width="182" x="569.5" y="812.4531"/><ellipse cx="584.5" cy="828.4531" fill="#B4A7E5" rx="11" ry="11" style="stroke: #A80036; stroke-width: 1.0;"/><path d="M585.4531,825.2344 L587.1719,825.2344 C587.5625,825.2344 587.75,825.2031 587.875,825.125 C588.1406,824.9688 588.2813,824.6875 588.2813,824.3906 C588.2813,824.125 588.1719,823.8594 587.9375,823.6875 C587.7656,823.5781 587.625,823.5469 587.1719,823.5469 L582.0313,823.5469 C581.5938,823.5469 581.4688,823.5625 581.3125,823.6563 C581.0625,823.8125 580.9063,824.1094 580.9063,824.3906 C580.9063,824.6719 581.0469,824.9219 581.2656,825.0938 C581.4219,825.2031 581.6094,825.2344 582.0313,825.2344 L583.75,825.2344 L583.75,831.75 L582.0313,831.75 C581.5938,831.75 581.4688,831.7656 581.3125,831.875 C581.0625,832.0313 580.9063,832.3125 580.9063,832.6094 C580.9063,832.8594 581.0469,833.125 581.2656,833.2813 C581.4219,833.4063 581.625,833.4531 582.0313,833.4531 L587.1719,833.4531 C587.9219,833.4531 588.2813,833.1719 588.2813,832.6094 C588.2813,832.3281 588.1719,832.0781 587.9375,831.9063 C587.7656,831.7813 587.625,831.75 587.1719,831.75 L585.4531,831.75 L585.4531,825.2344 Z "/><text fill="#000000" font-family="sans-serif" font-size="12" font-style="italic" lengthAdjust="spacingAndGlyphs" textLength="150" x="598.5" y="832.6074">AnnotatedBeanDefinition</text><line style="stroke: #A80036; stroke-width: 1.5;" x1="570.5" x2="750.5" y1="844.4531" y2="844.4531"/><line style="stroke: #A80036; stroke-width: 1.5;" x1="570.5" x2="750.5" y1="852.4531" y2="852.4531"/><!--MD5=[746684a488683235b56348e7c5d5d8d1]
class ChildBeanDefinition--><rect fill="#FEFECE" filter="url(#fu072pi1w621s)" height="60.8047" id="ChildBeanDefinition" style="stroke: #A80036; stroke-width: 1.5;" width="147" x="187" y="805.9531"/><ellipse cx="202" cy="821.9531" fill="#ADD1B2" rx="11" ry="11" style="stroke: #A80036; stroke-width: 1.0;"/><path d="M204.3438,817.625 C203.4063,817.1875 202.8125,817.0469 201.9375,817.0469 C199.3125,817.0469 197.3125,819.125 197.3125,821.8438 L197.3125,822.9688 C197.3125,825.5469 199.4219,827.4375 202.3125,827.4375 C203.5313,827.4375 204.6875,827.1406 205.4375,826.5938 C206.0156,826.1875 206.3438,825.7344 206.3438,825.3438 C206.3438,824.8906 205.9531,824.5 205.4844,824.5 C205.2656,824.5 205.0625,824.5781 204.875,824.7656 C204.4219,825.25 204.4219,825.25 204.2344,825.3438 C203.8125,825.6094 203.125,825.7344 202.3594,825.7344 C200.3125,825.7344 199.0156,824.6406 199.0156,822.9375 L199.0156,821.8438 C199.0156,820.0625 200.2656,818.75 202,818.75 C202.5781,818.75 203.1875,818.9063 203.6563,819.1563 C204.1406,819.4375 204.3125,819.6563 204.4063,820.0625 C204.4688,820.4688 204.5,820.5938 204.6406,820.7188 C204.7813,820.8594 205.0156,820.9688 205.2344,820.9688 C205.5,820.9688 205.7656,820.8281 205.9375,820.6094 C206.0469,820.4531 206.0781,820.2656 206.0781,819.8438 L206.0781,818.4219 C206.0781,817.9844 206.0625,817.8594 205.9688,817.7031 C205.8125,817.4375 205.5313,817.2969 205.2344,817.2969 C204.9375,817.2969 204.7344,817.3906 204.5156,817.7031 L204.3438,817.625 Z "/><text fill="#000000" font-family="sans-serif" font-size="12" lengthAdjust="spacingAndGlyphs" textLength="115" x="216" y="826.1074">ChildBeanDefinition</text><line style="stroke: #A80036; stroke-width: 1.5;" x1="188" x2="333" y1="837.9531" y2="837.9531"/><text fill="#000000" font-family="sans-serif" font-size="11" lengthAdjust="spacingAndGlyphs" textLength="111" x="193" y="852.1636">String parentName;</text><line style="stroke: #A80036; stroke-width: 1.5;" x1="188" x2="333" y1="858.7578" y2="858.7578"/><!--MD5=[3187c903a9cfb6ce040b73378a6a115a]
class GenericBeanDefinition--><rect fill="#FEFECE" filter="url(#fu072pi1w621s)" height="60.8047" id="GenericBeanDefinition" style="stroke: #A80036; stroke-width: 1.5;" width="165" x="369" y="805.9531"/><ellipse cx="384" cy="821.9531" fill="#ADD1B2" rx="11" ry="11" style="stroke: #A80036; stroke-width: 1.0;"/><path d="M386.3438,817.625 C385.4063,817.1875 384.8125,817.0469 383.9375,817.0469 C381.3125,817.0469 379.3125,819.125 379.3125,821.8438 L379.3125,822.9688 C379.3125,825.5469 381.4219,827.4375 384.3125,827.4375 C385.5313,827.4375 386.6875,827.1406 387.4375,826.5938 C388.0156,826.1875 388.3438,825.7344 388.3438,825.3438 C388.3438,824.8906 387.9531,824.5 387.4844,824.5 C387.2656,824.5 387.0625,824.5781 386.875,824.7656 C386.4219,825.25 386.4219,825.25 386.2344,825.3438 C385.8125,825.6094 385.125,825.7344 384.3594,825.7344 C382.3125,825.7344 381.0156,824.6406 381.0156,822.9375 L381.0156,821.8438 C381.0156,820.0625 382.2656,818.75 384,818.75 C384.5781,818.75 385.1875,818.9063 385.6563,819.1563 C386.1406,819.4375 386.3125,819.6563 386.4063,820.0625 C386.4688,820.4688 386.5,820.5938 386.6406,820.7188 C386.7813,820.8594 387.0156,820.9688 387.2344,820.9688 C387.5,820.9688 387.7656,820.8281 387.9375,820.6094 C388.0469,820.4531 388.0781,820.2656 388.0781,819.8438 L388.0781,818.4219 C388.0781,817.9844 388.0625,817.8594 387.9688,817.7031 C387.8125,817.4375 387.5313,817.2969 387.2344,817.2969 C386.9375,817.2969 386.7344,817.3906 386.5156,817.7031 L386.3438,817.625 Z "/><text fill="#000000" font-family="sans-serif" font-size="12" lengthAdjust="spacingAndGlyphs" textLength="133" x="398" y="826.1074">GenericBeanDefinition</text><line style="stroke: #A80036; stroke-width: 1.5;" x1="370" x2="533" y1="837.9531" y2="837.9531"/><rect fill="none" height="6" style="stroke: #C82930; stroke-width: 1.0;" width="6" x="377" y="845.9531"/><text fill="#000000" font-family="sans-serif" font-size="11" lengthAdjust="spacingAndGlyphs" textLength="108" x="389" y="852.1636">String parentName</text><line style="stroke: #A80036; stroke-width: 1.5;" x1="370" x2="533" y1="858.7578" y2="858.7578"/><!--MD5=[9f022c52432e632a22c4144733fdf0e1]
class ScannedGenericBeanDefinition--><rect fill="#FEFECE" filter="url(#fu072pi1w621s)" height="60.8047" id="ScannedGenericBeanDefinition" style="stroke: #A80036; stroke-width: 1.5;" width="217" x="311" y="933.4531"/><ellipse cx="326" cy="949.4531" fill="#ADD1B2" rx="11" ry="11" style="stroke: #A80036; stroke-width: 1.0;"/><path d="M328.3438,945.125 C327.4063,944.6875 326.8125,944.5469 325.9375,944.5469 C323.3125,944.5469 321.3125,946.625 321.3125,949.3438 L321.3125,950.4688 C321.3125,953.0469 323.4219,954.9375 326.3125,954.9375 C327.5313,954.9375 328.6875,954.6406 329.4375,954.0938 C330.0156,953.6875 330.3438,953.2344 330.3438,952.8438 C330.3438,952.3906 329.9531,952 329.4844,952 C329.2656,952 329.0625,952.0781 328.875,952.2656 C328.4219,952.75 328.4219,952.75 328.2344,952.8438 C327.8125,953.1094 327.125,953.2344 326.3594,953.2344 C324.3125,953.2344 323.0156,952.1406 323.0156,950.4375 L323.0156,949.3438 C323.0156,947.5625 324.2656,946.25 326,946.25 C326.5781,946.25 327.1875,946.4063 327.6563,946.6563 C328.1406,946.9375 328.3125,947.1563 328.4063,947.5625 C328.4688,947.9688 328.5,948.0938 328.6406,948.2188 C328.7813,948.3594 329.0156,948.4688 329.2344,948.4688 C329.5,948.4688 329.7656,948.3281 329.9375,948.1094 C330.0469,947.9531 330.0781,947.7656 330.0781,947.3438 L330.0781,945.9219 C330.0781,945.4844 330.0625,945.3594 329.9688,945.2031 C329.8125,944.9375 329.5313,944.7969 329.2344,944.7969 C328.9375,944.7969 328.7344,944.8906 328.5156,945.2031 L328.3438,945.125 Z "/><text fill="#000000" font-family="sans-serif" font-size="12" lengthAdjust="spacingAndGlyphs" textLength="185" x="340" y="953.6074">ScannedGenericBeanDefinition</text><line style="stroke: #A80036; stroke-width: 1.5;" x1="312" x2="527" y1="965.4531" y2="965.4531"/><rect fill="none" height="6" style="stroke: #C82930; stroke-width: 1.0;" width="6" x="319" y="973.4531"/><text fill="#000000" font-family="sans-serif" font-size="11" lengthAdjust="spacingAndGlyphs" textLength="173" x="331" y="979.6636">AnnotationMetadata metadata</text><line style="stroke: #A80036; stroke-width: 1.5;" x1="312" x2="527" y1="986.2578" y2="986.2578"/><!--MD5=[d010fa114f19bec3fe3915b57ee0bcf0]
class AnnotatedGenericBeanDefinition--><rect fill="#FEFECE" filter="url(#fu072pi1w621s)" height="73.6094" id="AnnotatedGenericBeanDefinition" style="stroke: #A80036; stroke-width: 1.5;" width="259" x="563" y="926.9531"/><ellipse cx="592.85" cy="942.9531" fill="#ADD1B2" rx="11" ry="11" style="stroke: #A80036; stroke-width: 1.0;"/><path d="M595.1938,938.625 C594.2563,938.1875 593.6625,938.0469 592.7875,938.0469 C590.1625,938.0469 588.1625,940.125 588.1625,942.8438 L588.1625,943.9688 C588.1625,946.5469 590.2719,948.4375 593.1625,948.4375 C594.3813,948.4375 595.5375,948.1406 596.2875,947.5938 C596.8656,947.1875 597.1938,946.7344 597.1938,946.3438 C597.1938,945.8906 596.8031,945.5 596.3344,945.5 C596.1156,945.5 595.9125,945.5781 595.725,945.7656 C595.2719,946.25 595.2719,946.25 595.0844,946.3438 C594.6625,946.6094 593.975,946.7344 593.2094,946.7344 C591.1625,946.7344 589.8656,945.6406 589.8656,943.9375 L589.8656,942.8438 C589.8656,941.0625 591.1156,939.75 592.85,939.75 C593.4281,939.75 594.0375,939.9063 594.5063,940.1563 C594.9906,940.4375 595.1625,940.6563 595.2563,941.0625 C595.3188,941.4688 595.35,941.5938 595.4906,941.7188 C595.6313,941.8594 595.8656,941.9688 596.0844,941.9688 C596.35,941.9688 596.6156,941.8281 596.7875,941.6094 C596.8969,941.4531 596.9281,941.2656 596.9281,940.8438 L596.9281,939.4219 C596.9281,938.9844 596.9125,938.8594 596.8188,938.7031 C596.6625,938.4375 596.3813,938.2969 596.0844,938.2969 C595.7875,938.2969 595.5844,938.3906 595.3656,938.7031 L595.1938,938.625 Z "/><text fill="#000000" font-family="sans-serif" font-size="12" lengthAdjust="spacingAndGlyphs" textLength="194" x="610.15" y="947.1074">AnnotatedGenericBeanDefinition</text><line style="stroke: #A80036; stroke-width: 1.5;" x1="564" x2="821" y1="958.9531" y2="958.9531"/><rect fill="none" height="6" style="stroke: #C82930; stroke-width: 1.0;" width="6" x="571" y="966.9531"/><text fill="#000000" font-family="sans-serif" font-size="11" lengthAdjust="spacingAndGlyphs" textLength="173" x="583" y="973.1636">AnnotationMetadata metadata</text><rect fill="none" height="6" style="stroke: #C82930; stroke-width: 1.0;" width="6" x="571" y="979.7578"/><text fill="#000000" font-family="sans-serif" font-size="11" lengthAdjust="spacingAndGlyphs" textLength="233" x="583" y="985.9683">MethodMetadata factoryMethodMetadata</text><line style="stroke: #A80036; stroke-width: 1.5;" x1="564" x2="821" y1="992.5625" y2="992.5625"/><path d="M369.5,1060.9531 L369.5,1086.0859 L741.5,1086.0859 L741.5,1070.9531 L731.5,1060.9531 L369.5,1060.9531 " fill="#FBFB77" filter="url(#fu072pi1w621s)" style="stroke: #A80036; stroke-width: 1.0;"/><path d="M731.5,1060.9531 L731.5,1070.9531 L741.5,1070.9531 L731.5,1060.9531 " fill="#FBFB77" style="stroke: #A80036; stroke-width: 1.0;"/><text fill="#000000" font-family="sans-serif" font-size="13" font-weight="bold" lengthAdjust="spacingAndGlyphs" textLength="351" x="375.5" y="1078.02">''地瓜哥''博客网 · https://www.diguage.com · 出品</text><!--MD5=[357c083b972c5914fd8ebc0980144712]
reverse link AttributeAccessor to AttributeAccessorSupport--><path d="M463.936,84.0831 C427.314,100.2411 382.805,119.8771 346.687,135.8121 " fill="none" id="AttributeAccessor&lt;-AttributeAccessorSupport" style="stroke: #A80036; stroke-width: 1.0; stroke-dasharray: 7.0,7.0;"/><polygon fill="none" points="461.158,77.6631,482.282,75.9931,466.809,90.4681,461.158,77.6631" style="stroke: #A80036; stroke-width: 1.0;"/><!--MD5=[082ae483701996780c18e6b09972354a]
reverse link Serializable to AttributeAccessorSupport--><path d="M279.5,96.0621 C279.5,109.2651 279.5,123.4901 279.5,135.6031 " fill="none" id="Serializable&lt;-AttributeAccessorSupport" style="stroke: #A80036; stroke-width: 1.0; stroke-dasharray: 7.0,7.0;"/><polygon fill="none" points="272.5,95.9911,279.5,75.9931,286.5,95.9901,272.5,95.9911" style="stroke: #A80036; stroke-width: 1.0;"/><!--MD5=[e5177c488cfce950d83d307c4beabd67]
reverse link AttributeAccessorSupport to BeanMetadataAttributeAccessor--><path d="M308.312,214.4201 C317.051,228.6661 326.405,243.9151 334.247,256.6981 " fill="none" id="AttributeAccessorSupport&lt;-BeanMetadataAttributeAccessor" style="stroke: #A80036; stroke-width: 1.0;"/><polygon fill="none" points="302.224,217.8831,297.733,197.1751,314.157,210.5621,302.224,217.8831" style="stroke: #A80036; stroke-width: 1.0;"/><!--MD5=[16cfcd33f70aa58db37f4fb5f278ccd1]
reverse link BeanMetadataElement to BeanMetadataAttributeAccessor--><path d="M455.175,203.3351 C434.01,220.4691 408.991,240.7221 388.949,256.9471 " fill="none" id="BeanMetadataElement&lt;-BeanMetadataAttributeAccessor" style="stroke: #A80036; stroke-width: 1.0; stroke-dasharray: 7.0,7.0;"/><polygon fill="none" points="450.859,197.8231,470.808,190.6801,459.667,208.7051,450.859,197.8231" style="stroke: #A80036; stroke-width: 1.0;"/><!--MD5=[5e645cd8aff59f1e376a06e5682035fd]
reverse link AttributeAccessor to BeanDefinition--><path d="M573.655,91.1741 C584.489,104.2441 594.825,119.6991 600.5,135.9531 C615.777,179.7091 595.648,233.2841 581.088,263.2691 " fill="none" id="AttributeAccessor&lt;-BeanDefinition" style="stroke: #A80036; stroke-width: 1.0;"/><polygon fill="none" points="568.177,95.5521,559.978,76.0131,578.572,86.1741,568.177,95.5521" style="stroke: #A80036; stroke-width: 1.0;"/><!--MD5=[b5897cde341852d09f9ec838a0632fe6]
reverse link BeanMetadataElement to BeanDefinition--><path d="M523.134,208.2131 C533.797,226.6031 546.003,247.6541 555.066,263.2851 " fill="none" id="BeanMetadataElement&lt;-BeanDefinition" style="stroke: #A80036; stroke-width: 1.0;"/><polygon fill="none" points="516.944,211.4931,512.968,190.6801,529.056,204.4711,516.944,211.4931" style="stroke: #A80036; stroke-width: 1.0;"/><!--MD5=[d302355b7bd48237da704d09fb71ec23]
reverse link BeanMetadataAttributeAccessor to AbstractBeanDefinition--><path d="M343.611,337.8841 C341.457,349.8671 339.026,363.3861 336.453,377.6941 " fill="none" id="BeanMetadataAttributeAccessor&lt;-AbstractBeanDefinition" style="stroke: #A80036; stroke-width: 1.0;"/><polygon fill="none" points="336.734,336.5791,347.163,318.1341,350.513,339.0571,336.734,336.5791" style="stroke: #A80036; stroke-width: 1.0;"/><!--MD5=[5d224dc321a48021c7653aae2558fe71]
reverse link BeanDefinition to AbstractBeanDefinition--><path d="M531.828,326.1631 C516.428,341.9991 497.315,361.6531 476.751,382.7991 " fill="none" id="BeanDefinition&lt;-AbstractBeanDefinition" style="stroke: #A80036; stroke-width: 1.0; stroke-dasharray: 7.0,7.0;"/><polygon fill="none" points="526.944,321.1441,545.906,311.6861,536.981,330.9051,526.944,321.1441" style="stroke: #A80036; stroke-width: 1.0;"/><!--MD5=[1411aa73a4b21a4802b9aa0503100bc7]
reverse link Cloneable to AbstractBeanDefinition--><path d="M181.174,329.4671 C188.538,343.4041 197.309,360.0011 206.723,377.8151 " fill="none" id="Cloneable&lt;-AbstractBeanDefinition" style="stroke: #A80036; stroke-width: 1.0; stroke-dasharray: 7.0,7.0;"/><polygon fill="none" points="174.933,332.6401,171.777,311.6861,187.311,326.0991,174.933,332.6401" style="stroke: #A80036; stroke-width: 1.0;"/><!--MD5=[38f0133b58e0337b8a8c5a0d352557c0]
reverse link AbstractBeanDefinition to RootBeanDefinition--><path d="M140.029,761.8191 C123.702,781.6801 109.24,799.2741 98.5498,812.2791 " fill="none" id="AbstractBeanDefinition&lt;-RootBeanDefinition" style="stroke: #A80036; stroke-width: 1.0;"/><polygon fill="none" points="134.738,757.2311,152.846,746.2261,145.553,766.1211,134.738,757.2311" style="stroke: #A80036; stroke-width: 1.0;"/><!--MD5=[3bf2b6576c6a416a813c9ad4c5bed35f]
reverse link BeanDefinition to AnnotatedBeanDefinition--><path d="M575.767,331.6621 C594.243,441.5111 642.541,728.6731 656.605,812.2931 " fill="none" id="BeanDefinition&lt;-AnnotatedBeanDefinition" style="stroke: #A80036; stroke-width: 1.0;"/><polygon fill="none" points="568.809,332.4921,572.394,311.6081,582.615,330.1691,568.809,332.4921" style="stroke: #A80036; stroke-width: 1.0;"/><!--MD5=[d540b888211d7bfeb2031444350b00eb]
reverse link AbstractBeanDefinition to ChildBeanDefinition--><path d="M271.457,766.0191 C269.078,781.0951 266.927,794.7211 265.175,805.8291 " fill="none" id="AbstractBeanDefinition&lt;-ChildBeanDefinition" style="stroke: #A80036; stroke-width: 1.0;"/><polygon fill="none" points="264.548,764.8911,274.58,746.2261,278.377,767.0731,264.548,764.8911" style="stroke: #A80036; stroke-width: 1.0;"/><!--MD5=[03333ed954d565f8aad0d40d6b1e8299]
reverse link AbstractBeanDefinition to GenericBeanDefinition--><path d="M412.692,764.0001 C421.317,779.8791 429.11,794.2271 435.411,805.8291 " fill="none" id="AbstractBeanDefinition&lt;-GenericBeanDefinition" style="stroke: #A80036; stroke-width: 1.0;"/><polygon fill="none" points="406.433,767.1421,403.039,746.2261,418.736,760.4611,406.433,767.1421" style="stroke: #A80036; stroke-width: 1.0;"/><!--MD5=[2c58b14c04db92418d36b35b31cb385e]
reverse link GenericBeanDefinition to ScannedGenericBeanDefinition--><path d="M438.968,886.6031 C434.932,902.4291 430.588,919.4681 427.029,933.4251 " fill="none" id="GenericBeanDefinition&lt;-ScannedGenericBeanDefinition" style="stroke: #A80036; stroke-width: 1.0;"/><polygon fill="none" points="432.192,884.8451,443.916,867.1951,445.758,888.3041,432.192,884.8451" style="stroke: #A80036; stroke-width: 1.0;"/><!--MD5=[fe0a374b177e79794dfb9fa7f7cb2c7d]
reverse link AnnotatedBeanDefinition to ScannedGenericBeanDefinition--><path d="M598.41,869.7861 C560.685,889.4311 512.885,914.3231 476.185,933.4351 " fill="none" id="AnnotatedBeanDefinition&lt;-ScannedGenericBeanDefinition" style="stroke: #A80036; stroke-width: 1.0; stroke-dasharray: 7.0,7.0;"/><polygon fill="none" points="595.325,863.5011,616.297,860.4721,601.791,875.9181,595.325,863.5011" style="stroke: #A80036; stroke-width: 1.0;"/><!--MD5=[e905fcd17b185a4d086bc37e87da49b8]
reverse link GenericBeanDefinition to AnnotatedGenericBeanDefinition--><path d="M526.368,876.4401 C557.272,892.5331 592.873,911.0731 623.174,926.8511 " fill="none" id="GenericBeanDefinition&lt;-AnnotatedGenericBeanDefinition" style="stroke: #A80036; stroke-width: 1.0;"/><polygon fill="none" points="522.814,882.4821,508.308,867.0361,529.281,870.0651,522.814,882.4821" style="stroke: #A80036; stroke-width: 1.0;"/><!--MD5=[743eeabc80805a012e70bc36cb66cc13]
reverse link AnnotatedBeanDefinition to AnnotatedGenericBeanDefinition--><path d="M671.354,880.0221 C675.228,895.2141 679.552,912.1711 683.275,926.7741 " fill="none" id="AnnotatedBeanDefinition&lt;-AnnotatedGenericBeanDefinition" style="stroke: #A80036; stroke-width: 1.0; stroke-dasharray: 7.0,7.0;"/><polygon fill="none" points="664.528,881.5811,666.369,860.4721,678.094,878.1221,664.528,881.5811" style="stroke: #A80036; stroke-width: 1.0;"/><!--MD5=[000fab5ff0653cc7d16b7f7fc5f8a996]
link ScannedGenericBeanDefinition to N1--><path d="M457.023,994.6125 C484.698,1016.4883 520.866,1045.0767 540.768,1060.8082 " fill="none" id="ScannedGenericBeanDefinition-N1" style="stroke: #A80036; stroke-width: 1.0; stroke-dasharray: 7.0,7.0;"/><!--MD5=[27d23863ccb3a395cec4bcfb349b520a]
link AnnotatedGenericBeanDefinition to N1--><path d="M646.5,1001.0481 C620.07,1021.7867 588.613,1046.4699 570.461,1060.7136 " fill="none" id="AnnotatedGenericBeanDefinition-N1" style="stroke: #A80036; stroke-width: 1.0; stroke-dasharray: 7.0,7.0;"/><!--MD5=[521beffa2fd6f7fcda55fb838c789cd7]
@startuml
title **<b>BeanDefinition 继承体系</b>**

abstract class AttributeAccessorSupport implements AttributeAccessor, Serializable {
  - Map<String, Object> attributes
}

class BeanMetadataAttributeAccessor extends AttributeAccessorSupport implements BeanMetadataElement {
  - Object source
}

interface BeanDefinition extends AttributeAccessor, BeanMetadataElement

abstract class AbstractBeanDefinition extends BeanMetadataAttributeAccessor implements BeanDefinition, Cloneable {
  - Object beanClass
  - boolean abstractFlag
  - Boolean lazyInit
  - int autowireMode = AUTOWIRE_NO
  - int dependencyCheck = DEPENDENCY_CHECK_NONE
  - String[] dependsOn
  - boolean autowireCandidate = true
  - boolean primary = false
  - Map<String, AutowireCandidateQualifier> qualifiers
  - Supplier<?> instanceSupplier
  - boolean nonPublicAccessAllowed = true
  - boolean lenientConstructorResolution = true
  - String factoryBeanName
  - String factoryMethodName
  - ConstructorArgumentValues constructorArgumentValues
  - MutablePropertyValues propertyValues
  - MethodOverrides methodOverrides
  - String initMethodName
  - String destroyMethodName
  - boolean enforceInitMethod = true
  - boolean enforceDestroyMethod = true
  - boolean synthetic = false
  - int role = BeanDefinition.ROLE_APPLICATION
  - String description
  - Resource resource
}

class RootBeanDefinition extends AbstractBeanDefinition

interface AnnotatedBeanDefinition extends BeanDefinition

class ChildBeanDefinition extends AbstractBeanDefinition {
  String parentName;
}

class GenericBeanDefinition extends AbstractBeanDefinition {
  - String parentName
}

class ScannedGenericBeanDefinition extends GenericBeanDefinition implements AnnotatedBeanDefinition {
  - AnnotationMetadata metadata
}

class AnnotatedGenericBeanDefinition extends GenericBeanDefinition implements AnnotatedBeanDefinition {
  - AnnotationMetadata metadata
  - MethodMetadata factoryMethodMetadata
}

note "<b>''地瓜哥''博客网 · https://www.diguage.com · 出品</b>" AS N1
ScannedGenericBeanDefinition .. N1
AnnotatedGenericBeanDefinition .. N1
@enduml

PlantUML version 1.2020.15beta1(Unknown compile time)
(GPL source distribution)
Java Runtime: Java(TM) SE Runtime Environment
JVM: Java HotSpot(TM) 64-Bit Server VM
Default Encoding: UTF-8
Language: en
Country: US
--></g></svg>