<svg xmlns="http://www.w3.org/2000/svg" height="1045" preserveAspectRatio="none" style="width:841px;height:1045px" width="841"><defs><filter height="300%" id="a" width="300%" x="-1" y="-1"><feGaussianBlur result="blurOut" stdDeviation="2"/><feColorMatrix in="blurOut" result="blurOut2" values="0 0 0 0 0 0 0 0 0 0 0 0 0 0 0 0 0 0 .4 0"/><feOffset dx="4" dy="4" in="blurOut2" result="blurOut3"/><feBlend in="SourceGraphic" in2="blurOut3"/></filter></defs><text font-family="sans-serif" font-size="18" font-weight="bold" lengthAdjust="spacingAndGlyphs" textLength="238" x="292.5" y="16.708">BeanDefinition 继承体系</text><path fill="#FEFECE" filter="url(#a)" stroke="#A80036" stroke-width="1.5" d="M178.5 135.953H380.5V196.758H178.5z"/><ellipse cx="199.8" cy="151.953" fill="#A9DCDF" rx="11" ry="11" stroke="#A80036" stroke-width="1.0"/><path d="M201.878 153.766l.39.984h-.39c-.453 0-.562.016-.719.125a.872.872 0 0 0-.406.734c0 .266.14.516.36.672.14.125.343.172.765.172h2.36c.359 0 .578-.031.718-.125a.846.846 0 0 0 .407-.719.844.844 0 0 0-.36-.687c-.172-.14-.328-.172-.797-.172l-3.39-8.203h-3.672c-.453 0-.578.016-.735.11a.915.915 0 0 0-.406.734c0 .28.14.53.36.703.171.11.343.14.78.14h1.079l-2.64 6.516c-.423 0-.579.016-.735.125a.872.872 0 0 0-.406.734c0 .563.375.844 1.125.844h2.265c.36 0 .578-.031.703-.125.266-.14.407-.437.407-.719a.88.88 0 0 0-.344-.703c-.172-.125-.313-.156-.766-.156h-.39l.39-.984h4.047zm-.703-1.703h-2.672l1.344-3.266 1.328 3.266z"/><text font-family="sans-serif" font-size="12" font-style="italic" lengthAdjust="spacingAndGlyphs" textLength="156" x="215.2" y="156.107">AttributeAccessorSupport</text><path stroke="#A80036" stroke-width="1.5" d="M179.5 167.953L379.5 167.953"/><path fill="none" stroke="#C82930" stroke-width="1.0" d="M186.5 175.953H192.5V181.953H186.5z"/><text font-family="sans-serif" font-size="11" lengthAdjust="spacingAndGlyphs" textLength="176" x="198.5" y="182.164">Map&lt;String, Object&gt; attributes</text><path stroke="#A80036" stroke-width="1.5" d="M179.5 188.758L379.5 188.758"/><path fill="#FEFECE" filter="url(#a)" stroke="#A80036" stroke-width="1.5" d="M465 27.953H604V75.953H465z"/><ellipse cx="480" cy="43.953" fill="#B4A7E5" rx="11" ry="11" stroke="#A80036" stroke-width="1.0"/><path d="M480.953 40.734h1.719c.39 0 .578-.03.703-.109a.838.838 0 0 0 .406-.734.858.858 0 0 0-.344-.703c-.171-.11-.312-.141-.765-.141h-5.14c-.438 0-.563.016-.72.11a.893.893 0 0 0-.406.734c0 .28.14.53.36.703.156.11.343.14.765.14h1.719v6.516h-1.719c-.437 0-.562.016-.719.125a.872.872 0 0 0-.406.734c0 .25.14.516.36.672.156.125.359.172.765.172h5.14c.75 0 1.11-.281 1.11-.844a.838.838 0 0 0-.344-.703c-.171-.125-.312-.156-.765-.156h-1.719v-6.516z"/><text font-family="sans-serif" font-size="12" font-style="italic" lengthAdjust="spacingAndGlyphs" textLength="107" x="494" y="48.107">AttributeAccessor</text><path stroke="#A80036" stroke-width="1.5" d="M466 59.953L603 59.953"/><path stroke="#A80036" stroke-width="1.5" d="M466 67.953L603 67.953"/><path fill="#FEFECE" filter="url(#a)" stroke="#A80036" stroke-width="1.5" d="M230 27.953H329V75.953H230z"/><ellipse cx="245" cy="43.953" fill="#B4A7E5" rx="11" ry="11" stroke="#A80036" stroke-width="1.0"/><path d="M245.953 40.734h1.719c.39 0 .578-.03.703-.109a.838.838 0 0 0 .406-.734.858.858 0 0 0-.344-.703c-.171-.11-.312-.141-.765-.141h-5.14c-.438 0-.563.016-.72.11a.893.893 0 0 0-.406.734c0 .28.14.53.36.703.156.11.343.14.765.14h1.719v6.516h-1.719c-.437 0-.562.016-.719.125a.872.872 0 0 0-.406.734c0 .25.14.516.36.672.156.125.359.172.765.172h5.14c.75 0 1.11-.281 1.11-.844a.838.838 0 0 0-.344-.703c-.171-.125-.312-.156-.765-.156h-1.719v-6.516z"/><text font-family="sans-serif" font-size="12" font-style="italic" lengthAdjust="spacingAndGlyphs" textLength="67" x="259" y="48.107">Serializable</text><path stroke="#A80036" stroke-width="1.5" d="M231 59.953L328 59.953"/><path stroke="#A80036" stroke-width="1.5" d="M231 67.953L328 67.953"/><path fill="#FEFECE" filter="url(#a)" stroke="#A80036" stroke-width="1.5" d="M240 256.953H465V317.758H240z"/><ellipse cx="255" cy="272.953" fill="#ADD1B2" rx="11" ry="11" stroke="#A80036" stroke-width="1.0"/><path d="M257.344 268.625c-.938-.438-1.531-.578-2.406-.578-2.625 0-4.625 2.078-4.625 4.797v1.125c0 2.578 2.109 4.469 5 4.469 1.218 0 2.375-.297 3.125-.844.578-.406.906-.86.906-1.25a.864.864 0 0 0-.86-.844.831.831 0 0 0-.609.266c-.453.484-.453.484-.64.578-.423.265-1.11.39-1.876.39-2.047 0-3.343-1.093-3.343-2.796v-1.094c0-1.781 1.25-3.094 2.984-3.094.578 0 1.188.156 1.656.406.485.281.656.5.75.906.063.407.094.532.235.657.14.14.375.25.593.25a.92.92 0 0 0 .704-.36c.109-.156.14-.343.14-.765v-1.422c0-.438-.015-.563-.11-.719a.838.838 0 0 0-.734-.406c-.296 0-.5.094-.718.406l-.172-.078z"/><text font-family="sans-serif" font-size="12" lengthAdjust="spacingAndGlyphs" textLength="193" x="269" y="277.107">BeanMetadataAttributeAccessor</text><path stroke="#A80036" stroke-width="1.5" d="M241 288.953L464 288.953"/><path fill="none" stroke="#C82930" stroke-width="1.0" d="M248 296.953H254V302.953H248z"/><text font-family="sans-serif" font-size="11" lengthAdjust="spacingAndGlyphs" textLength="79" x="260" y="303.164">Object source</text><path stroke="#A80036" stroke-width="1.5" d="M241 309.758L464 309.758"/><path fill="#FEFECE" filter="url(#a)" stroke="#A80036" stroke-width="1.5" d="M415.5 142.453H583.5V190.453H415.5z"/><ellipse cx="430.5" cy="158.453" fill="#B4A7E5" rx="11" ry="11" stroke="#A80036" stroke-width="1.0"/><path d="M431.453 155.234h1.719c.39 0 .578-.03.703-.109a.838.838 0 0 0 .406-.734.858.858 0 0 0-.344-.703c-.171-.11-.312-.141-.765-.141h-5.14c-.438 0-.563.016-.72.11a.893.893 0 0 0-.406.734c0 .28.14.53.36.703.156.11.343.14.765.14h1.719v6.516h-1.719c-.437 0-.562.016-.719.125a.872.872 0 0 0-.406.734c0 .25.14.516.36.672.156.125.359.172.765.172h5.14c.75 0 1.11-.281 1.11-.844a.838.838 0 0 0-.344-.703c-.171-.125-.312-.156-.765-.156h-1.719v-6.516z"/><text font-family="sans-serif" font-size="12" font-style="italic" lengthAdjust="spacingAndGlyphs" textLength="136" x="444.5" y="162.607">BeanMetadataElement</text><path stroke="#A80036" stroke-width="1.5" d="M416.5 174.453L582.5 174.453"/><path stroke="#A80036" stroke-width="1.5" d="M416.5 182.453L582.5 182.453"/><path fill="#FEFECE" filter="url(#a)" stroke="#A80036" stroke-width="1.5" d="M509 263.453H628V311.453H509z"/><ellipse cx="524" cy="279.453" fill="#B4A7E5" rx="11" ry="11" stroke="#A80036" stroke-width="1.0"/><path d="M524.953 276.234h1.719c.39 0 .578-.03.703-.109a.838.838 0 0 0 .406-.734.858.858 0 0 0-.343-.704c-.172-.109-.313-.14-.766-.14h-5.14c-.438 0-.563.015-.72.11a.893.893 0 0 0-.406.734c0 .28.14.53.36.703.156.11.343.14.765.14h1.719v6.516h-1.719c-.437 0-.562.016-.718.125a.872.872 0 0 0-.407.734c0 .25.14.516.36.672.156.125.359.172.765.172h5.14c.75 0 1.11-.281 1.11-.844a.838.838 0 0 0-.343-.703c-.172-.125-.313-.156-.766-.156h-1.719v-6.516z"/><text font-family="sans-serif" font-size="12" font-style="italic" lengthAdjust="spacingAndGlyphs" textLength="87" x="538" y="283.607">BeanDefinition</text><path stroke="#A80036" stroke-width="1.5" d="M510 295.453L627 295.453"/><path stroke="#A80036" stroke-width="1.5" d="M510 303.453L627 303.453"/><path fill="#FEFECE" filter="url(#a)" stroke="#A80036" stroke-width="1.5" d="M130.5 377.953H476.5V746.0699999999999H130.5z"/><ellipse cx="230.25" cy="393.953" fill="#A9DCDF" rx="11" ry="11" stroke="#A80036" stroke-width="1.0"/><path d="M232.328 395.766l.39.984h-.39c-.453 0-.562.016-.719.125a.872.872 0 0 0-.406.734c0 .266.14.516.36.672.14.125.343.172.765.172h2.36c.359 0 .578-.031.718-.125a.846.846 0 0 0 .406-.719.844.844 0 0 0-.359-.687c-.172-.14-.328-.172-.797-.172l-3.39-8.203h-3.672c-.453 0-.578.015-.735.11a.915.915 0 0 0-.406.734c0 .28.14.53.36.703.171.11.343.14.78.14h1.079l-2.64 6.516c-.423 0-.579.016-.735.125a.872.872 0 0 0-.406.734c0 .563.375.844 1.125.844h2.265c.36 0 .578-.031.703-.125.266-.14.407-.437.407-.719a.88.88 0 0 0-.344-.703c-.172-.125-.313-.156-.766-.156h-.39l.39-.984h4.047zm-.703-1.704h-2.672l1.344-3.265 1.328 3.265z"/><text font-family="sans-serif" font-size="12" font-style="italic" lengthAdjust="spacingAndGlyphs" textLength="138" x="250.75" y="398.107">AbstractBeanDefinition</text><path stroke="#A80036" stroke-width="1.5" d="M131.5 409.953L475.5 409.953"/><path fill="none" stroke="#C82930" stroke-width="1.0" d="M138.5 417.953H144.5V423.953H138.5z"/><text font-family="sans-serif" font-size="11" lengthAdjust="spacingAndGlyphs" textLength="100" x="150.5" y="424.164">Object beanClass</text><path fill="none" stroke="#C82930" stroke-width="1.0" d="M138.5 430.758H144.5V436.758H138.5z"/><text font-family="sans-serif" font-size="11" lengthAdjust="spacingAndGlyphs" textLength="118" x="150.5" y="436.968">boolean abstractFlag</text><path fill="none" stroke="#C82930" stroke-width="1.0" d="M138.5 443.563H144.5V449.563H138.5z"/><text font-family="sans-serif" font-size="11" lengthAdjust="spacingAndGlyphs" textLength="92" x="150.5" y="449.773">Boolean lazyInit</text><path fill="none" stroke="#C82930" stroke-width="1.0" d="M138.5 456.367H144.5V462.367H138.5z"/><text font-family="sans-serif" font-size="11" lengthAdjust="spacingAndGlyphs" textLength="198" x="150.5" y="462.578">int autowireMode = AUTOWIRE_NO</text><path fill="none" stroke="#C82930" stroke-width="1.0" d="M138.5 469.172H144.5V475.172H138.5z"/><text font-family="sans-serif" font-size="11" lengthAdjust="spacingAndGlyphs" textLength="300" x="150.5" y="475.382">int dependencyCheck = DEPENDENCY_CHECK_NONE</text><path fill="none" stroke="#C82930" stroke-width="1.0" d="M138.5 481.977H144.5V487.977H138.5z"/><text font-family="sans-serif" font-size="11" lengthAdjust="spacingAndGlyphs" textLength="111" x="150.5" y="488.187">String[] dependsOn</text><path fill="none" stroke="#C82930" stroke-width="1.0" d="M138.5 494.781H144.5V500.781H138.5z"/><text font-family="sans-serif" font-size="11" lengthAdjust="spacingAndGlyphs" textLength="197" x="150.5" y="500.992">boolean autowireCandidate = true</text><path fill="none" stroke="#C82930" stroke-width="1.0" d="M138.5 507.586H144.5V513.586H138.5z"/><text font-family="sans-serif" font-size="11" lengthAdjust="spacingAndGlyphs" textLength="138" x="150.5" y="513.796">boolean primary = false</text><path fill="none" stroke="#C82930" stroke-width="1.0" d="M138.5 520.391H144.5V526.391H138.5z"/><text font-family="sans-serif" font-size="11" lengthAdjust="spacingAndGlyphs" textLength="293" x="150.5" y="526.601">Map&lt;String, AutowireCandidateQualifier&gt; qualifiers</text><path fill="none" stroke="#C82930" stroke-width="1.0" d="M138.5 533.195H144.5V539.195H138.5z"/><text font-family="sans-serif" font-size="11" lengthAdjust="spacingAndGlyphs" textLength="170" x="150.5" y="539.406">Supplier&lt;?&gt; instanceSupplier</text><path fill="none" stroke="#C82930" stroke-width="1.0" d="M138.5 546H144.5V552H138.5z"/><text font-family="sans-serif" font-size="11" lengthAdjust="spacingAndGlyphs" textLength="228" x="150.5" y="552.21">boolean nonPublicAccessAllowed = true</text><path fill="none" stroke="#C82930" stroke-width="1.0" d="M138.5 558.805H144.5V564.805H138.5z"/><text font-family="sans-serif" font-size="11" lengthAdjust="spacingAndGlyphs" textLength="253" x="150.5" y="565.015">boolean lenientConstructorResolution = true</text><path fill="none" stroke="#C82930" stroke-width="1.0" d="M138.5 571.609H144.5V577.609H138.5z"/><text font-family="sans-serif" font-size="11" lengthAdjust="spacingAndGlyphs" textLength="140" x="150.5" y="577.82">String factoryBeanName</text><path fill="none" stroke="#C82930" stroke-width="1.0" d="M138.5 584.414H144.5V590.414H138.5z"/><text font-family="sans-serif" font-size="11" lengthAdjust="spacingAndGlyphs" textLength="152" x="150.5" y="590.625">String factoryMethodName</text><path fill="none" stroke="#C82930" stroke-width="1.0" d="M138.5 597.219H144.5V603.219H138.5z"/><text font-family="sans-serif" font-size="11" lengthAdjust="spacingAndGlyphs" textLength="320" x="150.5" y="603.429">ConstructorArgumentValues constructorArgumentValues</text><path fill="none" stroke="#C82930" stroke-width="1.0" d="M138.5 610.023H144.5V616.023H138.5z"/><text font-family="sans-serif" font-size="11" lengthAdjust="spacingAndGlyphs" textLength="222" x="150.5" y="616.234">MutablePropertyValues propertyValues</text><path fill="none" stroke="#C82930" stroke-width="1.0" d="M138.5 622.828H144.5V628.828H138.5z"/><text font-family="sans-serif" font-size="11" lengthAdjust="spacingAndGlyphs" textLength="202" x="150.5" y="629.039">MethodOverrides methodOverrides</text><path fill="none" stroke="#C82930" stroke-width="1.0" d="M138.5 635.633H144.5V641.633H138.5z"/><text font-family="sans-serif" font-size="11" lengthAdjust="spacingAndGlyphs" textLength="130" x="150.5" y="641.843">String initMethodName</text><path fill="none" stroke="#C82930" stroke-width="1.0" d="M138.5 648.438H144.5V654.438H138.5z"/><text font-family="sans-serif" font-size="11" lengthAdjust="spacingAndGlyphs" textLength="156" x="150.5" y="654.648">String destroyMethodName</text><path fill="none" stroke="#C82930" stroke-width="1.0" d="M138.5 661.242H144.5V667.242H138.5z"/><text font-family="sans-serif" font-size="11" lengthAdjust="spacingAndGlyphs" textLength="193" x="150.5" y="667.453">boolean enforceInitMethod = true</text><path fill="none" stroke="#C82930" stroke-width="1.0" d="M138.5 674.047H144.5V680.047H138.5z"/><text font-family="sans-serif" font-size="11" lengthAdjust="spacingAndGlyphs" textLength="221" x="150.5" y="680.257">boolean enforceDestroyMethod = true</text><path fill="none" stroke="#C82930" stroke-width="1.0" d="M138.5 686.852H144.5V692.852H138.5z"/><text font-family="sans-serif" font-size="11" lengthAdjust="spacingAndGlyphs" textLength="147" x="150.5" y="693.062">boolean synthetic = false</text><path fill="none" stroke="#C82930" stroke-width="1.0" d="M138.5 699.656H144.5V705.656H138.5z"/><text font-family="sans-serif" font-size="11" lengthAdjust="spacingAndGlyphs" textLength="252" x="150.5" y="705.867">int role = BeanDefinition.ROLE_APPLICATION</text><path fill="none" stroke="#C82930" stroke-width="1.0" d="M138.5 712.461H144.5V718.461H138.5z"/><text font-family="sans-serif" font-size="11" lengthAdjust="spacingAndGlyphs" textLength="99" x="150.5" y="718.671">String description</text><path fill="none" stroke="#C82930" stroke-width="1.0" d="M138.5 725.266H144.5V731.266H138.5z"/><text font-family="sans-serif" font-size="11" lengthAdjust="spacingAndGlyphs" textLength="107" x="150.5" y="731.476">Resource resource</text><path stroke="#A80036" stroke-width="1.5" d="M131.5 738.07L475.5 738.07"/><path fill="#FEFECE" filter="url(#a)" stroke="#A80036" stroke-width="1.5" d="M114.5 263.453H204.5V311.453H114.5z"/><ellipse cx="129.5" cy="279.453" fill="#B4A7E5" rx="11" ry="11" stroke="#A80036" stroke-width="1.0"/><path d="M130.453 276.234h1.719c.39 0 .578-.03.703-.109a.838.838 0 0 0 .406-.734.858.858 0 0 0-.344-.704c-.171-.109-.312-.14-.765-.14h-5.14c-.438 0-.563.015-.72.11a.893.893 0 0 0-.406.734c0 .28.14.53.36.703.156.11.343.14.765.14h1.719v6.516h-1.719c-.437 0-.562.016-.719.125a.872.872 0 0 0-.406.734c0 .25.14.516.36.672.156.125.359.172.765.172h5.14c.75 0 1.11-.281 1.11-.844a.838.838 0 0 0-.344-.703c-.171-.125-.312-.156-.765-.156h-1.719v-6.516z"/><text font-family="sans-serif" font-size="12" font-style="italic" lengthAdjust="spacingAndGlyphs" textLength="58" x="143.5" y="283.607">Cloneable</text><path stroke="#A80036" stroke-width="1.5" d="M115.5 295.453L203.5 295.453"/><path stroke="#A80036" stroke-width="1.5" d="M115.5 303.453L203.5 303.453"/><path fill="#FEFECE" filter="url(#a)" stroke="#A80036" stroke-width="1.5" d="M7 812.453H152V860.453H7z"/><ellipse cx="22" cy="828.453" fill="#ADD1B2" rx="11" ry="11" stroke="#A80036" stroke-width="1.0"/><path d="M24.344 824.125c-.938-.438-1.532-.578-2.407-.578-2.625 0-4.625 2.078-4.625 4.797v1.125c0 2.578 2.11 4.468 5 4.468 1.22 0 2.375-.296 3.125-.843.579-.407.907-.86.907-1.25a.864.864 0 0 0-.86-.844.831.831 0 0 0-.609.266c-.453.484-.453.484-.64.578-.422.265-1.11.39-1.876.39-2.047 0-3.343-1.093-3.343-2.797v-1.093c0-1.782 1.25-3.094 2.984-3.094.578 0 1.188.156 1.656.406.485.282.657.5.75.907.063.406.094.53.235.656.14.14.375.25.593.25a.92.92 0 0 0 .703-.36c.11-.156.141-.343.141-.765v-1.422c0-.438-.015-.563-.11-.719a.838.838 0 0 0-.734-.406c-.297 0-.5.094-.718.406l-.172-.078z"/><text font-family="sans-serif" font-size="12" lengthAdjust="spacingAndGlyphs" textLength="113" x="36" y="832.607">RootBeanDefinition</text><path stroke="#A80036" stroke-width="1.5" d="M8 844.453L151 844.453"/><path stroke="#A80036" stroke-width="1.5" d="M8 852.453L151 852.453"/><path fill="#FEFECE" filter="url(#a)" stroke="#A80036" stroke-width="1.5" d="M569.5 812.453H751.5V860.453H569.5z"/><ellipse cx="584.5" cy="828.453" fill="#B4A7E5" rx="11" ry="11" stroke="#A80036" stroke-width="1.0"/><path d="M585.453 825.234h1.719c.39 0 .578-.03.703-.109a.838.838 0 0 0 .406-.734.858.858 0 0 0-.343-.703c-.172-.11-.313-.141-.766-.141h-5.14c-.438 0-.563.015-.72.11a.893.893 0 0 0-.406.734c0 .28.14.53.36.703.156.11.343.14.765.14h1.719v6.516h-1.719c-.437 0-.562.016-.718.125a.872.872 0 0 0-.407.734c0 .25.14.516.36.672.156.125.359.172.765.172h5.14c.75 0 1.11-.281 1.11-.844a.838.838 0 0 0-.343-.703c-.172-.125-.313-.156-.766-.156h-1.719v-6.516z"/><text font-family="sans-serif" font-size="12" font-style="italic" lengthAdjust="spacingAndGlyphs" textLength="150" x="598.5" y="832.607">AnnotatedBeanDefinition</text><path stroke="#A80036" stroke-width="1.5" d="M570.5 844.453L750.5 844.453"/><path stroke="#A80036" stroke-width="1.5" d="M570.5 852.453L750.5 852.453"/><path fill="#FEFECE" filter="url(#a)" stroke="#A80036" stroke-width="1.5" d="M187 805.953H334V866.7579999999999H187z"/><ellipse cx="202" cy="821.953" fill="#ADD1B2" rx="11" ry="11" stroke="#A80036" stroke-width="1.0"/><path d="M204.344 817.625c-.938-.438-1.531-.578-2.406-.578-2.625 0-4.625 2.078-4.625 4.797v1.125c0 2.578 2.109 4.468 5 4.468 1.218 0 2.375-.296 3.125-.843.578-.407.906-.86.906-1.25a.864.864 0 0 0-.86-.844.831.831 0 0 0-.609.266c-.453.484-.453.484-.64.578-.423.265-1.11.39-1.876.39-2.047 0-3.343-1.093-3.343-2.797v-1.093c0-1.782 1.25-3.094 2.984-3.094.578 0 1.188.156 1.656.406.485.282.656.5.75.907.063.406.094.53.235.656.14.14.375.25.593.25a.92.92 0 0 0 .703-.36c.11-.156.141-.343.141-.765v-1.422c0-.438-.016-.563-.11-.719a.838.838 0 0 0-.734-.406c-.297 0-.5.094-.718.406l-.172-.078z"/><text font-family="sans-serif" font-size="12" lengthAdjust="spacingAndGlyphs" textLength="115" x="216" y="826.107">ChildBeanDefinition</text><path stroke="#A80036" stroke-width="1.5" d="M188 837.953L333 837.953"/><text font-family="sans-serif" font-size="11" lengthAdjust="spacingAndGlyphs" textLength="111" x="193" y="852.164">String parentName;</text><path stroke="#A80036" stroke-width="1.5" d="M188 858.758L333 858.758"/><path fill="#FEFECE" filter="url(#a)" stroke="#A80036" stroke-width="1.5" d="M369 805.953H534V866.7579999999999H369z"/><ellipse cx="384" cy="821.953" fill="#ADD1B2" rx="11" ry="11" stroke="#A80036" stroke-width="1.0"/><path d="M386.344 817.625c-.938-.438-1.531-.578-2.406-.578-2.625 0-4.625 2.078-4.625 4.797v1.125c0 2.578 2.109 4.468 5 4.468 1.218 0 2.375-.296 3.125-.843.578-.407.906-.86.906-1.25a.864.864 0 0 0-.86-.844.831.831 0 0 0-.609.266c-.453.484-.453.484-.64.578-.423.265-1.11.39-1.876.39-2.046 0-3.343-1.093-3.343-2.797v-1.093c0-1.782 1.25-3.094 2.984-3.094.578 0 1.188.156 1.656.406.485.282.656.5.75.907.063.406.094.53.235.656.14.14.375.25.593.25a.92.92 0 0 0 .704-.36c.109-.156.14-.343.14-.765v-1.422c0-.438-.015-.563-.11-.719a.838.838 0 0 0-.734-.406c-.296 0-.5.094-.718.406l-.172-.078z"/><text font-family="sans-serif" font-size="12" lengthAdjust="spacingAndGlyphs" textLength="133" x="398" y="826.107">GenericBeanDefinition</text><path stroke="#A80036" stroke-width="1.5" d="M370 837.953L533 837.953"/><path fill="none" stroke="#C82930" stroke-width="1.0" d="M377 845.953H383V851.953H377z"/><text font-family="sans-serif" font-size="11" lengthAdjust="spacingAndGlyphs" textLength="108" x="389" y="852.164">String parentName</text><path stroke="#A80036" stroke-width="1.5" d="M370 858.758L533 858.758"/><path fill="#FEFECE" filter="url(#a)" stroke="#A80036" stroke-width="1.5" d="M311 933.453H528V994.2579999999999H311z"/><ellipse cx="326" cy="949.453" fill="#ADD1B2" rx="11" ry="11" stroke="#A80036" stroke-width="1.0"/><path d="M328.344 945.125c-.938-.438-1.531-.578-2.406-.578-2.625 0-4.625 2.078-4.625 4.797v1.125c0 2.578 2.109 4.468 5 4.468 1.218 0 2.375-.296 3.125-.843.578-.407.906-.86.906-1.25a.864.864 0 0 0-.86-.844.831.831 0 0 0-.609.266c-.453.484-.453.484-.64.578-.423.265-1.11.39-1.876.39-2.046 0-3.343-1.093-3.343-2.797v-1.093c0-1.782 1.25-3.094 2.984-3.094.578 0 1.188.156 1.656.406.485.282.656.5.75.907.063.406.094.53.235.656.14.14.375.25.593.25a.92.92 0 0 0 .704-.36c.109-.156.14-.343.14-.765v-1.422c0-.438-.015-.563-.11-.719a.838.838 0 0 0-.734-.406c-.296 0-.5.094-.718.406l-.172-.078z"/><text font-family="sans-serif" font-size="12" lengthAdjust="spacingAndGlyphs" textLength="185" x="340" y="953.607">ScannedGenericBeanDefinition</text><path stroke="#A80036" stroke-width="1.5" d="M312 965.453L527 965.453"/><path fill="none" stroke="#C82930" stroke-width="1.0" d="M319 973.453H325V979.453H319z"/><text font-family="sans-serif" font-size="11" lengthAdjust="spacingAndGlyphs" textLength="173" x="331" y="979.664">AnnotationMetadata metadata</text><path stroke="#A80036" stroke-width="1.5" d="M312 986.258L527 986.258"/><path fill="#FEFECE" filter="url(#a)" stroke="#A80036" stroke-width="1.5" d="M563 926.953H822V1000.562H563z"/><ellipse cx="592.85" cy="942.953" fill="#ADD1B2" rx="11" ry="11" stroke="#A80036" stroke-width="1.0"/><path d="M595.194 938.625c-.938-.438-1.531-.578-2.406-.578-2.625 0-4.625 2.078-4.625 4.797v1.125c0 2.578 2.109 4.468 5 4.468 1.218 0 2.375-.296 3.125-.843.578-.407.906-.86.906-1.25a.864.864 0 0 0-.86-.844.831.831 0 0 0-.609.266c-.453.484-.453.484-.64.578-.423.265-1.11.39-1.876.39-2.046 0-3.343-1.093-3.343-2.797v-1.093c0-1.782 1.25-3.094 2.984-3.094.578 0 1.188.156 1.656.406.485.282.657.5.75.907.063.406.094.53.235.656.14.14.375.25.593.25a.92.92 0 0 0 .704-.36c.109-.156.14-.343.14-.765v-1.422c0-.438-.015-.563-.11-.719a.838.838 0 0 0-.734-.406c-.296 0-.5.094-.718.406l-.172-.078z"/><text font-family="sans-serif" font-size="12" lengthAdjust="spacingAndGlyphs" textLength="194" x="610.15" y="947.107">AnnotatedGenericBeanDefinition</text><path stroke="#A80036" stroke-width="1.5" d="M564 958.953L821 958.953"/><path fill="none" stroke="#C82930" stroke-width="1.0" d="M571 966.953H577V972.953H571z"/><text font-family="sans-serif" font-size="11" lengthAdjust="spacingAndGlyphs" textLength="173" x="583" y="973.164">AnnotationMetadata metadata</text><path fill="none" stroke="#C82930" stroke-width="1.0" d="M571 979.758H577V985.758H571z"/><text font-family="sans-serif" font-size="11" lengthAdjust="spacingAndGlyphs" textLength="233" x="583" y="985.968">MethodMetadata factoryMethodMetadata</text><path stroke="#A80036" stroke-width="1.5" d="M564 992.563L821 992.563"/><path d="M463.936 84.084l-117.249 51.728" fill="none" stroke="#A80036" stroke-width="1.0" stroke-dasharray="7.0,7.0"/><path fill="none" stroke="#A80036" stroke-width="1.0" d="M461.158 77.6591L482.282 75.9911 466.809 90.4681 461.158 77.6591z"/><path d="M279.5 96.062v39.541" fill="none" stroke="#A80036" stroke-width="1.0" stroke-dasharray="7.0,7.0"/><path fill="none" stroke="#A80036" stroke-width="1.0" d="M272.5 95.9911L279.5 75.9911 286.5 95.9901 272.5 95.9911z"/><path d="M308.312 214.42l25.935 42.278" fill="none" stroke="#A80036" stroke-width="1.0"/><path fill="none" stroke="#A80036" stroke-width="1.0" d="M302.224 217.8831L297.733 197.1751 314.157 210.5621 302.224 217.8831z"/><path d="M455.175 203.335l-66.226 53.612" fill="none" stroke="#A80036" stroke-width="1.0" stroke-dasharray="7.0,7.0"/><path fill="none" stroke="#A80036" stroke-width="1.0" d="M450.859 197.8231L470.808 190.6801 459.667 208.7051 450.859 197.8231z"/><path d="M573.655 91.174c10.834 13.07 21.17 28.525 26.845 44.78 15.277 43.755-4.852 97.33-19.412 127.315" fill="none" stroke="#A80036" stroke-width="1.0"/><path fill="none" stroke="#A80036" stroke-width="1.0" d="M568.177 95.5521L559.978 76.0131 578.572 86.1741 568.177 95.5521z"/><path d="M523.134 208.213l31.932 55.072" fill="none" stroke="#A80036" stroke-width="1.0"/><path fill="none" stroke="#A80036" stroke-width="1.0" d="M516.944 211.4931L512.968 190.6801 529.056 204.4711 516.944 211.4931z"/><path d="M343.611 337.884l-7.158 39.81" fill="none" stroke="#A80036" stroke-width="1.0"/><path fill="none" stroke="#A80036" stroke-width="1.0" d="M336.734 336.5791L347.163 318.1341 350.513 339.0571 336.734 336.5791z"/><path d="M531.828 326.163L476.751 382.8" fill="none" stroke="#A80036" stroke-width="1.0" stroke-dasharray="7.0,7.0"/><path fill="none" stroke="#A80036" stroke-width="1.0" d="M526.944 321.1441L545.906 311.6861 536.981 330.9051 526.944 321.1441z"/><path d="M181.174 329.467l25.549 48.348" fill="none" stroke="#A80036" stroke-width="1.0" stroke-dasharray="7.0,7.0"/><path fill="none" stroke="#A80036" stroke-width="1.0" d="M174.933 332.6401L171.777 311.6861 187.311 326.0991 174.933 332.6401z"/><path d="M140.029 761.82c-16.327 19.86-30.789 37.454-41.48 50.46" fill="none" stroke="#A80036" stroke-width="1.0"/><path fill="none" stroke="#A80036" stroke-width="1.0" d="M134.738 757.2311L152.846 746.2261 145.553 766.1211 134.738 757.2311z"/><path d="M575.767 331.662l80.838 480.631" fill="none" stroke="#A80036" stroke-width="1.0"/><path fill="none" stroke="#A80036" stroke-width="1.0" d="M568.809 332.4921L572.394 311.6081 582.615 330.1691 568.809 332.4921z"/><path d="M271.457 766.02l-6.282 39.81" fill="none" stroke="#A80036" stroke-width="1.0"/><path fill="none" stroke="#A80036" stroke-width="1.0" d="M264.548 764.8911L274.58 746.2261 278.377 767.0731 264.548 764.8911z"/><path d="M412.692 764a862596.84 862596.84 0 0 1 22.719 41.83" fill="none" stroke="#A80036" stroke-width="1.0"/><path fill="none" stroke="#A80036" stroke-width="1.0" d="M406.433 767.1421L403.039 746.2261 418.736 760.4611 406.433 767.1421z"/><path d="M438.968 886.603l-11.939 46.822" fill="none" stroke="#A80036" stroke-width="1.0"/><path fill="none" stroke="#A80036" stroke-width="1.0" d="M432.192 884.8451L443.916 867.1951 445.758 888.3041 432.192 884.8451z"/><path d="M598.41 869.786l-122.225 63.649" fill="none" stroke="#A80036" stroke-width="1.0" stroke-dasharray="7.0,7.0"/><path fill="none" stroke="#A80036" stroke-width="1.0" d="M595.325 863.5011L616.297 860.4721 601.791 875.9181 595.325 863.5011z"/><path d="M526.368 876.44l96.806 50.412" fill="none" stroke="#A80036" stroke-width="1.0"/><path fill="none" stroke="#A80036" stroke-width="1.0" d="M522.814 882.4821L508.308 867.0361 529.281 870.0651 522.814 882.4821z"/><path d="M671.354 880.022l11.921 46.752" fill="none" stroke="#A80036" stroke-width="1.0" stroke-dasharray="7.0,7.0"/><path fill="none" stroke="#A80036" stroke-width="1.0" d="M664.528 881.5811L666.369 860.4721 678.094 878.1221 664.528 881.5811z"/><text fill="#888" font-family="sans-serif" font-size="20" lengthAdjust="spacingAndGlyphs" textLength="479" x="172" y="1032.127">&apos;&apos;地瓜哥&apos;&apos;博客网 · https://www.diguage.com · 出品</text></svg>