<svg height="817" width="1084" xmlns="http://www.w3.org/2000/svg"><g transform="translate(167 -123.862)"><path d="m525.236 575.139h297.501v281.018h-297.501z" fill="#cdffff" stroke="#000" stroke-dasharray="6 6" stroke-dashoffset="0pt" stroke-linecap="round"/><path d="m-78.877 575.989h565.714v280.517h-565.714z" fill="#cdffff" stroke="#000" stroke-dasharray="6 6" stroke-dashoffset="0pt" stroke-linecap="round"/><path d="m296.314 247.42h135.547v30.043h-135.547z" fill="#feff00" stroke="#000" stroke-linecap="round"/><path d="m282.027 429.469h164.122v29.945h-164.122z" fill="#00f900" stroke="#000" stroke-linecap="round"/><path d="m296.314 173.42h135.547v30.043h-135.547z" fill="#fe6500" stroke="#000" stroke-linecap="round"/><text font-family="Arial" font-size="16.7944" font-weight="bold" x="329.097" y="193.809"><tspan x="329.097" y="193.809">CLOSED</tspan></text><text font-family="Arial" font-size="14.794" font-weight="bold" x="246.634" y="191.602"><tspan x="246.634" y="191.602">(Start)</tspan></text><text font-family="Arial" font-size="14.794" font-weight="bold" x="261.277" y="222.389"><tspan x="261.277" y="222.389">LISTEN/-</tspan></text><text font-family="Arial" font-size="14.794" font-weight="bold" x="408.832" y="235.53"><tspan x="408.832" y="235.53">CLOSE/-</tspan></text><text font-family="Arial" font-size="16.7944" font-weight="bold" x="334.255" y="268.15"><tspan x="334.255" y="268.15">LISTEN</tspan></text><g fill="#0001f6" fill-rule="evenodd" stroke="#0001f6"><path d="m330.75 207.206v35.312h1v-35.312z"/><path d="m331.235 232.507-4-4 4 14 4-14z" stroke-width=".8pt"/></g><g fill-rule="evenodd" stroke="#000"><path d="m397.5 210.875h1v-1h-1zm0 4h1v-1h-1zm0 4h1v-1h-1zm0 4h1v-1h-1zm0 4h1v-1h-1zm0 4h1v-1h-1zm0 4h1v-1h-1zm0 4h1v-1h-1zm0 4h1v-1h-1z" stroke-dasharray="1 3" stroke-dashoffset="0pt"/><path d="m397.986 217.59 4 4-4-14-4 14z" stroke-width=".8pt"/></g><g fill="#0001f6" fill-rule="evenodd" stroke="#0001f6"><path d="m31.125 262.268v56.47h1v-55.47h260.438v-1z"/><path d="m31.618 308.726-4-4 4 14 4-14z" stroke-width=".8pt"/></g><g fill-rule="evenodd" stroke="#000"><path d="m330.375 281.05h1v-1h-1zm0 4h1v-1h-1zm0 4h1v-1h-1zm0 4h1v-1h-1zm0 4h1v-1h-1zm0 4h1v-1h-1zm0 4h1v-1h-1zm0 4h1v-1h-1zm0 4h1v-1h-1zm0 4h1v-1h-1zm0 4h1v-1h-1zm0 4h1v-1h-1zm0 4h1v-1h-1zm0 4h1v-1h-1zm0 4h1v-1h-1zm-222.313 1.687h1v-1h-1zm4 0h1v-1h-1zm4 0h1v-1h-1zm4 0h1v-1h-1zm4 0h1v-1h-1zm4 0h1v-1h-1zm4 0h1v-1h-1zm4 0h1v-1h-1zm4 0h1v-1h-1zm4 0h1v-1h-1zm4 0h1v-1h-1zm4 0h1v-1h-1zm4 0h1v-1h-1zm4 0h1v-1h-1zm4 0h1v-1h-1zm4 0h1v-1h-1zm4 0h1v-1h-1zm4 0h1v-1h-1zm4 0h1v-1h-1zm4 0h1v-1h-1zm4 0h1v-1h-1zm4 0h1v-1h-1zm4 0h1v-1h-1zm4 0h1v-1h-1zm4 0h1v-1h-1zm4 0h1v-1h-1zm4 0h1v-1h-1zm4 0h1v-1h-1zm4 0h1v-1h-1zm4 0h1v-1h-1zm4 0h1v-1h-1zm4 0h1v-1h-1zm4 0h1v-1h-1zm4 0h1v-1h-1zm4 0h1v-1h-1zm4 0h1v-1h-1zm4 0h1v-1h-1zm4 0h1v-1h-1zm4 0h1v-1h-1zm4 0h1v-1h-1zm4 0h1v-1h-1zm4 0h1v-1h-1zm4 0h1v-1h-1zm4 0h1v-1h-1zm4 0h1v-1h-1zm4 0h1v-1h-1zm4 0h1v-1h-1zm4 0h1v-1h-1zm4 0h1v-1h-1zm4 0h1v-1h-1zm4 0h1v-1h-1zm4 0h1v-1h-1zm4 0h1v-1h-1zm4 0h1v-1h-1zm4 0h1v-1h-1zm4 0h1v-1h-1z" stroke-dasharray="1 3" stroke-dashoffset="0pt"/><path d="m330.375 291.05 4 4-4-14-4 14z" stroke-width=".8pt"/></g><path d="m131.411 199.369h135.541v60.449h-135.541z" fill="#c0c0c0" stroke="#000" stroke-dashoffset="0pt" transform="translate(-167 123.862)"/><text font-family="Arial" font-size="16.7944" font-weight="bold" text-anchor="middle" x="31.989" y="347.249"><tspan x="31.989" y="347.249">SYN</tspan><tspan x="31.989" y="368.242">RECEIVED</tspan></text><g fill-rule="evenodd" stroke="#000"><path d="m397.094 281.063h1v-1h-1zm0 4h1v-1h-1zm0 4h1v-1h-1zm0 4h1v-1h-1zm0 4h1v-1h-1zm0 4h1v-1h-1zm0 4h1v-1h-1zm0 4h1v-1h-1zm0 4h1v-1h-1zm0 4h1v-1h-1zm0 4h1v-1h-1zm0 4h1v-1h-1zm0 4h1v-1h-1zm0 4h1v-1h-1zm0 4h1v-1h-1zm2.281 1.687h1v-1h-1zm4 0h1v-1h-1zm4 0h1v-1h-1zm4 0h1v-1h-1zm4 0h1v-1h-1zm4 0h1v-1h-1zm4 0h1v-1h-1zm4 0h1v-1h-1zm4 0h1v-1h-1zm4 0h1v-1h-1zm4 0h1v-1h-1zm4 0h1v-1h-1zm4 0h1v-1h-1zm4 0h1v-1h-1zm4 0h1v-1h-1zm4 0h1v-1h-1zm4 0h1v-1h-1zm4 0h1v-1h-1zm4 0h1v-1h-1zm4 0h1v-1h-1zm4 0h1v-1h-1zm4 0h1v-1h-1zm4 0h1v-1h-1zm4 0h1v-1h-1zm4 0h1v-1h-1zm4 0h1v-1h-1zm4 0h1v-1h-1zm4 0h1v-1h-1zm4 0h1v-1h-1zm4 0h1v-1h-1zm4 0h1v-1h-1zm4 0h1v-1h-1zm4 0h1v-1h-1zm4 0h1v-1h-1zm4 0h1v-1h-1zm4 0h1v-1h-1zm4 0h1v-1h-1zm4 0h1v-1h-1zm4 0h1v-1h-1zm4 0h1v-1h-1zm4 0h1v-1h-1zm4 0h1v-1h-1zm4 0h1v-1h-1zm4 0h1v-1h-1zm4 0h1v-1h-1zm4 0h1v-1h-1zm4 0h1v-1h-1zm4 0h1v-1h-1zm4 0h1v-1h-1zm4 0h1v-1h-1zm4 0h.594v-1h-.594z" stroke-dasharray="1 3" stroke-dashoffset="0pt"/><path d="m589.956 338.25-4 4 14-4-14-4z" stroke-width=".8pt"/></g><g fill-rule="evenodd" stroke="#000"><path d="m108.313 367.893h1v-1h-1zm4 0h1v-1h-1zm4 0h1v-1h-1zm4 0h1v-1h-1zm4 0h1v-1h-1zm4 0h1v-1h-1zm4 0h1v-1h-1zm4 0h1v-1h-1zm4 0h1v-1h-1zm4 0h1v-1h-1zm4 0h1v-1h-1zm4 0h1v-1h-1zm4 0h1v-1h-1zm4 0h1v-1h-1zm4 0h1v-1h-1zm4 0h1v-1h-1zm4 0h1v-1h-1zm4 0h1v-1h-1zm4 0h1v-1h-1zm4 0h1v-1h-1zm4 0h1v-1h-1zm4 0h1v-1h-1zm4 0h1v-1h-1zm4 0h1v-1h-1zm4 0h1v-1h-1zm4 0h1v-1h-1zm4 0h1v-1h-1zm4 0h1v-1h-1zm4 0h1v-1h-1zm4 0h1v-1h-1zm4 0h1v-1h-1zm4 0h1v-1h-1zm4 0h1v-1h-1zm4 0h1v-1h-1zm4 0h1v-1h-1zm4 0h1v-1h-1zm4 0h1v-1h-1zm4 0h1v-1h-1zm4 0h1v-1h-1zm4 0h1v-1h-1zm4 0h1v-1h-1zm4 0h1v-1h-1zm4 0h1v-1h-1zm4 0h1v-1h-1zm4 0h1v-1h-1zm4 0h1v-1h-1zm4 0h1v-1h-1zm4 0h1v-1h-1zm4 0h1v-1h-1zm4 0h1v-1h-1zm4 0h1v-1h-1zm4 0h1v-1h-1zm4 0h1v-1h-1zm4 0h1v-1h-1zm4 0h1v-1h-1zm4 0h1v-1h-1zm4 0h1v-1h-1zm4 0h1v-1h-1zm4 0h1v-1h-1zm4 0h1v-1h-1zm4 0h1v-1h-1zm4 0h1v-1h-1zm4 0h1v-1h-1zm4 0h1v-1h-1zm4 0h1v-1h-1zm4 0h1v-1h-1zm4 0h1v-1h-1zm4 0h1v-1h-1zm4 0h1v-1h-1zm4 0h1v-1h-1zm4 0h1v-1h-1zm4 0h1v-1h-1zm4 0h1v-1h-1zm4 0h1v-1h-1zm4 0h1v-1h-1zm4 0h1v-1h-1zm4 0h1v-1h-1zm4 0h1v-1h-1zm4 0h1v-1h-1zm4 0h1v-1h-1zm4 0h1v-1h-1zm4 0h1v-1h-1zm4 0h1v-1h-1zm4 0h1v-1h-1zm4 0h1v-1h-1zm4 0h1v-1h-1zm4 0h1v-1h-1zm4 0h1v-1h-1zm4 0h1v-1h-1zm4 0h1v-1h-1zm4 0h1v-1h-1zm4 0h1v-1h-1zm4 0h1v-1h-1zm4 0h1v-1h-1zm4 0h1v-1h-1zm4 0h1v-1h-1zm4 0h1v-1h-1zm4 0h1v-1h-1zm4 0h1v-1h-1zm4 0h1v-1h-1zm4 0h1v-1h-1zm4 0h1v-1h-1zm4 0h1v-1h-1zm4 0h1v-1h-1zm4 0h1v-1h-1zm4 0h1v-1h-1zm4 0h1v-1h-1zm4 0h1v-1h-1zm4 0h1v-1h-1zm4 0h1v-1h-1zm4 0h1v-1h-1zm4 0h1v-1h-1zm4 0h1v-1h-1zm4 0h1v-1h-1zm4 0h1v-1h-1zm4 0h1v-1h-1zm4 0h1v-1h-1zm4 0h1v-1h-1zm4 0h1v-1h-1zm4 0h1v-1h-1zm4 0h1v-1h-1zm4 0h1v-1h-1zm4 0h1v-1h-1zm4 0h1v-1h-1z" stroke-dasharray="1 3" stroke-dashoffset="0pt"/><path d="m115.393 367.404 4-4-14 4 14 4z" stroke-width=".8pt"/></g><path d="m604.411 323.231h135.541v60.449h-135.541z" fill="#c0c0c0" stroke="#000" stroke-dashoffset="0pt"/><text font-family="Arial" font-size="16.7944" font-weight="bold" text-anchor="middle" x="672.038" y="347.249"><tspan x="672.038" y="347.249">SYN</tspan><tspan x="672.038" y="368.242">SENT</tspan></text><g fill="#a52a2a" fill-rule="evenodd" stroke="#a52a2a"><path d="m435.656 179.456v1h269.781v138.624h1v-139.624h-270.78z"/><path d="m705.931 309.085-4-4 4 14 4-14z" stroke-width=".8pt"/></g><g fill-rule="evenodd" stroke="#000"><path d="m437.781 195.33h.969v-1h-.969zm3.969 0h1v-1h-1zm4 0h1v-1h-1zm4 0h1v-1h-1zm4 0h1v-1h-1zm4 0h1v-1h-1zm4 0h1v-1h-1zm4 0h1v-1h-1zm4 0h1v-1h-1zm4 0h1v-1h-1zm4 0h1v-1h-1zm4 0h1v-1h-1zm4 0h1v-1h-1zm4 0h1v-1h-1zm4 0h1v-1h-1zm4 0h1v-1h-1zm4 0h1v-1h-1zm4 0h1v-1h-1zm4 0h1v-1h-1zm4 0h1v-1h-1zm4 0h1v-1h-1zm4 0h1v-1h-1zm4 0h1v-1h-1zm4 0h1v-1h-1zm4 0h1v-1h-1zm4 0h1v-1h-1zm4 0h1v-1h-1zm4 0h1v-1h-1zm4 0h1v-1h-1zm4 0h1v-1h-1zm4 0h1v-1h-1zm4 0h1v-1h-1zm4 0h1v-1h-1zm4 0h1v-1h-1zm4 0h1v-1h-1zm4 0h1v-1h-1zm4 0h1v-1h-1zm4 0h1v-1h-1zm4 0h1v-1h-1zm4 0h1v-1h-1zm4 0h1v-1h-1zm4 0h1v-1h-1zm4 0h1v-1h-1zm4 0h1v-1h-1zm4 0h1v-1h-1zm4 0h1v-1h-1zm4 0h1v-1h-1zm4 0h1v-1h-1zm4 0h1v-1h-1zm4 0h1v-1h-1zm4 0h1v-1h-1zm.781 3.22h1v-1h-1zm0 4h1v-1h-1zm0 4h1v-1h-1zm0 4h1v-1h-1zm0 4h1v-1h-1zm0 4h1v-1h-1zm0 4h1v-1h-1zm0 4h1v-1h-1zm0 4h1v-1h-1zm0 4h1v-1h-1zm0 4h1v-1h-1zm0 4h1v-1h-1zm0 4h1v-1h-1zm0 4h1v-1h-1zm0 4h1v-1h-1zm0 4h1v-1h-1zm0 4h1v-1h-1zm0 4h1v-1h-1zm0 4h1v-1h-1zm0 4h1v-1h-1zm0 4h1v-1h-1zm0 4h1v-1h-1zm0 4h1v-1h-1zm0 4h1v-1h-1zm0 4h1v-1h-1zm0 4h1v-1h-1zm0 4h1v-1h-1zm0 4h1v-1h-1zm0 4h1v-1h-1zm0 4h1v-1h-1zm0 4h1v-1h-1z" stroke-dasharray="1 3" stroke-dashoffset="0pt"/><path d="m447.786 194.835 4-4-14 4 14 4z" stroke-width=".8pt"/></g><text font-family="Arial" font-size="14.794" font-weight="bold" x="467.984" y="172.875"><tspan x="467.984" y="172.875">CONNECT/</tspan></text><text font-family="Courier New" font-size="13.1193" font-style="italic" x="585.022" y="171.643"><tspan x="585.022" y="171.643">(Step 1 of the 3-way-handshake)</tspan></text><g fill-rule="evenodd" stroke="#000"><path d="m-13.531 385.393h1v-1h-1zm0 4h1v-1h-1zm0 4h1v-1h-1zm0 4h1v-1h-1zm0 4h1v-1h-1zm0 4h1v-1h-1zm0 4h1v-1h-1zm0 4h1v-1h-1zm0 4h1v-1h-1zm0 4h1v-1h-1zm0 4h1v-1h-1zm0 4h1v-1h-1zm0 4h1v-1h-1zm0 4h1v-1h-1zm0 4h1v-1h-1zm0 4h1v-1h-1zm0 4h1v-1h-1zm0 4h1v-1h-1zm0 4h1v-1h-1zm0 4h1v-1h-1zm0 4h1v-1h-1zm0 4h1v-1h-1zm0 4h1v-1h-1zm0 4h1v-1h-1zm0 4h1v-1h-1zm0 4h1v-1h-1zm0 4h1v-1h-1zm0 4h1v-1h-1zm0 4h1v-1h-1zm0 4h1v-1h-1zm0 4h1v-1h-1zm0 4h1v-1h-1zm0 4h1v-1h-1zm0 4h1v-1h-1zm0 4h1v-1h-1zm0 4h1v-1h-1zm0 4h1v-1h-1zm0 4h1v-1h-1zm0 4h1v-1h-1zm0 4h1v-1h-1zm0 4h1v-1h-1zm0 4h1v-1h-1zm0 4h1v-1h-1zm0 4h1v-1h-1zm0 4h1v-1h-1zm0 4h1v-1h-1zm0 4h1v-1h-1zm0 4h1v-1h-1zm0 4h1v-1h-1zm0 4h1v-1h-1zm0 4h1v-1h-1zm0 4h1v-1h-1zm0 4h1v-1h-1zm0 4h1v-1h-1zm0 4h1v-1h-1zm0 4h1v-1h-1zm0 4h1v-1h-1zm0 4h1v-1h-1zm0 4h1v-1h-1z" stroke-dasharray="1 3" stroke-dashoffset="0pt"/><path d="m-13.016 610.15-4-4 4 14 4-14z" stroke-width=".8pt"/></g><text font-family="Arial" font-size="14.794" x="545.984" y="172.875"><tspan x="545.984" y="172.875">SYN</tspan></text><text font-family="Arial" font-size="14.794" x="116.421" y="257.301"><tspan x="116.421" y="257.301">SYN/SYN+ACK</tspan></text><text font-family="Courier New" font-size="13.1193" font-style="italic" x="-136.58" y="255.538"><tspan x="-136.58" y="255.538">(Step 2 of the 3-way-handshake)</tspan></text><text font-family="Arial" font-size="12.8981" x="13.001" y="182.986"><tspan x="13.001" y="182.986">unusual event</tspan></text><text font-family="Arial" font-size="12.8981" x="13.001" y="196.986"><tspan x="13.001" y="196.986">client/receiver path</tspan></text><text font-family="Arial" font-size="12.8981" x="13.001" y="212.986"><tspan x="13.001" y="212.986">server/sender path</tspan></text><text font-family="Arial" font-size="13.0992" x="205.759" y="331.997"><tspan x="205.759" y="331.997">RST/-</tspan></text><text font-family="Arial" font-size="13.9348" x="234.394" y="363.315"><tspan x="234.394" y="363.315">SYN/SYN+ACK</tspan></text><text font-family="Courier New" font-size="13.1193" x="342.4" y="361.734"><tspan x="342.4" y="361.734">(simultaneous open)</tspan></text><text font-family="Arial" font-size="13.1751" x="525.936" y="437.63"><tspan x="525.936" y="437.63">SYN+ACK/ACK</tspan></text><text font-family="Courier New" font-size="13.1193" font-style="italic" x="470.861" y="457.842"><tspan x="470.861" y="457.842">(Step 3 of the 3-way-handshake)</tspan></text><text font-family="Courier New" font-size="17.0294" x="262.947" y="422.007"><tspan x="262.947" y="422.007">Data exchange occurs</tspan></text><text font-family="Arial" font-size="16.7944" font-weight="bold" x="305.217" y="448.557"><tspan x="305.217" y="448.557">ESTABLISHED</tspan></text><text font-family="Arial" font-size="14.1375" x="517.893" y="528.066"><tspan x="517.893" y="528.066">FIN/ACK</tspan></text><text font-family="Arial" font-size="12.9289" x="153.153" y="436.919"><tspan x="153.153" y="436.919">ACK/-</tspan></text><g fill="#a52a2a" fill-rule="evenodd" stroke="#a52a2a"><path d="m-78.844 193.8v1h81.75v-1z"/><path d="m-7.086 194.304-4 4 14-4-14-4z" stroke-width=".8pt"/></g><g fill="#0001f6" fill-rule="evenodd" stroke="#0001f6"><path d="m-78.844 209.813v1h81.75v-1z"/><path d="m-7.086 210.304-4 4 14-4-14-4z" stroke-width=".8pt"/></g><g fill-rule="evenodd" stroke="#000"><path d="m-78.844 180.813h1v-1h-1zm4 0h1v-1h-1zm4 0h1v-1h-1zm4 0h1v-1h-1zm4 0h1v-1h-1zm4 0h1v-1h-1zm4 0h1v-1h-1zm4 0h1v-1h-1zm4 0h1v-1h-1zm4 0h1v-1h-1zm4 0h1v-1h-1zm4 0h1v-1h-1zm4 0h1v-1h-1zm4 0h1v-1h-1zm4 0h1v-1h-1zm4 0h1v-1h-1zm4 0h1v-1h-1zm4 0h1v-1h-1zm4 0h1v-1h-1zm4 0h1v-1h-1zm4 0h1v-1h-1z" stroke-dasharray="1 3" stroke-dashoffset="0pt"/><path d="m-7.086 180.304-4 4 14-4-14-4z" stroke-width=".8pt"/></g><g font-family="Arial"><text font-size="13.0696" font-weight="bold" x="517.305" y="211.159"><tspan x="517.305" y="211.159">CLOSE/-</tspan></text><text font-size="14.794" font-weight="bold" x="456.302" y="332.169"><tspan x="456.302" y="332.169">SEND/</tspan></text><text font-size="14.794" x="502.974" y="332.172"><tspan x="502.974" y="332.172">SYN</tspan></text><text font-size="14.794" font-weight="bold" x="-5.119" y="501.02"><tspan x="-5.119" y="501.02">CLOSE/</tspan></text><text font-size="14.794" x="51.553" y="501.024"><tspan x="51.553" y="501.024">FIN</tspan></text><text font-size="14.794" font-weight="bold" x="158.953" y="529.693"><tspan x="158.953" y="529.693">CLOSE/</tspan></text><text font-size="14.794" x="215.626" y="529.697"><tspan x="215.626" y="529.697">FIN</tspan></text></g><path d="m296.314 625.42h135.547v30.043h-135.547z" fill="#feff00" stroke="#000" stroke-linecap="round"/><text font-family="Arial" font-size="16.7944" font-weight="bold" x="325.931" y="645.809"><tspan x="325.931" y="645.809">CLOSING</tspan></text><path d="m296.314 775.42h135.547v30.043h-135.547z" fill="#feff00" stroke="#000" stroke-linecap="round"/><text font-family="Arial" font-size="16.7944" font-weight="bold" x="320.654" y="795.809"><tspan x="320.654" y="795.809">TIME WAIT</tspan></text><path d="m296.314 881.42h135.547v30.043h-135.547z" fill="#fe6500" stroke="#000" stroke-linecap="round"/><text font-family="Arial" font-size="16.7944" font-weight="bold" x="329.097" y="901.809"><tspan x="329.097" y="901.809">CLOSED</tspan></text><path d="m-35.686 625.42h135.547v30.043h-135.547z" fill="#feff00" stroke="#000" stroke-linecap="round"/><text font-family="Arial" font-size="16.7944" font-weight="bold" x="-11.05" y="645.809"><tspan x="-11.05" y="645.809">FIN WAIT 1</tspan></text><path d="m-35.686 775.42h135.547v30.043h-135.547z" fill="#feff00" stroke="#000" stroke-linecap="round"/><text font-family="Arial" font-size="16.7944" font-weight="bold" x="-11.993" y="795.809"><tspan x="-11.993" y="795.809">FIN WAIT 2</tspan></text><path d="m606.314 625.42h135.547v30.043h-135.547z" fill="#feff00" stroke="#000" stroke-linecap="round"/><text font-family="Arial" font-size="16.7944" font-weight="bold" x="621.548" y="645.809"><tspan x="621.548" y="645.809">CLOSE WAIT</tspan></text><path d="m606.314 775.42h135.547v30.043h-135.547z" fill="#feff00" stroke="#000" stroke-linecap="round"/><text font-family="Arial" font-size="16.7944" font-weight="bold" x="631.282" y="795.809"><tspan x="631.282" y="795.809">LAST ACK</tspan></text><path d="m525.236 575.139h139.066v29.014h-139.066z" fill="none" stroke="#000" stroke-linecap="round"/><path d="m347.771 575.989h139.066v29.014h-139.066z" fill="none" stroke="#000" stroke-linecap="round"/><text font-family="Arial" font-size="14.794" font-weight="bold" x="679.022" y="711.844"><tspan x="679.022" y="711.844">CLOSE/</tspan></text><text font-family="Arial" font-size="14.794" x="735.694" y="711.848"><tspan x="735.694" y="711.848">FIN</tspan></text><g fill="#0001f6" fill-rule="evenodd" stroke="#0001f6"><path d="m419.844 462.987v70.938h253.25v88.03h1v-89.03h-253.25v-69.938z"/><path d="m673.58 611.956-4-4 4 14 4-14z" stroke-width=".8pt"/></g><g fill="#0001f6" fill-rule="evenodd" stroke="#0001f6"><path d="m672.125 659.08v112.345h1v-112.345z"/><path d="m672.627 761.414-4-4 4 14 4-14z" stroke-width=".8pt"/></g><g fill="#0001f6" fill-rule="evenodd" stroke="#0001f6"><path d="m672.125 808.55v88.968h-234.625v1h235.625v-89.968z"/><path d="m447.494 898.024 4-4-14 4 14 4z" stroke-width=".8pt"/></g><g fill="#a52a2a" fill-rule="evenodd" stroke="#a52a2a"><path d="m309.25 465.188v68.03h-232.25v89.032h1v-88.031h232.25v-69.032h-1z"/><path d="m77.487 612.247-4-4 4 14 4-14z" stroke-width=".8pt"/></g><g fill-rule="evenodd" stroke="#000"><path d="m103.813 633.05h1v-1h-1zm4 0h1v-1h-1zm4 0h1v-1h-1zm4 0h1v-1h-1zm4 0h1v-1h-1zm4 0h1v-1h-1zm4 0h1v-1h-1zm4 0h1v-1h-1zm4 0h1v-1h-1zm4 0h1v-1h-1zm4 0h1v-1h-1zm4 0h1v-1h-1zm4 0h1v-1h-1zm4 0h1v-1h-1zm4 0h1v-1h-1zm4 0h1v-1h-1zm4 0h1v-1h-1zm4 0h1v-1h-1zm4 0h1v-1h-1zm4 0h1v-1h-1zm4 0h1v-1h-1zm4 0h1v-1h-1zm4 0h1v-1h-1zm4 0h1v-1h-1zm4 0h1v-1h-1zm4 0h1v-1h-1zm4 0h1v-1h-1zm4 0h1v-1h-1zm4 0h1v-1h-1zm4 0h1v-1h-1zm4 0h1v-1h-1zm4 0h1v-1h-1zm4 0h1v-1h-1zm4 0h1v-1h-1zm4 0h1v-1h-1zm4 0h1v-1h-1zm4 0h1v-1h-1zm4 0h1v-1h-1zm4 0h1v-1h-1zm4 0h1v-1h-1zm4 0h1v-1h-1zm4 0h1v-1h-1zm4 0h1v-1h-1zm4 0h1v-1h-1zm4 0h1v-1h-1zm4 0h1v-1h-1zm4 0h1v-1h-1zm4 0v-1z" stroke-dasharray="1 3" stroke-dashoffset="0pt"/><path d="m281.819 632.561-4 4 14-4-14-4z" stroke-width=".8pt"/></g><g fill-rule="evenodd" stroke="#000"><path d="m103.813 648.737h1v-1h-1zm4 0h1v-1h-1zm4 0h1v-1h-1zm4 0h1v-1h-1zm4 0h1v-1h-1zm4 0h1v-1h-1zm4 0h1v-1h-1zm4 0h1v-1h-1zm4 0h1v-1h-1zm4 0h1v-1h-1zm4 0h1v-1h-1zm4 0h1v-1h-1zm4 0h1v-1h-1zm4 0h1v-1h-1zm4 0h1v-1h-1zm4 0h1v-1h-1zm4 0h1v-1h-1zm4 0h1v-1h-1zm4 0h1v-1h-1zm4 0h1v-1h-1zm4 0h1v-1h-1zm4 0h1v-1h-1zm4 0h1v-1h-1zm4 0h1v-1h-1zm4 0h1v-1h-1zm4 0h1v-1h-1zm.906 3.094h1v-1h-1zm0 4h1v-1h-1zm0 4h1v-1h-1zm0 4h1v-1h-1zm0 4h1v-1h-1zm0 4h1v-1h-1zm0 4h1v-1h-1zm0 4h1v-1h-1zm0 4h1v-1h-1zm0 4h1v-1h-1zm0 4h1v-1h-1zm0 4h1v-1h-1zm0 4h1v-1h-1zm0 4h1v-1h-1zm0 4h1v-1h-1zm0 4h1v-1h-1zm0 4h1v-1h-1zm0 4h1v-1h-1zm0 4h1v-1h-1zm0 4h1v-1h-1zm0 4h1v-1h-1zm0 4h1v-1h-1zm0 4h1v-1h-1zm0 4h1v-1h-1zm0 4h1v-1h-1zm0 4h1v-1h-1zm0 4h1v-1h-1zm0 4h1v-1h-1zm0 4h1v-1h-1zm0 4h1v-1h-1zm0 4h1v-1h-1zm0 4h1v-1h-1zm0 4h1v-1h-1zm.5 3h-.5v.75h1.281v-1h-.781zm3.781.75h1v-1h-1zm4 0h1v-1h-1zm4 0h1v-1h-1zm4 0h1v-1h-1zm4 0h1v-1h-1zm4 0h1v-1h-1zm4 0h1v-1h-1zm4 0h1v-1h-1zm4 0h1v-1h-1zm4 0h1v-1h-1zm4 0h1v-1h-1zm4 0h1v-1h-1zm4 0h1v-1h-1zm4 0h1v-1h-1zm4 0h1v-1h-1zm4 0h1v-1h-1zm4 0h1v-1h-1zm4 0h1v-1h-1zm4 0h1v-1h-1zm4 0h1v-1h-1zm4 0h1v-1h-1z" stroke-dasharray="1 3" stroke-dashoffset="0pt"/><path d="m281.819 783.08-4 4 14-4-14-4z" stroke-width=".8pt"/></g><text font-family="Arial" font-size="12.7856" x="165.623" y="624.824"><tspan x="165.623" y="624.824">FIN/ACK</tspan></text><text font-family="Arial" font-size="12.7856" x="108.961" y="668.411"><tspan x="108.961" y="668.411">FIN+ACK/ACK</tspan></text><text font-family="Arial" font-size="12.7856" x="-9.885" y="711.416"><tspan x="-9.885" y="711.416">ACK/-</tspan></text><g fill-rule="evenodd" stroke="#000"><path d="m364.125 660.094h1v-1h-1zm0 4h1v-1h-1zm0 4h1v-1h-1zm0 4h1v-1h-1zm0 4h1v-1h-1zm0 4h1v-1h-1zm0 4h1v-1h-1zm0 4h1v-1h-1zm0 4h1v-1h-1zm0 4h1v-1h-1zm0 4h1v-1h-1zm0 4h1v-1h-1zm0 4h1v-1h-1zm0 4h1v-1h-1zm0 4h1v-1h-1zm0 4h1v-1h-1zm0 4h1v-1h-1zm0 4h1v-1h-1zm0 4h1v-1h-1zm0 4h1v-1h-1zm0 4h1v-1h-1zm0 4h1v-1h-1zm0 4h1v-1h-1zm0 4h1v-1h-1zm0 4h1v-1h-1zm0 4h1v-1h-1zm0 4h1v-1h-1zm0 4h1v-1h-1zm0 3.312h1v-.312h-1z" stroke-dasharray="1 3" stroke-dashoffset="0pt"/><path d="m364.627 761.414-4-4 4 14 4-14z" stroke-width=".8pt"/></g><g fill="#a52a2a" fill-rule="evenodd" stroke="#a52a2a"><path d="m31.25 659.862v112.188h1v-112.188z"/><path d="m31.754 762.038-4-4 4 14 4-14z" stroke-width=".8pt"/></g><g fill="#a52a2a" fill-rule="evenodd" stroke="#a52a2a"><path d="m104.094 797.112v1h186.844v-1z"/><path d="m280.947 797.608-4 4 14-4-14-4z" stroke-width=".8pt"/></g><text font-family="Arial" font-size="12.7856" x="165.914" y="813.989"><tspan x="165.914" y="813.989">FIN/ACK</tspan></text><g fill="#a52a2a" fill-rule="evenodd" stroke="#a52a2a"><path d="m363.688 808.956v69.437h1v-69.437z"/><path d="m364.172 868.388-4-4 4 14 4-14z" stroke-width=".8pt"/></g><text font-family="Arial" font-size="14.0938" x="368.705" y="841.078"><tspan x="368.705" y="841.078">Timeout</tspan></text><text font-family="Courier New" font-size="16.9731" x="110.131" y="901.426"><tspan x="110.131" y="901.426">(Go back to start)</tspan></text><g fill="#a52a2a" fill-rule="evenodd" stroke="#a52a2a"><path d="m672.156 386.768v56.282h-220.156v1h221.156v-57.282z"/><path d="m461.998 443.555 4-4-14 4 14 4z" stroke-width=".8pt"/></g><g fill="#0001f6" fill-rule="evenodd" stroke="#0001f6"><path d="m76.281 386.768v57.688h200.469v-1h-199.469v-56.688z"/><path d="m266.764 443.96-4 4 14-4-14-4z" stroke-width=".8pt"/></g><text font-family="Courier New" font-size="16.9845" x="361.706" y="594.274"><tspan x="361.706" y="594.274">Active CLOSE</tspan></text><text font-family="Courier New" font-size="16.9845" x="529.407" y="593.423"><tspan x="529.407" y="593.423">Passive CLOSE</tspan></text><text font-family="Arial" font-size="12.7856" x="371.276" y="717.472"><tspan x="371.276" y="717.472">ACK/-</tspan></text><text font-family="Arial" font-size="12.7856" x="681.988" y="835.355"><tspan x="681.988" y="835.355">ACK/-</tspan></text></g></svg>