<svg xmlns="http://www.w3.org/2000/svg" xmlns:xlink="http://www.w3.org/1999/xlink" width="600" height="550" version="1"><defs><marker orient="auto" id="b" overflow="visible"><path d="M-1.2 0l-1 1 3.5-1-3.5-1 1 1z" fill-rule="evenodd" stroke="#000000" stroke-width=".2pt"/></marker><marker orient="auto" id="a" overflow="visible"><path d="M1.2 0l1-1-3.5 1 3.5 1-1-1z" fill-rule="evenodd" stroke="#000000" stroke-width=".2pt"/></marker></defs><g transform="translate(-83.196 -46.156)"><path style="marker:none" d="M397.782 651.235a162.892 189.761 0 1 1-24.905-276.044l-98.031 151.55z" transform="matrix(1.56503 0 0 1.34343 -78.048 -382.265)" fill="#ffff78" fill-opacity="0.76078431" stroke="#000000" stroke-width="1.37930691" stroke-linecap="round" stroke-linejoin="bevel" overflow="visible"/><path style="marker:none" d="M427.914 591.643a162.892 189.761 0 0 1-30.132 59.592L274.846 526.741z" transform="matrix(1.56503 0 0 1.34343 -78.048 -382.588)" fill="#ee0000" stroke="#000000" stroke-width="1.37930691" stroke-linecap="round" stroke-linejoin="bevel" overflow="visible"/><path style="marker:none" d="M436.846 546.576a162.892 189.761 0 0 1-8.932 45.067L274.846 526.74z" transform="matrix(1.56503 0 0 1.34343 -78.048 -382.588)" fill="#de3f3f" stroke="#000000" stroke-width="1.37930691" stroke-linecap="round" stroke-linejoin="bevel" overflow="visible"/><path style="marker:none" d="M431.428 474.436a162.892 189.761 0 0 1 5.418 72.14l-162-19.835z" transform="matrix(1.56503 0 0 1.34343 -78.048 -382.588)" fill="#8b93ae" fill-opacity="0.87058824" stroke="#000000" stroke-width="1.37930691" stroke-linecap="round" stroke-linejoin="bevel" overflow="visible"/><path style="marker:none" d="M372.877 375.19a162.892 189.761 0 0 1 58.55 99.246L274.847 526.74z" transform="matrix(1.56503 0 0 1.34343 -78.048 -382.588)" fill="#6fe734" fill-opacity="0.87843137" stroke="#000000" stroke-width="1.37930691" stroke-linecap="round" stroke-linejoin="bevel" overflow="visible"/><path d="M524.056 96.897L352.215 324.931" fill="none" stroke="#000000" stroke-width="2" stroke-linecap="round"/><path d="M654.39 237.962l-302.204 87.445m283.887 29.281l-284-29.538" fill="none" stroke="#000000" stroke-width="2" stroke-linecap="round"/><path d="M589.478 531.553l-237.652-206.2" fill="none" stroke="#000000" stroke-width="1.99999988" stroke-linecap="round"/><path style="marker:none" id="c" d="M436.694 548.192a162.892 189.761 0 0 1-37.961 101.757" transform="matrix(1.72153 0 0 1.47778 -120.565 -452.597)" fill="#000000" fill-opacity="0" stroke="#009100" stroke-width="1.25391543" stroke-linecap="round" stroke-linejoin="bevel" marker-start="url(#a)" marker-end="url(#b)" overflow="visible"/><path style="marker:none" d="M430.656 471.396a162.892 189.761 0 0 1-34.808 182.384" transform="matrix(1.83108 0 0 1.57182 -133.263 -498.942)" fill="none" stroke="#8e00ff" stroke-width="1.17889488" stroke-linecap="round" stroke-linejoin="bevel" marker-start="url(#a)" marker-end="url(#b)" overflow="visible"/><path style="marker:none" d="M396.33 653.156a162.892 189.761 0 0 1-121.547 63.346" transform="matrix(1.17377 0 0 1.00757 29.487 -205.678)" fill="none" stroke="#ff0000" stroke-width="3.67815161" stroke-linejoin="bevel" marker-end="url(#b)" overflow="visible"/></g><g transform="translate(-83.196 -46.156)" stroke-width="1px"><text style="text-align:start;line-height:125%;-inkscape-font-specification:Arial" x="619.316" y="107.787" transform="rotate(30.104)" font-size="10px" fill="#000000" font-family="Arial"><tspan x="619.316" y="107.787">Unfilled buffer</tspan></text><text style="text-align:start;line-height:125%;-inkscape-font-specification:Arial" x="572.53" y="202.819" transform="rotate(16.171)" font-size="10px" fill="#000000" font-family="Arial"><tspan x="572.53" y="202.819">Data received,</tspan><tspan x="572.53" y="215.319">but not acknowledged</tspan></text><text style="text-align:start;line-height:125%;-inkscape-font-specification:Arial" x="218.017" y="464.969" transform="rotate(-34.191)" font-size="10px" fill="#000000" font-family="Arial"><tspan x="218.017" y="464.969">Data received, acknowledged</tspan><tspan x="218.017" y="477.469">and delivered to application</tspan></text><text style="line-height:125%" x="237.901" y="129.134" font-size="12px" fill="#000000" font-family="Bitstream Vera Sans"><tspan x="237.901" y="129.134" style="text-align:start;line-height:125%;-inkscape-font-specification:Arial" font-size="16px" font-family="Arial">Sequence numbers</tspan><tspan x="237.901" y="149.134" style="text-align:start;line-height:125%;-inkscape-font-specification:Arial" font-size="16px" font-family="Arial">(Circumference = 0 to 2^32 slots)</tspan></text><text style="text-align:start;line-height:125%;-inkscape-font-specification:Arial" x="448.714" y="311.934" font-size="10px" fill="#000000" font-family="Arial"><tspan x="448.714" y="311.934">Data received, acknowledged,</tspan><tspan x="448.714" y="324.434">but not yet delivered to application</tspan></text><text style="text-align:start;line-height:114.99999762%;-inkscape-font-specification:Arial" x="527.575" y="100.059" font-size="16px" fill="#000000" font-family="Arial"><tspan x="527.575" y="100.059">Initial</tspan><tspan x="527.575" y="118.459">sequence</tspan><tspan x="527.575" y="136.859">number</tspan></text><text style="text-align:start;line-height:125%;-inkscape-font-specification:Arial" x="535.129" y="545.524" font-size="14px" fill="#8e00ff" font-family="Arial"><tspan x="535.129" y="545.524">Receiver&apos;s window</tspan><tspan x="535.129" y="563.024">(Allocation buffer)</tspan><tspan x="535.129" y="580.524">Up to 2^16-1 slots</tspan></text><text style="text-align:start;line-height:125%;-inkscape-font-specification:Arial" x="343.222" y="472.444" font-size="16px" fill="#ff0000" font-family="Arial"><tspan x="343.222" y="472.444" font-size="18px">Window</tspan><tspan x="343.222" y="494.944" font-size="18px">shifts</tspan></text><text style="text-align:start;line-height:125%;-inkscape-font-specification:Arial" transform="rotate(3.585 292.313 402.1)" font-size="14.00000095px" fill="#009100" font-family="Arial"><textPath xlink:href="#c"><tspan>rwnd advertisement</tspan></textPath></text></g></svg>