<svg xmlns="http://www.w3.org/2000/svg" version="1" width="1084" height="817"><g transform="translate(167 -123.862)"><path fill="rgb(205, 255, 255)" stroke="rgb(0, 0, 0)" stroke-linecap="round" stroke-dasharray="6, 6" stroke-dashoffset="0pt" d="M525.236 575.139H822.737V856.1569999999999H525.236z"/><path fill="rgb(205, 255, 255)" stroke="rgb(0, 0, 0)" stroke-linecap="round" stroke-dasharray="6, 6" stroke-dashoffset="0pt" d="M-78.877 575.989H486.83700000000005V856.5060000000001H-78.877z"/><path fill="rgb(254, 255, 0)" stroke="rgb(0, 0, 0)" stroke-linecap="round" d="M296.314 247.42H431.861V277.46299999999997H296.314z"/><path fill="rgb(0, 249, 0)" stroke="rgb(0, 0, 0)" stroke-linecap="round" d="M282.027 429.469H446.149V459.414H282.027z"/><path fill="rgb(254, 101, 0)" stroke="rgb(0, 0, 0)" stroke-linecap="round" d="M296.314 173.42H431.861V203.463H296.314z"/><text x="329.097" y="193.809" font-size="16.7944px" font-weight="bold" fill="rgb(0, 0, 0)" stroke-width="1px" font-family="Arial"><tspan x="329.097" y="193.809">CLOSED</tspan></text><text x="246.634" y="191.602" font-size="14.794px" font-weight="bold" fill="rgb(0, 0, 0)" stroke-width="1px" font-family="Arial"><tspan x="246.634" y="191.602">(Start)</tspan></text><text x="261.277" y="222.389" font-size="14.794px" font-weight="bold" fill="rgb(0, 0, 0)" stroke-width="1px" font-family="Arial"><tspan x="261.277" y="222.389">LISTEN/-</tspan></text><text x="408.832" y="235.53" font-size="14.794px" font-weight="bold" fill="rgb(0, 0, 0)" stroke-width="1px" font-family="Arial"><tspan x="408.832" y="235.53">CLOSE/-</tspan></text><text x="334.255" y="268.15" font-size="16.7944px" font-weight="bold" fill="rgb(0, 0, 0)" stroke-width="1px" font-family="Arial"><tspan x="334.255" y="268.15">LISTEN</tspan></text><g fill="rgb(0, 1, 246)" stroke="rgb(0, 1, 246)" fill-rule="evenodd"><path d="M330.75 207.206v35.312h1v-35.312h-1z"/><path d="M331.235 232.507l-4-4 4 14 4-14-4 4z" stroke-width="0.8pt"/></g><g fill="rgb(0, 0, 0)" stroke="rgb(0, 0, 0)" fill-rule="evenodd"><path d="M397.5 210.875h1v-1h-1v1zm0 4h1v-1h-1v1zm0 4h1v-1h-1v1zm0 4h1v-1h-1v1zm0 4h1v-1h-1v1zm0 4h1v-1h-1v1zm0 4h1v-1h-1v1zm0 4h1v-1h-1v1zm0 4h1v-1h-1v1z" stroke-dasharray="1, 3" stroke-dashoffset="0pt"/><path d="M397.986 217.59l4 4-4-14-4 14 4-4z" stroke-width="0.8pt"/></g><g fill="rgb(0, 1, 246)" stroke="rgb(0, 1, 246)" fill-rule="evenodd"><path d="M31.125 262.268v56.47h1v-55.47h260.438v-1H31.125z" stroke-width="1px"/><path d="M31.618 308.726l-4-4 4 14 4-14-4 4z" stroke-width="0.8pt"/></g><g fill="rgb(0, 0, 0)" stroke="rgb(0, 0, 0)" fill-rule="evenodd"><path d="M330.375 281.05h1v-1h-1v1zm0 4h1v-1h-1v1zm0 4h1v-1h-1v1zm0 4h1v-1h-1v1zm0 4h1v-1h-1v1zm0 4h1v-1h-1v1zm0 4h1v-1h-1v1zm0 4h1v-1h-1v1zm0 4h1v-1h-1v1zm0 4h1v-1h-1v1zm0 4h1v-1h-1v1zm0 4h1v-1h-1v1zm0 4h1v-1h-1v1zm0 4h1v-1h-1v1zm0 4h1v-1h-1v1zm-222.313 1.687h1v-1h-1v1zm4 0h1v-1h-1v1zm4 0h1v-1h-1v1zm4 0h1v-1h-1v1zm4 0h1v-1h-1v1zm4 0h1v-1h-1v1zm4 0h1v-1h-1v1zm4 0h1v-1h-1v1zm4 0h1v-1h-1v1zm4 0h1v-1h-1v1zm4 0h1v-1h-1v1zm4 0h1v-1h-1v1zm4 0h1v-1h-1v1zm4 0h1v-1h-1v1zm4 0h1v-1h-1v1zm4 0h1v-1h-1v1zm4 0h1v-1h-1v1zm4 0h1v-1h-1v1zm4 0h1v-1h-1v1zm4 0h1v-1h-1v1zm4 0h1v-1h-1v1zm4 0h1v-1h-1v1zm4 0h1v-1h-1v1zm4 0h1v-1h-1v1zm4 0h1v-1h-1v1zm4 0h1v-1h-1v1zm4 0h1v-1h-1v1zm4 0h1v-1h-1v1zm4 0h1v-1h-1v1zm4 0h1v-1h-1v1zm4 0h1v-1h-1v1zm4 0h1v-1h-1v1zm4 0h1v-1h-1v1zm4 0h1v-1h-1v1zm4 0h1v-1h-1v1zm4 0h1v-1h-1v1zm4 0h1v-1h-1v1zm4 0h1v-1h-1v1zm4 0h1v-1h-1v1zm4 0h1v-1h-1v1zm4 0h1v-1h-1v1zm4 0h1v-1h-1v1zm4 0h1v-1h-1v1zm4 0h1v-1h-1v1zm4 0h1v-1h-1v1zm4 0h1v-1h-1v1zm4 0h1v-1h-1v1zm4 0h1v-1h-1v1zm4 0h1v-1h-1v1zm4 0h1v-1h-1v1zm4 0h1v-1h-1v1zm4 0h1v-1h-1v1zm4 0h1v-1h-1v1zm4 0h1v-1h-1v1zm4 0h1v-1h-1v1zm4 0h1v-1h-1v1z" stroke-dasharray="1, 3" stroke-dashoffset="0pt"/><path d="M330.375 291.05l4 4-4-14-4 14 4-4z" stroke-width="0.8pt"/></g><path transform="translate(-167 123.862)" fill="rgb(192, 192, 192)" stroke="rgb(0, 0, 0)" stroke-dashoffset="0pt" d="M131.411 199.369H266.952V259.818H131.411z"/><text x="31.989" y="347.249" style="text-align:center" font-size="16.7944px" font-weight="bold" text-anchor="middle" fill="rgb(0, 0, 0)" stroke-width="1px" font-family="Arial"><tspan x="31.989" y="347.249">SYN</tspan><tspan x="31.989" y="368.242">RECEIVED</tspan></text><g fill="rgb(0, 0, 0)" stroke="rgb(0, 0, 0)" fill-rule="evenodd"><path d="M397.094 281.063h1v-1h-1v1zm0 4h1v-1h-1v1zm0 4h1v-1h-1v1zm0 4h1v-1h-1v1zm0 4h1v-1h-1v1zm0 4h1v-1h-1v1zm0 4h1v-1h-1v1zm0 4h1v-1h-1v1zm0 4h1v-1h-1v1zm0 4h1v-1h-1v1zm0 4h1v-1h-1v1zm0 4h1v-1h-1v1zm0 4h1v-1h-1v1zm0 4h1v-1h-1v1zm0 4h1v-1h-1v1zm2.281 1.687h1v-1h-1v1zm4 0h1v-1h-1v1zm4 0h1v-1h-1v1zm4 0h1v-1h-1v1zm4 0h1v-1h-1v1zm4 0h1v-1h-1v1zm4 0h1v-1h-1v1zm4 0h1v-1h-1v1zm4 0h1v-1h-1v1zm4 0h1v-1h-1v1zm4 0h1v-1h-1v1zm4 0h1v-1h-1v1zm4 0h1v-1h-1v1zm4 0h1v-1h-1v1zm4 0h1v-1h-1v1zm4 0h1v-1h-1v1zm4 0h1v-1h-1v1zm4 0h1v-1h-1v1zm4 0h1v-1h-1v1zm4 0h1v-1h-1v1zm4 0h1v-1h-1v1zm4 0h1v-1h-1v1zm4 0h1v-1h-1v1zm4 0h1v-1h-1v1zm4 0h1v-1h-1v1zm4 0h1v-1h-1v1zm4 0h1v-1h-1v1zm4 0h1v-1h-1v1zm4 0h1v-1h-1v1zm4 0h1v-1h-1v1zm4 0h1v-1h-1v1zm4 0h1v-1h-1v1zm4 0h1v-1h-1v1zm4 0h1v-1h-1v1zm4 0h1v-1h-1v1zm4 0h1v-1h-1v1zm4 0h1v-1h-1v1zm4 0h1v-1h-1v1zm4 0h1v-1h-1v1zm4 0h1v-1h-1v1zm4 0h1v-1h-1v1zm4 0h1v-1h-1v1zm4 0h1v-1h-1v1zm4 0h1v-1h-1v1zm4 0h1v-1h-1v1zm4 0h1v-1h-1v1zm4 0h1v-1h-1v1zm4 0h1v-1h-1v1zm4 0h1v-1h-1v1zm4 0h1v-1h-1v1zm4 0h.594v-1h-.594v1z" stroke-dasharray="1, 3" stroke-dashoffset="0pt"/><path d="M589.956 338.25l-4 4 14-4-14-4 4 4z" stroke-width="0.8pt"/></g><g fill="rgb(0, 0, 0)" stroke="rgb(0, 0, 0)" fill-rule="evenodd"><path d="M108.313 367.893h1v-1h-1v1zm4 0h1v-1h-1v1zm4 0h1v-1h-1v1zm4 0h1v-1h-1v1zm4 0h1v-1h-1v1zm4 0h1v-1h-1v1zm4 0h1v-1h-1v1zm4 0h1v-1h-1v1zm4 0h1v-1h-1v1zm4 0h1v-1h-1v1zm4 0h1v-1h-1v1zm4 0h1v-1h-1v1zm4 0h1v-1h-1v1zm4 0h1v-1h-1v1zm4 0h1v-1h-1v1zm4 0h1v-1h-1v1zm4 0h1v-1h-1v1zm4 0h1v-1h-1v1zm4 0h1v-1h-1v1zm4 0h1v-1h-1v1zm4 0h1v-1h-1v1zm4 0h1v-1h-1v1zm4 0h1v-1h-1v1zm4 0h1v-1h-1v1zm4 0h1v-1h-1v1zm4 0h1v-1h-1v1zm4 0h1v-1h-1v1zm4 0h1v-1h-1v1zm4 0h1v-1h-1v1zm4 0h1v-1h-1v1zm4 0h1v-1h-1v1zm4 0h1v-1h-1v1zm4 0h1v-1h-1v1zm4 0h1v-1h-1v1zm4 0h1v-1h-1v1zm4 0h1v-1h-1v1zm4 0h1v-1h-1v1zm4 0h1v-1h-1v1zm4 0h1v-1h-1v1zm4 0h1v-1h-1v1zm4 0h1v-1h-1v1zm4 0h1v-1h-1v1zm4 0h1v-1h-1v1zm4 0h1v-1h-1v1zm4 0h1v-1h-1v1zm4 0h1v-1h-1v1zm4 0h1v-1h-1v1zm4 0h1v-1h-1v1zm4 0h1v-1h-1v1zm4 0h1v-1h-1v1zm4 0h1v-1h-1v1zm4 0h1v-1h-1v1zm4 0h1v-1h-1v1zm4 0h1v-1h-1v1zm4 0h1v-1h-1v1zm4 0h1v-1h-1v1zm4 0h1v-1h-1v1zm4 0h1v-1h-1v1zm4 0h1v-1h-1v1zm4 0h1v-1h-1v1zm4 0h1v-1h-1v1zm4 0h1v-1h-1v1zm4 0h1v-1h-1v1zm4 0h1v-1h-1v1zm4 0h1v-1h-1v1zm4 0h1v-1h-1v1zm4 0h1v-1h-1v1zm4 0h1v-1h-1v1zm4 0h1v-1h-1v1zm4 0h1v-1h-1v1zm4 0h1v-1h-1v1zm4 0h1v-1h-1v1zm4 0h1v-1h-1v1zm4 0h1v-1h-1v1zm4 0h1v-1h-1v1zm4 0h1v-1h-1v1zm4 0h1v-1h-1v1zm4 0h1v-1h-1v1zm4 0h1v-1h-1v1zm4 0h1v-1h-1v1zm4 0h1v-1h-1v1zm4 0h1v-1h-1v1zm4 0h1v-1h-1v1zm4 0h1v-1h-1v1zm4 0h1v-1h-1v1zm4 0h1v-1h-1v1zm4 0h1v-1h-1v1zm4 0h1v-1h-1v1zm4 0h1v-1h-1v1zm4 0h1v-1h-1v1zm4 0h1v-1h-1v1zm4 0h1v-1h-1v1zm4 0h1v-1h-1v1zm4 0h1v-1h-1v1zm4 0h1v-1h-1v1zm4 0h1v-1h-1v1zm4 0h1v-1h-1v1zm4 0h1v-1h-1v1zm4 0h1v-1h-1v1zm4 0h1v-1h-1v1zm4 0h1v-1h-1v1zm4 0h1v-1h-1v1zm4 0h1v-1h-1v1zm4 0h1v-1h-1v1zm4 0h1v-1h-1v1zm4 0h1v-1h-1v1zm4 0h1v-1h-1v1zm4 0h1v-1h-1v1zm4 0h1v-1h-1v1zm4 0h1v-1h-1v1zm4 0h1v-1h-1v1zm4 0h1v-1h-1v1zm4 0h1v-1h-1v1zm4 0h1v-1h-1v1zm4 0h1v-1h-1v1zm4 0h1v-1h-1v1zm4 0h1v-1h-1v1zm4 0h1v-1h-1v1zm4 0h1v-1h-1v1zm4 0h1v-1h-1v1zm4 0h1v-1h-1v1zm4 0h1v-1h-1v1zm4 0h1v-1h-1v1zm4 0h1v-1h-1v1z" stroke-dasharray="1, 3" stroke-dashoffset="0pt"/><path d="M115.393 367.404l4-4-14 4 14 4-4-4z" stroke-width="0.8pt"/></g><path fill="rgb(192, 192, 192)" stroke="rgb(0, 0, 0)" stroke-dashoffset="0pt" d="M604.411 323.231H739.952V383.68H604.411z"/><text x="672.038" y="347.249" style="text-align:center" font-size="16.7944px" font-weight="bold" text-anchor="middle" fill="rgb(0, 0, 0)" stroke-width="1px" font-family="Arial"><tspan x="672.038" y="347.249">SYN</tspan><tspan x="672.038" y="368.242">SENT</tspan></text><g fill="rgb(165, 42, 42)" stroke="rgb(165, 42, 42)" fill-rule="evenodd"><path d="M435.656 179.456v1h269.781V319.08h1V179.456h-270.78z" stroke-width="1px"/><path d="M705.931 309.085l-4-4 4 14 4-14-4 4z" stroke-width="0.8pt"/></g><g fill="rgb(0, 0, 0)" stroke="rgb(0, 0, 0)" fill-rule="evenodd"><path d="M437.781 195.33h.969v-1h-.969v1zm3.969 0h1v-1h-1v1zm4 0h1v-1h-1v1zm4 0h1v-1h-1v1zm4 0h1v-1h-1v1zm4 0h1v-1h-1v1zm4 0h1v-1h-1v1zm4 0h1v-1h-1v1zm4 0h1v-1h-1v1zm4 0h1v-1h-1v1zm4 0h1v-1h-1v1zm4 0h1v-1h-1v1zm4 0h1v-1h-1v1zm4 0h1v-1h-1v1zm4 0h1v-1h-1v1zm4 0h1v-1h-1v1zm4 0h1v-1h-1v1zm4 0h1v-1h-1v1zm4 0h1v-1h-1v1zm4 0h1v-1h-1v1zm4 0h1v-1h-1v1zm4 0h1v-1h-1v1zm4 0h1v-1h-1v1zm4 0h1v-1h-1v1zm4 0h1v-1h-1v1zm4 0h1v-1h-1v1zm4 0h1v-1h-1v1zm4 0h1v-1h-1v1zm4 0h1v-1h-1v1zm4 0h1v-1h-1v1zm4 0h1v-1h-1v1zm4 0h1v-1h-1v1zm4 0h1v-1h-1v1zm4 0h1v-1h-1v1zm4 0h1v-1h-1v1zm4 0h1v-1h-1v1zm4 0h1v-1h-1v1zm4 0h1v-1h-1v1zm4 0h1v-1h-1v1zm4 0h1v-1h-1v1zm4 0h1v-1h-1v1zm4 0h1v-1h-1v1zm4 0h1v-1h-1v1zm4 0h1v-1h-1v1zm4 0h1v-1h-1v1zm4 0h1v-1h-1v1zm4 0h1v-1h-1v1zm4 0h1v-1h-1v1zm4 0h1v-1h-1v1zm4 0h1v-1h-1v1zm4 0h1v-1h-1v1zm.781 3.22h1v-1h-1v1zm0 4h1v-1h-1v1zm0 4h1v-1h-1v1zm0 4h1v-1h-1v1zm0 4h1v-1h-1v1zm0 4h1v-1h-1v1zm0 4h1v-1h-1v1zm0 4h1v-1h-1v1zm0 4h1v-1h-1v1zm0 4h1v-1h-1v1zm0 4h1v-1h-1v1zm0 4h1v-1h-1v1zm0 4h1v-1h-1v1zm0 4h1v-1h-1v1zm0 4h1v-1h-1v1zm0 4h1v-1h-1v1zm0 4h1v-1h-1v1zm0 4h1v-1h-1v1zm0 4h1v-1h-1v1zm0 4h1v-1h-1v1zm0 4h1v-1h-1v1zm0 4h1v-1h-1v1zm0 4h1v-1h-1v1zm0 4h1v-1h-1v1zm0 4h1v-1h-1v1zm0 4h1v-1h-1v1zm0 4h1v-1h-1v1zm0 4h1v-1h-1v1zm0 4h1v-1h-1v1zm0 4h1v-1h-1v1zm0 4h1v-1h-1v1z" stroke-dasharray="1, 3" stroke-dashoffset="0pt"/><path d="M447.786 194.835l4-4-14 4 14 4-4-4z" stroke-width="0.8pt"/></g><text x="467.984" y="172.875" font-size="14.794px" font-weight="bold" fill="rgb(0, 0, 0)" stroke-width="1px" font-family="Arial"><tspan x="467.984" y="172.875">CONNECT/</tspan></text><text x="585.022" y="171.643" font-size="13.1193px" font-style="italic" fill="rgb(0, 0, 0)" stroke-width="1px" font-family="Courier New"><tspan x="585.022" y="171.643">(Step 1 of the 3-way-handshake)</tspan></text><g fill="rgb(0, 0, 0)" stroke="rgb(0, 0, 0)" fill-rule="evenodd"><path d="M-13.531 385.393h1v-1h-1v1zm0 4h1v-1h-1v1zm0 4h1v-1h-1v1zm0 4h1v-1h-1v1zm0 4h1v-1h-1v1zm0 4h1v-1h-1v1zm0 4h1v-1h-1v1zm0 4h1v-1h-1v1zm0 4h1v-1h-1v1zm0 4h1v-1h-1v1zm0 4h1v-1h-1v1zm0 4h1v-1h-1v1zm0 4h1v-1h-1v1zm0 4h1v-1h-1v1zm0 4h1v-1h-1v1zm0 4h1v-1h-1v1zm0 4h1v-1h-1v1zm0 4h1v-1h-1v1zm0 4h1v-1h-1v1zm0 4h1v-1h-1v1zm0 4h1v-1h-1v1zm0 4h1v-1h-1v1zm0 4h1v-1h-1v1zm0 4h1v-1h-1v1zm0 4h1v-1h-1v1zm0 4h1v-1h-1v1zm0 4h1v-1h-1v1zm0 4h1v-1h-1v1zm0 4h1v-1h-1v1zm0 4h1v-1h-1v1zm0 4h1v-1h-1v1zm0 4h1v-1h-1v1zm0 4h1v-1h-1v1zm0 4h1v-1h-1v1zm0 4h1v-1h-1v1zm0 4h1v-1h-1v1zm0 4h1v-1h-1v1zm0 4h1v-1h-1v1zm0 4h1v-1h-1v1zm0 4h1v-1h-1v1zm0 4h1v-1h-1v1zm0 4h1v-1h-1v1zm0 4h1v-1h-1v1zm0 4h1v-1h-1v1zm0 4h1v-1h-1v1zm0 4h1v-1h-1v1zm0 4h1v-1h-1v1zm0 4h1v-1h-1v1zm0 4h1v-1h-1v1zm0 4h1v-1h-1v1zm0 4h1v-1h-1v1zm0 4h1v-1h-1v1zm0 4h1v-1h-1v1zm0 4h1v-1h-1v1zm0 4h1v-1h-1v1zm0 4h1v-1h-1v1zm0 4h1v-1h-1v1zm0 4h1v-1h-1v1zm0 4h1v-1h-1v1z" stroke-dasharray="1, 3" stroke-dashoffset="0pt"/><path d="M-13.016 610.15l-4-4 4 14 4-14-4 4z" stroke-width="0.8pt"/></g><text x="545.984" y="172.875" font-size="14.794px" fill="rgb(0, 0, 0)" stroke-width="1px" font-family="Arial"><tspan x="545.984" y="172.875">SYN</tspan></text><text x="116.421" y="257.301" font-size="14.794px" fill="rgb(0, 0, 0)" stroke-width="1px" font-family="Arial"><tspan x="116.421" y="257.301">SYN/SYN+ACK</tspan></text><text x="-136.58" y="255.538" font-size="13.1193px" font-style="italic" fill="rgb(0, 0, 0)" stroke-width="1px" font-family="Courier New"><tspan x="-136.58" y="255.538">(Step 2 of the 3-way-handshake)</tspan></text><text x="13.001" y="182.986" font-size="12.8981px" fill="rgb(0, 0, 0)" stroke-width="1px" font-family="Arial"><tspan x="13.001" y="182.986">unusual event</tspan></text><text x="13.001" y="196.986" font-size="12.8981px" fill="rgb(0, 0, 0)" stroke-width="1px" font-family="Arial"><tspan x="13.001" y="196.986">client/receiver path</tspan></text><text x="13.001" y="212.986" font-size="12.8981px" fill="rgb(0, 0, 0)" stroke-width="1px" font-family="Arial"><tspan x="13.001" y="212.986">server/sender path</tspan></text><text x="205.759" y="331.997" font-size="13.0992px" fill="rgb(0, 0, 0)" stroke-width="1px" font-family="Arial"><tspan x="205.759" y="331.997">RST/-</tspan></text><text x="234.394" y="363.315" font-size="13.9348px" fill="rgb(0, 0, 0)" stroke-width="1px" font-family="Arial"><tspan x="234.394" y="363.315">SYN/SYN+ACK</tspan></text><text x="342.4" y="361.734" font-size="13.1193px" fill="rgb(0, 0, 0)" stroke-width="1px" font-family="Courier New"><tspan x="342.4" y="361.734">(simultaneous open)</tspan></text><text x="525.936" y="437.63" font-size="13.1751px" fill="rgb(0, 0, 0)" stroke-width="1px" font-family="Arial"><tspan x="525.936" y="437.63">SYN+ACK/ACK</tspan></text><text x="470.861" y="457.842" font-size="13.1193px" font-style="italic" fill="rgb(0, 0, 0)" stroke-width="1px" font-family="Courier New"><tspan x="470.861" y="457.842">(Step 3 of the 3-way-handshake)</tspan></text><text x="262.947" y="422.007" font-size="17.0294px" fill="rgb(0, 0, 0)" stroke-width="1px" font-family="Courier New"><tspan x="262.947" y="422.007">Data exchange occurs</tspan></text><text x="305.217" y="448.557" font-size="16.7944px" font-weight="bold" fill="rgb(0, 0, 0)" stroke-width="1px" font-family="Arial"><tspan x="305.217" y="448.557">ESTABLISHED</tspan></text><text x="517.893" y="528.066" font-size="14.1375px" fill="rgb(0, 0, 0)" stroke-width="1px" font-family="Arial"><tspan x="517.893" y="528.066">FIN/ACK</tspan></text><text x="153.153" y="436.919" font-size="12.9289px" fill="rgb(0, 0, 0)" stroke-width="1px" font-family="Arial"><tspan x="153.153" y="436.919">ACK/-</tspan></text><g fill="rgb(165, 42, 42)" stroke="rgb(165, 42, 42)" fill-rule="evenodd"><path d="M-78.844 193.8v1h81.75v-1h-81.75z" stroke-width="1px"/><path d="M-7.086 194.304l-4 4 14-4-14-4 4 4z" stroke-width="0.8pt"/></g><g fill="rgb(0, 1, 246)" stroke="rgb(0, 1, 246)" fill-rule="evenodd"><path d="M-78.844 209.813v1h81.75v-1h-81.75z" stroke-width="1px"/><path d="M-7.086 210.304l-4 4 14-4-14-4 4 4z" stroke-width="0.8pt"/></g><g fill="rgb(0, 0, 0)" stroke="rgb(0, 0, 0)" fill-rule="evenodd"><path d="M-78.844 180.813h1v-1h-1v1zm4 0h1v-1h-1v1zm4 0h1v-1h-1v1zm4 0h1v-1h-1v1zm4 0h1v-1h-1v1zm4 0h1v-1h-1v1zm4 0h1v-1h-1v1zm4 0h1v-1h-1v1zm4 0h1v-1h-1v1zm4 0h1v-1h-1v1zm4 0h1v-1h-1v1zm4 0h1v-1h-1v1zm4 0h1v-1h-1v1zm4 0h1v-1h-1v1zm4 0h1v-1h-1v1zm4 0h1v-1h-1v1zm4 0h1v-1h-1v1zm4 0h1v-1h-1v1zm4 0h1v-1h-1v1zm4 0h1v-1h-1v1zm4 0h1v-1h-1v1z" stroke-dasharray="1, 3" stroke-dashoffset="0pt"/><path d="M-7.086 180.304l-4 4 14-4-14-4 4 4z" stroke-width="0.8pt"/></g><text x="517.305" y="211.159" font-size="13.0696px" font-weight="bold" fill="rgb(0, 0, 0)" stroke-width="1px" font-family="Arial"><tspan x="517.305" y="211.159">CLOSE/-</tspan></text><text x="456.302" y="332.169" font-size="14.794px" font-weight="bold" fill="rgb(0, 0, 0)" stroke-width="1px" font-family="Arial"><tspan x="456.302" y="332.169">SEND/</tspan></text><text x="502.974" y="332.172" font-size="14.794px" fill="rgb(0, 0, 0)" stroke-width="1px" font-family="Arial"><tspan x="502.974" y="332.172">SYN</tspan></text><text x="-5.119" y="501.02" font-size="14.794px" font-weight="bold" fill="rgb(0, 0, 0)" stroke-width="1px" font-family="Arial"><tspan x="-5.119" y="501.02">CLOSE/</tspan></text><text x="51.553" y="501.024" font-size="14.794px" fill="rgb(0, 0, 0)" stroke-width="1px" font-family="Arial"><tspan x="51.553" y="501.024">FIN</tspan></text><text x="158.953" y="529.693" font-size="14.794px" font-weight="bold" fill="rgb(0, 0, 0)" stroke-width="1px" font-family="Arial"><tspan x="158.953" y="529.693">CLOSE/</tspan></text><text x="215.626" y="529.697" font-size="14.794px" fill="rgb(0, 0, 0)" stroke-width="1px" font-family="Arial"><tspan x="215.626" y="529.697">FIN</tspan></text><path fill="rgb(254, 255, 0)" stroke="rgb(0, 0, 0)" stroke-linecap="round" d="M296.314 625.42H431.861V655.463H296.314z"/><text x="325.931" y="645.809" font-size="16.7944px" font-weight="bold" fill="rgb(0, 0, 0)" stroke-width="1px" font-family="Arial"><tspan x="325.931" y="645.809">CLOSING</tspan></text><path fill="rgb(254, 255, 0)" stroke="rgb(0, 0, 0)" stroke-linecap="round" d="M296.314 775.42H431.861V805.463H296.314z"/><text x="320.654" y="795.809" font-size="16.7944px" font-weight="bold" fill="rgb(0, 0, 0)" stroke-width="1px" font-family="Arial"><tspan x="320.654" y="795.809">TIME WAIT</tspan></text><path fill="rgb(254, 101, 0)" stroke="rgb(0, 0, 0)" stroke-linecap="round" d="M296.314 881.42H431.861V911.463H296.314z"/><text x="329.097" y="901.809" font-size="16.7944px" font-weight="bold" fill="rgb(0, 0, 0)" stroke-width="1px" font-family="Arial"><tspan x="329.097" y="901.809">CLOSED</tspan></text><path fill="rgb(254, 255, 0)" stroke="rgb(0, 0, 0)" stroke-linecap="round" d="M-35.686 625.42H99.86099999999999V655.463H-35.686z"/><text x="-11.05" y="645.809" font-size="16.7944px" font-weight="bold" fill="rgb(0, 0, 0)" stroke-width="1px" font-family="Arial"><tspan x="-11.05" y="645.809">FIN WAIT 1</tspan></text><path fill="rgb(254, 255, 0)" stroke="rgb(0, 0, 0)" stroke-linecap="round" d="M-35.686 775.42H99.86099999999999V805.463H-35.686z"/><text x="-11.993" y="795.809" font-size="16.7944px" font-weight="bold" fill="rgb(0, 0, 0)" stroke-width="1px" font-family="Arial"><tspan x="-11.993" y="795.809">FIN WAIT 2</tspan></text><path fill="rgb(254, 255, 0)" stroke="rgb(0, 0, 0)" stroke-linecap="round" d="M606.314 625.42H741.861V655.463H606.314z"/><text x="621.548" y="645.809" font-size="16.7944px" font-weight="bold" fill="rgb(0, 0, 0)" stroke-width="1px" font-family="Arial"><tspan x="621.548" y="645.809">CLOSE WAIT</tspan></text><path fill="rgb(254, 255, 0)" stroke="rgb(0, 0, 0)" stroke-linecap="round" d="M606.314 775.42H741.861V805.463H606.314z"/><text x="631.282" y="795.809" font-size="16.7944px" font-weight="bold" fill="rgb(0, 0, 0)" stroke-width="1px" font-family="Arial"><tspan x="631.282" y="795.809">LAST ACK</tspan></text><path fill="none" stroke="rgb(0, 0, 0)" stroke-linecap="round" d="M525.236 575.139H664.302V604.153H525.236z"/><path fill="none" stroke="rgb(0, 0, 0)" stroke-linecap="round" d="M347.771 575.989H486.837V605.003H347.771z"/><text x="679.022" y="711.844" font-size="14.794px" font-weight="bold" fill="rgb(0, 0, 0)" stroke-width="1px" font-family="Arial"><tspan x="679.022" y="711.844">CLOSE/</tspan></text><text x="735.694" y="711.848" font-size="14.794px" fill="rgb(0, 0, 0)" stroke-width="1px" font-family="Arial"><tspan x="735.694" y="711.848">FIN</tspan></text><g fill="rgb(0, 1, 246)" stroke="rgb(0, 1, 246)" fill-rule="evenodd"><path d="M419.844 462.987v70.938h253.25v88.03h1v-89.03h-253.25v-69.938h-1z" stroke-width="1px"/><path d="M673.58 611.956l-4-4 4 14 4-14-4 4z" stroke-width="0.8pt"/></g><g fill="rgb(0, 1, 246)" stroke="rgb(0, 1, 246)" fill-rule="evenodd"><path d="M672.125 659.08v112.345h1V659.08h-1z" stroke-width="1px"/><path d="M672.627 761.414l-4-4 4 14 4-14-4 4z" stroke-width="0.8pt"/></g><g fill="rgb(0, 1, 246)" stroke="rgb(0, 1, 246)" fill-rule="evenodd"><path d="M672.125 808.55v88.968H437.5v1h235.625V808.55h-1z" stroke-width="1px"/><path d="M447.494 898.024l4-4-14 4 14 4-4-4z" stroke-width="0.8pt"/></g><g fill="rgb(165, 42, 42)" stroke="rgb(165, 42, 42)" fill-rule="evenodd"><path d="M309.25 465.188v68.03H77v89.032h1v-88.031h232.25v-69.032h-1z" stroke-width="1px"/><path d="M77.487 612.247l-4-4 4 14 4-14-4 4z" stroke-width="0.8pt"/></g><g fill="rgb(0, 0, 0)" stroke="rgb(0, 0, 0)" fill-rule="evenodd"><path d="M103.813 633.05h1v-1h-1v1zm4 0h1v-1h-1v1zm4 0h1v-1h-1v1zm4 0h1v-1h-1v1zm4 0h1v-1h-1v1zm4 0h1v-1h-1v1zm4 0h1v-1h-1v1zm4 0h1v-1h-1v1zm4 0h1v-1h-1v1zm4 0h1v-1h-1v1zm4 0h1v-1h-1v1zm4 0h1v-1h-1v1zm4 0h1v-1h-1v1zm4 0h1v-1h-1v1zm4 0h1v-1h-1v1zm4 0h1v-1h-1v1zm4 0h1v-1h-1v1zm4 0h1v-1h-1v1zm4 0h1v-1h-1v1zm4 0h1v-1h-1v1zm4 0h1v-1h-1v1zm4 0h1v-1h-1v1zm4 0h1v-1h-1v1zm4 0h1v-1h-1v1zm4 0h1v-1h-1v1zm4 0h1v-1h-1v1zm4 0h1v-1h-1v1zm4 0h1v-1h-1v1zm4 0h1v-1h-1v1zm4 0h1v-1h-1v1zm4 0h1v-1h-1v1zm4 0h1v-1h-1v1zm4 0h1v-1h-1v1zm4 0h1v-1h-1v1zm4 0h1v-1h-1v1zm4 0h1v-1h-1v1zm4 0h1v-1h-1v1zm4 0h1v-1h-1v1zm4 0h1v-1h-1v1zm4 0h1v-1h-1v1zm4 0h1v-1h-1v1zm4 0h1v-1h-1v1zm4 0h1v-1h-1v1zm4 0h1v-1h-1v1zm4 0h1v-1h-1v1zm4 0h1v-1h-1v1zm4 0h1v-1h-1v1zm4 0v-1 1z" stroke-dasharray="1, 3" stroke-dashoffset="0pt"/><path d="M281.819 632.561l-4 4 14-4-14-4 4 4z" stroke-width="0.8pt"/></g><g fill="rgb(0, 0, 0)" stroke="rgb(0, 0, 0)" fill-rule="evenodd"><path d="M103.813 648.737h1v-1h-1v1zm4 0h1v-1h-1v1zm4 0h1v-1h-1v1zm4 0h1v-1h-1v1zm4 0h1v-1h-1v1zm4 0h1v-1h-1v1zm4 0h1v-1h-1v1zm4 0h1v-1h-1v1zm4 0h1v-1h-1v1zm4 0h1v-1h-1v1zm4 0h1v-1h-1v1zm4 0h1v-1h-1v1zm4 0h1v-1h-1v1zm4 0h1v-1h-1v1zm4 0h1v-1h-1v1zm4 0h1v-1h-1v1zm4 0h1v-1h-1v1zm4 0h1v-1h-1v1zm4 0h1v-1h-1v1zm4 0h1v-1h-1v1zm4 0h1v-1h-1v1zm4 0h1v-1h-1v1zm4 0h1v-1h-1v1zm4 0h1v-1h-1v1zm4 0h1v-1h-1v1zm4 0h1v-1h-1v1zm.906 3.094h1v-1h-1v1zm0 4h1v-1h-1v1zm0 4h1v-1h-1v1zm0 4h1v-1h-1v1zm0 4h1v-1h-1v1zm0 4h1v-1h-1v1zm0 4h1v-1h-1v1zm0 4h1v-1h-1v1zm0 4h1v-1h-1v1zm0 4h1v-1h-1v1zm0 4h1v-1h-1v1zm0 4h1v-1h-1v1zm0 4h1v-1h-1v1zm0 4h1v-1h-1v1zm0 4h1v-1h-1v1zm0 4h1v-1h-1v1zm0 4h1v-1h-1v1zm0 4h1v-1h-1v1zm0 4h1v-1h-1v1zm0 4h1v-1h-1v1zm0 4h1v-1h-1v1zm0 4h1v-1h-1v1zm0 4h1v-1h-1v1zm0 4h1v-1h-1v1zm0 4h1v-1h-1v1zm0 4h1v-1h-1v1zm0 4h1v-1h-1v1zm0 4h1v-1h-1v1zm0 4h1v-1h-1v1zm0 4h1v-1h-1v1zm0 4h1v-1h-1v1zm0 4h1v-1h-1v1zm0 4h1v-1h-1v1zm.5 3h-.5v.75H206v-1h-.781v.25zm3.781.75h1v-1h-1v1zm4 0h1v-1h-1v1zm4 0h1v-1h-1v1zm4 0h1v-1h-1v1zm4 0h1v-1h-1v1zm4 0h1v-1h-1v1zm4 0h1v-1h-1v1zm4 0h1v-1h-1v1zm4 0h1v-1h-1v1zm4 0h1v-1h-1v1zm4 0h1v-1h-1v1zm4 0h1v-1h-1v1zm4 0h1v-1h-1v1zm4 0h1v-1h-1v1zm4 0h1v-1h-1v1zm4 0h1v-1h-1v1zm4 0h1v-1h-1v1zm4 0h1v-1h-1v1zm4 0h1v-1h-1v1zm4 0h1v-1h-1v1zm4 0h1v-1h-1v1z" stroke-dasharray="1, 3" stroke-dashoffset="0pt"/><path d="M281.819 783.08l-4 4 14-4-14-4 4 4z" stroke-width="0.8pt"/></g><text x="165.623" y="624.824" font-size="12.7856px" fill="rgb(0, 0, 0)" stroke-width="1px" font-family="Arial"><tspan x="165.623" y="624.824">FIN/ACK</tspan></text><text x="108.961" y="668.411" font-size="12.7856px" fill="rgb(0, 0, 0)" stroke-width="1px" font-family="Arial"><tspan x="108.961" y="668.411">FIN+ACK/ACK</tspan></text><text x="-9.885" y="711.416" font-size="12.7856px" fill="rgb(0, 0, 0)" stroke-width="1px" font-family="Arial"><tspan x="-9.885" y="711.416">ACK/-</tspan></text><g fill="rgb(0, 0, 0)" stroke="rgb(0, 0, 0)" fill-rule="evenodd"><path d="M364.125 660.094h1v-1h-1v1zm0 4h1v-1h-1v1zm0 4h1v-1h-1v1zm0 4h1v-1h-1v1zm0 4h1v-1h-1v1zm0 4h1v-1h-1v1zm0 4h1v-1h-1v1zm0 4h1v-1h-1v1zm0 4h1v-1h-1v1zm0 4h1v-1h-1v1zm0 4h1v-1h-1v1zm0 4h1v-1h-1v1zm0 4h1v-1h-1v1zm0 4h1v-1h-1v1zm0 4h1v-1h-1v1zm0 4h1v-1h-1v1zm0 4h1v-1h-1v1zm0 4h1v-1h-1v1zm0 4h1v-1h-1v1zm0 4h1v-1h-1v1zm0 4h1v-1h-1v1zm0 4h1v-1h-1v1zm0 4h1v-1h-1v1zm0 4h1v-1h-1v1zm0 4h1v-1h-1v1zm0 4h1v-1h-1v1zm0 4h1v-1h-1v1zm0 4h1v-1h-1v1zm0 3.312h1v-.312h-1v.312z" stroke-dasharray="1, 3" stroke-dashoffset="0pt"/><path d="M364.627 761.414l-4-4 4 14 4-14-4 4z" stroke-width="0.8pt"/></g><g fill="rgb(165, 42, 42)" stroke="rgb(165, 42, 42)" fill-rule="evenodd"><path d="M31.25 659.862V772.05h1V659.862h-1z" stroke-width="1px"/><path d="M31.754 762.038l-4-4 4 14 4-14-4 4z" stroke-width="0.8pt"/></g><g fill="rgb(165, 42, 42)" stroke="rgb(165, 42, 42)" fill-rule="evenodd"><path d="M104.094 797.112v1h186.844v-1H104.094z" stroke-width="1px"/><path d="M280.947 797.608l-4 4 14-4-14-4 4 4z" stroke-width="0.8pt"/></g><text x="165.914" y="813.989" font-size="12.7856px" fill="rgb(0, 0, 0)" stroke-width="1px" font-family="Arial"><tspan x="165.914" y="813.989">FIN/ACK</tspan></text><g fill="rgb(165, 42, 42)" stroke="rgb(165, 42, 42)" fill-rule="evenodd"><path d="M363.688 808.956v69.437h1v-69.437h-1z" stroke-width="1px"/><path d="M364.172 868.388l-4-4 4 14 4-14-4 4z" stroke-width="0.8pt"/></g><text x="368.705" y="841.078" font-size="14.0938px" fill="rgb(0, 0, 0)" stroke-width="1px" font-family="Arial"><tspan x="368.705" y="841.078">Timeout</tspan></text><text x="110.131" y="901.426" font-size="16.9731px" fill="rgb(0, 0, 0)" stroke-width="1px" font-family="Courier New"><tspan x="110.131" y="901.426">(Go back to start)</tspan></text><g fill="rgb(165, 42, 42)" stroke="rgb(165, 42, 42)" fill-rule="evenodd"><path d="M672.156 386.768v56.282H452v1h221.156v-57.282h-1z" stroke-width="1px"/><path d="M461.998 443.555l4-4-14 4 14 4-4-4z" stroke-width="0.8pt"/></g><g fill="rgb(0, 1, 246)" stroke="rgb(0, 1, 246)" fill-rule="evenodd"><path d="M76.281 386.768v57.688H276.75v-1H77.281v-56.688h-1z" stroke-width="1px"/><path d="M266.764 443.96l-4 4 14-4-14-4 4 4z" stroke-width="0.8pt"/></g><text x="361.706" y="594.274" font-size="16.9845px" fill="rgb(0, 0, 0)" stroke-width="1px" font-family="Courier New"><tspan x="361.706" y="594.274">Active CLOSE</tspan></text><text x="529.407" y="593.423" font-size="16.9845px" fill="rgb(0, 0, 0)" stroke-width="1px" font-family="Courier New"><tspan x="529.407" y="593.423">Passive CLOSE</tspan></text><text x="371.276" y="717.472" font-size="12.78559971px" fill="#000000" stroke-width="1px" font-family="Arial"><tspan x="371.276" y="717.472">ACK/-</tspan></text><text x="681.988" y="835.355" font-size="12.78559971px" fill="#000000" stroke-width="1px" font-family="Arial"><tspan x="681.988" y="835.355">ACK/-</tspan></text></g></svg>