<svg height="550" width="600" xmlns="http://www.w3.org/2000/svg" xmlns:xlink="http://www.w3.org/1999/xlink"><marker id="a" orient="auto" overflow="visible"><path d="m-1.2 0-1 1 3.5-1-3.5-1z" fill-rule="evenodd" stroke="#000" stroke-width=".2pt"/></marker><marker id="b" orient="auto" overflow="visible"><path d="m1.2 0 1-1-3.5 1 3.5 1z" fill-rule="evenodd" stroke="#000" stroke-width=".2pt"/></marker><g transform="translate(-83.196 -46.156)"><g><path d="m397.782 651.235a162.892 189.761 0 1 1 -24.905-276.044l-98.031 151.55z" style="fill:#ffff78;fill-opacity:.760784;stroke:#000;stroke-width:1.379307;stroke-linecap:round;stroke-linejoin:bevel" transform="matrix(1.56503 0 0 1.34343 -78.048 -382.265)"/><path d="m427.914 591.643a162.892 189.761 0 0 1 -30.132 59.592l-122.936-124.494z" fill="#e00" stroke="#000" stroke-linecap="round" stroke-linejoin="bevel" stroke-width="1.379307" transform="matrix(1.56503 0 0 1.34343 -78.048 -382.588)"/><path d="m436.846 546.576a162.892 189.761 0 0 1 -8.932 45.067l-153.068-64.903z" fill="#de3f3f" stroke="#000" stroke-linecap="round" stroke-linejoin="bevel" stroke-width="1.379307" transform="matrix(1.56503 0 0 1.34343 -78.048 -382.588)"/><path d="m431.428 474.436a162.892 189.761 0 0 1 5.418 72.14l-162-19.835z" style="fill:#8b93ae;fill-opacity:.870588;stroke:#000;stroke-width:1.379307;stroke-linecap:round;stroke-linejoin:bevel" transform="matrix(1.56503 0 0 1.34343 -78.048 -382.588)"/><path d="m372.877 375.19a162.892 189.761 0 0 1 58.55 99.246l-156.58 52.304z" style="fill:#6fe734;fill-opacity:.878431;stroke:#000;stroke-width:1.379307;stroke-linecap:round;stroke-linejoin:bevel" transform="matrix(1.56503 0 0 1.34343 -78.048 -382.588)"/><path d="m524.056 96.897-171.841 228.034" fill="none" stroke="#000" stroke-linecap="round" stroke-width="2"/><path d="m654.39 237.962-302.204 87.445m283.887 29.281-284-29.538" fill="none" stroke="#000" stroke-linecap="round" stroke-width="2"/><path d="m589.478 531.553-237.652-206.2" fill="none" stroke="#000" stroke-linecap="round" stroke-width="2"/><path id="c" d="m436.694 548.192a162.892 189.761 0 0 1 -37.961 101.757" style="stroke:#009100;stroke-width:1.253915;stroke-linecap:round;stroke-linejoin:bevel;marker-start:url(#b);marker-end:url(#a);fill:none" transform="matrix(1.72153 0 0 1.47778 -120.565 -452.597)"/><g fill="none" marker-end="url(#a)" stroke-linejoin="bevel"><path d="m430.656 471.396a162.892 189.761 0 0 1 -34.808 182.384" marker-start="url(#b)" stroke="#8e00ff" stroke-linecap="round" stroke-width="1.178895" transform="matrix(1.83108 0 0 1.57182 -133.263 -498.942)"/><path d="m396.33 653.156a162.892 189.761 0 0 1 -121.547 63.346" stroke="#f00" stroke-width="3.678152" transform="matrix(1.17377 0 0 1.00757 29.487 -205.678)"/></g></g><g><text font-family="Arial" font-size="10" transform="matrix(.86511641 .50157113 -.50157113 .86511641 0 0)" x="619.316" y="107.787"><tspan x="619.316" y="107.787">Unfilled buffer</tspan></text><text font-family="Arial" font-size="10" transform="matrix(.96043477 .27850502 -.27850502 .96043477 0 0)" x="572.53" y="202.819"><tspan x="572.53" y="202.819">Data received,</tspan><tspan x="572.53" y="215.319">but not acknowledged</tspan></text><text font-family="Arial" font-size="10" transform="matrix(.82716886 -.56195345 .56195345 .82716886 0 0)" x="218.017" y="464.969"><tspan x="218.017" y="464.969">Data received, acknowledged</tspan><tspan x="218.017" y="477.469">and delivered to application</tspan></text><text font-family="Bitstream Vera Sans" font-size="12" x="237.901" y="129.134"><tspan font-family="Arial" font-size="16" x="237.901" y="129.134">Sequence numbers</tspan><tspan font-family="Arial" font-size="16" x="237.901" y="149.134">(Circumference = 0 to 2^32 slots)</tspan></text><g font-family="Arial"><text font-size="10" x="448.714" y="311.934"><tspan x="448.714" y="311.934">Data received, acknowledged,</tspan><tspan x="448.714" y="324.434">but not yet delivered to application</tspan></text><text font-size="16" x="527.575" y="100.059"><tspan x="527.575" y="100.059">Initial</tspan><tspan x="527.575" y="118.459">sequence</tspan><tspan x="527.575" y="136.859">number</tspan></text><text fill="#8e00ff" font-size="14" x="535.129" y="545.524"><tspan x="535.129" y="545.524">Receiver's window</tspan><tspan x="535.129" y="563.024">(Allocation buffer)</tspan><tspan x="535.129" y="580.524">Up to 2^16-1 slots</tspan></text><text fill="#f00" font-size="16" x="343.222" y="472.444"><tspan font-size="18" x="343.222" y="472.444">Window</tspan><tspan font-size="18" x="343.222" y="494.944">shifts</tspan></text><text fill="#009100" font-size="14.000001" transform="matrix(.99804313 .06252923 -.06252923 .99804313 25.715023 -17.491252)"><textPath xlink:href="#c"><tspan>rwnd advertisement</tspan></textPath></text></g></g></g></svg>