<?xml version="1.0" encoding="UTF-8" standalone="no"?><svg xmlns="http://www.w3.org/2000/svg" xmlns:xlink="http://www.w3.org/1999/xlink" contentStyleType="text/css" height="444px" preserveAspectRatio="none" style="width:736px;height:444px;background:#FFFFFF;" version="1.1" viewBox="0 0 736 444" width="736px" zoomAndPan="magnify"><defs/><g><rect height="52.3984" style="stroke:#00000000;stroke-width:1.0;fill:none;" width="718" x="5" y="5"/><text fill="#000000" font-family="'Source" font-size="36" font-weight="bold" lengthAdjust="spacing" textLength="708" x="10" y="44.8047">Hessian AbstractSerializerFactory 类图</text><!--MD5=[58e8cfe03e652d9b9e2d1201250d0be2]
class AbstractSerializerFactory--><g id="elem_AbstractSerializerFactory"><rect codeLine="3" fill="#F1F1F1" height="113.5977" id="AbstractSerializerFactory" rx="2.5" ry="2.5" style="stroke:#181818;stroke-width:0.5;" width="346" x="194.75" y="70.3984"/><ellipse cx="256.25" cy="87.3984" fill="#A9DCDF" rx="12" ry="12" style="stroke:#181818;stroke-width:1.0;"/><path d="M256.1641,82.6494 L254.9424,88.0195 L257.3945,88.0195 Z M254.582,80.2764 L257.7549,80.2764 L261.2969,93.3984 L258.7041,93.3984 L257.8955,90.1553 L254.4238,90.1553 L253.6328,93.3984 L251.04,93.3984 Z " fill="#000000"/><text fill="#000000" font-family="sans-serif" font-size="18" font-style="italic" lengthAdjust="spacing" textLength="214" x="278.25" y="94.2012">AbstractSerializerFactory</text><line style="stroke:#181818;stroke-width:0.5;" x1="195.75" x2="539.75" y1="104.3984" y2="104.3984"/><line style="stroke:#181818;stroke-width:0.5;" x1="195.75" x2="539.75" y1="112.3984" y2="112.3984"/><ellipse cx="205.75" cy="123.3984" fill="#84BE84" rx="3" ry="3" style="stroke:#038048;stroke-width:1.0;"/><text fill="#000000" font-family="sans-serif" font-size="18" lengthAdjust="spacing" textLength="275" x="215.75" y="133.8008">Serializer getSerializer(Class cl);</text><text fill="#000000" font-family="sans-serif" font-size="18" lengthAdjust="spacing" textLength="6" x="215.75" y="155"> </text><ellipse cx="205.75" cy="165.7969" fill="#84BE84" rx="3" ry="3" style="stroke:#038048;stroke-width:1.0;"/><text fill="#000000" font-family="sans-serif" font-size="18" lengthAdjust="spacing" textLength="319" x="215.75" y="176.1992">Deserializer getDeserializer(Class cl);</text></g><!--MD5=[1c3498ab52a67c80a0d2f000d29096e9]
class ExtSerializerFactory--><g id="elem_ExtSerializerFactory"><rect codeLine="9" fill="#F1F1F1" height="50" id="ExtSerializerFactory" rx="2.5" ry="2.5" style="stroke:#181818;stroke-width:0.5;" width="204" x="40.75" y="244.3984"/><ellipse cx="56.75" cy="261.3984" fill="#ADD1B2" rx="12" ry="12" style="stroke:#181818;stroke-width:1.0;"/><path d="M59.251,267.5205 Q58.6357,267.8369 57.959,267.9951 Q57.2822,268.1533 56.5352,268.1533 Q53.8809,268.1533 52.4834,266.4043 Q51.0859,264.6553 51.0859,261.3506 Q51.0859,258.0371 52.4834,256.2881 Q53.8809,254.5391 56.5352,254.5391 Q57.2822,254.5391 57.9678,254.6973 Q58.6533,254.8555 59.251,255.1719 L59.251,258.0547 Q58.583,257.4395 57.9546,257.1538 Q57.3262,256.8682 56.6582,256.8682 Q55.2344,256.8682 54.5093,257.9976 Q53.7842,259.127 53.7842,261.3506 Q53.7842,263.5654 54.5093,264.6948 Q55.2344,265.8242 56.6582,265.8242 Q57.3262,265.8242 57.9546,265.5386 Q58.583,265.2529 59.251,264.6377 Z " fill="#000000"/><text fill="#000000" font-family="sans-serif" font-size="18" lengthAdjust="spacing" textLength="170" x="71.75" y="268.2012">ExtSerializerFactory</text><line style="stroke:#181818;stroke-width:0.5;" x1="41.75" x2="243.75" y1="278.3984" y2="278.3984"/><line style="stroke:#181818;stroke-width:0.5;" x1="41.75" x2="243.75" y1="286.3984" y2="286.3984"/></g><g id="elem_GMN5"><path d="M78.25,364.8984 L78.25,396.0977 A0,0 0 0 0 78.25,396.0977 L207.25,396.0977 A0,0 0 0 0 207.25,396.0977 L207.25,374.8984 L197.25,364.8984 L146.75,364.8984 L142.75,294.5884 L138.75,364.8984 L78.25,364.8984 A0,0 0 0 0 78.25,364.8984 " fill="#FEFFDD" style="stroke:#181818;stroke-width:0.5;"/><path d="M197.25,364.8984 L197.25,374.8984 L207.25,374.8984 L197.25,364.8984 " fill="#FEFFDD" style="stroke:#181818;stroke-width:0.5;"/><text fill="#000000" font-family="'Source" font-size="18" lengthAdjust="spacing" textLength="108" x="84.25" y="387.3008">没有被引用！</text></g><!--MD5=[0c6497a22e8a9ff169605329b1f434f9]
class SerializerFactory--><g id="elem_SerializerFactory"><rect codeLine="13" fill="#F1F1F1" height="50" id="SerializerFactory" rx="2.5" ry="2.5" style="stroke:#181818;stroke-width:0.5;" width="176" x="279.75" y="244.3984"/><ellipse cx="295.75" cy="261.3984" fill="#ADD1B2" rx="12" ry="12" style="stroke:#181818;stroke-width:1.0;"/><path d="M298.251,267.5205 Q297.6357,267.8369 296.959,267.9951 Q296.2822,268.1533 295.5352,268.1533 Q292.8809,268.1533 291.4834,266.4043 Q290.0859,264.6553 290.0859,261.3506 Q290.0859,258.0371 291.4834,256.2881 Q292.8809,254.5391 295.5352,254.5391 Q296.2822,254.5391 296.9678,254.6973 Q297.6533,254.8555 298.251,255.1719 L298.251,258.0547 Q297.583,257.4395 296.9546,257.1538 Q296.3262,256.8682 295.6582,256.8682 Q294.2344,256.8682 293.5093,257.9976 Q292.7842,259.127 292.7842,261.3506 Q292.7842,263.5654 293.5093,264.6948 Q294.2344,265.8242 295.6582,265.8242 Q296.3262,265.8242 296.9546,265.5386 Q297.583,265.2529 298.251,264.6377 Z " fill="#000000"/><text fill="#000000" font-family="sans-serif" font-size="18" lengthAdjust="spacing" textLength="142" x="310.75" y="268.2012">SerializerFactory</text><line style="stroke:#181818;stroke-width:0.5;" x1="280.75" x2="454.75" y1="278.3984" y2="278.3984"/><line style="stroke:#181818;stroke-width:0.5;" x1="280.75" x2="454.75" y1="286.3984" y2="286.3984"/></g><!--MD5=[dcb7b1cb23f7a9cd8e2312bf0295fabb]
class BeanSerializerFactory--><g id="elem_BeanSerializerFactory"><rect codeLine="15" fill="#F1F1F1" height="50" id="BeanSerializerFactory" rx="2.5" ry="2.5" style="stroke:#181818;stroke-width:0.5;" width="217" x="258.25" y="355.3984"/><ellipse cx="274.25" cy="372.3984" fill="#ADD1B2" rx="12" ry="12" style="stroke:#181818;stroke-width:1.0;"/><path d="M276.751,378.5205 Q276.1357,378.8369 275.459,378.9951 Q274.7822,379.1533 274.0352,379.1533 Q271.3809,379.1533 269.9834,377.4043 Q268.5859,375.6553 268.5859,372.3506 Q268.5859,369.0371 269.9834,367.2881 Q271.3809,365.5391 274.0352,365.5391 Q274.7822,365.5391 275.4678,365.6973 Q276.1533,365.8555 276.751,366.1719 L276.751,369.0547 Q276.083,368.4395 275.4546,368.1538 Q274.8262,367.8682 274.1582,367.8682 Q272.7344,367.8682 272.0093,368.9976 Q271.2842,370.127 271.2842,372.3506 Q271.2842,374.5654 272.0093,375.6948 Q272.7344,376.8242 274.1582,376.8242 Q274.8262,376.8242 275.4546,376.5386 Q276.083,376.2529 276.751,375.6377 Z " fill="#000000"/><text fill="#000000" font-family="sans-serif" font-size="18" lengthAdjust="spacing" textLength="183" x="289.25" y="379.2012">BeanSerializerFactory</text><line style="stroke:#181818;stroke-width:0.5;" x1="259.25" x2="474.25" y1="389.3984" y2="389.3984"/><line style="stroke:#181818;stroke-width:0.5;" x1="259.25" x2="474.25" y1="397.3984" y2="397.3984"/></g><!--MD5=[14e0f515e6f0a17061e79458b5dd0d42]
class JMXSerializerFactory--><g id="elem_JMXSerializerFactory"><rect codeLine="17" fill="#F1F1F1" height="50" id="JMXSerializerFactory" rx="2.5" ry="2.5" style="stroke:#181818;stroke-width:0.5;" width="209" x="492.25" y="244.3984"/><ellipse cx="508.25" cy="261.3984" fill="#ADD1B2" rx="12" ry="12" style="stroke:#181818;stroke-width:1.0;"/><path d="M510.751,267.5205 Q510.1357,267.8369 509.459,267.9951 Q508.7822,268.1533 508.0352,268.1533 Q505.3809,268.1533 503.9834,266.4043 Q502.5859,264.6553 502.5859,261.3506 Q502.5859,258.0371 503.9834,256.2881 Q505.3809,254.5391 508.0352,254.5391 Q508.7822,254.5391 509.4678,254.6973 Q510.1533,254.8555 510.751,255.1719 L510.751,258.0547 Q510.083,257.4395 509.4546,257.1538 Q508.8262,256.8682 508.1582,256.8682 Q506.7344,256.8682 506.0093,257.9976 Q505.2842,259.127 505.2842,261.3506 Q505.2842,263.5654 506.0093,264.6948 Q506.7344,265.8242 508.1582,265.8242 Q508.8262,265.8242 509.4546,265.5386 Q510.083,265.2529 510.751,264.6377 Z " fill="#000000"/><text fill="#000000" font-family="sans-serif" font-size="18" lengthAdjust="spacing" textLength="175" x="523.25" y="268.2012">JMXSerializerFactory</text><line style="stroke:#181818;stroke-width:0.5;" x1="493.25" x2="700.25" y1="278.3984" y2="278.3984"/><line style="stroke:#181818;stroke-width:0.5;" x1="493.25" x2="700.25" y1="286.3984" y2="286.3984"/></g><g id="elem_GMN14"><path d="M510.75,354.3984 L510.75,406.7969 A0,0 0 0 0 510.75,406.7969 L684.75,406.7969 A0,0 0 0 0 684.75,406.7969 L684.75,364.3984 L674.75,354.3984 L601.52,354.3984 L596.97,294.5884 L593.52,354.3984 L510.75,354.3984 A0,0 0 0 0 510.75,354.3984 " fill="#FEFFDD" style="stroke:#181818;stroke-width:0.5;"/><path d="M674.75,354.3984 L674.75,364.3984 L684.75,364.3984 L674.75,354.3984 " fill="#FEFFDD" style="stroke:#181818;stroke-width:0.5;"/><text fill="#000000" font-family="'Source" font-size="18" lengthAdjust="spacing" textLength="153" x="516.75" y="376.8008">序列化 JMX 对象。</text><text fill="#000000" font-family="'Source" font-size="18" lengthAdjust="spacing" textLength="108" x="516.75" y="398">没有被引用！</text></g><!--MD5=[92107c2f6172f75ffd2d31aaa87741ab]
reverse link AbstractSerializerFactory to ExtSerializerFactory--><g id="link_AbstractSerializerFactory_ExtSerializerFactory"><path d="M260.48,195.1484 C232.13,212.7784 203.34,230.6984 181.33,244.3984 " fill="none" id="AbstractSerializerFactory-backto-ExtSerializerFactory" style="stroke:#181818;stroke-width:1.0;"/><polygon fill="none" points="256.85,189.1584,277.53,184.5384,264.25,201.0484,256.85,189.1584" style="stroke:#181818;stroke-width:1.0;"/></g><!--MD5=[8fc1c8d6cb1d9ae3ceebfedbbc619d8c]
reverse link AbstractSerializerFactory to SerializerFactory--><g id="link_AbstractSerializerFactory_SerializerFactory"><path d="M367.75,204.8384 C367.75,219.1984 367.75,233.2084 367.75,244.3984 " fill="none" id="AbstractSerializerFactory-backto-SerializerFactory" style="stroke:#181818;stroke-width:1.0;"/><polygon fill="none" points="360.75,204.5384,367.75,184.5384,374.75,204.5384,360.75,204.5384" style="stroke:#181818;stroke-width:1.0;"/></g><!--MD5=[b1cda1eb068ad8f5d92d66fb9051b548]
reverse link SerializerFactory to BeanSerializerFactory--><g id="link_SerializerFactory_BeanSerializerFactory"><path d="M367.34,314.9984 C367.21,328.7784 367.08,343.4284 366.97,355.2784 " fill="none" id="SerializerFactory-backto-BeanSerializerFactory" style="stroke:#181818;stroke-width:1.0;"/><polygon fill="none" points="360.34,314.5284,367.53,294.5884,374.34,314.6484,360.34,314.5284" style="stroke:#181818;stroke-width:1.0;"/></g><!--MD5=[fa36181734a3c2a228fef080ba94f33e]
reverse link AbstractSerializerFactory to JMXSerializerFactory--><g id="link_AbstractSerializerFactory_JMXSerializerFactory"><path d="M476.93,195.1484 C505.78,212.7784 535.08,230.6984 557.49,244.3984 " fill="none" id="AbstractSerializerFactory-backto-JMXSerializerFactory" style="stroke:#181818;stroke-width:1.0;"/><polygon fill="none" points="472.99,200.9384,459.57,184.5384,480.29,188.9984,472.99,200.9384" style="stroke:#181818;stroke-width:1.0;"/></g><rect height="23.5547" style="stroke:#00000000;stroke-width:1.0;fill:none;" width="381" x="173.5" y="412.7969"/><text fill="#888888" font-family="'Source" font-size="20" lengthAdjust="spacing" textLength="381" x="173.5" y="432.1328">D瓜哥 · https://www.diguage.com · 出品</text><!--MD5=[c02d3c337868f75b14c522484c8e9b40]
@startuml
skinparamlocked defaultFontSize 18
skinparamlocked titleFontSize 36
skinparamlocked footerFontSize 20
skinparamlocked titleFontName 'Source
skinparamlocked noteFontName 'Source
skinparamlocked footerFontName 'Source
title **Hessian AbstractSerializerFactory 类图**

abstract class AbstractSerializerFactory {
  + Serializer getSerializer(Class cl);

  + Deserializer getDeserializer(Class cl);
}

class ExtSerializerFactory extends AbstractSerializerFactory

note bottom of ExtSerializerFactory : 没有被引用！

class SerializerFactory extends AbstractSerializerFactory

class BeanSerializerFactory extends SerializerFactory

class JMXSerializerFactory extends AbstractSerializerFactory

note bottom of JMXSerializerFactory : 序列化 JMX 对象。\n没有被引用！

footer D瓜哥 · https://www.diguage.com · 出品
@enduml

PlantUML version 1.2022.6(Wed Jun 22 01:34:49 CST 2022)
(GPL source distribution)
Java Runtime: OpenJDK Runtime Environment
JVM: OpenJDK 64-Bit Server VM
Default Encoding: UTF-8
Language: en
Country: CN
--></g></svg>