<?xml version="1.0" encoding="UTF-8" standalone="no"?><svg xmlns="http://www.w3.org/2000/svg" xmlns:xlink="http://www.w3.org/1999/xlink" contentStyleType="text/css" height="413px" preserveAspectRatio="none" style="width:622px;height:413px;background:#FFFFFF;" version="1.1" viewBox="0 0 622 413" width="622px" zoomAndPan="magnify"><defs/><g><rect height="45.332" style="stroke:#00000000;stroke-width:1.0;fill:none;" width="604" x="5" y="5"/><text fill="#000000" font-family="sans-serif" font-size="30" font-weight="bold" lengthAdjust="spacing" textLength="594" x="10" y="39.0039">Hessian AbstractSerializerFactory 类图</text><!--MD5=[58e8cfe03e652d9b9e2d1201250d0be2]
class AbstractSerializerFactory--><g id="elem_AbstractSerializerFactory"><rect codeLine="4" fill="#F1F1F1" height="97.4648" id="AbstractSerializerFactory" rx="2.5" ry="2.5" style="stroke:#181818;stroke-width:0.5;" width="279" x="172.75" y="63.332"/><ellipse cx="222.5" cy="79.332" fill="#A9DCDF" rx="11" ry="11" style="stroke:#181818;stroke-width:1.0;"/><path d="M222.3633,74.6802 L221.2095,79.752 L223.5254,79.752 Z M220.8691,72.439 L223.8657,72.439 L227.2109,84.832 L224.7622,84.832 L223.9985,81.769 L220.7197,81.769 L219.9727,84.832 L217.5239,84.832 Z " fill="#000000"/><text fill="#000000" font-family="sans-serif" font-size="14" font-style="italic" lengthAdjust="spacing" textLength="171" x="243" y="84.623">AbstractSerializerFactory</text><line style="stroke:#181818;stroke-width:0.5;" x1="173.75" x2="450.75" y1="95.332" y2="95.332"/><line style="stroke:#181818;stroke-width:0.5;" x1="173.75" x2="450.75" y1="103.332" y2="103.332"/><ellipse cx="183.75" cy="114.332" fill="#84BE84" rx="3" ry="3" style="stroke:#038048;stroke-width:1.0;"/><text fill="#000000" font-family="sans-serif" font-size="14" lengthAdjust="spacing" textLength="219" x="192.75" y="120.8672">Serializer getSerializer(Class cl);</text><text fill="#000000" font-family="sans-serif" font-size="14" lengthAdjust="spacing" textLength="4" x="192.75" y="137.3555"> </text><ellipse cx="183.75" cy="147.3086" fill="#84BE84" rx="3" ry="3" style="stroke:#038048;stroke-width:1.0;"/><text fill="#000000" font-family="sans-serif" font-size="14" lengthAdjust="spacing" textLength="253" x="192.75" y="153.8438">Deserializer getDeserializer(Class cl);</text></g><!--MD5=[1c3498ab52a67c80a0d2f000d29096e9]
class ExtSerializerFactory--><g id="elem_ExtSerializerFactory"><rect codeLine="10" fill="#F1F1F1" height="48" id="ExtSerializerFactory" rx="2.5" ry="2.5" style="stroke:#181818;stroke-width:0.5;" width="168" x="36.25" y="220.332"/><ellipse cx="51.25" cy="236.332" fill="#ADD1B2" rx="11" ry="11" style="stroke:#181818;stroke-width:1.0;"/><path d="M53.7231,242.4751 Q53.1421,242.7739 52.5029,242.9233 Q51.8638,243.0728 51.1582,243.0728 Q48.6514,243.0728 47.3315,241.4209 Q46.0117,239.769 46.0117,236.6479 Q46.0117,233.5186 47.3315,231.8667 Q48.6514,230.2148 51.1582,230.2148 Q51.8638,230.2148 52.5112,230.3643 Q53.1587,230.5137 53.7231,230.8125 L53.7231,233.5352 Q53.0923,232.9541 52.4988,232.6843 Q51.9053,232.4146 51.2744,232.4146 Q49.9297,232.4146 49.2449,233.4812 Q48.5601,234.5479 48.5601,236.6479 Q48.5601,238.7397 49.2449,239.8064 Q49.9297,240.873 51.2744,240.873 Q51.9053,240.873 52.4988,240.6033 Q53.0923,240.3335 53.7231,239.7524 Z " fill="#000000"/><text fill="#000000" font-family="sans-serif" font-size="14" lengthAdjust="spacing" textLength="136" x="65.25" y="241.623">ExtSerializerFactory</text><line style="stroke:#181818;stroke-width:0.5;" x1="37.25" x2="203.25" y1="252.332" y2="252.332"/><line style="stroke:#181818;stroke-width:0.5;" x1="37.25" x2="203.25" y1="260.332" y2="260.332"/></g><g id="elem_GMN5"><path d="M70.75,339.832 L70.75,365.1426 A0,0 0 0 0 70.75,365.1426 L169.75,365.1426 A0,0 0 0 0 169.75,365.1426 L169.75,349.832 L159.75,339.832 L124.25,339.832 L120.25,268.332 L116.25,339.832 L70.75,339.832 A0,0 0 0 0 70.75,339.832 " fill="#FEFFDD" style="stroke:#181818;stroke-width:0.5;"/><path d="M159.75,339.832 L159.75,349.832 L169.75,349.832 L159.75,339.832 " fill="#FEFFDD" style="stroke:#181818;stroke-width:0.5;"/><text fill="#000000" font-family="sans-serif" font-size="13" lengthAdjust="spacing" textLength="78" x="76.75" y="357.4004">没有被引用！</text></g><!--MD5=[0c6497a22e8a9ff169605329b1f434f9]
class SerializerFactory--><g id="elem_SerializerFactory"><rect codeLine="14" fill="#F1F1F1" height="48" id="SerializerFactory" rx="2.5" ry="2.5" style="stroke:#181818;stroke-width:0.5;" width="146" x="239.25" y="220.332"/><ellipse cx="254.25" cy="236.332" fill="#ADD1B2" rx="11" ry="11" style="stroke:#181818;stroke-width:1.0;"/><path d="M256.7231,242.4751 Q256.1421,242.7739 255.5029,242.9233 Q254.8638,243.0728 254.1582,243.0728 Q251.6514,243.0728 250.3315,241.4209 Q249.0117,239.769 249.0117,236.6479 Q249.0117,233.5186 250.3315,231.8667 Q251.6514,230.2148 254.1582,230.2148 Q254.8638,230.2148 255.5112,230.3643 Q256.1587,230.5137 256.7231,230.8125 L256.7231,233.5352 Q256.0923,232.9541 255.4988,232.6843 Q254.9053,232.4146 254.2744,232.4146 Q252.9297,232.4146 252.2449,233.4812 Q251.5601,234.5479 251.5601,236.6479 Q251.5601,238.7397 252.2449,239.8064 Q252.9297,240.873 254.2744,240.873 Q254.9053,240.873 255.4988,240.6033 Q256.0923,240.3335 256.7231,239.7524 Z " fill="#000000"/><text fill="#000000" font-family="sans-serif" font-size="14" lengthAdjust="spacing" textLength="114" x="268.25" y="241.623">SerializerFactory</text><line style="stroke:#181818;stroke-width:0.5;" x1="240.25" x2="384.25" y1="252.332" y2="252.332"/><line style="stroke:#181818;stroke-width:0.5;" x1="240.25" x2="384.25" y1="260.332" y2="260.332"/></g><!--MD5=[dcb7b1cb23f7a9cd8e2312bf0295fabb]
class BeanSerializerFactory--><g id="elem_BeanSerializerFactory"><rect codeLine="16" fill="#F1F1F1" height="48" id="BeanSerializerFactory" rx="2.5" ry="2.5" style="stroke:#181818;stroke-width:0.5;" width="179" x="222.75" y="328.332"/><ellipse cx="237.75" cy="344.332" fill="#ADD1B2" rx="11" ry="11" style="stroke:#181818;stroke-width:1.0;"/><path d="M240.2231,350.4751 Q239.6421,350.7739 239.0029,350.9233 Q238.3638,351.0728 237.6582,351.0728 Q235.1514,351.0728 233.8315,349.4209 Q232.5117,347.769 232.5117,344.6479 Q232.5117,341.5186 233.8315,339.8667 Q235.1514,338.2148 237.6582,338.2148 Q238.3638,338.2148 239.0112,338.3643 Q239.6587,338.5137 240.2231,338.8125 L240.2231,341.5352 Q239.5923,340.9541 238.9988,340.6843 Q238.4053,340.4146 237.7744,340.4146 Q236.4297,340.4146 235.7449,341.4812 Q235.0601,342.5479 235.0601,344.6479 Q235.0601,346.7397 235.7449,347.8064 Q236.4297,348.873 237.7744,348.873 Q238.4053,348.873 238.9988,348.6033 Q239.5923,348.3335 240.2231,347.7524 Z " fill="#000000"/><text fill="#000000" font-family="sans-serif" font-size="14" lengthAdjust="spacing" textLength="147" x="251.75" y="349.623">BeanSerializerFactory</text><line style="stroke:#181818;stroke-width:0.5;" x1="223.75" x2="400.75" y1="360.332" y2="360.332"/><line style="stroke:#181818;stroke-width:0.5;" x1="223.75" x2="400.75" y1="368.332" y2="368.332"/></g><!--MD5=[14e0f515e6f0a17061e79458b5dd0d42]
class JMXSerializerFactory--><g id="elem_JMXSerializerFactory"><rect codeLine="18" fill="#F1F1F1" height="48" id="JMXSerializerFactory" rx="2.5" ry="2.5" style="stroke:#181818;stroke-width:0.5;" width="171" x="420.75" y="220.332"/><ellipse cx="435.75" cy="236.332" fill="#ADD1B2" rx="11" ry="11" style="stroke:#181818;stroke-width:1.0;"/><path d="M438.2231,242.4751 Q437.6421,242.7739 437.0029,242.9233 Q436.3638,243.0728 435.6582,243.0728 Q433.1514,243.0728 431.8315,241.4209 Q430.5117,239.769 430.5117,236.6479 Q430.5117,233.5186 431.8315,231.8667 Q433.1514,230.2148 435.6582,230.2148 Q436.3638,230.2148 437.0112,230.3643 Q437.6587,230.5137 438.2231,230.8125 L438.2231,233.5352 Q437.5923,232.9541 436.9988,232.6843 Q436.4053,232.4146 435.7744,232.4146 Q434.4297,232.4146 433.7449,233.4812 Q433.0601,234.5479 433.0601,236.6479 Q433.0601,238.7397 433.7449,239.8064 Q434.4297,240.873 435.7744,240.873 Q436.4053,240.873 436.9988,240.6033 Q437.5923,240.3335 438.2231,239.7524 Z " fill="#000000"/><text fill="#000000" font-family="sans-serif" font-size="14" lengthAdjust="spacing" textLength="139" x="449.75" y="241.623">JMXSerializerFactory</text><line style="stroke:#181818;stroke-width:0.5;" x1="421.75" x2="590.75" y1="252.332" y2="252.332"/><line style="stroke:#181818;stroke-width:0.5;" x1="421.75" x2="590.75" y1="260.332" y2="260.332"/></g><g id="elem_GMN14"><path d="M441.25,331.832 L441.25,372.4531 A0,0 0 0 0 441.25,372.4531 L571.25,372.4531 A0,0 0 0 0 571.25,372.4531 L571.25,341.832 L561.25,331.832 L510.25,331.832 L506.25,268.332 L502.25,331.832 L441.25,331.832 A0,0 0 0 0 441.25,331.832 " fill="#FEFFDD" style="stroke:#181818;stroke-width:0.5;"/><path d="M561.25,331.832 L561.25,341.832 L571.25,341.832 L561.25,331.832 " fill="#FEFFDD" style="stroke:#181818;stroke-width:0.5;"/><text fill="#000000" font-family="sans-serif" font-size="13" lengthAdjust="spacing" textLength="109" x="447.25" y="349.4004">序列化 JMX 对象。</text><text fill="#000000" font-family="sans-serif" font-size="13" lengthAdjust="spacing" textLength="78" x="447.25" y="364.7109">没有被引用！</text></g><!--MD5=[92107c2f6172f75ffd2d31aaa87741ab]
reverse link AbstractSerializerFactory to ExtSerializerFactory--><g id="link_AbstractSerializerFactory_ExtSerializerFactory"><path d="M225.31,171.922 C200.09,189.072 174.02,206.782 154.16,220.282 " fill="none" id="AbstractSerializerFactory-backto-ExtSerializerFactory" style="stroke:#181818;stroke-width:1.0;"/><polygon fill="none" points="221.64,165.952,242.12,160.502,229.51,177.532,221.64,165.952" style="stroke:#181818;stroke-width:1.0;"/></g><!--MD5=[8fc1c8d6cb1d9ae3ceebfedbbc619d8c]
reverse link AbstractSerializerFactory to SerializerFactory--><g id="link_AbstractSerializerFactory_SerializerFactory"><path d="M312.25,181.062 C312.25,195.092 312.25,208.932 312.25,219.992 " fill="none" id="AbstractSerializerFactory-backto-SerializerFactory" style="stroke:#181818;stroke-width:1.0;"/><polygon fill="none" points="305.25,180.682,312.25,160.682,319.25,180.682,305.25,180.682" style="stroke:#181818;stroke-width:1.0;"/></g><!--MD5=[b1cda1eb068ad8f5d92d66fb9051b548]
reverse link SerializerFactory to BeanSerializerFactory--><g id="link_SerializerFactory_BeanSerializerFactory"><path d="M312.25,288.352 C312.25,301.912 312.25,316.372 312.25,328.012 " fill="none" id="SerializerFactory-backto-BeanSerializerFactory" style="stroke:#181818;stroke-width:1.0;"/><polygon fill="none" points="305.25,288.332,312.25,268.332,319.25,288.332,305.25,288.332" style="stroke:#181818;stroke-width:1.0;"/></g><!--MD5=[fa36181734a3c2a228fef080ba94f33e]
reverse link AbstractSerializerFactory to JMXSerializerFactory--><g id="link_AbstractSerializerFactory_JMXSerializerFactory"><path d="M399.73,171.682 C425.33,188.902 451.82,206.722 471.98,220.282 " fill="none" id="AbstractSerializerFactory-backto-JMXSerializerFactory" style="stroke:#181818;stroke-width:1.0;"/><polygon fill="none" points="395.8,177.472,383.11,160.502,403.61,165.852,395.8,177.472" style="stroke:#181818;stroke-width:1.0;"/></g><rect height="23.5547" style="stroke:#00000000;stroke-width:1.0;fill:none;" width="381" x="116.5" y="382.332"/><text fill="#888888" font-family="sans-serif" font-size="20" lengthAdjust="spacing" textLength="381" x="116.5" y="401.668">D瓜哥 · https://www.diguage.com · 出品</text><!--MD5=[efbfc9c6c2331c9a48357d45673f27e1]
@startuml
skinparam titleFontSize 30
title **Hessian AbstractSerializerFactory 类图**

abstract class AbstractSerializerFactory {
  + Serializer getSerializer(Class cl);

  + Deserializer getDeserializer(Class cl);
}

class ExtSerializerFactory extends AbstractSerializerFactory

note bottom of ExtSerializerFactory : 没有被引用！

class SerializerFactory extends AbstractSerializerFactory

class BeanSerializerFactory extends SerializerFactory

class JMXSerializerFactory extends AbstractSerializerFactory

note bottom of JMXSerializerFactory : 序列化 JMX 对象。\n没有被引用！

skinparam footerFontSize 20
footer D瓜哥 · https://www.diguage.com · 出品
@enduml

PlantUML version 1.2022.5(Sat Apr 30 18:55:52 CST 2022)
(GPL source distribution)
Java Runtime: OpenJDK Runtime Environment
JVM: OpenJDK 64-Bit Server VM
Default Encoding: UTF-8
Language: en
Country: CN
--></g></svg>