<?xml version='1.0' encoding='UTF-8'?>
<!DOCTYPE svg PUBLIC "-//W3C//DTD SVG 1.0//EN" "http://www.w3.org/TR/2001/REC-SVG-20010904/DTD/svg10.dtd">
<svg viewBox="0 0 1756 2676" xmlns="http://www.w3.org/2000/svg" xmlns:inkspace="http://www.inkscape.org/namespaces/inkscape" xmlns:xlink="http://www.w3.org/1999/xlink">
  <defs id="defs_block">
    <filter height="1.504" id="filter_blur" inkspace:collect="always" width="1.1575" x="-0.07875" y="-0.252">
      <feGaussianBlur id="feGaussianBlur3780" inkspace:collect="always" stdDeviation="4.2" />
    </filter>
  </defs>
  <title>blockdiag</title>
  <desc>seqdiag {
  edge_length = 150;

  Acter =&gt; Hessian2Output[label="writeObject\n(Object object)"] {
    Hessian2Output =&gt; AbstractHessianOutput[label="findSerializerFactory()", note=" \n查找 SerializerFactory\n_"] {
      AbstractHessianOutput =&gt; SerializerFactory[label="createDefault()"];
    }

    Hessian2Output =&gt; SerializerFactory[label="getObjectSerializer(Class&lt;?&gt; cl)", note=" \n根据 Class 获得 Serializer\n_"] {
      SerializerFactory =&gt; SerializerFactory[label="getSerializer\n(Class c)"] {
        SerializerFactory =&gt; SerializerFactory[label="loadSerializer\n(Class cl)", note=" \n扩展点\n可以扫描出提前添加的 SerializerFactory\n_"] {
          SerializerFactory =&gt; AbstractSerializerFactory[label="getSerializer(Class cl)"];

          SerializerFactory =&gt; ContextSerializerFactory[label="getSerializer(String className)"];

          SerializerFactory =&gt; ContextSerializerFactory[label="create(ClassLoader loader)"];

          SerializerFactory =&gt; ContextSerializerFactory[label="getCustomSerializer(Class cl)", note=" \n扩展点\n根据 Class 获得自定义的 Serializer\n_"];

          SerializerFactory =&gt; UnsafeSerializer[label="create(Class&lt;?&gt; cl)"];

          SerializerFactory =&gt; JavaSerializer[label="create(Class&lt;?&gt; cl)"];

          SerializerFactory =&gt; IteratorSerializer[label="create()"];

          SerializerFactory =&gt; EnumerationSerializer[label="create()"];
        }
      }
    }

    Hessian2Output =&gt; Serializer[label="writeObject(Object obj, AbstractHessianOutput out)", leftnote=" \n将对象序列化\n_"];
  }

=== D瓜哥 · https://www.diguage.com · 出品 ===
}</desc>
  <rect fill="rgb(0,0,0)" height="2496" style="filter:url(#filter_blur);opacity:0.7;fill-opacity:1" width="8" x="127" y="158" />
  <rect fill="rgb(0,0,0)" height="2340" style="filter:url(#filter_blur);opacity:0.7;fill-opacity:1" width="8" x="277" y="158" />
  <rect fill="rgb(0,0,0)" height="221" style="filter:url(#filter_blur);opacity:0.7;fill-opacity:1" width="8" x="427" y="229" />
  <rect fill="rgb(0,0,0)" height="64" style="filter:url(#filter_blur);opacity:0.7;fill-opacity:1" width="8" x="577" y="306" />
  <rect fill="rgb(0,0,0)" height="1707" style="filter:url(#filter_blur);opacity:0.7;fill-opacity:1" width="8" x="577" y="550" />
  <rect fill="rgb(0,0,0)" height="1535" style="filter:url(#filter_blur);opacity:0.7;fill-opacity:1" width="8" x="581" y="642" />
  <rect fill="rgb(0,0,0)" height="1362" style="filter:url(#filter_blur);opacity:0.7;fill-opacity:1" width="8" x="585" y="735" />
  <rect fill="rgb(0,0,0)" height="63" style="filter:url(#filter_blur);opacity:0.7;fill-opacity:1" width="8" x="727" y="820" />
  <rect fill="rgb(0,0,0)" height="63" style="filter:url(#filter_blur);opacity:0.7;fill-opacity:1" width="8" x="877" y="980" />
  <rect fill="rgb(0,0,0)" height="64" style="filter:url(#filter_blur);opacity:0.7;fill-opacity:1" width="8" x="877" y="1139" />
  <rect fill="rgb(0,0,0)" height="67" style="filter:url(#filter_blur);opacity:0.7;fill-opacity:1" width="8" x="877" y="1310" />
  <rect fill="rgb(0,0,0)" height="64" style="filter:url(#filter_blur);opacity:0.7;fill-opacity:1" width="8" x="1027" y="1473" />
  <rect fill="rgb(0,0,0)" height="64" style="filter:url(#filter_blur);opacity:0.7;fill-opacity:1" width="8" x="1177" y="1633" />
  <rect fill="rgb(0,0,0)" height="64" style="filter:url(#filter_blur);opacity:0.7;fill-opacity:1" width="8" x="1327" y="1793" />
  <rect fill="rgb(0,0,0)" height="64" style="filter:url(#filter_blur);opacity:0.7;fill-opacity:1" width="8" x="1477" y="1953" />
  <rect fill="rgb(0,0,0)" height="61" style="filter:url(#filter_blur);opacity:0.7;fill-opacity:1" width="8" x="1627" y="2357" />
  <polygon fill="rgb(0,0,0)" points="447,208 571,208 579,216 579,250 447,250 447,208" stroke="rgb(0,0,0)" style="filter:url(#filter_blur);opacity:0.7;fill-opacity:1" />
  <polygon fill="rgb(0,0,0)" points="597,530 738,530 746,538 746,571 597,571 597,530" stroke="rgb(0,0,0)" style="filter:url(#filter_blur);opacity:0.7;fill-opacity:1" />
  <polygon fill="rgb(0,0,0)" points="672,708 884,708 892,716 892,763 672,763 672,708" stroke="rgb(0,0,0)" style="filter:url(#filter_blur);opacity:0.7;fill-opacity:1" />
  <polygon fill="rgb(0,0,0)" points="897,1283 1082,1283 1090,1291 1090,1337 897,1337 897,1283" stroke="rgb(0,0,0)" style="filter:url(#filter_blur);opacity:0.7;fill-opacity:1" />
  <polygon fill="rgb(0,0,0)" points="175,2337 257,2337 265,2345 265,2378 175,2378 175,2337" stroke="rgb(0,0,0)" style="filter:url(#filter_blur);opacity:0.7;fill-opacity:1" />
  <rect fill="rgb(0,0,0)" height="40" stroke="rgb(0,0,0)" style="filter:url(#filter_blur);opacity:0.7;fill-opacity:1" width="128" x="67" y="46" />
  <rect fill="rgb(0,0,0)" height="40" stroke="rgb(0,0,0)" style="filter:url(#filter_blur);opacity:0.7;fill-opacity:1" width="128" x="217" y="46" />
  <rect fill="rgb(0,0,0)" height="40" stroke="rgb(0,0,0)" style="filter:url(#filter_blur);opacity:0.7;fill-opacity:1" width="128" x="367" y="46" />
  <rect fill="rgb(0,0,0)" height="40" stroke="rgb(0,0,0)" style="filter:url(#filter_blur);opacity:0.7;fill-opacity:1" width="128" x="517" y="46" />
  <rect fill="rgb(0,0,0)" height="40" stroke="rgb(0,0,0)" style="filter:url(#filter_blur);opacity:0.7;fill-opacity:1" width="128" x="667" y="46" />
  <rect fill="rgb(0,0,0)" height="40" stroke="rgb(0,0,0)" style="filter:url(#filter_blur);opacity:0.7;fill-opacity:1" width="128" x="817" y="46" />
  <rect fill="rgb(0,0,0)" height="40" stroke="rgb(0,0,0)" style="filter:url(#filter_blur);opacity:0.7;fill-opacity:1" width="128" x="967" y="46" />
  <rect fill="rgb(0,0,0)" height="40" stroke="rgb(0,0,0)" style="filter:url(#filter_blur);opacity:0.7;fill-opacity:1" width="128" x="1117" y="46" />
  <rect fill="rgb(0,0,0)" height="40" stroke="rgb(0,0,0)" style="filter:url(#filter_blur);opacity:0.7;fill-opacity:1" width="128" x="1267" y="46" />
  <rect fill="rgb(0,0,0)" height="40" stroke="rgb(0,0,0)" style="filter:url(#filter_blur);opacity:0.7;fill-opacity:1" width="128" x="1417" y="46" />
  <rect fill="rgb(0,0,0)" height="40" stroke="rgb(0,0,0)" style="filter:url(#filter_blur);opacity:0.7;fill-opacity:1" width="128" x="1567" y="46" />
  <path d="M 128 80 L 128 2664" fill="none" stroke="rgb(0,0,0)" stroke-dasharray="8 4" />
  <rect fill="moccasin" height="2496" stroke="rgb(0,0,0)" width="8" x="124" y="152" />
  <path d="M 278 80 L 278 2664" fill="none" stroke="rgb(0,0,0)" stroke-dasharray="8 4" />
  <rect fill="moccasin" height="2340" stroke="rgb(0,0,0)" width="8" x="274" y="152" />
  <path d="M 428 80 L 428 2664" fill="none" stroke="rgb(0,0,0)" stroke-dasharray="8 4" />
  <rect fill="moccasin" height="221" stroke="rgb(0,0,0)" width="8" x="424" y="223" />
  <path d="M 578 80 L 578 2664" fill="none" stroke="rgb(0,0,0)" stroke-dasharray="8 4" />
  <rect fill="moccasin" height="64" stroke="rgb(0,0,0)" width="8" x="574" y="300" />
  <rect fill="moccasin" height="1707" stroke="rgb(0,0,0)" width="8" x="574" y="544" />
  <rect fill="moccasin" height="1535" stroke="rgb(0,0,0)" width="8" x="578" y="636" />
  <rect fill="moccasin" height="1362" stroke="rgb(0,0,0)" width="8" x="582" y="729" />
  <path d="M 728 80 L 728 2664" fill="none" stroke="rgb(0,0,0)" stroke-dasharray="8 4" />
  <rect fill="moccasin" height="63" stroke="rgb(0,0,0)" width="8" x="724" y="814" />
  <path d="M 878 80 L 878 2664" fill="none" stroke="rgb(0,0,0)" stroke-dasharray="8 4" />
  <rect fill="moccasin" height="63" stroke="rgb(0,0,0)" width="8" x="874" y="974" />
  <rect fill="moccasin" height="64" stroke="rgb(0,0,0)" width="8" x="874" y="1133" />
  <rect fill="moccasin" height="67" stroke="rgb(0,0,0)" width="8" x="874" y="1304" />
  <path d="M 1028 80 L 1028 2664" fill="none" stroke="rgb(0,0,0)" stroke-dasharray="8 4" />
  <rect fill="moccasin" height="64" stroke="rgb(0,0,0)" width="8" x="1024" y="1467" />
  <path d="M 1178 80 L 1178 2664" fill="none" stroke="rgb(0,0,0)" stroke-dasharray="8 4" />
  <rect fill="moccasin" height="64" stroke="rgb(0,0,0)" width="8" x="1174" y="1627" />
  <path d="M 1328 80 L 1328 2664" fill="none" stroke="rgb(0,0,0)" stroke-dasharray="8 4" />
  <rect fill="moccasin" height="64" stroke="rgb(0,0,0)" width="8" x="1324" y="1787" />
  <path d="M 1478 80 L 1478 2664" fill="none" stroke="rgb(0,0,0)" stroke-dasharray="8 4" />
  <rect fill="moccasin" height="64" stroke="rgb(0,0,0)" width="8" x="1474" y="1947" />
  <path d="M 1628 80 L 1628 2664" fill="none" stroke="rgb(0,0,0)" stroke-dasharray="8 4" />
  <rect fill="moccasin" height="61" stroke="rgb(0,0,0)" width="8" x="1624" y="2351" />
  <rect fill="rgb(255,255,255)" height="40" stroke="rgb(0,0,0)" width="128" x="64" y="40" />
  <text fill="rgb(0,0,0)" font-family="sans-serif" font-size="11" font-style="normal" font-weight="normal" text-anchor="middle" textLength="27" x="128.5" y="66">Acter</text>
  <rect fill="rgb(255,255,255)" height="40" stroke="rgb(0,0,0)" width="128" x="214" y="40" />
  <text fill="rgb(0,0,0)" font-family="sans-serif" font-size="11" font-style="normal" font-weight="normal" text-anchor="middle" textLength="81" x="278.5" y="66">Hessian2Output</text>
  <rect fill="rgb(255,255,255)" height="40" stroke="rgb(0,0,0)" width="128" x="364" y="40" />
  <text fill="rgb(0,0,0)" font-family="sans-serif" font-size="11" font-style="normal" font-weight="normal" text-anchor="middle" textLength="116" x="428.0" y="66">AbstractHessianOutput</text>
  <rect fill="rgb(255,255,255)" height="40" stroke="rgb(0,0,0)" width="128" x="514" y="40" />
  <text fill="rgb(0,0,0)" font-family="sans-serif" font-size="11" font-style="normal" font-weight="normal" text-anchor="middle" textLength="83" x="578.5" y="66">SerializerFactory</text>
  <rect fill="rgb(255,255,255)" height="40" stroke="rgb(0,0,0)" width="128" x="664" y="40" />
  <text fill="rgb(0,0,0)" font-family="sans-serif" font-size="11" font-style="normal" font-weight="normal" text-anchor="middle" textLength="126" x="728.0" y="66">AbstractSerializerFactory</text>
  <rect fill="rgb(255,255,255)" height="40" stroke="rgb(0,0,0)" width="128" x="814" y="40" />
  <text fill="rgb(0,0,0)" font-family="sans-serif" font-size="11" font-style="normal" font-weight="normal" text-anchor="middle" textLength="122" x="878.0" y="66">ContextSerializerFactory</text>
  <rect fill="rgb(255,255,255)" height="40" stroke="rgb(0,0,0)" width="128" x="964" y="40" />
  <text fill="rgb(0,0,0)" font-family="sans-serif" font-size="11" font-style="normal" font-weight="normal" text-anchor="middle" textLength="80" x="1028.0" y="66">UnsafeSerializer</text>
  <rect fill="rgb(255,255,255)" height="40" stroke="rgb(0,0,0)" width="128" x="1114" y="40" />
  <text fill="rgb(0,0,0)" font-family="sans-serif" font-size="11" font-style="normal" font-weight="normal" text-anchor="middle" textLength="69" x="1178.5" y="66">JavaSerializer</text>
  <rect fill="rgb(255,255,255)" height="40" stroke="rgb(0,0,0)" width="128" x="1264" y="40" />
  <text fill="rgb(0,0,0)" font-family="sans-serif" font-size="11" font-style="normal" font-weight="normal" text-anchor="middle" textLength="81" x="1328.5" y="66">IteratorSerializer</text>
  <rect fill="rgb(255,255,255)" height="40" stroke="rgb(0,0,0)" width="128" x="1414" y="40" />
  <text fill="rgb(0,0,0)" font-family="sans-serif" font-size="11" font-style="normal" font-weight="normal" text-anchor="middle" textLength="107" x="1478.5" y="66">EnumerationSerializer</text>
  <rect fill="rgb(255,255,255)" height="40" stroke="rgb(0,0,0)" width="128" x="1564" y="40" />
  <text fill="rgb(0,0,0)" font-family="sans-serif" font-size="11" font-style="normal" font-weight="normal" text-anchor="middle" textLength="44" x="1628.0" y="66">Serializer</text>
  <path d="M 136 152 L 270 152" fill="none" stroke="rgb(0,0,0)" />
  <polygon fill="rgb(0,0,0)" points="262,148 270,152 262,156" stroke="rgb(0,0,0)" />
  <path d="M 286 223 L 420 223" fill="none" stroke="rgb(0,0,0)" />
  <polygon fill="rgb(0,0,0)" points="412,219 420,223 412,227" stroke="rgb(0,0,0)" />
  <polygon fill="rgb(255,182,193)" points="444,202 568,202 576,210 576,244 444,244 444,202" stroke="rgb(0,0,0)" />
  <path d="M 568 202 L 568 210" fill="none" stroke="rgb(0,0,0)" />
  <path d="M 568 210 L 576 210" fill="none" stroke="rgb(0,0,0)" />
  <text fill="rgb(0,0,0)" font-family="sans-serif" font-size="11" font-style="normal" font-weight="normal" text-anchor="middle" textLength="4" x="454.0" y="214"> </text>
  <text fill="rgb(0,0,0)" font-family="sans-serif" font-size="11" font-style="normal" font-weight="normal" text-anchor="middle" textLength="108" x="506.0" y="228">查找 SerializerFactory</text>
  <text fill="rgb(0,0,0)" font-family="sans-serif" font-size="11" font-style="normal" font-weight="normal" text-anchor="middle" textLength="6" x="455.0" y="242">_</text>
  <path d="M 436 300 L 570 300" fill="none" stroke="rgb(0,0,0)" />
  <polygon fill="rgb(0,0,0)" points="562,296 570,300 562,304" stroke="rgb(0,0,0)" />
  <path d="M 436 364 L 570 364" fill="none" stroke="rgb(0,0,0)" stroke-dasharray="4" />
  <polygon fill="rgb(0,0,0)" points="444,360 436,364 444,368" stroke="rgb(0,0,0)" />
  <path d="M 286 444 L 420 444" fill="none" stroke="rgb(0,0,0)" stroke-dasharray="4" />
  <polygon fill="rgb(0,0,0)" points="294,440 286,444 294,448" stroke="rgb(0,0,0)" />
  <path d="M 286 544 L 570 544" fill="none" stroke="rgb(0,0,0)" />
  <polygon fill="rgb(0,0,0)" points="562,540 570,544 562,548" stroke="rgb(0,0,0)" />
  <polygon fill="rgb(255,182,193)" points="594,524 735,524 743,532 743,565 594,565 594,524" stroke="rgb(0,0,0)" />
  <path d="M 735 524 L 735 532" fill="none" stroke="rgb(0,0,0)" />
  <path d="M 735 532 L 743 532" fill="none" stroke="rgb(0,0,0)" />
  <text fill="rgb(0,0,0)" font-family="sans-serif" font-size="11" font-style="normal" font-weight="normal" text-anchor="middle" textLength="4" x="604.0" y="536"> </text>
  <text fill="rgb(0,0,0)" font-family="sans-serif" font-size="11" font-style="normal" font-weight="normal" text-anchor="middle" textLength="125" x="664.5" y="549">根据 Class 获得 Serializer</text>
  <text fill="rgb(0,0,0)" font-family="sans-serif" font-size="11" font-style="normal" font-weight="normal" text-anchor="middle" textLength="6" x="605.0" y="563">_</text>
  <path d="M 590 636 L 653 636" fill="none" stroke="rgb(0,0,0)" />
  <path d="M 653 636 L 653 652" fill="none" stroke="rgb(0,0,0)" />
  <path d="M 653 652 L 590 652" fill="none" stroke="rgb(0,0,0)" />
  <polygon fill="rgb(0,0,0)" points="598,648 590,652 598,656" stroke="rgb(0,0,0)" />
  <path d="M 594 729 L 653 729" fill="none" stroke="rgb(0,0,0)" />
  <path d="M 653 729 L 653 745" fill="none" stroke="rgb(0,0,0)" />
  <path d="M 653 745 L 594 745" fill="none" stroke="rgb(0,0,0)" />
  <polygon fill="rgb(0,0,0)" points="602,741 594,745 602,749" stroke="rgb(0,0,0)" />
  <polygon fill="rgb(255,182,193)" points="669,702 881,702 889,710 889,757 669,757 669,702" stroke="rgb(0,0,0)" />
  <path d="M 881 702 L 881 710" fill="none" stroke="rgb(0,0,0)" />
  <path d="M 881 710 L 889 710" fill="none" stroke="rgb(0,0,0)" />
  <text fill="rgb(0,0,0)" font-family="sans-serif" font-size="11" font-style="normal" font-weight="normal" text-anchor="middle" textLength="4" x="679.0" y="714"> </text>
  <text fill="rgb(0,0,0)" font-family="sans-serif" font-size="11" font-style="normal" font-weight="normal" text-anchor="middle" textLength="33" x="693.5" y="727">扩展点</text>
  <text fill="rgb(0,0,0)" font-family="sans-serif" font-size="11" font-style="normal" font-weight="normal" text-anchor="middle" textLength="196" x="775.0" y="741">可以扫描出提前添加的 SerializerFactory</text>
  <text fill="rgb(0,0,0)" font-family="sans-serif" font-size="11" font-style="normal" font-weight="normal" text-anchor="middle" textLength="6" x="680.0" y="755">_</text>
  <path d="M 594 814 L 720 814" fill="none" stroke="rgb(0,0,0)" />
  <polygon fill="rgb(0,0,0)" points="712,810 720,814 712,818" stroke="rgb(0,0,0)" />
  <path d="M 594 877 L 720 877" fill="none" stroke="rgb(0,0,0)" stroke-dasharray="4" />
  <polygon fill="rgb(0,0,0)" points="602,873 594,877 602,881" stroke="rgb(0,0,0)" />
  <path d="M 594 974 L 870 974" fill="none" stroke="rgb(0,0,0)" />
  <polygon fill="rgb(0,0,0)" points="862,970 870,974 862,978" stroke="rgb(0,0,0)" />
  <path d="M 594 1037 L 870 1037" fill="none" stroke="rgb(0,0,0)" stroke-dasharray="4" />
  <polygon fill="rgb(0,0,0)" points="602,1033 594,1037 602,1041" stroke="rgb(0,0,0)" />
  <path d="M 594 1133 L 870 1133" fill="none" stroke="rgb(0,0,0)" />
  <polygon fill="rgb(0,0,0)" points="862,1129 870,1133 862,1137" stroke="rgb(0,0,0)" />
  <path d="M 594 1197 L 870 1197" fill="none" stroke="rgb(0,0,0)" stroke-dasharray="4" />
  <polygon fill="rgb(0,0,0)" points="602,1193 594,1197 602,1201" stroke="rgb(0,0,0)" />
  <path d="M 594 1304 L 870 1304" fill="none" stroke="rgb(0,0,0)" />
  <polygon fill="rgb(0,0,0)" points="862,1300 870,1304 862,1308" stroke="rgb(0,0,0)" />
  <polygon fill="rgb(255,182,193)" points="894,1277 1079,1277 1087,1285 1087,1331 894,1331 894,1277" stroke="rgb(0,0,0)" />
  <path d="M 1079 1277 L 1079 1285" fill="none" stroke="rgb(0,0,0)" />
  <path d="M 1079 1285 L 1087 1285" fill="none" stroke="rgb(0,0,0)" />
  <text fill="rgb(0,0,0)" font-family="sans-serif" font-size="11" font-style="normal" font-weight="normal" text-anchor="middle" textLength="4" x="904.0" y="1289"> </text>
  <text fill="rgb(0,0,0)" font-family="sans-serif" font-size="11" font-style="normal" font-weight="normal" text-anchor="middle" textLength="33" x="918.5" y="1302">扩展点</text>
  <text fill="rgb(0,0,0)" font-family="sans-serif" font-size="11" font-style="normal" font-weight="normal" text-anchor="middle" textLength="169" x="986.5" y="1315">根据 Class 获得自定义的 Serializer</text>
  <text fill="rgb(0,0,0)" font-family="sans-serif" font-size="11" font-style="normal" font-weight="normal" text-anchor="middle" textLength="6" x="905.0" y="1329">_</text>
  <path d="M 594 1371 L 870 1371" fill="none" stroke="rgb(0,0,0)" stroke-dasharray="4" />
  <polygon fill="rgb(0,0,0)" points="602,1367 594,1371 602,1375" stroke="rgb(0,0,0)" />
  <path d="M 594 1467 L 1020 1467" fill="none" stroke="rgb(0,0,0)" />
  <polygon fill="rgb(0,0,0)" points="1012,1463 1020,1467 1012,1471" stroke="rgb(0,0,0)" />
  <path d="M 594 1531 L 1020 1531" fill="none" stroke="rgb(0,0,0)" stroke-dasharray="4" />
  <polygon fill="rgb(0,0,0)" points="602,1527 594,1531 602,1535" stroke="rgb(0,0,0)" />
  <path d="M 594 1627 L 1170 1627" fill="none" stroke="rgb(0,0,0)" />
  <polygon fill="rgb(0,0,0)" points="1162,1623 1170,1627 1162,1631" stroke="rgb(0,0,0)" />
  <path d="M 594 1691 L 1170 1691" fill="none" stroke="rgb(0,0,0)" stroke-dasharray="4" />
  <polygon fill="rgb(0,0,0)" points="602,1687 594,1691 602,1695" stroke="rgb(0,0,0)" />
  <path d="M 594 1787 L 1320 1787" fill="none" stroke="rgb(0,0,0)" />
  <polygon fill="rgb(0,0,0)" points="1312,1783 1320,1787 1312,1791" stroke="rgb(0,0,0)" />
  <path d="M 594 1851 L 1320 1851" fill="none" stroke="rgb(0,0,0)" stroke-dasharray="4" />
  <polygon fill="rgb(0,0,0)" points="602,1847 594,1851 602,1855" stroke="rgb(0,0,0)" />
  <path d="M 594 1947 L 1470 1947" fill="none" stroke="rgb(0,0,0)" />
  <polygon fill="rgb(0,0,0)" points="1462,1943 1470,1947 1462,1951" stroke="rgb(0,0,0)" />
  <path d="M 594 2011 L 1470 2011" fill="none" stroke="rgb(0,0,0)" stroke-dasharray="4" />
  <polygon fill="rgb(0,0,0)" points="602,2007 594,2011 602,2015" stroke="rgb(0,0,0)" />
  <path d="M 590 2091 L 653 2091" fill="none" stroke="rgb(0,0,0)" stroke-dasharray="4" />
  <path d="M 653 2091 L 653 2107" fill="none" stroke="rgb(0,0,0)" stroke-dasharray="4" />
  <path d="M 653 2107 L 590 2107" fill="none" stroke="rgb(0,0,0)" stroke-dasharray="4" />
  <polygon fill="rgb(0,0,0)" points="598,2103 590,2107 598,2111" stroke="rgb(0,0,0)" />
  <path d="M 586 2171 L 653 2171" fill="none" stroke="rgb(0,0,0)" stroke-dasharray="4" />
  <path d="M 653 2171 L 653 2187" fill="none" stroke="rgb(0,0,0)" stroke-dasharray="4" />
  <path d="M 653 2187 L 586 2187" fill="none" stroke="rgb(0,0,0)" stroke-dasharray="4" />
  <polygon fill="rgb(0,0,0)" points="594,2183 586,2187 594,2191" stroke="rgb(0,0,0)" />
  <path d="M 286 2251 L 570 2251" fill="none" stroke="rgb(0,0,0)" stroke-dasharray="4" />
  <polygon fill="rgb(0,0,0)" points="294,2247 286,2251 294,2255" stroke="rgb(0,0,0)" />
  <path d="M 286 2351 L 1620 2351" fill="none" stroke="rgb(0,0,0)" />
  <polygon fill="rgb(0,0,0)" points="1612,2347 1620,2351 1612,2355" stroke="rgb(0,0,0)" />
  <polygon fill="rgb(255,182,193)" points="172,2331 254,2331 262,2339 262,2372 172,2372 172,2331" stroke="rgb(0,0,0)" />
  <path d="M 254 2331 L 254 2339" fill="none" stroke="rgb(0,0,0)" />
  <path d="M 254 2339 L 262 2339" fill="none" stroke="rgb(0,0,0)" />
  <text fill="rgb(0,0,0)" font-family="sans-serif" font-size="11" font-style="normal" font-weight="normal" text-anchor="middle" textLength="4" x="182.0" y="2343"> </text>
  <text fill="rgb(0,0,0)" font-family="sans-serif" font-size="11" font-style="normal" font-weight="normal" text-anchor="middle" textLength="66" x="213.0" y="2356">将对象序列化</text>
  <text fill="rgb(0,0,0)" font-family="sans-serif" font-size="11" font-style="normal" font-weight="normal" text-anchor="middle" textLength="6" x="183.0" y="2370">_</text>
  <path d="M 286 2412 L 1620 2412" fill="none" stroke="rgb(0,0,0)" stroke-dasharray="4" />
  <polygon fill="rgb(0,0,0)" points="294,2408 286,2412 294,2416" stroke="rgb(0,0,0)" />
  <path d="M 136 2492 L 270 2492" fill="none" stroke="rgb(0,0,0)" stroke-dasharray="4" />
  <polygon fill="rgb(0,0,0)" points="144,2488 136,2492 144,2496" stroke="rgb(0,0,0)" />
  <text fill="rgb(0,0,0)" font-family="sans-serif" font-size="11" font-style="normal" font-weight="normal" text-anchor="middle" textLength="58" x="173.0" y="133">writeObject</text>
  <text fill="rgb(0,0,0)" font-family="sans-serif" font-size="11" font-style="normal" font-weight="normal" text-anchor="middle" textLength="79" x="183.5" y="148">(Object object)</text>
  <text fill="rgb(0,0,0)" font-family="sans-serif" font-size="11" font-style="normal" font-weight="normal" text-anchor="middle" textLength="111" x="349.5" y="219">findSerializerFactory()</text>
  <text fill="rgb(0,0,0)" font-family="sans-serif" font-size="11" font-style="normal" font-weight="normal" text-anchor="middle" textLength="78" x="483.0" y="296">createDefault()</text>
  <text fill="rgb(0,0,0)" font-family="sans-serif" font-size="11" font-style="normal" font-weight="normal" text-anchor="middle" textLength="160" x="374.0" y="540">getObjectSerializer(Class&lt;?&gt; cl)</text>
  <text fill="rgb(0,0,0)" font-family="sans-serif" font-size="11" font-style="normal" font-weight="normal" text-anchor="middle" textLength="60" x="624.0" y="618">getSerializer</text>
  <text fill="rgb(0,0,0)" font-family="sans-serif" font-size="11" font-style="normal" font-weight="normal" text-anchor="middle" textLength="47" x="617.5" y="632">(Class c)</text>
  <text fill="rgb(0,0,0)" font-family="sans-serif" font-size="11" font-style="normal" font-weight="normal" text-anchor="middle" textLength="65" x="630.5" y="711">loadSerializer</text>
  <text fill="rgb(0,0,0)" font-family="sans-serif" font-size="11" font-style="normal" font-weight="normal" text-anchor="middle" textLength="49" x="622.5" y="725">(Class cl)</text>
  <text fill="rgb(0,0,0)" font-family="sans-serif" font-size="11" font-style="normal" font-weight="normal" text-anchor="middle" textLength="109" x="656.5" y="810">getSerializer(Class cl)</text>
  <text fill="rgb(0,0,0)" font-family="sans-serif" font-size="11" font-style="normal" font-weight="normal" text-anchor="middle" textLength="158" x="681.0" y="970">getSerializer(String className)</text>
  <text fill="rgb(0,0,0)" font-family="sans-serif" font-size="11" font-style="normal" font-weight="normal" text-anchor="middle" textLength="138" x="671.0" y="1129">create(ClassLoader loader)</text>
  <text fill="rgb(0,0,0)" font-family="sans-serif" font-size="11" font-style="normal" font-weight="normal" text-anchor="middle" textLength="148" x="676.0" y="1300">getCustomSerializer(Class cl)</text>
  <text fill="rgb(0,0,0)" font-family="sans-serif" font-size="11" font-style="normal" font-weight="normal" text-anchor="middle" textLength="98" x="651.0" y="1463">create(Class&lt;?&gt; cl)</text>
  <text fill="rgb(0,0,0)" font-family="sans-serif" font-size="11" font-style="normal" font-weight="normal" text-anchor="middle" textLength="98" x="651.0" y="1623">create(Class&lt;?&gt; cl)</text>
  <text fill="rgb(0,0,0)" font-family="sans-serif" font-size="11" font-style="normal" font-weight="normal" text-anchor="middle" textLength="43" x="623.5" y="1783">create()</text>
  <text fill="rgb(0,0,0)" font-family="sans-serif" font-size="11" font-style="normal" font-weight="normal" text-anchor="middle" textLength="43" x="623.5" y="1943">create()</text>
  <text fill="rgb(0,0,0)" font-family="sans-serif" font-size="11" font-style="normal" font-weight="normal" text-anchor="middle" textLength="264" x="426.0" y="2347">writeObject(Object obj, AbstractHessianOutput out)</text>
  <path d="M 40 2589 L 764 2589" fill="none" stroke="rgb(0,0,0)" />
  <path d="M 40 2593 L 764 2593" fill="none" stroke="rgb(0,0,0)" />
  <path d="M 991 2589 L 1716 2589" fill="none" stroke="rgb(0,0,0)" />
  <path d="M 991 2593 L 1716 2593" fill="none" stroke="rgb(0,0,0)" />
  <rect fill="rgb(208,208,208)" height="21" stroke="rgb(0,0,0)" width="227" x="764" y="2581" />
  <text fill="rgb(0,0,0)" font-family="sans-serif" font-size="11" font-style="normal" font-weight="normal" text-anchor="middle" textLength="207" x="877.5" y="2598">D瓜哥 · https://www.diguage.com · 出品</text>
</svg>
