<svg xmlns="http://www.w3.org/2000/svg" xmlns:xlink="http://www.w3.org/1999/xlink" contentStyleType="text/css" height="507px" preserveAspectRatio="none" style="width:676px;height:507px;background:#FFFFFF;" version="1.1" viewBox="0 0 676 507" width="676px" zoomAndPan="magnify"><defs/><g><text fill="#888888" font-family="sans-serif" font-size="20" lengthAdjust="spacing" textLength="67" x="315" y="22.1812">D&#29916;&#21733; &#183;</text><text fill="#888888" font-family="JetBrains Mono" font-size="20" lengthAdjust="spacing" textLength="276" x="388" y="20.4">https://www.diguage.com</text><text fill="#000000" font-family="Source Han Sans SC" font-size="36" font-weight="bold" lengthAdjust="spacing" textLength="644" x="10" y="79.16">Hessian AbstractSerializerFactory &#31867;&#22270;</text><!--class AbstractSerializerFactory--><g id="elem_AbstractSerializerFactory"><rect codeLine="5" fill="#F1F1F1" height="113.5977" id="AbstractSerializerFactory" rx="2.5" ry="2.5" style="stroke:#181818;stroke-width:0.5;" width="346" x="162.25" y="107.528"/><ellipse cx="223.75" cy="124.528" fill="#A9DCDF" rx="12" ry="12" style="stroke:#181818;stroke-width:1.0;"/><path d="M223.6641,119.779 L222.4424,125.1491 L224.8945,125.1491 Z M222.082,117.4059 L225.2549,117.4059 L228.7969,130.528 L226.2041,130.528 L225.3955,127.2848 L221.9238,127.2848 L221.1328,130.528 L218.54,130.528 Z " fill="#000000"/><text fill="#000000" font-family="sans-serif" font-size="18" font-style="italic" lengthAdjust="spacing" textLength="214" x="245.75" y="131.3307">AbstractSerializerFactory</text><line style="stroke:#181818;stroke-width:0.5;" x1="163.25" x2="507.25" y1="141.528" y2="141.528"/><line style="stroke:#181818;stroke-width:0.5;" x1="163.25" x2="507.25" y1="149.528" y2="149.528"/><ellipse cx="173.25" cy="165.6276" fill="#84BE84" rx="3" ry="3" style="stroke:#038048;stroke-width:1.0;"/><text fill="#000000" font-family="sans-serif" font-size="18" lengthAdjust="spacing" textLength="275" x="183.25" y="170.9303">Serializer getSerializer(Class cl);</text><text fill="#000000" font-family="sans-serif" font-size="18" lengthAdjust="spacing" textLength="6" x="183.25" y="192.1296">&#160;</text><ellipse cx="173.25" cy="208.026" fill="#84BE84" rx="3" ry="3" style="stroke:#038048;stroke-width:1.0;"/><text fill="#000000" font-family="sans-serif" font-size="18" lengthAdjust="spacing" textLength="319" x="183.25" y="213.3288">Deserializer getDeserializer(Class cl);</text></g><!--class ExtSerializerFactory--><g id="elem_ExtSerializerFactory"><rect codeLine="11" fill="#F1F1F1" height="50" id="ExtSerializerFactory" rx="2.5" ry="2.5" style="stroke:#181818;stroke-width:0.5;" width="204" x="8.25" y="281.528"/><ellipse cx="24.25" cy="298.528" fill="#ADD1B2" rx="12" ry="12" style="stroke:#181818;stroke-width:1.0;"/><path d="M26.751,304.6501 Q26.1357,304.9665 25.459,305.1247 Q24.7822,305.2829 24.0352,305.2829 Q21.3809,305.2829 19.9834,303.5339 Q18.5859,301.7848 18.5859,298.4801 Q18.5859,295.1667 19.9834,293.4176 Q21.3809,291.6686 24.0352,291.6686 Q24.7822,291.6686 25.4678,291.8268 Q26.1533,291.985 26.751,292.3014 L26.751,295.1842 Q26.083,294.569 25.4546,294.2834 Q24.8262,293.9977 24.1582,293.9977 Q22.7344,293.9977 22.0093,295.1271 Q21.2842,296.2565 21.2842,298.4801 Q21.2842,300.695 22.0093,301.8244 Q22.7344,302.9538 24.1582,302.9538 Q24.8262,302.9538 25.4546,302.6681 Q26.083,302.3825 26.751,301.7673 Z " fill="#000000"/><text fill="#000000" font-family="sans-serif" font-size="18" lengthAdjust="spacing" textLength="170" x="39.25" y="305.3307">ExtSerializerFactory</text><line style="stroke:#181818;stroke-width:0.5;" x1="9.25" x2="211.25" y1="315.528" y2="315.528"/><line style="stroke:#181818;stroke-width:0.5;" x1="9.25" x2="211.25" y1="323.528" y2="323.528"/></g><g id="elem_GMN5"><path d="M45.75,404.528 L45.75,440.394 A0,0 0 0 0 45.75,440.394 L174.75,440.394 A0,0 0 0 0 174.75,440.394 L174.75,414.528 L164.75,404.528 L114.25,404.528 L110.25,331.988 L106.25,404.528 L45.75,404.528 A0,0 0 0 0 45.75,404.528 " fill="#FEFFDD" style="stroke:#181818;stroke-width:0.5;"/><path d="M164.75,404.528 L164.75,414.528 L174.75,414.528 L164.75,404.528 " fill="#FEFFDD" style="stroke:#181818;stroke-width:0.5;"/><text fill="#000000" font-family="Source Han Serif SC" font-size="18" lengthAdjust="spacing" textLength="108" x="51.75" y="430.246">&#27809;&#26377;&#34987;&#24341;&#29992;&#65281;</text></g><!--class SerializerFactory--><g id="elem_SerializerFactory"><rect codeLine="15" fill="#F1F1F1" height="50" id="SerializerFactory" rx="2.5" ry="2.5" style="stroke:#181818;stroke-width:0.5;" width="176" x="247.25" y="281.528"/><ellipse cx="263.25" cy="298.528" fill="#ADD1B2" rx="12" ry="12" style="stroke:#181818;stroke-width:1.0;"/><path d="M265.751,304.6501 Q265.1357,304.9665 264.459,305.1247 Q263.7822,305.2829 263.0352,305.2829 Q260.3809,305.2829 258.9834,303.5339 Q257.5859,301.7848 257.5859,298.4801 Q257.5859,295.1667 258.9834,293.4176 Q260.3809,291.6686 263.0352,291.6686 Q263.7822,291.6686 264.4678,291.8268 Q265.1533,291.985 265.751,292.3014 L265.751,295.1842 Q265.083,294.569 264.4546,294.2834 Q263.8262,293.9977 263.1582,293.9977 Q261.7344,293.9977 261.0093,295.1271 Q260.2842,296.2565 260.2842,298.4801 Q260.2842,300.695 261.0093,301.8244 Q261.7344,302.9538 263.1582,302.9538 Q263.8262,302.9538 264.4546,302.6681 Q265.083,302.3825 265.751,301.7673 Z " fill="#000000"/><text fill="#000000" font-family="sans-serif" font-size="18" lengthAdjust="spacing" textLength="142" x="278.25" y="305.3307">SerializerFactory</text><line style="stroke:#181818;stroke-width:0.5;" x1="248.25" x2="422.25" y1="315.528" y2="315.528"/><line style="stroke:#181818;stroke-width:0.5;" x1="248.25" x2="422.25" y1="323.528" y2="323.528"/></g><!--class BeanSerializerFactory--><g id="elem_BeanSerializerFactory"><rect codeLine="17" fill="#F1F1F1" height="50" id="BeanSerializerFactory" rx="2.5" ry="2.5" style="stroke:#181818;stroke-width:0.5;" width="217" x="225.75" y="397.528"/><ellipse cx="241.75" cy="414.528" fill="#ADD1B2" rx="12" ry="12" style="stroke:#181818;stroke-width:1.0;"/><path d="M244.251,420.6501 Q243.6357,420.9665 242.959,421.1247 Q242.2822,421.2829 241.5352,421.2829 Q238.8809,421.2829 237.4834,419.5339 Q236.0859,417.7848 236.0859,414.4801 Q236.0859,411.1667 237.4834,409.4176 Q238.8809,407.6686 241.5352,407.6686 Q242.2822,407.6686 242.9678,407.8268 Q243.6533,407.985 244.251,408.3014 L244.251,411.1842 Q243.583,410.569 242.9546,410.2834 Q242.3262,409.9977 241.6582,409.9977 Q240.2344,409.9977 239.5093,411.1271 Q238.7842,412.2565 238.7842,414.4801 Q238.7842,416.695 239.5093,417.8244 Q240.2344,418.9538 241.6582,418.9538 Q242.3262,418.9538 242.9546,418.6681 Q243.583,418.3825 244.251,417.7673 Z " fill="#000000"/><text fill="#000000" font-family="sans-serif" font-size="18" lengthAdjust="spacing" textLength="183" x="256.75" y="421.3307">BeanSerializerFactory</text><line style="stroke:#181818;stroke-width:0.5;" x1="226.75" x2="441.75" y1="431.528" y2="431.528"/><line style="stroke:#181818;stroke-width:0.5;" x1="226.75" x2="441.75" y1="439.528" y2="439.528"/></g><!--class JMXSerializerFactory--><g id="elem_JMXSerializerFactory"><rect codeLine="19" fill="#F1F1F1" height="50" id="JMXSerializerFactory" rx="2.5" ry="2.5" style="stroke:#181818;stroke-width:0.5;" width="209" x="460.75" y="281.528"/><ellipse cx="476.75" cy="298.528" fill="#ADD1B2" rx="12" ry="12" style="stroke:#181818;stroke-width:1.0;"/><path d="M479.251,304.6501 Q478.6357,304.9665 477.959,305.1247 Q477.2822,305.2829 476.5352,305.2829 Q473.8809,305.2829 472.4834,303.5339 Q471.0859,301.7848 471.0859,298.4801 Q471.0859,295.1667 472.4834,293.4176 Q473.8809,291.6686 476.5352,291.6686 Q477.2822,291.6686 477.9678,291.8268 Q478.6533,291.985 479.251,292.3014 L479.251,295.1842 Q478.583,294.569 477.9546,294.2834 Q477.3262,293.9977 476.6582,293.9977 Q475.2344,293.9977 474.5093,295.1271 Q473.7842,296.2565 473.7842,298.4801 Q473.7842,300.695 474.5093,301.8244 Q475.2344,302.9538 476.6582,302.9538 Q477.3262,302.9538 477.9546,302.6681 Q478.583,302.3825 479.251,301.7673 Z " fill="#000000"/><text fill="#000000" font-family="sans-serif" font-size="18" lengthAdjust="spacing" textLength="175" x="491.75" y="305.3307">JMXSerializerFactory</text><line style="stroke:#181818;stroke-width:0.5;" x1="461.75" x2="668.75" y1="315.528" y2="315.528"/><line style="stroke:#181818;stroke-width:0.5;" x1="461.75" x2="668.75" y1="323.528" y2="323.528"/></g><g id="elem_GMN14"><path d="M477.75,391.528 L477.75,453.26 A0,0 0 0 0 477.75,453.26 L654.75,453.26 A0,0 0 0 0 654.75,453.26 L654.75,401.528 L644.75,391.528 L569.99,391.528 L565.46,331.988 L561.99,391.528 L477.75,391.528 A0,0 0 0 0 477.75,391.528 " fill="#FEFFDD" style="stroke:#181818;stroke-width:0.5;"/><path d="M644.75,391.528 L644.75,401.528 L654.75,401.528 L644.75,391.528 " fill="#FEFFDD" style="stroke:#181818;stroke-width:0.5;"/><text fill="#000000" font-family="Source Han Serif SC" font-size="18" lengthAdjust="spacing" textLength="156" x="483.75" y="417.246">&#24207;&#21015;&#21270; JMX &#23545;&#35937;&#12290;</text><text fill="#000000" font-family="Source Han Serif SC" font-size="18" lengthAdjust="spacing" textLength="108" x="483.75" y="443.112">&#27809;&#26377;&#34987;&#24341;&#29992;&#65281;</text></g><!--reverse link AbstractSerializerFactory to ExtSerializerFactory--><g id="link_AbstractSerializerFactory_ExtSerializerFactory"><path d="M229.4258,231.3756 C196.3258,251.9656 175.88,264.688 149.58,281.058 " fill="none" id="AbstractSerializerFactory-backto-ExtSerializerFactory" style="stroke:#181818;stroke-width:1.0;"/><polygon fill="none" points="244.71,221.868,226.2566,226.2809,232.595,236.4703,244.71,221.868" style="stroke:#181818;stroke-width:1.0;"/></g><!--reverse link AbstractSerializerFactory to SerializerFactory--><g id="link_AbstractSerializerFactory_SerializerFactory"><path d="M335.25,239.668 C335.25,260.358 335.25,264.728 335.25,281.158 " fill="none" id="AbstractSerializerFactory-backto-SerializerFactory" style="stroke:#181818;stroke-width:1.0;"/><polygon fill="none" points="335.25,221.668,329.25,239.668,341.25,239.668,335.25,221.668" style="stroke:#181818;stroke-width:1.0;"/></g><!--reverse link SerializerFactory to BeanSerializerFactory--><g id="link_SerializerFactory_BeanSerializerFactory"><path d="M334.8809,349.9873 C334.7109,369.2173 334.63,377.888 334.46,397.108 " fill="none" id="SerializerFactory-backto-BeanSerializerFactory" style="stroke:#181818;stroke-width:1.0;"/><polygon fill="none" points="335.04,331.988,328.8811,349.9343,340.8806,350.0403,335.04,331.988" style="stroke:#181818;stroke-width:1.0;"/></g><!--reverse link AbstractSerializerFactory to JMXSerializerFactory--><g id="link_AbstractSerializerFactory_JMXSerializerFactory"><path d="M443.1848,231.2283 C477.0048,251.8183 498.16,264.688 525.05,281.058 " fill="none" id="AbstractSerializerFactory-backto-JMXSerializerFactory" style="stroke:#181818;stroke-width:1.0;"/><polygon fill="none" points="427.81,221.868,440.0647,236.3533,446.3049,226.1034,427.81,221.868" style="stroke:#181818;stroke-width:1.0;"/></g><text fill="#E22D30" font-family="Source Han Serif SC" font-size="28" lengthAdjust="spacing" textLength="94" x="46.5" y="491.488">D&#29916;&#21733; &#183;</text><text fill="#E22D30" font-family="JetBrains Mono" font-size="28" lengthAdjust="spacing" textLength="391" x="147.5" y="491.096">https://www.diguage.com</text><text fill="#E22D30" font-family="Source Han Serif SC" font-size="28" lengthAdjust="spacing" textLength="72" x="545.5" y="491.488">&#183; &#20986;&#21697;</text><!--SRC=[hP8zImCn6CVtV8g7Sz4ALIj8gPDMfGYwtEBW4k-UjeTtIKbIMXL1NLGG7EhBe4i5GN2GkeWlEFXL96qtlu9thTRJNek8OvBVxtd-UHAvwh025THpkRMADjYOfKLNpN6cJ6STOIn9v0z4ESh53Z0-qGNaaTeeEaHYj8l8Sgx2HB8FaUOk5p20YOGzFjexp2Br44nU51P2XZ8mAPDWfhi4vjUDv54usIZXAyclbOyXBd36PO5QQ7ViULJJWZf-jE2Gj2S5CutAkQvSmiiT64PUgO9CZOoKIgMuxUIAD8TnYtk6GKZhiX2BPL1AnmymjIALe9OAWb3NdwIOyrTSh46ZzgZFdcCnGkW70vPBfUoZR120OVZQXno6gC5qIxVSeKdI0cTGVaF3wp2yIKYxysmveYcM5JAxJon2WWU35QuKzu1deykae7vRhP_lDo-kzTDnu-ZgxMdxi- -VchRLQQIijzvJcrzO-e-RHfP9WNuur7kd-k0a043Vt3ThrTUjdMKMDOBsv_tb1mkEzUw3hco_0m00]--></g></svg>