<?xml version="1.0" encoding="UTF-8" standalone="no"?><svg xmlns="http://www.w3.org/2000/svg" xmlns:xlink="http://www.w3.org/1999/xlink" contentStyleType="text/css" height="532px" preserveAspectRatio="none" style="width:3205px;height:532px;background:#FFFFFF;" version="1.1" viewBox="0 0 3205 532" width="3205px" zoomAndPan="magnify"><defs/><g><rect height="52.3984" style="stroke:#00000000;stroke-width:1.0;fill:none;" width="425" x="1383" y="5"/><text fill="#000000" font-family="'Source" font-size="36" font-weight="bold" lengthAdjust="spacing" textLength="415" x="1388" y="44.8047">Hessian Serializer 类图</text><!--MD5=[0e2e915064bf2e2ee735763ff21e6466]
class Serializer--><g id="elem_Serializer"><rect codeLine="3" fill="#F1F1F1" height="71.1992" id="Serializer" rx="2.5" ry="2.5" style="stroke:#181818;stroke-width:0.5;" width="522" x="1372" y="70.3984"/><ellipse cx="1589" cy="87.3984" fill="#B4A7E5" rx="12" ry="12" style="stroke:#181818;stroke-width:1.0;"/><path d="M1585.0117,83.3115 L1585.0117,81.0264 L1592.8252,81.0264 L1592.8252,83.3115 L1590.2148,83.3115 L1590.2148,91.8633 L1592.8252,91.8633 L1592.8252,94.1484 L1585.0117,94.1484 L1585.0117,91.8633 L1587.6221,91.8633 L1587.6221,83.3115 Z " fill="#000000"/><text fill="#000000" font-family="sans-serif" font-size="18" font-style="italic" lengthAdjust="spacing" textLength="79" x="1611" y="94.2012">Serializer</text><line style="stroke:#181818;stroke-width:0.5;" x1="1373" x2="1893" y1="104.3984" y2="104.3984"/><line style="stroke:#181818;stroke-width:0.5;" x1="1373" x2="1893" y1="112.3984" y2="112.3984"/><ellipse cx="1383" cy="123.3984" fill="#84BE84" rx="3" ry="3" style="stroke:#038048;stroke-width:1.0;"/><text fill="#000000" font-family="sans-serif" font-size="18" lengthAdjust="spacing" textLength="495" x="1393" y="133.8008">void writeObject(Object obj, AbstractHessianOutput out);</text></g><!--MD5=[8c595983eb9c43054b99135b603648e6]
class ObjectSerializer--><g id="elem_ObjectSerializer"><rect codeLine="7" fill="#F1F1F1" height="71.1992" id="ObjectSerializer" rx="2.5" ry="2.5" style="stroke:#181818;stroke-width:0.5;" width="336" x="41" y="201.3984"/><ellipse cx="137" cy="218.3984" fill="#B4A7E5" rx="12" ry="12" style="stroke:#181818;stroke-width:1.0;"/><path d="M133.0117,214.3115 L133.0117,212.0264 L140.8252,212.0264 L140.8252,214.3115 L138.2148,214.3115 L138.2148,222.8633 L140.8252,222.8633 L140.8252,225.1484 L133.0117,225.1484 L133.0117,222.8633 L135.6221,222.8633 L135.6221,214.3115 Z " fill="#000000"/><text fill="#000000" font-family="sans-serif" font-size="18" font-style="italic" lengthAdjust="spacing" textLength="135" x="159" y="225.2012">ObjectSerializer</text><line style="stroke:#181818;stroke-width:0.5;" x1="42" x2="376" y1="235.3984" y2="235.3984"/><line style="stroke:#181818;stroke-width:0.5;" x1="42" x2="376" y1="243.3984" y2="243.3984"/><text fill="#000000" font-family="sans-serif" font-size="18" lengthAdjust="spacing" textLength="324" x="47" y="264.8008">public Serializer getObjectSerializer();</text></g><!--MD5=[404dae31c59c293c2ccca76809bb9a71]
class AbstractSerializer--><g id="elem_AbstractSerializer"><rect codeLine="11" fill="#F1F1F1" height="50" id="AbstractSerializer" rx="2.5" ry="2.5" style="stroke:#181818;stroke-width:0.5;" width="185" x="1540.5" y="211.8984"/><ellipse cx="1556.5" cy="228.8984" fill="#A9DCDF" rx="12" ry="12" style="stroke:#181818;stroke-width:1.0;"/><path d="M1556.4141,224.1494 L1555.1924,229.5195 L1557.6445,229.5195 Z M1554.832,221.7764 L1558.0049,221.7764 L1561.5469,234.8984 L1558.9541,234.8984 L1558.1455,231.6553 L1554.6738,231.6553 L1553.8828,234.8984 L1551.29,234.8984 Z " fill="#000000"/><text fill="#000000" font-family="sans-serif" font-size="18" font-style="italic" lengthAdjust="spacing" textLength="151" x="1571.5" y="235.7012">AbstractSerializer</text><line style="stroke:#181818;stroke-width:0.5;" x1="1541.5" x2="1724.5" y1="245.8984" y2="245.8984"/><line style="stroke:#181818;stroke-width:0.5;" x1="1541.5" x2="1724.5" y1="253.8984" y2="253.8984"/></g><!--MD5=[f3974e658892ccbfb48a18a39da598ad]
class AnnotationSerializer--><g id="elem_AnnotationSerializer"><rect codeLine="13" fill="#F1F1F1" height="50" id="AnnotationSerializer" rx="2.5" ry="2.5" style="stroke:#181818;stroke-width:0.5;" width="209" x="1981.5" y="332.3984"/><ellipse cx="1997.5" cy="349.3984" fill="#ADD1B2" rx="12" ry="12" style="stroke:#181818;stroke-width:1.0;"/><path d="M2000.001,355.5205 Q1999.3857,355.8369 1998.709,355.9951 Q1998.0322,356.1533 1997.2852,356.1533 Q1994.6309,356.1533 1993.2334,354.4043 Q1991.8359,352.6553 1991.8359,349.3506 Q1991.8359,346.0371 1993.2334,344.2881 Q1994.6309,342.5391 1997.2852,342.5391 Q1998.0322,342.5391 1998.7178,342.6973 Q1999.4033,342.8555 2000.001,343.1719 L2000.001,346.0547 Q1999.333,345.4395 1998.7046,345.1538 Q1998.0762,344.8682 1997.4082,344.8682 Q1995.9844,344.8682 1995.2593,345.9976 Q1994.5342,347.127 1994.5342,349.3506 Q1994.5342,351.5654 1995.2593,352.6948 Q1995.9844,353.8242 1997.4082,353.8242 Q1998.0762,353.8242 1998.7046,353.5386 Q1999.333,353.2529 2000.001,352.6377 Z " fill="#000000"/><text fill="#000000" font-family="sans-serif" font-size="18" lengthAdjust="spacing" textLength="175" x="2012.5" y="356.2012">AnnotationSerializer</text><line style="stroke:#181818;stroke-width:0.5;" x1="1982.5" x2="2189.5" y1="366.3984" y2="366.3984"/><line style="stroke:#181818;stroke-width:0.5;" x1="1982.5" x2="2189.5" y1="374.3984" y2="374.3984"/></g><!--MD5=[eb5fc1470b9608dee0d8432fc78ae9b1]
class ArraySerializer--><g id="elem_ArraySerializer"><rect codeLine="15" fill="#F1F1F1" height="50" id="ArraySerializer" rx="2.5" ry="2.5" style="stroke:#181818;stroke-width:0.5;" width="158" x="2226" y="332.3984"/><ellipse cx="2242" cy="349.3984" fill="#ADD1B2" rx="12" ry="12" style="stroke:#181818;stroke-width:1.0;"/><path d="M2244.501,355.5205 Q2243.8857,355.8369 2243.209,355.9951 Q2242.5322,356.1533 2241.7852,356.1533 Q2239.1309,356.1533 2237.7334,354.4043 Q2236.3359,352.6553 2236.3359,349.3506 Q2236.3359,346.0371 2237.7334,344.2881 Q2239.1309,342.5391 2241.7852,342.5391 Q2242.5322,342.5391 2243.2178,342.6973 Q2243.9033,342.8555 2244.501,343.1719 L2244.501,346.0547 Q2243.833,345.4395 2243.2046,345.1538 Q2242.5762,344.8682 2241.9082,344.8682 Q2240.4844,344.8682 2239.7593,345.9976 Q2239.0342,347.127 2239.0342,349.3506 Q2239.0342,351.5654 2239.7593,352.6948 Q2240.4844,353.8242 2241.9082,353.8242 Q2242.5762,353.8242 2243.2046,353.5386 Q2243.833,353.2529 2244.501,352.6377 Z " fill="#000000"/><text fill="#000000" font-family="sans-serif" font-size="18" lengthAdjust="spacing" textLength="124" x="2257" y="356.2012">ArraySerializer</text><line style="stroke:#181818;stroke-width:0.5;" x1="2227" x2="2383" y1="366.3984" y2="366.3984"/><line style="stroke:#181818;stroke-width:0.5;" x1="2227" x2="2383" y1="374.3984" y2="374.3984"/></g><!--MD5=[218c0af6851cdd6b2e2abab89b46105e]
class BasicSerializer--><g id="elem_BasicSerializer"><rect codeLine="17" fill="#F1F1F1" height="50" id="BasicSerializer" rx="2.5" ry="2.5" style="stroke:#181818;stroke-width:0.5;" width="156" x="236" y="332.3984"/><ellipse cx="252" cy="349.3984" fill="#ADD1B2" rx="12" ry="12" style="stroke:#181818;stroke-width:1.0;"/><path d="M254.501,355.5205 Q253.8857,355.8369 253.209,355.9951 Q252.5322,356.1533 251.7852,356.1533 Q249.1309,356.1533 247.7334,354.4043 Q246.3359,352.6553 246.3359,349.3506 Q246.3359,346.0371 247.7334,344.2881 Q249.1309,342.5391 251.7852,342.5391 Q252.5322,342.5391 253.2178,342.6973 Q253.9033,342.8555 254.501,343.1719 L254.501,346.0547 Q253.833,345.4395 253.2046,345.1538 Q252.5762,344.8682 251.9082,344.8682 Q250.4844,344.8682 249.7593,345.9976 Q249.0342,347.127 249.0342,349.3506 Q249.0342,351.5654 249.7593,352.6948 Q250.4844,353.8242 251.9082,353.8242 Q252.5762,353.8242 253.2046,353.5386 Q253.833,353.2529 254.501,352.6377 Z " fill="#000000"/><text fill="#000000" font-family="sans-serif" font-size="18" lengthAdjust="spacing" textLength="122" x="267" y="356.2012">BasicSerializer</text><line style="stroke:#181818;stroke-width:0.5;" x1="237" x2="391" y1="366.3984" y2="366.3984"/><line style="stroke:#181818;stroke-width:0.5;" x1="237" x2="391" y1="374.3984" y2="374.3984"/></g><g id="elem_GMN13"><path d="M33.5,442.3984 L33.5,494.7969 A0,0 0 0 0 33.5,494.7969 L594.5,494.7969 A0,0 0 0 0 594.5,494.7969 L594.5,452.3984 L584.5,442.3984 L318,442.3984 L314,382.5884 L310,442.3984 L33.5,442.3984 A0,0 0 0 0 33.5,442.3984 " fill="#FEFFDD" style="stroke:#181818;stroke-width:0.5;"/><path d="M584.5,442.3984 L584.5,452.3984 L594.5,452.3984 L584.5,442.3984 " fill="#FEFFDD" style="stroke:#181818;stroke-width:0.5;"/><text fill="#000000" font-family="'Source" font-size="18" lengthAdjust="spacing" textLength="518" x="39.5" y="464.8008">根据待序列化对象的类型，调用 AbstractHessianOutput 中的相</text><text fill="#000000" font-family="'Source" font-size="18" lengthAdjust="spacing" textLength="540" x="39.5" y="486">应序列化方法，完成对基本类型及其数组和字符串等的序列化操作。</text></g><!--MD5=[27260d91f7eed3e053b15010154ff4e8]
class ByteArraySerializer--><g id="elem_ByteArraySerializer"><rect codeLine="20" fill="#F1F1F1" height="50" id="ByteArraySerializer" rx="2.5" ry="2.5" style="stroke:#181818;stroke-width:0.5;" width="194" x="7" y="332.3984"/><ellipse cx="23" cy="349.3984" fill="#ADD1B2" rx="12" ry="12" style="stroke:#181818;stroke-width:1.0;"/><path d="M25.501,355.5205 Q24.8857,355.8369 24.209,355.9951 Q23.5322,356.1533 22.7852,356.1533 Q20.1309,356.1533 18.7334,354.4043 Q17.3359,352.6553 17.3359,349.3506 Q17.3359,346.0371 18.7334,344.2881 Q20.1309,342.5391 22.7852,342.5391 Q23.5322,342.5391 24.2178,342.6973 Q24.9033,342.8555 25.501,343.1719 L25.501,346.0547 Q24.833,345.4395 24.2046,345.1538 Q23.5762,344.8682 22.9082,344.8682 Q21.4844,344.8682 20.7593,345.9976 Q20.0342,347.127 20.0342,349.3506 Q20.0342,351.5654 20.7593,352.6948 Q21.4844,353.8242 22.9082,353.8242 Q23.5762,353.8242 24.2046,353.5386 Q24.833,353.2529 25.501,352.6377 Z " fill="#000000"/><text fill="#000000" font-family="sans-serif" font-size="18" lengthAdjust="spacing" textLength="160" x="38" y="356.2012">ByteArraySerializer</text><line style="stroke:#181818;stroke-width:0.5;" x1="8" x2="200" y1="366.3984" y2="366.3984"/><line style="stroke:#181818;stroke-width:0.5;" x1="8" x2="200" y1="374.3984" y2="374.3984"/></g><!--MD5=[934c542d6fbbecf065d0368fa991ee00]
class BeanSerializer--><g id="elem_BeanSerializer"><rect codeLine="22" fill="#F1F1F1" height="50" id="BeanSerializer" rx="2.5" ry="2.5" style="stroke:#181818;stroke-width:0.5;" width="154" x="2419" y="332.3984"/><ellipse cx="2435" cy="349.3984" fill="#ADD1B2" rx="12" ry="12" style="stroke:#181818;stroke-width:1.0;"/><path d="M2437.501,355.5205 Q2436.8857,355.8369 2436.209,355.9951 Q2435.5322,356.1533 2434.7852,356.1533 Q2432.1309,356.1533 2430.7334,354.4043 Q2429.3359,352.6553 2429.3359,349.3506 Q2429.3359,346.0371 2430.7334,344.2881 Q2432.1309,342.5391 2434.7852,342.5391 Q2435.5322,342.5391 2436.2178,342.6973 Q2436.9033,342.8555 2437.501,343.1719 L2437.501,346.0547 Q2436.833,345.4395 2436.2046,345.1538 Q2435.5762,344.8682 2434.9082,344.8682 Q2433.4844,344.8682 2432.7593,345.9976 Q2432.0342,347.127 2432.0342,349.3506 Q2432.0342,351.5654 2432.7593,352.6948 Q2433.4844,353.8242 2434.9082,353.8242 Q2435.5762,353.8242 2436.2046,353.5386 Q2436.833,353.2529 2437.501,352.6377 Z " fill="#000000"/><text fill="#000000" font-family="sans-serif" font-size="18" lengthAdjust="spacing" textLength="120" x="2450" y="356.2012">BeanSerializer</text><line style="stroke:#181818;stroke-width:0.5;" x1="2420" x2="2572" y1="366.3984" y2="366.3984"/><line style="stroke:#181818;stroke-width:0.5;" x1="2420" x2="2572" y1="374.3984" y2="374.3984"/></g><!--MD5=[6fbca0171fc50395526e3303a2792337]
class ClassSerializer--><g id="elem_ClassSerializer"><rect codeLine="26" fill="#F1F1F1" height="50" id="ClassSerializer" rx="2.5" ry="2.5" style="stroke:#181818;stroke-width:0.5;" width="158" x="2608" y="332.3984"/><ellipse cx="2624" cy="349.3984" fill="#ADD1B2" rx="12" ry="12" style="stroke:#181818;stroke-width:1.0;"/><path d="M2626.501,355.5205 Q2625.8857,355.8369 2625.209,355.9951 Q2624.5322,356.1533 2623.7852,356.1533 Q2621.1309,356.1533 2619.7334,354.4043 Q2618.3359,352.6553 2618.3359,349.3506 Q2618.3359,346.0371 2619.7334,344.2881 Q2621.1309,342.5391 2623.7852,342.5391 Q2624.5322,342.5391 2625.2178,342.6973 Q2625.9033,342.8555 2626.501,343.1719 L2626.501,346.0547 Q2625.833,345.4395 2625.2046,345.1538 Q2624.5762,344.8682 2623.9082,344.8682 Q2622.4844,344.8682 2621.7593,345.9976 Q2621.0342,347.127 2621.0342,349.3506 Q2621.0342,351.5654 2621.7593,352.6948 Q2622.4844,353.8242 2623.9082,353.8242 Q2624.5762,353.8242 2625.2046,353.5386 Q2625.833,353.2529 2626.501,352.6377 Z " fill="#000000"/><text fill="#000000" font-family="sans-serif" font-size="18" lengthAdjust="spacing" textLength="124" x="2639" y="356.2012">ClassSerializer</text><line style="stroke:#181818;stroke-width:0.5;" x1="2609" x2="2765" y1="366.3984" y2="366.3984"/><line style="stroke:#181818;stroke-width:0.5;" x1="2609" x2="2765" y1="374.3984" y2="374.3984"/></g><!--MD5=[bba0442e2017eefebaa0262f52e81494]
class CollectionSerializer--><g id="elem_CollectionSerializer"><rect codeLine="28" fill="#F1F1F1" height="50" id="CollectionSerializer" rx="2.5" ry="2.5" style="stroke:#181818;stroke-width:0.5;" width="199" x="2801.5" y="332.3984"/><ellipse cx="2817.5" cy="349.3984" fill="#ADD1B2" rx="12" ry="12" style="stroke:#181818;stroke-width:1.0;"/><path d="M2820.001,355.5205 Q2819.3857,355.8369 2818.709,355.9951 Q2818.0322,356.1533 2817.2852,356.1533 Q2814.6309,356.1533 2813.2334,354.4043 Q2811.8359,352.6553 2811.8359,349.3506 Q2811.8359,346.0371 2813.2334,344.2881 Q2814.6309,342.5391 2817.2852,342.5391 Q2818.0322,342.5391 2818.7178,342.6973 Q2819.4033,342.8555 2820.001,343.1719 L2820.001,346.0547 Q2819.333,345.4395 2818.7046,345.1538 Q2818.0762,344.8682 2817.4082,344.8682 Q2815.9844,344.8682 2815.2593,345.9976 Q2814.5342,347.127 2814.5342,349.3506 Q2814.5342,351.5654 2815.2593,352.6948 Q2815.9844,353.8242 2817.4082,353.8242 Q2818.0762,353.8242 2818.7046,353.5386 Q2819.333,353.2529 2820.001,352.6377 Z " fill="#000000"/><text fill="#000000" font-family="sans-serif" font-size="18" lengthAdjust="spacing" textLength="165" x="2832.5" y="356.2012">CollectionSerializer</text><line style="stroke:#181818;stroke-width:0.5;" x1="2802.5" x2="2999.5" y1="366.3984" y2="366.3984"/><line style="stroke:#181818;stroke-width:0.5;" x1="2802.5" x2="2999.5" y1="374.3984" y2="374.3984"/></g><!--MD5=[d8af3991daea88d4bb78e2a594543ac9]
class EnumSerializer--><g id="elem_EnumSerializer"><rect codeLine="32" fill="#F1F1F1" height="50" id="EnumSerializer" rx="2.5" ry="2.5" style="stroke:#181818;stroke-width:0.5;" width="162" x="3036" y="332.3984"/><ellipse cx="3052" cy="349.3984" fill="#ADD1B2" rx="12" ry="12" style="stroke:#181818;stroke-width:1.0;"/><path d="M3054.501,355.5205 Q3053.8857,355.8369 3053.209,355.9951 Q3052.5322,356.1533 3051.7852,356.1533 Q3049.1309,356.1533 3047.7334,354.4043 Q3046.3359,352.6553 3046.3359,349.3506 Q3046.3359,346.0371 3047.7334,344.2881 Q3049.1309,342.5391 3051.7852,342.5391 Q3052.5322,342.5391 3053.2178,342.6973 Q3053.9033,342.8555 3054.501,343.1719 L3054.501,346.0547 Q3053.833,345.4395 3053.2046,345.1538 Q3052.5762,344.8682 3051.9082,344.8682 Q3050.4844,344.8682 3049.7593,345.9976 Q3049.0342,347.127 3049.0342,349.3506 Q3049.0342,351.5654 3049.7593,352.6948 Q3050.4844,353.8242 3051.9082,353.8242 Q3052.5762,353.8242 3053.2046,353.5386 Q3053.833,353.2529 3054.501,352.6377 Z " fill="#000000"/><text fill="#000000" font-family="sans-serif" font-size="18" lengthAdjust="spacing" textLength="128" x="3067" y="356.2012">EnumSerializer</text><line style="stroke:#181818;stroke-width:0.5;" x1="3037" x2="3197" y1="366.3984" y2="366.3984"/><line style="stroke:#181818;stroke-width:0.5;" x1="3037" x2="3197" y1="374.3984" y2="374.3984"/></g><!--MD5=[63cd224e1ee1888d41989093aa810803]
class InputStreamSerializer--><g id="elem_InputStreamSerializer"><rect codeLine="36" fill="#F1F1F1" height="50" id="InputStreamSerializer" rx="2.5" ry="2.5" style="stroke:#181818;stroke-width:0.5;" width="219" x="427.5" y="332.3984"/><ellipse cx="443.5" cy="349.3984" fill="#ADD1B2" rx="12" ry="12" style="stroke:#181818;stroke-width:1.0;"/><path d="M446.001,355.5205 Q445.3857,355.8369 444.709,355.9951 Q444.0322,356.1533 443.2852,356.1533 Q440.6309,356.1533 439.2334,354.4043 Q437.8359,352.6553 437.8359,349.3506 Q437.8359,346.0371 439.2334,344.2881 Q440.6309,342.5391 443.2852,342.5391 Q444.0322,342.5391 444.7178,342.6973 Q445.4033,342.8555 446.001,343.1719 L446.001,346.0547 Q445.333,345.4395 444.7046,345.1538 Q444.0762,344.8682 443.4082,344.8682 Q441.9844,344.8682 441.2593,345.9976 Q440.5342,347.127 440.5342,349.3506 Q440.5342,351.5654 441.2593,352.6948 Q441.9844,353.8242 443.4082,353.8242 Q444.0762,353.8242 444.7046,353.5386 Q445.333,353.2529 446.001,352.6377 Z " fill="#000000"/><text fill="#000000" font-family="sans-serif" font-size="18" lengthAdjust="spacing" textLength="185" x="458.5" y="356.2012">InputStreamSerializer</text><line style="stroke:#181818;stroke-width:0.5;" x1="428.5" x2="645.5" y1="366.3984" y2="366.3984"/><line style="stroke:#181818;stroke-width:0.5;" x1="428.5" x2="645.5" y1="374.3984" y2="374.3984"/></g><!--MD5=[ac87bb061af005deec317070f6c52437]
class IteratorSerializer--><g id="elem_IteratorSerializer"><rect codeLine="38" fill="#F1F1F1" height="50" id="IteratorSerializer" rx="2.5" ry="2.5" style="stroke:#181818;stroke-width:0.5;" width="177" x="681.5" y="332.3984"/><ellipse cx="697.5" cy="349.3984" fill="#ADD1B2" rx="12" ry="12" style="stroke:#181818;stroke-width:1.0;"/><path d="M700.001,355.5205 Q699.3857,355.8369 698.709,355.9951 Q698.0322,356.1533 697.2852,356.1533 Q694.6309,356.1533 693.2334,354.4043 Q691.8359,352.6553 691.8359,349.3506 Q691.8359,346.0371 693.2334,344.2881 Q694.6309,342.5391 697.2852,342.5391 Q698.0322,342.5391 698.7178,342.6973 Q699.4033,342.8555 700.001,343.1719 L700.001,346.0547 Q699.333,345.4395 698.7046,345.1538 Q698.0762,344.8682 697.4082,344.8682 Q695.9844,344.8682 695.2593,345.9976 Q694.5342,347.127 694.5342,349.3506 Q694.5342,351.5654 695.2593,352.6948 Q695.9844,353.8242 697.4082,353.8242 Q698.0762,353.8242 698.7046,353.5386 Q699.333,353.2529 700.001,352.6377 Z " fill="#000000"/><text fill="#000000" font-family="sans-serif" font-size="18" lengthAdjust="spacing" textLength="143" x="712.5" y="356.2012">IteratorSerializer</text><line style="stroke:#181818;stroke-width:0.5;" x1="682.5" x2="857.5" y1="366.3984" y2="366.3984"/><line style="stroke:#181818;stroke-width:0.5;" x1="682.5" x2="857.5" y1="374.3984" y2="374.3984"/></g><!--MD5=[68583a43b244d1f50a5815c4ffd14464]
class JavaSerializer--><g id="elem_JavaSerializer"><rect codeLine="40" fill="#F1F1F1" height="50" id="JavaSerializer" rx="2.5" ry="2.5" style="stroke:#181818;stroke-width:0.5;" width="148" x="894" y="332.3984"/><ellipse cx="910" cy="349.3984" fill="#ADD1B2" rx="12" ry="12" style="stroke:#181818;stroke-width:1.0;"/><path d="M912.501,355.5205 Q911.8857,355.8369 911.209,355.9951 Q910.5322,356.1533 909.7852,356.1533 Q907.1309,356.1533 905.7334,354.4043 Q904.3359,352.6553 904.3359,349.3506 Q904.3359,346.0371 905.7334,344.2881 Q907.1309,342.5391 909.7852,342.5391 Q910.5322,342.5391 911.2178,342.6973 Q911.9033,342.8555 912.501,343.1719 L912.501,346.0547 Q911.833,345.4395 911.2046,345.1538 Q910.5762,344.8682 909.9082,344.8682 Q908.4844,344.8682 907.7593,345.9976 Q907.0342,347.127 907.0342,349.3506 Q907.0342,351.5654 907.7593,352.6948 Q908.4844,353.8242 909.9082,353.8242 Q910.5762,353.8242 911.2046,353.5386 Q911.833,353.2529 912.501,352.6377 Z " fill="#000000"/><text fill="#000000" font-family="sans-serif" font-size="18" lengthAdjust="spacing" textLength="114" x="925" y="356.2012">JavaSerializer</text><line style="stroke:#181818;stroke-width:0.5;" x1="895" x2="1041" y1="366.3984" y2="366.3984"/><line style="stroke:#181818;stroke-width:0.5;" x1="895" x2="1041" y1="374.3984" y2="374.3984"/></g><!--MD5=[3f66bc46585b874d1b4cb177b31e6d55]
class JavaUnsharedSerializer--><g id="elem_JavaUnsharedSerializer"><rect codeLine="42" fill="#F1F1F1" height="50" id="JavaUnsharedSerializer" rx="2.5" ry="2.5" style="stroke:#181818;stroke-width:0.5;" width="229" x="853.5" y="443.3984"/><ellipse cx="869.5" cy="460.3984" fill="#ADD1B2" rx="12" ry="12" style="stroke:#181818;stroke-width:1.0;"/><path d="M872.001,466.5205 Q871.3857,466.8369 870.709,466.9951 Q870.0322,467.1533 869.2852,467.1533 Q866.6309,467.1533 865.2334,465.4043 Q863.8359,463.6553 863.8359,460.3506 Q863.8359,457.0371 865.2334,455.2881 Q866.6309,453.5391 869.2852,453.5391 Q870.0322,453.5391 870.7178,453.6973 Q871.4033,453.8555 872.001,454.1719 L872.001,457.0547 Q871.333,456.4395 870.7046,456.1538 Q870.0762,455.8682 869.4082,455.8682 Q867.9844,455.8682 867.2593,456.9976 Q866.5342,458.127 866.5342,460.3506 Q866.5342,462.5654 867.2593,463.6948 Q867.9844,464.8242 869.4082,464.8242 Q870.0762,464.8242 870.7046,464.5386 Q871.333,464.2529 872.001,463.6377 Z " fill="#000000"/><text fill="#000000" font-family="sans-serif" font-size="18" lengthAdjust="spacing" textLength="195" x="884.5" y="467.2012">JavaUnsharedSerializer</text><line style="stroke:#181818;stroke-width:0.5;" x1="854.5" x2="1081.5" y1="477.3984" y2="477.3984"/><line style="stroke:#181818;stroke-width:0.5;" x1="854.5" x2="1081.5" y1="485.3984" y2="485.3984"/></g><!--MD5=[22c2c9c97f704fd40d025a0a2a63df57]
class MapSerializer--><g id="elem_MapSerializer"><rect codeLine="46" fill="#F1F1F1" height="50" id="MapSerializer" rx="2.5" ry="2.5" style="stroke:#181818;stroke-width:0.5;" width="150" x="1077" y="332.3984"/><ellipse cx="1093" cy="349.3984" fill="#ADD1B2" rx="12" ry="12" style="stroke:#181818;stroke-width:1.0;"/><path d="M1095.501,355.5205 Q1094.8857,355.8369 1094.209,355.9951 Q1093.5322,356.1533 1092.7852,356.1533 Q1090.1309,356.1533 1088.7334,354.4043 Q1087.3359,352.6553 1087.3359,349.3506 Q1087.3359,346.0371 1088.7334,344.2881 Q1090.1309,342.5391 1092.7852,342.5391 Q1093.5322,342.5391 1094.2178,342.6973 Q1094.9033,342.8555 1095.501,343.1719 L1095.501,346.0547 Q1094.833,345.4395 1094.2046,345.1538 Q1093.5762,344.8682 1092.9082,344.8682 Q1091.4844,344.8682 1090.7593,345.9976 Q1090.0342,347.127 1090.0342,349.3506 Q1090.0342,351.5654 1090.7593,352.6948 Q1091.4844,353.8242 1092.9082,353.8242 Q1093.5762,353.8242 1094.2046,353.5386 Q1094.833,353.2529 1095.501,352.6377 Z " fill="#000000"/><text fill="#000000" font-family="sans-serif" font-size="18" lengthAdjust="spacing" textLength="116" x="1108" y="356.2012">MapSerializer</text><line style="stroke:#181818;stroke-width:0.5;" x1="1078" x2="1226" y1="366.3984" y2="366.3984"/><line style="stroke:#181818;stroke-width:0.5;" x1="1078" x2="1226" y1="374.3984" y2="374.3984"/></g><!--MD5=[b2a8ce305ffff3a88d73181270abcf12]
class ObjectHandleSerializer--><g id="elem_ObjectHandleSerializer"><rect codeLine="48" fill="#F1F1F1" height="50" id="ObjectHandleSerializer" rx="2.5" ry="2.5" style="stroke:#181818;stroke-width:0.5;" width="229" x="1262.5" y="332.3984"/><ellipse cx="1278.5" cy="349.3984" fill="#ADD1B2" rx="12" ry="12" style="stroke:#181818;stroke-width:1.0;"/><path d="M1281.001,355.5205 Q1280.3857,355.8369 1279.709,355.9951 Q1279.0322,356.1533 1278.2852,356.1533 Q1275.6309,356.1533 1274.2334,354.4043 Q1272.8359,352.6553 1272.8359,349.3506 Q1272.8359,346.0371 1274.2334,344.2881 Q1275.6309,342.5391 1278.2852,342.5391 Q1279.0322,342.5391 1279.7178,342.6973 Q1280.4033,342.8555 1281.001,343.1719 L1281.001,346.0547 Q1280.333,345.4395 1279.7046,345.1538 Q1279.0762,344.8682 1278.4082,344.8682 Q1276.9844,344.8682 1276.2593,345.9976 Q1275.5342,347.127 1275.5342,349.3506 Q1275.5342,351.5654 1276.2593,352.6948 Q1276.9844,353.8242 1278.4082,353.8242 Q1279.0762,353.8242 1279.7046,353.5386 Q1280.333,353.2529 1281.001,352.6377 Z " fill="#000000"/><text fill="#000000" font-family="sans-serif" font-size="18" lengthAdjust="spacing" textLength="195" x="1293.5" y="356.2012">ObjectHandleSerializer</text><line style="stroke:#181818;stroke-width:0.5;" x1="1263.5" x2="1490.5" y1="366.3984" y2="366.3984"/><line style="stroke:#181818;stroke-width:0.5;" x1="1263.5" x2="1490.5" y1="374.3984" y2="374.3984"/></g><!--MD5=[9aaf1d7242973d417f7b53e056795a60]
class StringValueSerializer--><g id="elem_StringValueSerializer"><rect codeLine="54" fill="#F1F1F1" height="50" id="StringValueSerializer" rx="2.5" ry="2.5" style="stroke:#181818;stroke-width:0.5;" width="212" x="1527" y="332.3984"/><ellipse cx="1543" cy="349.3984" fill="#ADD1B2" rx="12" ry="12" style="stroke:#181818;stroke-width:1.0;"/><path d="M1545.501,355.5205 Q1544.8857,355.8369 1544.209,355.9951 Q1543.5322,356.1533 1542.7852,356.1533 Q1540.1309,356.1533 1538.7334,354.4043 Q1537.3359,352.6553 1537.3359,349.3506 Q1537.3359,346.0371 1538.7334,344.2881 Q1540.1309,342.5391 1542.7852,342.5391 Q1543.5322,342.5391 1544.2178,342.6973 Q1544.9033,342.8555 1545.501,343.1719 L1545.501,346.0547 Q1544.833,345.4395 1544.2046,345.1538 Q1543.5762,344.8682 1542.9082,344.8682 Q1541.4844,344.8682 1540.7593,345.9976 Q1540.0342,347.127 1540.0342,349.3506 Q1540.0342,351.5654 1540.7593,352.6948 Q1541.4844,353.8242 1542.9082,353.8242 Q1543.5762,353.8242 1544.2046,353.5386 Q1544.833,353.2529 1545.501,352.6377 Z " fill="#000000"/><text fill="#000000" font-family="sans-serif" font-size="18" lengthAdjust="spacing" textLength="178" x="1558" y="356.2012">StringValueSerializer</text><line style="stroke:#181818;stroke-width:0.5;" x1="1528" x2="1738" y1="366.3984" y2="366.3984"/><line style="stroke:#181818;stroke-width:0.5;" x1="1528" x2="1738" y1="374.3984" y2="374.3984"/></g><!--MD5=[f428a1f5b3fa47f496556a7ff9d419bc]
class UnsafeSerializer--><g id="elem_UnsafeSerializer"><rect codeLine="56" fill="#F1F1F1" height="50" id="UnsafeSerializer" rx="2.5" ry="2.5" style="stroke:#181818;stroke-width:0.5;" width="172" x="1774" y="332.3984"/><ellipse cx="1790" cy="349.3984" fill="#ADD1B2" rx="12" ry="12" style="stroke:#181818;stroke-width:1.0;"/><path d="M1792.501,355.5205 Q1791.8857,355.8369 1791.209,355.9951 Q1790.5322,356.1533 1789.7852,356.1533 Q1787.1309,356.1533 1785.7334,354.4043 Q1784.3359,352.6553 1784.3359,349.3506 Q1784.3359,346.0371 1785.7334,344.2881 Q1787.1309,342.5391 1789.7852,342.5391 Q1790.5322,342.5391 1791.2178,342.6973 Q1791.9033,342.8555 1792.501,343.1719 L1792.501,346.0547 Q1791.833,345.4395 1791.2046,345.1538 Q1790.5762,344.8682 1789.9082,344.8682 Q1788.4844,344.8682 1787.7593,345.9976 Q1787.0342,347.127 1787.0342,349.3506 Q1787.0342,351.5654 1787.7593,352.6948 Q1788.4844,353.8242 1789.9082,353.8242 Q1790.5762,353.8242 1791.2046,353.5386 Q1791.833,353.2529 1792.501,352.6377 Z " fill="#000000"/><text fill="#000000" font-family="sans-serif" font-size="18" lengthAdjust="spacing" textLength="138" x="1805" y="356.2012">UnsafeSerializer</text><line style="stroke:#181818;stroke-width:0.5;" x1="1775" x2="1945" y1="366.3984" y2="366.3984"/><line style="stroke:#181818;stroke-width:0.5;" x1="1775" x2="1945" y1="374.3984" y2="374.3984"/></g><!--MD5=[565164e04fb61fc2e23f9ba0e506d3e3]
class UnsafeUnsharedSerializer--><g id="elem_UnsafeUnsharedSerializer"><rect codeLine="58" fill="#F1F1F1" height="50" id="UnsafeUnsharedSerializer" rx="2.5" ry="2.5" style="stroke:#181818;stroke-width:0.5;" width="253" x="1733.5" y="443.3984"/><ellipse cx="1749.5" cy="460.3984" fill="#ADD1B2" rx="12" ry="12" style="stroke:#181818;stroke-width:1.0;"/><path d="M1752.001,466.5205 Q1751.3857,466.8369 1750.709,466.9951 Q1750.0322,467.1533 1749.2852,467.1533 Q1746.6309,467.1533 1745.2334,465.4043 Q1743.8359,463.6553 1743.8359,460.3506 Q1743.8359,457.0371 1745.2334,455.2881 Q1746.6309,453.5391 1749.2852,453.5391 Q1750.0322,453.5391 1750.7178,453.6973 Q1751.4033,453.8555 1752.001,454.1719 L1752.001,457.0547 Q1751.333,456.4395 1750.7046,456.1538 Q1750.0762,455.8682 1749.4082,455.8682 Q1747.9844,455.8682 1747.2593,456.9976 Q1746.5342,458.127 1746.5342,460.3506 Q1746.5342,462.5654 1747.2593,463.6948 Q1747.9844,464.8242 1749.4082,464.8242 Q1750.0762,464.8242 1750.7046,464.5386 Q1751.333,464.2529 1752.001,463.6377 Z " fill="#000000"/><text fill="#000000" font-family="sans-serif" font-size="18" lengthAdjust="spacing" textLength="219" x="1764.5" y="467.2012">UnsafeUnsharedSerializer</text><line style="stroke:#181818;stroke-width:0.5;" x1="1734.5" x2="1985.5" y1="477.3984" y2="477.3984"/><line style="stroke:#181818;stroke-width:0.5;" x1="1734.5" x2="1985.5" y1="485.3984" y2="485.3984"/></g><!--MD5=[8d1cb1ce662ef78ffa2bc2ec39d2d9f8]
reverse link Serializer to AbstractSerializer--><g id="link_Serializer_AbstractSerializer"><path d="M1633,161.6384 C1633,179.1784 1633,197.6984 1633,211.8584 " fill="none" id="Serializer-backto-AbstractSerializer" style="stroke:#181818;stroke-width:1.0;stroke-dasharray:7.0,7.0;"/><polygon fill="none" points="1626,161.4684,1633,141.4684,1640,161.4684,1626,161.4684" style="stroke:#181818;stroke-width:1.0;"/></g><!--MD5=[a8dafea9debe4625db52122dd520082e]
reverse link AbstractSerializer to AnnotationSerializer--><g id="link_AbstractSerializer_AnnotationSerializer"><path d="M1744.42,267.0484 C1821.2,287.1284 1922.02,313.4984 1994.19,332.3784 " fill="none" id="AbstractSerializer-backto-AnnotationSerializer" style="stroke:#181818;stroke-width:1.0;"/><polygon fill="none" points="1742.52,273.7884,1724.94,261.9484,1746.06,260.2384,1742.52,273.7884" style="stroke:#181818;stroke-width:1.0;"/></g><!--MD5=[b197ad33ddf4f80210b2ca81ac1bb9c2]
reverse link AbstractSerializer to ArraySerializer--><g id="link_AbstractSerializer_ArraySerializer"><path d="M1745.34,253.6584 C1861.6,270.5984 2048.22,299.5584 2208,332.3984 C2213.86,333.6084 2219.91,334.9184 2225.98,336.2984 " fill="none" id="AbstractSerializer-backto-ArraySerializer" style="stroke:#181818;stroke-width:1.0;"/><polygon fill="none" points="1744.32,260.5784,1725.53,250.7884,1746.33,246.7284,1744.32,260.5784" style="stroke:#181818;stroke-width:1.0;"/></g><!--MD5=[1b0da3b51431b4ae1a4be8dfb69196ad]
reverse link AbstractSerializer to BasicSerializer--><g id="link_AbstractSerializer_BasicSerializer"><path d="M1520.23,240.2984 C1303.69,246.2984 815.23,266.5684 410,332.3984 C404.15,333.3484 398.13,334.4784 392.1,335.7184 " fill="none" id="AbstractSerializer-backto-BasicSerializer" style="stroke:#181818;stroke-width:1.0;"/><polygon fill="none" points="1520.14,233.2984,1540.32,239.7584,1520.51,247.2884,1520.14,233.2984" style="stroke:#181818;stroke-width:1.0;"/></g><!--MD5=[8f68de0d55081ac3391935db2db5cbcb]
reverse link ObjectSerializer to BasicSerializer--><g id="link_ObjectSerializer_BasicSerializer"><path d="M253.34,287.9384 C266.89,303.2284 281.17,319.3484 292.48,332.1084 " fill="none" id="ObjectSerializer-backto-BasicSerializer" style="stroke:#181818;stroke-width:1.0;stroke-dasharray:7.0,7.0;"/><polygon fill="none" points="247.68,292.1084,239.65,272.4884,258.16,282.8184,247.68,292.1084" style="stroke:#181818;stroke-width:1.0;"/></g><!--MD5=[9cfd79cb6d69364608098d42552d5ec3]
reverse link AbstractSerializer to ByteArraySerializer--><g id="link_AbstractSerializer_ByteArraySerializer"><path d="M1520.09,240.0484 C1279.59,245.8084 699.39,265.9884 218,332.3984 C212.49,333.1584 206.85,334.0284 201.17,334.9884 " fill="none" id="AbstractSerializer-backto-ByteArraySerializer" style="stroke:#181818;stroke-width:1.0;"/><polygon fill="none" points="1520.09,233.0484,1540.25,239.5784,1520.41,247.0384,1520.09,233.0484" style="stroke:#181818;stroke-width:1.0;"/></g><!--MD5=[11ee610ac77c156f730ca95596f3082a]
reverse link ObjectSerializer to ByteArraySerializer--><g id="link_ObjectSerializer_ByteArraySerializer"><path d="M164.66,287.9384 C151.11,303.2284 136.83,319.3484 125.52,332.1084 " fill="none" id="ObjectSerializer-backto-ByteArraySerializer" style="stroke:#181818;stroke-width:1.0;stroke-dasharray:7.0,7.0;"/><polygon fill="none" points="159.84,282.8184,178.35,272.4884,170.32,292.1084,159.84,282.8184" style="stroke:#181818;stroke-width:1.0;"/></g><!--MD5=[4f5acb401603cb9499d34cd0cafc0df3]
reverse link AbstractSerializer to BeanSerializer--><g id="link_AbstractSerializer_BeanSerializer"><path d="M1745.57,247.1884 C1896.01,260.6484 2170.57,288.8184 2402,332.3984 C2407.54,333.4384 2413.25,334.6284 2418.97,335.8884 " fill="none" id="AbstractSerializer-backto-BeanSerializer" style="stroke:#181818;stroke-width:1.0;"/><polygon fill="none" points="1744.93,254.1684,1725.62,245.4284,1746.16,240.2184,1744.93,254.1684" style="stroke:#181818;stroke-width:1.0;"/></g><!--MD5=[e130d3fc47edd69db3fc0336bd592b9d]
reverse link AbstractSerializer to ClassSerializer--><g id="link_AbstractSerializer_ClassSerializer"><path d="M1745.99,243.6684 C1925.9,254.0484 2288.11,279.8884 2591,332.3984 C2596.5,333.3484 2602.15,334.4484 2607.83,335.6384 " fill="none" id="AbstractSerializer-backto-ClassSerializer" style="stroke:#181818;stroke-width:1.0;"/><polygon fill="none" points="1745.32,250.6384,1725.75,242.5184,1746.12,236.6584,1745.32,250.6384" style="stroke:#181818;stroke-width:1.0;"/></g><!--MD5=[d0f8742d9e379eca611a0be987b75c1a]
reverse link AbstractSerializer to CollectionSerializer--><g id="link_AbstractSerializer_CollectionSerializer"><path d="M1745.66,242.6384 C1952.32,252.3384 2405.55,278.2484 2784,332.3984 C2789.64,333.2084 2795.43,334.1184 2801.25,335.0984 " fill="none" id="AbstractSerializer-backto-CollectionSerializer" style="stroke:#181818;stroke-width:1.0;"/><polygon fill="none" points="1745.21,249.6284,1725.55,241.7084,1745.85,235.6384,1745.21,249.6284" style="stroke:#181818;stroke-width:1.0;"/></g><!--MD5=[e23379854fcdea3adb5b446fabdffcc4]
reverse link AbstractSerializer to EnumSerializer--><g id="link_AbstractSerializer_EnumSerializer"><path d="M1745.78,239.1284 C1982.76,243.1284 2549.26,260.1284 3018,332.3984 C3023.86,333.2984 3029.87,334.3784 3035.91,335.5684 " fill="none" id="AbstractSerializer-backto-EnumSerializer" style="stroke:#181818;stroke-width:1.0;"/><polygon fill="none" points="1745.46,246.1184,1725.57,238.8084,1745.68,232.1284,1745.46,246.1184" style="stroke:#181818;stroke-width:1.0;"/></g><!--MD5=[d827dbac8dcf70b2c8bad754ae6d9545]
reverse link AbstractSerializer to InputStreamSerializer--><g id="link_AbstractSerializer_InputStreamSerializer"><path d="M1520.39,245.5884 C1339.33,258.6984 972.54,288.2884 664,332.3984 C658.34,333.2084 652.54,334.0984 646.69,335.0384 " fill="none" id="AbstractSerializer-backto-InputStreamSerializer" style="stroke:#181818;stroke-width:1.0;"/><polygon fill="none" points="1520.03,238.5984,1540.48,244.1484,1521.03,252.5584,1520.03,238.5984" style="stroke:#181818;stroke-width:1.0;"/></g><!--MD5=[b650b9b483e4a28024d8fc45fe50bcf6]
reverse link AbstractSerializer to IteratorSerializer--><g id="link_AbstractSerializer_IteratorSerializer"><path d="M1520.09,248.4884 C1371.7,263.2084 1103.23,292.5884 876,332.3984 C870.33,333.3884 864.51,334.4884 858.65,335.6484 " fill="none" id="AbstractSerializer-backto-IteratorSerializer" style="stroke:#181818;stroke-width:1.0;"/><polygon fill="none" points="1519.62,241.4984,1540.21,246.5084,1520.99,255.4284,1519.62,241.4984" style="stroke:#181818;stroke-width:1.0;"/></g><!--MD5=[5d4c38472f3ea2b3e7e4d24c14908411]
reverse link AbstractSerializer to JavaSerializer--><g id="link_AbstractSerializer_JavaSerializer"><path d="M1520.14,253.2584 C1403.96,269.8184 1217.97,298.4284 1059,332.3984 C1053.57,333.5584 1047.97,334.8384 1042.35,336.1784 " fill="none" id="AbstractSerializer-backto-JavaSerializer" style="stroke:#181818;stroke-width:1.0;"/><polygon fill="none" points="1519.5,246.2784,1540.29,250.4084,1521.47,260.1384,1519.5,246.2784" style="stroke:#181818;stroke-width:1.0;"/></g><!--MD5=[49ec9bbb0fd5e6cbb2a6fa8d4f2f1e78]
reverse link JavaSerializer to JavaUnsharedSerializer--><g id="link_JavaSerializer_JavaUnsharedSerializer"><path d="M968,402.9984 C968,416.7784 968,431.4284 968,443.2784 " fill="none" id="JavaSerializer-backto-JavaUnsharedSerializer" style="stroke:#181818;stroke-width:1.0;"/><polygon fill="none" points="961,402.5884,968,382.5884,975,402.5884,961,402.5884" style="stroke:#181818;stroke-width:1.0;"/></g><!--MD5=[afbfa1726643212bec29165bbc69c7fe]
reverse link AbstractSerializer to MapSerializer--><g id="link_AbstractSerializer_MapSerializer"><path d="M1520.82,264.7884 C1443.28,283.4884 1337.79,309.1284 1245,332.3984 C1239.18,333.8584 1233.15,335.3784 1227.1,336.9284 " fill="none" id="AbstractSerializer-backto-MapSerializer" style="stroke:#181818;stroke-width:1.0;"/><polygon fill="none" points="1519.32,257.9484,1540.41,260.0784,1522.6,271.5684,1519.32,257.9484" style="stroke:#181818;stroke-width:1.0;"/></g><!--MD5=[17a1cbf8aa8c589d8ec18d5d386cb3b0]
reverse link AbstractSerializer to ObjectHandleSerializer--><g id="link_AbstractSerializer_ObjectHandleSerializer"><path d="M1562.61,270.4784 C1520.36,290.0384 1467.52,314.4984 1429.04,332.3084 " fill="none" id="AbstractSerializer-backto-ObjectHandleSerializer" style="stroke:#181818;stroke-width:1.0;"/><polygon fill="none" points="1559.8,264.0684,1580.89,262.0184,1565.68,276.7784,1559.8,264.0684" style="stroke:#181818;stroke-width:1.0;"/></g><!--MD5=[ef32db9815337d321bcd3dd723a87d6e]
reverse link AbstractSerializer to StringValueSerializer--><g id="link_AbstractSerializer_StringValueSerializer"><path d="M1633,282.2184 C1633,299.1384 1633,317.7884 1633,332.1684 " fill="none" id="AbstractSerializer-backto-StringValueSerializer" style="stroke:#181818;stroke-width:1.0;"/><polygon fill="none" points="1626,282.1684,1633,262.1684,1640,282.1684,1626,282.1684" style="stroke:#181818;stroke-width:1.0;"/></g><!--MD5=[08daa6b3bcab10698029da7d9f3513b7]
reverse link AbstractSerializer to UnsafeSerializer--><g id="link_AbstractSerializer_UnsafeSerializer"><path d="M1697.19,271.4084 C1734.35,290.8084 1780.27,314.7784 1813.85,332.3084 " fill="none" id="AbstractSerializer-backto-UnsafeSerializer" style="stroke:#181818;stroke-width:1.0;"/><polygon fill="none" points="1693.7,277.4784,1679.21,262.0184,1700.18,265.0684,1693.7,277.4784" style="stroke:#181818;stroke-width:1.0;"/></g><!--MD5=[5ee73f7a522efbf9052bf393f83fc9bc]
reverse link UnsafeSerializer to UnsafeUnsharedSerializer--><g id="link_UnsafeSerializer_UnsafeUnsharedSerializer"><path d="M1860,402.9984 C1860,416.7784 1860,431.4284 1860,443.2784 " fill="none" id="UnsafeSerializer-backto-UnsafeUnsharedSerializer" style="stroke:#181818;stroke-width:1.0;"/><polygon fill="none" points="1853,402.5884,1860,382.5884,1867,402.5884,1853,402.5884" style="stroke:#181818;stroke-width:1.0;"/></g><rect height="23.5547" style="stroke:#00000000;stroke-width:1.0;fill:none;" width="381" x="1405" y="500.7969"/><text fill="#888888" font-family="'Source" font-size="20" lengthAdjust="spacing" textLength="381" x="1405" y="520.1328">D瓜哥 · https://www.diguage.com · 出品</text><!--MD5=[5833070aafab6ab81f80a27125f50b72]
@startuml
skinparamlocked defaultFontSize 18
skinparamlocked titleFontSize 36
skinparamlocked footerFontSize 20
skinparamlocked titleFontName 'Source
skinparamlocked noteFontName 'Source
skinparamlocked footerFontName 'Source
title **Hessian Serializer 类图**

interface Serializer {
  + void writeObject(Object obj, AbstractHessianOutput out);
}

interface ObjectSerializer {
  public Serializer getObjectSerializer();
}

abstract class AbstractSerializer implements Serializer

class AnnotationSerializer extends AbstractSerializer

class ArraySerializer extends AbstractSerializer

class BasicSerializer extends AbstractSerializer implements ObjectSerializer
note bottom of BasicSerializer : 根据待序列化对象的类型，调用 AbstractHessianOutput 中的相\n应序列化方法，完成对基本类型及其数组和字符串等的序列化操作。

class ByteArraySerializer extends AbstractSerializer implements ObjectSerializer

class BeanSerializer extends AbstractSerializer

'class CalendarSerializer extends AbstractSerializer

class ClassSerializer extends AbstractSerializer

class CollectionSerializer extends AbstractSerializer

'class EnumerationSerializer extends AbstractSerializer

class EnumSerializer extends AbstractSerializer

'class InetAddressSerializer extends AbstractSerializer

class InputStreamSerializer extends AbstractSerializer

class IteratorSerializer extends AbstractSerializer

class JavaSerializer extends AbstractSerializer

class JavaUnsharedSerializer extends JavaSerializer

'class LocaleSerializer extends AbstractSerializer

class MapSerializer extends AbstractSerializer

class ObjectHandleSerializer extends AbstractSerializer

'class RemoteSerializer extends AbstractSerializer

'class SqlDateSerializer extends AbstractSerializer

class StringValueSerializer extends AbstractSerializer

class UnsafeSerializer extends AbstractSerializer

class UnsafeUnsharedSerializer extends UnsafeSerializer

footer D瓜哥 · https://www.diguage.com · 出品
@enduml

@startuml
skinparamlocked defaultFontSize 18
skinparamlocked titleFontSize 36
skinparamlocked footerFontSize 20
skinparamlocked titleFontName 'Source
skinparamlocked noteFontName 'Source
skinparamlocked footerFontName 'Source
title **Hessian Serializer 类图**

interface Serializer {
  + void writeObject(Object obj, AbstractHessianOutput out);
}

interface ObjectSerializer {
  public Serializer getObjectSerializer();
}

abstract class AbstractSerializer implements Serializer

class AnnotationSerializer extends AbstractSerializer

class ArraySerializer extends AbstractSerializer

class BasicSerializer extends AbstractSerializer implements ObjectSerializer
note bottom of BasicSerializer : 根据待序列化对象的类型，调用 AbstractHessianOutput 中的相\n应序列化方法，完成对基本类型及其数组和字符串等的序列化操作。

class ByteArraySerializer extends AbstractSerializer implements ObjectSerializer

class BeanSerializer extends AbstractSerializer


class ClassSerializer extends AbstractSerializer

class CollectionSerializer extends AbstractSerializer


class EnumSerializer extends AbstractSerializer


class InputStreamSerializer extends AbstractSerializer

class IteratorSerializer extends AbstractSerializer

class JavaSerializer extends AbstractSerializer

class JavaUnsharedSerializer extends JavaSerializer


class MapSerializer extends AbstractSerializer

class ObjectHandleSerializer extends AbstractSerializer



class StringValueSerializer extends AbstractSerializer

class UnsafeSerializer extends AbstractSerializer

class UnsafeUnsharedSerializer extends UnsafeSerializer

footer D瓜哥 · https://www.diguage.com · 出品
@enduml

PlantUML version 1.2022.6(Wed Jun 22 01:34:49 CST 2022)
(GPL source distribution)
Java Runtime: OpenJDK Runtime Environment
JVM: OpenJDK 64-Bit Server VM
Default Encoding: UTF-8
Language: en
Country: CN
--></g></svg>