<svg xmlns="http://www.w3.org/2000/svg" xmlns:xlink="http://www.w3.org/1999/xlink" contentStyleType="text/css" height="1669px" preserveAspectRatio="none" style="width:1750px;height:1669px;background:#FFFFFF;" version="1.1" viewBox="0 0 1750 1669" width="1750px" zoomAndPan="magnify"><defs/><g><text fill="#888888" font-family="sans-serif" font-size="20" lengthAdjust="spacing" textLength="67" x="1387.5" y="22.1812">D&#29916;&#21733; &#183;</text><text fill="#888888" font-family="JetBrains Mono" font-size="20" lengthAdjust="spacing" textLength="276" x="1460.5" y="20.4">https://www.diguage.com</text><text fill="#000000" font-family="Source Han Sans SC" font-size="36" font-weight="bold" lengthAdjust="spacing" textLength="212" x="762.25" y="79.16">Hessian &#26550;&#26500;</text><!--class AbstractHessianInput--><g id="elem_AbstractHessianInput"><rect codeLine="5" fill="#F1F1F1" height="50" id="AbstractHessianInput" rx="2.5" ry="2.5" style="stroke:#181818;stroke-width:0.5;" width="218" x="7" y="160.528"/><ellipse cx="23" cy="177.528" fill="#A9DCDF" rx="12" ry="12" style="stroke:#181818;stroke-width:1.0;"/><path d="M22.9141,172.779 L21.6924,178.1491 L24.1445,178.1491 Z M21.332,170.4059 L24.5049,170.4059 L28.0469,183.528 L25.4541,183.528 L24.6455,180.2848 L21.1738,180.2848 L20.3828,183.528 L17.79,183.528 Z " fill="#000000"/><text fill="#000000" font-family="sans-serif" font-size="18" font-style="italic" lengthAdjust="spacing" textLength="184" x="38" y="184.3307">AbstractHessianInput</text><line style="stroke:#181818;stroke-width:0.5;" x1="8" x2="224" y1="194.528" y2="194.528"/><line style="stroke:#181818;stroke-width:0.5;" x1="8" x2="224" y1="202.528" y2="202.528"/></g><!--class Hessian2Input--><g id="elem_Hessian2Input"><rect codeLine="7" fill="#F1F1F1" height="155.9961" id="Hessian2Input" rx="2.5" ry="2.5" style="stroke:#181818;stroke-width:0.5;" width="415" x="25.5" y="323.528"/><ellipse cx="167" cy="340.528" fill="#ADD1B2" rx="12" ry="12" style="stroke:#181818;stroke-width:1.0;"/><path d="M169.501,346.6501 Q168.8857,346.9665 168.209,347.1247 Q167.5322,347.2829 166.7852,347.2829 Q164.1309,347.2829 162.7334,345.5339 Q161.3359,343.7848 161.3359,340.4801 Q161.3359,337.1667 162.7334,335.4176 Q164.1309,333.6686 166.7852,333.6686 Q167.5322,333.6686 168.2178,333.8268 Q168.9033,333.985 169.501,334.3014 L169.501,337.1842 Q168.833,336.569 168.2046,336.2834 Q167.5762,335.9977 166.9082,335.9977 Q165.4844,335.9977 164.7593,337.1271 Q164.0342,338.2565 164.0342,340.4801 Q164.0342,342.695 164.7593,343.8244 Q165.4844,344.9538 166.9082,344.9538 Q167.5762,344.9538 168.2046,344.6681 Q168.833,344.3825 169.501,343.7673 Z " fill="#000000"/><text fill="#000000" font-family="sans-serif" font-size="18" lengthAdjust="spacing" textLength="123" x="189" y="347.3307">Hessian2Input</text><line style="stroke:#181818;stroke-width:0.5;" x1="26.5" x2="439.5" y1="357.528" y2="357.528"/><polygon fill="none" points="36.5,368.6276,40.5,372.6276,36.5,376.6276,32.5,372.6276" style="stroke:#B38D22;stroke-width:1.0;"/><text fill="#000000" font-family="sans-serif" font-size="18" lengthAdjust="spacing" textLength="360" x="46.5" y="378.9303">SerializerFactory _defaultSerializerFactory</text><polygon fill="none" points="36.5,389.8268,40.5,393.8268,36.5,397.8268,32.5,393.8268" style="stroke:#B38D22;stroke-width:1.0;"/><text fill="#000000" font-family="sans-serif" font-size="18" lengthAdjust="spacing" textLength="304" x="46.5" y="400.1296">SerializerFactory _serializerFactory;</text><line style="stroke:#181818;stroke-width:0.5;" x1="26.5" x2="439.5" y1="407.9264" y2="407.9264"/><ellipse cx="36.5" cy="424.026" fill="#84BE84" rx="3" ry="3" style="stroke:#038048;stroke-width:1.0;"/><text fill="#000000" font-family="sans-serif" font-size="18" lengthAdjust="spacing" textLength="388" x="46.5" y="429.3288">setSerializerFactory(SerializerFactory factory)</text><ellipse cx="36.5" cy="445.2253" fill="#84BE84" rx="3" ry="3" style="stroke:#038048;stroke-width:1.0;"/><text fill="#000000" font-family="sans-serif" font-size="18" lengthAdjust="spacing" textLength="330" x="46.5" y="450.528">SerializerFactory getSerializerFactory()</text><polygon fill="#FFFF44" points="36.5,461.4245,40.5,465.4245,36.5,469.4245,32.5,465.4245" style="stroke:#B38D22;stroke-width:1.0;"/><text fill="#000000" font-family="sans-serif" font-size="18" lengthAdjust="spacing" textLength="336" x="46.5" y="471.7272">SerializerFactory findSerializerFactory()</text></g><!--class Hessian2Constants--><g id="elem_Hessian2Constants"><rect fill="#F1F1F1" height="50" id="Hessian2Constants" rx="2.5" ry="2.5" style="stroke:#181818;stroke-width:0.5;" width="199" x="260.5" y="160.528"/><ellipse cx="276.5" cy="177.528" fill="#B4A7E5" rx="12" ry="12" style="stroke:#181818;stroke-width:1.0;"/><path d="M272.5117,173.4411 L272.5117,171.1559 L280.3252,171.1559 L280.3252,173.4411 L277.7148,173.4411 L277.7148,181.9928 L280.3252,181.9928 L280.3252,184.278 L272.5117,184.278 L272.5117,181.9928 L275.1221,181.9928 L275.1221,173.4411 Z " fill="#000000"/><text fill="#000000" font-family="sans-serif" font-size="18" font-style="italic" lengthAdjust="spacing" textLength="165" x="291.5" y="184.3307">Hessian2Constants</text><line style="stroke:#181818;stroke-width:0.5;" x1="261.5" x2="458.5" y1="194.528" y2="194.528"/><line style="stroke:#181818;stroke-width:0.5;" x1="261.5" x2="458.5" y1="202.528" y2="202.528"/></g><!--class SerializerFactory--><g id="elem_SerializerFactory"><rect codeLine="36" fill="#F1F1F1" height="325.5898" id="SerializerFactory" rx="2.5" ry="2.5" style="stroke:#181818;stroke-width:0.5;" width="791" x="306.5" y="539.528"/><ellipse cx="626.5" cy="556.528" fill="#ADD1B2" rx="12" ry="12" style="stroke:#181818;stroke-width:1.0;"/><path d="M629.001,562.6501 Q628.3857,562.9665 627.709,563.1247 Q627.0322,563.2829 626.2852,563.2829 Q623.6309,563.2829 622.2334,561.5339 Q620.8359,559.7848 620.8359,556.4801 Q620.8359,553.1667 622.2334,551.4176 Q623.6309,549.6686 626.2852,549.6686 Q627.0322,549.6686 627.7178,549.8268 Q628.4033,549.985 629.001,550.3014 L629.001,553.1842 Q628.333,552.569 627.7046,552.2834 Q627.0762,551.9977 626.4082,551.9977 Q624.9844,551.9977 624.2593,553.1271 Q623.5342,554.2565 623.5342,556.4801 Q623.5342,558.695 624.2593,559.8244 Q624.9844,560.9538 626.4082,560.9538 Q627.0762,560.9538 627.7046,560.6681 Q628.333,560.3825 629.001,559.7673 Z " fill="#000000"/><text fill="#000000" font-family="sans-serif" font-size="18" lengthAdjust="spacing" textLength="142" x="648.5" y="563.3307">SerializerFactory</text><line style="stroke:#181818;stroke-width:0.5;" x1="307.5" x2="1096.5" y1="573.528" y2="573.528"/><rect fill="none" height="6" style="stroke:#C82930;stroke-width:1.0;" width="6" x="314.5" y="586.6276"/><text fill="#000000" font-family="sans-serif" font-size="18" lengthAdjust="spacing" text-decoration="underline" textLength="764" x="327.5" y="594.9303">WeakHashMap&lt;ClassLoader, SoftReference&lt;SerializerFactory&gt;&gt; _defaultFactoryRefMap</text><rect fill="none" height="6" style="stroke:#C82930;stroke-width:1.0;" width="6" x="314.5" y="607.8268"/><text fill="#000000" font-family="sans-serif" font-size="18" lengthAdjust="spacing" textLength="355" x="327.5" y="616.1296">ContextSerializerFactory _contextFactory</text><polygon fill="none" points="317.5,627.026,321.5,631.026,317.5,635.026,313.5,631.026" style="stroke:#B38D22;stroke-width:1.0;"/><text fill="#000000" font-family="sans-serif" font-size="18" lengthAdjust="spacing" textLength="234" x="327.5" y="637.3288">Serializer _defaultSerializer</text><polygon fill="none" points="317.5,648.2253,321.5,652.2253,317.5,656.2253,313.5,652.2253" style="stroke:#B38D22;stroke-width:1.0;"/><text fill="#000000" font-family="sans-serif" font-size="18" lengthAdjust="spacing" textLength="336" x="327.5" y="658.528">ArrayList&lt;SerializerFactory&gt; _factories</text><polygon fill="none" points="317.5,669.4245,321.5,673.4245,317.5,677.4245,313.5,673.4245" style="stroke:#B38D22;stroke-width:1.0;"/><text fill="#000000" font-family="sans-serif" font-size="18" lengthAdjust="spacing" textLength="342" x="327.5" y="679.7272">CollectionSerializer _collectionSerializer</text><polygon fill="none" points="317.5,690.6237,321.5,694.6237,317.5,698.6237,313.5,694.6237" style="stroke:#B38D22;stroke-width:1.0;"/><text fill="#000000" font-family="sans-serif" font-size="18" lengthAdjust="spacing" textLength="248" x="327.5" y="700.9264">MapSerializer _mapSerializer</text><rect fill="none" height="6" style="stroke:#C82930;stroke-width:1.0;" width="6" x="314.5" y="713.8229"/><text fill="#000000" font-family="sans-serif" font-size="18" lengthAdjust="spacing" textLength="295" x="327.5" y="722.1257">Deserializer _hashMapDeserializer</text><rect fill="none" height="6" style="stroke:#C82930;stroke-width:1.0;" width="6" x="314.5" y="735.0221"/><text fill="#000000" font-family="sans-serif" font-size="18" lengthAdjust="spacing" textLength="291" x="327.5" y="743.3249">Deserializer _arrayListDeserializer</text><rect fill="none" height="6" style="stroke:#C82930;stroke-width:1.0;" width="6" x="314.5" y="756.2214"/><text fill="#000000" font-family="sans-serif" font-size="18" lengthAdjust="spacing" textLength="531" x="327.5" y="764.5241">ConcurrentHashMap&lt;Class, Serializer&gt; _cachedSerializerMap</text><rect fill="none" height="6" style="stroke:#C82930;stroke-width:1.0;" width="6" x="314.5" y="777.4206"/><text fill="#000000" font-family="sans-serif" font-size="18" lengthAdjust="spacing" textLength="575" x="327.5" y="785.7233">ConcurrentHashMap&lt;Class, Deserializer&gt; _cachedDeserializerMap</text><rect fill="none" height="6" style="stroke:#C82930;stroke-width:1.0;" width="6" x="314.5" y="798.6198"/><text fill="#000000" font-family="sans-serif" font-size="18" lengthAdjust="spacing" textLength="526" x="327.5" y="806.9225">HashMap&lt;String, Deserializer&gt; _cachedTypeDeserializerMap</text><line style="stroke:#181818;stroke-width:0.5;" x1="307.5" x2="1096.5" y1="814.7194" y2="814.7194"/><ellipse cx="317.5" cy="830.819" fill="#84BE84" rx="3" ry="3" style="stroke:#038048;stroke-width:1.0;"/><text fill="#000000" font-family="sans-serif" font-size="18" lengthAdjust="spacing" textLength="429" x="327.5" y="836.1217">void addFactory(AbstractSerializerFactory factory)</text><ellipse cx="317.5" cy="852.0182" fill="#84BE84" rx="3" ry="3" style="stroke:#038048;stroke-width:1.0;"/><text fill="#000000" font-family="sans-serif" font-size="18" lengthAdjust="spacing" text-decoration="underline" textLength="276" x="327.5" y="857.321">SerializerFactory createDefault()</text></g><!--class AbstractHessianOutput--><g id="elem_AbstractHessianOutput"><rect codeLine="19" fill="#F1F1F1" height="155.9961" id="AbstractHessianOutput" rx="2.5" ry="2.5" style="stroke:#181818;stroke-width:0.5;" width="415" x="494.5" y="107.528"/><ellipse cx="597.5" cy="124.528" fill="#A9DCDF" rx="12" ry="12" style="stroke:#181818;stroke-width:1.0;"/><path d="M597.4141,119.779 L596.1924,125.1491 L598.6445,125.1491 Z M595.832,117.4059 L599.0049,117.4059 L602.5469,130.528 L599.9541,130.528 L599.1455,127.2848 L595.6738,127.2848 L594.8828,130.528 L592.29,130.528 Z " fill="#000000"/><text fill="#000000" font-family="sans-serif" font-size="18" font-style="italic" lengthAdjust="spacing" textLength="200" x="619.5" y="131.3307">AbstractHessianOutput</text><line style="stroke:#181818;stroke-width:0.5;" x1="495.5" x2="908.5" y1="141.528" y2="141.528"/><rect fill="none" height="6" style="stroke:#C82930;stroke-width:1.0;" width="6" x="502.5" y="154.6276"/><text fill="#000000" font-family="sans-serif" font-size="18" lengthAdjust="spacing" textLength="360" x="515.5" y="162.9303">SerializerFactory _defaultSerializerFactory</text><polygon fill="none" points="505.5,173.8268,509.5,177.8268,505.5,181.8268,501.5,177.8268" style="stroke:#B38D22;stroke-width:1.0;"/><text fill="#000000" font-family="sans-serif" font-size="18" lengthAdjust="spacing" textLength="298" x="515.5" y="184.1296">SerializerFactory _serializerFactory</text><line style="stroke:#181818;stroke-width:0.5;" x1="495.5" x2="908.5" y1="191.9264" y2="191.9264"/><ellipse cx="505.5" cy="208.026" fill="#84BE84" rx="3" ry="3" style="stroke:#038048;stroke-width:1.0;"/><text fill="#000000" font-family="sans-serif" font-size="18" lengthAdjust="spacing" textLength="388" x="515.5" y="213.3288">setSerializerFactory(SerializerFactory factory)</text><ellipse cx="505.5" cy="229.2253" fill="#84BE84" rx="3" ry="3" style="stroke:#038048;stroke-width:1.0;"/><text fill="#000000" font-family="sans-serif" font-size="18" lengthAdjust="spacing" textLength="330" x="515.5" y="234.528">SerializerFactory getSerializerFactory()</text><polygon fill="#FFFF44" points="505.5,245.4245,509.5,249.4245,505.5,253.4245,501.5,249.4245" style="stroke:#B38D22;stroke-width:1.0;"/><text fill="#000000" font-family="sans-serif" font-size="18" lengthAdjust="spacing" textLength="336" x="515.5" y="255.7272">SerializerFactory findSerializerFactory()</text></g><!--class Hessian2Output--><g id="elem_Hessian2Output"><rect codeLine="29" fill="#F1F1F1" height="50" id="Hessian2Output" rx="2.5" ry="2.5" style="stroke:#181818;stroke-width:0.5;" width="173" x="475.5" y="376.528"/><ellipse cx="491.5" cy="393.528" fill="#ADD1B2" rx="12" ry="12" style="stroke:#181818;stroke-width:1.0;"/><path d="M494.001,399.6501 Q493.3857,399.9665 492.709,400.1247 Q492.0322,400.2829 491.2852,400.2829 Q488.6309,400.2829 487.2334,398.5339 Q485.8359,396.7848 485.8359,393.4801 Q485.8359,390.1667 487.2334,388.4176 Q488.6309,386.6686 491.2852,386.6686 Q492.0322,386.6686 492.7178,386.8268 Q493.4033,386.985 494.001,387.3014 L494.001,390.1842 Q493.333,389.569 492.7046,389.2834 Q492.0762,388.9977 491.4082,388.9977 Q489.9844,388.9977 489.2593,390.1271 Q488.5342,391.2565 488.5342,393.4801 Q488.5342,395.695 489.2593,396.8244 Q489.9844,397.9538 491.4082,397.9538 Q492.0762,397.9538 492.7046,397.6681 Q493.333,397.3825 494.001,396.7673 Z " fill="#000000"/><text fill="#000000" font-family="sans-serif" font-size="18" lengthAdjust="spacing" textLength="139" x="506.5" y="400.3307">Hessian2Output</text><line style="stroke:#181818;stroke-width:0.5;" x1="476.5" x2="647.5" y1="410.528" y2="410.528"/><line style="stroke:#181818;stroke-width:0.5;" x1="476.5" x2="647.5" y1="418.528" y2="418.528"/></g><!--class AbstractSerializerFactory--><g id="elem_AbstractSerializerFactory"><rect codeLine="31" fill="#F1F1F1" height="92.3984" id="AbstractSerializerFactory" rx="2.5" ry="2.5" style="stroke:#181818;stroke-width:0.5;" width="340" x="755" y="355.528"/><ellipse cx="813.5" cy="372.528" fill="#A9DCDF" rx="12" ry="12" style="stroke:#181818;stroke-width:1.0;"/><path d="M813.4141,367.779 L812.1924,373.1491 L814.6445,373.1491 Z M811.832,365.4059 L815.0049,365.4059 L818.5469,378.528 L815.9541,378.528 L815.1455,375.2848 L811.6738,375.2848 L810.8828,378.528 L808.29,378.528 Z " fill="#000000"/><text fill="#000000" font-family="sans-serif" font-size="18" font-style="italic" lengthAdjust="spacing" textLength="214" x="835.5" y="379.3307">AbstractSerializerFactory</text><line style="stroke:#181818;stroke-width:0.5;" x1="756" x2="1094" y1="389.528" y2="389.528"/><line style="stroke:#181818;stroke-width:0.5;" x1="756" x2="1094" y1="397.528" y2="397.528"/><ellipse cx="766" cy="413.6276" fill="#84BE84" rx="3" ry="3" style="stroke:#038048;stroke-width:1.0;"/><text fill="#000000" font-family="sans-serif" font-size="18" font-style="italic" lengthAdjust="spacing" textLength="269" x="776" y="418.9303">Serializer getSerializer(Class cl)</text><ellipse cx="766" cy="434.8268" fill="#84BE84" rx="3" ry="3" style="stroke:#038048;stroke-width:1.0;"/><text fill="#000000" font-family="sans-serif" font-size="18" font-style="italic" lengthAdjust="spacing" textLength="313" x="776" y="440.1296">Deserializer getDeserializer(Class cl)</text></g><!--class Serializer--><g id="elem_Serializer"><rect codeLine="52" fill="#F1F1F1" height="71.1992" id="Serializer" rx="2.5" ry="2.5" style="stroke:#181818;stroke-width:0.5;" width="516" x="133" y="1021.028"/><ellipse cx="347" cy="1038.028" fill="#B4A7E5" rx="12" ry="12" style="stroke:#181818;stroke-width:1.0;"/><path d="M343.0117,1033.9411 L343.0117,1031.6559 L350.8252,1031.6559 L350.8252,1033.9411 L348.2148,1033.9411 L348.2148,1042.4928 L350.8252,1042.4928 L350.8252,1044.778 L343.0117,1044.778 L343.0117,1042.4928 L345.6221,1042.4928 L345.6221,1033.9411 Z " fill="#000000"/><text fill="#000000" font-family="sans-serif" font-size="18" font-style="italic" lengthAdjust="spacing" textLength="79" x="369" y="1044.8307">Serializer</text><line style="stroke:#181818;stroke-width:0.5;" x1="134" x2="648" y1="1055.028" y2="1055.028"/><line style="stroke:#181818;stroke-width:0.5;" x1="134" x2="648" y1="1063.028" y2="1063.028"/><ellipse cx="144" cy="1079.1276" fill="#84BE84" rx="3" ry="3" style="stroke:#038048;stroke-width:1.0;"/><text fill="#000000" font-family="sans-serif" font-size="18" lengthAdjust="spacing" textLength="489" x="154" y="1084.4303">void writeObject(Object obj, AbstractHessianOutput out)</text></g><!--class AbstractSerializer--><g id="elem_AbstractSerializer"><rect codeLine="55" fill="#F1F1F1" height="50" id="AbstractSerializer" rx="2.5" ry="2.5" style="stroke:#181818;stroke-width:0.5;" width="185" x="80.5" y="1406.528"/><ellipse cx="96.5" cy="1423.528" fill="#A9DCDF" rx="12" ry="12" style="stroke:#181818;stroke-width:1.0;"/><path d="M96.4141,1418.779 L95.1924,1424.1491 L97.6445,1424.1491 Z M94.832,1416.4059 L98.0049,1416.4059 L101.5469,1429.528 L98.9541,1429.528 L98.1455,1426.2848 L94.6738,1426.2848 L93.8828,1429.528 L91.29,1429.528 Z " fill="#000000"/><text fill="#000000" font-family="sans-serif" font-size="18" font-style="italic" lengthAdjust="spacing" textLength="151" x="111.5" y="1430.3307">AbstractSerializer</text><line style="stroke:#181818;stroke-width:0.5;" x1="81.5" x2="264.5" y1="1440.528" y2="1440.528"/><line style="stroke:#181818;stroke-width:0.5;" x1="81.5" x2="264.5" y1="1448.528" y2="1448.528"/></g><!--class Deserializer--><g id="elem_Deserializer"><rect codeLine="57" fill="#F1F1F1" height="261.9922" id="Deserializer" rx="2.5" ry="2.5" style="stroke:#181818;stroke-width:0.5;" width="579" x="755.5" y="925.528"/><ellipse cx="990" cy="942.528" fill="#B4A7E5" rx="12" ry="12" style="stroke:#181818;stroke-width:1.0;"/><path d="M986.0117,938.4411 L986.0117,936.1559 L993.8252,936.1559 L993.8252,938.4411 L991.2148,938.4411 L991.2148,946.9928 L993.8252,946.9928 L993.8252,949.278 L986.0117,949.278 L986.0117,946.9928 L988.6221,946.9928 L988.6221,938.4411 Z " fill="#000000"/><text fill="#000000" font-family="sans-serif" font-size="18" font-style="italic" lengthAdjust="spacing" textLength="101" x="1012" y="949.3307">Deserializer</text><line style="stroke:#181818;stroke-width:0.5;" x1="756.5" x2="1333.5" y1="959.528" y2="959.528"/><line style="stroke:#181818;stroke-width:0.5;" x1="756.5" x2="1333.5" y1="967.528" y2="967.528"/><ellipse cx="766.5" cy="983.6276" fill="#84BE84" rx="3" ry="3" style="stroke:#038048;stroke-width:1.0;"/><text fill="#000000" font-family="sans-serif" font-size="18" lengthAdjust="spacing" textLength="168" x="776.5" y="988.9303">Class&lt;?&gt; getType()</text><ellipse cx="766.5" cy="1004.8268" fill="#84BE84" rx="3" ry="3" style="stroke:#038048;stroke-width:1.0;"/><text fill="#000000" font-family="sans-serif" font-size="18" lengthAdjust="spacing" textLength="208" x="776.5" y="1010.1296">boolean isReadResolve()</text><ellipse cx="766.5" cy="1026.026" fill="#84BE84" rx="3" ry="3" style="stroke:#038048;stroke-width:1.0;"/><text fill="#000000" font-family="sans-serif" font-size="18" lengthAdjust="spacing" textLength="374" x="776.5" y="1031.3288">Object readObject(AbstractHessianInput in)</text><ellipse cx="766.5" cy="1047.2253" fill="#84BE84" rx="3" ry="3" style="stroke:#038048;stroke-width:1.0;"/><text fill="#000000" font-family="sans-serif" font-size="18" lengthAdjust="spacing" textLength="445" x="776.5" y="1052.528">Object readList(AbstractHessianInput in, int length)</text><ellipse cx="766.5" cy="1068.4245" fill="#84BE84" rx="3" ry="3" style="stroke:#038048;stroke-width:1.0;"/><text fill="#000000" font-family="sans-serif" font-size="18" lengthAdjust="spacing" textLength="505" x="776.5" y="1073.7272">Object readLengthList(AbstractHessianInput in, int length)</text><ellipse cx="766.5" cy="1089.6237" fill="#84BE84" rx="3" ry="3" style="stroke:#038048;stroke-width:1.0;"/><text fill="#000000" font-family="sans-serif" font-size="18" lengthAdjust="spacing" textLength="355" x="776.5" y="1094.9264">Object readMap(AbstractHessianInput in)</text><ellipse cx="766.5" cy="1110.8229" fill="#84BE84" rx="3" ry="3" style="stroke:#038048;stroke-width:1.0;"/><text fill="#000000" font-family="sans-serif" font-size="18" lengthAdjust="spacing" textLength="244" x="776.5" y="1116.1257">Object[] createFields(int len)</text><ellipse cx="766.5" cy="1132.0221" fill="#84BE84" rx="3" ry="3" style="stroke:#038048;stroke-width:1.0;"/><text fill="#000000" font-family="sans-serif" font-size="18" lengthAdjust="spacing" textLength="273" x="776.5" y="1137.3249">Object createField(String name)</text><ellipse cx="766.5" cy="1153.2214" fill="#84BE84" rx="3" ry="3" style="stroke:#038048;stroke-width:1.0;"/><text fill="#000000" font-family="sans-serif" font-size="18" lengthAdjust="spacing" textLength="507" x="776.5" y="1158.5241">Object readObject(AbstractHessianInput in, Object[] fields)</text><ellipse cx="766.5" cy="1174.4206" fill="#84BE84" rx="3" ry="3" style="stroke:#038048;stroke-width:1.0;"/><text fill="#000000" font-family="sans-serif" font-size="18" lengthAdjust="spacing" textLength="552" x="776.5" y="1179.7233">Object readObject(AbstractHessianInput in, String[] fieldNames)</text></g><!--class AbstractDeserializer--><g id="elem_AbstractDeserializer"><rect codeLine="69" fill="#F1F1F1" height="50" id="AbstractDeserializer" rx="2.5" ry="2.5" style="stroke:#181818;stroke-width:0.5;" width="207" x="1536.5" y="1406.528"/><ellipse cx="1552.5" cy="1423.528" fill="#ADD1B2" rx="12" ry="12" style="stroke:#181818;stroke-width:1.0;"/><path d="M1555.001,1429.6501 Q1554.3857,1429.9665 1553.709,1430.1247 Q1553.0322,1430.2829 1552.2852,1430.2829 Q1549.6309,1430.2829 1548.2334,1428.5339 Q1546.8359,1426.7848 1546.8359,1423.4801 Q1546.8359,1420.1667 1548.2334,1418.4176 Q1549.6309,1416.6686 1552.2852,1416.6686 Q1553.0322,1416.6686 1553.7178,1416.8268 Q1554.4033,1416.985 1555.001,1417.3014 L1555.001,1420.1842 Q1554.333,1419.569 1553.7046,1419.2834 Q1553.0762,1418.9977 1552.4082,1418.9977 Q1550.9844,1418.9977 1550.2593,1420.1271 Q1549.5342,1421.2565 1549.5342,1423.4801 Q1549.5342,1425.695 1550.2593,1426.8244 Q1550.9844,1427.9538 1552.4082,1427.9538 Q1553.0762,1427.9538 1553.7046,1427.6681 Q1554.333,1427.3825 1555.001,1426.7673 Z " fill="#000000"/><text fill="#000000" font-family="sans-serif" font-size="18" lengthAdjust="spacing" textLength="173" x="1567.5" y="1430.3307">AbstractDeserializer</text><line style="stroke:#181818;stroke-width:0.5;" x1="1537.5" x2="1742.5" y1="1440.528" y2="1440.528"/><line style="stroke:#181818;stroke-width:0.5;" x1="1537.5" x2="1742.5" y1="1448.528" y2="1448.528"/></g><!--class ContextSerializerFactory--><g id="elem_ContextSerializerFactory"><rect codeLine="82" fill="#F1F1F1" height="367.9883" id="ContextSerializerFactory" rx="2.5" ry="2.5" style="stroke:#181818;stroke-width:0.5;" width="802" x="301" y="1247.528"/><ellipse cx="592" cy="1264.528" fill="#ADD1B2" rx="12" ry="12" style="stroke:#181818;stroke-width:1.0;"/><path d="M594.501,1270.6501 Q593.8857,1270.9665 593.209,1271.1247 Q592.5322,1271.2829 591.7852,1271.2829 Q589.1309,1271.2829 587.7334,1269.5339 Q586.3359,1267.7848 586.3359,1264.4801 Q586.3359,1261.1667 587.7334,1259.4176 Q589.1309,1257.6686 591.7852,1257.6686 Q592.5322,1257.6686 593.2178,1257.8268 Q593.9033,1257.985 594.501,1258.3014 L594.501,1261.1842 Q593.833,1260.569 593.2046,1260.2834 Q592.5762,1259.9977 591.9082,1259.9977 Q590.4844,1259.9977 589.7593,1261.1271 Q589.0342,1262.2565 589.0342,1264.4801 Q589.0342,1266.695 589.7593,1267.8244 Q590.4844,1268.9538 591.9082,1268.9538 Q592.5762,1268.9538 593.2046,1268.6681 Q593.833,1268.3825 594.501,1267.7673 Z " fill="#000000"/><text fill="#000000" font-family="sans-serif" font-size="18" lengthAdjust="spacing" textLength="211" x="614" y="1271.3307">ContextSerializerFactory</text><line style="stroke:#181818;stroke-width:0.5;" x1="302" x2="1102" y1="1281.528" y2="1281.528"/><rect fill="none" height="6" style="stroke:#C82930;stroke-width:1.0;" width="6" x="309" y="1294.6276"/><text fill="#000000" font-family="sans-serif" font-size="18" lengthAdjust="spacing" text-decoration="underline" textLength="775" x="322" y="1302.9303">WeakHashMap&lt;ClassLoader, SoftReference&lt;ContextSerializerFactory&gt;&gt; _contextRefMap</text><rect fill="none" height="6" style="stroke:#C82930;stroke-width:1.0;" width="6" x="309" y="1315.8268"/><text fill="#000000" font-family="sans-serif" font-size="18" lengthAdjust="spacing" text-decoration="underline" textLength="422" x="322" y="1324.1296">HashMap&lt;String,Serializer&gt; _staticSerializerMap</text><rect fill="none" height="6" style="stroke:#C82930;stroke-width:1.0;" width="6" x="309" y="1337.026"/><text fill="#000000" font-family="sans-serif" font-size="18" lengthAdjust="spacing" text-decoration="underline" textLength="466" x="322" y="1345.3288">HashMap&lt;String,Deserializer&gt; _staticDeserializerMap</text><rect fill="none" height="6" style="stroke:#C82930;stroke-width:1.0;" width="6" x="309" y="1358.2253"/><text fill="#000000" font-family="sans-serif" font-size="18" lengthAdjust="spacing" textLength="282" x="322" y="1366.528">ContextSerializerFactory _parent</text><rect fill="none" height="6" style="stroke:#C82930;stroke-width:1.0;" width="6" x="309" y="1379.4245"/><text fill="#000000" font-family="sans-serif" font-size="18" lengthAdjust="spacing" textLength="425" x="322" y="1387.7272">HashMap&lt;String, Serializer&gt; _serializerClassMap</text><rect fill="none" height="6" style="stroke:#C82930;stroke-width:1.0;" width="6" x="309" y="1400.6237"/><text fill="#000000" font-family="sans-serif" font-size="18" lengthAdjust="spacing" textLength="541" x="322" y="1408.9264">ConcurrentHashMap&lt;String, Serializer&gt; _customSerializerMap</text><rect fill="none" height="6" style="stroke:#C82930;stroke-width:1.0;" width="6" x="309" y="1421.8229"/><text fill="#000000" font-family="sans-serif" font-size="18" lengthAdjust="spacing" textLength="486" x="322" y="1430.1257">HashMap&lt;Class&lt;?&gt;, Serializer&gt; _serializerInterfaceMap</text><rect fill="none" height="6" style="stroke:#C82930;stroke-width:1.0;" width="6" x="309" y="1443.0221"/><text fill="#000000" font-family="sans-serif" font-size="18" lengthAdjust="spacing" textLength="468" x="322" y="1451.3249">HashMap&lt;String, Deserializer&gt; _deserializerClassMap</text><rect fill="none" height="6" style="stroke:#C82930;stroke-width:1.0;" width="6" x="309" y="1464.2214"/><text fill="#000000" font-family="sans-serif" font-size="18" lengthAdjust="spacing" textLength="518" x="322" y="1472.5241">HashMap&lt;String, Deserializer&gt; _deserializerClassNameMap</text><rect fill="none" height="6" style="stroke:#C82930;stroke-width:1.0;" width="6" x="309" y="1485.4206"/><text fill="#000000" font-family="sans-serif" font-size="18" lengthAdjust="spacing" textLength="585" x="322" y="1493.7233">ConcurrentHashMap&lt;String, Deserializer&gt; _customDeserializerMap</text><rect fill="none" height="6" style="stroke:#C82930;stroke-width:1.0;" width="6" x="309" y="1506.6198"/><text fill="#000000" font-family="sans-serif" font-size="18" lengthAdjust="spacing" textLength="529" x="322" y="1514.9225">HashMap&lt;Class&lt;?&gt;, Deserializer&gt; _deserializerInterfaceMap</text><line style="stroke:#181818;stroke-width:0.5;" x1="302" x2="1102" y1="1522.7194" y2="1522.7194"/><ellipse cx="312" cy="1538.819" fill="#84BE84" rx="3" ry="3" style="stroke:#038048;stroke-width:1.0;"/><text fill="#000000" font-family="sans-serif" font-size="18" lengthAdjust="spacing" textLength="353" x="322" y="1544.1217">Serializer getSerializer(String className)</text><ellipse cx="312" cy="1560.0182" fill="#84BE84" rx="3" ry="3" style="stroke:#038048;stroke-width:1.0;"/><text fill="#000000" font-family="sans-serif" font-size="18" lengthAdjust="spacing" textLength="336" x="322" y="1565.321">Serializer getCustomSerializer(Class cl)</text><ellipse cx="312" cy="1581.2175" fill="#84BE84" rx="3" ry="3" style="stroke:#038048;stroke-width:1.0;"/><text fill="#000000" font-family="sans-serif" font-size="18" lengthAdjust="spacing" textLength="397" x="322" y="1586.5202">Deserializer getDeserializer(String className)</text><ellipse cx="312" cy="1602.4167" fill="#84BE84" rx="3" ry="3" style="stroke:#038048;stroke-width:1.0;"/><text fill="#000000" font-family="sans-serif" font-size="18" lengthAdjust="spacing" textLength="380" x="322" y="1607.7194">Deserializer getCustomDeserializer(Class cl)</text></g><path d="M1156.5,1347.028 L1156.5,1373.894 L744,1317.3268 L1156.5,1381.894 L1156.5,1408.76 A0,0 0 0 0 1156.5,1408.76 L1501.5,1408.76 A0,0 0 0 0 1501.5,1408.76 L1501.5,1357.028 L1491.5,1347.028 L1156.5,1347.028 A0,0 0 0 0 1156.5,1347.028 " fill="#FEFFDD" style="stroke:#181818;stroke-width:0.5;"/><path d="M1491.5,1347.028 L1491.5,1357.028 L1501.5,1357.028 L1491.5,1347.028 " fill="#FEFFDD" style="stroke:#181818;stroke-width:0.5;"/><text fill="#000000" font-family="Source Han Serif SC" font-size="18" lengthAdjust="spacing" textLength="324" x="1162.5" y="1372.746">&#21551;&#21160;&#26102;&#65292;&#20250;&#23558;&#22522;&#26412;&#31867;&#22411;&#12289;&#23383;&#31526;&#20018;&#21644;&#23545;&#35937;&#30340;</text><text fill="#000000" font-family="Source Han Serif SC" font-size="18" lengthAdjust="spacing" textLength="286" x="1162.5" y="1398.612">Serializer &#23454;&#29616;&#31867;&#28155;&#21152;&#21040;&#35813;&#23383;&#27573;&#20013;&#12290;</text><path d="M1156.5,1418.76 L1156.5,1458.559 L747,1380.9245 L1156.5,1466.559 L1156.5,1506.358 A0,0 0 0 0 1156.5,1506.358 L1486.5,1506.358 A0,0 0 0 0 1486.5,1506.358 L1486.5,1428.76 L1476.5,1418.76 L1156.5,1418.76 A0,0 0 0 0 1156.5,1418.76 " fill="#FEFFDD" style="stroke:#181818;stroke-width:0.5;"/><path d="M1476.5,1418.76 L1476.5,1428.76 L1486.5,1428.76 L1476.5,1418.76 " fill="#FEFFDD" style="stroke:#181818;stroke-width:0.5;"/><text fill="#000000" font-family="Source Han Serif SC" font-size="18" lengthAdjust="spacing" textLength="309" x="1162.5" y="1444.478">&#21019;&#24314;&#23545;&#35937;&#26102;&#65292;&#23558; _staticSerializerMap</text><text fill="#000000" font-family="Source Han Serif SC" font-size="18" lengthAdjust="spacing" textLength="306" x="1162.5" y="1470.344">&#30340;&#25968;&#25454;&#65292;&#23436;&#25972;&#28155;&#21152;&#21040;&#35813;&#23383;&#27573;&#65292;&#21518;&#32493;&#26597;&#25214;</text><text fill="#000000" font-family="Source Han Serif SC" font-size="18" lengthAdjust="spacing" textLength="281" x="1162.5" y="1496.21">Serializer&#65292;&#20063;&#26159;&#20174;&#35813;&#23383;&#27573;&#20013;&#26597;&#25214;&#12290;</text><!--reverse link AbstractHessianInput to Hessian2Input--><g id="link_AbstractHessianInput_Hessian2Input"><path d="M137.824,226.4521 C152.704,253.6721 169.03,283.528 190.75,323.248 " fill="none" id="AbstractHessianInput-backto-Hessian2Input" style="stroke:#181818;stroke-width:1.0;"/><polygon fill="none" points="129.19,210.658,132.5593,229.3301,143.0887,223.5741,129.19,210.658" style="stroke:#181818;stroke-width:1.0;"/></g><!--reverse link Hessian2Constants to Hessian2Input--><g id="link_Hessian2Constants_Hessian2Input"><path d="M336.4953,226.1383 C320.3453,253.3583 302.43,283.528 278.86,323.248 " fill="none" id="Hessian2Constants-backto-Hessian2Input" style="stroke:#181818;stroke-width:1.0;stroke-dasharray:7.0,7.0;"/><polygon fill="none" points="345.68,210.658,331.3352,223.0768,341.6554,229.1999,345.68,210.658" style="stroke:#181818;stroke-width:1.0;"/></g><!--reverse link Hessian2Input to SerializerFactory--><g id="link_Hessian2Input_SerializerFactory"><path codeLine="15" d="M364.5089,486.3685 C393.2789,504.7085 414.92,518.508 447.19,539.078 " fill="none" id="Hessian2Input-backto-SerializerFactory" style="stroke:#181818;stroke-width:1.0;"/><polygon fill="none" points="354.39,479.918,357.2993,486.5162,364.5089,486.3685,361.5996,479.7703,354.39,479.918" style="stroke:#181818;stroke-width:1.0;"/><text fill="#000000" font-family="sans-serif" font-size="18" lengthAdjust="spacing" textLength="11" x="353.3493" y="504.9681">1</text><text fill="#000000" font-family="sans-serif" font-size="18" lengthAdjust="spacing" textLength="11" x="424.3947" y="527.612">1</text></g><!--reverse link AbstractHessianOutput to SerializerFactory--><g id="link_AbstractHessianOutput_SerializerFactory"><path codeLine="27" d="M702,275.908 C702,348.428 702,447.128 702,539.038 " fill="none" id="AbstractHessianOutput-backto-SerializerFactory" style="stroke:#181818;stroke-width:1.0;"/><polygon fill="none" points="702,263.908,698,269.908,702,275.908,706,269.908,702,263.908" style="stroke:#181818;stroke-width:1.0;"/><text fill="#000000" font-family="sans-serif" font-size="18" lengthAdjust="spacing" textLength="11" x="690.5273" y="288.9572">1</text><text fill="#000000" font-family="sans-serif" font-size="18" lengthAdjust="spacing" textLength="11" x="690.7508" y="527.5702">1</text></g><!--reverse link AbstractHessianOutput to Hessian2Output--><g id="link_AbstractHessianOutput_Hessian2Output"><path d="M641.6043,278.85 C615.5943,318.6 595.56,349.228 577.75,376.448 " fill="none" id="AbstractHessianOutput-backto-Hessian2Output" style="stroke:#181818;stroke-width:1.0;"/><polygon fill="none" points="651.46,263.788,636.5836,275.5648,646.625,282.1353,651.46,263.788" style="stroke:#181818;stroke-width:1.0;"/></g><!--reverse link Hessian2Constants to Hessian2Output--><g id="link_Hessian2Constants_Hessian2Output"><path d="M395.1347,223.7485 C433.9247,264.8485 500.04,334.888 538.99,376.158 " fill="none" id="Hessian2Constants-backto-Hessian2Output" style="stroke:#181818;stroke-width:1.0;stroke-dasharray:7.0,7.0;"/><polygon fill="none" points="382.78,210.658,390.7712,227.8667,399.4982,219.6302,382.78,210.658" style="stroke:#181818;stroke-width:1.0;"/></g><!--reverse link AbstractSerializerFactory to SerializerFactory--><g id="link_AbstractSerializerFactory_SerializerFactory"><path d="M880.3707,462.3684 C861.7307,487.3684 848.1,505.638 823.06,539.208 " fill="none" id="AbstractSerializerFactory-backto-SerializerFactory" style="stroke:#181818;stroke-width:1.0;"/><polygon fill="none" points="891.13,447.938,875.5605,458.782,885.1808,465.9549,891.13,447.938" style="stroke:#181818;stroke-width:1.0;"/></g><!--reverse link Serializer to AbstractSerializer--><g id="link_Serializer_AbstractSerializer"><path d="M361.607,1107.8283 C317.847,1182.6983 224.68,1342.098 187.15,1406.328 " fill="none" id="Serializer-backto-AbstractSerializer" style="stroke:#181818;stroke-width:1.0;stroke-dasharray:7.0,7.0;"/><polygon fill="none" points="370.69,1092.288,356.4269,1104.8006,366.7871,1110.8559,370.69,1092.288" style="stroke:#181818;stroke-width:1.0;"/></g><!--reverse link Deserializer to AbstractDeserializer--><g id="link_Deserializer_AbstractDeserializer"><path d="M1351.4157,1148.4381 C1416.2257,1175.6581 1465.06,1203.558 1519,1247.528 C1573.47,1291.928 1612.27,1367.378 1629.7,1406.068 " fill="none" id="Deserializer-backto-AbstractDeserializer" style="stroke:#181818;stroke-width:1.0;stroke-dasharray:7.0,7.0;"/><polygon fill="none" points="1334.82,1141.468,1349.0923,1153.97,1353.7391,1142.9062,1334.82,1141.468" style="stroke:#181818;stroke-width:1.0;"/></g><!--link Serializer to ContextSerializerFactory--><g id="link_Serializer_ContextSerializerFactory"><path codeLine="71" d="M419.98,1092.288 C450.14,1128.458 492.0849,1178.7618 541.3749,1237.8718 " fill="none" id="Serializer-to-ContextSerializerFactory" style="stroke:#181818;stroke-width:1.0;"/><polygon fill="none" points="549.06,1247.088,548.2895,1239.9182,541.3749,1237.8718,542.1454,1245.0416,549.06,1247.088" style="stroke:#181818;stroke-width:1.0;"/><text fill="#000000" font-family="sans-serif" font-size="18" lengthAdjust="spacing" textLength="13" x="410.8438" y="1117.6413">N</text><text fill="#000000" font-family="sans-serif" font-size="18" lengthAdjust="spacing" textLength="11" x="531.8709" y="1235.8796">1</text></g><!--reverse link SerializerFactory to SerializerFactory--><g id="link_SerializerFactory_SerializerFactory"><path codeLine="73" d="M1108.9784,669.5113 C1130.6584,678.7013 1132.5,686.578 1132.5,702.528 C1132.5,718.478 1119.61,731.038 1097.93,740.228 " fill="none" id="SerializerFactory-backto-SerializerFactory" style="stroke:#181818;stroke-width:1.0;"/><polygon fill="none" points="1097.93,664.828,1101.8931,670.8525,1108.9784,669.5113,1105.0153,663.4869,1097.93,664.828" style="stroke:#181818;stroke-width:1.0;"/><text fill="#000000" font-family="sans-serif" font-size="18" lengthAdjust="spacing" textLength="11" x="1106.084" y="660.2575">1</text><text fill="#000000" font-family="sans-serif" font-size="18" lengthAdjust="spacing" textLength="13" x="1106.1044" y="737.189">N</text></g><!--reverse link SerializerFactory to ContextSerializerFactory--><g id="link_SerializerFactory_ContextSerializerFactory"><path codeLine="74" d="M702,877.778 C702,990.868 702,1129.918 702,1247.348 " fill="none" id="SerializerFactory-backto-ContextSerializerFactory" style="stroke:#181818;stroke-width:1.0;"/><polygon fill="none" points="702,865.778,698,871.778,702,877.778,706,871.778,702,865.778" style="stroke:#181818;stroke-width:1.0;"/><text fill="#000000" font-family="sans-serif" font-size="18" lengthAdjust="spacing" textLength="11" x="690.768" y="890.5233">1</text><text fill="#000000" font-family="sans-serif" font-size="18" lengthAdjust="spacing" textLength="11" x="690.768" y="1235.5417">1</text></g><!--reverse link SerializerFactory to Serializer--><g id="link_SerializerFactory_Serializer"><path codeLine="77" d="M550.6145,874.8707 C499.3245,932.9207 454.22,983.978 421.91,1020.548 " fill="none" id="SerializerFactory-backto-Serializer" style="stroke:#181818;stroke-width:1.0;"/><polygon fill="none" points="558.56,865.878,551.5897,867.7259,550.6145,874.8707,557.5848,873.0229,558.56,865.878" style="stroke:#181818;stroke-width:1.0;"/><text fill="#000000" font-family="sans-serif" font-size="18" lengthAdjust="spacing" textLength="11" x="541.2766" y="890.6275">1</text><text fill="#000000" font-family="sans-serif" font-size="18" lengthAdjust="spacing" textLength="13" x="412.9529" y="1009.2521">N</text></g><!--reverse link SerializerFactory to Deserializer--><g id="link_SerializerFactory_Deserializer"><path codeLine="78" d="M868.574,874.4731 C887.894,894.3031 899.07,905.768 917.86,925.058 " fill="none" id="SerializerFactory-backto-Deserializer" style="stroke:#181818;stroke-width:1.0;"/><polygon fill="none" points="860.2,865.878,861.522,872.9669,868.574,874.4731,867.252,867.3842,860.2,865.878" style="stroke:#181818;stroke-width:1.0;"/><text fill="#000000" font-family="sans-serif" font-size="18" lengthAdjust="spacing" textLength="11" x="855.642" y="890.6275">1</text><text fill="#000000" font-family="sans-serif" font-size="18" lengthAdjust="spacing" textLength="13" x="897.5516" y="913.702">N</text></g><!--link Deserializer to ContextSerializerFactory--><g id="link_Deserializer_ContextSerializerFactory"><path codeLine="80" d="M925.04,1187.988 C907.36,1207.208 897.0032,1218.4755 878.5632,1238.5255 " fill="none" id="Deserializer-to-ContextSerializerFactory" style="stroke:#181818;stroke-width:1.0;"/><polygon fill="none" points="870.44,1247.358,877.4458,1245.6495,878.5632,1238.5255,871.5575,1240.234,870.44,1247.358" style="stroke:#181818;stroke-width:1.0;"/><text fill="#000000" font-family="sans-serif" font-size="18" lengthAdjust="spacing" textLength="13" x="905.5194" y="1212.7155">N</text><text fill="#000000" font-family="sans-serif" font-size="18" lengthAdjust="spacing" textLength="11" x="866.314" y="1235.5522">1</text></g><!--reverse link ContextSerializerFactory to ContextSerializerFactory--><g id="link_ContextSerializerFactory_ContextSerializerFactory"><path codeLine="109" d="M1113.9157,1390.2943 C1135.6957,1401.7243 1138,1411.748 1138,1431.528 C1138,1451.308 1125.07,1466.908 1103.29,1478.338 " fill="none" id="ContextSerializerFactory-backto-ContextSerializerFactory" style="stroke:#181818;stroke-width:1.0;"/><polygon fill="none" points="1103.29,1384.718,1106.7441,1391.048,1113.9157,1390.2943,1110.4616,1383.9642,1103.29,1384.718" style="stroke:#181818;stroke-width:1.0;"/><text fill="#000000" font-family="sans-serif" font-size="18" lengthAdjust="spacing" textLength="11" x="1111.5529" y="1379.9584">1</text><text fill="#000000" font-family="sans-serif" font-size="18" lengthAdjust="spacing" textLength="13" x="1111.5732" y="1475.48">N</text></g><text fill="#E22D30" font-family="Source Han Serif SC" font-size="28" lengthAdjust="spacing" textLength="94" x="582.75" y="1653.7443">D&#29916;&#21733; &#183;</text><text fill="#E22D30" font-family="JetBrains Mono" font-size="28" lengthAdjust="spacing" textLength="391" x="683.75" y="1653.3523">https://www.diguage.com</text><text fill="#E22D30" font-family="Source Han Serif SC" font-size="28" lengthAdjust="spacing" textLength="72" x="1081.75" y="1653.7443">&#183; &#20986;&#21697;</text><!--SRC=[pLZRQXj76BxVfnYK6zcISd2W1DUuf0h6AOa3Lg4NfPZnxaYQUBKZTaPnN6D8IcZJr3MX9gIamMulN7eH7rBQ7ApGYxvAlAlSzHKwimTfTcT6aWE5NeXbPxxld__ypugkOAyDVTXoYRs27E2WEkouR8vuh8Q_HE329Olc80mp5_K15pzG04q47UJt4LFd5KIT42OZBWr1L8bBV706JKqv5y-RbLc0BGHgfEFR2Cn33zIWHq6jgX0yBbUBHpwkwmW3JSQc94wyJZn2sz16Jf_z2M8V-n1prSIc5NiANEbjFmsszy3VBq6Xq6IiJQVFdLjTNJthu4O7Dj1PcxGA1SkAZ0MJa_E8KimL27TUX3lt9YSj2ovJvaER0Tk5b8BBoMi2lEgrEyoouhraRIfQ1EWsGvwZPm3SQhkeXJmsO5M9HnaKA-iM06U42w3BO-ZFSJBnry1IOhooOu3J_DA775YYI1LGLDdr-3aXAEfkGoTaGgz77NkE3hnXMLc75IuK0AbKegTgepKg53SwJ4WHpgly1yxxl_bER_q87sRpDE4O4ZNP7PQfnf2ebeYmbDPJ-8QaNDOXnMeao7OdSeGhY6Oeyhj4saYDL5N8swbNihBERMFOtW2V8RWo3sdpEcpFH0TS8wAdb7cZghD5L4S-ycmqeuYPdUrdMxB2mLo84CvTnxWUceIpunrjLcgoLm0k-pvSkuOfq-W0bk8in8WAA6_rBh8P9fuirTQi2ZHNLeQrv5TXHIOMIytOH_AY2eAfhdaOzuZTyRahMSRNPIc0t1WRsaqabSB0dNgoV4gVBYyc0b9QZVdOQnXudwwraSejtIBO0T1nqh8qvvNS4DBqKb6sZo3Z1qMHZeiSyvpmEHl9zRBUFtpLnmpTMBx9OrYC7u0itomRAfbqc10wicJbafVYBYcJ2Msa3eZyFlFHh2XDuQ-eevN0CY4kulCKqqK-a1SH9UwjT2_Hc5lj93ReHwMdm4KUcS1b_cF0HLw3DLLYjFpUT1xuSNJy_8iabdCOkGuj9X8puYH0CKu-uF5hp2azKnwSM8_EEZK_FZlbYviK5KcIpOrClANioDIo9MLGOQ40AXKIZI5JovC9QGdqnzU2RdmDmGyzP-o3HW2pvcQSCfx1iLUDC-2znez9cfX2oKmPZ9- -y5pVo_JQ6AFqMXCtrp9ZbARLcaSVl-3pTDAruwnU_PV87SOHe2NR7Sf8gsRg_sdxCXvvDMr-umqE1-crFIrD5EH8G_D3Ap9roB0R63la-9p19UE5BUbUTghkX8gkvfoVlUGDlTbffUSPLSNYp8rGV9W27pUQV0RMZUKtFMt8_E3XOV3Wj_3nYt_UR9wyUH8SVHti7eTFd_MUTuETxzxUkHliF-uz-_NarU_13vl1uUjtpt_fFRd7YP8JWeETtjOHPuGlky63duFxH-yEzpWlFFZpvDN-spjVMVng6dr1dq9RNOO5ztyAkiUn5h7AN5zJJNCrmqT7uVS70dQm6JxwGrLFR3tSwdNtmzszyDk_CcO9XxpU3NyyFEbkoVR4q8nLbh7yvGuxf8V7VnQC-K4ljeDlZeFjk_y2]--></g></svg>