<?xml version="1.0" encoding="UTF-8" standalone="no"?><svg xmlns="http://www.w3.org/2000/svg" xmlns:xlink="http://www.w3.org/1999/xlink" contentStyleType="text/css" height="504px" preserveAspectRatio="none" style="width:2746px;height:504px;background:#FFFFFF;" version="1.1" viewBox="0 0 2746 504" width="2746px" zoomAndPan="magnify"><defs/><g><rect height="45.332" style="stroke:#00000000;stroke-width:1.0;fill:none;" width="360" x="1186" y="5"/><text fill="#000000" font-family="sans-serif" font-size="30" font-weight="bold" lengthAdjust="spacing" textLength="350" x="1191" y="39.0039">Hessian Serializer 类图</text><!--MD5=[0e2e915064bf2e2ee735763ff21e6466]
class Serializer--><g id="elem_Serializer"><rect codeLine="4" fill="#F1F1F1" height="64.4883" id="Serializer" rx="2.5" ry="2.5" style="stroke:#181818;stroke-width:0.5;" width="414" x="1188.5" y="63.332"/><ellipse cx="1359.25" cy="79.332" fill="#B4A7E5" rx="11" ry="11" style="stroke:#181818;stroke-width:1.0;"/><path d="M1355.6777,75.5972 L1355.6777,73.439 L1363.0571,73.439 L1363.0571,75.5972 L1360.5918,75.5972 L1360.5918,83.6738 L1363.0571,83.6738 L1363.0571,85.832 L1355.6777,85.832 L1355.6777,83.6738 L1358.1431,83.6738 L1358.1431,75.5972 Z " fill="#000000"/><text fill="#000000" font-family="sans-serif" font-size="14" font-style="italic" lengthAdjust="spacing" textLength="64" x="1379.75" y="84.623">Serializer</text><line style="stroke:#181818;stroke-width:0.5;" x1="1189.5" x2="1601.5" y1="95.332" y2="95.332"/><line style="stroke:#181818;stroke-width:0.5;" x1="1189.5" x2="1601.5" y1="103.332" y2="103.332"/><ellipse cx="1199.5" cy="114.332" fill="#84BE84" rx="3" ry="3" style="stroke:#038048;stroke-width:1.0;"/><text fill="#000000" font-family="sans-serif" font-size="14" lengthAdjust="spacing" textLength="388" x="1208.5" y="120.8672">void writeObject(Object obj, AbstractHessianOutput out);</text></g><!--MD5=[8c595983eb9c43054b99135b603648e6]
class ObjectSerializer--><g id="elem_ObjectSerializer"><rect codeLine="8" fill="#F1F1F1" height="64.4883" id="ObjectSerializer" rx="2.5" ry="2.5" style="stroke:#181818;stroke-width:0.5;" width="270" x="43.5" y="187.332"/><ellipse cx="120.25" cy="203.332" fill="#B4A7E5" rx="11" ry="11" style="stroke:#181818;stroke-width:1.0;"/><path d="M116.6777,199.5972 L116.6777,197.439 L124.0571,197.439 L124.0571,199.5972 L121.5918,199.5972 L121.5918,207.6738 L124.0571,207.6738 L124.0571,209.832 L116.6777,209.832 L116.6777,207.6738 L119.1431,207.6738 L119.1431,199.5972 Z " fill="#000000"/><text fill="#000000" font-family="sans-serif" font-size="14" font-style="italic" lengthAdjust="spacing" textLength="108" x="140.75" y="208.623">ObjectSerializer</text><line style="stroke:#181818;stroke-width:0.5;" x1="44.5" x2="312.5" y1="219.332" y2="219.332"/><line style="stroke:#181818;stroke-width:0.5;" x1="44.5" x2="312.5" y1="227.332" y2="227.332"/><text fill="#000000" font-family="sans-serif" font-size="14" lengthAdjust="spacing" textLength="258" x="49.5" y="244.8672">public Serializer getObjectSerializer();</text></g><!--MD5=[404dae31c59c293c2ccca76809bb9a71]
class AbstractSerializer--><g id="elem_AbstractSerializer"><rect codeLine="12" fill="#F1F1F1" height="48" id="AbstractSerializer" rx="2.5" ry="2.5" style="stroke:#181818;stroke-width:0.5;" width="153" x="1319" y="195.332"/><ellipse cx="1334" cy="211.332" fill="#A9DCDF" rx="11" ry="11" style="stroke:#181818;stroke-width:1.0;"/><path d="M1333.8633,206.6802 L1332.7095,211.752 L1335.0254,211.752 Z M1332.3691,204.439 L1335.3657,204.439 L1338.7109,216.832 L1336.2622,216.832 L1335.4985,213.769 L1332.2197,213.769 L1331.4727,216.832 L1329.0239,216.832 Z " fill="#000000"/><text fill="#000000" font-family="sans-serif" font-size="14" font-style="italic" lengthAdjust="spacing" textLength="121" x="1348" y="216.623">AbstractSerializer</text><line style="stroke:#181818;stroke-width:0.5;" x1="1320" x2="1471" y1="227.332" y2="227.332"/><line style="stroke:#181818;stroke-width:0.5;" x1="1320" x2="1471" y1="235.332" y2="235.332"/></g><!--MD5=[f3974e658892ccbfb48a18a39da598ad]
class AnnotationSerializer--><g id="elem_AnnotationSerializer"><rect codeLine="14" fill="#F1F1F1" height="48" id="AnnotationSerializer" rx="2.5" ry="2.5" style="stroke:#181818;stroke-width:0.5;" width="173" x="1696" y="311.332"/><ellipse cx="1711" cy="327.332" fill="#ADD1B2" rx="11" ry="11" style="stroke:#181818;stroke-width:1.0;"/><path d="M1713.4731,333.4751 Q1712.8921,333.7739 1712.2529,333.9233 Q1711.6138,334.0728 1710.9082,334.0728 Q1708.4014,334.0728 1707.0815,332.4209 Q1705.7617,330.769 1705.7617,327.6479 Q1705.7617,324.5186 1707.0815,322.8667 Q1708.4014,321.2148 1710.9082,321.2148 Q1711.6138,321.2148 1712.2612,321.3643 Q1712.9087,321.5137 1713.4731,321.8125 L1713.4731,324.5352 Q1712.8423,323.9541 1712.2488,323.6843 Q1711.6553,323.4146 1711.0244,323.4146 Q1709.6797,323.4146 1708.9949,324.4812 Q1708.3101,325.5479 1708.3101,327.6479 Q1708.3101,329.7397 1708.9949,330.8064 Q1709.6797,331.873 1711.0244,331.873 Q1711.6553,331.873 1712.2488,331.6033 Q1712.8423,331.3335 1713.4731,330.7524 Z " fill="#000000"/><text fill="#000000" font-family="sans-serif" font-size="14" lengthAdjust="spacing" textLength="141" x="1725" y="332.623">AnnotationSerializer</text><line style="stroke:#181818;stroke-width:0.5;" x1="1697" x2="1868" y1="343.332" y2="343.332"/><line style="stroke:#181818;stroke-width:0.5;" x1="1697" x2="1868" y1="351.332" y2="351.332"/></g><!--MD5=[eb5fc1470b9608dee0d8432fc78ae9b1]
class ArraySerializer--><g id="elem_ArraySerializer"><rect codeLine="16" fill="#F1F1F1" height="48" id="ArraySerializer" rx="2.5" ry="2.5" style="stroke:#181818;stroke-width:0.5;" width="133" x="1904" y="311.332"/><ellipse cx="1919" cy="327.332" fill="#ADD1B2" rx="11" ry="11" style="stroke:#181818;stroke-width:1.0;"/><path d="M1921.4731,333.4751 Q1920.8921,333.7739 1920.2529,333.9233 Q1919.6138,334.0728 1918.9082,334.0728 Q1916.4014,334.0728 1915.0815,332.4209 Q1913.7617,330.769 1913.7617,327.6479 Q1913.7617,324.5186 1915.0815,322.8667 Q1916.4014,321.2148 1918.9082,321.2148 Q1919.6138,321.2148 1920.2612,321.3643 Q1920.9087,321.5137 1921.4731,321.8125 L1921.4731,324.5352 Q1920.8423,323.9541 1920.2488,323.6843 Q1919.6553,323.4146 1919.0244,323.4146 Q1917.6797,323.4146 1916.9949,324.4812 Q1916.3101,325.5479 1916.3101,327.6479 Q1916.3101,329.7397 1916.9949,330.8064 Q1917.6797,331.873 1919.0244,331.873 Q1919.6553,331.873 1920.2488,331.6033 Q1920.8423,331.3335 1921.4731,330.7524 Z " fill="#000000"/><text fill="#000000" font-family="sans-serif" font-size="14" lengthAdjust="spacing" textLength="101" x="1933" y="332.623">ArraySerializer</text><line style="stroke:#181818;stroke-width:0.5;" x1="1905" x2="2036" y1="343.332" y2="343.332"/><line style="stroke:#181818;stroke-width:0.5;" x1="1905" x2="2036" y1="351.332" y2="351.332"/></g><!--MD5=[218c0af6851cdd6b2e2abab89b46105e]
class BasicSerializer--><g id="elem_BasicSerializer"><rect codeLine="18" fill="#F1F1F1" height="48" id="BasicSerializer" rx="2.5" ry="2.5" style="stroke:#181818;stroke-width:0.5;" width="130" x="203.5" y="311.332"/><ellipse cx="218.5" cy="327.332" fill="#ADD1B2" rx="11" ry="11" style="stroke:#181818;stroke-width:1.0;"/><path d="M220.9731,333.4751 Q220.3921,333.7739 219.7529,333.9233 Q219.1138,334.0728 218.4082,334.0728 Q215.9014,334.0728 214.5815,332.4209 Q213.2617,330.769 213.2617,327.6479 Q213.2617,324.5186 214.5815,322.8667 Q215.9014,321.2148 218.4082,321.2148 Q219.1138,321.2148 219.7612,321.3643 Q220.4087,321.5137 220.9731,321.8125 L220.9731,324.5352 Q220.3423,323.9541 219.7488,323.6843 Q219.1553,323.4146 218.5244,323.4146 Q217.1797,323.4146 216.4949,324.4812 Q215.8101,325.5479 215.8101,327.6479 Q215.8101,329.7397 216.4949,330.8064 Q217.1797,331.873 218.5244,331.873 Q219.1553,331.873 219.7488,331.6033 Q220.3423,331.3335 220.9731,330.7524 Z " fill="#000000"/><text fill="#000000" font-family="sans-serif" font-size="14" lengthAdjust="spacing" textLength="98" x="232.5" y="332.623">BasicSerializer</text><line style="stroke:#181818;stroke-width:0.5;" x1="204.5" x2="332.5" y1="343.332" y2="343.332"/><line style="stroke:#181818;stroke-width:0.5;" x1="204.5" x2="332.5" y1="351.332" y2="351.332"/></g><g id="elem_GMN13"><path d="M63,422.832 L63,463.4531 A0,0 0 0 0 63,463.4531 L474,463.4531 A0,0 0 0 0 474,463.4531 L474,432.832 L464,422.832 L272.5,422.832 L268.5,359.332 L264.5,422.832 L63,422.832 A0,0 0 0 0 63,422.832 " fill="#FEFFDD" style="stroke:#181818;stroke-width:0.5;"/><path d="M464,422.832 L464,432.832 L474,432.832 L464,422.832 " fill="#FEFFDD" style="stroke:#181818;stroke-width:0.5;"/><text fill="#000000" font-family="sans-serif" font-size="13" lengthAdjust="spacing" textLength="376" x="69" y="440.4004">根据待序列化对象的类型，调用 AbstractHessianOutput 中的相</text><text fill="#000000" font-family="sans-serif" font-size="13" lengthAdjust="spacing" textLength="390" x="69" y="455.7109">应序列化方法，完成对基本类型及其数组和字符串等的序列化操作。</text></g><!--MD5=[27260d91f7eed3e053b15010154ff4e8]
class ByteArraySerializer--><g id="elem_ByteArraySerializer"><rect codeLine="21" fill="#F1F1F1" height="48" id="ByteArraySerializer" rx="2.5" ry="2.5" style="stroke:#181818;stroke-width:0.5;" width="161" x="7" y="311.332"/><ellipse cx="22" cy="327.332" fill="#ADD1B2" rx="11" ry="11" style="stroke:#181818;stroke-width:1.0;"/><path d="M24.4731,333.4751 Q23.8921,333.7739 23.2529,333.9233 Q22.6138,334.0728 21.9082,334.0728 Q19.4014,334.0728 18.0815,332.4209 Q16.7617,330.769 16.7617,327.6479 Q16.7617,324.5186 18.0815,322.8667 Q19.4014,321.2148 21.9082,321.2148 Q22.6138,321.2148 23.2612,321.3643 Q23.9087,321.5137 24.4731,321.8125 L24.4731,324.5352 Q23.8423,323.9541 23.2488,323.6843 Q22.6553,323.4146 22.0244,323.4146 Q20.6797,323.4146 19.9949,324.4812 Q19.3101,325.5479 19.3101,327.6479 Q19.3101,329.7397 19.9949,330.8064 Q20.6797,331.873 22.0244,331.873 Q22.6553,331.873 23.2488,331.6033 Q23.8423,331.3335 24.4731,330.7524 Z " fill="#000000"/><text fill="#000000" font-family="sans-serif" font-size="14" lengthAdjust="spacing" textLength="129" x="36" y="332.623">ByteArraySerializer</text><line style="stroke:#181818;stroke-width:0.5;" x1="8" x2="167" y1="343.332" y2="343.332"/><line style="stroke:#181818;stroke-width:0.5;" x1="8" x2="167" y1="351.332" y2="351.332"/></g><!--MD5=[934c542d6fbbecf065d0368fa991ee00]
class BeanSerializer--><g id="elem_BeanSerializer"><rect codeLine="23" fill="#F1F1F1" height="48" id="BeanSerializer" rx="2.5" ry="2.5" style="stroke:#181818;stroke-width:0.5;" width="129" x="2072" y="311.332"/><ellipse cx="2087" cy="327.332" fill="#ADD1B2" rx="11" ry="11" style="stroke:#181818;stroke-width:1.0;"/><path d="M2089.4731,333.4751 Q2088.8921,333.7739 2088.2529,333.9233 Q2087.6138,334.0728 2086.9082,334.0728 Q2084.4014,334.0728 2083.0815,332.4209 Q2081.7617,330.769 2081.7617,327.6479 Q2081.7617,324.5186 2083.0815,322.8667 Q2084.4014,321.2148 2086.9082,321.2148 Q2087.6138,321.2148 2088.2612,321.3643 Q2088.9087,321.5137 2089.4731,321.8125 L2089.4731,324.5352 Q2088.8423,323.9541 2088.2488,323.6843 Q2087.6553,323.4146 2087.0244,323.4146 Q2085.6797,323.4146 2084.9949,324.4812 Q2084.3101,325.5479 2084.3101,327.6479 Q2084.3101,329.7397 2084.9949,330.8064 Q2085.6797,331.873 2087.0244,331.873 Q2087.6553,331.873 2088.2488,331.6033 Q2088.8423,331.3335 2089.4731,330.7524 Z " fill="#000000"/><text fill="#000000" font-family="sans-serif" font-size="14" lengthAdjust="spacing" textLength="97" x="2101" y="332.623">BeanSerializer</text><line style="stroke:#181818;stroke-width:0.5;" x1="2073" x2="2200" y1="343.332" y2="343.332"/><line style="stroke:#181818;stroke-width:0.5;" x1="2073" x2="2200" y1="351.332" y2="351.332"/></g><!--MD5=[6fbca0171fc50395526e3303a2792337]
class ClassSerializer--><g id="elem_ClassSerializer"><rect codeLine="27" fill="#F1F1F1" height="48" id="ClassSerializer" rx="2.5" ry="2.5" style="stroke:#181818;stroke-width:0.5;" width="132" x="2236.5" y="311.332"/><ellipse cx="2251.5" cy="327.332" fill="#ADD1B2" rx="11" ry="11" style="stroke:#181818;stroke-width:1.0;"/><path d="M2253.9731,333.4751 Q2253.3921,333.7739 2252.7529,333.9233 Q2252.1138,334.0728 2251.4082,334.0728 Q2248.9014,334.0728 2247.5815,332.4209 Q2246.2617,330.769 2246.2617,327.6479 Q2246.2617,324.5186 2247.5815,322.8667 Q2248.9014,321.2148 2251.4082,321.2148 Q2252.1138,321.2148 2252.7612,321.3643 Q2253.4087,321.5137 2253.9731,321.8125 L2253.9731,324.5352 Q2253.3423,323.9541 2252.7488,323.6843 Q2252.1553,323.4146 2251.5244,323.4146 Q2250.1797,323.4146 2249.4949,324.4812 Q2248.8101,325.5479 2248.8101,327.6479 Q2248.8101,329.7397 2249.4949,330.8064 Q2250.1797,331.873 2251.5244,331.873 Q2252.1553,331.873 2252.7488,331.6033 Q2253.3423,331.3335 2253.9731,330.7524 Z " fill="#000000"/><text fill="#000000" font-family="sans-serif" font-size="14" lengthAdjust="spacing" textLength="100" x="2265.5" y="332.623">ClassSerializer</text><line style="stroke:#181818;stroke-width:0.5;" x1="2237.5" x2="2367.5" y1="343.332" y2="343.332"/><line style="stroke:#181818;stroke-width:0.5;" x1="2237.5" x2="2367.5" y1="351.332" y2="351.332"/></g><!--MD5=[bba0442e2017eefebaa0262f52e81494]
class CollectionSerializer--><g id="elem_CollectionSerializer"><rect codeLine="29" fill="#F1F1F1" height="48" id="CollectionSerializer" rx="2.5" ry="2.5" style="stroke:#181818;stroke-width:0.5;" width="165" x="2404" y="311.332"/><ellipse cx="2419" cy="327.332" fill="#ADD1B2" rx="11" ry="11" style="stroke:#181818;stroke-width:1.0;"/><path d="M2421.4731,333.4751 Q2420.8921,333.7739 2420.2529,333.9233 Q2419.6138,334.0728 2418.9082,334.0728 Q2416.4014,334.0728 2415.0815,332.4209 Q2413.7617,330.769 2413.7617,327.6479 Q2413.7617,324.5186 2415.0815,322.8667 Q2416.4014,321.2148 2418.9082,321.2148 Q2419.6138,321.2148 2420.2612,321.3643 Q2420.9087,321.5137 2421.4731,321.8125 L2421.4731,324.5352 Q2420.8423,323.9541 2420.2488,323.6843 Q2419.6553,323.4146 2419.0244,323.4146 Q2417.6797,323.4146 2416.9949,324.4812 Q2416.3101,325.5479 2416.3101,327.6479 Q2416.3101,329.7397 2416.9949,330.8064 Q2417.6797,331.873 2419.0244,331.873 Q2419.6553,331.873 2420.2488,331.6033 Q2420.8423,331.3335 2421.4731,330.7524 Z " fill="#000000"/><text fill="#000000" font-family="sans-serif" font-size="14" lengthAdjust="spacing" textLength="133" x="2433" y="332.623">CollectionSerializer</text><line style="stroke:#181818;stroke-width:0.5;" x1="2405" x2="2568" y1="343.332" y2="343.332"/><line style="stroke:#181818;stroke-width:0.5;" x1="2405" x2="2568" y1="351.332" y2="351.332"/></g><!--MD5=[d8af3991daea88d4bb78e2a594543ac9]
class EnumSerializer--><g id="elem_EnumSerializer"><rect codeLine="33" fill="#F1F1F1" height="48" id="EnumSerializer" rx="2.5" ry="2.5" style="stroke:#181818;stroke-width:0.5;" width="135" x="2604" y="311.332"/><ellipse cx="2619" cy="327.332" fill="#ADD1B2" rx="11" ry="11" style="stroke:#181818;stroke-width:1.0;"/><path d="M2621.4731,333.4751 Q2620.8921,333.7739 2620.2529,333.9233 Q2619.6138,334.0728 2618.9082,334.0728 Q2616.4014,334.0728 2615.0815,332.4209 Q2613.7617,330.769 2613.7617,327.6479 Q2613.7617,324.5186 2615.0815,322.8667 Q2616.4014,321.2148 2618.9082,321.2148 Q2619.6138,321.2148 2620.2612,321.3643 Q2620.9087,321.5137 2621.4731,321.8125 L2621.4731,324.5352 Q2620.8423,323.9541 2620.2488,323.6843 Q2619.6553,323.4146 2619.0244,323.4146 Q2617.6797,323.4146 2616.9949,324.4812 Q2616.3101,325.5479 2616.3101,327.6479 Q2616.3101,329.7397 2616.9949,330.8064 Q2617.6797,331.873 2619.0244,331.873 Q2619.6553,331.873 2620.2488,331.6033 Q2620.8423,331.3335 2621.4731,330.7524 Z " fill="#000000"/><text fill="#000000" font-family="sans-serif" font-size="14" lengthAdjust="spacing" textLength="103" x="2633" y="332.623">EnumSerializer</text><line style="stroke:#181818;stroke-width:0.5;" x1="2605" x2="2738" y1="343.332" y2="343.332"/><line style="stroke:#181818;stroke-width:0.5;" x1="2605" x2="2738" y1="351.332" y2="351.332"/></g><!--MD5=[63cd224e1ee1888d41989093aa810803]
class InputStreamSerializer--><g id="elem_InputStreamSerializer"><rect codeLine="37" fill="#F1F1F1" height="48" id="InputStreamSerializer" rx="2.5" ry="2.5" style="stroke:#181818;stroke-width:0.5;" width="180" x="368.5" y="311.332"/><ellipse cx="383.5" cy="327.332" fill="#ADD1B2" rx="11" ry="11" style="stroke:#181818;stroke-width:1.0;"/><path d="M385.9731,333.4751 Q385.3921,333.7739 384.7529,333.9233 Q384.1138,334.0728 383.4082,334.0728 Q380.9014,334.0728 379.5815,332.4209 Q378.2617,330.769 378.2617,327.6479 Q378.2617,324.5186 379.5815,322.8667 Q380.9014,321.2148 383.4082,321.2148 Q384.1138,321.2148 384.7612,321.3643 Q385.4087,321.5137 385.9731,321.8125 L385.9731,324.5352 Q385.3423,323.9541 384.7488,323.6843 Q384.1553,323.4146 383.5244,323.4146 Q382.1797,323.4146 381.4949,324.4812 Q380.8101,325.5479 380.8101,327.6479 Q380.8101,329.7397 381.4949,330.8064 Q382.1797,331.873 383.5244,331.873 Q384.1553,331.873 384.7488,331.6033 Q385.3423,331.3335 385.9731,330.7524 Z " fill="#000000"/><text fill="#000000" font-family="sans-serif" font-size="14" lengthAdjust="spacing" textLength="148" x="397.5" y="332.623">InputStreamSerializer</text><line style="stroke:#181818;stroke-width:0.5;" x1="369.5" x2="547.5" y1="343.332" y2="343.332"/><line style="stroke:#181818;stroke-width:0.5;" x1="369.5" x2="547.5" y1="351.332" y2="351.332"/></g><!--MD5=[ac87bb061af005deec317070f6c52437]
class IteratorSerializer--><g id="elem_IteratorSerializer"><rect codeLine="39" fill="#F1F1F1" height="48" id="IteratorSerializer" rx="2.5" ry="2.5" style="stroke:#181818;stroke-width:0.5;" width="147" x="584" y="311.332"/><ellipse cx="599" cy="327.332" fill="#ADD1B2" rx="11" ry="11" style="stroke:#181818;stroke-width:1.0;"/><path d="M601.4731,333.4751 Q600.8921,333.7739 600.2529,333.9233 Q599.6138,334.0728 598.9082,334.0728 Q596.4014,334.0728 595.0815,332.4209 Q593.7617,330.769 593.7617,327.6479 Q593.7617,324.5186 595.0815,322.8667 Q596.4014,321.2148 598.9082,321.2148 Q599.6138,321.2148 600.2612,321.3643 Q600.9087,321.5137 601.4731,321.8125 L601.4731,324.5352 Q600.8423,323.9541 600.2488,323.6843 Q599.6553,323.4146 599.0244,323.4146 Q597.6797,323.4146 596.9949,324.4812 Q596.3101,325.5479 596.3101,327.6479 Q596.3101,329.7397 596.9949,330.8064 Q597.6797,331.873 599.0244,331.873 Q599.6553,331.873 600.2488,331.6033 Q600.8423,331.3335 601.4731,330.7524 Z " fill="#000000"/><text fill="#000000" font-family="sans-serif" font-size="14" lengthAdjust="spacing" textLength="115" x="613" y="332.623">IteratorSerializer</text><line style="stroke:#181818;stroke-width:0.5;" x1="585" x2="730" y1="343.332" y2="343.332"/><line style="stroke:#181818;stroke-width:0.5;" x1="585" x2="730" y1="351.332" y2="351.332"/></g><!--MD5=[68583a43b244d1f50a5815c4ffd14464]
class JavaSerializer--><g id="elem_JavaSerializer"><rect codeLine="41" fill="#F1F1F1" height="48" id="JavaSerializer" rx="2.5" ry="2.5" style="stroke:#181818;stroke-width:0.5;" width="123" x="766" y="311.332"/><ellipse cx="781" cy="327.332" fill="#ADD1B2" rx="11" ry="11" style="stroke:#181818;stroke-width:1.0;"/><path d="M783.4731,333.4751 Q782.8921,333.7739 782.2529,333.9233 Q781.6138,334.0728 780.9082,334.0728 Q778.4014,334.0728 777.0815,332.4209 Q775.7617,330.769 775.7617,327.6479 Q775.7617,324.5186 777.0815,322.8667 Q778.4014,321.2148 780.9082,321.2148 Q781.6138,321.2148 782.2612,321.3643 Q782.9087,321.5137 783.4731,321.8125 L783.4731,324.5352 Q782.8423,323.9541 782.2488,323.6843 Q781.6553,323.4146 781.0244,323.4146 Q779.6797,323.4146 778.9949,324.4812 Q778.3101,325.5479 778.3101,327.6479 Q778.3101,329.7397 778.9949,330.8064 Q779.6797,331.873 781.0244,331.873 Q781.6553,331.873 782.2488,331.6033 Q782.8423,331.3335 783.4731,330.7524 Z " fill="#000000"/><text fill="#000000" font-family="sans-serif" font-size="14" lengthAdjust="spacing" textLength="91" x="795" y="332.623">JavaSerializer</text><line style="stroke:#181818;stroke-width:0.5;" x1="767" x2="888" y1="343.332" y2="343.332"/><line style="stroke:#181818;stroke-width:0.5;" x1="767" x2="888" y1="351.332" y2="351.332"/></g><!--MD5=[3f66bc46585b874d1b4cb177b31e6d55]
class JavaUnsharedSerializer--><g id="elem_JavaUnsharedSerializer"><rect codeLine="43" fill="#F1F1F1" height="48" id="JavaUnsharedSerializer" rx="2.5" ry="2.5" style="stroke:#181818;stroke-width:0.5;" width="189" x="733" y="419.332"/><ellipse cx="748" cy="435.332" fill="#ADD1B2" rx="11" ry="11" style="stroke:#181818;stroke-width:1.0;"/><path d="M750.4731,441.4751 Q749.8921,441.7739 749.2529,441.9233 Q748.6138,442.0728 747.9082,442.0728 Q745.4014,442.0728 744.0815,440.4209 Q742.7617,438.769 742.7617,435.6479 Q742.7617,432.5186 744.0815,430.8667 Q745.4014,429.2148 747.9082,429.2148 Q748.6138,429.2148 749.2612,429.3643 Q749.9087,429.5137 750.4731,429.8125 L750.4731,432.5352 Q749.8423,431.9541 749.2488,431.6843 Q748.6553,431.4146 748.0244,431.4146 Q746.6797,431.4146 745.9949,432.4812 Q745.3101,433.5479 745.3101,435.6479 Q745.3101,437.7397 745.9949,438.8064 Q746.6797,439.873 748.0244,439.873 Q748.6553,439.873 749.2488,439.6033 Q749.8423,439.3335 750.4731,438.7524 Z " fill="#000000"/><text fill="#000000" font-family="sans-serif" font-size="14" lengthAdjust="spacing" textLength="157" x="762" y="440.623">JavaUnsharedSerializer</text><line style="stroke:#181818;stroke-width:0.5;" x1="734" x2="921" y1="451.332" y2="451.332"/><line style="stroke:#181818;stroke-width:0.5;" x1="734" x2="921" y1="459.332" y2="459.332"/></g><!--MD5=[22c2c9c97f704fd40d025a0a2a63df57]
class MapSerializer--><g id="elem_MapSerializer"><rect codeLine="47" fill="#F1F1F1" height="48" id="MapSerializer" rx="2.5" ry="2.5" style="stroke:#181818;stroke-width:0.5;" width="125" x="924" y="311.332"/><ellipse cx="939" cy="327.332" fill="#ADD1B2" rx="11" ry="11" style="stroke:#181818;stroke-width:1.0;"/><path d="M941.4731,333.4751 Q940.8921,333.7739 940.2529,333.9233 Q939.6138,334.0728 938.9082,334.0728 Q936.4014,334.0728 935.0815,332.4209 Q933.7617,330.769 933.7617,327.6479 Q933.7617,324.5186 935.0815,322.8667 Q936.4014,321.2148 938.9082,321.2148 Q939.6138,321.2148 940.2612,321.3643 Q940.9087,321.5137 941.4731,321.8125 L941.4731,324.5352 Q940.8423,323.9541 940.2488,323.6843 Q939.6553,323.4146 939.0244,323.4146 Q937.6797,323.4146 936.9949,324.4812 Q936.3101,325.5479 936.3101,327.6479 Q936.3101,329.7397 936.9949,330.8064 Q937.6797,331.873 939.0244,331.873 Q939.6553,331.873 940.2488,331.6033 Q940.8423,331.3335 941.4731,330.7524 Z " fill="#000000"/><text fill="#000000" font-family="sans-serif" font-size="14" lengthAdjust="spacing" textLength="93" x="953" y="332.623">MapSerializer</text><line style="stroke:#181818;stroke-width:0.5;" x1="925" x2="1048" y1="343.332" y2="343.332"/><line style="stroke:#181818;stroke-width:0.5;" x1="925" x2="1048" y1="351.332" y2="351.332"/></g><!--MD5=[b2a8ce305ffff3a88d73181270abcf12]
class ObjectHandleSerializer--><g id="elem_ObjectHandleSerializer"><rect codeLine="49" fill="#F1F1F1" height="48" id="ObjectHandleSerializer" rx="2.5" ry="2.5" style="stroke:#181818;stroke-width:0.5;" width="188" x="1084.5" y="311.332"/><ellipse cx="1099.5" cy="327.332" fill="#ADD1B2" rx="11" ry="11" style="stroke:#181818;stroke-width:1.0;"/><path d="M1101.9731,333.4751 Q1101.3921,333.7739 1100.7529,333.9233 Q1100.1138,334.0728 1099.4082,334.0728 Q1096.9014,334.0728 1095.5815,332.4209 Q1094.2617,330.769 1094.2617,327.6479 Q1094.2617,324.5186 1095.5815,322.8667 Q1096.9014,321.2148 1099.4082,321.2148 Q1100.1138,321.2148 1100.7612,321.3643 Q1101.4087,321.5137 1101.9731,321.8125 L1101.9731,324.5352 Q1101.3423,323.9541 1100.7488,323.6843 Q1100.1553,323.4146 1099.5244,323.4146 Q1098.1797,323.4146 1097.4949,324.4812 Q1096.8101,325.5479 1096.8101,327.6479 Q1096.8101,329.7397 1097.4949,330.8064 Q1098.1797,331.873 1099.5244,331.873 Q1100.1553,331.873 1100.7488,331.6033 Q1101.3423,331.3335 1101.9731,330.7524 Z " fill="#000000"/><text fill="#000000" font-family="sans-serif" font-size="14" lengthAdjust="spacing" textLength="156" x="1113.5" y="332.623">ObjectHandleSerializer</text><line style="stroke:#181818;stroke-width:0.5;" x1="1085.5" x2="1271.5" y1="343.332" y2="343.332"/><line style="stroke:#181818;stroke-width:0.5;" x1="1085.5" x2="1271.5" y1="351.332" y2="351.332"/></g><!--MD5=[9aaf1d7242973d417f7b53e056795a60]
class StringValueSerializer--><g id="elem_StringValueSerializer"><rect codeLine="55" fill="#F1F1F1" height="48" id="StringValueSerializer" rx="2.5" ry="2.5" style="stroke:#181818;stroke-width:0.5;" width="175" x="1308" y="311.332"/><ellipse cx="1323" cy="327.332" fill="#ADD1B2" rx="11" ry="11" style="stroke:#181818;stroke-width:1.0;"/><path d="M1325.4731,333.4751 Q1324.8921,333.7739 1324.2529,333.9233 Q1323.6138,334.0728 1322.9082,334.0728 Q1320.4014,334.0728 1319.0815,332.4209 Q1317.7617,330.769 1317.7617,327.6479 Q1317.7617,324.5186 1319.0815,322.8667 Q1320.4014,321.2148 1322.9082,321.2148 Q1323.6138,321.2148 1324.2612,321.3643 Q1324.9087,321.5137 1325.4731,321.8125 L1325.4731,324.5352 Q1324.8423,323.9541 1324.2488,323.6843 Q1323.6553,323.4146 1323.0244,323.4146 Q1321.6797,323.4146 1320.9949,324.4812 Q1320.3101,325.5479 1320.3101,327.6479 Q1320.3101,329.7397 1320.9949,330.8064 Q1321.6797,331.873 1323.0244,331.873 Q1323.6553,331.873 1324.2488,331.6033 Q1324.8423,331.3335 1325.4731,330.7524 Z " fill="#000000"/><text fill="#000000" font-family="sans-serif" font-size="14" lengthAdjust="spacing" textLength="143" x="1337" y="332.623">StringValueSerializer</text><line style="stroke:#181818;stroke-width:0.5;" x1="1309" x2="1482" y1="343.332" y2="343.332"/><line style="stroke:#181818;stroke-width:0.5;" x1="1309" x2="1482" y1="351.332" y2="351.332"/></g><!--MD5=[f428a1f5b3fa47f496556a7ff9d419bc]
class UnsafeSerializer--><g id="elem_UnsafeSerializer"><rect codeLine="57" fill="#F1F1F1" height="48" id="UnsafeSerializer" rx="2.5" ry="2.5" style="stroke:#181818;stroke-width:0.5;" width="143" x="1518" y="311.332"/><ellipse cx="1533" cy="327.332" fill="#ADD1B2" rx="11" ry="11" style="stroke:#181818;stroke-width:1.0;"/><path d="M1535.4731,333.4751 Q1534.8921,333.7739 1534.2529,333.9233 Q1533.6138,334.0728 1532.9082,334.0728 Q1530.4014,334.0728 1529.0815,332.4209 Q1527.7617,330.769 1527.7617,327.6479 Q1527.7617,324.5186 1529.0815,322.8667 Q1530.4014,321.2148 1532.9082,321.2148 Q1533.6138,321.2148 1534.2612,321.3643 Q1534.9087,321.5137 1535.4731,321.8125 L1535.4731,324.5352 Q1534.8423,323.9541 1534.2488,323.6843 Q1533.6553,323.4146 1533.0244,323.4146 Q1531.6797,323.4146 1530.9949,324.4812 Q1530.3101,325.5479 1530.3101,327.6479 Q1530.3101,329.7397 1530.9949,330.8064 Q1531.6797,331.873 1533.0244,331.873 Q1533.6553,331.873 1534.2488,331.6033 Q1534.8423,331.3335 1535.4731,330.7524 Z " fill="#000000"/><text fill="#000000" font-family="sans-serif" font-size="14" lengthAdjust="spacing" textLength="111" x="1547" y="332.623">UnsafeSerializer</text><line style="stroke:#181818;stroke-width:0.5;" x1="1519" x2="1660" y1="343.332" y2="343.332"/><line style="stroke:#181818;stroke-width:0.5;" x1="1519" x2="1660" y1="351.332" y2="351.332"/></g><!--MD5=[565164e04fb61fc2e23f9ba0e506d3e3]
class UnsafeUnsharedSerializer--><g id="elem_UnsafeUnsharedSerializer"><rect codeLine="59" fill="#F1F1F1" height="48" id="UnsafeUnsharedSerializer" rx="2.5" ry="2.5" style="stroke:#181818;stroke-width:0.5;" width="209" x="1485" y="419.332"/><ellipse cx="1500" cy="435.332" fill="#ADD1B2" rx="11" ry="11" style="stroke:#181818;stroke-width:1.0;"/><path d="M1502.4731,441.4751 Q1501.8921,441.7739 1501.2529,441.9233 Q1500.6138,442.0728 1499.9082,442.0728 Q1497.4014,442.0728 1496.0815,440.4209 Q1494.7617,438.769 1494.7617,435.6479 Q1494.7617,432.5186 1496.0815,430.8667 Q1497.4014,429.2148 1499.9082,429.2148 Q1500.6138,429.2148 1501.2612,429.3643 Q1501.9087,429.5137 1502.4731,429.8125 L1502.4731,432.5352 Q1501.8423,431.9541 1501.2488,431.6843 Q1500.6553,431.4146 1500.0244,431.4146 Q1498.6797,431.4146 1497.9949,432.4812 Q1497.3101,433.5479 1497.3101,435.6479 Q1497.3101,437.7397 1497.9949,438.8064 Q1498.6797,439.873 1500.0244,439.873 Q1500.6553,439.873 1501.2488,439.6033 Q1501.8423,439.3335 1502.4731,438.7524 Z " fill="#000000"/><text fill="#000000" font-family="sans-serif" font-size="14" lengthAdjust="spacing" textLength="177" x="1514" y="440.623">UnsafeUnsharedSerializer</text><line style="stroke:#181818;stroke-width:0.5;" x1="1486" x2="1693" y1="451.332" y2="451.332"/><line style="stroke:#181818;stroke-width:0.5;" x1="1486" x2="1693" y1="459.332" y2="459.332"/></g><!--MD5=[8d1cb1ce662ef78ffa2bc2ec39d2d9f8]
reverse link Serializer to AbstractSerializer--><g id="link_Serializer_AbstractSerializer"><path d="M1395.5,147.462 C1395.5,163.982 1395.5,181.502 1395.5,194.992 " fill="none" id="Serializer-backto-AbstractSerializer" style="stroke:#181818;stroke-width:1.0;stroke-dasharray:7.0,7.0;"/><polygon fill="none" points="1388.5,147.432,1395.5,127.432,1402.5,147.432,1388.5,147.432" style="stroke:#181818;stroke-width:1.0;"/></g><!--MD5=[a8dafea9debe4625db52122dd520082e]
reverse link AbstractSerializer to AnnotationSerializer--><g id="link_AbstractSerializer_AnnotationSerializer"><path d="M1491.65,248.652 C1557.24,267.982 1643.02,293.242 1704.4,311.322 " fill="none" id="AbstractSerializer-backto-AnnotationSerializer" style="stroke:#181818;stroke-width:1.0;"/><polygon fill="none" points="1489.63,255.362,1472.42,242.992,1493.58,241.932,1489.63,255.362" style="stroke:#181818;stroke-width:1.0;"/></g><!--MD5=[b197ad33ddf4f80210b2ca81ac1bb9c2]
reverse link AbstractSerializer to ArraySerializer--><g id="link_AbstractSerializer_ArraySerializer"><path d="M1491.99,235.752 C1591.36,252.212 1750.46,280.162 1886.5,311.332 C1892.1,312.612 1897.89,314.022 1903.69,315.492 " fill="none" id="AbstractSerializer-backto-ArraySerializer" style="stroke:#181818;stroke-width:1.0;"/><polygon fill="none" points="1490.63,242.622,1472.03,232.472,1492.9,228.812,1490.63,242.622" style="stroke:#181818;stroke-width:1.0;"/></g><!--MD5=[1b0da3b51431b4ae1a4be8dfb69196ad]
reverse link AbstractSerializer to BasicSerializer--><g id="link_AbstractSerializer_BasicSerializer"><path d="M1298.68,222.742 C1113.24,228.682 695.7,248.462 350.5,311.332 C344.97,312.342 339.28,313.552 333.59,314.892 " fill="none" id="AbstractSerializer-backto-BasicSerializer" style="stroke:#181818;stroke-width:1.0;"/><polygon fill="none" points="1298.6,215.742,1318.8,222.122,1299.03,229.732,1298.6,215.742" style="stroke:#181818;stroke-width:1.0;"/></g><!--MD5=[8f68de0d55081ac3391935db2db5cbcb]
reverse link ObjectSerializer to BasicSerializer--><g id="link_ObjectSerializer_BasicSerializer"><path d="M215.59,267.312 C227.53,282.442 240.25,298.552 250.22,311.172 " fill="none" id="ObjectSerializer-backto-BasicSerializer" style="stroke:#181818;stroke-width:1.0;stroke-dasharray:7.0,7.0;"/><polygon fill="none" points="209.99,271.522,203.09,251.482,220.98,262.842,209.99,271.522" style="stroke:#181818;stroke-width:1.0;"/></g><!--MD5=[9cfd79cb6d69364608098d42552d5ec3]
reverse link AbstractSerializer to ByteArraySerializer--><g id="link_AbstractSerializer_ByteArraySerializer"><path d="M1298.76,222.512 C1092.85,228.262 596.39,248.052 185.5,311.332 C179.8,312.212 173.94,313.242 168.06,314.382 " fill="none" id="AbstractSerializer-backto-ByteArraySerializer" style="stroke:#181818;stroke-width:1.0;"/><polygon fill="none" points="1298.75,215.502,1318.94,221.962,1299.13,229.502,1298.75,215.502" style="stroke:#181818;stroke-width:1.0;"/></g><!--MD5=[11ee610ac77c156f730ca95596f3082a]
reverse link ObjectSerializer to ByteArraySerializer--><g id="link_ObjectSerializer_ByteArraySerializer"><path d="M141,267.312 C128.92,282.442 116.07,298.552 105.98,311.172 " fill="none" id="ObjectSerializer-backto-ByteArraySerializer" style="stroke:#181818;stroke-width:1.0;stroke-dasharray:7.0,7.0;"/><polygon fill="none" points="135.69,262.742,153.63,251.482,146.63,271.482,135.69,262.742" style="stroke:#181818;stroke-width:1.0;"/></g><!--MD5=[4f5acb401603cb9499d34cd0cafc0df3]
reverse link AbstractSerializer to BeanSerializer--><g id="link_AbstractSerializer_BeanSerializer"><path d="M1492.35,229.532 C1621.47,242.742 1856.69,270.132 2054.5,311.332 C2060.15,312.512 2065.97,313.862 2071.8,315.302 " fill="none" id="AbstractSerializer-backto-BeanSerializer" style="stroke:#181818;stroke-width:1.0;"/><polygon fill="none" points="1491.38,236.472,1472.18,227.492,1492.79,222.542,1491.38,236.472" style="stroke:#181818;stroke-width:1.0;"/></g><!--MD5=[e130d3fc47edd69db3fc0336bd592b9d]
reverse link AbstractSerializer to ClassSerializer--><g id="link_AbstractSerializer_ClassSerializer"><path d="M1492.43,226.102 C1647.06,236.402 1958.63,261.702 2218.5,311.332 C2224.29,312.442 2230.27,313.742 2236.24,315.152 " fill="none" id="AbstractSerializer-backto-ClassSerializer" style="stroke:#181818;stroke-width:1.0;"/><polygon fill="none" points="1491.62,233.062,1472.12,224.772,1492.53,219.092,1491.62,233.062" style="stroke:#181818;stroke-width:1.0;"/></g><!--MD5=[d0f8742d9e379eca611a0be987b75c1a]
reverse link AbstractSerializer to CollectionSerializer--><g id="link_AbstractSerializer_CollectionSerializer"><path d="M1492.21,224.882 C1670.13,234.222 2060.97,259.192 2386.5,311.332 C2392.22,312.252 2398.09,313.302 2404,314.442 " fill="none" id="AbstractSerializer-backto-CollectionSerializer" style="stroke:#181818;stroke-width:1.0;"/><polygon fill="none" points="1491.7,231.872,1472.09,223.852,1492.42,217.892,1491.7,231.872" style="stroke:#181818;stroke-width:1.0;"/></g><!--MD5=[e23379854fcdea3adb5b446fabdffcc4]
reverse link AbstractSerializer to EnumSerializer--><g id="link_AbstractSerializer_EnumSerializer"><path d="M1492.32,221.582 C1696.2,225.562 2184.12,242.152 2586.5,311.332 C2592.07,312.292 2597.81,313.452 2603.55,314.742 " fill="none" id="AbstractSerializer-backto-EnumSerializer" style="stroke:#181818;stroke-width:1.0;"/><polygon fill="none" points="1491.92,228.572,1472.05,221.212,1492.17,214.582,1491.92,228.572" style="stroke:#181818;stroke-width:1.0;"/></g><!--MD5=[d827dbac8dcf70b2c8bad754ae6d9545]
reverse link AbstractSerializer to InputStreamSerializer--><g id="link_AbstractSerializer_InputStreamSerializer"><path d="M1298.48,227.802 C1143.26,240.462 829.75,268.962 566.5,311.332 C560.63,312.272 554.6,313.332 548.54,314.452 " fill="none" id="AbstractSerializer-backto-InputStreamSerializer" style="stroke:#181818;stroke-width:1.0;"/><polygon fill="none" points="1298.37,220.782,1318.86,226.152,1299.49,234.742,1298.37,220.782" style="stroke:#181818;stroke-width:1.0;"/></g><!--MD5=[b650b9b483e4a28024d8fc45fe50bcf6]
reverse link AbstractSerializer to IteratorSerializer--><g id="link_AbstractSerializer_IteratorSerializer"><path d="M1298.63,230.652 C1171.63,244.942 942.25,273.332 748.5,311.332 C742.9,312.432 737.14,313.652 731.35,314.962 " fill="none" id="AbstractSerializer-backto-IteratorSerializer" style="stroke:#181818;stroke-width:1.0;"/><polygon fill="none" points="1298.21,223.662,1318.86,228.402,1299.76,237.572,1298.21,223.662" style="stroke:#181818;stroke-width:1.0;"/></g><!--MD5=[5d4c38472f3ea2b3e7e4d24c14908411]
reverse link AbstractSerializer to JavaSerializer--><g id="link_AbstractSerializer_JavaSerializer"><path d="M1298.87,235.402 C1199.79,251.532 1041.54,279.192 906.5,311.332 C900.8,312.692 894.9,314.202 889.01,315.782 " fill="none" id="AbstractSerializer-backto-JavaSerializer" style="stroke:#181818;stroke-width:1.0;"/><polygon fill="none" points="1297.91,228.472,1318.78,232.192,1300.15,242.292,1297.91,228.472" style="stroke:#181818;stroke-width:1.0;"/></g><!--MD5=[49ec9bbb0fd5e6cbb2a6fa8d4f2f1e78]
reverse link JavaSerializer to JavaUnsharedSerializer--><g id="link_JavaSerializer_JavaUnsharedSerializer"><path d="M827.5,379.352 C827.5,392.912 827.5,407.372 827.5,419.012 " fill="none" id="JavaSerializer-backto-JavaUnsharedSerializer" style="stroke:#181818;stroke-width:1.0;"/><polygon fill="none" points="820.5,379.332,827.5,359.332,834.5,379.332,820.5,379.332" style="stroke:#181818;stroke-width:1.0;"/></g><!--MD5=[afbfa1726643212bec29165bbc69c7fe]
reverse link AbstractSerializer to MapSerializer--><g id="link_AbstractSerializer_MapSerializer"><path d="M1299.4,246.642 C1233.75,264.672 1144.81,289.242 1066.5,311.332 C1060.94,312.902 1055.16,314.542 1049.37,316.192 " fill="none" id="AbstractSerializer-backto-MapSerializer" style="stroke:#181818;stroke-width:1.0;"/><polygon fill="none" points="1297.85,239.802,1318.99,241.262,1301.56,253.302,1297.85,239.802" style="stroke:#181818;stroke-width:1.0;"/></g><!--MD5=[17a1cbf8aa8c589d8ec18d5d386cb3b0]
reverse link AbstractSerializer to ObjectHandleSerializer--><g id="link_AbstractSerializer_ObjectHandleSerializer"><path d="M1333.85,252.722 C1298.28,271.402 1254.39,294.462 1222.35,311.292 " fill="none" id="AbstractSerializer-backto-ObjectHandleSerializer" style="stroke:#181818;stroke-width:1.0;"/><polygon fill="none" points="1330.63,246.502,1351.59,243.402,1337.14,258.902,1330.63,246.502" style="stroke:#181818;stroke-width:1.0;"/></g><!--MD5=[ef32db9815337d321bcd3dd723a87d6e]
reverse link AbstractSerializer to StringValueSerializer--><g id="link_AbstractSerializer_StringValueSerializer"><path d="M1395.5,263.652 C1395.5,279.862 1395.5,297.632 1395.5,311.292 " fill="none" id="AbstractSerializer-backto-StringValueSerializer" style="stroke:#181818;stroke-width:1.0;"/><polygon fill="none" points="1388.5,263.402,1395.5,243.402,1402.5,263.402,1388.5,263.402" style="stroke:#181818;stroke-width:1.0;"/></g><!--MD5=[08daa6b3bcab10698029da7d9f3513b7]
reverse link AbstractSerializer to UnsafeSerializer--><g id="link_AbstractSerializer_UnsafeSerializer"><path d="M1452.37,253.752 C1483.85,272.252 1522.18,294.772 1550.3,311.292 " fill="none" id="AbstractSerializer-backto-UnsafeSerializer" style="stroke:#181818;stroke-width:1.0;"/><polygon fill="none" points="1448.46,259.572,1434.76,243.402,1455.55,247.502,1448.46,259.572" style="stroke:#181818;stroke-width:1.0;"/></g><!--MD5=[5ee73f7a522efbf9052bf393f83fc9bc]
reverse link UnsafeSerializer to UnsafeUnsharedSerializer--><g id="link_UnsafeSerializer_UnsafeUnsharedSerializer"><path d="M1589.5,379.352 C1589.5,392.912 1589.5,407.372 1589.5,419.012 " fill="none" id="UnsafeSerializer-backto-UnsafeUnsharedSerializer" style="stroke:#181818;stroke-width:1.0;"/><polygon fill="none" points="1582.5,379.332,1589.5,359.332,1596.5,379.332,1582.5,379.332" style="stroke:#181818;stroke-width:1.0;"/></g><rect height="23.5547" style="stroke:#00000000;stroke-width:1.0;fill:none;" width="381" x="1175.5" y="473.332"/><text fill="#888888" font-family="sans-serif" font-size="20" lengthAdjust="spacing" textLength="381" x="1175.5" y="492.668">D瓜哥 · https://www.diguage.com · 出品</text><!--MD5=[8598a235d29953577ccef764599adaee]
@startuml
skinparam titleFontSize 30
title **Hessian Serializer 类图**

interface Serializer {
  + void writeObject(Object obj, AbstractHessianOutput out);
}

interface ObjectSerializer {
  public Serializer getObjectSerializer();
}

abstract class AbstractSerializer implements Serializer

class AnnotationSerializer extends AbstractSerializer

class ArraySerializer extends AbstractSerializer

class BasicSerializer extends AbstractSerializer implements ObjectSerializer
note bottom of BasicSerializer : 根据待序列化对象的类型，调用 AbstractHessianOutput 中的相\n应序列化方法，完成对基本类型及其数组和字符串等的序列化操作。

class ByteArraySerializer extends AbstractSerializer implements ObjectSerializer

class BeanSerializer extends AbstractSerializer

'class CalendarSerializer extends AbstractSerializer

class ClassSerializer extends AbstractSerializer

class CollectionSerializer extends AbstractSerializer

'class EnumerationSerializer extends AbstractSerializer

class EnumSerializer extends AbstractSerializer

'class InetAddressSerializer extends AbstractSerializer

class InputStreamSerializer extends AbstractSerializer

class IteratorSerializer extends AbstractSerializer

class JavaSerializer extends AbstractSerializer

class JavaUnsharedSerializer extends JavaSerializer

'class LocaleSerializer extends AbstractSerializer

class MapSerializer extends AbstractSerializer

class ObjectHandleSerializer extends AbstractSerializer

'class RemoteSerializer extends AbstractSerializer

'class SqlDateSerializer extends AbstractSerializer

class StringValueSerializer extends AbstractSerializer

class UnsafeSerializer extends AbstractSerializer

class UnsafeUnsharedSerializer extends UnsafeSerializer

skinparam footerFontSize 20
footer D瓜哥 · https://www.diguage.com · 出品
@enduml

@startuml
skinparam titleFontSize 30
title **Hessian Serializer 类图**

interface Serializer {
  + void writeObject(Object obj, AbstractHessianOutput out);
}

interface ObjectSerializer {
  public Serializer getObjectSerializer();
}

abstract class AbstractSerializer implements Serializer

class AnnotationSerializer extends AbstractSerializer

class ArraySerializer extends AbstractSerializer

class BasicSerializer extends AbstractSerializer implements ObjectSerializer
note bottom of BasicSerializer : 根据待序列化对象的类型，调用 AbstractHessianOutput 中的相\n应序列化方法，完成对基本类型及其数组和字符串等的序列化操作。

class ByteArraySerializer extends AbstractSerializer implements ObjectSerializer

class BeanSerializer extends AbstractSerializer


class ClassSerializer extends AbstractSerializer

class CollectionSerializer extends AbstractSerializer


class EnumSerializer extends AbstractSerializer


class InputStreamSerializer extends AbstractSerializer

class IteratorSerializer extends AbstractSerializer

class JavaSerializer extends AbstractSerializer

class JavaUnsharedSerializer extends JavaSerializer


class MapSerializer extends AbstractSerializer

class ObjectHandleSerializer extends AbstractSerializer



class StringValueSerializer extends AbstractSerializer

class UnsafeSerializer extends AbstractSerializer

class UnsafeUnsharedSerializer extends UnsafeSerializer

skinparam footerFontSize 20
footer D瓜哥 · https://www.diguage.com · 出品
@enduml

PlantUML version 1.2022.5(Sat Apr 30 18:55:52 CST 2022)
(GPL source distribution)
Java Runtime: OpenJDK Runtime Environment
JVM: OpenJDK 64-Bit Server VM
Default Encoding: UTF-8
Language: en
Country: CN
--></g></svg>