<?xml version="1.0" encoding="UTF-8" standalone="no"?><svg xmlns="http://www.w3.org/2000/svg" xmlns:xlink="http://www.w3.org/1999/xlink" contentStyleType="text/css" height="635px" preserveAspectRatio="none" style="width:567px;height:635px;background:#FFFFFF;" version="1.1" viewBox="0 0 567 635" width="567px" zoomAndPan="magnify"><defs/><g><rect height="45.332" style="stroke:#00000000;stroke-width:1.0;fill:none;" width="549" x="5" y="5"/><text fill="#000000" font-family="sans-serif" font-size="30" font-weight="bold" lengthAdjust="spacing" textLength="539" x="10" y="39.0039">Hessian AbstractHessianInput 类图</text><!--MD5=[0cd3f7edc610ca4d33c23c1943415164]
class AbstractHessianInput--><g id="elem_AbstractHessianInput"><rect codeLine="4" fill="#F1F1F1" height="427.2305" id="AbstractHessianInput" rx="2.5" ry="2.5" style="stroke:#181818;stroke-width:0.5;" width="342" x="16.25" y="63.332"/><ellipse cx="110" cy="79.332" fill="#A9DCDF" rx="11" ry="11" style="stroke:#181818;stroke-width:1.0;"/><path d="M109.8633,74.6802 L108.7095,79.752 L111.0254,79.752 Z M108.3691,72.439 L111.3657,72.439 L114.7109,84.832 L112.2622,84.832 L111.4985,81.769 L108.2197,81.769 L107.4727,84.832 L105.0239,84.832 Z " fill="#000000"/><text fill="#000000" font-family="sans-serif" font-size="14" font-style="italic" lengthAdjust="spacing" textLength="146" x="130.5" y="84.623">AbstractHessianInput</text><line style="stroke:#181818;stroke-width:0.5;" x1="17.25" x2="357.25" y1="95.332" y2="95.332"/><line style="stroke:#181818;stroke-width:0.5;" x1="17.25" x2="357.25" y1="103.332" y2="103.332"/><ellipse cx="27.25" cy="114.332" fill="#84BE84" rx="3" ry="3" style="stroke:#038048;stroke-width:1.0;"/><text fill="#000000" font-family="sans-serif" font-size="14" lengthAdjust="spacing" textLength="316" x="36.25" y="120.8672">void setSerializerFactory(SerializerFactory ser)</text><ellipse cx="27.25" cy="130.8203" fill="#84BE84" rx="3" ry="3" style="stroke:#038048;stroke-width:1.0;"/><text fill="#000000" font-family="sans-serif" font-size="14" font-style="italic" lengthAdjust="spacing" textLength="156" x="36.25" y="137.3555">boolean readBoolean()</text><ellipse cx="27.25" cy="147.3086" fill="#84BE84" rx="3" ry="3" style="stroke:#038048;stroke-width:1.0;"/><text fill="#000000" font-family="sans-serif" font-size="14" font-style="italic" lengthAdjust="spacing" textLength="101" x="36.25" y="153.8438">void readNull()</text><ellipse cx="27.25" cy="163.7969" fill="#84BE84" rx="3" ry="3" style="stroke:#038048;stroke-width:1.0;"/><text fill="#000000" font-family="sans-serif" font-size="14" font-style="italic" lengthAdjust="spacing" textLength="81" x="36.25" y="170.332">int readInt()</text><ellipse cx="27.25" cy="180.2852" fill="#84BE84" rx="3" ry="3" style="stroke:#038048;stroke-width:1.0;"/><text fill="#000000" font-family="sans-serif" font-size="14" font-style="italic" lengthAdjust="spacing" textLength="110" x="36.25" y="186.8203">long readLong()</text><ellipse cx="27.25" cy="196.7734" fill="#84BE84" rx="3" ry="3" style="stroke:#038048;stroke-width:1.0;"/><text fill="#000000" font-family="sans-serif" font-size="14" font-style="italic" lengthAdjust="spacing" textLength="142" x="36.25" y="203.3086">double readDouble()</text><ellipse cx="27.25" cy="213.2617" fill="#84BE84" rx="3" ry="3" style="stroke:#038048;stroke-width:1.0;"/><text fill="#000000" font-family="sans-serif" font-size="14" font-style="italic" lengthAdjust="spacing" textLength="136" x="36.25" y="219.7969">long readUTCDate()</text><ellipse cx="27.25" cy="229.75" fill="#84BE84" rx="3" ry="3" style="stroke:#038048;stroke-width:1.0;"/><text fill="#000000" font-family="sans-serif" font-size="14" font-style="italic" lengthAdjust="spacing" textLength="127" x="36.25" y="236.2852">String readString()</text><ellipse cx="27.25" cy="246.2383" fill="#84BE84" rx="3" ry="3" style="stroke:#038048;stroke-width:1.0;"/><text fill="#000000" font-family="sans-serif" font-size="14" font-style="italic" lengthAdjust="spacing" textLength="119" x="36.25" y="252.7734">byte []readBytes()</text><ellipse cx="27.25" cy="262.7266" fill="#84BE84" rx="3" ry="3" style="stroke:#038048;stroke-width:1.0;"/><text fill="#000000" font-family="sans-serif" font-size="14" font-style="italic" lengthAdjust="spacing" textLength="272" x="36.25" y="269.2617">Object readObject(Class expectedClass)</text><ellipse cx="27.25" cy="279.2148" fill="#84BE84" rx="3" ry="3" style="stroke:#038048;stroke-width:1.0;"/><text fill="#000000" font-family="sans-serif" font-size="14" font-style="italic" lengthAdjust="spacing" textLength="133" x="36.25" y="285.75">Object readObject()</text><ellipse cx="27.25" cy="295.7031" fill="#84BE84" rx="3" ry="3" style="stroke:#038048;stroke-width:1.0;"/><text fill="#000000" font-family="sans-serif" font-size="14" font-style="italic" lengthAdjust="spacing" textLength="111" x="36.25" y="302.2383">Object readRef()</text><ellipse cx="27.25" cy="312.1914" fill="#84BE84" rx="3" ry="3" style="stroke:#038048;stroke-width:1.0;"/><text fill="#000000" font-family="sans-serif" font-size="14" font-style="italic" lengthAdjust="spacing" textLength="150" x="36.25" y="318.7266">int addRef(Object obj)</text><ellipse cx="27.25" cy="328.6797" fill="#84BE84" rx="3" ry="3" style="stroke:#038048;stroke-width:1.0;"/><text fill="#000000" font-family="sans-serif" font-size="14" font-style="italic" lengthAdjust="spacing" textLength="189" x="36.25" y="335.2148">void setRef(int i, Object obj)</text><ellipse cx="27.25" cy="345.168" fill="#84BE84" rx="3" ry="3" style="stroke:#038048;stroke-width:1.0;"/><text fill="#000000" font-family="sans-serif" font-size="14" font-style="italic" lengthAdjust="spacing" textLength="118" x="36.25" y="351.7031">int readListStart()</text><ellipse cx="27.25" cy="361.6563" fill="#84BE84" rx="3" ry="3" style="stroke:#038048;stroke-width:1.0;"/><text fill="#000000" font-family="sans-serif" font-size="14" font-style="italic" lengthAdjust="spacing" textLength="110" x="36.25" y="368.1914">int readLength()</text><ellipse cx="27.25" cy="378.1445" fill="#84BE84" rx="3" ry="3" style="stroke:#038048;stroke-width:1.0;"/><text fill="#000000" font-family="sans-serif" font-size="14" font-style="italic" lengthAdjust="spacing" textLength="124" x="36.25" y="384.6797">int readMapStart()</text><ellipse cx="27.25" cy="394.6328" fill="#84BE84" rx="3" ry="3" style="stroke:#038048;stroke-width:1.0;"/><text fill="#000000" font-family="sans-serif" font-size="14" font-style="italic" lengthAdjust="spacing" textLength="119" x="36.25" y="401.168">String readType()</text><ellipse cx="27.25" cy="411.1211" fill="#84BE84" rx="3" ry="3" style="stroke:#038048;stroke-width:1.0;"/><text fill="#000000" font-family="sans-serif" font-size="14" font-style="italic" lengthAdjust="spacing" textLength="107" x="36.25" y="417.6563">boolean isEnd()</text><ellipse cx="27.25" cy="427.6094" fill="#84BE84" rx="3" ry="3" style="stroke:#038048;stroke-width:1.0;"/><text fill="#000000" font-family="sans-serif" font-size="14" font-style="italic" lengthAdjust="spacing" textLength="100" x="36.25" y="434.1445">void readEnd()</text><ellipse cx="27.25" cy="444.0977" fill="#84BE84" rx="3" ry="3" style="stroke:#038048;stroke-width:1.0;"/><text fill="#000000" font-family="sans-serif" font-size="14" font-style="italic" lengthAdjust="spacing" textLength="129" x="36.25" y="450.6328">void readMapEnd()</text><ellipse cx="27.25" cy="460.5859" fill="#84BE84" rx="3" ry="3" style="stroke:#038048;stroke-width:1.0;"/><text fill="#000000" font-family="sans-serif" font-size="14" font-style="italic" lengthAdjust="spacing" textLength="123" x="36.25" y="467.1211">void readListEnd()</text><ellipse cx="27.25" cy="477.0742" fill="#84BE84" rx="3" ry="3" style="stroke:#038048;stroke-width:1.0;"/><text fill="#000000" font-family="sans-serif" font-size="14" lengthAdjust="spacing" textLength="78" x="36.25" y="483.6094">void close()</text></g><!--MD5=[ce45b0312c8936bdf1a4a578d9bb3b77]
class HessianInput--><g id="elem_HessianInput"><rect codeLine="30" fill="#F1F1F1" height="48" id="HessianInput" rx="2.5" ry="2.5" style="stroke:#181818;stroke-width:0.5;" width="121" x="126.75" y="550.332"/><ellipse cx="141.75" cy="566.332" fill="#ADD1B2" rx="11" ry="11" style="stroke:#181818;stroke-width:1.0;"/><path d="M144.2231,572.4751 Q143.6421,572.7739 143.0029,572.9233 Q142.3638,573.0728 141.6582,573.0728 Q139.1514,573.0728 137.8315,571.4209 Q136.5117,569.769 136.5117,566.6479 Q136.5117,563.5186 137.8315,561.8667 Q139.1514,560.2148 141.6582,560.2148 Q142.3638,560.2148 143.0112,560.3643 Q143.6587,560.5137 144.2231,560.8125 L144.2231,563.5352 Q143.5923,562.9541 142.9988,562.6843 Q142.4053,562.4146 141.7744,562.4146 Q140.4297,562.4146 139.7449,563.4812 Q139.0601,564.5479 139.0601,566.6479 Q139.0601,568.7397 139.7449,569.8064 Q140.4297,570.873 141.7744,570.873 Q142.4053,570.873 142.9988,570.6033 Q143.5923,570.3335 144.2231,569.7524 Z " fill="#000000"/><text fill="#000000" font-family="sans-serif" font-size="14" lengthAdjust="spacing" textLength="89" x="155.75" y="571.623">HessianInput</text><line style="stroke:#181818;stroke-width:0.5;" x1="127.75" x2="246.75" y1="582.332" y2="582.332"/><line style="stroke:#181818;stroke-width:0.5;" x1="127.75" x2="246.75" y1="590.332" y2="590.332"/></g><!--MD5=[3dcd6432be4763f09dce15986ddfbf6e]
class Hessian2Input--><g id="elem_Hessian2Input"><rect codeLine="32" fill="#F1F1F1" height="48" id="Hessian2Input" rx="2.5" ry="2.5" style="stroke:#181818;stroke-width:0.5;" width="130" x="346.25" y="550.332"/><ellipse cx="361.25" cy="566.332" fill="#ADD1B2" rx="11" ry="11" style="stroke:#181818;stroke-width:1.0;"/><path d="M363.7231,572.4751 Q363.1421,572.7739 362.5029,572.9233 Q361.8638,573.0728 361.1582,573.0728 Q358.6514,573.0728 357.3315,571.4209 Q356.0117,569.769 356.0117,566.6479 Q356.0117,563.5186 357.3315,561.8667 Q358.6514,560.2148 361.1582,560.2148 Q361.8638,560.2148 362.5112,560.3643 Q363.1587,560.5137 363.7231,560.8125 L363.7231,563.5352 Q363.0923,562.9541 362.4988,562.6843 Q361.9053,562.4146 361.2744,562.4146 Q359.9297,562.4146 359.2449,563.4812 Q358.5601,564.5479 358.5601,566.6479 Q358.5601,568.7397 359.2449,569.8064 Q359.9297,570.873 361.2744,570.873 Q361.9053,570.873 362.4988,570.6033 Q363.0923,570.3335 363.7231,569.7524 Z " fill="#000000"/><text fill="#000000" font-family="sans-serif" font-size="14" lengthAdjust="spacing" textLength="98" x="375.25" y="571.623">Hessian2Input</text><line style="stroke:#181818;stroke-width:0.5;" x1="347.25" x2="475.25" y1="582.332" y2="582.332"/><line style="stroke:#181818;stroke-width:0.5;" x1="347.25" x2="475.25" y1="590.332" y2="590.332"/></g><!--MD5=[74c36771e2d1d14c81d6e5c916f77cda]
class Hessian2Constants--><g id="elem_Hessian2Constants"><rect fill="#F1F1F1" height="48" id="Hessian2Constants" rx="2.5" ry="2.5" style="stroke:#181818;stroke-width:0.5;" width="163" x="393.75" y="252.832"/><ellipse cx="408.75" cy="268.832" fill="#B4A7E5" rx="11" ry="11" style="stroke:#181818;stroke-width:1.0;"/><path d="M405.1777,265.0972 L405.1777,262.939 L412.5571,262.939 L412.5571,265.0972 L410.0918,265.0972 L410.0918,273.1738 L412.5571,273.1738 L412.5571,275.332 L405.1777,275.332 L405.1777,273.1738 L407.6431,273.1738 L407.6431,265.0972 Z " fill="#000000"/><text fill="#000000" font-family="sans-serif" font-size="14" font-style="italic" lengthAdjust="spacing" textLength="131" x="422.75" y="274.123">Hessian2Constants</text><line style="stroke:#181818;stroke-width:0.5;" x1="394.75" x2="555.75" y1="284.832" y2="284.832"/><line style="stroke:#181818;stroke-width:0.5;" x1="394.75" x2="555.75" y1="292.832" y2="292.832"/></g><!--MD5=[087cdd611c582a24b8e73325ecc483ac]
reverse link AbstractHessianInput to HessianInput--><g id="link_AbstractHessianInput_HessianInput"><path d="M187.25,510.702 C187.25,526.142 187.25,539.702 187.25,550.212 " fill="none" id="AbstractHessianInput-backto-HessianInput" style="stroke:#181818;stroke-width:1.0;"/><polygon fill="none" points="180.25,510.622,187.25,490.622,194.25,510.622,180.25,510.622" style="stroke:#181818;stroke-width:1.0;"/></g><!--MD5=[694d2f8ea33a0523208455f880d0960c]
reverse link AbstractHessianInput to Hessian2Input--><g id="link_AbstractHessianInput_Hessian2Input"><path d="M360.64,506.562 C373.64,523.722 385.05,538.772 393.73,550.212 " fill="none" id="AbstractHessianInput-backto-Hessian2Input" style="stroke:#181818;stroke-width:1.0;"/><polygon fill="none" points="355.06,510.792,348.56,490.622,366.22,502.332,355.06,510.792" style="stroke:#181818;stroke-width:1.0;"/></g><!--MD5=[d5f03ce4f73e745d716fb3b99ec73414]
reverse link Hessian2Constants to Hessian2Input--><g id="link_Hessian2Constants_Hessian2Input"><path d="M465.97,320.672 C452.23,384.112 426.95,500.832 416.25,550.252 " fill="none" id="Hessian2Constants-backto-Hessian2Input" style="stroke:#181818;stroke-width:1.0;stroke-dasharray:7.0,7.0;"/><polygon fill="none" points="459.15,319.082,470.23,301.022,472.84,322.052,459.15,319.082" style="stroke:#181818;stroke-width:1.0;"/></g><rect height="23.5547" style="stroke:#00000000;stroke-width:1.0;fill:none;" width="381" x="89" y="604.332"/><text fill="#888888" font-family="sans-serif" font-size="20" lengthAdjust="spacing" textLength="381" x="89" y="623.668">D瓜哥 · https://www.diguage.com · 出品</text><!--MD5=[a7fde6e48e122b478f2b34a2266d4768]
@startuml
skinparam titleFontSize 30
title **Hessian AbstractHessianInput 类图**

abstract class AbstractHessianInput {
  +void setSerializerFactory(SerializerFactory ser)
  +{abstract} boolean readBoolean()
  +{abstract} void readNull()
  +{abstract} int readInt()
  +{abstract} long readLong()
  +{abstract} double readDouble()
  +{abstract} long readUTCDate()
  +{abstract} String readString()
  +{abstract} byte []readBytes()
  +{abstract} Object readObject(Class expectedClass)
  +{abstract} Object readObject()
  +{abstract} Object readRef()
  +{abstract} int addRef(Object obj)
  +{abstract} void setRef(int i, Object obj)
  +{abstract} int readListStart()
  +{abstract} int readLength()
  +{abstract} int readMapStart()
  +{abstract} String readType()
  +{abstract} boolean isEnd()
  +{abstract} void readEnd()
  +{abstract} void readMapEnd()
  +{abstract} void readListEnd()
  +void close()
}

class HessianInput extends AbstractHessianInput

class Hessian2Input extends AbstractHessianInput implements Hessian2Constants

skinparam footerFontSize 20
footer D瓜哥 · https://www.diguage.com · 出品
@enduml

PlantUML version 1.2022.5(Sat Apr 30 18:55:52 CST 2022)
(GPL source distribution)
Java Runtime: OpenJDK Runtime Environment
JVM: OpenJDK 64-Bit Server VM
Default Encoding: UTF-8
Language: en
Country: CN
--></g></svg>