<?xml version="1.0" encoding="UTF-8" standalone="no"?><svg xmlns="http://www.w3.org/2000/svg" xmlns:xlink="http://www.w3.org/1999/xlink" contentStyleType="text/css" height="755px" preserveAspectRatio="none" style="width:674px;height:755px;background:#FFFFFF;" version="1.1" viewBox="0 0 674 755" width="674px" zoomAndPan="magnify"><defs/><g><rect height="52.3984" style="stroke:#00000000;stroke-width:1.0;fill:none;" width="654" x="5" y="5"/><text fill="#000000" font-family="'Source" font-size="36" font-weight="bold" lengthAdjust="spacing" textLength="644" x="10" y="44.8047">Hessian AbstractHessianInput 类图</text><!--MD5=[0cd3f7edc610ca4d33c23c1943415164]
class AbstractHessianInput--><g id="elem_AbstractHessianInput"><rect codeLine="3" fill="#F1F1F1" height="537.582" id="AbstractHessianInput" rx="2.5" ry="2.5" style="stroke:#181818;stroke-width:0.5;" width="423" x="10.5" y="70.3984"/><ellipse cx="125.5" cy="87.3984" fill="#A9DCDF" rx="12" ry="12" style="stroke:#181818;stroke-width:1.0;"/><path d="M125.4141,82.6494 L124.1924,88.0195 L126.6445,88.0195 Z M123.832,80.2764 L127.0049,80.2764 L130.5469,93.3984 L127.9541,93.3984 L127.1455,90.1553 L123.6738,90.1553 L122.8828,93.3984 L120.29,93.3984 Z " fill="#000000"/><text fill="#000000" font-family="sans-serif" font-size="18" font-style="italic" lengthAdjust="spacing" textLength="184" x="147.5" y="94.2012">AbstractHessianInput</text><line style="stroke:#181818;stroke-width:0.5;" x1="11.5" x2="432.5" y1="104.3984" y2="104.3984"/><line style="stroke:#181818;stroke-width:0.5;" x1="11.5" x2="432.5" y1="112.3984" y2="112.3984"/><ellipse cx="21.5" cy="123.3984" fill="#84BE84" rx="3" ry="3" style="stroke:#038048;stroke-width:1.0;"/><text fill="#000000" font-family="sans-serif" font-size="18" lengthAdjust="spacing" textLength="396" x="31.5" y="133.8008">void setSerializerFactory(SerializerFactory ser)</text><ellipse cx="21.5" cy="144.5977" fill="#84BE84" rx="3" ry="3" style="stroke:#038048;stroke-width:1.0;"/><text fill="#000000" font-family="sans-serif" font-size="18" font-style="italic" lengthAdjust="spacing" textLength="193" x="31.5" y="155">boolean readBoolean()</text><ellipse cx="21.5" cy="165.7969" fill="#84BE84" rx="3" ry="3" style="stroke:#038048;stroke-width:1.0;"/><text fill="#000000" font-family="sans-serif" font-size="18" font-style="italic" lengthAdjust="spacing" textLength="126" x="31.5" y="176.1992">void readNull()</text><ellipse cx="21.5" cy="186.9961" fill="#84BE84" rx="3" ry="3" style="stroke:#038048;stroke-width:1.0;"/><text fill="#000000" font-family="sans-serif" font-size="18" font-style="italic" lengthAdjust="spacing" textLength="102" x="31.5" y="197.3984">int readInt()</text><ellipse cx="21.5" cy="208.1953" fill="#84BE84" rx="3" ry="3" style="stroke:#038048;stroke-width:1.0;"/><text fill="#000000" font-family="sans-serif" font-size="18" font-style="italic" lengthAdjust="spacing" textLength="137" x="31.5" y="218.5977">long readLong()</text><ellipse cx="21.5" cy="229.3945" fill="#84BE84" rx="3" ry="3" style="stroke:#038048;stroke-width:1.0;"/><text fill="#000000" font-family="sans-serif" font-size="18" font-style="italic" lengthAdjust="spacing" textLength="176" x="31.5" y="239.7969">double readDouble()</text><ellipse cx="21.5" cy="250.5938" fill="#84BE84" rx="3" ry="3" style="stroke:#038048;stroke-width:1.0;"/><text fill="#000000" font-family="sans-serif" font-size="18" font-style="italic" lengthAdjust="spacing" textLength="169" x="31.5" y="260.9961">long readUTCDate()</text><ellipse cx="21.5" cy="271.793" fill="#84BE84" rx="3" ry="3" style="stroke:#038048;stroke-width:1.0;"/><text fill="#000000" font-family="sans-serif" font-size="18" font-style="italic" lengthAdjust="spacing" textLength="158" x="31.5" y="282.1953">String readString()</text><ellipse cx="21.5" cy="292.9922" fill="#84BE84" rx="3" ry="3" style="stroke:#038048;stroke-width:1.0;"/><text fill="#000000" font-family="sans-serif" font-size="18" font-style="italic" lengthAdjust="spacing" textLength="150" x="31.5" y="303.3945">byte []readBytes()</text><ellipse cx="21.5" cy="314.1914" fill="#84BE84" rx="3" ry="3" style="stroke:#038048;stroke-width:1.0;"/><text fill="#000000" font-family="sans-serif" font-size="18" font-style="italic" lengthAdjust="spacing" textLength="343" x="31.5" y="324.5938">Object readObject(Class expectedClass)</text><ellipse cx="21.5" cy="335.3906" fill="#84BE84" rx="3" ry="3" style="stroke:#038048;stroke-width:1.0;"/><text fill="#000000" font-family="sans-serif" font-size="18" font-style="italic" lengthAdjust="spacing" textLength="168" x="31.5" y="345.793">Object readObject()</text><ellipse cx="21.5" cy="356.5898" fill="#84BE84" rx="3" ry="3" style="stroke:#038048;stroke-width:1.0;"/><text fill="#000000" font-family="sans-serif" font-size="18" font-style="italic" lengthAdjust="spacing" textLength="140" x="31.5" y="366.9922">Object readRef()</text><ellipse cx="21.5" cy="377.7891" fill="#84BE84" rx="3" ry="3" style="stroke:#038048;stroke-width:1.0;"/><text fill="#000000" font-family="sans-serif" font-size="18" font-style="italic" lengthAdjust="spacing" textLength="190" x="31.5" y="388.1914">int addRef(Object obj)</text><ellipse cx="21.5" cy="398.9883" fill="#84BE84" rx="3" ry="3" style="stroke:#038048;stroke-width:1.0;"/><text fill="#000000" font-family="sans-serif" font-size="18" font-style="italic" lengthAdjust="spacing" textLength="243" x="31.5" y="409.3906">void setRef(int i, Object obj)</text><ellipse cx="21.5" cy="420.1875" fill="#84BE84" rx="3" ry="3" style="stroke:#038048;stroke-width:1.0;"/><text fill="#000000" font-family="sans-serif" font-size="18" font-style="italic" lengthAdjust="spacing" textLength="151" x="31.5" y="430.5898">int readListStart()</text><ellipse cx="21.5" cy="441.3867" fill="#84BE84" rx="3" ry="3" style="stroke:#038048;stroke-width:1.0;"/><text fill="#000000" font-family="sans-serif" font-size="18" font-style="italic" lengthAdjust="spacing" textLength="139" x="31.5" y="451.7891">int readLength()</text><ellipse cx="21.5" cy="462.5859" fill="#84BE84" rx="3" ry="3" style="stroke:#038048;stroke-width:1.0;"/><text fill="#000000" font-family="sans-serif" font-size="18" font-style="italic" lengthAdjust="spacing" textLength="157" x="31.5" y="472.9883">int readMapStart()</text><ellipse cx="21.5" cy="483.7852" fill="#84BE84" rx="3" ry="3" style="stroke:#038048;stroke-width:1.0;"/><text fill="#000000" font-family="sans-serif" font-size="18" font-style="italic" lengthAdjust="spacing" textLength="148" x="31.5" y="494.1875">String readType()</text><ellipse cx="21.5" cy="504.9844" fill="#84BE84" rx="3" ry="3" style="stroke:#038048;stroke-width:1.0;"/><text fill="#000000" font-family="sans-serif" font-size="18" font-style="italic" lengthAdjust="spacing" textLength="133" x="31.5" y="515.3867">boolean isEnd()</text><ellipse cx="21.5" cy="526.1836" fill="#84BE84" rx="3" ry="3" style="stroke:#038048;stroke-width:1.0;"/><text fill="#000000" font-family="sans-serif" font-size="18" font-style="italic" lengthAdjust="spacing" textLength="124" x="31.5" y="536.5859">void readEnd()</text><ellipse cx="21.5" cy="547.3828" fill="#84BE84" rx="3" ry="3" style="stroke:#038048;stroke-width:1.0;"/><text fill="#000000" font-family="sans-serif" font-size="18" font-style="italic" lengthAdjust="spacing" textLength="161" x="31.5" y="557.7852">void readMapEnd()</text><ellipse cx="21.5" cy="568.582" fill="#84BE84" rx="3" ry="3" style="stroke:#038048;stroke-width:1.0;"/><text fill="#000000" font-family="sans-serif" font-size="18" font-style="italic" lengthAdjust="spacing" textLength="155" x="31.5" y="578.9844">void readListEnd()</text><ellipse cx="21.5" cy="589.7813" fill="#84BE84" rx="3" ry="3" style="stroke:#038048;stroke-width:1.0;"/><text fill="#000000" font-family="sans-serif" font-size="18" lengthAdjust="spacing" textLength="98" x="31.5" y="600.1836">void close()</text></g><!--MD5=[ce45b0312c8936bdf1a4a578d9bb3b77]
class HessianInput--><g id="elem_HessianInput"><rect codeLine="29" fill="#F1F1F1" height="50" id="HessianInput" rx="2.5" ry="2.5" style="stroke:#181818;stroke-width:0.5;" width="146" x="149" y="668.3984"/><ellipse cx="165" cy="685.3984" fill="#ADD1B2" rx="12" ry="12" style="stroke:#181818;stroke-width:1.0;"/><path d="M167.501,691.5205 Q166.8857,691.8369 166.209,691.9951 Q165.5322,692.1533 164.7852,692.1533 Q162.1309,692.1533 160.7334,690.4043 Q159.3359,688.6553 159.3359,685.3506 Q159.3359,682.0371 160.7334,680.2881 Q162.1309,678.5391 164.7852,678.5391 Q165.5322,678.5391 166.2178,678.6973 Q166.9033,678.8555 167.501,679.1719 L167.501,682.0547 Q166.833,681.4395 166.2046,681.1538 Q165.5762,680.8682 164.9082,680.8682 Q163.4844,680.8682 162.7593,681.9976 Q162.0342,683.127 162.0342,685.3506 Q162.0342,687.5654 162.7593,688.6948 Q163.4844,689.8242 164.9082,689.8242 Q165.5762,689.8242 166.2046,689.5386 Q166.833,689.2529 167.501,688.6377 Z " fill="#000000"/><text fill="#000000" font-family="sans-serif" font-size="18" lengthAdjust="spacing" textLength="112" x="180" y="692.2012">HessianInput</text><line style="stroke:#181818;stroke-width:0.5;" x1="150" x2="294" y1="702.3984" y2="702.3984"/><line style="stroke:#181818;stroke-width:0.5;" x1="150" x2="294" y1="710.3984" y2="710.3984"/></g><!--MD5=[3dcd6432be4763f09dce15986ddfbf6e]
class Hessian2Input--><g id="elem_Hessian2Input"><rect codeLine="31" fill="#F1F1F1" height="50" id="Hessian2Input" rx="2.5" ry="2.5" style="stroke:#181818;stroke-width:0.5;" width="157" x="409.5" y="668.3984"/><ellipse cx="425.5" cy="685.3984" fill="#ADD1B2" rx="12" ry="12" style="stroke:#181818;stroke-width:1.0;"/><path d="M428.001,691.5205 Q427.3857,691.8369 426.709,691.9951 Q426.0322,692.1533 425.2852,692.1533 Q422.6309,692.1533 421.2334,690.4043 Q419.8359,688.6553 419.8359,685.3506 Q419.8359,682.0371 421.2334,680.2881 Q422.6309,678.5391 425.2852,678.5391 Q426.0322,678.5391 426.7178,678.6973 Q427.4033,678.8555 428.001,679.1719 L428.001,682.0547 Q427.333,681.4395 426.7046,681.1538 Q426.0762,680.8682 425.4082,680.8682 Q423.9844,680.8682 423.2593,681.9976 Q422.5342,683.127 422.5342,685.3506 Q422.5342,687.5654 423.2593,688.6948 Q423.9844,689.8242 425.4082,689.8242 Q426.0762,689.8242 426.7046,689.5386 Q427.333,689.2529 428.001,688.6377 Z " fill="#000000"/><text fill="#000000" font-family="sans-serif" font-size="18" lengthAdjust="spacing" textLength="123" x="440.5" y="692.2012">Hessian2Input</text><line style="stroke:#181818;stroke-width:0.5;" x1="410.5" x2="565.5" y1="702.3984" y2="702.3984"/><line style="stroke:#181818;stroke-width:0.5;" x1="410.5" x2="565.5" y1="710.3984" y2="710.3984"/></g><!--MD5=[74c36771e2d1d14c81d6e5c916f77cda]
class Hessian2Constants--><g id="elem_Hessian2Constants"><rect fill="#F1F1F1" height="50" id="Hessian2Constants" rx="2.5" ry="2.5" style="stroke:#181818;stroke-width:0.5;" width="199" x="468.5" y="314.3984"/><ellipse cx="484.5" cy="331.3984" fill="#B4A7E5" rx="12" ry="12" style="stroke:#181818;stroke-width:1.0;"/><path d="M480.5117,327.3115 L480.5117,325.0264 L488.3252,325.0264 L488.3252,327.3115 L485.7148,327.3115 L485.7148,335.8633 L488.3252,335.8633 L488.3252,338.1484 L480.5117,338.1484 L480.5117,335.8633 L483.1221,335.8633 L483.1221,327.3115 Z " fill="#000000"/><text fill="#000000" font-family="sans-serif" font-size="18" font-style="italic" lengthAdjust="spacing" textLength="165" x="499.5" y="338.2012">Hessian2Constants</text><line style="stroke:#181818;stroke-width:0.5;" x1="469.5" x2="666.5" y1="348.3984" y2="348.3984"/><line style="stroke:#181818;stroke-width:0.5;" x1="469.5" x2="666.5" y1="356.3984" y2="356.3984"/></g><!--MD5=[087cdd611c582a24b8e73325ecc483ac]
reverse link AbstractHessianInput to HessianInput--><g id="link_AbstractHessianInput_HessianInput"><path d="M222,628.7484 C222,644.2384 222,657.7384 222,668.2684 " fill="none" id="AbstractHessianInput-backto-HessianInput" style="stroke:#181818;stroke-width:1.0;"/><polygon fill="none" points="215,628.5284,222,608.5284,229,628.5284,215,628.5284" style="stroke:#181818;stroke-width:1.0;"/></g><!--MD5=[694d2f8ea33a0523208455f880d0960c]
reverse link AbstractHessianInput to Hessian2Input--><g id="link_AbstractHessianInput_Hessian2Input"><path d="M436.76,624.5984 C449.79,641.8284 461.1,656.8084 469.77,668.2684 " fill="none" id="AbstractHessianInput-backto-Hessian2Input" style="stroke:#181818;stroke-width:1.0;"/><polygon fill="none" points="431.1,628.7084,424.62,608.5284,442.27,620.2684,431.1,628.7084" style="stroke:#181818;stroke-width:1.0;"/></g><!--MD5=[d5f03ce4f73e745d716fb3b99ec73414]
reverse link Hessian2Constants to Hessian2Input--><g id="link_Hessian2Constants_Hessian2Input"><path d="M557.99,384.4384 C540.96,459.3884 506.88,609.3284 493.54,668.0384 " fill="none" id="Hessian2Constants-backto-Hessian2Input" style="stroke:#181818;stroke-width:1.0;stroke-dasharray:7.0,7.0;"/><polygon fill="none" points="551.24,382.5484,562.5,364.5884,564.89,385.6484,551.24,382.5484" style="stroke:#181818;stroke-width:1.0;"/></g><rect height="23.5547" style="stroke:#00000000;stroke-width:1.0;fill:none;" width="381" x="141.5" y="724.3984"/><text fill="#888888" font-family="'Source" font-size="20" lengthAdjust="spacing" textLength="381" x="141.5" y="743.7344">D瓜哥 · https://www.diguage.com · 出品</text><!--MD5=[b23913f8fdf7d0f8ab56689b589484ef]
@startuml
skinparamlocked defaultFontSize 18
skinparamlocked titleFontSize 36
skinparamlocked footerFontSize 20
skinparamlocked titleFontName 'Source
skinparamlocked noteFontName 'Source
skinparamlocked footerFontName 'Source
title **Hessian AbstractHessianInput 类图**

abstract class AbstractHessianInput {
  +void setSerializerFactory(SerializerFactory ser)
  +{abstract} boolean readBoolean()
  +{abstract} void readNull()
  +{abstract} int readInt()
  +{abstract} long readLong()
  +{abstract} double readDouble()
  +{abstract} long readUTCDate()
  +{abstract} String readString()
  +{abstract} byte []readBytes()
  +{abstract} Object readObject(Class expectedClass)
  +{abstract} Object readObject()
  +{abstract} Object readRef()
  +{abstract} int addRef(Object obj)
  +{abstract} void setRef(int i, Object obj)
  +{abstract} int readListStart()
  +{abstract} int readLength()
  +{abstract} int readMapStart()
  +{abstract} String readType()
  +{abstract} boolean isEnd()
  +{abstract} void readEnd()
  +{abstract} void readMapEnd()
  +{abstract} void readListEnd()
  +void close()
}

class HessianInput extends AbstractHessianInput

class Hessian2Input extends AbstractHessianInput implements Hessian2Constants

footer D瓜哥 · https://www.diguage.com · 出品
@enduml

PlantUML version 1.2022.6(Wed Jun 22 01:34:49 CST 2022)
(GPL source distribution)
Java Runtime: OpenJDK Runtime Environment
JVM: OpenJDK 64-Bit Server VM
Default Encoding: UTF-8
Language: en
Country: CN
--></g></svg>